<svg xmlns="http://www.w3.org/2000/svg" width="21" height="23" viewBox="0 0 21 23">
  <g id="bg-io" transform="translate(-265 -193)">
    <path id="Path_52451" data-name="Path 52451" d="M286,216v-5h-3v5Zm-2-4h1v3h-1Z" fill="#132941"/>
    <path id="Path_52452" data-name="Path 52452" d="M280,216v-5h-3v5Zm-2-4h1v3h-1Z" fill="#132941"/>
    <rect id="Rectangle_32243" data-name="Rectangle 32243" width="1" height="5" transform="translate(275 211)" fill="#132941"/>
    <path id="Path_52453" data-name="Path 52453" d="M274,216v-5h-3v5Zm-2-4h1v3h-1Z" fill="#132941"/>
    <path id="Path_52454" data-name="Path 52454" d="M268,216v-5h-3v5Zm-2-4h1v3h-1Z" fill="#132941"/>
    <rect id="Rectangle_32244" data-name="Rectangle 32244" width="1" height="5" transform="translate(281 211)" fill="#132941"/>
    <rect id="Rectangle_32245" data-name="Rectangle 32245" width="1" height="5" transform="translate(269 211)" fill="#132941"/>
    <rect id="Rectangle_32246" data-name="Rectangle 32246" width="1" height="5" transform="translate(285 205)" fill="#132941"/>
    <path id="Path_52455" data-name="Path 52455" d="M282,205h-3v5h3Zm-2,4v-3h1v3Z" fill="#132941"/>
    <path id="Path_52456" data-name="Path 52456" d="M278,210v-5h-3v5Zm-2-4h1v3h-1Z" fill="#132941"/>
    <rect id="Rectangle_32247" data-name="Rectangle 32247" width="1" height="5" transform="translate(273 205)" fill="#132941"/>
    <rect id="Rectangle_32248" data-name="Rectangle 32248" width="1" height="5" transform="translate(265 205)" fill="#132941"/>
    <rect id="Rectangle_32249" data-name="Rectangle 32249" width="1" height="5" transform="translate(271 205)" fill="#132941"/>
    <rect id="Rectangle_32250" data-name="Rectangle 32250" width="1" height="5" transform="translate(283 205)" fill="#132941"/>
    <path id="Path_52457" data-name="Path 52457" d="M267,205v5h3v-5Zm2,1v3h-1v-3Z" fill="#132941"/>
    <rect id="Rectangle_32251" data-name="Rectangle 32251" width="1" height="5" transform="translate(285 199)" fill="#132941"/>
    <path id="Path_52458" data-name="Path 52458" d="M284,204v-5h-3v5Zm-2-4h1v3h-1Z" fill="#132941"/>
    <path id="Path_52459" data-name="Path 52459" d="M274,199h-3v5h3Zm-2,4v-3h1v3Z" fill="#132941"/>
    <path id="Path_52460" data-name="Path 52460" d="M268,204v-5h-3v5Zm-2-4h1v3h-1Z" fill="#132941"/>
    <path id="Path_52461" data-name="Path 52461" d="M277,204h3v-5h-3Zm2-4v3h-1v-3Z" fill="#132941"/>
    <rect id="Rectangle_32252" data-name="Rectangle 32252" width="1" height="5" transform="translate(275 199)" fill="#132941"/>
    <rect id="Rectangle_32253" data-name="Rectangle 32253" width="1" height="5" transform="translate(269 199)" fill="#132941"/>
    <rect id="Rectangle_32254" data-name="Rectangle 32254" width="1" height="5" transform="translate(285 193)" fill="#132941"/>
    <rect id="Rectangle_32255" data-name="Rectangle 32255" width="1" height="5" transform="translate(279 193)" fill="#132941"/>
    <rect id="Rectangle_32256" data-name="Rectangle 32256" width="1" height="5" transform="translate(277 193)" fill="#132941"/>
    <path id="Path_52462" data-name="Path 52462" d="M276,198v-5h-3v5Zm-2-4h1v3h-1Z" fill="#132941"/>
    <rect id="Rectangle_32257" data-name="Rectangle 32257" width="1" height="5" transform="translate(265 193)" fill="#132941"/>
    <path id="Path_52463" data-name="Path 52463" d="M281,193v5h3v-5Zm2,4h-1v-3h1Z" fill="#132941"/>
    <rect id="Rectangle_32258" data-name="Rectangle 32258" width="1" height="5" transform="translate(271 193)" fill="#132941"/>
    <path id="Path_52464" data-name="Path 52464" d="M267,193v5h3v-5Zm2,1v3h-1v-3Z" fill="#132941"/>
  </g>
</svg>
