<svg xmlns="http://www.w3.org/2000/svg" width="734.65" height="260.996" viewBox="0 0 734.65 260.996">
  <path id="bill-d" d="M0,4ZM5.25,4H7V9.25H5.25V32H3.5V14.5H1.75v1.75H0V14.5H1.75V12.75H3.5V9.25H5.25Zm7,0H14V9.25H24.5v3.5H22.75V14.5H21V12.75h1.75V11H12.25v1.75H10.5V14.5H8.75v1.75H7V14.5H8.75V12.75H10.5V9.25h1.75Zm3.5,10.5H17.5V30.25H15.75V32H14V30.25h1.75ZM12.25,18H14v3.5H12.25v1.75H10.5V25H8.75V23.25H10.5V21.5h1.75Zm7,0H21v1.75H19.25ZM21,19.75h1.75V21.5H21Zm1.75,1.75H24.5V25H22.75Zm-10.5,7H14v1.75H12.25ZM30.8,4Zm1.75,1.75H41.3v10.5H37.8v3.5h3.5V21.5H37.8v5.25h3.5V28.5H36.05v1.75H34.3V32H32.55V30.25H30.8V28.5h1.75V18H34.3V28.5h1.75V16.25h-3.5Zm10.5,0h10.5V18H48.3v3.5H46.55V18H44.8V28.5h1.75V26.75H48.3V28.5H46.55v1.75H44.8V32H43.05ZM34.3,7.5v7h5.25v-7Zm10.5,0V11h7V7.5Zm0,5.25v3.5h7v-3.5ZM53.55,18H55.3v1.75H53.55V21.5H51.8v1.75H50.05V25H48.3V21.5h3.5V19.75h1.75Zm-3.5,7H51.8v1.75H50.05Zm1.75,1.75h5.25V28.5H55.3v1.75H53.55V28.5H51.8ZM61.6,4Zm3.5,0h1.75V14.5h7v1.75h-7v10.5h3.5V25h3.5v1.75h-3.5V28.5h-3.5v1.75H65.1ZM75.6,4h1.75V16.25H79.1V14.5h1.75V12.75H82.6V11h1.75v3.5h-3.5v1.75H79.1V18H77.35V28.5H75.6ZM86.1,23.25h1.75v7H77.35V28.5H86.1ZM92.4,4Zm1.75,1.75H116.9V7.5h-1.75V9.25H113.4V7.5h-7V11h8.75V9.25h1.75V11h-1.75V30.25H113.4V32h-1.75V30.25h1.75V14.5h-1.75v1.75H109.9V18h-1.75v1.75H106.4V21.5h1.75v1.75H106.4V25h1.75V23.25h1.75V21.5h1.75v1.75H109.9V25h-1.75v1.75H106.4v3.5h-1.75V14.5H102.9v1.75h-1.75V18H99.4v1.75H97.65V21.5H99.4v1.75H97.65V25H99.4V23.25h1.75V21.5h1.75v1.75h-1.75V25H99.4v1.75H97.65V32H95.9V11h8.75V7.5h-7V9.25H95.9V11H94.15v1.75H92.4V11h1.75V9.25H95.9V7.5H94.15ZM116.9,11h1.75v1.75H116.9ZM97.65,12.75V14.5H99.4v1.75H97.65V18H99.4V16.25h1.75V14.5h1.75V12.75Zm8.75,0V14.5h1.75v1.75H106.4V18h1.75V16.25h1.75V14.5h1.75V12.75ZM101.15,18h1.75v1.75h-1.75Zm8.75,0h1.75v1.75H109.9Zm-8.75,7h1.75v1.75h-1.75Zm8.75,0h1.75v1.75H109.9Zm0,3.5h1.75v1.75H109.9ZM123.2,4Zm7,0h1.75V5.75h8.75V4h1.75V5.75h7V7.5h-7V9.25H140.7V7.5h-8.75V9.25H130.2V7.5h-7V5.75h7Zm5.25,5.25h1.75V11h8.75v1.75H137.2V14.5h10.5v1.75h-14V18h-1.75v1.75h8.75V18h1.75v1.75h1.75v3.5h1.75V28.5h3.5v1.75H123.2V28.5h3.5V23.25h15.75V21.5h-14V19.75h1.75V18h1.75V16.25h-7V14.5h10.5V12.75H126.7V11h8.75Zm-7,15.75v3.5h3.5V25Zm5.25,0v3.5h5.25V25Zm7,0v3.5h3.5V25ZM154,4Zm7,0h1.75V7.5h8.75V4h1.75V7.5h7V9.25h-7V11H171.5V9.25h-8.75V11H161V9.25h-7V7.5h7Zm1.75,7h1.75v3.5h-1.75v1.75H161V18h-1.75v1.75h3.5V18h1.75V16.25h1.75V18H164.5v3.5h-1.75v1.75H161V25h-1.75v1.75h3.5V25h1.75v1.75h1.75v3.5H164.5V28.5h-5.25v1.75H157.5V28.5h-1.75V26.75h1.75V25h1.75V23.25H161V21.5h-5.25V19.75h1.75V18h1.75V16.25H161V14.5h1.75Zm10.5,0H175v3.5h-1.75V18H171.5v1.75H175V18h1.75V14.5h1.75V18h-1.75v3.5H175v1.75h-1.75V25H171.5v1.75H175V25h1.75v1.75h1.75v3.5h-1.75V28.5H171.5v1.75h-1.75V28.5H168V26.75h1.75V25h1.75V23.25h1.75V21.5H168V19.75h1.75V18h1.75V14.5h1.75ZM184.8,4Zm0,12.25h26.25V18H184.8ZM215.6,4Zm5.25,0h1.75v7h3.5v1.75h-3.5V14.5h1.75v1.75H222.6V32h-1.75V18H219.1v3.5h-1.75v1.75H215.6V21.5h1.75V18h1.75V14.5h1.75V12.75H215.6V11h5.25Zm7,0h1.75V5.75h-1.75Zm8.75,0h1.75V5.75H236.6V7.5h3.5V9.25h-7V11h5.25v1.75H233.1V14.5h7v1.75h-8.75V18H229.6V16.25h-3.5V18h-1.75V16.25h1.75V14.5h5.25V12.75h-3.5V11h3.5V9.25H226.1V7.5h3.5V5.75h1.75V7.5h3.5V5.75h1.75Zm-5.25,14h1.75v5.25h1.75V21.5h1.75V19.75h1.75V21.5H236.6v1.75h-1.75V25H233.1v5.25h-1.75V32H229.6V30.25h1.75V21.5h-3.5V19.75h3.5Zm-7,5.25h5.25v3.5h-1.75V28.5H226.1v1.75h-1.75V28.5h1.75V26.75h1.75V25h-3.5ZM234.85,25h1.75v1.75h-1.75Zm1.75,1.75h5.25V28.5H240.1v1.75h-1.75V28.5H236.6Zm-8.75,1.75h1.75v1.75h-1.75ZM246.4,4Zm7,0h12.25V16.25H253.4Zm1.75,1.75v3.5h8.75V5.75Zm0,5.25v3.5h8.75V11Zm-7,7H270.9v1.75H260.4v3.5h8.75V25H260.4v5.25h-3.5V28.5h1.75V19.75h-10.5Zm5.25,3.5h1.75v5.25H253.4V28.5h-1.75v1.75H249.9V32h-1.75V30.25h1.75V28.5h1.75V26.75h1.75Zm1.75,5.25h1.75V28.5h-1.75Zm5.25,3.5h10.5V32H260.4ZM277.2,4Zm0,12.25h26.25V18H277.2ZM308,4Zm5.25,0H315V9.25h-1.75V32H311.5V14.5h-1.75v1.75H308V14.5h1.75V12.75h1.75V9.25h1.75Zm3.5,1.75H332.5v24.5h-1.75V28.5H318.5v1.75h-1.75ZM318.5,7.5V11h5.25V7.5Zm7,0V11h5.25V7.5Zm-7,5.25v14h12.25v-14H325.5v3.5H329V25h-1.75V23.25H322V25h-1.75V16.25h3.5v-3.5ZM322,18v3.5h5.25V18ZM338.8,4Zm3.5,0h1.75V5.75H342.3Zm10.5,0h1.75V7.5h5.25V4h1.75V7.5h3.5V9.25h-3.5v3.5h-3.5V14.5h5.25v5.25h-5.25V21.5h5.25v1.75h-5.25V25h5.25v1.75h-5.25V28.5h7v1.75h-17.5V28.5H342.3v1.75h-1.75V19.75h8.75V28.5h7V26.75h-5.25V25h5.25V23.25h-5.25V21.5h5.25V19.75h-5.25V14.5h5.25V12.75h-3.5V9.25h-1.75V11H338.8V9.25h10.5V7.5h3.5Zm-8.75,1.75h1.75V7.5h-1.75Zm10.5,3.5V11h5.25V9.25Zm-14,3.5h8.75V14.5h-8.75Zm0,3.5h8.75V18h-8.75Zm12.25,0V18h3.5V16.25Zm5.25,0V18h3.5V16.25ZM342.3,21.5v5.25h5.25V21.5ZM369.6,4Zm5.25,0h1.75v7h1.75v1.75H376.6V25h3.5V14.5h-1.75V12.75h1.75V11h5.25V9.25h-7V7.5h7V4h1.75V7.5h8.75V9.25H387.1V11h5.25V25h3.5v1.75H390.6V28.5h-1.75V26.75H383.6V28.5h-1.75v1.75H380.1V32h-1.75V30.25h1.75V28.5h1.75V26.75H376.6V32h-1.75Zm-3.5,7h1.75v5.25h-1.75V18H369.6V16.25h1.75Zm10.5,1.75V14.5h8.75V12.75Zm0,3.5V18h8.75V16.25Zm0,3.5V21.5h8.75V19.75Zm0,3.5V25h8.75V23.25Zm8.75,5.25h3.5V32h-1.75V30.25H390.6ZM400.4,4Zm5.25,0h1.75V7.5h-1.75V9.25h7V14.5h1.75V11h1.75V4h1.75V9.25h7V28.5h-1.75v1.75H421.4V32h-1.75V30.25h1.75V28.5h1.75V11h-7v3.5H414.4v1.75h-1.75v14H410.9V28.5h-7v1.75h-1.75v-21h1.75V7.5h1.75Zm-1.75,7v7h7V11Zm12.25,5.25h1.75V18h-1.75ZM417.9,18h1.75v3.5H417.9Zm-14,1.75v7h7v-7Zm14,8.75h1.75v1.75H417.9ZM431.2,4Zm3.5,1.75h19.25v10.5H452.2V7.5H436.45v8.75H434.7Zm3.5,3.5h12.25V11H438.2Zm0,3.5h12.25V14.5H438.2ZM436.45,18H452.2V32h-1.75V30.25H438.2V32h-1.75Zm1.75,1.75V21.5h12.25V19.75Zm0,3.5V25h12.25V23.25Zm0,3.5V28.5h12.25V26.75ZM462,4Zm17.5,0h1.75V7.5H479.5V9.25h-1.75V11H476v1.75h-1.75V14.5H472.5V12.75h1.75V11H476V9.25h1.75V7.5h1.75ZM463.75,5.75h8.75v3.5h-1.75v3.5H469V14.5h-1.75V12.75H469V9.25h1.75V7.5H465.5V23.25h1.75V25H465.5v7h-1.75Zm17.5,1.75H483V9.25h-1.75ZM483,9.25h1.75V11H483ZM484.75,11h1.75v1.75h-1.75V14.5H476V12.75h8.75Zm1.75,1.75h1.75V14.5H486.5ZM469,14.5h1.75V18H469Zm5.25,1.75h5.25v7h-1.75V28.5H476v1.75h-1.75V32H472.5V30.25h1.75V28.5H476V23.25h-1.75Zm7,0h5.25v7h-1.75V28.5H483v1.75h-1.75V32H479.5V30.25h1.75V28.5H483V23.25h-1.75ZM470.75,18h1.75v5.25h-1.75V25H469v1.75h-1.75V25H469V23.25h1.75ZM476,18v3.5h1.75V18Zm7,0v3.5h1.75V18Zm-5.25,10.5h1.75v1.75h-1.75Zm7,0h1.75v1.75h-1.75Zm1.75,1.75h1.75V32H486.5ZM492.8,4Zm10.5,0h1.75V5.75H503.3Zm1.75,1.75h1.75V7.5h12.25V9.25H517.3V11h-1.75v3.5H503.3v1.75h-1.75V18h-3.5v1.75h-3.5V18h3.5V16.25h3.5V14.5H496.3V12.75h17.5V11h1.75V9.25H496.3V11h-1.75v1.75H492.8V11h1.75V7.5h10.5Zm-1.75,10.5h1.75V18h1.75v3.5h1.75V19.75h1.75V18h1.75V16.25h1.75v3.5h-3.5V21.5h-1.75v1.75H506.8v7h-1.75V32H503.3V30.25h1.75V25H503.3v1.75h-1.75V28.5h-3.5v1.75h-3.5V28.5h3.5V26.75h3.5V25h1.75V23.25h1.75v-3.5H503.3V21.5h-1.75v1.75h-3.5V25h-3.5V23.25h3.5V21.5h3.5V19.75h1.75Zm5.25,7h1.75V25h-1.75ZM510.3,25h3.5v1.75h-3.5Zm3.5,1.75h5.25V28.5H517.3v1.75h-1.75V28.5H513.8ZM501.55,28.5h1.75v1.75h-1.75Zm36.022-8.512a1.694,1.694,0,0,0-1.316.476,1.625,1.625,0,0,0-.5,1.26,1.666,1.666,0,0,0,.476,1.232,1.628,1.628,0,0,0,1.2.5,1.5,1.5,0,0,0,.616-.112,3.3,3.3,0,0,1-.588,1.876,4.049,4.049,0,0,1-1.792,1.232v1.372a5.4,5.4,0,0,0,2.884-1.82,5.247,5.247,0,0,0,1.092-3.276,3.253,3.253,0,0,0-.56-1.96A1.788,1.788,0,0,0,537.572,19.988ZM554.4,4Zm3.5,1.75h1.75V7.5H557.9Zm7,0h12.25v10.5H564.9ZM559.65,7.5h1.75V11h-1.75Zm7,0v5.25h1.75V11h1.75V7.5Zm5.25,0V11h-1.75v1.75H568.4V14.5h5.25V12.75h1.75V7.5ZM554.4,11h1.75v1.75H554.4Zm17.5,0h1.75v1.75H571.9Zm-15.75,1.75h1.75v3.5h-1.75Zm3.5,3.5h1.75v3.5h-1.75v10.5H557.9v-7h-3.5V21.5h3.5V19.75h1.75Zm3.5,1.75H578.9V28.5h1.75v1.75H561.4V28.5h1.75Zm1.75,1.75V28.5h3.5V19.75Zm5.25,0V28.5h1.75V19.75Zm3.5,0V28.5h3.5V19.75ZM585.2,4Zm10.5,0h1.75V5.75h1.75V7.5h-5.25v5.25h5.25V14.5h-5.25V18h1.75v1.75h-1.75V32H592.2V19.75h-1.75v3.5H588.7V25h-1.75v1.75H585.2V25h1.75V23.25h1.75v-3.5h1.75v-3.5h1.75V14.5h-7V12.75h7V9.25h-5.25V7.5h5.25V5.75h3.5Zm5.25,5.25h8.75v17.5h-1.75V25H602.7v1.75h-1.75ZM602.7,11V23.25h5.25V11Zm-7,8.75h1.75v3.5H595.7Zm32.116-1.274-1.26,1.176a25.5,25.5,0,0,1,3.108,2.8,26.987,26.987,0,0,1,2.38,2.884l1.4-1.176a24.334,24.334,0,0,0-2.408-2.884A21.878,21.878,0,0,0,627.816,18.476ZM646.8,4Zm3.5,0h1.75V5.75H650.3Zm10.5,0h1.75V7.5h5.25V4h1.75V7.5h3.5V9.25h-3.5v3.5h-3.5V14.5h5.25v5.25h-5.25V21.5h5.25v1.75h-5.25V25h5.25v1.75h-5.25V28.5h7v1.75h-17.5V28.5H650.3v1.75h-1.75V19.75h8.75V28.5h7V26.75h-5.25V25h5.25V23.25h-5.25V21.5h5.25V19.75h-5.25V14.5h5.25V12.75h-3.5V9.25h-1.75V11H646.8V9.25h10.5V7.5h3.5Zm-8.75,1.75h1.75V7.5h-1.75Zm10.5,3.5V11h5.25V9.25Zm-14,3.5h8.75V14.5h-8.75Zm0,3.5h8.75V18h-8.75Zm12.25,0V18h3.5V16.25Zm5.25,0V18h3.5V16.25ZM650.3,21.5v5.25h5.25V21.5ZM677.6,4Zm5.25,0h1.75v7h1.75v1.75H684.6V25h3.5V14.5h-1.75V12.75h1.75V11h5.25V9.25h-7V7.5h7V4h1.75V7.5h8.75V9.25H695.1V11h5.25V25h3.5v1.75H698.6V28.5h-1.75V26.75H691.6V28.5h-1.75v1.75H688.1V32h-1.75V30.25h1.75V28.5h1.75V26.75H684.6V32h-1.75Zm-3.5,7h1.75v5.25h-1.75V18H677.6V16.25h1.75Zm10.5,1.75V14.5h8.75V12.75Zm0,3.5V18h8.75V16.25Zm0,3.5V21.5h8.75V19.75Zm0,3.5V25h8.75V23.25Zm8.75,5.25h3.5V32h-1.75V30.25H698.6ZM708.4,4Zm5.25,0h1.75V7.5h-1.75V9.25h7V14.5h1.75V11h1.75V4h1.75V9.25h7V28.5h-1.75v1.75H729.4V32h-1.75V30.25h1.75V28.5h1.75V11h-7v3.5H722.4v1.75h-1.75v14H718.9V28.5h-7v1.75h-1.75v-21h1.75V7.5h1.75Zm-1.75,7v7h7V11Zm12.25,5.25h1.75V18h-1.75ZM725.9,18h1.75v3.5H725.9Zm-14,1.75v7h7v-7Zm14,8.75h1.75v1.75H725.9ZM0,50Zm5.25,0H7v3.5H5.25V57H3.5v1.75H7v-3.5H8.75v3.5H7v3.5H5.25V64H3.5v1.75H7V64H8.75v1.75H10.5v3.5H8.75V67.5H3.5v1.75H1.75V67.5H0V65.75H1.75V64H3.5V62.25H5.25V60.5H0V58.75H1.75V57H3.5V53.5H5.25Zm5.25,1.75H26.25v3.5H24.5V57H22.75v1.75H21V57h1.75V55.25H24.5V53.5H21v1.75H19.25V57H17.5v1.75H15.75V57H17.5V55.25h1.75V53.5h-3.5v1.75H14V57H12.25v1.75H10.5V57h1.75V55.25H14V53.5H10.5Zm1.75,7H14V60.5H12.25Zm5.25,0h1.75V60.5H17.5Zm5.25,0H24.5V60.5H22.75ZM14,60.5h1.75v1.75H14Zm5.25,0H21v1.75H19.25Zm5.25,0h1.75v1.75H24.5ZM12.25,64H24.5v1.75H19.25V74.5h7v1.75H8.75V71H10.5v3.5h7V65.75H12.25ZM1.75,71H3.5v3.5H1.75v1.75H0V74.5H1.75Zm3.5,0H7v5.25H5.25ZM30.8,50Zm7,0h1.75v3.5H41.3V51.75h1.75V53.5H41.3V57H39.55V55.25H37.8V57H36.05v1.75H41.3V57h1.75v1.75H44.8V57h1.75V55.25H48.3V50h1.75v5.25H48.3V57H46.55v1.75H51.8V57h1.75v1.75h3.5v3.5H55.3V64H53.55V62.25H55.3V60.5h-21v1.75H32.55V64H30.8V62.25h1.75v-3.5H34.3V57h1.75V55.25H37.8Zm-3.5,1.75h1.75V53.5H34.3v1.75H32.55V53.5H34.3Zm10.5,0h1.75V53.5H44.8v1.75H43.05V53.5H44.8Zm8.75,0H55.3V53.5H53.55v1.75H51.8V57H50.05V55.25H51.8V53.5h1.75ZM37.8,62.25H50.05V67.5H37.8ZM39.55,64v1.75H48.3V64Zm-3.5,5.25H51.8V78H50.05V76.25H37.8V78H36.05ZM37.8,71v3.5H50.05V71ZM61.6,50Zm12.25,0H75.6v7H86.1v1.75H75.6v7h8.75V67.5H75.6v7H87.85v1.75H61.6V74.5H73.85v-7H65.1V65.75h8.75v-7h-7v3.5H65.1V64H63.35v1.75H61.6V64h1.75V62.25H65.1v-3.5h1.75v-7H68.6V57h5.25ZM92.4,50Zm19.25,0h1.75v1.75h1.75V53.5H109.9v5.25h7V60.5h-7v5.25h5.25v10.5H113.4V74.5h-8.75v1.75H102.9V65.75h5.25V60.5h-7V58.75h7v-3.5H102.9V53.5h5.25V51.75h3.5ZM95.9,51.75h1.75V53.5H95.9Zm1.75,1.75H99.4V57H97.65ZM92.4,57h1.75v1.75H92.4Zm1.75,1.75H95.9v3.5H94.15Zm5.25,3.5h1.75V64H99.4v1.75H97.65v10.5H95.9v-7H92.4V67.5h3.5V65.75h1.75V64H99.4Zm5.25,5.25v5.25h8.75V67.5ZM123.2,50Zm10.5,0h1.75v3.5h3.5v1.75h-3.5v3.5h3.5V67.5h5.25V64h-3.5V62.25h3.5V60.5h-3.5V58.75h3.5v-3.5h-3.5V53.5h5.25v14h3.5v1.75H123.2V67.5h3.5v-14h3.5V51.75h1.75V53.5H130.2v1.75h-1.75v3.5h3.5V60.5h-3.5v1.75h3.5V64h-3.5v3.5h5.25V62.25h1.75V67.5h1.75v-7h-3.5Zm-1.75,21h1.75v1.75h-1.75V74.5H130.2v1.75h-1.75V78H126.7V76.25h1.75V74.5h1.75V72.75h1.75Zm7,0h1.75v1.75h-1.75Zm1.75,1.75h1.75V74.5H140.7Zm1.75,1.75h3.5V78H144.2V76.25h-1.75ZM154,50Zm12.25,0H168v7h10.5v1.75H168v7h8.75V67.5H168v7h12.25v1.75H154V74.5h12.25v-7H157.5V65.75h8.75v-7h-7v3.5H157.5V64h-1.75v1.75H154V64h1.75V62.25h1.75v-3.5h1.75v-7H161V57h5.25Zm18.55,0Zm12.25,0h1.75v1.75h8.75V53.5h-3.5v1.75H202.3V57h8.75v1.75H184.8V57h8.75V55.25h1.75V57h5.25V55.25h1.75V53.5h-8.75v1.75H191.8V53.5h-3.5V51.75h8.75Zm-7,10.5H205.8v8.75h-7V71h-1.75V69.25h-7Zm1.75,1.75V64h12.25V62.25Zm0,3.5V67.5h12.25V65.75Zm0,5.25h1.75v5.25H191.8Zm7,0h1.75v3.5H198.8Zm8.75,0h1.75v1.75h-1.75Zm-21,1.75h1.75v3.5h-1.75V78H184.8V76.25h1.75Zm17.5,0h1.75V78H193.55V76.25h10.5Zm5.25,0h1.75v3.5H209.3Zm20.272-6.762a1.694,1.694,0,0,0-1.316.476,1.625,1.625,0,0,0-.5,1.26,1.666,1.666,0,0,0,.476,1.232,1.628,1.628,0,0,0,1.2.5,1.5,1.5,0,0,0,.616-.112,3.3,3.3,0,0,1-.588,1.876,4.049,4.049,0,0,1-1.792,1.232v1.372a5.4,5.4,0,0,0,2.884-1.82,5.247,5.247,0,0,0,1.092-3.276,3.253,3.253,0,0,0-.56-1.96A1.788,1.788,0,0,0,229.572,65.988ZM246.4,50Zm3.5,0h1.75V60.5h7v1.75h-7v10.5h3.5V71h3.5v1.75h-3.5V74.5h-3.5v1.75H249.9Zm10.5,0h1.75V62.25h1.75V60.5h1.75V58.75h1.75V57h1.75v3.5h-3.5v1.75H263.9V64h-1.75V74.5H260.4Zm10.5,19.25h1.75v7h-10.5V74.5h8.75ZM277.2,50Zm7,0h1.75v5.25h3.5V57h-3.5v3.5h3.5v1.75h-3.5v3.5h3.5V67.5h-3.5v7h17.5v1.75H284.2V74.5h-1.75V72.75h1.75V62.25h-7V60.5h7V57h-5.25V55.25h5.25Zm7,3.5h8.75V64H298.2V62.25h-5.25V71H291.2V60.5h7V55.25h-7ZM280.7,64h1.75v8.75H280.7v3.5h-1.75V78H277.2V76.25h1.75v-3.5h1.75Zm19.25,3.5h1.75v5.25h-8.75V71h7ZM308,50Zm5.25,0H315v7h3.5v1.75H315v3.5h1.75V60.5h1.75v1.75h-1.75V64H315V76.25h-1.75V78H311.5V76.25h1.75V65.75H311.5V67.5H308V65.75h3.5V64h1.75V58.75H308V57h5.25Zm14,0H329v5.25h5.25v3.5H332.5V60.5h-1.75V58.75h1.75V57H329v5.25h3.5V67.5h-1.75V71H329v1.75h-1.75V74.5H325.5v1.75h-1.75V78H322V76.25h1.75V74.5h1.75V72.75h1.75V71H329V67.5h1.75V64H325.5v3.5h-1.75V64H322v8.75h-1.75v3.5H318.5V78h-1.75V76.25h1.75v-3.5h1.75V55.25h7ZM322,57v5.25h5.25V57Zm3.5,10.5h1.75V71H325.5Zm3.5,5.25h1.75V74.5H329ZM309.75,74.5h1.75v1.75h-1.75Zm21,0h1.75v1.75h-1.75Zm1.75,1.75h1.75V78H332.5ZM338.8,50Zm8.75,0h1.75v3.5h5.25V50h1.75v3.5h8.75v1.75H356.3V57h-1.75V55.25H349.3V57h-1.75V55.25H338.8V53.5h8.75Zm14,7h1.75V76.25h-1.75V78H359.8V76.25h1.75ZM342.3,58.75h10.5V60.5h-1.75v5.25h3.5V67.5h-3.5V78H349.3V67.5h-3.5v5.25h-1.75v3.5H342.3V78h-1.75V76.25h1.75v-3.5h1.75V67.5h-3.5V65.75h3.5V60.5H342.3Zm3.5,1.75v5.25h3.5V60.5Zm10.5,0h1.75V71H356.3Zm1.75,14h1.75v1.75h-1.75ZM369.6,50Zm5.25,0h1.75v5.25h5.25V57H376.6v1.75h3.5V67.5h-3.5v1.75h5.25V71H376.6v7h-1.75V71H369.6V69.25h5.25V67.5h-3.5V58.75h3.5V57H369.6V55.25h5.25Zm15.75,0h1.75v1.75h1.75V53.5h-5.25v1.75h-3.5V60.5h10.5v1.75H390.6V78h-1.75V62.25h-3.5V71H383.6v3.5h-1.75v1.75H380.1V78h-1.75V76.25h1.75V74.5h1.75V71h1.75V53.5h5.25V51.75h1.75ZM373.1,60.5v1.75h1.75V60.5Zm3.5,0v1.75h1.75V60.5ZM373.1,64v1.75h1.75V64Zm3.5,0v1.75h1.75V64Zm23.8-14Zm5.25,0h1.75v3.5h3.5v1.75h-3.5v3.5h3.5V67.5h-3.5v1.75h1.75V71H407.4v7h-1.75V71H403.9v3.5h-1.75v1.75H400.4V74.5h1.75V71h1.75V69.25h1.75V60.5H403.9v7h-1.75V58.75h3.5v-3.5H400.4V53.5h5.25Zm12.25,0h1.75v3.5h5.25v1.75h-5.25v3.5h3.5V67.5h-3.5v1.75h1.75V71h-1.75v7H417.9V72.75h-1.75V74.5H414.4v1.75h-1.75V74.5h1.75V72.75h1.75v-3.5h1.75V60.5h-1.75v7H414.4V58.75h3.5v-3.5h-5.25V53.5h5.25ZM407.4,60.5v5.25h1.75V60.5Zm12.25,0v5.25h1.75V60.5ZM409.15,71h1.75v1.75h-1.75Zm12.25,0h1.75v1.75H421.4Zm-10.5,1.75h1.75V74.5H410.9Zm12.25,0h3.5V74.5H424.9v1.75h-1.75ZM431.2,50Zm5.25,0h1.75v3.5h-1.75v1.75h7V60.5h1.75V57h1.75V50h1.75v5.25h7V74.5h-1.75v1.75H452.2V78h-1.75V76.25h1.75V74.5h1.75V57h-7v3.5H445.2v1.75h-1.75v14H441.7V74.5h-7v1.75h-1.75v-21h1.75V53.5h1.75Zm-1.75,7v7h7V57Zm12.25,5.25h1.75V64h-1.75ZM448.7,64h1.75v3.5H448.7Zm-14,1.75v7h7v-7Zm14,8.75h1.75v1.75H448.7ZM462,50Zm12.25,0H476v8.75h12.25V60.5H476v1.75h-1.75V67.5H472.5V71h-1.75v1.75H469V74.5h-1.75v1.75H465.5V78h-1.75V76.25h1.75V74.5h1.75V72.75H469V71h1.75V67.5h1.75V62.25h1.75V60.5H462V58.75h12.25ZM476,62.25h1.75v3.5H476Zm1.75,3.5h1.75v3.5h-1.75Zm1.75,3.5h1.75V71H479.5ZM481.25,71H483v1.75h-1.75ZM483,72.75h5.25V74.5H486.5v1.75h-1.75V74.5H483ZM492.8,50Zm3.5,1.75h19.25v10.5H513.8V53.5H498.05v8.75H496.3Zm3.5,3.5h12.25V57H499.8Zm0,3.5h12.25V60.5H499.8ZM498.05,64H513.8V78h-1.75V76.25H499.8V78h-1.75Zm1.75,1.75V67.5h12.25V65.75Zm0,3.5V71h12.25V69.25Zm0,3.5V74.5h12.25V72.75ZM523.6,50Zm17.5,0h1.75v3.5H541.1v1.75h-1.75V57H537.6v1.75h-1.75V60.5H534.1V58.75h1.75V57h1.75V55.25h1.75V53.5h1.75Zm-15.75,1.75h8.75v3.5h-1.75v3.5H530.6V60.5h-1.75V58.75h1.75v-3.5h1.75V53.5H527.1V69.25h1.75V71H527.1v7h-1.75Zm17.5,1.75h1.75v1.75h-1.75Zm1.75,1.75h1.75V57H544.6ZM546.35,57h1.75v1.75h-1.75V60.5H537.6V58.75h8.75Zm1.75,1.75h1.75V60.5H548.1ZM530.6,60.5h1.75V64H530.6Zm5.25,1.75h5.25v7h-1.75V74.5H537.6v1.75h-1.75V78H534.1V76.25h1.75V74.5h1.75V69.25h-1.75Zm7,0h5.25v7h-1.75V74.5H544.6v1.75h-1.75V78H541.1V76.25h1.75V74.5h1.75V69.25h-1.75ZM532.35,64h1.75v5.25h-1.75V71H530.6v1.75h-1.75V71h1.75V69.25h1.75Zm5.25,0v3.5h1.75V64Zm7,0v3.5h1.75V64Zm-5.25,10.5h1.75v1.75h-1.75Zm7,0h1.75v1.75h-1.75Zm1.75,1.75h1.75V78H548.1ZM554.4,50Zm5.25,0h1.75v7h1.75V55.25h1.75V53.5h7V50h1.75v3.5h7v1.75h-7V57h5.25v1.75h-5.25V60.5h7v1.75H561.4V64h1.75v1.75H561.4V78h-1.75V65.75H557.9v3.5h-1.75V71H554.4V69.25h1.75v-3.5h1.75v-3.5h-3.5V60.5h5.25Zm-5.25,3.5h1.75v1.75H554.4Zm1.75,1.75h1.75v3.5h-1.75Zm8.75,0V57h-1.75v1.75H561.4V60.5h10.5V58.75h-5.25V57h5.25V55.25ZM566.65,64H578.9V76.25h-1.75V78H575.4V76.25h1.75v-3.5H568.4V78h-1.75Zm-3.5,1.75h1.75v3.5h-1.75Zm5.25,0V67.5h8.75V65.75Zm0,3.5V71h8.75V69.25Zm5.25,5.25h1.75v1.75h-1.75ZM585.2,50Zm3.5,0h1.75v1.75H588.7Zm14,0h1.75v5.25h5.25v17.5h-1.75V71h-3.5v7H602.7V71h-3.5v1.75h-1.75V55.25h5.25Zm-12.25,1.75h1.75v3.5h3.5v3.5h-1.75V60.5H592.2v1.75h1.75V64H592.2V78h-1.75V64H588.7v1.75h-1.75V67.5H585.2V65.75h1.75V64h1.75V62.25h1.75V60.5h1.75V58.75h1.75V57H585.2V55.25h5.25ZM599.2,57v5.25h3.5V57Zm5.25,0v5.25h3.5V57Zm-10.5,7h1.75v3.5h-1.75Zm5.25,0v5.25h3.5V64Zm5.25,0v5.25h3.5V64Zm25.522,1.988a1.694,1.694,0,0,0-1.316.476,1.625,1.625,0,0,0-.5,1.26,1.666,1.666,0,0,0,.476,1.232,1.628,1.628,0,0,0,1.2.5,1.5,1.5,0,0,0,.616-.112,3.3,3.3,0,0,1-.588,1.876,4.049,4.049,0,0,1-1.792,1.232v1.372a5.4,5.4,0,0,0,2.884-1.82,5.247,5.247,0,0,0,1.092-3.276,3.253,3.253,0,0,0-.56-1.96A1.788,1.788,0,0,0,629.972,65.988ZM646.8,50Zm5.25,0h1.75v5.25h-1.75V78H650.3V60.5h-1.75v1.75H646.8V60.5h1.75V58.75h1.75v-3.5h1.75Zm7,0h1.75v5.25h10.5v3.5h-1.75V60.5H667.8V58.75h1.75V57h-10.5v1.75H657.3V60.5h-1.75v1.75H653.8V60.5h1.75V58.75h1.75v-3.5h1.75Zm3.5,10.5h1.75V76.25h-1.75V78H660.8V76.25h1.75Zm-3.5,3.5h1.75v3.5h-1.75v1.75H657.3V71h-1.75V69.25h1.75V67.5h1.75Zm7,0h1.75v1.75h-1.75Zm1.75,1.75h1.75V67.5H667.8Zm1.75,1.75h1.75V71h-1.75Zm-10.5,7h1.75v1.75h-1.75ZM677.6,50Zm17.5,0h3.5v1.75h1.75V53.5H691.6v1.75h-8.75v3.5h17.5v3.5H698.6v3.5h-1.75V67.5H695.1v1.75h-1.75V71H691.6v1.75h-1.75V74.5H688.1v1.75h-3.5V78h-3.5V76.25h3.5V74.5h3.5V72.75h1.75V71h1.75V69.25h1.75V67.5h1.75V65.75h1.75v-3.5h1.75V60.5H688.1V64h-1.75V60.5h-3.5V71H681.1v3.5h-1.75v1.75H677.6V74.5h1.75V71h1.75V53.5h10.5V51.75h3.5Zm-7,14h1.75v3.5H688.1Zm1.75,3.5h1.75v1.75h-1.75Zm3.5,3.5h1.75v1.75h-1.75Zm1.75,1.75h3.5V74.5h-3.5Zm3.5,1.75h5.25v1.75H702.1V78h-1.75V76.25H698.6ZM708.4,50Zm1.75,3.5h24.5v1.75H722.4v3.5h-1.75V60.5H732.9V76.25h-1.75V78H729.4V76.25h1.75v-14H725.9v14h-1.75v-14h-3.5v14H718.9v-14h-5.25V78H711.9V60.5h7V58.75h1.75v-3.5h-10.5Zm17.5,21h1.75v1.75h-1.75ZM0,96Zm0,1.75H26.25V99.5H14V103h8.75v14H21v-1.75H14V117H12.25v3.5H8.75v1.75H5.25V124H0v-1.75H5.25V120.5h3.5v-1.75H10.5V117h1.75v-1.75H7V117H5.25v-1.75H3.5V103h8.75V99.5H0Zm5.25,7v3.5h7v-3.5Zm8.75,0v3.5h7v-3.5ZM5.25,110v3.5h7V110ZM14,110v3.5h7V110Zm-7,7H8.75v1.75H7Zm5.25,3.5H17.5v1.75H12.25Zm5.25,1.75h8.75V124H17.5ZM30.8,96Zm14,0h1.75v3.5H44.8v1.75H43.05V103H41.3v1.75H39.55v1.75H37.8V110H36.05v12.25H34.3V113.5H30.8v-1.75h3.5V110h1.75v-3.5H37.8v-1.75h1.75V103H41.3v-1.75h1.75V99.5H44.8ZM32.55,97.75H34.3V99.5H32.55ZM34.3,99.5h3.5V103H36.05v-1.75H34.3Zm12.25,0H48.3v1.75H46.55Zm1.75,1.75h1.75V103H48.3ZM50.05,103H51.8v1.75H50.05Zm-7,1.75H44.8v1.75H43.05Zm8.75,0h1.75v1.75H51.8Zm-7,1.75h1.75V110H51.8v3.5H50.05v1.75H48.3V117H46.55v1.75H44.8v1.75H43.05v-1.75H44.8V117h1.75v-1.75H48.3V113.5h1.75v-1.75H39.55V110H44.8Zm8.75,0h3.5v1.75H55.3V110H53.55ZM41.3,117h1.75v1.75H41.3Zm3.5,3.5h3.5V124H46.55v-1.75H44.8ZM61.6,96Zm7,0h1.75v3.5h3.5v1.75h-3.5V103h3.5v1.75h-3.5v1.75H75.6v-1.75h1.75V103H79.1v1.75h5.25V103H86.1v-1.75h1.75V103H86.1v7h1.75v1.75H86.1v7H84.35V117h-3.5v5.25H79.1V124H77.35v-1.75H79.1V117H75.6v-1.75h3.5v-3.5H73.85v10.5H72.1V124H70.35v-1.75H72.1v-3.5H66.85V124H65.1V110h14v-3.5H75.6v1.75h-14V106.5h7v-1.75H65.1V103h3.5v-1.75H63.35V99.5H68.6Zm12.25,1.75H86.1V99.5H80.85v1.75h-3.5V103H75.6V99.5h5.25Zm0,3.5H82.6V103H80.85Zm0,5.25V110h3.5v-3.5Zm-14,5.25v1.75H72.1v-1.75Zm14,0v3.5h3.5v-3.5Zm-14,3.5V117H72.1v-1.75Zm1.75,5.25h1.75v1.75H68.6Zm7,0h1.75v1.75H75.6Zm28.616-10.024-1.26,1.176a25.5,25.5,0,0,1,3.108,2.8,26.987,26.987,0,0,1,2.38,2.884l1.4-1.176a24.336,24.336,0,0,0-2.408-2.884A21.878,21.878,0,0,0,104.216,110.476ZM123.2,96Zm3.5,0h1.75v1.75H126.7Zm10.5,0h1.75v3.5h5.25V96h1.75v3.5h3.5v1.75h-3.5v3.5h-3.5v1.75h5.25v5.25h-5.25v1.75h5.25v1.75h-5.25V117h5.25v1.75h-5.25v1.75h7v1.75h-17.5V120.5H126.7v1.75h-1.75v-10.5h8.75v8.75h7v-1.75h-5.25V117h5.25v-1.75h-5.25V113.5h5.25v-1.75h-5.25V106.5h5.25v-1.75h-3.5v-3.5h-1.75V103H123.2v-1.75h10.5V99.5h3.5Zm-8.75,1.75h1.75V99.5h-1.75Zm10.5,3.5V103h5.25v-1.75Zm-14,3.5h8.75v1.75h-8.75Zm0,3.5h8.75V110h-8.75Zm12.25,0V110h3.5v-1.75Zm5.25,0V110h3.5v-1.75ZM126.7,113.5v5.25h5.25V113.5ZM154,96Zm5.25,0H161v7h1.75v1.75H161V117h3.5V106.5h-1.75v-1.75h1.75V103h5.25v-1.75h-7V99.5h7V96h1.75v3.5h8.75v1.75H171.5V103h5.25v14h3.5v1.75H175v1.75h-1.75v-1.75H168v1.75h-1.75v1.75H164.5V124h-1.75v-1.75h1.75V120.5h1.75v-1.75H161V124h-1.75Zm-3.5,7h1.75v5.25h-1.75V110H154v-1.75h1.75Zm10.5,1.75v1.75H175v-1.75Zm0,3.5V110H175v-1.75Zm0,3.5v1.75H175v-1.75Zm0,3.5V117H175v-1.75ZM175,120.5h3.5V124h-1.75v-1.75H175ZM184.8,96Zm3.5,1.75h1.75V99.5H188.3Zm5.25,0h17.5V103H209.3V99.5h-14V103h-1.75Zm-3.5,1.75h1.75V103h-1.75Zm8.75,1.75h1.75V103H198.8v1.75h-1.75v1.75H195.3v-1.75h1.75V103h1.75Zm3.5,0h1.75V103H202.3ZM184.8,103h1.75v1.75H184.8Zm19.25,0h1.75v1.75h-1.75Zm-17.5,1.75h1.75v3.5h-1.75Zm19.25,0h1.75v1.75H205.8Zm-14,1.75h1.75v1.75H191.8v3.5h-1.75v10.5H188.3v-7h-3.5V113.5h3.5v-1.75h1.75v-3.5h1.75Zm8.75,0h1.75V110h8.75v1.75H202.3v1.75h1.75v1.75H202.3V124h-1.75v-8.75H198.8V117h-1.75v1.75H195.3v1.75h-3.5v-1.75h3.5V117h1.75v-1.75h1.75V113.5h1.75v-1.75h-7V110h7Zm3.5,8.75h1.75V117h-1.75ZM205.8,117h5.25v1.75H209.3v1.75h-1.75v-1.75H205.8Zm9.8-21Zm3.5,1.75h19.25v14H236.6V110H220.85v1.75H219.1Zm1.75,1.75V103h7V99.5Zm8.75,0V103h7V99.5Zm-8.75,5.25v3.5h7v-3.5Zm8.75,0v3.5h7v-3.5Zm-1.75,7h1.75v1.75h-1.75Zm1.75,1.75h1.75V117H229.6Zm-7,1.75h1.75v5.25H222.6Zm15.75,0h1.75V117h-1.75Zm-21,1.75h1.75v3.5h-1.75v1.75H215.6V120.5h1.75Zm17.5,0h1.75v5.25H224.35V120.5h10.5Zm5.25,0h1.75v3.5H240.1Zm6.3-21Zm7,0h12.25v12.25H253.4Zm1.75,1.75v3.5h8.75v-3.5Zm0,5.25v3.5h8.75V103Zm-7,7H270.9v1.75H260.4v3.5h8.75V117H260.4v5.25h-3.5V120.5h1.75v-8.75h-10.5Zm5.25,3.5h1.75v5.25H253.4v1.75h-1.75v1.75H249.9V124h-1.75v-1.75h1.75V120.5h1.75v-1.75h1.75Zm1.75,5.25h1.75v1.75h-1.75Zm5.25,3.5h10.5V124H260.4ZM277.2,96Zm5.25,0h1.75v5.25h-1.75V124H280.7V106.5h-1.75v1.75H277.2V106.5h1.75v-1.75h1.75v-3.5h1.75Zm7,0h1.75v5.25h10.5v3.5h-1.75v1.75H298.2v-1.75h1.75V103h-10.5v1.75H287.7v1.75h-1.75v1.75H284.2V106.5h1.75v-1.75h1.75v-3.5h1.75Zm3.5,10.5h1.75v15.75h-1.75V124H291.2v-1.75h1.75Zm-3.5,3.5h1.75v3.5h-1.75v1.75H287.7V117h-1.75v-1.75h1.75V113.5h1.75Zm7,0h1.75v1.75h-1.75Zm1.75,1.75h1.75v1.75H298.2Zm1.75,1.75h1.75V117h-1.75Zm-10.5,7h1.75v1.75h-1.75ZM308,96Zm5.25,0H315v3.5h-1.75v1.75h7v5.25H322V103h1.75V96h1.75v5.25h7V120.5h-1.75v1.75H329V124h-1.75v-1.75H329V120.5h1.75V103h-7v3.5H322v1.75h-1.75v14H318.5V120.5h-7v1.75h-1.75v-21h1.75V99.5h1.75Zm-1.75,7v7h7v-7Zm12.25,5.25h1.75V110h-1.75ZM325.5,110h1.75v3.5H325.5Zm-14,1.75v7h7v-7Zm14,8.75h1.75v1.75H325.5ZM338.8,96Zm7,0h1.75v7h3.5v1.75h-3.5V110h3.5v1.75h-3.5V124H345.8V113.5h-3.5v1.75h-1.75V113.5H338.8v-1.75h7v-7h-3.5v1.75h-1.75v1.75H338.8V106.5h1.75v-7h1.75V103h3.5Zm10.5,0h1.75v3.5h5.25v1.75h-5.25v5.25h7v1.75h-3.5v3.5h3.5v1.75h-3.5v8.75H359.8V124h-1.75v-1.75h1.75V113.5h-5.25v1.75H352.8V113.5h-1.75v-1.75h8.75v-3.5H349.3V106.5h7v-5.25h-5.25V99.5h5.25Zm-1.75,19.25h1.75v3.5h-1.75Zm1.75,5.25h1.75v1.75H356.3ZM369.6,96Zm1.75,0h8.75v1.75h-7V99.5h8.75v1.75h-3.5v5.25h1.75v-1.75h1.75V103h1.75V96h10.5v1.75h-8.75V99.5h8.75v1.75h-3.5v17.5h-3.5v1.75h-1.75v-1.75H380.1v1.75h-1.75v1.75H376.6V124h-1.75v-1.75h1.75V120.5h1.75v-1.75h-3.5V106.5h1.75v-5.25h-3.5v3.5h-1.75v1.75H369.6v-1.75h1.75Zm14,5.25V103H383.6v1.75h-1.75v1.75h7v-5.25Zm-8.75,7V110h12.25v-1.75Zm0,3.5v1.75h12.25v-1.75Zm0,3.5V117h12.25v-1.75Zm10.5,5.25h3.5V124h-1.75v-1.75H387.1Zm27.272-8.512a1.694,1.694,0,0,0-1.316.476,1.625,1.625,0,0,0-.5,1.26,1.666,1.666,0,0,0,.476,1.232,1.628,1.628,0,0,0,1.2.5,1.5,1.5,0,0,0,.616-.112,3.3,3.3,0,0,1-.588,1.876,4.049,4.049,0,0,1-1.792,1.232v1.372a5.4,5.4,0,0,0,2.884-1.82,5.247,5.247,0,0,0,1.092-3.276,3.253,3.253,0,0,0-.56-1.96A1.788,1.788,0,0,0,414.372,111.988ZM431.2,96Zm5.25,0h1.75v5.25h-1.75V124H434.7V106.5h-1.75v1.75H431.2V106.5h1.75v-1.75h1.75v-3.5h1.75Zm7,0h1.75v5.25h10.5v3.5h-1.75v1.75H452.2v-1.75h1.75V103h-10.5v1.75H441.7v1.75h-1.75v1.75H438.2V106.5h1.75v-1.75h1.75v-3.5h1.75Zm3.5,10.5h1.75v15.75h-1.75V124H445.2v-1.75h1.75Zm-3.5,3.5h1.75v3.5h-1.75v1.75H441.7V117h-1.75v-1.75h1.75V113.5h1.75Zm7,0h1.75v1.75h-1.75Zm1.75,1.75h1.75v1.75H452.2Zm1.75,1.75h1.75V117h-1.75Zm-10.5,7h1.75v1.75h-1.75ZM462,96Zm10.5,0h1.75v3.5h14v1.75H472.5v3.5H483v17.5h-1.75V124H479.5v-1.75h1.75V117h-10.5v7H469V110h-1.75v1.75H465.5v1.75h-1.75v1.75H462V113.5h1.75v-1.75h1.75V110h1.75v-1.75H469v-3.5h1.75v-3.5H462V99.5h10.5Zm-1.75,10.5V110h10.5v-3.5Zm0,5.25v3.5h10.5v-3.5Zm7,8.75h1.75v1.75h-1.75ZM492.8,96Zm5.25,0h1.75v5.25h-1.75V124H496.3V106.5h-1.75v1.75H492.8V106.5h1.75v-1.75h1.75v-3.5h1.75Zm7,0h1.75v5.25h10.5v3.5h-1.75v1.75H513.8v-1.75h1.75V103h-10.5v1.75H503.3v1.75h-1.75v1.75H499.8V106.5h1.75v-1.75h1.75v-3.5h1.75Zm3.5,10.5h1.75v15.75h-1.75V124H506.8v-1.75h1.75Zm-3.5,3.5h1.75v3.5h-1.75v1.75H503.3V117h-1.75v-1.75h1.75V113.5h1.75Zm7,0h1.75v1.75h-1.75Zm1.75,1.75h1.75v1.75H513.8Zm1.75,1.75h1.75V117h-1.75Zm-10.5,7h1.75v1.75h-1.75ZM523.6,96Zm12.25,0h1.75v1.75h-1.75V99.5H534.1v1.75h10.5V124h-1.75v-1.75H530.6V124h-1.75V101.25h3.5V99.5h1.75V97.75h1.75Zm-5.25,7v5.25h12.25V103Zm0,7v3.5h12.25V110Zm0,5.25v5.25h12.25v-5.25ZM554.4,96Zm1.75,3.5H575.4v12.25h-1.75V110h-14v10.5H557.9V108.25h15.75v-7h-17.5Zm21,17.5h1.75v5.25H559.65V120.5h17.5Zm8.05-21Zm5.25,0h1.75v3.5h-1.75v1.75h7v5.25h1.75V103h1.75V96h1.75v5.25h7V120.5h-1.75v1.75H606.2V124h-1.75v-1.75h1.75V120.5h1.75V103h-7v3.5H599.2v1.75h-1.75v14H595.7V120.5h-7v1.75h-1.75v-21h1.75V99.5h1.75Zm-1.75,7v7h7v-7Zm12.25,5.25h1.75V110h-1.75ZM602.7,110h1.75v3.5H602.7Zm-14,1.75v7h7v-7Zm14,8.75h1.75v1.75H602.7ZM616,96Zm14,0h1.75v5.25H637v-3.5h1.75v3.5h3.5V103h-10.5v5.25H630V103h-8.75v5.25h7V117H626.5v1.75h-1.75V117h1.75v-7h-5.25v8.75H619.5v1.75h-1.75v1.75H616V120.5h1.75v-1.75h1.75v-17.5H630Zm5.25,0H637v1.75h-1.75Zm3.5,10.5h1.75V110h-1.75v3.5H637v1.75h-1.75v3.5h-3.5v1.75H630v1.75h-1.75V124H626.5v-1.75h1.75V120.5H630v-1.75h1.75V117h1.75v-3.5H637V110h1.75Zm-7,1.75h1.75v5.25h-1.75Zm-8.75,7h1.75V117H623ZM640.5,117h1.75v7h-3.5v-1.75h1.75Zm-5.25,1.75H637v1.75h-1.75ZM637,120.5h1.75v1.75H637ZM646.8,96Zm15.75,0h1.75v7h7v17.5h-1.75v1.75H667.8V124h-1.75v-1.75h1.75V120.5h1.75V104.75H664.3v8.75h-1.75V117H660.8v1.75h-1.75v1.75H657.3v1.75h-1.75V124H653.8v-1.75h1.75V120.5h1.75v-1.75h1.75V117h1.75v-3.5h1.75v-8.75h-3.5V103h3.5Zm-15.75,5.25h10.5V103h-3.5v10.5h5.25v1.75H653.8V117h-3.5v1.75h-1.75V117H646.8v-1.75h5.25V103H646.8Zm15.75,17.5h1.75v1.75h-1.75Zm1.75,1.75h1.75v1.75H664.3ZM677.6,96Zm10.5,0h1.75v1.75H688.1Zm1.75,1.75h1.75v3.5h-1.75ZM679.35,103h21v1.75H698.6v1.75h-1.75v1.75H695.1V110h-1.75v1.75H691.6v1.75h-1.75v1.75H688.1V117h-1.75v1.75h-3.5v1.75H681.1v1.75h-1.75V120.5h1.75v-1.75h1.75V117h3.5v-1.75h1.75V113.5h1.75v-1.75h1.75V110h1.75v-1.75h1.75V106.5h1.75v-1.75h-17.5Zm7,15.75h3.5v1.75h-3.5Zm3.5,1.75h14v1.75h-14ZM0,142Zm12.25,0H14v1.75H12.25Zm7,0H21v1.75H19.25v1.75H24.5v1.75h-7V149H15.75v1.75h7v14H21V163H12.25v1.75H10.5v-14H14V149h1.75v-1.75h-7V145.5H14v-1.75h1.75v1.75H17.5v-1.75h1.75ZM3.5,143.75H5.25v1.75H3.5Zm1.75,1.75H7V149H5.25ZM0,152.5H7v12.25H5.25v1.75H3.5v1.75H1.75V166.5H3.5v-1.75H5.25v-10.5H0Zm12.25,0v1.75H21V152.5Zm0,3.5v1.75H21V156Zm0,3.5v1.75H21V159.5ZM7,164.75H8.75v1.75H7Zm1.75,1.75h17.5v1.75H8.75Zm36.022-8.512a1.694,1.694,0,0,0-1.316.476,1.625,1.625,0,0,0-.5,1.26,1.666,1.666,0,0,0,.476,1.232,1.628,1.628,0,0,0,1.2.5,1.5,1.5,0,0,0,.616-.112,3.3,3.3,0,0,1-.588,1.876,4.049,4.049,0,0,1-1.792,1.232v1.372a5.4,5.4,0,0,0,2.884-1.82,5.247,5.247,0,0,0,1.092-3.276,3.253,3.253,0,0,0-.56-1.96A1.788,1.788,0,0,0,44.772,157.988ZM61.6,142Zm3.5,1.75h1.75v1.75H65.1Zm8.75,0h10.5v7H86.1V163H84.35v1.75H82.6V163h1.75V152.5H73.85v12.25H72.1v-14h1.75Zm-7,1.75H68.6V149H66.85Zm8.75,0v1.75h5.25v3.5H82.6V145.5Zm0,3.5v1.75h3.5V149Zm-14,3.5h7v12.25H66.85v1.75H65.1v1.75H63.35V166.5H65.1v-1.75h1.75v-10.5H61.6Zm14,1.75h7V163H80.85v-1.75h-3.5V163H75.6ZM77.35,156v3.5h3.5V156Zm-8.75,8.75h1.75v1.75H68.6Zm1.75,1.75h17.5v1.75H70.35ZM92.4,142Zm3.5,0h1.75v1.75H95.9Zm14,0h1.75v5.25H109.9v3.5h-1.75v1.75H106.4v1.75h-1.75V156H102.9v10.5h-1.75v1.75H99.4V166.5h1.75V154.25h-3.5V163H95.9v3.5H94.15v1.75H92.4V166.5h1.75V163H95.9V149H92.4v-1.75h12.25V149h-7v3.5h5.25v1.75h1.75V152.5h1.75v-1.75h1.75v-3.5h1.75Zm-12.25,1.75H99.4v1.75H97.65Zm14,3.5h1.75v3.5h-1.75Zm1.75,3.5h1.75v1.75H113.4Zm1.75,1.75h3.5v1.75H116.9V156h-1.75Zm-7,3.5h3.5v1.75h-3.5Zm3.5,1.75h1.75v1.75h-1.75ZM106.4,163h3.5v1.75h-3.5Zm-8.75,1.75H99.4v1.75H97.65Zm12.25,0h3.5v3.5h-1.75V166.5H109.9ZM123.2,142Zm10.5,0h1.75v1.75H133.7v1.75h5.25v5.25h1.75V149h1.75v-7h1.75v7h5.25v1.75H147.7v8.75h-1.75v1.75H144.2V163h-1.75v3.5H140.7v1.75h-1.75V170H137.2v-1.75h1.75V166.5h1.75V163h1.75v-1.75h1.75V159.5h1.75v-8.75H140.7v1.75h-1.75v1.75h-3.5V156h3.5v1.75H133.7v1.75h5.25v7H137.2v1.75h-1.75V166.5h1.75v-5.25h-3.5v3.5h-1.75v3.5H130.2V170h-1.75v-1.75h1.75v-3.5h1.75v-7h-3.5v1.75H126.7v8.75h-1.75v-7H123.2V159.5h3.5v-1.75h1.75V156h5.25v-1.75h-3.5V145.5h1.75v-1.75h1.75Zm-8.75,1.75h1.75v1.75h-1.75Zm1.75,1.75h1.75V149H126.7Zm5.25,1.75V149h5.25v-1.75Zm-8.75,3.5h1.75v1.75H123.2Zm8.75,0v1.75h5.25v-1.75Zm-7,1.75h1.75V156h-1.75Zm15.75,0h1.75v8.75H140.7Zm3.5,10.5h1.75v3.5H144.2Zm-10.5,1.75h1.75v1.75H133.7Zm12.25,1.75h1.75v1.75h-1.75Zm1.75,1.75h1.75V170H147.7ZM154,142Zm12.25,0H168v3.5h3.5v-1.75h1.75v1.75h7v1.75h-7v3.5h5.25v1.75h-5.25V156h5.25v1.75h-5.25v3.5h7V163h-14v1.75H164.5V149h-1.75v1.75H161V149h1.75v-1.75h1.75V145.5h1.75Zm3.5,0h1.75v1.75h-1.75Zm-12.25,1.75h1.75v1.75H157.5Zm1.75,1.75H161V149h-1.75Zm7,1.75v3.5h5.25v-3.5ZM154,152.5h7v12.25h-1.75v1.75H157.5v1.75h-1.75V166.5h1.75v-1.75h1.75v-10.5H154Zm12.25,0V156h5.25v-3.5Zm0,5.25v3.5h5.25v-3.5Zm-5.25,7h1.75v1.75H161Zm1.75,1.75h17.5v1.75h-17.5ZM184.8,142Zm17.5,0h3.5v1.75h1.75v1.75H198.8v1.75h-8.75v3.5h17.5v3.5H205.8v3.5h-1.75v1.75H202.3v1.75h-1.75V163H198.8v1.75h-1.75v1.75H195.3v1.75h-3.5V170h-3.5v-1.75h3.5V166.5h3.5v-1.75h1.75V163h1.75v-1.75h1.75V159.5h1.75v-1.75h1.75v-3.5h1.75V152.5H195.3V156h-1.75v-3.5h-3.5V163H188.3v3.5h-1.75v1.75H184.8V166.5h1.75V163h1.75V145.5h10.5v-1.75h3.5Zm-7,14h1.75v3.5H195.3Zm1.75,3.5h1.75v1.75h-1.75Zm3.5,3.5h1.75v1.75h-1.75Zm1.75,1.75h3.5v1.75h-3.5Zm3.5,1.75h5.25v1.75H209.3V170h-1.75v-1.75H205.8Zm9.8-24.5Zm1.75,3.5h24.5v1.75H229.6v3.5h-1.75v1.75H240.1v15.75h-1.75V170H236.6v-1.75h1.75v-14H233.1v14h-1.75v-14h-3.5v14H226.1v-14h-5.25V170H219.1V152.5h7v-1.75h1.75v-3.5h-10.5Zm17.5,21h1.75v1.75h-1.75ZM246.4,142Zm12.25,0h1.75v1.75h-1.75v1.75H256.9v1.75h5.25V145.5h3.5v1.75H263.9V149h-8.75v-1.75H253.4V149h-3.5v1.75h-3.5V149h3.5v-1.75h3.5V145.5h3.5v-1.75h1.75Zm1.75,1.75h1.75v1.75H260.4Zm5.25,3.5h3.5V149h-3.5Zm3.5,1.75h3.5v1.75h-3.5v7H249.9v-7h19.25Zm-17.5,3.5V156h3.5v-1.75h1.75V156h1.75v-3.5h-3.5v1.75H253.4V152.5Zm8.75,0V156h1.75v-1.75h1.75V152.5Zm5.25,0v1.75H263.9V156h3.5v-3.5Zm-14,7H267.4V170h-1.75v-1.75H253.4V170h-1.75Zm1.75,1.75V163h12.25v-1.75Zm0,3.5v1.75h12.25v-1.75ZM277.2,142Zm5.25,0h1.75v3.5h1.75V142h1.75v3.5h3.5V142h1.75v3.5h1.75V142h1.75v3.5h5.25v1.75h-5.25v3.5H294.7v-3.5h-1.75v5.25h-7v-5.25H284.2v3.5h-1.75v1.75H280.7v1.75h22.75V156H301.7v1.75h-1.75v1.75H298.2v7h-1.75v1.75H294.7V166.5h1.75v-5.25H291.2V170h-1.75v-8.75H284.2v7h-1.75V159.5h7V156H280.7v3.5h-1.75v1.75H277.2v-3.5h1.75V152.5h1.75v-1.75h1.75v-3.5h-3.5V145.5h3.5Zm5.25,5.25v3.5h3.5v-3.5Zm14,1.75h1.75v3.5h-7v-1.75h5.25Zm-10.5,7v3.5h7v-1.75h1.75V156Zm1.75,8.75h1.75v1.75h-1.75ZM308,142Zm12.25,0H322v3.5h10.5v1.75H322V156h1.75v-1.75h1.75V149h1.75v5.25H325.5V156h-1.75v3.5H322V170h-1.75V159.5H318.5v1.75h-1.75V163H315v1.75h-3.5v1.75H308v-1.75h3.5V163H315v-1.75h1.75V159.5h1.75V156h1.75v-8.75h-10.5V145.5h10.5ZM315,149h1.75v5.25H315V156h-1.75v1.75H311.5V156h1.75v-1.75H315Zm1.75,5.25h1.75V156h-1.75Zm10.5,0H329V156h-1.75ZM329,156h1.75v1.75H329Zm-5.25,3.5h1.75v1.75h-1.75Zm1.75,1.75H329V163h-3.5ZM329,163h5.25v1.75H332.5v1.75h-1.75v-1.75H329Zm9.8-21Zm0,1.75h26.25v1.75H352.8V149h8.75v14H359.8v-1.75h-7V163h-1.75v3.5h-3.5v1.75h-3.5V170H338.8v-1.75h5.25V166.5h3.5v-1.75h1.75V163h1.75v-1.75H345.8V163h-1.75v-1.75H342.3V149h8.75v-3.5H338.8Zm5.25,7v3.5h7v-3.5Zm8.75,0v3.5h7v-3.5ZM344.05,156v3.5h7V156Zm8.75,0v3.5h7V156Zm-7,7h1.75v1.75H345.8Zm5.25,3.5h5.25v1.75h-5.25Zm5.25,1.75h8.75V170H356.3ZM369.6,142Zm10.5,0h1.75v3.5h8.75v1.75h-1.75V149H387.1v1.75h-1.75v1.75h-3.5v1.75H380.1V156h-3.5v1.75h-5.25V156h5.25v-1.75h3.5V152.5h1.75v-1.75h3.5V149h1.75v-1.75h-8.75v3.5h-3.5v1.75H373.1v-1.75h1.75V149h1.75v-1.75h1.75V145.5h1.75Zm-1.75,8.75h1.75v1.75h-1.75Zm7,1.75h1.75v1.75h-1.75V156h8.75v1.75h-1.75v1.75H390.6v1.75h-1.75V163H387.1v1.75h-1.75v1.75h-3.5v1.75H376.6V170h-5.25v-1.75h5.25V166.5h5.25V163h1.75v1.75h1.75V163h1.75v-1.75h1.75V159.5h1.75v-1.75h-8.75v1.75H380.1v1.75h-3.5V163h-3.5v-1.75h3.5V159.5h3.5v-1.75h1.75V156h1.75v-1.75h1.75Zm-5.25,8.75h1.75V163H380.1ZM400.4,142Zm3.5,1.75h17.5V166.5h-1.75v-21h-14v19.25H403.9v3.5h-1.75V170H400.4v-1.75h1.75v-3.5h1.75Zm7,3.5h7V149h-5.25v3.5h5.25v7h-5.25V163h1.75v-1.75h1.75V163h1.75v3.5h-1.75v-1.75h-3.5v1.75H410.9v1.75h-1.75V166.5H407.4v-1.75h3.5V159.5h-3.5v-7h3.5v-1.75h-3.5V149h3.5Zm-1.75,7v3.5h1.75v-3.5Zm3.5,0v3.5h3.5v-3.5Zm12.25,10.5h1.75V170h-3.5v-1.75h1.75Zm-3.5,1.75h1.75v1.75H421.4Zm9.8-24.5Zm17.5,0h1.75v3.5H448.7v1.75h-1.75V149H445.2v1.75h-1.75v1.75H441.7v-1.75h1.75V149h1.75v-1.75h1.75V145.5h1.75Zm-15.75,1.75h8.75v3.5h-1.75v3.5H438.2v1.75h-1.75v-1.75h1.75v-3.5h1.75V145.5H434.7v15.75h1.75V163H434.7v7h-1.75Zm17.5,1.75h1.75v1.75h-1.75Zm1.75,1.75h1.75V149H452.2Zm1.75,1.75h1.75v1.75h-1.75v1.75H445.2v-1.75h8.75Zm1.75,1.75h1.75v1.75H455.7Zm-17.5,1.75h1.75V156H438.2Zm5.25,1.75h5.25v7h-1.75v5.25H445.2v1.75h-1.75V170H441.7v-1.75h1.75V166.5h1.75v-5.25h-1.75Zm7,0h5.25v7h-1.75v5.25H452.2v1.75h-1.75V170H448.7v-1.75h1.75V166.5h1.75v-5.25h-1.75ZM439.95,156h1.75v5.25h-1.75V163H438.2v1.75h-1.75V163h1.75v-1.75h1.75Zm5.25,0v3.5h1.75V156Zm7,0v3.5h1.75V156Zm-5.25,10.5h1.75v1.75h-1.75Zm7,0h1.75v1.75h-1.75Zm1.75,1.75h1.75V170H455.7Zm19.012-18.242.42,14.616h1.736l.448-14.616ZM476,166.668a1.6,1.6,0,0,0-1.2.476,1.5,1.5,0,0,0-.476,1.176,1.6,1.6,0,0,0,.476,1.2A1.717,1.717,0,0,0,476,170a1.785,1.785,0,0,0,1.232-.476,1.623,1.623,0,0,0,.476-1.2,1.6,1.6,0,0,0-.476-1.176A1.666,1.666,0,0,0,476,166.668ZM0,188Zm3.5,0H5.25v10.5h7v1.75h-7v10.5h3.5V209h3.5v1.75H8.75v1.75H5.25v1.75H3.5ZM14,188h1.75v12.25H17.5V198.5h1.75v-1.75H21V195h1.75v3.5h-3.5v1.75H17.5V202H15.75v10.5H14Zm10.5,19.25h1.75v7H15.75V212.5H24.5ZM30.8,188Zm1.75,1.75H55.3v1.75H53.55v1.75H51.8V191.5h-7V195h8.75v-1.75H55.3V195H53.55v19.25H51.8V216H50.05v-1.75H51.8V198.5H50.05v1.75H48.3V202H46.55v1.75H44.8v1.75h1.75v1.75H44.8V209h1.75v-1.75H48.3V205.5h1.75v1.75H48.3V209H46.55v1.75H44.8v3.5H43.05V198.5H41.3v1.75H39.55V202H37.8v1.75H36.05v1.75H37.8v1.75H36.05V209H37.8v-1.75h1.75V205.5H41.3v1.75H39.55V209H37.8v1.75H36.05V216H34.3V195h8.75v-3.5h-7v1.75H34.3V195H32.55v1.75H30.8V195h1.75v-1.75H34.3V191.5H32.55ZM55.3,195h1.75v1.75H55.3Zm-19.25,1.75v1.75H37.8v1.75H36.05V202H37.8v-1.75h1.75V198.5H41.3v-1.75Zm8.75,0v1.75h1.75v1.75H44.8V202h1.75v-1.75H48.3V198.5h1.75v-1.75ZM39.55,202H41.3v1.75H39.55Zm8.75,0h1.75v1.75H48.3Zm-8.75,7H41.3v1.75H39.55Zm8.75,0h1.75v1.75H48.3Zm0,3.5h1.75v1.75H48.3ZM61.6,188Zm7,0h1.75v1.75H79.1V188h1.75v1.75h7v1.75h-7v1.75H79.1V191.5H70.35v1.75H68.6V191.5h-7v-1.75h7Zm5.25,5.25H75.6V195h8.75v1.75H75.6v1.75H86.1v1.75h-14V202H70.35v1.75H79.1V202h1.75v1.75H82.6v3.5h1.75v5.25h3.5v1.75H61.6V212.5h3.5v-5.25H80.85V205.5h-14v-1.75H68.6V202h1.75v-1.75h-7V198.5h10.5v-1.75H65.1V195h8.75Zm-7,15.75v3.5h3.5V209Zm5.25,0v3.5h5.25V209Zm7,0v3.5h3.5V209Zm13.3-21Zm7,0h1.75v3.5h8.75V188h1.75v3.5h7v1.75h-7V195H109.9v-1.75h-8.75V195H99.4v-1.75h-7V191.5h7Zm1.75,7h1.75v3.5h-1.75v1.75H99.4V202H97.65v1.75h3.5V202h1.75v-1.75h1.75V202H102.9v3.5h-1.75v1.75H99.4V209H97.65v1.75h3.5V209h1.75v1.75h1.75v3.5H102.9V212.5H97.65v1.75H95.9V212.5H94.15v-1.75H95.9V209h1.75v-1.75H99.4V205.5H94.15v-1.75H95.9V202h1.75v-1.75H99.4V198.5h1.75Zm10.5,0h1.75v3.5h-1.75V202H109.9v1.75h3.5V202h1.75v-3.5h1.75V202h-1.75v3.5H113.4v1.75h-1.75V209H109.9v1.75h3.5V209h1.75v1.75h1.75v3.5h-1.75V212.5H109.9v1.75h-1.75V212.5H106.4v-1.75h1.75V209h1.75v-1.75h1.75V205.5H106.4v-1.75h1.75V202h1.75v-3.5h1.75Zm25.55,3.948a1.573,1.573,0,0,0-1.232.532,1.524,1.524,0,0,0-.476,1.2,1.6,1.6,0,0,0,.476,1.2,1.647,1.647,0,0,0,1.232.5,1.691,1.691,0,0,0,1.232-.5,1.628,1.628,0,0,0,.5-1.2,1.544,1.544,0,0,0-.5-1.2A1.613,1.613,0,0,0,137.2,198.948Zm0,10.248a1.573,1.573,0,0,0-1.232.532,1.524,1.524,0,0,0-.476,1.2,1.6,1.6,0,0,0,.476,1.2,1.647,1.647,0,0,0,1.232.5,1.691,1.691,0,0,0,1.232-.5,1.628,1.628,0,0,0,.5-1.2,1.544,1.544,0,0,0-.5-1.2A1.613,1.613,0,0,0,137.2,209.2Zm35-16.352v17.164h2.044V194.72h6.916v-1.876ZM184.8,188Zm7,0h1.75v7h5.25v10.5h-1.75V209H195.3v1.75h-1.75v1.75H191.8v1.75h-3.5V216h-3.5v-1.75h3.5V212.5h3.5v-1.75h1.75V209h1.75v-3.5h1.75v-8.75H191.8v7h-1.75v1.75H188.3v-1.75h1.75v-7h-3.5V195h5.25Zm8.75,5.25h8.75V212.5h-1.75v-1.75H202.3v1.75h-1.75ZM202.3,195v14h5.25V195Zm-12.25,10.5h1.75v1.75h-1.75Zm1.75,1.75h1.75V209H191.8Zm3.5,3.5h1.75v1.75H195.3Zm1.75,1.75h1.75V216h-1.75ZM215.6,188Zm5.25,1.75H236.6v14h-1.75V202H229.6v3.5h12.25v1.75H233.1V209h-1.75v-1.75H229.6V216h-1.75v-8.75H226.1V209h-1.75v1.75H222.6v1.75h-3.5v1.75h-3.5V212.5h3.5v-1.75h3.5V209h1.75v-1.75H215.6V205.5h12.25V202H222.6v1.75h-1.75Zm1.75,1.75V195h5.25v-3.5Zm7,0V195h5.25v-3.5Zm-7,5.25v3.5h5.25v-3.5Zm7,0v3.5h5.25v-3.5ZM233.1,209h3.5v1.75h-3.5Zm3.5,1.75h5.25v1.75H240.1v1.75h-1.75V212.5H236.6ZM246.4,188Zm5.25,0h1.75v5.25h-1.75V216H249.9V198.5h-1.75v1.75H246.4V198.5h1.75v-1.75h1.75v-3.5h1.75Zm7,0h1.75v5.25h10.5v3.5h-1.75v1.75H267.4v-1.75h1.75V195h-10.5v1.75H256.9v1.75h-1.75v1.75H253.4V198.5h1.75v-1.75h1.75v-3.5h1.75Zm3.5,10.5h1.75v15.75h-1.75V216H260.4v-1.75h1.75Zm-3.5,3.5h1.75v3.5h-1.75v1.75H256.9V209h-1.75v-1.75h1.75V205.5h1.75Zm7,0h1.75v1.75h-1.75Zm1.75,1.75h1.75v1.75H267.4Zm1.75,1.75h1.75V209h-1.75Zm-10.5,7h1.75v1.75h-1.75ZM277.2,188Zm0,1.75h26.25v1.75h-10.5V195H291.2v21h-1.75V200.25H287.7V202h-1.75v1.75H284.2v1.75h-1.75v1.75H280.7V209h-1.75v-1.75h1.75V205.5h1.75v-1.75h1.75V202h1.75v-1.75h1.75V198.5h1.75V195h1.75v-3.5h-14Zm15.75,8.75h1.75v1.75h-1.75Zm1.75,1.75h1.75V202H294.7Zm1.75,1.75h3.5v1.75h1.75v3.5h-1.75V205.5H298.2v-1.75h-1.75ZM308,188Zm3.5,0h1.75v1.75H311.5Zm14,0h1.75v7h7v1.75H329V209h-1.75v1.75h-3.5v1.75H322v1.75h-1.75V212.5H318.5v-1.75H322V202h-3.5v-1.75h8.75v-3.5H318.5V195h7Zm-12.25,1.75H315v1.75h-1.75Zm15.75,0h1.75v1.75H329Zm1.75,1.75h1.75v1.75h-1.75ZM308,193.25h10.5V195H308Zm1.75,3.5h7v1.75h-7Zm0,3.5h7V202h-7Zm14,1.75v7h3.5v-7Zm-14,1.75h7v10.5H315V212.5h-3.5v1.75h-1.75Zm1.75,1.75v5.25H315V205.5ZM329,209h1.75v3.5H329Zm3.5,0h1.75v7H332.5v-1.75h-1.75V212.5h1.75Zm6.3-21Zm7,0h1.75v1.75h8.75V188h1.75v1.75h7v1.75h-7v1.75H356.3V191.5h-8.75v1.75H345.8V191.5h-7v-1.75h7Zm5.25,5.25h1.75V195h7v-1.75h1.75V195H359.8v1.75h-1.75v1.75H356.3v1.75h8.75V202H352.8v1.75h-3.5v1.75h10.5V216h-1.75v-1.75h-10.5V216H345.8v-8.75h-3.5V209h-3.5v-1.75h3.5V205.5h3.5v-1.75h3.5V202H338.8v-1.75h12.25v-3.5H342.3V195h8.75Zm1.75,3.5v3.5h1.75V198.5h1.75v-1.75Zm-5.25,10.5V209h10.5v-1.75Zm0,3.5v1.75h10.5v-1.75ZM369.6,188Zm5.25,1.75H390.6v14h-1.75V202H383.6v3.5h12.25v1.75H383.6V216h-1.75v-8.75H369.6V205.5h12.25V202H376.6v1.75h-1.75Zm1.75,1.75V195h12.25v-3.5Zm0,5.25v3.5h12.25v-3.5ZM400.4,188Zm19.25,0h1.75v7h5.25v1.75H421.4V202h5.25v14H424.9v-1.75h-7V216h-1.75V202h3.5Zm-17.5,1.75H414.4v10.5h-5.25V202h5.25v1.75h-5.25v1.75h5.25v1.75h-7V209h-7v-1.75h7v-3.5h-5.25V202h5.25v-1.75h-5.25Zm1.75,1.75v1.75h1.75V195H403.9v3.5h3.5v-1.75h-1.75V195h1.75v-3.5Zm5.25,0V195h1.75v-1.75h1.75V191.5Zm1.75,3.5v1.75h-1.75v1.75h3.5V195Zm7,8.75v8.75h7v-8.75Zm-15.75,7h1.75v3.5h-1.75V216H400.4v-1.75h1.75Zm3.5,0h1.75v3.5h-1.75Zm3.5,0h1.75v3.5h-1.75Zm3.5,0h1.75v3.5h-1.75ZM431.2,188Zm15.75,0h1.75v3.5h5.25V195h3.5v1.75h-3.5v3.5H448.7V202h5.25v1.75H448.7v3.5h7V209h-7v3.5h8.75v1.75H438.2V212.5h8.75V209h-7v-1.75h7v-3.5H441.7V202h5.25v-1.75H441.7V198.5h5.25v-1.75h-7V195h7v-1.75H441.7V191.5h5.25Zm-15.75,3.5h8.75V195H438.2v1.75h-1.75v1.75h3.5v5.25H438.2v3.5h-1.75v3.5H434.7v3.5h-1.75V216H431.2v-1.75h1.75v-3.5h1.75v-3.5h1.75v-3.5h1.75v-3.5h-5.25V198.5h1.75v-1.75h1.75V195h1.75v-1.75h-7Zm17.5,1.75V195h3.5v-1.75Zm0,3.5v1.75h3.5v-1.75Zm-15.75,7h1.75v3.5h-1.75Zm3.5,7h1.75v1.75h-1.75ZM462,188Zm5.25,0H469v7h1.75v1.75H469v3.5h1.75V198.5h3.5v-1.75H472.5V195h1.75v-1.75h-3.5V191.5h3.5V188H476v3.5h5.25V188H483v3.5h3.5v1.75H483V195h1.75v1.75H483v1.75h3.5v1.75h-7V202h5.25v7h3.5v1.75h-3.5v3.5H483V216h-1.75v-1.75H483v-3.5h-8.75V216H472.5v-5.25H469V216h-1.75V202H465.5v3.5h-1.75v1.75H462V205.5h1.75V202h1.75v-3.5h1.75v-1.75H462V195h5.25Zm8.75,5.25V195h5.25v-1.75Zm0,3.5v1.75h5.25v-1.75Zm-5.25,3.5V202H469v7h3.5v-5.25h-1.75V202h7v-1.75Zm3.5,3.5v1.75h3.5v-1.75Zm5.25,0v1.75H483v-1.75Zm-5.25,3.5V209h3.5v-1.75Zm5.25,0V209H483v-1.75Zm0,5.25h1.75v1.75H479.5ZM492.8,188Zm12.25,0h1.75v1.75h-1.75v1.75H503.3v1.75h10.5V216h-1.75v-1.75H499.8V216h-1.75V193.25h3.5V191.5h1.75v-1.75h1.75Zm-5.25,7v5.25h12.25V195Zm0,7v3.5h12.25V202Zm0,5.25v5.25h12.25v-5.25ZM523.6,188Zm1.75,3.5H544.6v12.25h-1.75V202h-14v10.5H527.1V200.25h15.75v-7h-17.5Zm21,17.5h1.75v5.25H528.85V212.5h17.5Zm8.05-21Zm5.25,0h1.75v3.5h-1.75v1.75h7v5.25h1.75V195h1.75v-7h1.75v5.25h7V212.5h-1.75v1.75H575.4V216h-1.75v-1.75h1.75V212.5h1.75V195h-7v3.5H568.4v1.75h-1.75v14H564.9V212.5h-7v1.75h-1.75v-21h1.75V191.5h1.75Zm-1.75,7v7h7v-7Zm12.25,5.25h1.75V202h-1.75ZM571.9,202h1.75v3.5H571.9Zm-14,1.75v7h7v-7Zm14,8.75h1.75v1.75H571.9ZM585.2,188Zm7,0h1.75v3.5h8.75V188h1.75v3.5h7v1.75h-7V195h3.5v5.25H588.7V195h3.5v-1.75h-7V191.5h7Zm1.75,5.25V195h8.75v-1.75Zm-3.5,3.5v1.75h3.5v-1.75Zm5.25,0v1.75h5.25v-1.75Zm7,0v1.75h3.5v-1.75ZM586.95,202h24.5v3.5H609.7v1.75h-1.75V205.5h1.75v-1.75H597.45v1.75h8.75V209h-1.75v1.75h-3.5v1.75h-3.5v1.75h-3.5V216h-7v-1.75h7V212.5h3.5v-1.75h3.5V209h3.5v-1.75H595.7V209h-3.5v1.75h-3.5V209h3.5v-1.75h1.75V205.5h1.75v-1.75h-7v1.75h-1.75v1.75H585.2V205.5h1.75Zm8.75,7h1.75v1.75H595.7ZM616,188Zm7,0h1.75v5.25h3.5V195h-3.5v1.75h1.75v1.75h-1.75v8.75H623V198.5h-1.75v1.75H619.5V202h-1.75v-1.75h1.75V198.5h1.75v-1.75H623V195h-5.25v-1.75H623Zm7,1.75h8.75V205.5H630Zm1.75,1.75V195H637v-3.5Zm0,5.25v1.75H637v-1.75Zm-5.25,1.75h1.75v1.75H626.5Zm5.25,1.75v3.5H637v-3.5Zm-5.25,5.25h1.75v1.75H626.5Zm1.75,1.75H630v3.5h-1.75ZM619.5,209h1.75v3.5H619.5v1.75h-1.75V212.5h1.75Zm3.5,0h1.75v5.25H623Zm14,0h1.75v1.75H637Zm-3.5,1.75h1.75V216h-10.5v-1.75h8.75Zm5.25,0h1.75v3.5h-1.75Zm22.022-6.762a1.694,1.694,0,0,0-1.316.476,1.625,1.625,0,0,0-.5,1.26,1.666,1.666,0,0,0,.476,1.232,1.628,1.628,0,0,0,1.2.5,1.5,1.5,0,0,0,.616-.112,3.3,3.3,0,0,1-.588,1.876,4.049,4.049,0,0,1-1.792,1.232v1.372a5.4,5.4,0,0,0,2.884-1.82,5.247,5.247,0,0,0,1.092-3.276,3.253,3.253,0,0,0-.56-1.96A1.788,1.788,0,0,0,660.772,203.988ZM677.6,188Zm1.75,1.75h10.5v24.5H688.1V216h-1.75v-1.75h1.75V205.5h-3.5V209h-1.75v3.5H681.1v1.75h-1.75V216H677.6v-1.75h1.75V212.5h1.75V209h1.75v-3.5h-3.5v-1.75h3.5V198.5h-3.5v-1.75h3.5V191.5h-3.5Zm14,0h8.75v3.5h-1.75v3.5H698.6v1.75h-1.75v-1.75h1.75v-3.5h1.75V191.5H695.1v15.75h1.75V209H695.1v7h-1.75Zm-8.75,1.75v5.25h3.5V191.5Zm0,7v5.25h3.5V198.5Zm14,0h1.75V202H698.6Zm1.75,3.5h1.75v5.25h-1.75V209H698.6v1.75h-1.75V209h1.75v-1.75h1.75ZM684.6,212.5h1.75v1.75H684.6ZM708.4,188Zm7,0h1.75v3.5H715.4V195h-1.75v1.75H711.9v1.75h-1.75v1.75H708.4V198.5h1.75v-1.75h1.75V195h1.75v-3.5h1.75Zm3.5,1.75h12.25V202h-7v3.5H722.4V202h-1.75v10.5h1.75v-1.75h1.75v1.75H722.4v1.75h-1.75V216H718.9Zm1.75,1.75V195h8.75v-3.5Zm-5.25,5.25h1.75v3.5H715.4V216h-1.75V203.75H711.9v1.75h-1.75v1.75H708.4V205.5h1.75v-1.75h1.75V202h1.75v-1.75h1.75Zm5.25,0v3.5h8.75v-3.5Zm10.5,7h1.75v1.75h-1.75v1.75H729.4V209h-1.75v1.75H725.9V209h1.75v-1.75h1.75V205.5h1.75Zm-7,1.75h1.75V209h-1.75Zm3.5,5.25h3.5v1.75h-3.5Zm3.5,1.75h3.5v1.75h-3.5ZM0,234Zm5.25,0H7v7H8.75v1.75H7v7h7v-7H10.5v1.75H8.75v-1.75H10.5V241H14v-7h1.75v7h7v8.75h3.5v1.75H15.75v1.75H14v3.5H12.25v1.75H10.5v1.75H8.75V262H5.25Zm-3.5,7H3.5v5.25H1.75V248H0v-1.75H1.75Zm14,1.75v7H21v-7ZM7,251.5v8.75H8.75V258.5H10.5v-1.75h1.75v-3.5H14V251.5Zm8.75,1.75H17.5V255H15.75ZM17.5,255h1.75v1.75H17.5Zm1.75,1.75H21v1.75H19.25ZM21,258.5h5.25v1.75H24.5V262H22.75v-1.75H21ZM30.8,234Zm3.5,0h1.75v1.75H34.3Zm12.25,0H48.3v8.75h8.75v1.75H51.8v14H50.05v-14H48.3V255H46.55v3.5H44.8v1.75H43.05V262H41.3v-1.75h1.75V258.5H44.8V255h1.75V244.5H41.3v7H37.8v8.75H36.05V262H34.3v-1.75h1.75V251.5h-3.5v-7H41.3v-1.75h5.25Zm-10.5,1.75H37.8v1.75H36.05Zm14,0H51.8v1.75H50.05Zm1.75,1.75h1.75v1.75H51.8Zm-21,1.75H43.05V241H30.8Zm3.5,7v3.5h5.25v-3.5Zm-1.75,7H34.3V255H32.55v1.75H30.8V255h1.75Zm7,0H41.3V255H39.55ZM41.3,255h1.75v1.75H41.3Zm14,0h1.75v5.25H51.8V258.5h3.5Zm-22.75,3.5H34.3v1.75H32.55ZM61.6,234Zm12.25,0H75.6v1.75H73.85v1.75H72.1v1.75h5.25V237.5h3.5v1.75H79.1V241H70.35v-1.75H68.6V241H65.1v1.75H61.6V241h3.5v-1.75h3.5V237.5h3.5v-1.75h1.75Zm1.75,1.75h1.75v1.75H75.6Zm5.25,3.5h3.5V241h-3.5Zm3.5,1.75h3.5v1.75h-3.5v7H65.1v-7H84.35Zm-17.5,3.5V248h3.5v-1.75H72.1V248h1.75v-3.5h-3.5v1.75H68.6V244.5Zm8.75,0V248h1.75v-1.75H79.1V244.5Zm5.25,0v1.75H79.1V248h3.5v-3.5Zm-14,7H82.6V262H80.85v-1.75H68.6V262H66.85Zm1.75,1.75V255H80.85v-1.75Zm0,3.5v1.75H80.85v-1.75ZM92.4,234Zm3.5,0h1.75v1.75H95.9Zm14,0h1.75v5.25h7v3.5H116.9v1.75h-1.75v-1.75h1.75V241h-5.25v5.25h5.25v5.25h-1.75V255H113.4v1.75h-1.75v1.75H109.9v1.75h-3.5V262h-3.5v-1.75h3.5V258.5h3.5v-1.75h1.75V255h1.75v-3.5h1.75V248H109.9v5.25h-1.75V248H106.4v5.25h-1.75v3.5H102.9v1.75h-1.75v1.75H99.4V262H97.65V248H95.9v1.75H94.15v1.75H92.4v-1.75h1.75V248H95.9v-1.75h1.75V244.5H99.4v-1.75h-7V241h10.5v1.75h-1.75v1.75H99.4V248h1.75v-1.75h1.75V248h-1.75v1.75H99.4v8.75h1.75v-1.75h1.75v-3.5h1.75v-14h5.25Zm-12.25,1.75H99.4v3.5H97.65ZM106.4,241v5.25h3.5V241Zm-5.25,8.75h1.75v1.75h-1.75Zm8.75,3.5h1.75V255H109.9Zm3.5,3.5h1.75v1.75H113.4Zm1.75,1.75h3.5v1.75H116.9V262h-1.75ZM123.2,234Zm22.75,0h1.75v26.25h-1.75V262H144.2v-1.75h1.75Zm-21,1.75H137.2v10.5h-1.75V244.5H126.7v1.75h-1.75Zm1.75,1.75v5.25h8.75V237.5Zm14,0h1.75v15.75H140.7Zm-12.25,8.75h1.75v3.5h7v8.75h-1.75v1.75H133.7V262h-1.75v-1.75h1.75V258.5h1.75v-7H130.2V255h-1.75v3.5H126.7v1.75h-1.75V262H123.2v-1.75h1.75V258.5h1.75V255h1.75Zm1.75,12.25h1.75v1.75H130.2Zm12.25,0h1.75v1.75h-1.75ZM154,234Zm12.25,0H168v12.25h-1.75v5.25H164.5V255h-1.75v1.75H161v1.75h-1.75v1.75H157.5V262h-1.75v-1.75h1.75V258.5h1.75v-1.75H161V255h1.75v-3.5h1.75v-5.25h1.75ZM168,246.25h1.75v5.25H168Zm1.75,5.25h1.75V255h-1.75Zm1.75,3.5h1.75v1.75H171.5Zm1.75,1.75H175v1.75h-1.75ZM175,258.5h5.25v1.75H178.5V262h-1.75v-1.75H175Zm9.8-24.5Zm0,1.75h15.75v1.75h-3.5v1.75H209.3v7h-1.75v3.5H205.8v1.75h-1.75v1.75H202.3v3.5h-1.75v1.75H198.8v1.75h-1.75V262H195.3v-7h-5.25v1.75H188.3v1.75h-1.75v-1.75H184.8V255h3.5V237.5h-3.5Zm5.25,1.75V241h5.25v-3.5Zm7,3.5v10.5h1.75v1.75h-1.75v5.25h1.75v-1.75h1.75v-3.5h1.75V251.5h1.75v-1.75h1.75v-3.5h1.75V241h-7v5.25H198.8V241Zm-7,1.75v3.5h5.25v-3.5Zm10.5,3.5h1.75v5.25h-1.75ZM190.05,248v5.25h5.25V248Zm14,5.25h1.75V255h-1.75ZM205.8,255h1.75v1.75H205.8Zm1.75,1.75h3.5v1.75H209.3v1.75h-1.75ZM215.6,234Zm7,0h1.75v5.25H222.6v5.25h7V234h1.75v8.75h10.5v1.75h-10.5v1.75H222.6V262h-1.75V244.5H219.1v1.75h-1.75V248H215.6v-1.75h1.75V244.5h1.75v-1.75h1.75v-3.5h1.75Zm10.5,1.75h1.75v1.75H233.1Zm1.75,1.75h1.75V241h-1.75Zm-3.5,8.75h1.75v5.25h-1.75Zm1.75,5.25h1.75V255H233.1Zm7,1.75h1.75V262H240.1v-1.75h-1.75V258.5h1.75ZM234.85,255h1.75v1.75h-1.75Zm1.75,1.75h1.75v1.75H236.6Zm23.8-8.358a3.594,3.594,0,0,0-2.576,1.008,3.263,3.263,0,0,0-1.064,2.52,3.2,3.2,0,0,0,1.064,2.492,3.618,3.618,0,0,0,2.576,1.036,3.667,3.667,0,0,0,2.576-1.036,3.483,3.483,0,0,0,0-5.012A3.641,3.641,0,0,0,260.4,248.392Zm0,1.484a2.12,2.12,0,0,1,1.484.588,1.954,1.954,0,0,1,.644,1.456,2,2,0,0,1-.644,1.456,2.12,2.12,0,0,1-1.484.588,2.026,2.026,0,0,1-1.484-.588,1.858,1.858,0,0,1-.644-1.456,1.819,1.819,0,0,1,.644-1.456A2.026,2.026,0,0,1,260.4,249.876Zm24.556-2.044V263.12H278.04V265H287V247.832Z" transform="translate(0 -4)" fill="#fff"/>
</svg>
