<svg xmlns="http://www.w3.org/2000/svg" width="740" height="98" viewBox="0 0 740 98">
  <g id="bill-t" transform="translate(-475 -39.001)">
    <g id="Exclusion_19" data-name="Exclusion 19" transform="translate(6642 5051)" fill="#15172a">
      <path d="M -5433.0009765625 -4915.99951171875 L -6159.43603515625 -4915.99951171875 L -6159.43603515625 -4916.40478515625 L -6159.43603515625 -4918.40478515625 L -6161.43603515625 -4918.40478515625 L -6165 -4918.40478515625 L -6165 -5007.59423828125 L -6161.43603515625 -5007.59423828125 L -6159.43603515625 -5007.59423828125 L -6159.43603515625 -5009.59423828125 L -6159.43603515625 -5009.9990234375 L -5433.0009765625 -5009.9990234375 L -5433.0009765625 -5008 L -5433.0009765625 -5006 L -5431.0009765625 -5006 L -5429 -5006 L -5429 -4920.00048828125 L -5431.0009765625 -4920.00048828125 L -5433.0009765625 -4920.00048828125 L -5433.0009765625 -4918.00048828125 L -5433.0009765625 -4915.99951171875 Z" stroke="none"/>
      <path d="M -5435.0009765625 -4917.99951171875 L -5435.0009765625 -4918.00048828125 L -5435.0009765625 -4922.00048828125 L -5431.0009765625 -4922.00048828125 L -5431 -4922.00048828125 L -5431 -5004 L -5431.0009765625 -5004 L -5435.0009765625 -5004 L -5435.0009765625 -5007.9990234375 L -6157.43603515625 -5007.9990234375 L -6157.43603515625 -5005.59423828125 L -6161.43603515625 -5005.59423828125 L -6163 -5005.59423828125 L -6163 -4920.40478515625 L -6161.43603515625 -4920.40478515625 L -6157.43603515625 -4920.40478515625 L -6157.43603515625 -4917.99951171875 L -5435.0009765625 -4917.99951171875 M -5431.0009765625 -4913.99951171875 L -6161.43603515625 -4913.99951171875 L -6161.43603515625 -4916.40478515625 L -6167 -4916.40478515625 L -6167 -5009.59423828125 L -6161.43603515625 -5009.59423828125 L -6161.43603515625 -5011.9990234375 L -5431.0009765625 -5011.9990234375 L -5431.0009765625 -5008 L -5427 -5008 L -5427 -4918.00048828125 L -5431.0009765625 -4918.00048828125 L -5431.0009765625 -4914.00048828125 L -5431.0009765625 -4913.99951171875 Z" stroke="none" fill="#fff"/>
    </g>
    <path id="Path_54368" data-name="Path 54368" d="M0-24Zm4.5,0H6v4.5H4.5V0H3V-15H1.5v1.5H0V-15H1.5v-1.5H3v-3H4.5Zm6,0H12v4.5h9v3H19.5V-15H18v-1.5h1.5V-18h-9v1.5H9V-15H7.5v1.5H6V-15H7.5v-1.5H9v-3h1.5Zm3,9H15V-1.5H13.5V0H12V-1.5h1.5Zm-3,3H12v3H10.5v1.5H9V-6H7.5V-7.5H9V-9h1.5Zm6,0H18v1.5H16.5ZM18-10.5h1.5V-9H18ZM19.5-9H21v3H19.5Zm-9,6H12v1.5H10.5ZM26.4-24Zm6,1.5H42.9v15h6V-6H41.4v1.5H39.9V-6H35.4v1.5H33.9V-3H32.4v1.5H30.9V0H29.4V-1.5h1.5V-3h1.5V-4.5h1.5V-6H26.4V-7.5h6ZM33.9-21v3h7.5v-3Zm0,4.5V-15h7.5v-1.5Zm0,3V-12h7.5v-1.5Zm0,3v3h7.5v-3Zm7.5,6h1.5V-3H41.4ZM42.9-3h1.5V0H42.9Zm9.9-21Zm9,0h1.5v3h12v1.5H61.8v3h9v15H69.3V0H67.8V-1.5h1.5V-6h-9V0H58.8V-12H57.3v1.5H55.8V-9H54.3v1.5H52.8V-9h1.5v-1.5h1.5V-12h1.5v-1.5h1.5v-3h1.5v-3H52.8V-21h9Zm-1.5,9v3h9v-3Zm0,4.5v3h9v-3Zm6,7.5h1.5v1.5H66.3ZM79.2-24Zm3,0h1.5v9h6v1.5h-6v9h3V-6h3v1.5h-3V-3h-3v1.5H82.2Zm9,0h1.5v10.5h1.5V-15h1.5v-1.5h1.5V-18h1.5v3h-3v1.5H94.2V-12H92.7v9H91.2Zm9,16.5h1.5v6h-9V-3h7.5ZM105.6-24Zm1.5,1.5h19.5V-21h-1.5v1.5h-1.5V-21h-6v3h7.5v-1.5h1.5V-18h-1.5V-1.5h-1.5V0h-1.5V-1.5h1.5V-15h-1.5v1.5h-1.5V-12h-1.5v1.5h-1.5V-9h1.5v1.5h-1.5V-6h1.5V-7.5h1.5V-9h1.5v1.5h-1.5V-6h-1.5v1.5h-1.5v3h-1.5V-15h-1.5v1.5h-1.5V-12h-1.5v1.5h-1.5V-9h1.5v1.5h-1.5V-6h1.5V-7.5h1.5V-9h1.5v1.5h-1.5V-6h-1.5v1.5h-1.5V0h-1.5V-18h7.5v-3h-6v1.5h-1.5V-18h-1.5v1.5h-1.5V-18h1.5v-1.5h1.5V-21h-1.5ZM126.6-18h1.5v1.5h-1.5Zm-16.5,1.5V-15h1.5v1.5h-1.5V-12h1.5v-1.5h1.5V-15h1.5v-1.5Zm7.5,0V-15h1.5v1.5h-1.5V-12h1.5v-1.5h1.5V-15h1.5v-1.5ZM113.1-12h1.5v1.5h-1.5Zm7.5,0h1.5v1.5h-1.5Zm-7.5,6h1.5v1.5h-1.5Zm7.5,0h1.5v1.5h-1.5Zm0,3h1.5v1.5h-1.5ZM132-24Zm6,0h1.5v1.5H147V-24h1.5v1.5h6V-21h-6v1.5H147V-21h-7.5v1.5H138V-21h-6v-1.5h6Zm4.5,4.5H144V-18h7.5v1.5H144V-15h9v1.5H141V-12h-1.5v1.5H147V-12h1.5v1.5H150v3h1.5V-3h3v1.5H132V-3h3V-7.5h13.5V-9h-12v-1.5H138V-12h1.5v-1.5h-6V-15h9v-1.5H135V-18h7.5ZM136.5-6v3h3V-6ZM141-6v3h4.5V-6Zm6,0v3h3V-6Zm11.4-18Zm6,0h1.5v3h7.5v-3h1.5v3h6v1.5h-6V-18h-1.5v-1.5h-7.5V-18h-1.5v-1.5h-6V-21h6Zm1.5,6h1.5v3h-1.5v1.5h-1.5V-12h-1.5v1.5h3V-12h1.5v-1.5h1.5V-12h-1.5v3h-1.5v1.5h-1.5V-6h-1.5v1.5h3V-6h1.5v1.5h1.5v3h-1.5V-3h-4.5v1.5h-1.5V-3h-1.5V-4.5h1.5V-6h1.5V-7.5h1.5V-9h-4.5v-1.5h1.5V-12h1.5v-1.5h1.5V-15h1.5Zm9,0h1.5v3h-1.5v3h-1.5v1.5h3V-12h1.5v-3h1.5v3h-1.5v3h-1.5v1.5h-1.5V-6h-1.5v1.5h3V-6h1.5v1.5h1.5v3h-1.5V-3h-4.5v1.5h-1.5V-3h-1.5V-4.5h1.5V-6h1.5V-7.5h1.5V-9h-4.5v-1.5h1.5V-12h1.5v-3h1.5Zm9.876.768h10.3v3.456h-6.84v3.528h10.344V-6.84H188.184v3.456h10.392V.048h-13.8Zm6.912,3.456h3.384v3.528h-3.384Zm3.384,6.936h3.5v3.456h-3.5Zm9.36-10.488h3.408v3.456h-3.408Zm0,6.96h3.408V-.024h-3.408Zm9.36-6.984h3.456V-3.48h6.912V-.048H213.792Zm16.224,0h3.456V-3.48h6.912V-.048H230.016Zm25.56.048h13.872v3.5H259.032V-3.48h6.912V-6.888h-3.456l-.024-3.456h6.984v10.3H255.576Zm19.656-.024H285.6v17.3h-3.5v-13.8H278.64v13.8h-3.408Zm3.408,6.96H282.1V-6.96H278.64Zm12.816-6.984h10.32v3.5h-3.408v13.8H294.96V-13.9h-3.5Zm16.224.072h10.368v3.48h-6.936v3.456h3.5v3.48h-3.5v3.48h6.936V.024H307.68Zm16.272-.048H334.32v3.456h-6.864v3.5h6.864V-.024H323.952V-3.5h6.96V-6.96h-6.96ZM340.128-24Zm4.5,0h1.5v3h-1.5v1.5h6V-15h1.5v-3h1.5v-6h1.5v4.5h6V-3h-1.5v1.5h-1.5V0h-1.5V-1.5h1.5V-3h1.5V-18h-6v3h-1.5v1.5h-1.5v12h-1.5V-3h-6v1.5h-1.5v-18h1.5V-21h1.5Zm-1.5,6v6h6v-6Zm10.5,4.5h1.5V-12h-1.5Zm1.5,1.5h1.5v3h-1.5Zm-12,1.5v6h6v-6Zm12,7.5h1.5v1.5h-1.5Zm11.4-21Zm6,0h1.5v3h7.5v-3h1.5v3h6v1.5h-6V-18h3v4.5h-16.5V-18h3v-1.5h-6V-21h6Zm1.5,4.5V-18h7.5v-1.5Zm-3,3V-15h3v-1.5Zm4.5,0V-15h4.5v-1.5Zm6,0V-15h3v-1.5Zm-13.5,4.5h21v3h-1.5v1.5h-1.5V-9h1.5v-1.5h-10.5V-9h7.5v3h-1.5v1.5h-3V-3h-3v1.5h-3V0h-6V-1.5h6V-3h3V-4.5h3V-6h3V-7.5h-7.5V-6h-3v1.5h-3V-6h3V-7.5h1.5V-9h1.5v-1.5h-6V-9h-1.5v1.5h-1.5V-9h1.5Zm7.5,6h1.5v1.5h-1.5Zm17.4-18Zm6,0h1.5v4.5h3V-18h-3v1.5h1.5V-15h-1.5v7.5h-1.5V-15h-1.5v1.5h-1.5V-12h-1.5v-1.5h1.5V-15h1.5v-1.5h1.5V-18h-4.5v-1.5h4.5Zm6,1.5h7.5V-9h-7.5Zm1.5,1.5v3h4.5v-3Zm0,4.5V-15h4.5v-1.5Zm-4.5,1.5h1.5v1.5h-1.5Zm4.5,1.5v3h4.5v-3Zm-4.5,4.5h1.5v1.5h-1.5Zm1.5,1.5h1.5v3h-1.5Zm-7.5,1.5h1.5v3h-1.5v1.5h-1.5V-3h1.5Zm3,0h1.5v4.5h-1.5Zm12,0h1.5v1.5h-1.5Zm-3,1.5h1.5V0h-9V-1.5h7.5Zm4.5,0h1.5v3h-1.5Zm6.948-12.828h6.864v3.5h-3.408V-3.456h3.408V-.072h-6.864Zm6.864,3.5h3.408V-3.456H426.24Zm9.312-3.528h3.5v3.5h3.456v3.456h3.408v-6.96h3.5v17.3h-3.456V-6.984h-3.456v-3.408h-3.456V-.048h-3.5Zm19.68.024H465.6v17.3h-3.5v-13.8H458.64v13.8h-3.408Zm3.408,6.96H462.1V-6.96H458.64Z" transform="translate(611 99)" fill="#fff"/>
  </g>
</svg>
