<svg xmlns="http://www.w3.org/2000/svg" width="277.324" height="224.5" viewBox="0 0 277.324 224.5">
  <g id="di1" transform="translate(-122 -554)">
    <path id="Path_53408" data-name="Path 53408" d="M280.471,608.823V595.617H267.265v13.206H254.059V595.617H240.853V582.412H227.647V569.206H214.441V556H201.235v52.824H122v13.206H320.088V608.823Z" transform="translate(0 24.412)" fill="#f6757a"/>
    <path id="Path_53409" data-name="Path 53409" d="M190.823,595.617H177.618V582.412H164.412V569.206H151.206V556H138v52.824h13.206v13.206h52.824V608.823H190.823Z" transform="translate(195.294 24.412)" fill="#f6757a"/>
    <rect id="Rectangle_33838" data-name="Rectangle 33838" width="13.206" height="13.206" transform="translate(280.471 606.824)" fill="#f6757a"/>
    <rect id="Rectangle_33839" data-name="Rectangle 33839" width="13.206" height="13.206" transform="translate(306.882 580.412)" fill="#f6757a"/>
    <rect id="Rectangle_33840" data-name="Rectangle 33840" width="13.206" height="13.206" transform="translate(320.088 567.206)" fill="#f6757a"/>
    <rect id="Rectangle_33841" data-name="Rectangle 33841" width="39.618" height="13.206" transform="translate(280.471 554)" fill="#f6757a"/>
    <rect id="Rectangle_33842" data-name="Rectangle 33842" width="39.618" height="13.206" transform="translate(201.235 554)" fill="#f6757a"/>
    <rect id="Rectangle_33843" data-name="Rectangle 33843" width="26.412" height="13.206" transform="translate(320.088 633.235)" fill="#ecf0f1"/>
    <rect id="Rectangle_33844" data-name="Rectangle 33844" width="13.206" height="13.206" transform="translate(293.676 593.618)" fill="#ecf0f1"/>
    <rect id="Rectangle_33845" data-name="Rectangle 33845" width="39.618" height="13.206" transform="translate(240.853 554)" fill="#ecf0f1"/>
    <rect id="Rectangle_33846" data-name="Rectangle 33846" width="13.206" height="13.206" transform="translate(267.265 752.088)" fill="#a22633"/>
    <rect id="Rectangle_33847" data-name="Rectangle 33847" width="13.206" height="13.206" transform="translate(280.471 738.882)" fill="#a22633"/>
    <rect id="Rectangle_33848" data-name="Rectangle 33848" width="13.206" height="13.206" transform="translate(293.676 725.676)" fill="#a22633"/>
    <path id="Path_53410" data-name="Path 53410" d="M153.412,600.618V587.412h13.206V574.206h13.206V561H127v52.823h13.206V600.618Z" transform="translate(61.03 85.441)" fill="#a22633"/>
    <path id="Path_53411" data-name="Path 53411" d="M233.647,561v39.618H220.441V587.412H207.235V574.206H194.029V561H180.823v52.823H128v13.206h13.206v13.206h13.206v13.206h13.206v13.206h13.206V627.029h52.824v13.206h13.206V627.029h13.206V613.823h13.206V600.618h13.206V587.412h13.206V574.206h13.206V561Z" transform="translate(73.235 85.441)" fill="#a22633"/>
    <path id="Path_53412" data-name="Path 53412" d="M176.823,608.823V556H163.618v13.206H150.412v13.206H137.206v13.206H124v13.206Z" transform="translate(24.412 24.412)" fill="#a22633"/>
    <path id="Path_53413" data-name="Path 53413" d="M160.412,569.206v13.206H147.206v13.206H134v13.206h52.823V556H173.618v13.206Z" transform="translate(146.471 24.412)" fill="#a22633"/>
    <path id="Path_53414" data-name="Path 53414" d="M132,555v66.029h13.206V607.823h13.206V594.618h13.206V581.412h13.206V568.206h13.206V555Z" transform="translate(122.059 12.206)" fill="#a22633"/>
    <rect id="Rectangle_33849" data-name="Rectangle 33849" width="13.206" height="13.206" transform="translate(227.647 738.882)" fill="#e43b44"/>
    <rect id="Rectangle_33850" data-name="Rectangle 33850" width="13.206" height="13.206" transform="translate(214.441 725.676)" fill="#e43b44"/>
    <path id="Path_53415" data-name="Path 53415" d="M144.206,566v39.618H131v13.206h13.206v13.206h13.206V605.618h13.206V592.412h13.206V579.206h13.206V566Z" transform="translate(109.853 146.471)" fill="#e43b44"/>
    <rect id="Rectangle_33851" data-name="Rectangle 33851" width="13.206" height="13.206" transform="translate(201.235 712.471)" fill="#e43b44"/>
    <rect id="Rectangle_33852" data-name="Rectangle 33852" width="13.206" height="13.206" transform="translate(188.029 699.265)" fill="#e43b44"/>
    <path id="Path_53416" data-name="Path 53416" d="M180.823,613.823V561H167.618v13.206H154.412v13.206H141.206v13.206H128v13.206Z" transform="translate(73.235 85.441)" fill="#e43b44"/>
    <path id="Path_53417" data-name="Path 53417" d="M175.823,561H123v13.206h13.206v13.206h13.206v13.206h13.206v13.206h13.206Z" transform="translate(12.206 85.441)" fill="#e43b44"/>
    <path id="Path_53418" data-name="Path 53418" d="M133,561v13.206h13.206v13.206h13.206v13.206h13.206V561Z" transform="translate(134.265 85.441)" fill="#e43b44"/>
    <rect id="Rectangle_33853" data-name="Rectangle 33853" width="13.206" height="13.206" transform="translate(135.206 620.029)" fill="#e43b44"/>
    <rect id="Rectangle_33854" data-name="Rectangle 33854" width="13.206" height="13.206" transform="translate(148.412 606.824)" fill="#e43b44"/>
    <rect id="Rectangle_33855" data-name="Rectangle 33855" width="13.206" height="13.206" transform="translate(161.618 593.618)" fill="#e43b44"/>
    <rect id="Rectangle_33856" data-name="Rectangle 33856" width="13.206" height="13.206" transform="translate(174.824 580.412)" fill="#e43b44"/>
    <path id="Path_53419" data-name="Path 53419" d="M127,555v13.206h26.412v13.206h13.206v13.206h13.206v13.206h13.206V555Z" transform="translate(61.03 12.206)" fill="#e43b44"/>
  </g>
</svg>
