<svg xmlns="http://www.w3.org/2000/svg" width="139.483" height="158.722" viewBox="0 0 139.483 158.722">
  <g id="di2" transform="translate(353.568 -487.624) rotate(45)">
    <path id="Path_53408" data-name="Path 53408" d="M203.624,583.208v-6.8h-6.8v6.8h-6.8v-6.8h-6.8v-6.8h-6.8v-6.8h-6.8V556h-6.8v27.208H122v6.8H224.03v-6.8Z" transform="translate(0 11.605)" fill="#f6757a"/>
    <path id="Path_53409" data-name="Path 53409" d="M165.208,576.406h-6.8v-6.8h-6.8v-6.8h-6.8V556H138v27.208h6.8v6.8H172.01v-6.8h-6.8Z" transform="translate(92.832 11.605)" fill="#f6757a"/>
    <rect id="Rectangle_33838" data-name="Rectangle 33838" width="6.802" height="6.802" transform="translate(203.624 581.208)" fill="#f6757a"/>
    <rect id="Rectangle_33839" data-name="Rectangle 33839" width="6.802" height="6.802" transform="translate(217.228 567.604)" fill="#f6757a"/>
    <rect id="Rectangle_33840" data-name="Rectangle 33840" width="6.802" height="6.802" transform="translate(224.03 560.802)" fill="#f6757a"/>
    <rect id="Rectangle_33841" data-name="Rectangle 33841" width="20.406" height="6.802" transform="translate(203.624 554)" fill="#f6757a"/>
    <rect id="Rectangle_33842" data-name="Rectangle 33842" width="20.406" height="6.802" transform="translate(162.812 554)" fill="#f6757a"/>
    <rect id="Rectangle_33843" data-name="Rectangle 33843" width="13.604" height="6.802" transform="translate(224.03 594.812)" fill="#ecf0f1"/>
    <rect id="Rectangle_33844" data-name="Rectangle 33844" width="6.802" height="6.802" transform="translate(210.426 574.406)" fill="#ecf0f1"/>
    <rect id="Rectangle_33845" data-name="Rectangle 33845" width="20.406" height="6.802" transform="translate(183.218 554)" fill="#ecf0f1"/>
    <rect id="Rectangle_33846" data-name="Rectangle 33846" width="6.802" height="6.802" transform="translate(196.822 656.03)" fill="#a22633"/>
    <rect id="Rectangle_33847" data-name="Rectangle 33847" width="6.802" height="6.802" transform="translate(203.624 649.228)" fill="#a22633"/>
    <rect id="Rectangle_33848" data-name="Rectangle 33848" width="6.802" height="6.802" transform="translate(210.426 642.426)" fill="#a22633"/>
    <path id="Path_53410" data-name="Path 53410" d="M140.6,581.406v-6.8h6.8v-6.8h6.8V561H127v27.208h6.8v-6.8Z" transform="translate(29.01 40.614)" fill="#a22633"/>
    <path id="Path_53411" data-name="Path 53411" d="M182.416,561v20.406h-6.8v-6.8h-6.8v-6.8h-6.8V561h-6.8v27.208H128v6.8h6.8v6.8h6.8v6.8h6.8v6.8h6.8V595.01h27.208v6.8h6.8v-6.8h6.8v-6.8h6.8v-6.8h6.8v-6.8h6.8v-6.8h6.8V561Z" transform="translate(34.812 40.614)" fill="#a22633"/>
    <path id="Path_53412" data-name="Path 53412" d="M151.208,583.208V556h-6.8v6.8h-6.8v6.8h-6.8v6.8H124v6.8Z" transform="translate(11.604 11.605)" fill="#a22633"/>
    <path id="Path_53413" data-name="Path 53413" d="M147.6,562.8v6.8h-6.8v6.8H134v6.8h27.208V556h-6.8v6.8Z" transform="translate(69.624 11.605)" fill="#a22633"/>
    <path id="Path_53414" data-name="Path 53414" d="M132,555v34.01h6.8v-6.8h6.8v-6.8h6.8v-6.8h6.8v-6.8h6.8V555Z" transform="translate(58.02 5.802)" fill="#a22633"/>
    <rect id="Rectangle_33849" data-name="Rectangle 33849" width="6.802" height="6.802" transform="translate(176.416 649.228)" fill="#e43b44"/>
    <rect id="Rectangle_33850" data-name="Rectangle 33850" width="6.802" height="6.802" transform="translate(169.614 642.426)" fill="#e43b44"/>
    <path id="Path_53415" data-name="Path 53415" d="M137.8,566v20.406H131v6.8h6.8v6.8h6.8v-13.6h6.8v-6.8h6.8v-6.8h6.8V566Z" transform="translate(52.218 69.624)" fill="#e43b44"/>
    <rect id="Rectangle_33851" data-name="Rectangle 33851" width="6.802" height="6.802" transform="translate(162.812 635.624)" fill="#e43b44"/>
    <rect id="Rectangle_33852" data-name="Rectangle 33852" width="6.802" height="6.802" transform="translate(156.01 628.822)" fill="#e43b44"/>
    <path id="Path_53416" data-name="Path 53416" d="M155.208,588.208V561h-6.8v6.8h-6.8v6.8h-6.8v6.8H128v6.8Z" transform="translate(34.812 40.614)" fill="#e43b44"/>
    <path id="Path_53417" data-name="Path 53417" d="M150.208,561H123v6.8h6.8v6.8h6.8v6.8h6.8v6.8h6.8Z" transform="translate(5.802 40.614)" fill="#e43b44"/>
    <path id="Path_53418" data-name="Path 53418" d="M133,561v6.8h6.8v6.8h6.8v6.8h6.8V561Z" transform="translate(63.822 40.614)" fill="#e43b44"/>
    <rect id="Rectangle_33853" data-name="Rectangle 33853" width="6.802" height="6.802" transform="translate(128.802 588.01)" fill="#e43b44"/>
    <rect id="Rectangle_33854" data-name="Rectangle 33854" width="6.802" height="6.802" transform="translate(135.604 581.208)" fill="#e43b44"/>
    <rect id="Rectangle_33855" data-name="Rectangle 33855" width="6.802" height="6.802" transform="translate(142.406 574.406)" fill="#e43b44"/>
    <rect id="Rectangle_33856" data-name="Rectangle 33856" width="6.802" height="6.802" transform="translate(149.208 567.604)" fill="#e43b44"/>
    <path id="Path_53419" data-name="Path 53419" d="M127,555v6.8h13.6v6.8h6.8v6.8h6.8v6.8h6.8V555Z" transform="translate(29.01 5.802)" fill="#e43b44"/>
  </g>
</svg>
