<svg xmlns="http://www.w3.org/2000/svg" width="163.271" height="163.271" viewBox="0 0 163.271 163.271">
  <g id="di3" transform="translate(193.802 1463.239) rotate(74)">
    <g id="diamond" transform="translate(-1425 -322.5)">
      <path id="Union_71" data-name="Union 71" d="M106.857,42.273V36.234h-6.285V12.078H94.285V6.039H75.429V0H94.285V6.039h6.286v6.039h6.285v6.039h6.286v6.039h6.285V30.2h6.286v6.039H132v6.039ZM0,42.273V36.234H37.714V12.078H44v6.039h6.286v6.039h6.286V30.2h6.285v6.039h6.286V30.2h6.286v6.039H94.285v6.039ZM75.428,30.195V24.156h6.286v6.039ZM88,18.117V12.078h6.285v6.039ZM37.714,6.039V0H56.571V6.039Z" transform="translate(0 0)" fill="#8ae2e0" stroke="rgba(0,0,0,0)" stroke-width="1"/>
      <rect id="Rectangle_13627" data-name="Rectangle 13627" width="12.571" height="6.039" transform="translate(94.285 36.234)" fill="#ecf0f1"/>
      <rect id="Rectangle_13628" data-name="Rectangle 13628" width="6.286" height="6.039" transform="translate(81.714 18.117)" fill="#ecf0f1"/>
      <rect id="Rectangle_13629" data-name="Rectangle 13629" width="18.857" height="6.039" transform="translate(56.571 0)" fill="#ecf0f1"/>
      <rect id="Rectangle_13630" data-name="Rectangle 13630" width="6.286" height="6.039" transform="translate(69.143 90.584)" fill="#00bcd1"/>
      <rect id="Rectangle_13631" data-name="Rectangle 13631" width="6.286" height="6.039" transform="translate(75.428 84.546)" fill="#00bcd1"/>
      <rect id="Rectangle_13632" data-name="Rectangle 13632" width="6.286" height="6.039" transform="translate(81.714 78.507)" fill="#00bcd1"/>
      <path id="Union_68" data-name="Union 68" d="M44,84.546V78.507H37.714V72.468H31.429V66.429H25.143V60.39H50.286V36.234h6.286v6.039h6.286v6.039h6.286v6.039h6.286V36.234h37.714v6.039h-6.286v6.039h-6.286v6.039H94.286V60.39H88v6.039H81.714v6.039H75.429V66.429H50.286V84.546ZM18.857,60.39V36.234H44v6.039H37.714v6.039H31.429v6.039H25.143V60.39Zm44-30.195V24.156h6.286V18.117h6.286V12.078h6.286V6.039H88V30.2Zm-12.571,0V0H81.714V6.039H75.428v6.039H69.143v6.039H62.857v6.039H56.571V30.2ZM0,30.2V24.156H6.286V18.117h6.286V12.078h6.286V6.039h6.286V30.2Z" transform="translate(12.571 6.039)" fill="#00bcd1" stroke="rgba(0,0,0,0)" stroke-width="1"/>
      <path id="Union_69" data-name="Union 69" d="M56.571,96.624V90.585H50.286V84.546h6.286V66.429H81.714v6.039H75.429v6.039H69.143v6.039H62.857V96.624ZM44,84.546V78.507H37.715V72.468H31.429V66.429H25.143V60.39H18.857V54.351H12.572V48.312H6.286V42.273H0V36.234H25.143V60.39h6.286v6.039h6.286v6.039H44v6.039h6.286v6.039ZM31.429,60.39V54.351h6.286V48.312H44V42.273h6.286V36.234h6.286V60.39Zm44-6.039V48.312H69.143V42.273H62.857V36.234H81.714V54.351ZM0,30.195V24.156H6.286v6.039Zm50.286-6.039V18.117H44V12.078H37.715V6.039H25.143V0H56.571V24.156Zm-44,0V18.117h6.286v6.039Zm6.286-6.039V12.078h6.286v6.039Zm6.286-6.039V6.039h6.286v6.039Z" transform="translate(6.285 6.039)" fill="#8ae2e0" stroke="rgba(0,0,0,0)" stroke-width="1"/>
    </g>
    <g id="Rectangle_25450" data-name="Rectangle 25450" transform="translate(-1425 -339)" fill="#fff" stroke="#707070" stroke-width="1" opacity="0">
      <rect width="132" height="132" stroke="none"/>
      <rect x="0.5" y="0.5" width="131" height="131" fill="none"/>
    </g>
  </g>
</svg>
