<svg xmlns="http://www.w3.org/2000/svg" width="321.828" height="321.828" viewBox="0 0 321.828 321.828">
  <g id="dna-bg" transform="translate(-454 1048)">
    <rect id="Rectangle_21052" data-name="Rectangle 21052" width="12.873" height="12.873" transform="translate(595.605 -1048)" fill="#1a52a0"/>
    <rect id="Rectangle_21053" data-name="Rectangle 21053" width="12.873" height="12.873" transform="translate(608.478 -1048)" fill="#1a52a0"/>
    <rect id="Rectangle_21054" data-name="Rectangle 21054" width="12.873" height="12.873" transform="translate(621.351 -1048)" fill="#1a52a0"/>
    <rect id="Rectangle_21055" data-name="Rectangle 21055" width="12.873" height="12.873" transform="translate(582.731 -1035.127)" fill="#1a52a0"/>
    <rect id="Rectangle_21056" data-name="Rectangle 21056" width="12.873" height="12.873" transform="translate(582.731 -1022.253)" fill="#1a52a0"/>
    <rect id="Rectangle_21057" data-name="Rectangle 21057" width="12.873" height="12.873" transform="translate(595.605 -1035.127)" fill="#1a52a0"/>
    <rect id="Rectangle_21058" data-name="Rectangle 21058" width="12.873" height="12.873" transform="translate(608.478 -1035.127)" fill="#245faa"/>
    <rect id="Rectangle_21059" data-name="Rectangle 21059" width="12.873" height="12.873" transform="translate(595.605 -1022.253)" fill="#1a52a0"/>
    <rect id="Rectangle_21060" data-name="Rectangle 21060" width="12.873" height="12.873" transform="translate(608.478 -1022.253)" fill="#245faa"/>
    <rect id="Rectangle_21061" data-name="Rectangle 21061" width="12.873" height="12.873" transform="translate(621.351 -1035.127)" fill="#245faa"/>
    <rect id="Rectangle_21062" data-name="Rectangle 21062" width="12.873" height="12.873" transform="translate(634.224 -1035.127)" fill="#1a52a0"/>
    <rect id="Rectangle_21063" data-name="Rectangle 21063" width="12.873" height="12.873" transform="translate(621.351 -1022.253)" fill="#7fb9e5"/>
    <rect id="Rectangle_21064" data-name="Rectangle 21064" width="12.873" height="12.873" transform="translate(634.224 -1022.253)" fill="#1a52a0"/>
    <rect id="Rectangle_21065" data-name="Rectangle 21065" width="12.873" height="12.873" transform="translate(505.493 -996.507)" fill="#1a52a0"/>
    <rect id="Rectangle_21066" data-name="Rectangle 21066" width="12.873" height="12.873" transform="translate(518.366 -996.507)" fill="#1a52a0"/>
    <rect id="Rectangle_21067" data-name="Rectangle 21067" width="12.873" height="12.873" transform="translate(582.731 -1009.38)" fill="#1a52a0"/>
    <rect id="Rectangle_21068" data-name="Rectangle 21068" width="12.873" height="12.873" transform="translate(595.605 -1009.38)" fill="#1a52a0"/>
    <rect id="Rectangle_21069" data-name="Rectangle 21069" width="12.873" height="12.873" transform="translate(608.478 -1009.38)" fill="#0b4798"/>
    <rect id="Rectangle_21070" data-name="Rectangle 21070" width="12.873" height="12.873" transform="translate(595.605 -996.507)" fill="#1a52a0"/>
    <rect id="Rectangle_21071" data-name="Rectangle 21071" width="12.873" height="12.873" transform="translate(608.478 -996.507)" fill="#1a52a0"/>
    <rect id="Rectangle_21072" data-name="Rectangle 21072" width="12.873" height="12.873" transform="translate(621.351 -1009.38)" fill="#1a52a0"/>
    <rect id="Rectangle_21073" data-name="Rectangle 21073" width="12.873" height="12.873" transform="translate(634.224 -1009.38)" fill="#1a52a0"/>
    <rect id="Rectangle_21074" data-name="Rectangle 21074" width="12.873" height="12.873" transform="translate(621.351 -996.507)" fill="#1a52a0"/>
    <rect id="Rectangle_21075" data-name="Rectangle 21075" width="12.873" height="12.873" transform="translate(492.619 -983.634)" fill="#1a52a0"/>
    <rect id="Rectangle_21076" data-name="Rectangle 21076" width="12.873" height="12.873" transform="translate(505.493 -983.634)" fill="#245faa"/>
    <rect id="Rectangle_21077" data-name="Rectangle 21077" width="12.873" height="12.873" transform="translate(492.619 -970.761)" fill="#1a52a0"/>
    <rect id="Rectangle_21078" data-name="Rectangle 21078" width="12.873" height="12.873" transform="translate(505.493 -970.761)" fill="#245faa"/>
    <rect id="Rectangle_21079" data-name="Rectangle 21079" width="12.873" height="12.873" transform="translate(518.366 -983.634)" fill="#7fb9e5"/>
    <rect id="Rectangle_21080" data-name="Rectangle 21080" width="12.873" height="12.873" transform="translate(531.239 -983.634)" fill="#1a52a0"/>
    <rect id="Rectangle_21081" data-name="Rectangle 21081" width="12.873" height="12.873" transform="translate(518.366 -970.761)" fill="#245faa"/>
    <rect id="Rectangle_21082" data-name="Rectangle 21082" width="12.873" height="12.873" transform="translate(531.239 -970.761)" fill="#1a52a0"/>
    <rect id="Rectangle_21083" data-name="Rectangle 21083" width="12.873" height="12.873" transform="translate(608.478 -983.634)" fill="#245faa"/>
    <rect id="Rectangle_21084" data-name="Rectangle 21084" width="12.873" height="12.873" transform="translate(608.478 -970.761)" fill="#245faa"/>
    <rect id="Rectangle_21085" data-name="Rectangle 21085" width="12.873" height="12.873" transform="translate(505.493 -957.888)" fill="#1a52a0"/>
    <rect id="Rectangle_21086" data-name="Rectangle 21086" width="12.873" height="12.873" transform="translate(518.366 -957.888)" fill="#1a52a0"/>
    <rect id="Rectangle_21087" data-name="Rectangle 21087" width="12.873" height="12.873" transform="translate(531.239 -957.888)" fill="#245faa"/>
    <rect id="Rectangle_21088" data-name="Rectangle 21088" width="12.873" height="12.873" transform="translate(544.112 -945.015)" fill="#245faa"/>
    <rect id="Rectangle_21089" data-name="Rectangle 21089" width="12.873" height="12.873" transform="translate(569.858 -945.015)" fill="#1a52a0"/>
    <rect id="Rectangle_21090" data-name="Rectangle 21090" width="12.873" height="12.873" transform="translate(582.731 -945.015)" fill="#1a52a0"/>
    <rect id="Rectangle_21091" data-name="Rectangle 21091" width="12.873" height="12.873" transform="translate(608.478 -957.888)" fill="#245faa"/>
    <rect id="Rectangle_21092" data-name="Rectangle 21092" width="12.873" height="12.873" transform="translate(595.605 -945.015)" fill="#1a52a0"/>
    <rect id="Rectangle_21093" data-name="Rectangle 21093" width="12.873" height="12.873" transform="translate(608.478 -945.015)" fill="#1a52a0"/>
    <rect id="Rectangle_21094" data-name="Rectangle 21094" width="12.873" height="12.873" transform="translate(621.351 -945.015)" fill="#1a52a0"/>
    <rect id="Rectangle_21095" data-name="Rectangle 21095" width="12.873" height="12.873" transform="translate(634.224 -945.015)" fill="#1a52a0"/>
    <rect id="Rectangle_21096" data-name="Rectangle 21096" width="12.873" height="12.873" transform="translate(556.985 -932.142)" fill="#1a52a0"/>
    <rect id="Rectangle_21097" data-name="Rectangle 21097" width="12.873" height="12.873" transform="translate(544.112 -919.269)" fill="#1a52a0"/>
    <rect id="Rectangle_21098" data-name="Rectangle 21098" width="12.873" height="12.873" transform="translate(556.985 -919.269)" fill="#1a52a0"/>
    <rect id="Rectangle_21099" data-name="Rectangle 21099" width="12.873" height="12.873" transform="translate(569.858 -932.142)" fill="#1a52a0"/>
    <rect id="Rectangle_21100" data-name="Rectangle 21100" width="12.873" height="12.873" transform="translate(582.731 -932.142)" fill="#1a52a0"/>
    <rect id="Rectangle_21101" data-name="Rectangle 21101" width="12.873" height="12.873" transform="translate(569.858 -919.269)" fill="#1a52a0"/>
    <rect id="Rectangle_21102" data-name="Rectangle 21102" width="12.873" height="12.873" transform="translate(582.731 -919.269)" fill="#1a52a0"/>
    <rect id="Rectangle_21103" data-name="Rectangle 21103" width="12.873" height="12.873" transform="translate(595.605 -932.142)" fill="#1a52a0"/>
    <rect id="Rectangle_21104" data-name="Rectangle 21104" width="12.873" height="12.873" transform="translate(608.478 -932.142)" fill="#1a52a0"/>
    <rect id="Rectangle_21105" data-name="Rectangle 21105" width="12.873" height="12.873" transform="translate(595.605 -919.269)" fill="#1a52a0"/>
    <rect id="Rectangle_21106" data-name="Rectangle 21106" width="12.873" height="12.873" transform="translate(608.478 -919.269)" fill="#245faa"/>
    <rect id="Rectangle_21107" data-name="Rectangle 21107" width="12.873" height="12.873" transform="translate(621.351 -932.142)" fill="#1a52a0"/>
    <rect id="Rectangle_21108" data-name="Rectangle 21108" width="12.873" height="12.873" transform="translate(634.224 -932.142)" fill="#1a52a0"/>
    <rect id="Rectangle_21109" data-name="Rectangle 21109" width="12.873" height="12.873" transform="translate(621.351 -919.269)" fill="#245faa"/>
    <rect id="Rectangle_21110" data-name="Rectangle 21110" width="12.873" height="12.873" transform="translate(634.224 -919.269)" fill="#245faa"/>
    <rect id="Rectangle_21111" data-name="Rectangle 21111" width="12.873" height="12.873" transform="translate(647.097 -932.142)" fill="#1a52a0"/>
    <rect id="Rectangle_21112" data-name="Rectangle 21112" width="12.873" height="12.873" transform="translate(647.097 -919.269)" fill="#1a52a0"/>
    <rect id="Rectangle_21113" data-name="Rectangle 21113" width="12.873" height="12.873" transform="translate(659.97 -919.269)" fill="#1a52a0"/>
    <rect id="Rectangle_21114" data-name="Rectangle 21114" width="12.873" height="12.873" transform="translate(724.336 -919.269)" fill="#1a52a0"/>
    <rect id="Rectangle_21115" data-name="Rectangle 21115" width="12.873" height="12.873" transform="translate(737.209 -919.269)" fill="#1a52a0"/>
    <rect id="Rectangle_21116" data-name="Rectangle 21116" width="12.873" height="12.873" transform="translate(750.082 -919.269)" fill="#1a52a0"/>
    <rect id="Rectangle_21117" data-name="Rectangle 21117" width="12.873" height="12.873" transform="translate(544.112 -906.396)" fill="#1a52a0"/>
    <rect id="Rectangle_21118" data-name="Rectangle 21118" width="12.873" height="12.873" transform="translate(556.985 -906.396)" fill="#1a52a0"/>
    <rect id="Rectangle_21119" data-name="Rectangle 21119" width="12.873" height="12.873" transform="translate(544.112 -893.522)" fill="#1a52a0"/>
    <rect id="Rectangle_21120" data-name="Rectangle 21120" width="12.873" height="12.873" transform="translate(556.985 -893.522)" fill="#1a52a0"/>
    <rect id="Rectangle_21121" data-name="Rectangle 21121" width="12.873" height="12.873" transform="translate(569.858 -906.396)" fill="#1a52a0"/>
    <rect id="Rectangle_21122" data-name="Rectangle 21122" width="12.873" height="12.873" transform="translate(582.731 -906.396)" fill="#1a52a0"/>
    <rect id="Rectangle_21123" data-name="Rectangle 21123" width="12.873" height="12.873" transform="translate(569.858 -893.522)" fill="#1a52a0"/>
    <rect id="Rectangle_21124" data-name="Rectangle 21124" width="12.873" height="12.873" transform="translate(582.731 -893.522)" fill="#1a52a0"/>
    <rect id="Rectangle_21125" data-name="Rectangle 21125" width="12.873" height="12.873" transform="translate(595.605 -906.396)" fill="#245faa"/>
    <rect id="Rectangle_21126" data-name="Rectangle 21126" width="12.873" height="12.873" transform="translate(608.478 -906.396)" fill="#245faa"/>
    <rect id="Rectangle_21127" data-name="Rectangle 21127" width="12.873" height="12.873" transform="translate(595.605 -893.522)" fill="#245faa"/>
    <rect id="Rectangle_21128" data-name="Rectangle 21128" width="12.873" height="12.873" transform="translate(608.478 -893.522)" fill="#245faa"/>
    <rect id="Rectangle_21129" data-name="Rectangle 21129" width="12.873" height="12.873" transform="translate(621.351 -906.396)" fill="#7fb9e5"/>
    <rect id="Rectangle_21130" data-name="Rectangle 21130" width="12.873" height="12.873" transform="translate(634.224 -906.396)" fill="#7fb9e5"/>
    <rect id="Rectangle_21131" data-name="Rectangle 21131" width="12.873" height="12.873" transform="translate(621.351 -893.522)" fill="#7fb9e5"/>
    <rect id="Rectangle_21132" data-name="Rectangle 21132" width="12.873" height="12.873" transform="translate(634.224 -893.522)" fill="#7fb9e5"/>
    <rect id="Rectangle_21133" data-name="Rectangle 21133" width="12.873" height="12.873" transform="translate(647.097 -906.396)" fill="#245faa"/>
    <rect id="Rectangle_21134" data-name="Rectangle 21134" width="12.873" height="12.873" transform="translate(659.97 -906.396)" fill="#1a52a0"/>
    <rect id="Rectangle_21135" data-name="Rectangle 21135" width="12.873" height="12.873" transform="translate(647.097 -893.522)" fill="#245faa"/>
    <rect id="Rectangle_21136" data-name="Rectangle 21136" width="12.873" height="12.873" transform="translate(659.97 -893.522)" fill="#1a52a0"/>
    <rect id="Rectangle_21137" data-name="Rectangle 21137" width="12.873" height="12.873" transform="translate(672.844 -893.522)" fill="#245faa"/>
    <rect id="Rectangle_21138" data-name="Rectangle 21138" width="12.873" height="12.873" transform="translate(685.716 -893.522)" fill="#245faa"/>
    <rect id="Rectangle_21139" data-name="Rectangle 21139" width="12.873" height="12.873" transform="translate(711.463 -906.396)" fill="#1a52a0"/>
    <rect id="Rectangle_21140" data-name="Rectangle 21140" width="12.873" height="12.873" transform="translate(698.59 -893.522)" fill="#245faa"/>
    <rect id="Rectangle_21141" data-name="Rectangle 21141" width="12.873" height="12.873" transform="translate(711.463 -893.522)" fill="#1a52a0"/>
    <rect id="Rectangle_21142" data-name="Rectangle 21142" width="12.873" height="12.873" transform="translate(724.336 -906.396)" fill="#1a52a0"/>
    <rect id="Rectangle_21143" data-name="Rectangle 21143" width="12.873" height="12.873" transform="translate(737.209 -906.396)" fill="#245faa"/>
    <rect id="Rectangle_21144" data-name="Rectangle 21144" width="12.873" height="12.873" transform="translate(724.336 -893.522)" fill="#1a52a0"/>
    <rect id="Rectangle_21145" data-name="Rectangle 21145" width="12.873" height="12.873" transform="translate(737.209 -893.522)" fill="#245faa"/>
    <rect id="Rectangle_21146" data-name="Rectangle 21146" width="12.873" height="12.873" transform="translate(750.082 -906.396)" fill="#7fb9e5"/>
    <rect id="Rectangle_21147" data-name="Rectangle 21147" width="12.873" height="12.873" transform="translate(762.955 -906.396)" fill="#1a52a0"/>
    <rect id="Rectangle_21148" data-name="Rectangle 21148" width="12.873" height="12.873" transform="translate(750.082 -893.522)" fill="#245faa"/>
    <rect id="Rectangle_21149" data-name="Rectangle 21149" width="12.873" height="12.873" transform="translate(762.955 -893.522)" fill="#1a52a0"/>
    <rect id="Rectangle_21150" data-name="Rectangle 21150" width="12.873" height="12.873" transform="translate(544.112 -880.649)" fill="#1a52a0"/>
    <rect id="Rectangle_21151" data-name="Rectangle 21151" width="12.873" height="12.873" transform="translate(556.985 -880.649)" fill="#1a52a0"/>
    <rect id="Rectangle_21152" data-name="Rectangle 21152" width="12.873" height="12.873" transform="translate(544.112 -867.776)" fill="#1a52a0"/>
    <rect id="Rectangle_21153" data-name="Rectangle 21153" width="12.873" height="12.873" transform="translate(556.985 -867.776)" fill="#1a52a0"/>
    <rect id="Rectangle_21154" data-name="Rectangle 21154" width="12.873" height="12.873" transform="translate(569.858 -880.649)" fill="#1a52a0"/>
    <rect id="Rectangle_21155" data-name="Rectangle 21155" width="12.873" height="12.873" transform="translate(582.731 -880.649)" fill="#1a52a0"/>
    <rect id="Rectangle_21156" data-name="Rectangle 21156" width="12.873" height="12.873" transform="translate(569.858 -867.776)" fill="#1a52a0"/>
    <rect id="Rectangle_21157" data-name="Rectangle 21157" width="12.873" height="12.873" transform="translate(582.731 -867.776)" fill="#1a52a0"/>
    <rect id="Rectangle_21158" data-name="Rectangle 21158" width="12.873" height="12.873" transform="translate(595.605 -880.649)" fill="#245faa"/>
    <rect id="Rectangle_21159" data-name="Rectangle 21159" width="12.873" height="12.873" transform="translate(608.478 -880.649)" fill="#245faa"/>
    <rect id="Rectangle_21160" data-name="Rectangle 21160" width="12.873" height="12.873" transform="translate(595.605 -867.776)" fill="#1a52a0"/>
    <rect id="Rectangle_21161" data-name="Rectangle 21161" width="12.873" height="12.873" transform="translate(608.478 -867.776)" fill="#245faa"/>
    <rect id="Rectangle_21162" data-name="Rectangle 21162" width="12.873" height="12.873" transform="translate(621.351 -880.649)" fill="#245faa"/>
    <rect id="Rectangle_21163" data-name="Rectangle 21163" width="12.873" height="12.873" transform="translate(634.224 -880.649)" fill="#245faa"/>
    <rect id="Rectangle_21164" data-name="Rectangle 21164" width="12.873" height="12.873" transform="translate(621.351 -867.776)" fill="#245faa"/>
    <rect id="Rectangle_21165" data-name="Rectangle 21165" width="12.873" height="12.873" transform="translate(634.224 -867.776)" fill="#245faa"/>
    <rect id="Rectangle_21166" data-name="Rectangle 21166" width="12.873" height="12.873" transform="translate(647.097 -880.649)" fill="#245faa"/>
    <rect id="Rectangle_21167" data-name="Rectangle 21167" width="12.873" height="12.873" transform="translate(659.97 -880.649)" fill="#1a52a0"/>
    <rect id="Rectangle_21168" data-name="Rectangle 21168" width="12.873" height="12.873" transform="translate(647.097 -867.776)" fill="#1a52a0"/>
    <rect id="Rectangle_21169" data-name="Rectangle 21169" width="12.873" height="12.873" transform="translate(659.97 -867.776)" fill="#1a52a0"/>
    <rect id="Rectangle_21170" data-name="Rectangle 21170" width="12.873" height="12.873" transform="translate(711.463 -880.649)" fill="#1a52a0"/>
    <rect id="Rectangle_21171" data-name="Rectangle 21171" width="12.873" height="12.873" transform="translate(724.336 -880.649)" fill="#1a52a0"/>
    <rect id="Rectangle_21172" data-name="Rectangle 21172" width="12.873" height="12.873" transform="translate(737.209 -880.649)" fill="#1a52a0"/>
    <rect id="Rectangle_21173" data-name="Rectangle 21173" width="12.873" height="12.873" transform="translate(724.336 -867.776)" fill="#1a52a0"/>
    <rect id="Rectangle_21174" data-name="Rectangle 21174" width="12.873" height="12.873" transform="translate(737.209 -867.776)" fill="#1a52a0"/>
    <rect id="Rectangle_21175" data-name="Rectangle 21175" width="12.873" height="12.873" transform="translate(750.082 -880.649)" fill="#1a52a0"/>
    <rect id="Rectangle_21176" data-name="Rectangle 21176" width="12.873" height="12.873" transform="translate(762.955 -880.649)" fill="#1a52a0"/>
    <rect id="Rectangle_21177" data-name="Rectangle 21177" width="12.873" height="12.873" transform="translate(750.082 -867.776)" fill="#1a52a0"/>
    <rect id="Rectangle_21178" data-name="Rectangle 21178" width="12.873" height="12.873" transform="translate(544.112 -854.903)" fill="#1a52a0"/>
    <rect id="Rectangle_21179" data-name="Rectangle 21179" width="12.873" height="12.873" transform="translate(556.985 -854.903)" fill="#1a52a0"/>
    <rect id="Rectangle_21180" data-name="Rectangle 21180" width="12.873" height="12.873" transform="translate(556.985 -842.03)" fill="#1a52a0"/>
    <rect id="Rectangle_21181" data-name="Rectangle 21181" width="12.873" height="12.873" transform="translate(569.858 -854.903)" fill="#1a52a0"/>
    <rect id="Rectangle_21182" data-name="Rectangle 21182" width="12.873" height="12.873" transform="translate(582.731 -854.903)" fill="#1a52a0"/>
    <rect id="Rectangle_21183" data-name="Rectangle 21183" width="12.873" height="12.873" transform="translate(569.858 -842.03)" fill="#1a52a0"/>
    <rect id="Rectangle_21184" data-name="Rectangle 21184" width="12.873" height="12.873" transform="translate(582.731 -842.03)" fill="#1a52a0"/>
    <rect id="Rectangle_21185" data-name="Rectangle 21185" width="12.873" height="12.873" transform="translate(595.605 -854.903)" fill="#1a52a0"/>
    <rect id="Rectangle_21186" data-name="Rectangle 21186" width="12.873" height="12.873" transform="translate(608.478 -854.903)" fill="#1a52a0"/>
    <rect id="Rectangle_21187" data-name="Rectangle 21187" width="12.873" height="12.873" transform="translate(595.605 -842.03)" fill="#1a52a0"/>
    <rect id="Rectangle_21188" data-name="Rectangle 21188" width="12.873" height="12.873" transform="translate(608.478 -842.03)" fill="#1a52a0"/>
    <rect id="Rectangle_21189" data-name="Rectangle 21189" width="12.873" height="12.873" transform="translate(621.351 -854.903)" fill="#1a52a0"/>
    <rect id="Rectangle_21190" data-name="Rectangle 21190" width="12.873" height="12.873" transform="translate(634.224 -854.903)" fill="#1a52a0"/>
    <rect id="Rectangle_21191" data-name="Rectangle 21191" width="12.873" height="12.873" transform="translate(621.351 -842.03)" fill="#1a52a0"/>
    <rect id="Rectangle_21192" data-name="Rectangle 21192" width="12.873" height="12.873" transform="translate(634.224 -842.03)" fill="#1a52a0"/>
    <rect id="Rectangle_21193" data-name="Rectangle 21193" width="12.873" height="12.873" transform="translate(647.097 -854.903)" fill="#1a52a0"/>
    <rect id="Rectangle_21194" data-name="Rectangle 21194" width="12.873" height="12.873" transform="translate(659.97 -854.903)" fill="#1a52a0"/>
    <rect id="Rectangle_21195" data-name="Rectangle 21195" width="12.873" height="12.873" transform="translate(647.097 -842.03)" fill="#1a52a0"/>
    <rect id="Rectangle_21196" data-name="Rectangle 21196" width="12.873" height="12.873" transform="translate(479.746 -816.284)" fill="#1a52a0"/>
    <rect id="Rectangle_21197" data-name="Rectangle 21197" width="12.873" height="12.873" transform="translate(492.619 -816.284)" fill="#1a52a0"/>
    <rect id="Rectangle_21198" data-name="Rectangle 21198" width="12.873" height="12.873" transform="translate(505.493 -816.284)" fill="#1a52a0"/>
    <rect id="Rectangle_21199" data-name="Rectangle 21199" width="12.873" height="12.873" transform="translate(531.239 -816.284)" fill="#245faa"/>
    <rect id="Rectangle_21200" data-name="Rectangle 21200" width="12.873" height="12.873" transform="translate(544.112 -829.156)" fill="#245faa"/>
    <rect id="Rectangle_21201" data-name="Rectangle 21201" width="12.873" height="12.873" transform="translate(569.858 -829.156)" fill="#1a52a0"/>
    <rect id="Rectangle_21202" data-name="Rectangle 21202" width="12.873" height="12.873" transform="translate(582.731 -829.156)" fill="#1a52a0"/>
    <rect id="Rectangle_21203" data-name="Rectangle 21203" width="12.873" height="12.873" transform="translate(595.605 -829.156)" fill="#1a52a0"/>
    <rect id="Rectangle_21204" data-name="Rectangle 21204" width="12.873" height="12.873" transform="translate(608.478 -829.156)" fill="#1a52a0"/>
    <rect id="Rectangle_21205" data-name="Rectangle 21205" width="12.873" height="12.873" transform="translate(621.351 -829.156)" fill="#1a52a0"/>
    <rect id="Rectangle_21206" data-name="Rectangle 21206" width="12.873" height="12.873" transform="translate(634.224 -829.156)" fill="#1a52a0"/>
    <rect id="Rectangle_21207" data-name="Rectangle 21207" width="12.873" height="12.873" transform="translate(659.97 -829.156)" fill="#245faa"/>
    <rect id="Rectangle_21208" data-name="Rectangle 21208" width="12.873" height="12.873" transform="translate(672.844 -816.284)" fill="#245faa"/>
    <rect id="Rectangle_21209" data-name="Rectangle 21209" width="12.873" height="12.873" transform="translate(685.716 -816.284)" fill="#1a52a0"/>
    <rect id="Rectangle_21210" data-name="Rectangle 21210" width="12.873" height="12.873" transform="translate(698.59 -816.284)" fill="#1a52a0"/>
    <rect id="Rectangle_21211" data-name="Rectangle 21211" width="12.873" height="12.873" transform="translate(711.463 -816.284)" fill="#1a52a0"/>
    <rect id="Rectangle_21212" data-name="Rectangle 21212" width="12.873" height="12.873" transform="translate(454 -790.537)" fill="#1a52a0"/>
    <rect id="Rectangle_21213" data-name="Rectangle 21213" width="12.873" height="12.873" transform="translate(466.873 -803.41)" fill="#1a52a0"/>
    <rect id="Rectangle_21214" data-name="Rectangle 21214" width="12.873" height="12.873" transform="translate(479.746 -803.41)" fill="#1a52a0"/>
    <rect id="Rectangle_21215" data-name="Rectangle 21215" width="12.873" height="12.873" transform="translate(466.873 -790.537)" fill="#1a52a0"/>
    <rect id="Rectangle_21216" data-name="Rectangle 21216" width="12.873" height="12.873" transform="translate(479.746 -790.537)" fill="#245faa"/>
    <rect id="Rectangle_21217" data-name="Rectangle 21217" width="12.873" height="12.873" transform="translate(492.619 -803.41)" fill="#245faa"/>
    <rect id="Rectangle_21218" data-name="Rectangle 21218" width="12.873" height="12.873" transform="translate(505.493 -803.41)" fill="#245faa"/>
    <rect id="Rectangle_21219" data-name="Rectangle 21219" width="12.873" height="12.873" transform="translate(492.619 -790.537)" fill="#245faa"/>
    <rect id="Rectangle_21220" data-name="Rectangle 21220" width="12.873" height="12.873" transform="translate(505.493 -790.537)" fill="#7fb9e5"/>
    <rect id="Rectangle_21221" data-name="Rectangle 21221" width="12.873" height="12.873" transform="translate(518.366 -803.41)" fill="#1a52a0"/>
    <rect id="Rectangle_21222" data-name="Rectangle 21222" width="12.873" height="12.873" transform="translate(518.366 -790.537)" fill="#245faa"/>
    <rect id="Rectangle_21223" data-name="Rectangle 21223" width="12.873" height="12.873" transform="translate(531.239 -790.537)" fill="#1a52a0"/>
    <rect id="Rectangle_21224" data-name="Rectangle 21224" width="12.873" height="12.873" transform="translate(672.844 -803.41)" fill="#1a52a0"/>
    <rect id="Rectangle_21225" data-name="Rectangle 21225" width="12.873" height="12.873" transform="translate(685.716 -803.41)" fill="#1a52a0"/>
    <rect id="Rectangle_21226" data-name="Rectangle 21226" width="12.873" height="12.873" transform="translate(672.844 -790.537)" fill="#1a52a0"/>
    <rect id="Rectangle_21227" data-name="Rectangle 21227" width="12.873" height="12.873" transform="translate(685.716 -790.537)" fill="#1a52a0"/>
    <rect id="Rectangle_21228" data-name="Rectangle 21228" width="12.873" height="12.873" transform="translate(698.59 -803.41)" fill="#245faa"/>
    <rect id="Rectangle_21229" data-name="Rectangle 21229" width="12.873" height="12.873" transform="translate(711.463 -803.41)" fill="#7fb9e5"/>
    <rect id="Rectangle_21230" data-name="Rectangle 21230" width="12.873" height="12.873" transform="translate(698.59 -790.537)" fill="#245faa"/>
    <rect id="Rectangle_21231" data-name="Rectangle 21231" width="12.873" height="12.873" transform="translate(711.463 -790.537)" fill="#245faa"/>
    <rect id="Rectangle_21232" data-name="Rectangle 21232" width="12.873" height="12.873" transform="translate(724.336 -803.41)" fill="#1a52a0"/>
    <rect id="Rectangle_21233" data-name="Rectangle 21233" width="12.873" height="12.873" transform="translate(724.336 -790.537)" fill="#1a52a0"/>
    <rect id="Rectangle_21234" data-name="Rectangle 21234" width="12.873" height="12.873" transform="translate(454 -777.664)" fill="#1a52a0"/>
    <rect id="Rectangle_21235" data-name="Rectangle 21235" width="12.873" height="12.873" transform="translate(454 -764.791)" fill="#1a52a0"/>
    <rect id="Rectangle_21236" data-name="Rectangle 21236" width="12.873" height="12.873" transform="translate(466.873 -777.664)" fill="#1a52a0"/>
    <rect id="Rectangle_21237" data-name="Rectangle 21237" width="12.873" height="12.873" transform="translate(479.746 -777.664)" fill="#245faa"/>
    <rect id="Rectangle_21238" data-name="Rectangle 21238" width="12.873" height="12.873" transform="translate(466.873 -764.791)" fill="#1a52a0"/>
    <rect id="Rectangle_21239" data-name="Rectangle 21239" width="12.873" height="12.873" transform="translate(479.746 -764.791)" fill="#1a52a0"/>
    <rect id="Rectangle_21240" data-name="Rectangle 21240" width="12.873" height="12.873" transform="translate(492.619 -777.664)" fill="#245faa"/>
    <rect id="Rectangle_21241" data-name="Rectangle 21241" width="12.873" height="12.873" transform="translate(505.493 -777.664)" fill="#245faa"/>
    <rect id="Rectangle_21242" data-name="Rectangle 21242" width="12.873" height="12.873" transform="translate(492.619 -764.791)" fill="#245faa"/>
    <rect id="Rectangle_21243" data-name="Rectangle 21243" width="12.873" height="12.873" transform="translate(505.493 -764.791)" fill="#245faa"/>
    <rect id="Rectangle_21244" data-name="Rectangle 21244" width="12.873" height="12.873" transform="translate(518.366 -777.664)" fill="#245faa"/>
    <rect id="Rectangle_21245" data-name="Rectangle 21245" width="12.873" height="12.873" transform="translate(531.239 -777.664)" fill="#1a52a0"/>
    <rect id="Rectangle_21246" data-name="Rectangle 21246" width="12.873" height="12.873" transform="translate(518.366 -764.791)" fill="#1a52a0"/>
    <rect id="Rectangle_21247" data-name="Rectangle 21247" width="12.873" height="12.873" transform="translate(531.239 -764.791)" fill="#1a52a0"/>
    <rect id="Rectangle_21248" data-name="Rectangle 21248" width="12.873" height="12.873" transform="translate(672.844 -777.664)" fill="#1a52a0"/>
    <rect id="Rectangle_21249" data-name="Rectangle 21249" width="12.873" height="12.873" transform="translate(685.716 -777.664)" fill="#1a52a0"/>
    <rect id="Rectangle_21250" data-name="Rectangle 21250" width="12.873" height="12.873" transform="translate(685.716 -764.791)" fill="#1a52a0"/>
    <rect id="Rectangle_21251" data-name="Rectangle 21251" width="12.873" height="12.873" transform="translate(698.59 -777.664)" fill="#1a52a0"/>
    <rect id="Rectangle_21252" data-name="Rectangle 21252" width="12.873" height="12.873" transform="translate(711.463 -777.664)" fill="#1a52a0"/>
    <rect id="Rectangle_21253" data-name="Rectangle 21253" width="12.873" height="12.873" transform="translate(698.59 -764.791)" fill="#1a52a0"/>
    <rect id="Rectangle_21254" data-name="Rectangle 21254" width="12.873" height="12.873" transform="translate(711.463 -764.791)" fill="#1a52a0"/>
    <rect id="Rectangle_21255" data-name="Rectangle 21255" width="12.873" height="12.873" transform="translate(724.336 -777.664)" fill="#1a52a0"/>
    <rect id="Rectangle_21256" data-name="Rectangle 21256" width="12.873" height="12.873" transform="translate(466.873 -751.918)" fill="#1a52a0"/>
    <rect id="Rectangle_21257" data-name="Rectangle 21257" width="12.873" height="12.873" transform="translate(479.746 -751.918)" fill="#1a52a0"/>
    <rect id="Rectangle_21258" data-name="Rectangle 21258" width="12.873" height="12.873" transform="translate(479.746 -739.045)" fill="#1a52a0"/>
    <rect id="Rectangle_21259" data-name="Rectangle 21259" width="12.873" height="12.873" transform="translate(492.619 -751.918)" fill="#1a52a0"/>
    <rect id="Rectangle_21260" data-name="Rectangle 21260" width="12.873" height="12.873" transform="translate(505.493 -751.918)" fill="#1a52a0"/>
    <rect id="Rectangle_21261" data-name="Rectangle 21261" width="12.873" height="12.873" transform="translate(492.619 -739.045)" fill="#1a52a0"/>
    <rect id="Rectangle_21262" data-name="Rectangle 21262" width="12.873" height="12.873" transform="translate(505.493 -739.045)" fill="#1a52a0"/>
    <rect id="Rectangle_21263" data-name="Rectangle 21263" width="12.873" height="12.873" transform="translate(518.366 -751.918)" fill="#1a52a0"/>
  </g>
</svg>
