<svg xmlns="http://www.w3.org/2000/svg" width="113.558" height="102.486" viewBox="0 0 113.558 102.486">
  <g id="dna-3" transform="translate(-1043.808 9.292) rotate(30)">
    <rect id="Rectangle_13660" data-name="Rectangle 13660" width="4.107" height="4.107" transform="translate(974.175 -573)" fill="#2a68af"/>
    <rect id="Rectangle_13661" data-name="Rectangle 13661" width="4.107" height="4.107" transform="translate(978.282 -573)" fill="#2a68af"/>
    <rect id="Rectangle_13662" data-name="Rectangle 13662" width="4.107" height="4.107" transform="translate(982.389 -573)" fill="#2a68af"/>
    <rect id="Rectangle_13663" data-name="Rectangle 13663" width="4.107" height="4.107" transform="translate(970.068 -568.893)" fill="#2a68af"/>
    <rect id="Rectangle_13664" data-name="Rectangle 13664" width="4.107" height="4.107" transform="translate(970.068 -564.786)" fill="#2a68af"/>
    <rect id="Rectangle_13665" data-name="Rectangle 13665" width="4.107" height="4.107" transform="translate(974.175 -568.893)" fill="#2a68af"/>
    <rect id="Rectangle_13666" data-name="Rectangle 13666" width="4.107" height="4.107" transform="translate(978.282 -568.893)" fill="#2a68af"/>
    <rect id="Rectangle_13667" data-name="Rectangle 13667" width="4.107" height="4.107" transform="translate(974.175 -564.786)" fill="#2a68af"/>
    <rect id="Rectangle_13668" data-name="Rectangle 13668" width="4.107" height="4.107" transform="translate(978.282 -564.786)" fill="#2a68af"/>
    <rect id="Rectangle_13669" data-name="Rectangle 13669" width="4.107" height="4.107" transform="translate(982.389 -568.893)" fill="#2a68af"/>
    <rect id="Rectangle_13670" data-name="Rectangle 13670" width="4.107" height="4.107" transform="translate(986.496 -568.893)" fill="#2a68af"/>
    <rect id="Rectangle_13671" data-name="Rectangle 13671" width="4.107" height="4.107" transform="translate(982.389 -564.786)" fill="#2a68af"/>
    <rect id="Rectangle_13672" data-name="Rectangle 13672" width="4.107" height="4.107" transform="translate(986.496 -564.786)" fill="#2a68af"/>
    <rect id="Rectangle_13673" data-name="Rectangle 13673" width="4.107" height="4.107" transform="translate(945.427 -556.572)" fill="#2a68af"/>
    <rect id="Rectangle_13674" data-name="Rectangle 13674" width="4.107" height="4.107" transform="translate(949.534 -556.572)" fill="#2a68af"/>
    <rect id="Rectangle_13675" data-name="Rectangle 13675" width="4.107" height="4.107" transform="translate(970.068 -560.679)" fill="#2a68af"/>
    <rect id="Rectangle_13676" data-name="Rectangle 13676" width="4.107" height="4.107" transform="translate(974.175 -560.679)" fill="#2a68af"/>
    <rect id="Rectangle_13677" data-name="Rectangle 13677" width="4.107" height="4.107" transform="translate(978.282 -560.679)" fill="#2a68af"/>
    <rect id="Rectangle_13678" data-name="Rectangle 13678" width="4.107" height="4.107" transform="translate(974.175 -556.572)" fill="#2a68af"/>
    <rect id="Rectangle_13679" data-name="Rectangle 13679" width="4.107" height="4.107" transform="translate(978.282 -556.572)" fill="#2a68af"/>
    <rect id="Rectangle_13680" data-name="Rectangle 13680" width="4.107" height="4.107" transform="translate(982.389 -560.679)" fill="#2a68af"/>
    <rect id="Rectangle_13681" data-name="Rectangle 13681" width="4.107" height="4.107" transform="translate(986.496 -560.679)" fill="#2a68af"/>
    <rect id="Rectangle_13682" data-name="Rectangle 13682" width="4.107" height="4.107" transform="translate(982.389 -556.572)" fill="#2a68af"/>
    <rect id="Rectangle_13683" data-name="Rectangle 13683" width="4.107" height="4.107" transform="translate(941.321 -552.465)" fill="#2a68af"/>
    <rect id="Rectangle_13684" data-name="Rectangle 13684" width="4.107" height="4.107" transform="translate(945.427 -552.465)" fill="#2a68af"/>
    <rect id="Rectangle_13685" data-name="Rectangle 13685" width="4.107" height="4.107" transform="translate(941.321 -548.358)" fill="#2a68af"/>
    <rect id="Rectangle_13686" data-name="Rectangle 13686" width="4.107" height="4.107" transform="translate(945.427 -548.358)" fill="#2a68af"/>
    <rect id="Rectangle_13687" data-name="Rectangle 13687" width="4.107" height="4.107" transform="translate(949.534 -552.465)" fill="#2a68af"/>
    <rect id="Rectangle_13688" data-name="Rectangle 13688" width="4.107" height="4.107" transform="translate(953.641 -552.465)" fill="#2a68af"/>
    <rect id="Rectangle_13689" data-name="Rectangle 13689" width="4.107" height="4.107" transform="translate(949.534 -548.358)" fill="#2a68af"/>
    <rect id="Rectangle_13690" data-name="Rectangle 13690" width="4.107" height="4.107" transform="translate(953.641 -548.358)" fill="#2a68af"/>
    <rect id="Rectangle_13691" data-name="Rectangle 13691" width="4.107" height="4.107" transform="translate(978.282 -552.465)" fill="#2a68af"/>
    <rect id="Rectangle_13692" data-name="Rectangle 13692" width="4.107" height="4.107" transform="translate(978.282 -548.358)" fill="#2a68af"/>
    <rect id="Rectangle_13693" data-name="Rectangle 13693" width="4.107" height="4.107" transform="translate(945.427 -544.251)" fill="#2a68af"/>
    <rect id="Rectangle_13694" data-name="Rectangle 13694" width="4.107" height="4.107" transform="translate(949.534 -544.251)" fill="#2a68af"/>
    <rect id="Rectangle_13695" data-name="Rectangle 13695" width="4.107" height="4.107" transform="translate(953.641 -544.251)" fill="#2a68af"/>
    <rect id="Rectangle_13696" data-name="Rectangle 13696" width="4.107" height="4.107" transform="translate(957.748 -540.144)" fill="#2a68af"/>
    <rect id="Rectangle_13697" data-name="Rectangle 13697" width="4.107" height="4.107" transform="translate(965.962 -540.144)" fill="#2a68af"/>
    <rect id="Rectangle_13698" data-name="Rectangle 13698" width="4.107" height="4.107" transform="translate(970.068 -540.144)" fill="#2a68af"/>
    <rect id="Rectangle_13699" data-name="Rectangle 13699" width="4.107" height="4.107" transform="translate(978.282 -544.251)" fill="#2a68af"/>
    <rect id="Rectangle_13700" data-name="Rectangle 13700" width="4.107" height="4.107" transform="translate(974.175 -540.144)" fill="#2a68af"/>
    <rect id="Rectangle_13701" data-name="Rectangle 13701" width="4.107" height="4.107" transform="translate(978.282 -540.144)" fill="#2a68af"/>
    <rect id="Rectangle_13702" data-name="Rectangle 13702" width="4.107" height="4.107" transform="translate(982.389 -540.144)" fill="#2a68af"/>
    <rect id="Rectangle_13703" data-name="Rectangle 13703" width="4.107" height="4.107" transform="translate(986.496 -540.144)" fill="#2a68af"/>
    <rect id="Rectangle_13704" data-name="Rectangle 13704" width="4.107" height="4.107" transform="translate(961.855 -536.037)" fill="#2a68af"/>
    <rect id="Rectangle_13705" data-name="Rectangle 13705" width="4.107" height="4.107" transform="translate(957.748 -531.93)" fill="#2a68af"/>
    <rect id="Rectangle_13706" data-name="Rectangle 13706" width="4.107" height="4.107" transform="translate(961.855 -531.93)" fill="#2a68af"/>
    <rect id="Rectangle_13707" data-name="Rectangle 13707" width="4.107" height="4.107" transform="translate(965.962 -536.037)" fill="#2a68af"/>
    <rect id="Rectangle_13708" data-name="Rectangle 13708" width="4.107" height="4.107" transform="translate(970.068 -536.037)" fill="#2a68af"/>
    <rect id="Rectangle_13709" data-name="Rectangle 13709" width="4.107" height="4.107" transform="translate(965.962 -531.93)" fill="#2a68af"/>
    <rect id="Rectangle_13710" data-name="Rectangle 13710" width="4.107" height="4.107" transform="translate(970.068 -531.93)" fill="#2a68af"/>
    <rect id="Rectangle_13711" data-name="Rectangle 13711" width="4.107" height="4.107" transform="translate(974.175 -536.037)" fill="#2a68af"/>
    <rect id="Rectangle_13712" data-name="Rectangle 13712" width="4.107" height="4.107" transform="translate(978.282 -536.037)" fill="#2a68af"/>
    <rect id="Rectangle_13713" data-name="Rectangle 13713" width="4.107" height="4.107" transform="translate(974.175 -531.93)" fill="#2a68af"/>
    <rect id="Rectangle_13714" data-name="Rectangle 13714" width="4.107" height="4.107" transform="translate(978.282 -531.93)" fill="#2a68af"/>
    <rect id="Rectangle_13715" data-name="Rectangle 13715" width="4.107" height="4.107" transform="translate(982.389 -536.037)" fill="#2a68af"/>
    <rect id="Rectangle_13716" data-name="Rectangle 13716" width="4.107" height="4.107" transform="translate(986.496 -536.037)" fill="#2a68af"/>
    <rect id="Rectangle_13717" data-name="Rectangle 13717" width="4.107" height="4.107" transform="translate(982.389 -531.93)" fill="#2a68af"/>
    <rect id="Rectangle_13718" data-name="Rectangle 13718" width="4.107" height="4.107" transform="translate(986.496 -531.93)" fill="#2a68af"/>
    <rect id="Rectangle_13719" data-name="Rectangle 13719" width="4.107" height="4.107" transform="translate(990.603 -536.037)" fill="#2a68af"/>
    <rect id="Rectangle_13720" data-name="Rectangle 13720" width="4.107" height="4.107" transform="translate(990.603 -531.93)" fill="#2a68af"/>
    <rect id="Rectangle_13721" data-name="Rectangle 13721" width="4.107" height="4.107" transform="translate(994.71 -531.93)" fill="#2a68af"/>
    <rect id="Rectangle_13722" data-name="Rectangle 13722" width="4.107" height="4.107" transform="translate(1015.244 -531.93)" fill="#2a68af"/>
    <rect id="Rectangle_13723" data-name="Rectangle 13723" width="4.107" height="4.107" transform="translate(1019.351 -531.93)" fill="#2a68af"/>
    <rect id="Rectangle_13724" data-name="Rectangle 13724" width="4.107" height="4.107" transform="translate(1023.458 -531.93)" fill="#2a68af"/>
    <rect id="Rectangle_13725" data-name="Rectangle 13725" width="4.107" height="4.107" transform="translate(957.748 -527.823)" fill="#2a68af"/>
    <rect id="Rectangle_13726" data-name="Rectangle 13726" width="4.107" height="4.107" transform="translate(961.855 -527.823)" fill="#2a68af"/>
    <rect id="Rectangle_13727" data-name="Rectangle 13727" width="4.107" height="4.107" transform="translate(957.748 -523.716)" fill="#2a68af"/>
    <rect id="Rectangle_13728" data-name="Rectangle 13728" width="4.107" height="4.107" transform="translate(961.855 -523.716)" fill="#2a68af"/>
    <rect id="Rectangle_13729" data-name="Rectangle 13729" width="4.107" height="4.107" transform="translate(965.962 -527.823)" fill="#2a68af"/>
    <rect id="Rectangle_13730" data-name="Rectangle 13730" width="4.107" height="4.107" transform="translate(970.068 -527.823)" fill="#2a68af"/>
    <rect id="Rectangle_13731" data-name="Rectangle 13731" width="4.107" height="4.107" transform="translate(965.962 -523.716)" fill="#2a68af"/>
    <rect id="Rectangle_13732" data-name="Rectangle 13732" width="4.107" height="4.107" transform="translate(970.068 -523.716)" fill="#2a68af"/>
    <rect id="Rectangle_13733" data-name="Rectangle 13733" width="4.107" height="4.107" transform="translate(974.175 -527.823)" fill="#2a68af"/>
    <rect id="Rectangle_13734" data-name="Rectangle 13734" width="4.107" height="4.107" transform="translate(978.282 -527.823)" fill="#2a68af"/>
    <rect id="Rectangle_13735" data-name="Rectangle 13735" width="4.107" height="4.107" transform="translate(974.175 -523.716)" fill="#2a68af"/>
    <rect id="Rectangle_13736" data-name="Rectangle 13736" width="4.107" height="4.107" transform="translate(978.282 -523.716)" fill="#2a68af"/>
    <rect id="Rectangle_13737" data-name="Rectangle 13737" width="4.107" height="4.107" transform="translate(982.389 -527.823)" fill="#2a68af"/>
    <rect id="Rectangle_13738" data-name="Rectangle 13738" width="4.107" height="4.107" transform="translate(986.496 -527.823)" fill="#2a68af"/>
    <rect id="Rectangle_13739" data-name="Rectangle 13739" width="4.107" height="4.107" transform="translate(982.389 -523.716)" fill="#2a68af"/>
    <rect id="Rectangle_13740" data-name="Rectangle 13740" width="4.107" height="4.107" transform="translate(986.496 -523.716)" fill="#2a68af"/>
    <rect id="Rectangle_13741" data-name="Rectangle 13741" width="4.107" height="4.107" transform="translate(990.603 -527.823)" fill="#2a68af"/>
    <rect id="Rectangle_13742" data-name="Rectangle 13742" width="4.107" height="4.107" transform="translate(994.71 -527.823)" fill="#2a68af"/>
    <rect id="Rectangle_13743" data-name="Rectangle 13743" width="4.107" height="4.107" transform="translate(990.603 -523.716)" fill="#2a68af"/>
    <rect id="Rectangle_13744" data-name="Rectangle 13744" width="4.107" height="4.107" transform="translate(994.71 -523.716)" fill="#2a68af"/>
    <rect id="Rectangle_13745" data-name="Rectangle 13745" width="4.107" height="4.107" transform="translate(998.816 -523.716)" fill="#2a68af"/>
    <rect id="Rectangle_13746" data-name="Rectangle 13746" width="4.107" height="4.107" transform="translate(1002.923 -523.716)" fill="#2a68af"/>
    <rect id="Rectangle_13747" data-name="Rectangle 13747" width="4.107" height="4.107" transform="translate(1011.137 -527.823)" fill="#2a68af"/>
    <rect id="Rectangle_13748" data-name="Rectangle 13748" width="4.107" height="4.107" transform="translate(1007.03 -523.716)" fill="#2a68af"/>
    <rect id="Rectangle_13749" data-name="Rectangle 13749" width="4.107" height="4.107" transform="translate(1011.137 -523.716)" fill="#2a68af"/>
    <rect id="Rectangle_13750" data-name="Rectangle 13750" width="4.107" height="4.107" transform="translate(1015.244 -527.823)" fill="#2a68af"/>
    <rect id="Rectangle_13751" data-name="Rectangle 13751" width="4.107" height="4.107" transform="translate(1019.351 -527.823)" fill="#2a68af"/>
    <rect id="Rectangle_13752" data-name="Rectangle 13752" width="4.107" height="4.107" transform="translate(1015.244 -523.716)" fill="#2a68af"/>
    <rect id="Rectangle_13753" data-name="Rectangle 13753" width="4.107" height="4.107" transform="translate(1019.351 -523.716)" fill="#2a68af"/>
    <rect id="Rectangle_13754" data-name="Rectangle 13754" width="4.107" height="4.107" transform="translate(1023.458 -527.823)" fill="#2a68af"/>
    <rect id="Rectangle_13755" data-name="Rectangle 13755" width="4.107" height="4.107" transform="translate(1027.564 -527.823)" fill="#2a68af"/>
    <rect id="Rectangle_13756" data-name="Rectangle 13756" width="4.107" height="4.107" transform="translate(1023.458 -523.716)" fill="#2a68af"/>
    <rect id="Rectangle_13757" data-name="Rectangle 13757" width="4.107" height="4.107" transform="translate(1027.564 -523.716)" fill="#2a68af"/>
    <rect id="Rectangle_13758" data-name="Rectangle 13758" width="4.107" height="4.107" transform="translate(957.748 -519.61)" fill="#2a68af"/>
    <rect id="Rectangle_13759" data-name="Rectangle 13759" width="4.107" height="4.107" transform="translate(961.855 -519.61)" fill="#2a68af"/>
    <rect id="Rectangle_13760" data-name="Rectangle 13760" width="4.107" height="4.107" transform="translate(957.748 -515.503)" fill="#2a68af"/>
    <rect id="Rectangle_13761" data-name="Rectangle 13761" width="4.107" height="4.107" transform="translate(961.855 -515.503)" fill="#2a68af"/>
    <rect id="Rectangle_13762" data-name="Rectangle 13762" width="4.107" height="4.107" transform="translate(965.962 -519.61)" fill="#2a68af"/>
    <rect id="Rectangle_13763" data-name="Rectangle 13763" width="4.107" height="4.107" transform="translate(970.068 -519.61)" fill="#2a68af"/>
    <rect id="Rectangle_13764" data-name="Rectangle 13764" width="4.107" height="4.107" transform="translate(965.962 -515.503)" fill="#2a68af"/>
    <rect id="Rectangle_13765" data-name="Rectangle 13765" width="4.107" height="4.107" transform="translate(970.068 -515.503)" fill="#2a68af"/>
    <rect id="Rectangle_13766" data-name="Rectangle 13766" width="4.107" height="4.107" transform="translate(974.175 -519.61)" fill="#2a68af"/>
    <rect id="Rectangle_13767" data-name="Rectangle 13767" width="4.107" height="4.107" transform="translate(978.282 -519.61)" fill="#2a68af"/>
    <rect id="Rectangle_13768" data-name="Rectangle 13768" width="4.107" height="4.107" transform="translate(974.175 -515.503)" fill="#2a68af"/>
    <rect id="Rectangle_13769" data-name="Rectangle 13769" width="4.107" height="4.107" transform="translate(978.282 -515.503)" fill="#2a68af"/>
    <rect id="Rectangle_13770" data-name="Rectangle 13770" width="4.107" height="4.107" transform="translate(982.389 -519.61)" fill="#2a68af"/>
    <rect id="Rectangle_13771" data-name="Rectangle 13771" width="4.107" height="4.107" transform="translate(986.496 -519.61)" fill="#2a68af"/>
    <rect id="Rectangle_13772" data-name="Rectangle 13772" width="4.107" height="4.107" transform="translate(982.389 -515.503)" fill="#2a68af"/>
    <rect id="Rectangle_13773" data-name="Rectangle 13773" width="4.107" height="4.107" transform="translate(986.496 -515.503)" fill="#2a68af"/>
    <rect id="Rectangle_13774" data-name="Rectangle 13774" width="4.107" height="4.107" transform="translate(990.603 -519.61)" fill="#2a68af"/>
    <rect id="Rectangle_13775" data-name="Rectangle 13775" width="4.107" height="4.107" transform="translate(994.71 -519.61)" fill="#2a68af"/>
    <rect id="Rectangle_13776" data-name="Rectangle 13776" width="4.107" height="4.107" transform="translate(990.603 -515.503)" fill="#2a68af"/>
    <rect id="Rectangle_13777" data-name="Rectangle 13777" width="4.107" height="4.107" transform="translate(994.71 -515.503)" fill="#2a68af"/>
    <rect id="Rectangle_13778" data-name="Rectangle 13778" width="4.107" height="4.107" transform="translate(1011.137 -519.61)" fill="#2a68af"/>
    <rect id="Rectangle_13779" data-name="Rectangle 13779" width="4.107" height="4.107" transform="translate(1015.244 -519.61)" fill="#2a68af"/>
    <rect id="Rectangle_13780" data-name="Rectangle 13780" width="4.107" height="4.107" transform="translate(1019.351 -519.61)" fill="#2a68af"/>
    <rect id="Rectangle_13781" data-name="Rectangle 13781" width="4.107" height="4.107" transform="translate(1015.244 -515.503)" fill="#2a68af"/>
    <rect id="Rectangle_13782" data-name="Rectangle 13782" width="4.107" height="4.107" transform="translate(1019.351 -515.503)" fill="#2a68af"/>
    <rect id="Rectangle_13783" data-name="Rectangle 13783" width="4.107" height="4.107" transform="translate(1023.458 -519.61)" fill="#2a68af"/>
    <rect id="Rectangle_13784" data-name="Rectangle 13784" width="4.107" height="4.107" transform="translate(1027.564 -519.61)" fill="#2a68af"/>
    <rect id="Rectangle_13785" data-name="Rectangle 13785" width="4.107" height="4.107" transform="translate(1023.458 -515.503)" fill="#2a68af"/>
    <rect id="Rectangle_13786" data-name="Rectangle 13786" width="4.107" height="4.107" transform="translate(957.748 -511.396)" fill="#2a68af"/>
    <rect id="Rectangle_13787" data-name="Rectangle 13787" width="4.107" height="4.107" transform="translate(961.855 -511.396)" fill="#2a68af"/>
    <rect id="Rectangle_13788" data-name="Rectangle 13788" width="4.107" height="4.107" transform="translate(961.855 -507.289)" fill="#2a68af"/>
    <rect id="Rectangle_13789" data-name="Rectangle 13789" width="4.107" height="4.107" transform="translate(965.962 -511.396)" fill="#2a68af"/>
    <rect id="Rectangle_13790" data-name="Rectangle 13790" width="4.107" height="4.107" transform="translate(970.068 -511.396)" fill="#2a68af"/>
    <rect id="Rectangle_13791" data-name="Rectangle 13791" width="4.107" height="4.107" transform="translate(965.962 -507.289)" fill="#2a68af"/>
    <rect id="Rectangle_13792" data-name="Rectangle 13792" width="4.107" height="4.107" transform="translate(970.068 -507.289)" fill="#2a68af"/>
    <rect id="Rectangle_13793" data-name="Rectangle 13793" width="4.107" height="4.107" transform="translate(974.175 -511.396)" fill="#2a68af"/>
    <rect id="Rectangle_13794" data-name="Rectangle 13794" width="4.107" height="4.107" transform="translate(978.282 -511.396)" fill="#2a68af"/>
    <rect id="Rectangle_13795" data-name="Rectangle 13795" width="4.107" height="4.107" transform="translate(974.175 -507.289)" fill="#2a68af"/>
    <rect id="Rectangle_13796" data-name="Rectangle 13796" width="4.107" height="4.107" transform="translate(978.282 -507.289)" fill="#2a68af"/>
    <rect id="Rectangle_13797" data-name="Rectangle 13797" width="4.107" height="4.107" transform="translate(982.389 -511.396)" fill="#2a68af"/>
    <rect id="Rectangle_13798" data-name="Rectangle 13798" width="4.107" height="4.107" transform="translate(986.496 -511.396)" fill="#2a68af"/>
    <rect id="Rectangle_13799" data-name="Rectangle 13799" width="4.107" height="4.107" transform="translate(982.389 -507.289)" fill="#2a68af"/>
    <rect id="Rectangle_13800" data-name="Rectangle 13800" width="4.107" height="4.107" transform="translate(986.496 -507.289)" fill="#2a68af"/>
    <rect id="Rectangle_13801" data-name="Rectangle 13801" width="4.107" height="4.107" transform="translate(990.603 -511.396)" fill="#2a68af"/>
    <rect id="Rectangle_13802" data-name="Rectangle 13802" width="4.107" height="4.107" transform="translate(994.71 -511.396)" fill="#2a68af"/>
    <rect id="Rectangle_13803" data-name="Rectangle 13803" width="4.107" height="4.107" transform="translate(990.603 -507.289)" fill="#2a68af"/>
    <rect id="Rectangle_13804" data-name="Rectangle 13804" width="4.107" height="4.107" transform="translate(937.214 -499.075)" fill="#2a68af"/>
    <rect id="Rectangle_13805" data-name="Rectangle 13805" width="4.107" height="4.107" transform="translate(941.321 -499.075)" fill="#2a68af"/>
    <rect id="Rectangle_13806" data-name="Rectangle 13806" width="4.107" height="4.107" transform="translate(945.427 -499.075)" fill="#2a68af"/>
    <rect id="Rectangle_13807" data-name="Rectangle 13807" width="4.107" height="4.107" transform="translate(953.641 -499.075)" fill="#2a68af"/>
    <rect id="Rectangle_13808" data-name="Rectangle 13808" width="4.107" height="4.107" transform="translate(957.748 -503.182)" fill="#2a68af"/>
    <rect id="Rectangle_13809" data-name="Rectangle 13809" width="4.107" height="4.107" transform="translate(965.962 -503.182)" fill="#2a68af"/>
    <rect id="Rectangle_13810" data-name="Rectangle 13810" width="4.107" height="4.107" transform="translate(970.068 -503.182)" fill="#2a68af"/>
    <rect id="Rectangle_13811" data-name="Rectangle 13811" width="4.107" height="4.107" transform="translate(974.175 -503.182)" fill="#2a68af"/>
    <rect id="Rectangle_13812" data-name="Rectangle 13812" width="4.107" height="4.107" transform="translate(978.282 -503.182)" fill="#2a68af"/>
    <rect id="Rectangle_13813" data-name="Rectangle 13813" width="4.107" height="4.107" transform="translate(982.389 -503.182)" fill="#2a68af"/>
    <rect id="Rectangle_13814" data-name="Rectangle 13814" width="4.107" height="4.107" transform="translate(986.496 -503.182)" fill="#2a68af"/>
    <rect id="Rectangle_13815" data-name="Rectangle 13815" width="4.107" height="4.107" transform="translate(994.71 -503.182)" fill="#2a68af"/>
    <rect id="Rectangle_13816" data-name="Rectangle 13816" width="4.107" height="4.107" transform="translate(998.816 -499.075)" fill="#2a68af"/>
    <rect id="Rectangle_13817" data-name="Rectangle 13817" width="4.107" height="4.107" transform="translate(1002.923 -499.075)" fill="#2a68af"/>
    <rect id="Rectangle_13818" data-name="Rectangle 13818" width="4.107" height="4.107" transform="translate(1007.03 -499.075)" fill="#2a68af"/>
    <rect id="Rectangle_13819" data-name="Rectangle 13819" width="4.107" height="4.107" transform="translate(1011.137 -499.075)" fill="#2a68af"/>
    <rect id="Rectangle_13820" data-name="Rectangle 13820" width="4.107" height="4.107" transform="translate(929 -490.861)" fill="#2a68af"/>
    <rect id="Rectangle_13821" data-name="Rectangle 13821" width="4.107" height="4.107" transform="translate(933.107 -494.968)" fill="#2a68af"/>
    <rect id="Rectangle_13822" data-name="Rectangle 13822" width="4.107" height="4.107" transform="translate(937.214 -494.968)" fill="#2a68af"/>
    <rect id="Rectangle_13823" data-name="Rectangle 13823" width="4.107" height="4.107" transform="translate(933.107 -490.861)" fill="#2a68af"/>
    <rect id="Rectangle_13824" data-name="Rectangle 13824" width="4.107" height="4.107" transform="translate(937.214 -490.861)" fill="#2a68af"/>
    <rect id="Rectangle_13825" data-name="Rectangle 13825" width="4.107" height="4.107" transform="translate(941.321 -494.968)" fill="#2a68af"/>
    <rect id="Rectangle_13826" data-name="Rectangle 13826" width="4.107" height="4.107" transform="translate(945.427 -494.968)" fill="#2a68af"/>
    <rect id="Rectangle_13827" data-name="Rectangle 13827" width="4.107" height="4.107" transform="translate(941.321 -490.861)" fill="#2a68af"/>
    <rect id="Rectangle_13828" data-name="Rectangle 13828" width="4.107" height="4.107" transform="translate(945.427 -490.861)" fill="#2a68af"/>
    <rect id="Rectangle_13829" data-name="Rectangle 13829" width="4.107" height="4.107" transform="translate(949.534 -494.968)" fill="#2a68af"/>
    <rect id="Rectangle_13830" data-name="Rectangle 13830" width="4.107" height="4.107" transform="translate(949.534 -490.861)" fill="#2a68af"/>
    <rect id="Rectangle_13831" data-name="Rectangle 13831" width="4.107" height="4.107" transform="translate(953.641 -490.861)" fill="#2a68af"/>
    <rect id="Rectangle_13832" data-name="Rectangle 13832" width="4.107" height="4.107" transform="translate(998.816 -494.968)" fill="#2a68af"/>
    <rect id="Rectangle_13833" data-name="Rectangle 13833" width="4.107" height="4.107" transform="translate(1002.923 -494.968)" fill="#2a68af"/>
    <rect id="Rectangle_13834" data-name="Rectangle 13834" width="4.107" height="4.107" transform="translate(998.816 -490.861)" fill="#2a68af"/>
    <rect id="Rectangle_13835" data-name="Rectangle 13835" width="4.107" height="4.107" transform="translate(1002.923 -490.861)" fill="#2a68af"/>
    <rect id="Rectangle_13836" data-name="Rectangle 13836" width="4.107" height="4.107" transform="translate(1007.03 -494.968)" fill="#2a68af"/>
    <rect id="Rectangle_13837" data-name="Rectangle 13837" width="4.107" height="4.107" transform="translate(1011.137 -494.968)" fill="#2a68af"/>
    <rect id="Rectangle_13838" data-name="Rectangle 13838" width="4.107" height="4.107" transform="translate(1007.03 -490.861)" fill="#2a68af"/>
    <rect id="Rectangle_13839" data-name="Rectangle 13839" width="4.107" height="4.107" transform="translate(1011.137 -490.861)" fill="#2a68af"/>
    <rect id="Rectangle_13840" data-name="Rectangle 13840" width="4.107" height="4.107" transform="translate(1015.244 -494.968)" fill="#2a68af"/>
    <rect id="Rectangle_13841" data-name="Rectangle 13841" width="4.107" height="4.107" transform="translate(1015.244 -490.861)" fill="#2a68af"/>
    <rect id="Rectangle_13842" data-name="Rectangle 13842" width="4.107" height="4.107" transform="translate(929 -486.754)" fill="#2a68af"/>
    <rect id="Rectangle_13843" data-name="Rectangle 13843" width="4.107" height="4.107" transform="translate(929 -482.647)" fill="#2a68af"/>
    <rect id="Rectangle_13844" data-name="Rectangle 13844" width="4.107" height="4.107" transform="translate(933.107 -486.754)" fill="#2a68af"/>
    <rect id="Rectangle_13845" data-name="Rectangle 13845" width="4.107" height="4.107" transform="translate(937.214 -486.754)" fill="#2a68af"/>
    <rect id="Rectangle_13846" data-name="Rectangle 13846" width="4.107" height="4.107" transform="translate(933.107 -482.647)" fill="#2a68af"/>
    <rect id="Rectangle_13847" data-name="Rectangle 13847" width="4.107" height="4.107" transform="translate(937.214 -482.647)" fill="#2a68af"/>
    <rect id="Rectangle_13848" data-name="Rectangle 13848" width="4.107" height="4.107" transform="translate(941.321 -486.754)" fill="#2a68af"/>
    <rect id="Rectangle_13849" data-name="Rectangle 13849" width="4.107" height="4.107" transform="translate(945.427 -486.754)" fill="#2a68af"/>
    <rect id="Rectangle_13850" data-name="Rectangle 13850" width="4.107" height="4.107" transform="translate(941.321 -482.647)" fill="#2a68af"/>
    <rect id="Rectangle_13851" data-name="Rectangle 13851" width="4.107" height="4.107" transform="translate(945.427 -482.647)" fill="#2a68af"/>
    <rect id="Rectangle_13852" data-name="Rectangle 13852" width="4.107" height="4.107" transform="translate(949.534 -486.754)" fill="#2a68af"/>
    <rect id="Rectangle_13853" data-name="Rectangle 13853" width="4.107" height="4.107" transform="translate(953.641 -486.754)" fill="#2a68af"/>
    <rect id="Rectangle_13854" data-name="Rectangle 13854" width="4.107" height="4.107" transform="translate(949.534 -482.647)" fill="#2a68af"/>
    <rect id="Rectangle_13855" data-name="Rectangle 13855" width="4.107" height="4.107" transform="translate(953.641 -482.647)" fill="#2a68af"/>
    <rect id="Rectangle_13856" data-name="Rectangle 13856" width="4.107" height="4.107" transform="translate(998.816 -486.754)" fill="#2a68af"/>
    <rect id="Rectangle_13857" data-name="Rectangle 13857" width="4.107" height="4.107" transform="translate(1002.923 -486.754)" fill="#2a68af"/>
    <rect id="Rectangle_13858" data-name="Rectangle 13858" width="4.107" height="4.107" transform="translate(1002.923 -482.647)" fill="#2a68af"/>
    <rect id="Rectangle_13859" data-name="Rectangle 13859" width="4.107" height="4.107" transform="translate(1007.03 -486.754)" fill="#2a68af"/>
    <rect id="Rectangle_13860" data-name="Rectangle 13860" width="4.107" height="4.107" transform="translate(1011.137 -486.754)" fill="#2a68af"/>
    <rect id="Rectangle_13861" data-name="Rectangle 13861" width="4.107" height="4.107" transform="translate(1007.03 -482.647)" fill="#2a68af"/>
    <rect id="Rectangle_13862" data-name="Rectangle 13862" width="4.107" height="4.107" transform="translate(1011.137 -482.647)" fill="#2a68af"/>
    <rect id="Rectangle_13863" data-name="Rectangle 13863" width="4.107" height="4.107" transform="translate(1015.244 -486.754)" fill="#2a68af"/>
    <rect id="Rectangle_13864" data-name="Rectangle 13864" width="4.107" height="4.107" transform="translate(933.107 -478.54)" fill="#2a68af"/>
    <rect id="Rectangle_13865" data-name="Rectangle 13865" width="4.107" height="4.107" transform="translate(937.214 -478.54)" fill="#2a68af"/>
    <rect id="Rectangle_13866" data-name="Rectangle 13866" width="4.107" height="4.107" transform="translate(937.214 -474.433)" fill="#2a68af"/>
    <rect id="Rectangle_13867" data-name="Rectangle 13867" width="4.107" height="4.107" transform="translate(941.321 -478.54)" fill="#2a68af"/>
    <rect id="Rectangle_13868" data-name="Rectangle 13868" width="4.107" height="4.107" transform="translate(945.427 -478.54)" fill="#2a68af"/>
    <rect id="Rectangle_13869" data-name="Rectangle 13869" width="4.107" height="4.107" transform="translate(941.321 -474.433)" fill="#2a68af"/>
    <rect id="Rectangle_13870" data-name="Rectangle 13870" width="4.107" height="4.107" transform="translate(945.427 -474.433)" fill="#2a68af"/>
    <rect id="Rectangle_13871" data-name="Rectangle 13871" width="4.107" height="4.107" transform="translate(949.534 -478.54)" fill="#2a68af"/>
  </g>
</svg>
