<svg xmlns="http://www.w3.org/2000/svg" width="72.027" height="83.073" viewBox="0 0 72.027 83.073">
  <g id="dna-1" transform="translate(1761.917 -1174.644) rotate(137)">
    <rect id="Rectangle_21052" data-name="Rectangle 21052" width="3.07" height="3.07" transform="translate(2105.698 250.806) rotate(-60)" fill="#00bcd1"/>
    <rect id="Rectangle_21053" data-name="Rectangle 21053" width="3.07" height="3.07" transform="translate(2108.356 252.341) rotate(-60)" fill="#00bcd1"/>
    <rect id="Rectangle_21054" data-name="Rectangle 21054" width="3.07" height="3.07" transform="translate(2111.015 253.877) rotate(-60)" fill="#00bcd1"/>
    <rect id="Rectangle_21055" data-name="Rectangle 21055" width="3.07" height="3.07" transform="translate(2101.504 251.93) rotate(-60)" fill="#00bcd1"/>
    <rect id="Rectangle_21056" data-name="Rectangle 21056" width="3.07" height="3.07" transform="translate(2099.969 254.589) rotate(-60)" fill="#00bcd1"/>
    <rect id="Rectangle_21057" data-name="Rectangle 21057" width="3.07" height="3.07" transform="translate(2104.163 253.465) rotate(-60)" fill="#00bcd1"/>
    <rect id="Rectangle_21058" data-name="Rectangle 21058" width="3.07" height="3.07" transform="translate(2106.821 255) rotate(-60)" fill="#00bcd1"/>
    <rect id="Rectangle_21059" data-name="Rectangle 21059" width="3.07" height="3.07" transform="translate(2102.627 256.124) rotate(-60)" fill="#00bcd1"/>
    <rect id="Rectangle_21060" data-name="Rectangle 21060" width="3.07" height="3.07" transform="translate(2105.286 257.659) rotate(-60)" fill="#00bcd1"/>
    <rect id="Rectangle_21061" data-name="Rectangle 21061" width="3.07" height="3.07" transform="translate(2109.48 256.535) rotate(-60)" fill="#00bcd1"/>
    <rect id="Rectangle_21062" data-name="Rectangle 21062" width="3.07" height="3.07" transform="translate(2112.139 258.07) rotate(-60)" fill="#00bcd1"/>
    <rect id="Rectangle_21063" data-name="Rectangle 21063" width="3.07" height="3.07" transform="translate(2107.945 259.194) rotate(-60)" fill="#00bcd1"/>
    <rect id="Rectangle_21064" data-name="Rectangle 21064" width="3.07" height="3.07" transform="translate(2110.604 260.729) rotate(-60)" fill="#00bcd1"/>
    <rect id="Rectangle_21065" data-name="Rectangle 21065" width="3.07" height="3.07" transform="translate(2080.945 250.696) rotate(-60)" fill="#00bcd1"/>
    <rect id="Rectangle_21066" data-name="Rectangle 21066" width="3.07" height="3.07" transform="translate(2083.604 252.232) rotate(-60)" fill="#00bcd1"/>
    <rect id="Rectangle_21067" data-name="Rectangle 21067" width="3.07" height="3.07" transform="translate(2098.434 257.248) rotate(-60)" fill="#00bcd1"/>
    <rect id="Rectangle_21068" data-name="Rectangle 21068" width="3.07" height="3.07" transform="translate(2101.093 258.783) rotate(-60)" fill="#00bcd1"/>
    <rect id="Rectangle_21069" data-name="Rectangle 21069" width="3.07" height="3.07" transform="translate(2103.751 260.318) rotate(-60)" fill="#00bcd1"/>
    <rect id="Rectangle_21070" data-name="Rectangle 21070" width="3.07" height="3.07" transform="translate(2099.557 261.442) rotate(-60)" fill="#00bcd1"/>
    <rect id="Rectangle_21071" data-name="Rectangle 21071" width="3.07" height="3.07" transform="translate(2102.216 262.977) rotate(-60)" fill="#00bcd1"/>
    <rect id="Rectangle_21072" data-name="Rectangle 21072" width="3.07" height="3.07" transform="translate(2106.41 261.853) rotate(-60)" fill="#00bcd1"/>
    <rect id="Rectangle_21073" data-name="Rectangle 21073" width="3.07" height="3.07" transform="translate(2109.068 263.388) rotate(-60)" fill="#00bcd1"/>
    <rect id="Rectangle_21074" data-name="Rectangle 21074" width="3.07" height="3.07" transform="translate(2104.875 264.512) rotate(-60)" fill="#00bcd1"/>
    <rect id="Rectangle_21075" data-name="Rectangle 21075" width="3.07" height="3.07" transform="translate(2076.752 251.82) rotate(-60)" fill="#00bcd1"/>
    <rect id="Rectangle_21076" data-name="Rectangle 21076" width="3.07" height="3.07" transform="translate(2079.41 253.355) rotate(-60)" fill="#00bcd1"/>
    <rect id="Rectangle_21077" data-name="Rectangle 21077" width="3.07" height="3.07" transform="translate(2075.217 254.478) rotate(-60)" fill="#00bcd1"/>
    <rect id="Rectangle_21078" data-name="Rectangle 21078" width="3.07" height="3.07" transform="translate(2077.875 256.013) rotate(-60)" fill="#00bcd1"/>
    <rect id="Rectangle_21079" data-name="Rectangle 21079" width="3.07" height="3.07" transform="translate(2082.069 254.89) rotate(-60)" fill="#00bcd1"/>
    <rect id="Rectangle_21080" data-name="Rectangle 21080" width="3.07" height="3.07" transform="translate(2084.728 256.425) rotate(-60)" fill="#00bcd1"/>
    <rect id="Rectangle_21081" data-name="Rectangle 21081" width="3.07" height="3.07" transform="translate(2080.535 257.549) rotate(-60)" fill="#00bcd1"/>
    <rect id="Rectangle_21082" data-name="Rectangle 21082" width="3.07" height="3.07" transform="translate(2083.193 259.084) rotate(-60)" fill="#00bcd1"/>
    <rect id="Rectangle_21083" data-name="Rectangle 21083" width="3.07" height="3.07" transform="translate(2100.681 265.635) rotate(-60)" fill="#00bcd1"/>
    <rect id="Rectangle_21084" data-name="Rectangle 21084" width="3.07" height="3.07" transform="translate(2099.146 268.294) rotate(-60)" fill="#00bcd1"/>
    <rect id="Rectangle_21085" data-name="Rectangle 21085" width="3.07" height="3.07" transform="translate(2076.34 258.673) rotate(-60)" fill="#00bcd1"/>
    <rect id="Rectangle_21086" data-name="Rectangle 21086" width="3.07" height="3.07" transform="translate(2078.999 260.208) rotate(-60)" fill="#00bcd1"/>
    <rect id="Rectangle_21087" data-name="Rectangle 21087" width="3.07" height="3.07" transform="translate(2081.658 261.743) rotate(-60)" fill="#00bcd1"/>
    <rect id="Rectangle_21088" data-name="Rectangle 21088" width="3.07" height="3.07" transform="translate(2082.782 265.937) rotate(-60)" fill="#00bcd1"/>
    <rect id="Rectangle_21089" data-name="Rectangle 21089" width="3.07" height="3.07" transform="translate(2088.099 269.007) rotate(-60)" fill="#00bcd1"/>
    <rect id="Rectangle_21090" data-name="Rectangle 21090" width="3.07" height="3.07" transform="translate(2090.759 270.542) rotate(-60)" fill="#00bcd1"/>
    <rect id="Rectangle_21091" data-name="Rectangle 21091" width="3.07" height="3.07" transform="translate(2097.611 270.953) rotate(-60)" fill="#00bcd1"/>
    <rect id="Rectangle_21092" data-name="Rectangle 21092" width="3.07" height="3.07" transform="translate(2093.417 272.077) rotate(-60)" fill="#00bcd1"/>
    <rect id="Rectangle_21093" data-name="Rectangle 21093" width="3.07" height="3.07" transform="translate(2096.076 273.612) rotate(-60)" fill="#00bcd1"/>
    <rect id="Rectangle_21094" data-name="Rectangle 21094" width="3.07" height="3.07" transform="translate(2098.735 275.147) rotate(-60)" fill="#00bcd1"/>
    <rect id="Rectangle_21095" data-name="Rectangle 21095" width="3.07" height="3.07" transform="translate(2101.394 276.682) rotate(-60)" fill="#00bcd1"/>
    <rect id="Rectangle_21096" data-name="Rectangle 21096" width="3.07" height="3.07" transform="translate(2083.906 270.13) rotate(-60)" fill="#00bcd1"/>
    <rect id="Rectangle_21097" data-name="Rectangle 21097" width="3.07" height="3.07" transform="translate(2079.712 271.254) rotate(-60)" fill="#00bcd1"/>
    <rect id="Rectangle_21098" data-name="Rectangle 21098" width="3.07" height="3.07" transform="translate(2082.37 272.789) rotate(-60)" fill="#00bcd1"/>
    <rect id="Rectangle_21099" data-name="Rectangle 21099" width="3.07" height="3.07" transform="translate(2086.564 271.665) rotate(-60)" fill="#00bcd1"/>
    <rect id="Rectangle_21100" data-name="Rectangle 21100" width="3.07" height="3.07" transform="translate(2089.223 273.2) rotate(-60)" fill="#00bcd1"/>
    <rect id="Rectangle_21101" data-name="Rectangle 21101" width="3.07" height="3.07" transform="translate(2085.029 274.324) rotate(-60)" fill="#00bcd1"/>
    <rect id="Rectangle_21102" data-name="Rectangle 21102" width="3.07" height="3.07" transform="translate(2087.688 275.859) rotate(-60)" fill="#00bcd1"/>
    <rect id="Rectangle_21103" data-name="Rectangle 21103" width="3.07" height="3.07" transform="translate(2091.882 274.735) rotate(-60)" fill="#00bcd1"/>
    <rect id="Rectangle_21104" data-name="Rectangle 21104" width="3.07" height="3.07" transform="translate(2094.541 276.27) rotate(-60)" fill="#00bcd1"/>
    <rect id="Rectangle_21105" data-name="Rectangle 21105" width="3.07" height="3.07" transform="translate(2090.347 277.394) rotate(-60)" fill="#00bcd1"/>
    <rect id="Rectangle_21106" data-name="Rectangle 21106" width="3.07" height="3.07" transform="translate(2093.005 278.929) rotate(-60)" fill="#00bcd1"/>
    <rect id="Rectangle_21107" data-name="Rectangle 21107" width="3.07" height="3.07" transform="translate(2097.2 277.805) rotate(-60)" fill="#00bcd1"/>
    <rect id="Rectangle_21108" data-name="Rectangle 21108" width="3.07" height="3.07" transform="translate(2099.858 279.34) rotate(-60)" fill="#00bcd1"/>
    <rect id="Rectangle_21109" data-name="Rectangle 21109" width="3.07" height="3.07" transform="translate(2095.665 280.465) rotate(-60)" fill="#00bcd1"/>
    <rect id="Rectangle_21110" data-name="Rectangle 21110" width="3.07" height="3.07" transform="translate(2098.323 282) rotate(-60)" fill="#00bcd1"/>
    <rect id="Rectangle_21111" data-name="Rectangle 21111" width="3.07" height="3.07" transform="translate(2102.518 280.876) rotate(-60)" fill="#00bcd1"/>
    <rect id="Rectangle_21112" data-name="Rectangle 21112" width="3.07" height="3.07" transform="translate(2100.982 283.535) rotate(-60)" fill="#00bcd1"/>
    <rect id="Rectangle_21113" data-name="Rectangle 21113" width="3.07" height="3.07" transform="translate(2103.641 285.07) rotate(-60)" fill="#00bcd1"/>
    <rect id="Rectangle_21114" data-name="Rectangle 21114" width="3.07" height="3.07" transform="translate(2116.935 292.745) rotate(-60)" fill="#00bcd1"/>
    <rect id="Rectangle_21115" data-name="Rectangle 21115" width="3.07" height="3.07" transform="translate(2119.594 294.28) rotate(-60)" fill="#00bcd1"/>
    <rect id="Rectangle_21116" data-name="Rectangle 21116" width="3.07" height="3.07" transform="translate(2122.253 295.815) rotate(-60)" fill="#00bcd1"/>
    <rect id="Rectangle_21117" data-name="Rectangle 21117" width="3.07" height="3.07" transform="translate(2078.177 273.913) rotate(-60)" fill="#00bcd1"/>
    <rect id="Rectangle_21118" data-name="Rectangle 21118" width="3.07" height="3.07" transform="translate(2080.836 275.448) rotate(-60)" fill="#00bcd1"/>
    <rect id="Rectangle_21119" data-name="Rectangle 21119" width="3.07" height="3.07" transform="translate(2076.642 276.572) rotate(-60)" fill="#00bcd1"/>
    <rect id="Rectangle_21120" data-name="Rectangle 21120" width="3.07" height="3.07" transform="translate(2079.301 278.107) rotate(-60)" fill="#00bcd1"/>
    <rect id="Rectangle_21121" data-name="Rectangle 21121" width="3.07" height="3.07" transform="translate(2083.494 276.983) rotate(-60)" fill="#00bcd1"/>
    <rect id="Rectangle_21122" data-name="Rectangle 21122" width="3.07" height="3.07" transform="translate(2086.153 278.518) rotate(-60)" fill="#00bcd1"/>
    <rect id="Rectangle_21123" data-name="Rectangle 21123" width="3.07" height="3.07" transform="translate(2081.959 279.641) rotate(-60)" fill="#00bcd1"/>
    <rect id="Rectangle_21124" data-name="Rectangle 21124" width="3.07" height="3.07" transform="translate(2084.618 281.177) rotate(-60)" fill="#00bcd1"/>
    <rect id="Rectangle_21125" data-name="Rectangle 21125" width="3.07" height="3.07" transform="translate(2088.812 280.053) rotate(-60)" fill="#00bcd1"/>
    <rect id="Rectangle_21126" data-name="Rectangle 21126" width="3.07" height="3.07" transform="translate(2091.47 281.588) rotate(-60)" fill="#00bcd1"/>
    <rect id="Rectangle_21127" data-name="Rectangle 21127" width="3.07" height="3.07" transform="translate(2087.277 282.712) rotate(-60)" fill="#00bcd1"/>
    <rect id="Rectangle_21128" data-name="Rectangle 21128" width="3.07" height="3.07" transform="translate(2089.936 284.247) rotate(-60)" fill="#00bcd1"/>
    <rect id="Rectangle_21129" data-name="Rectangle 21129" width="3.07" height="3.07" transform="translate(2094.13 283.123) rotate(-60)" fill="#00bcd1"/>
    <rect id="Rectangle_21130" data-name="Rectangle 21130" width="3.07" height="3.07" transform="translate(2096.788 284.658) rotate(-60)" fill="#00bcd1"/>
    <rect id="Rectangle_21131" data-name="Rectangle 21131" width="3.07" height="3.07" transform="translate(2092.595 285.782) rotate(-60)" fill="#00bcd1"/>
    <rect id="Rectangle_21132" data-name="Rectangle 21132" width="3.07" height="3.07" transform="translate(2095.253 287.317) rotate(-60)" fill="#00bcd1"/>
    <rect id="Rectangle_21133" data-name="Rectangle 21133" width="3.07" height="3.07" transform="translate(2099.447 286.193) rotate(-60)" fill="#00bcd1"/>
    <rect id="Rectangle_21134" data-name="Rectangle 21134" width="3.07" height="3.07" transform="translate(2102.106 287.728) rotate(-60)" fill="#00bcd1"/>
    <rect id="Rectangle_21135" data-name="Rectangle 21135" width="3.07" height="3.07" transform="translate(2097.912 288.852) rotate(-60)" fill="#00bcd1"/>
    <rect id="Rectangle_21136" data-name="Rectangle 21136" width="3.07" height="3.07" transform="translate(2100.571 290.387) rotate(-60)" fill="#00bcd1"/>
    <rect id="Rectangle_21137" data-name="Rectangle 21137" width="3.07" height="3.07" transform="translate(2103.229 291.922) rotate(-60)" fill="#00bcd1"/>
    <rect id="Rectangle_21138" data-name="Rectangle 21138" width="3.07" height="3.07" transform="translate(2105.889 293.457) rotate(-60)" fill="#00bcd1"/>
    <rect id="Rectangle_21139" data-name="Rectangle 21139" width="3.07" height="3.07" transform="translate(2112.741 293.868) rotate(-60)" fill="#00bcd1"/>
    <rect id="Rectangle_21140" data-name="Rectangle 21140" width="3.07" height="3.07" transform="translate(2108.548 294.992) rotate(-60)" fill="#00bcd1"/>
    <rect id="Rectangle_21141" data-name="Rectangle 21141" width="3.07" height="3.07" transform="translate(2111.206 296.527) rotate(-60)" fill="#00bcd1"/>
    <rect id="Rectangle_21142" data-name="Rectangle 21142" width="3.07" height="3.07" transform="translate(2115.4 295.404) rotate(-60)" fill="#00bcd1"/>
    <rect id="Rectangle_21143" data-name="Rectangle 21143" width="3.07" height="3.07" transform="translate(2118.059 296.939) rotate(-60)" fill="#00bcd1"/>
    <rect id="Rectangle_21144" data-name="Rectangle 21144" width="3.07" height="3.07" transform="translate(2113.865 298.062) rotate(-60)" fill="#00bcd1"/>
    <rect id="Rectangle_21145" data-name="Rectangle 21145" width="3.07" height="3.07" transform="translate(2116.524 299.597) rotate(-60)" fill="#00bcd1"/>
    <rect id="Rectangle_21146" data-name="Rectangle 21146" width="3.07" height="3.07" transform="translate(2120.718 298.474) rotate(-60)" fill="#00bcd1"/>
    <rect id="Rectangle_21147" data-name="Rectangle 21147" width="3.07" height="3.07" transform="translate(2123.376 300.009) rotate(-60)" fill="#00bcd1"/>
    <rect id="Rectangle_21148" data-name="Rectangle 21148" width="3.07" height="3.07" transform="translate(2119.183 301.132) rotate(-60)" fill="#00bcd1"/>
    <rect id="Rectangle_21149" data-name="Rectangle 21149" width="3.07" height="3.07" transform="translate(2121.841 302.667) rotate(-60)" fill="#00bcd1"/>
    <rect id="Rectangle_21150" data-name="Rectangle 21150" width="3.07" height="3.07" transform="translate(2075.107 279.231) rotate(-60)" fill="#00bcd1"/>
    <rect id="Rectangle_21151" data-name="Rectangle 21151" width="3.07" height="3.07" transform="translate(2077.765 280.766) rotate(-60)" fill="#00bcd1"/>
    <rect id="Rectangle_21152" data-name="Rectangle 21152" width="3.07" height="3.07" transform="translate(2073.572 281.889) rotate(-60)" fill="#00bcd1"/>
    <rect id="Rectangle_21153" data-name="Rectangle 21153" width="3.07" height="3.07" transform="translate(2076.23 283.424) rotate(-60)" fill="#00bcd1"/>
    <rect id="Rectangle_21154" data-name="Rectangle 21154" width="3.07" height="3.07" transform="translate(2080.424 282.301) rotate(-60)" fill="#00bcd1"/>
    <rect id="Rectangle_21155" data-name="Rectangle 21155" width="3.07" height="3.07" transform="translate(2083.083 283.836) rotate(-60)" fill="#00bcd1"/>
    <rect id="Rectangle_21156" data-name="Rectangle 21156" width="3.07" height="3.07" transform="translate(2078.889 284.959) rotate(-60)" fill="#00bcd1"/>
    <rect id="Rectangle_21157" data-name="Rectangle 21157" width="3.07" height="3.07" transform="translate(2081.548 286.494) rotate(-60)" fill="#00bcd1"/>
    <rect id="Rectangle_21158" data-name="Rectangle 21158" width="3.07" height="3.07" transform="translate(2085.742 285.371) rotate(-60)" fill="#00bcd1"/>
    <rect id="Rectangle_21159" data-name="Rectangle 21159" width="3.07" height="3.07" transform="translate(2088.4 286.906) rotate(-60)" fill="#00bcd1"/>
    <rect id="Rectangle_21160" data-name="Rectangle 21160" width="3.07" height="3.07" transform="translate(2084.207 288.029) rotate(-60)" fill="#00bcd1"/>
    <rect id="Rectangle_21161" data-name="Rectangle 21161" width="3.07" height="3.07" transform="translate(2086.865 289.564) rotate(-60)" fill="#00bcd1"/>
    <rect id="Rectangle_21162" data-name="Rectangle 21162" width="3.07" height="3.07" transform="translate(2091.06 288.441) rotate(-60)" fill="#00bcd1"/>
    <rect id="Rectangle_21163" data-name="Rectangle 21163" width="3.07" height="3.07" transform="translate(2093.718 289.976) rotate(-60)" fill="#00bcd1"/>
    <rect id="Rectangle_21164" data-name="Rectangle 21164" width="3.07" height="3.07" transform="translate(2089.525 291.1) rotate(-60)" fill="#00bcd1"/>
    <rect id="Rectangle_21165" data-name="Rectangle 21165" width="3.07" height="3.07" transform="translate(2092.183 292.634) rotate(-60)" fill="#00bcd1"/>
    <rect id="Rectangle_21166" data-name="Rectangle 21166" width="3.07" height="3.07" transform="translate(2096.377 291.511) rotate(-60)" fill="#00bcd1"/>
    <rect id="Rectangle_21167" data-name="Rectangle 21167" width="3.07" height="3.07" transform="translate(2099.036 293.046) rotate(-60)" fill="#00bcd1"/>
    <rect id="Rectangle_21168" data-name="Rectangle 21168" width="3.07" height="3.07" transform="translate(2094.842 294.17) rotate(-60)" fill="#00bcd1"/>
    <rect id="Rectangle_21169" data-name="Rectangle 21169" width="3.07" height="3.07" transform="translate(2097.5 295.705) rotate(-60)" fill="#00bcd1"/>
    <rect id="Rectangle_21170" data-name="Rectangle 21170" width="3.07" height="3.07" transform="translate(2109.671 299.186) rotate(-60)" fill="#00bcd1"/>
    <rect id="Rectangle_21171" data-name="Rectangle 21171" width="3.07" height="3.07" transform="translate(2112.33 300.721) rotate(-60)" fill="#00bcd1"/>
    <rect id="Rectangle_21172" data-name="Rectangle 21172" width="3.07" height="3.07" transform="translate(2114.988 302.256) rotate(-60)" fill="#00bcd1"/>
    <rect id="Rectangle_21173" data-name="Rectangle 21173" width="3.07" height="3.07" transform="translate(2110.795 303.38) rotate(-60)" fill="#00bcd1"/>
    <rect id="Rectangle_21174" data-name="Rectangle 21174" width="3.07" height="3.07" transform="translate(2113.453 304.915) rotate(-60)" fill="#00bcd1"/>
    <rect id="Rectangle_21175" data-name="Rectangle 21175" width="3.07" height="3.07" transform="translate(2117.648 303.792) rotate(-60)" fill="#00bcd1"/>
    <rect id="Rectangle_21176" data-name="Rectangle 21176" width="3.07" height="3.07" transform="translate(2120.306 305.327) rotate(-60)" fill="#00bcd1"/>
    <rect id="Rectangle_21177" data-name="Rectangle 21177" width="3.07" height="3.07" transform="translate(2116.113 306.45) rotate(-60)" fill="#00bcd1"/>
    <rect id="Rectangle_21178" data-name="Rectangle 21178" width="3.07" height="3.07" transform="translate(2072.037 284.548) rotate(-60)" fill="#00bcd1"/>
    <rect id="Rectangle_21179" data-name="Rectangle 21179" width="3.07" height="3.07" transform="translate(2074.695 286.083) rotate(-60)" fill="#00bcd1"/>
    <rect id="Rectangle_21180" data-name="Rectangle 21180" width="3.07" height="3.07" transform="translate(2073.16 288.742) rotate(-60)" fill="#00bcd1"/>
    <rect id="Rectangle_21181" data-name="Rectangle 21181" width="3.07" height="3.07" transform="translate(2077.354 287.618) rotate(-60)" fill="#00bcd1"/>
    <rect id="Rectangle_21182" data-name="Rectangle 21182" width="3.07" height="3.07" transform="translate(2080.013 289.154) rotate(-60)" fill="#00bcd1"/>
    <rect id="Rectangle_21183" data-name="Rectangle 21183" width="3.07" height="3.07" transform="translate(2075.819 290.277) rotate(-60)" fill="#00bcd1"/>
    <rect id="Rectangle_21184" data-name="Rectangle 21184" width="3.07" height="3.07" transform="translate(2078.478 291.812) rotate(-60)" fill="#00bcd1"/>
    <rect id="Rectangle_21185" data-name="Rectangle 21185" width="3.07" height="3.07" transform="translate(2082.672 290.689) rotate(-60)" fill="#00bcd1"/>
    <rect id="Rectangle_21186" data-name="Rectangle 21186" width="3.07" height="3.07" transform="translate(2085.33 292.223) rotate(-60)" fill="#00bcd1"/>
    <rect id="Rectangle_21187" data-name="Rectangle 21187" width="3.07" height="3.07" transform="translate(2081.136 293.347) rotate(-60)" fill="#00bcd1"/>
    <rect id="Rectangle_21188" data-name="Rectangle 21188" width="3.07" height="3.07" transform="translate(2083.795 294.882) rotate(-60)" fill="#00bcd1"/>
    <rect id="Rectangle_21189" data-name="Rectangle 21189" width="3.07" height="3.07" transform="translate(2087.989 293.759) rotate(-60)" fill="#00bcd1"/>
    <rect id="Rectangle_21190" data-name="Rectangle 21190" width="3.07" height="3.07" transform="translate(2090.648 295.294) rotate(-60)" fill="#00bcd1"/>
    <rect id="Rectangle_21191" data-name="Rectangle 21191" width="3.07" height="3.07" transform="translate(2086.454 296.417) rotate(-60)" fill="#00bcd1"/>
    <rect id="Rectangle_21192" data-name="Rectangle 21192" width="3.07" height="3.07" transform="translate(2089.113 297.952) rotate(-60)" fill="#00bcd1"/>
    <rect id="Rectangle_21193" data-name="Rectangle 21193" width="3.07" height="3.07" transform="translate(2093.307 296.829) rotate(-60)" fill="#00bcd1"/>
    <rect id="Rectangle_21194" data-name="Rectangle 21194" width="3.07" height="3.07" transform="translate(2095.966 298.364) rotate(-60)" fill="#00bcd1"/>
    <rect id="Rectangle_21195" data-name="Rectangle 21195" width="3.07" height="3.07" transform="translate(2091.772 299.487) rotate(-60)" fill="#00bcd1"/>
    <rect id="Rectangle_21196" data-name="Rectangle 21196" width="3.07" height="3.07" transform="translate(2054.137 284.849) rotate(-60)" fill="#00bcd1"/>
    <rect id="Rectangle_21197" data-name="Rectangle 21197" width="3.07" height="3.07" transform="translate(2056.796 286.384) rotate(-60)" fill="#00bcd1"/>
    <rect id="Rectangle_21198" data-name="Rectangle 21198" width="3.07" height="3.07" transform="translate(2059.455 287.919) rotate(-60)" fill="#00bcd1"/>
    <rect id="Rectangle_21199" data-name="Rectangle 21199" width="3.07" height="3.07" transform="translate(2064.772 290.989) rotate(-60)" fill="#00bcd1"/>
    <rect id="Rectangle_21200" data-name="Rectangle 21200" width="3.07" height="3.07" transform="translate(2068.967 289.866) rotate(-60)" fill="#00bcd1"/>
    <rect id="Rectangle_21201" data-name="Rectangle 21201" width="3.07" height="3.07" transform="translate(2074.284 292.936) rotate(-60)" fill="#00bcd1"/>
    <rect id="Rectangle_21202" data-name="Rectangle 21202" width="3.07" height="3.07" transform="translate(2076.943 294.471) rotate(-60)" fill="#00bcd1"/>
    <rect id="Rectangle_21203" data-name="Rectangle 21203" width="3.07" height="3.07" transform="translate(2079.602 296.006) rotate(-60)" fill="#00bcd1"/>
    <rect id="Rectangle_21204" data-name="Rectangle 21204" width="3.07" height="3.07" transform="translate(2082.26 297.541) rotate(-60)" fill="#00bcd1"/>
    <rect id="Rectangle_21205" data-name="Rectangle 21205" width="3.07" height="3.07" transform="translate(2084.919 299.076) rotate(-60)" fill="#00bcd1"/>
    <rect id="Rectangle_21206" data-name="Rectangle 21206" width="3.07" height="3.07" transform="translate(2087.578 300.611) rotate(-60)" fill="#00bcd1"/>
    <rect id="Rectangle_21207" data-name="Rectangle 21207" width="3.07" height="3.07" transform="translate(2092.896 303.681) rotate(-60)" fill="#00bcd1"/>
    <rect id="Rectangle_21208" data-name="Rectangle 21208" width="3.07" height="3.07" transform="translate(2094.019 307.875) rotate(-60)" fill="#00bcd1"/>
    <rect id="Rectangle_21209" data-name="Rectangle 21209" width="3.07" height="3.07" transform="translate(2096.678 309.41) rotate(-60)" fill="#00bcd1"/>
    <rect id="Rectangle_21210" data-name="Rectangle 21210" width="3.07" height="3.07" transform="translate(2099.337 310.945) rotate(-60)" fill="#00bcd1"/>
    <rect id="Rectangle_21211" data-name="Rectangle 21211" width="3.07" height="3.07" transform="translate(2101.996 312.48) rotate(-60)" fill="#00bcd1"/>
    <rect id="Rectangle_21212" data-name="Rectangle 21212" width="3.07" height="3.07" transform="translate(2045.75 287.096) rotate(-60)" fill="#00bcd1"/>
    <rect id="Rectangle_21213" data-name="Rectangle 21213" width="3.07" height="3.07" transform="translate(2049.943 285.973) rotate(-60)" fill="#00bcd1"/>
    <rect id="Rectangle_21214" data-name="Rectangle 21214" width="3.07" height="3.07" transform="translate(2052.602 287.508) rotate(-60)" fill="#00bcd1"/>
    <rect id="Rectangle_21215" data-name="Rectangle 21215" width="3.07" height="3.07" transform="translate(2048.408 288.631) rotate(-60)" fill="#00bcd1"/>
    <rect id="Rectangle_21216" data-name="Rectangle 21216" width="3.07" height="3.07" transform="translate(2051.067 290.167) rotate(-60)" fill="#00bcd1"/>
    <rect id="Rectangle_21217" data-name="Rectangle 21217" width="3.07" height="3.07" transform="translate(2055.261 289.043) rotate(-60)" fill="#00bcd1"/>
    <rect id="Rectangle_21218" data-name="Rectangle 21218" width="3.07" height="3.07" transform="translate(2057.92 290.578) rotate(-60)" fill="#00bcd1"/>
    <rect id="Rectangle_21219" data-name="Rectangle 21219" width="3.07" height="3.07" transform="translate(2053.726 291.702) rotate(-60)" fill="#00bcd1"/>
    <rect id="Rectangle_21220" data-name="Rectangle 21220" width="3.07" height="3.07" transform="translate(2056.385 293.237) rotate(-60)" fill="#00bcd1"/>
    <rect id="Rectangle_21221" data-name="Rectangle 21221" width="3.07" height="3.07" transform="translate(2060.579 292.113) rotate(-60)" fill="#00bcd1"/>
    <rect id="Rectangle_21222" data-name="Rectangle 21222" width="3.07" height="3.07" transform="translate(2059.044 294.772) rotate(-60)" fill="#00bcd1"/>
    <rect id="Rectangle_21223" data-name="Rectangle 21223" width="3.07" height="3.07" transform="translate(2061.703 296.307) rotate(-60)" fill="#00bcd1"/>
    <rect id="Rectangle_21224" data-name="Rectangle 21224" width="3.07" height="3.07" transform="translate(2092.484 310.534) rotate(-60)" fill="#00bcd1"/>
    <rect id="Rectangle_21225" data-name="Rectangle 21225" width="3.07" height="3.07" transform="translate(2095.143 312.069) rotate(-60)" fill="#00bcd1"/>
    <rect id="Rectangle_21226" data-name="Rectangle 21226" width="3.07" height="3.07" transform="translate(2090.949 313.192) rotate(-60)" fill="#00bcd1"/>
    <rect id="Rectangle_21227" data-name="Rectangle 21227" width="3.07" height="3.07" transform="translate(2093.608 314.728) rotate(-60)" fill="#00bcd1"/>
    <rect id="Rectangle_21228" data-name="Rectangle 21228" width="3.07" height="3.07" transform="translate(2097.802 313.604) rotate(-60)" fill="#00bcd1"/>
    <rect id="Rectangle_21229" data-name="Rectangle 21229" width="3.07" height="3.07" transform="translate(2100.46 315.139) rotate(-60)" fill="#00bcd1"/>
    <rect id="Rectangle_21230" data-name="Rectangle 21230" width="3.07" height="3.07" transform="translate(2096.267 316.263) rotate(-60)" fill="#00bcd1"/>
    <rect id="Rectangle_21231" data-name="Rectangle 21231" width="3.07" height="3.07" transform="translate(2098.926 317.798) rotate(-60)" fill="#00bcd1"/>
    <rect id="Rectangle_21232" data-name="Rectangle 21232" width="3.07" height="3.07" transform="translate(2103.119 316.674) rotate(-60)" fill="#00bcd1"/>
    <rect id="Rectangle_21233" data-name="Rectangle 21233" width="3.07" height="3.07" transform="translate(2101.585 319.333) rotate(-60)" fill="#00bcd1"/>
    <rect id="Rectangle_21234" data-name="Rectangle 21234" width="3.07" height="3.07" transform="translate(2044.215 289.756) rotate(-60)" fill="#00bcd1"/>
    <rect id="Rectangle_21235" data-name="Rectangle 21235" width="3.07" height="3.07" transform="translate(2042.68 292.414) rotate(-60)" fill="#00bcd1"/>
    <rect id="Rectangle_21236" data-name="Rectangle 21236" width="3.07" height="3.07" transform="translate(2046.873 291.291) rotate(-60)" fill="#00bcd1"/>
    <rect id="Rectangle_21237" data-name="Rectangle 21237" width="3.07" height="3.07" transform="translate(2049.532 292.826) rotate(-60)" fill="#00bcd1"/>
    <rect id="Rectangle_21238" data-name="Rectangle 21238" width="3.07" height="3.07" transform="translate(2045.338 293.949) rotate(-60)" fill="#00bcd1"/>
    <rect id="Rectangle_21239" data-name="Rectangle 21239" width="3.07" height="3.07" transform="translate(2047.997 295.484) rotate(-60)" fill="#00bcd1"/>
    <rect id="Rectangle_21240" data-name="Rectangle 21240" width="3.07" height="3.07" transform="translate(2052.191 294.361) rotate(-60)" fill="#00bcd1"/>
    <rect id="Rectangle_21241" data-name="Rectangle 21241" width="3.07" height="3.07" transform="translate(2054.85 295.896) rotate(-60)" fill="#00bcd1"/>
    <rect id="Rectangle_21242" data-name="Rectangle 21242" width="3.07" height="3.07" transform="translate(2050.656 297.019) rotate(-60)" fill="#00bcd1"/>
    <rect id="Rectangle_21243" data-name="Rectangle 21243" width="3.07" height="3.07" transform="translate(2053.314 298.554) rotate(-60)" fill="#00bcd1"/>
    <rect id="Rectangle_21244" data-name="Rectangle 21244" width="3.07" height="3.07" transform="translate(2057.509 297.431) rotate(-60)" fill="#00bcd1"/>
    <rect id="Rectangle_21245" data-name="Rectangle 21245" width="3.07" height="3.07" transform="translate(2060.167 298.966) rotate(-60)" fill="#00bcd1"/>
    <rect id="Rectangle_21246" data-name="Rectangle 21246" width="3.07" height="3.07" transform="translate(2055.973 300.089) rotate(-60)" fill="#00bcd1"/>
    <rect id="Rectangle_21247" data-name="Rectangle 21247" width="3.07" height="3.07" transform="translate(2058.632 301.624) rotate(-60)" fill="#00bcd1"/>
    <rect id="Rectangle_21248" data-name="Rectangle 21248" width="3.07" height="3.07" transform="translate(2089.414 315.851) rotate(-60)" fill="#00bcd1"/>
    <rect id="Rectangle_21249" data-name="Rectangle 21249" width="3.07" height="3.07" transform="translate(2092.073 317.387) rotate(-60)" fill="#00bcd1"/>
    <rect id="Rectangle_21250" data-name="Rectangle 21250" width="3.07" height="3.07" transform="translate(2090.538 320.045) rotate(-60)" fill="#00bcd1"/>
    <rect id="Rectangle_21251" data-name="Rectangle 21251" width="3.07" height="3.07" transform="translate(2094.732 318.922) rotate(-60)" fill="#00bcd1"/>
    <rect id="Rectangle_21252" data-name="Rectangle 21252" width="3.07" height="3.07" transform="translate(2097.39 320.457) rotate(-60)" fill="#00bcd1"/>
    <rect id="Rectangle_21253" data-name="Rectangle 21253" width="3.07" height="3.07" transform="translate(2093.197 321.58) rotate(-60)" fill="#00bcd1"/>
    <rect id="Rectangle_21254" data-name="Rectangle 21254" width="3.07" height="3.07" transform="translate(2095.855 323.115) rotate(-60)" fill="#00bcd1"/>
    <rect id="Rectangle_21255" data-name="Rectangle 21255" width="3.07" height="3.07" transform="translate(2100.05 321.992) rotate(-60)" fill="#00bcd1"/>
    <rect id="Rectangle_21256" data-name="Rectangle 21256" width="3.07" height="3.07" transform="translate(2043.803 296.608) rotate(-60)" fill="#00bcd1"/>
    <rect id="Rectangle_21257" data-name="Rectangle 21257" width="3.07" height="3.07" transform="translate(2046.462 298.144) rotate(-60)" fill="#00bcd1"/>
    <rect id="Rectangle_21258" data-name="Rectangle 21258" width="3.07" height="3.07" transform="translate(2044.927 300.802) rotate(-60)" fill="#00bcd1"/>
    <rect id="Rectangle_21259" data-name="Rectangle 21259" width="3.07" height="3.07" transform="translate(2049.121 299.678) rotate(-60)" fill="#00bcd1"/>
    <rect id="Rectangle_21260" data-name="Rectangle 21260" width="3.07" height="3.07" transform="translate(2051.779 301.213) rotate(-60)" fill="#00bcd1"/>
    <rect id="Rectangle_21261" data-name="Rectangle 21261" width="3.07" height="3.07" transform="translate(2047.586 302.337) rotate(-60)" fill="#00bcd1"/>
    <rect id="Rectangle_21262" data-name="Rectangle 21262" width="3.07" height="3.07" transform="translate(2050.244 303.872) rotate(-60)" fill="#00bcd1"/>
    <rect id="Rectangle_21263" data-name="Rectangle 21263" width="3.07" height="3.07" transform="translate(2054.438 302.749) rotate(-60)" fill="#00bcd1"/>
  </g>
</svg>
