<svg xmlns="http://www.w3.org/2000/svg" width="87.242" height="78.884" viewBox="0 0 87.242 78.884">
  <g id="dna-2" transform="translate(1140.778 -33.192) rotate(-155)">
    <rect id="Rectangle_13660" data-name="Rectangle 13660" width="3.146" height="3.146" transform="translate(963.608 -573)" fill="#ff715b"/>
    <rect id="Rectangle_13661" data-name="Rectangle 13661" width="3.146" height="3.146" transform="translate(966.754 -573)" fill="#ff715b"/>
    <rect id="Rectangle_13662" data-name="Rectangle 13662" width="3.146" height="3.146" transform="translate(969.901 -573)" fill="#ff715b"/>
    <rect id="Rectangle_13663" data-name="Rectangle 13663" width="3.146" height="3.146" transform="translate(960.462 -569.854)" fill="#ff715b"/>
    <rect id="Rectangle_13664" data-name="Rectangle 13664" width="3.146" height="3.146" transform="translate(960.462 -566.707)" fill="#ff715b"/>
    <rect id="Rectangle_13665" data-name="Rectangle 13665" width="3.146" height="3.146" transform="translate(963.608 -569.854)" fill="#ff715b"/>
    <rect id="Rectangle_13666" data-name="Rectangle 13666" width="3.146" height="3.146" transform="translate(966.754 -569.854)" fill="#ff715b"/>
    <rect id="Rectangle_13667" data-name="Rectangle 13667" width="3.146" height="3.146" transform="translate(963.608 -566.707)" fill="#ff715b"/>
    <rect id="Rectangle_13668" data-name="Rectangle 13668" width="3.146" height="3.146" transform="translate(966.754 -566.707)" fill="#ff715b"/>
    <rect id="Rectangle_13669" data-name="Rectangle 13669" width="3.146" height="3.146" transform="translate(969.901 -569.854)" fill="#ff715b"/>
    <rect id="Rectangle_13670" data-name="Rectangle 13670" width="3.146" height="3.146" transform="translate(973.047 -569.854)" fill="#ff715b"/>
    <rect id="Rectangle_13671" data-name="Rectangle 13671" width="3.146" height="3.146" transform="translate(969.901 -566.707)" fill="#ff715b"/>
    <rect id="Rectangle_13672" data-name="Rectangle 13672" width="3.146" height="3.146" transform="translate(973.047 -566.707)" fill="#ff715b"/>
    <rect id="Rectangle_13673" data-name="Rectangle 13673" width="3.146" height="3.146" transform="translate(941.585 -560.414)" fill="#ff715b"/>
    <rect id="Rectangle_13674" data-name="Rectangle 13674" width="3.146" height="3.146" transform="translate(944.731 -560.414)" fill="#ff715b"/>
    <rect id="Rectangle_13675" data-name="Rectangle 13675" width="3.146" height="3.146" transform="translate(960.462 -563.561)" fill="#ff715b"/>
    <rect id="Rectangle_13676" data-name="Rectangle 13676" width="3.146" height="3.146" transform="translate(963.608 -563.561)" fill="#ff715b"/>
    <rect id="Rectangle_13677" data-name="Rectangle 13677" width="3.146" height="3.146" transform="translate(966.754 -563.561)" fill="#ff715b"/>
    <rect id="Rectangle_13678" data-name="Rectangle 13678" width="3.146" height="3.146" transform="translate(963.608 -560.414)" fill="#ff715b"/>
    <rect id="Rectangle_13679" data-name="Rectangle 13679" width="3.146" height="3.146" transform="translate(966.754 -560.414)" fill="#ff715b"/>
    <rect id="Rectangle_13680" data-name="Rectangle 13680" width="3.146" height="3.146" transform="translate(969.901 -563.561)" fill="#ff715b"/>
    <rect id="Rectangle_13681" data-name="Rectangle 13681" width="3.146" height="3.146" transform="translate(973.047 -563.561)" fill="#ff715b"/>
    <rect id="Rectangle_13682" data-name="Rectangle 13682" width="3.146" height="3.146" transform="translate(969.901 -560.414)" fill="#ff715b"/>
    <rect id="Rectangle_13683" data-name="Rectangle 13683" width="3.146" height="3.146" transform="translate(938.439 -557.268)" fill="#ff715b"/>
    <rect id="Rectangle_13684" data-name="Rectangle 13684" width="3.146" height="3.146" transform="translate(941.585 -557.268)" fill="#ff715b"/>
    <rect id="Rectangle_13685" data-name="Rectangle 13685" width="3.146" height="3.146" transform="translate(938.439 -554.121)" fill="#ff715b"/>
    <rect id="Rectangle_13686" data-name="Rectangle 13686" width="3.146" height="3.146" transform="translate(941.585 -554.121)" fill="#ff715b"/>
    <rect id="Rectangle_13687" data-name="Rectangle 13687" width="3.146" height="3.146" transform="translate(944.731 -557.268)" fill="#ff715b"/>
    <rect id="Rectangle_13688" data-name="Rectangle 13688" width="3.146" height="3.146" transform="translate(947.877 -557.268)" fill="#ff715b"/>
    <rect id="Rectangle_13689" data-name="Rectangle 13689" width="3.146" height="3.146" transform="translate(944.731 -554.121)" fill="#ff715b"/>
    <rect id="Rectangle_13690" data-name="Rectangle 13690" width="3.146" height="3.146" transform="translate(947.877 -554.121)" fill="#ff715b"/>
    <rect id="Rectangle_13691" data-name="Rectangle 13691" width="3.146" height="3.146" transform="translate(966.754 -557.268)" fill="#ff715b"/>
    <rect id="Rectangle_13692" data-name="Rectangle 13692" width="3.146" height="3.146" transform="translate(966.754 -554.121)" fill="#ff715b"/>
    <rect id="Rectangle_13693" data-name="Rectangle 13693" width="3.146" height="3.146" transform="translate(941.585 -550.975)" fill="#ff715b"/>
    <rect id="Rectangle_13694" data-name="Rectangle 13694" width="3.146" height="3.146" transform="translate(944.731 -550.975)" fill="#ff715b"/>
    <rect id="Rectangle_13695" data-name="Rectangle 13695" width="3.146" height="3.146" transform="translate(947.877 -550.975)" fill="#ff715b"/>
    <rect id="Rectangle_13696" data-name="Rectangle 13696" width="3.146" height="3.146" transform="translate(951.023 -547.828)" fill="#ff715b"/>
    <rect id="Rectangle_13697" data-name="Rectangle 13697" width="3.146" height="3.146" transform="translate(957.316 -547.828)" fill="#ff715b"/>
    <rect id="Rectangle_13698" data-name="Rectangle 13698" width="3.146" height="3.146" transform="translate(960.462 -547.828)" fill="#ff715b"/>
    <rect id="Rectangle_13699" data-name="Rectangle 13699" width="3.146" height="3.146" transform="translate(966.754 -550.975)" fill="#ff715b"/>
    <rect id="Rectangle_13700" data-name="Rectangle 13700" width="3.146" height="3.146" transform="translate(963.608 -547.828)" fill="#ff715b"/>
    <rect id="Rectangle_13701" data-name="Rectangle 13701" width="3.146" height="3.146" transform="translate(966.754 -547.828)" fill="#ff715b"/>
    <rect id="Rectangle_13702" data-name="Rectangle 13702" width="3.146" height="3.146" transform="translate(969.901 -547.828)" fill="#ff715b"/>
    <rect id="Rectangle_13703" data-name="Rectangle 13703" width="3.146" height="3.146" transform="translate(973.047 -547.828)" fill="#ff715b"/>
    <rect id="Rectangle_13704" data-name="Rectangle 13704" width="3.146" height="3.146" transform="translate(954.17 -544.682)" fill="#ff715b"/>
    <rect id="Rectangle_13705" data-name="Rectangle 13705" width="3.146" height="3.146" transform="translate(951.023 -541.536)" fill="#ff715b"/>
    <rect id="Rectangle_13706" data-name="Rectangle 13706" width="3.146" height="3.146" transform="translate(954.17 -541.536)" fill="#ff715b"/>
    <rect id="Rectangle_13707" data-name="Rectangle 13707" width="3.146" height="3.146" transform="translate(957.316 -544.682)" fill="#ff715b"/>
    <rect id="Rectangle_13708" data-name="Rectangle 13708" width="3.146" height="3.146" transform="translate(960.462 -544.682)" fill="#ff715b"/>
    <rect id="Rectangle_13709" data-name="Rectangle 13709" width="3.146" height="3.146" transform="translate(957.316 -541.536)" fill="#ff715b"/>
    <rect id="Rectangle_13710" data-name="Rectangle 13710" width="3.146" height="3.146" transform="translate(960.462 -541.536)" fill="#ff715b"/>
    <rect id="Rectangle_13711" data-name="Rectangle 13711" width="3.146" height="3.146" transform="translate(963.608 -544.682)" fill="#ff715b"/>
    <rect id="Rectangle_13712" data-name="Rectangle 13712" width="3.146" height="3.146" transform="translate(966.754 -544.682)" fill="#ff715b"/>
    <rect id="Rectangle_13713" data-name="Rectangle 13713" width="3.146" height="3.146" transform="translate(963.608 -541.536)" fill="#ff715b"/>
    <rect id="Rectangle_13714" data-name="Rectangle 13714" width="3.146" height="3.146" transform="translate(966.754 -541.536)" fill="#ff715b"/>
    <rect id="Rectangle_13715" data-name="Rectangle 13715" width="3.146" height="3.146" transform="translate(969.901 -544.682)" fill="#ff715b"/>
    <rect id="Rectangle_13716" data-name="Rectangle 13716" width="3.146" height="3.146" transform="translate(973.047 -544.682)" fill="#ff715b"/>
    <rect id="Rectangle_13717" data-name="Rectangle 13717" width="3.146" height="3.146" transform="translate(969.901 -541.536)" fill="#ff715b"/>
    <rect id="Rectangle_13718" data-name="Rectangle 13718" width="3.146" height="3.146" transform="translate(973.047 -541.536)" fill="#ff715b"/>
    <rect id="Rectangle_13719" data-name="Rectangle 13719" width="3.146" height="3.146" transform="translate(976.193 -544.682)" fill="#ff715b"/>
    <rect id="Rectangle_13720" data-name="Rectangle 13720" width="3.146" height="3.146" transform="translate(976.193 -541.536)" fill="#ff715b"/>
    <rect id="Rectangle_13721" data-name="Rectangle 13721" width="3.146" height="3.146" transform="translate(979.339 -541.536)" fill="#ff715b"/>
    <rect id="Rectangle_13722" data-name="Rectangle 13722" width="3.146" height="3.146" transform="translate(995.07 -541.536)" fill="#ff715b"/>
    <rect id="Rectangle_13723" data-name="Rectangle 13723" width="3.146" height="3.146" transform="translate(998.216 -541.536)" fill="#ff715b"/>
    <rect id="Rectangle_13724" data-name="Rectangle 13724" width="3.146" height="3.146" transform="translate(1001.362 -541.536)" fill="#ff715b"/>
    <rect id="Rectangle_13725" data-name="Rectangle 13725" width="3.146" height="3.146" transform="translate(951.023 -538.389)" fill="#ff715b"/>
    <rect id="Rectangle_13726" data-name="Rectangle 13726" width="3.146" height="3.146" transform="translate(954.17 -538.389)" fill="#ff715b"/>
    <rect id="Rectangle_13727" data-name="Rectangle 13727" width="3.146" height="3.146" transform="translate(951.023 -535.243)" fill="#ff715b"/>
    <rect id="Rectangle_13728" data-name="Rectangle 13728" width="3.146" height="3.146" transform="translate(954.17 -535.243)" fill="#ff715b"/>
    <rect id="Rectangle_13729" data-name="Rectangle 13729" width="3.146" height="3.146" transform="translate(957.316 -538.389)" fill="#ff715b"/>
    <rect id="Rectangle_13730" data-name="Rectangle 13730" width="3.146" height="3.146" transform="translate(960.462 -538.389)" fill="#ff715b"/>
    <rect id="Rectangle_13731" data-name="Rectangle 13731" width="3.146" height="3.146" transform="translate(957.316 -535.243)" fill="#ff715b"/>
    <rect id="Rectangle_13732" data-name="Rectangle 13732" width="3.146" height="3.146" transform="translate(960.462 -535.243)" fill="#ff715b"/>
    <rect id="Rectangle_13733" data-name="Rectangle 13733" width="3.146" height="3.146" transform="translate(963.608 -538.389)" fill="#ff715b"/>
    <rect id="Rectangle_13734" data-name="Rectangle 13734" width="3.146" height="3.146" transform="translate(966.754 -538.389)" fill="#ff715b"/>
    <rect id="Rectangle_13735" data-name="Rectangle 13735" width="3.146" height="3.146" transform="translate(963.608 -535.243)" fill="#ff715b"/>
    <rect id="Rectangle_13736" data-name="Rectangle 13736" width="3.146" height="3.146" transform="translate(966.754 -535.243)" fill="#ff715b"/>
    <rect id="Rectangle_13737" data-name="Rectangle 13737" width="3.146" height="3.146" transform="translate(969.901 -538.389)" fill="#ff715b"/>
    <rect id="Rectangle_13738" data-name="Rectangle 13738" width="3.146" height="3.146" transform="translate(973.047 -538.389)" fill="#ff715b"/>
    <rect id="Rectangle_13739" data-name="Rectangle 13739" width="3.146" height="3.146" transform="translate(969.901 -535.243)" fill="#ff715b"/>
    <rect id="Rectangle_13740" data-name="Rectangle 13740" width="3.146" height="3.146" transform="translate(973.047 -535.243)" fill="#ff715b"/>
    <rect id="Rectangle_13741" data-name="Rectangle 13741" width="3.146" height="3.146" transform="translate(976.193 -538.389)" fill="#ff715b"/>
    <rect id="Rectangle_13742" data-name="Rectangle 13742" width="3.146" height="3.146" transform="translate(979.339 -538.389)" fill="#ff715b"/>
    <rect id="Rectangle_13743" data-name="Rectangle 13743" width="3.146" height="3.146" transform="translate(976.193 -535.243)" fill="#ff715b"/>
    <rect id="Rectangle_13744" data-name="Rectangle 13744" width="3.146" height="3.146" transform="translate(979.339 -535.243)" fill="#ff715b"/>
    <rect id="Rectangle_13745" data-name="Rectangle 13745" width="3.146" height="3.146" transform="translate(982.485 -535.243)" fill="#ff715b"/>
    <rect id="Rectangle_13746" data-name="Rectangle 13746" width="3.146" height="3.146" transform="translate(985.631 -535.243)" fill="#ff715b"/>
    <rect id="Rectangle_13747" data-name="Rectangle 13747" width="3.146" height="3.146" transform="translate(991.924 -538.389)" fill="#ff715b"/>
    <rect id="Rectangle_13748" data-name="Rectangle 13748" width="3.146" height="3.146" transform="translate(988.778 -535.243)" fill="#ff715b"/>
    <rect id="Rectangle_13749" data-name="Rectangle 13749" width="3.146" height="3.146" transform="translate(991.924 -535.243)" fill="#ff715b"/>
    <rect id="Rectangle_13750" data-name="Rectangle 13750" width="3.146" height="3.146" transform="translate(995.07 -538.389)" fill="#ff715b"/>
    <rect id="Rectangle_13751" data-name="Rectangle 13751" width="3.146" height="3.146" transform="translate(998.216 -538.389)" fill="#ff715b"/>
    <rect id="Rectangle_13752" data-name="Rectangle 13752" width="3.146" height="3.146" transform="translate(995.07 -535.243)" fill="#ff715b"/>
    <rect id="Rectangle_13753" data-name="Rectangle 13753" width="3.146" height="3.146" transform="translate(998.216 -535.243)" fill="#ff715b"/>
    <rect id="Rectangle_13754" data-name="Rectangle 13754" width="3.146" height="3.146" transform="translate(1001.362 -538.389)" fill="#ff715b"/>
    <rect id="Rectangle_13755" data-name="Rectangle 13755" width="3.146" height="3.146" transform="translate(1004.509 -538.389)" fill="#ff715b"/>
    <rect id="Rectangle_13756" data-name="Rectangle 13756" width="3.146" height="3.146" transform="translate(1001.362 -535.243)" fill="#ff715b"/>
    <rect id="Rectangle_13757" data-name="Rectangle 13757" width="3.146" height="3.146" transform="translate(1004.509 -535.243)" fill="#ff715b"/>
    <rect id="Rectangle_13758" data-name="Rectangle 13758" width="3.146" height="3.146" transform="translate(951.023 -532.096)" fill="#ff715b"/>
    <rect id="Rectangle_13759" data-name="Rectangle 13759" width="3.146" height="3.146" transform="translate(954.17 -532.096)" fill="#ff715b"/>
    <rect id="Rectangle_13760" data-name="Rectangle 13760" width="3.146" height="3.146" transform="translate(951.023 -528.95)" fill="#ff715b"/>
    <rect id="Rectangle_13761" data-name="Rectangle 13761" width="3.146" height="3.146" transform="translate(954.17 -528.95)" fill="#ff715b"/>
    <rect id="Rectangle_13762" data-name="Rectangle 13762" width="3.146" height="3.146" transform="translate(957.316 -532.096)" fill="#ff715b"/>
    <rect id="Rectangle_13763" data-name="Rectangle 13763" width="3.146" height="3.146" transform="translate(960.462 -532.096)" fill="#ff715b"/>
    <rect id="Rectangle_13764" data-name="Rectangle 13764" width="3.146" height="3.146" transform="translate(957.316 -528.95)" fill="#ff715b"/>
    <rect id="Rectangle_13765" data-name="Rectangle 13765" width="3.146" height="3.146" transform="translate(960.462 -528.95)" fill="#ff715b"/>
    <rect id="Rectangle_13766" data-name="Rectangle 13766" width="3.146" height="3.146" transform="translate(963.608 -532.096)" fill="#ff715b"/>
    <rect id="Rectangle_13767" data-name="Rectangle 13767" width="3.146" height="3.146" transform="translate(966.754 -532.096)" fill="#ff715b"/>
    <rect id="Rectangle_13768" data-name="Rectangle 13768" width="3.146" height="3.146" transform="translate(963.608 -528.95)" fill="#ff715b"/>
    <rect id="Rectangle_13769" data-name="Rectangle 13769" width="3.146" height="3.146" transform="translate(966.754 -528.95)" fill="#ff715b"/>
    <rect id="Rectangle_13770" data-name="Rectangle 13770" width="3.146" height="3.146" transform="translate(969.901 -532.096)" fill="#ff715b"/>
    <rect id="Rectangle_13771" data-name="Rectangle 13771" width="3.146" height="3.146" transform="translate(973.047 -532.096)" fill="#ff715b"/>
    <rect id="Rectangle_13772" data-name="Rectangle 13772" width="3.146" height="3.146" transform="translate(969.901 -528.95)" fill="#ff715b"/>
    <rect id="Rectangle_13773" data-name="Rectangle 13773" width="3.146" height="3.146" transform="translate(973.047 -528.95)" fill="#ff715b"/>
    <rect id="Rectangle_13774" data-name="Rectangle 13774" width="3.146" height="3.146" transform="translate(976.193 -532.096)" fill="#ff715b"/>
    <rect id="Rectangle_13775" data-name="Rectangle 13775" width="3.146" height="3.146" transform="translate(979.339 -532.096)" fill="#ff715b"/>
    <rect id="Rectangle_13776" data-name="Rectangle 13776" width="3.146" height="3.146" transform="translate(976.193 -528.95)" fill="#ff715b"/>
    <rect id="Rectangle_13777" data-name="Rectangle 13777" width="3.146" height="3.146" transform="translate(979.339 -528.95)" fill="#ff715b"/>
    <rect id="Rectangle_13778" data-name="Rectangle 13778" width="3.146" height="3.146" transform="translate(991.924 -532.096)" fill="#ff715b"/>
    <rect id="Rectangle_13779" data-name="Rectangle 13779" width="3.146" height="3.146" transform="translate(995.07 -532.096)" fill="#ff715b"/>
    <rect id="Rectangle_13780" data-name="Rectangle 13780" width="3.146" height="3.146" transform="translate(998.216 -532.096)" fill="#ff715b"/>
    <rect id="Rectangle_13781" data-name="Rectangle 13781" width="3.146" height="3.146" transform="translate(995.07 -528.95)" fill="#ff715b"/>
    <rect id="Rectangle_13782" data-name="Rectangle 13782" width="3.146" height="3.146" transform="translate(998.216 -528.95)" fill="#ff715b"/>
    <rect id="Rectangle_13783" data-name="Rectangle 13783" width="3.146" height="3.146" transform="translate(1001.362 -532.096)" fill="#ff715b"/>
    <rect id="Rectangle_13784" data-name="Rectangle 13784" width="3.146" height="3.146" transform="translate(1004.509 -532.096)" fill="#ff715b"/>
    <rect id="Rectangle_13785" data-name="Rectangle 13785" width="3.146" height="3.146" transform="translate(1001.362 -528.95)" fill="#ff715b"/>
    <rect id="Rectangle_13786" data-name="Rectangle 13786" width="3.146" height="3.146" transform="translate(951.023 -525.803)" fill="#ff715b"/>
    <rect id="Rectangle_13787" data-name="Rectangle 13787" width="3.146" height="3.146" transform="translate(954.17 -525.803)" fill="#ff715b"/>
    <rect id="Rectangle_13788" data-name="Rectangle 13788" width="3.146" height="3.146" transform="translate(954.17 -522.657)" fill="#ff715b"/>
    <rect id="Rectangle_13789" data-name="Rectangle 13789" width="3.146" height="3.146" transform="translate(957.316 -525.803)" fill="#ff715b"/>
    <rect id="Rectangle_13790" data-name="Rectangle 13790" width="3.146" height="3.146" transform="translate(960.462 -525.803)" fill="#ff715b"/>
    <rect id="Rectangle_13791" data-name="Rectangle 13791" width="3.146" height="3.146" transform="translate(957.316 -522.657)" fill="#ff715b"/>
    <rect id="Rectangle_13792" data-name="Rectangle 13792" width="3.146" height="3.146" transform="translate(960.462 -522.657)" fill="#ff715b"/>
    <rect id="Rectangle_13793" data-name="Rectangle 13793" width="3.146" height="3.146" transform="translate(963.608 -525.803)" fill="#ff715b"/>
    <rect id="Rectangle_13794" data-name="Rectangle 13794" width="3.146" height="3.146" transform="translate(966.754 -525.803)" fill="#ff715b"/>
    <rect id="Rectangle_13795" data-name="Rectangle 13795" width="3.146" height="3.146" transform="translate(963.608 -522.657)" fill="#ff715b"/>
    <rect id="Rectangle_13796" data-name="Rectangle 13796" width="3.146" height="3.146" transform="translate(966.754 -522.657)" fill="#ff715b"/>
    <rect id="Rectangle_13797" data-name="Rectangle 13797" width="3.146" height="3.146" transform="translate(969.901 -525.803)" fill="#ff715b"/>
    <rect id="Rectangle_13798" data-name="Rectangle 13798" width="3.146" height="3.146" transform="translate(973.047 -525.803)" fill="#ff715b"/>
    <rect id="Rectangle_13799" data-name="Rectangle 13799" width="3.146" height="3.146" transform="translate(969.901 -522.657)" fill="#ff715b"/>
    <rect id="Rectangle_13800" data-name="Rectangle 13800" width="3.146" height="3.146" transform="translate(973.047 -522.657)" fill="#ff715b"/>
    <rect id="Rectangle_13801" data-name="Rectangle 13801" width="3.146" height="3.146" transform="translate(976.193 -525.803)" fill="#ff715b"/>
    <rect id="Rectangle_13802" data-name="Rectangle 13802" width="3.146" height="3.146" transform="translate(979.339 -525.803)" fill="#ff715b"/>
    <rect id="Rectangle_13803" data-name="Rectangle 13803" width="3.146" height="3.146" transform="translate(976.193 -522.657)" fill="#ff715b"/>
    <rect id="Rectangle_13804" data-name="Rectangle 13804" width="3.146" height="3.146" transform="translate(935.292 -516.364)" fill="#ff715b"/>
    <rect id="Rectangle_13805" data-name="Rectangle 13805" width="3.146" height="3.146" transform="translate(938.439 -516.364)" fill="#ff715b"/>
    <rect id="Rectangle_13806" data-name="Rectangle 13806" width="3.146" height="3.146" transform="translate(941.585 -516.364)" fill="#ff715b"/>
    <rect id="Rectangle_13807" data-name="Rectangle 13807" width="3.146" height="3.146" transform="translate(947.877 -516.364)" fill="#ff715b"/>
    <rect id="Rectangle_13808" data-name="Rectangle 13808" width="3.146" height="3.146" transform="translate(951.023 -519.51)" fill="#ff715b"/>
    <rect id="Rectangle_13809" data-name="Rectangle 13809" width="3.146" height="3.146" transform="translate(957.316 -519.51)" fill="#ff715b"/>
    <rect id="Rectangle_13810" data-name="Rectangle 13810" width="3.146" height="3.146" transform="translate(960.462 -519.51)" fill="#ff715b"/>
    <rect id="Rectangle_13811" data-name="Rectangle 13811" width="3.146" height="3.146" transform="translate(963.608 -519.51)" fill="#ff715b"/>
    <rect id="Rectangle_13812" data-name="Rectangle 13812" width="3.146" height="3.146" transform="translate(966.754 -519.51)" fill="#ff715b"/>
    <rect id="Rectangle_13813" data-name="Rectangle 13813" width="3.146" height="3.146" transform="translate(969.901 -519.51)" fill="#ff715b"/>
    <rect id="Rectangle_13814" data-name="Rectangle 13814" width="3.146" height="3.146" transform="translate(973.047 -519.51)" fill="#ff715b"/>
    <rect id="Rectangle_13815" data-name="Rectangle 13815" width="3.146" height="3.146" transform="translate(979.339 -519.51)" fill="#ff715b"/>
    <rect id="Rectangle_13816" data-name="Rectangle 13816" width="3.146" height="3.146" transform="translate(982.485 -516.364)" fill="#ff715b"/>
    <rect id="Rectangle_13817" data-name="Rectangle 13817" width="3.146" height="3.146" transform="translate(985.631 -516.364)" fill="#ff715b"/>
    <rect id="Rectangle_13818" data-name="Rectangle 13818" width="3.146" height="3.146" transform="translate(988.778 -516.364)" fill="#ff715b"/>
    <rect id="Rectangle_13819" data-name="Rectangle 13819" width="3.146" height="3.146" transform="translate(991.924 -516.364)" fill="#ff715b"/>
    <rect id="Rectangle_13820" data-name="Rectangle 13820" width="3.146" height="3.146" transform="translate(929 -510.071)" fill="#ff715b"/>
    <rect id="Rectangle_13821" data-name="Rectangle 13821" width="3.146" height="3.146" transform="translate(932.146 -513.217)" fill="#ff715b"/>
    <rect id="Rectangle_13822" data-name="Rectangle 13822" width="3.146" height="3.146" transform="translate(935.292 -513.217)" fill="#ff715b"/>
    <rect id="Rectangle_13823" data-name="Rectangle 13823" width="3.146" height="3.146" transform="translate(932.146 -510.071)" fill="#ff715b"/>
    <rect id="Rectangle_13824" data-name="Rectangle 13824" width="3.146" height="3.146" transform="translate(935.292 -510.071)" fill="#ff715b"/>
    <rect id="Rectangle_13825" data-name="Rectangle 13825" width="3.146" height="3.146" transform="translate(938.439 -513.217)" fill="#ff715b"/>
    <rect id="Rectangle_13826" data-name="Rectangle 13826" width="3.146" height="3.146" transform="translate(941.585 -513.217)" fill="#ff715b"/>
    <rect id="Rectangle_13827" data-name="Rectangle 13827" width="3.146" height="3.146" transform="translate(938.439 -510.071)" fill="#ff715b"/>
    <rect id="Rectangle_13828" data-name="Rectangle 13828" width="3.146" height="3.146" transform="translate(941.585 -510.071)" fill="#ff715b"/>
    <rect id="Rectangle_13829" data-name="Rectangle 13829" width="3.146" height="3.146" transform="translate(944.731 -513.217)" fill="#ff715b"/>
    <rect id="Rectangle_13830" data-name="Rectangle 13830" width="3.146" height="3.146" transform="translate(944.731 -510.071)" fill="#ff715b"/>
    <rect id="Rectangle_13831" data-name="Rectangle 13831" width="3.146" height="3.146" transform="translate(947.877 -510.071)" fill="#ff715b"/>
    <rect id="Rectangle_13832" data-name="Rectangle 13832" width="3.146" height="3.146" transform="translate(982.485 -513.217)" fill="#ff715b"/>
    <rect id="Rectangle_13833" data-name="Rectangle 13833" width="3.146" height="3.146" transform="translate(985.631 -513.217)" fill="#ff715b"/>
    <rect id="Rectangle_13834" data-name="Rectangle 13834" width="3.146" height="3.146" transform="translate(982.485 -510.071)" fill="#ff715b"/>
    <rect id="Rectangle_13835" data-name="Rectangle 13835" width="3.146" height="3.146" transform="translate(985.631 -510.071)" fill="#ff715b"/>
    <rect id="Rectangle_13836" data-name="Rectangle 13836" width="3.146" height="3.146" transform="translate(988.778 -513.217)" fill="#ff715b"/>
    <rect id="Rectangle_13837" data-name="Rectangle 13837" width="3.146" height="3.146" transform="translate(991.924 -513.217)" fill="#ff715b"/>
    <rect id="Rectangle_13838" data-name="Rectangle 13838" width="3.146" height="3.146" transform="translate(988.778 -510.071)" fill="#ff715b"/>
    <rect id="Rectangle_13839" data-name="Rectangle 13839" width="3.146" height="3.146" transform="translate(991.924 -510.071)" fill="#ff715b"/>
    <rect id="Rectangle_13840" data-name="Rectangle 13840" width="3.146" height="3.146" transform="translate(995.07 -513.217)" fill="#ff715b"/>
    <rect id="Rectangle_13841" data-name="Rectangle 13841" width="3.146" height="3.146" transform="translate(995.07 -510.071)" fill="#ff715b"/>
    <rect id="Rectangle_13842" data-name="Rectangle 13842" width="3.146" height="3.146" transform="translate(929 -506.925)" fill="#ff715b"/>
    <rect id="Rectangle_13843" data-name="Rectangle 13843" width="3.146" height="3.146" transform="translate(929 -503.778)" fill="#ff715b"/>
    <rect id="Rectangle_13844" data-name="Rectangle 13844" width="3.146" height="3.146" transform="translate(932.146 -506.925)" fill="#ff715b"/>
    <rect id="Rectangle_13845" data-name="Rectangle 13845" width="3.146" height="3.146" transform="translate(935.292 -506.925)" fill="#ff715b"/>
    <rect id="Rectangle_13846" data-name="Rectangle 13846" width="3.146" height="3.146" transform="translate(932.146 -503.778)" fill="#ff715b"/>
    <rect id="Rectangle_13847" data-name="Rectangle 13847" width="3.146" height="3.146" transform="translate(935.292 -503.778)" fill="#ff715b"/>
    <rect id="Rectangle_13848" data-name="Rectangle 13848" width="3.146" height="3.146" transform="translate(938.439 -506.925)" fill="#ff715b"/>
    <rect id="Rectangle_13849" data-name="Rectangle 13849" width="3.146" height="3.146" transform="translate(941.585 -506.925)" fill="#ff715b"/>
    <rect id="Rectangle_13850" data-name="Rectangle 13850" width="3.146" height="3.146" transform="translate(938.439 -503.778)" fill="#ff715b"/>
    <rect id="Rectangle_13851" data-name="Rectangle 13851" width="3.146" height="3.146" transform="translate(941.585 -503.778)" fill="#ff715b"/>
    <rect id="Rectangle_13852" data-name="Rectangle 13852" width="3.146" height="3.146" transform="translate(944.731 -506.925)" fill="#ff715b"/>
    <rect id="Rectangle_13853" data-name="Rectangle 13853" width="3.146" height="3.146" transform="translate(947.877 -506.925)" fill="#ff715b"/>
    <rect id="Rectangle_13854" data-name="Rectangle 13854" width="3.146" height="3.146" transform="translate(944.731 -503.778)" fill="#ff715b"/>
    <rect id="Rectangle_13855" data-name="Rectangle 13855" width="3.146" height="3.146" transform="translate(947.877 -503.778)" fill="#ff715b"/>
    <rect id="Rectangle_13856" data-name="Rectangle 13856" width="3.146" height="3.146" transform="translate(982.485 -506.925)" fill="#ff715b"/>
    <rect id="Rectangle_13857" data-name="Rectangle 13857" width="3.146" height="3.146" transform="translate(985.631 -506.925)" fill="#ff715b"/>
    <rect id="Rectangle_13858" data-name="Rectangle 13858" width="3.146" height="3.146" transform="translate(985.631 -503.778)" fill="#ff715b"/>
    <rect id="Rectangle_13859" data-name="Rectangle 13859" width="3.146" height="3.146" transform="translate(988.778 -506.925)" fill="#ff715b"/>
    <rect id="Rectangle_13860" data-name="Rectangle 13860" width="3.146" height="3.146" transform="translate(991.924 -506.925)" fill="#ff715b"/>
    <rect id="Rectangle_13861" data-name="Rectangle 13861" width="3.146" height="3.146" transform="translate(988.778 -503.778)" fill="#ff715b"/>
    <rect id="Rectangle_13862" data-name="Rectangle 13862" width="3.146" height="3.146" transform="translate(991.924 -503.778)" fill="#ff715b"/>
    <rect id="Rectangle_13863" data-name="Rectangle 13863" width="3.146" height="3.146" transform="translate(995.07 -506.925)" fill="#ff715b"/>
    <rect id="Rectangle_13864" data-name="Rectangle 13864" width="3.146" height="3.146" transform="translate(932.146 -500.632)" fill="#ff715b"/>
    <rect id="Rectangle_13865" data-name="Rectangle 13865" width="3.146" height="3.146" transform="translate(935.292 -500.632)" fill="#ff715b"/>
    <rect id="Rectangle_13866" data-name="Rectangle 13866" width="3.146" height="3.146" transform="translate(935.292 -497.485)" fill="#ff715b"/>
    <rect id="Rectangle_13867" data-name="Rectangle 13867" width="3.146" height="3.146" transform="translate(938.439 -500.632)" fill="#ff715b"/>
    <rect id="Rectangle_13868" data-name="Rectangle 13868" width="3.146" height="3.146" transform="translate(941.585 -500.632)" fill="#ff715b"/>
    <rect id="Rectangle_13869" data-name="Rectangle 13869" width="3.146" height="3.146" transform="translate(938.439 -497.485)" fill="#ff715b"/>
    <rect id="Rectangle_13870" data-name="Rectangle 13870" width="3.146" height="3.146" transform="translate(941.585 -497.485)" fill="#ff715b"/>
    <rect id="Rectangle_13871" data-name="Rectangle 13871" width="3.146" height="3.146" transform="translate(944.731 -500.632)" fill="#ff715b"/>
  </g>
</svg>
