<svg xmlns="http://www.w3.org/2000/svg" width="110.384" height="110.385" viewBox="0 0 110.384 110.385">
  <g id="dna-4" transform="translate(2152.352 -561.735) rotate(150)">
    <rect id="Rectangle_21052" data-name="Rectangle 21052" width="4.415" height="4.415" transform="translate(2144.311 467.019) rotate(-60)" fill="#f7dd80"/>
    <rect id="Rectangle_21053" data-name="Rectangle 21053" width="4.415" height="4.415" transform="translate(2148.134 469.227) rotate(-60)" fill="#f7dd80"/>
    <rect id="Rectangle_21054" data-name="Rectangle 21054" width="4.415" height="4.415" transform="translate(2151.958 471.435) rotate(-60)" fill="#f7dd80"/>
    <rect id="Rectangle_21055" data-name="Rectangle 21055" width="4.415" height="4.415" transform="translate(2138.28 468.635) rotate(-60)" fill="#f7dd80"/>
    <rect id="Rectangle_21056" data-name="Rectangle 21056" width="4.415" height="4.415" transform="translate(2136.072 472.46) rotate(-60)" fill="#f7dd80"/>
    <rect id="Rectangle_21057" data-name="Rectangle 21057" width="4.415" height="4.415" transform="translate(2142.103 470.843) rotate(-60)" fill="#f7dd80"/>
    <rect id="Rectangle_21058" data-name="Rectangle 21058" width="4.415" height="4.415" transform="translate(2145.927 473.051) rotate(-60)" fill="#f7dd80"/>
    <rect id="Rectangle_21059" data-name="Rectangle 21059" width="4.415" height="4.415" transform="translate(2139.895 474.667) rotate(-60)" fill="#f7dd80"/>
    <rect id="Rectangle_21060" data-name="Rectangle 21060" width="4.415" height="4.415" transform="translate(2143.719 476.875) rotate(-60)" fill="#f7dd80"/>
    <rect id="Rectangle_21061" data-name="Rectangle 21061" width="4.415" height="4.415" transform="translate(2149.751 475.259) rotate(-60)" fill="#f7dd80"/>
    <rect id="Rectangle_21062" data-name="Rectangle 21062" width="4.415" height="4.415" transform="translate(2153.575 477.466) rotate(-60)" fill="#f7dd80"/>
    <rect id="Rectangle_21063" data-name="Rectangle 21063" width="4.415" height="4.415" transform="translate(2147.543 479.083) rotate(-60)" fill="#f7dd80"/>
    <rect id="Rectangle_21064" data-name="Rectangle 21064" width="4.415" height="4.415" transform="translate(2151.366 481.29) rotate(-60)" fill="#f7dd80"/>
    <rect id="Rectangle_21065" data-name="Rectangle 21065" width="4.415" height="4.415" transform="translate(2108.713 466.861) rotate(-60)" fill="#f7dd80"/>
    <rect id="Rectangle_21066" data-name="Rectangle 21066" width="4.415" height="4.415" transform="translate(2112.537 469.069) rotate(-60)" fill="#f7dd80"/>
    <rect id="Rectangle_21067" data-name="Rectangle 21067" width="4.415" height="4.415" transform="translate(2133.864 476.283) rotate(-60)" fill="#f7dd80"/>
    <rect id="Rectangle_21068" data-name="Rectangle 21068" width="4.415" height="4.415" transform="translate(2137.688 478.491) rotate(-60)" fill="#f7dd80"/>
    <rect id="Rectangle_21069" data-name="Rectangle 21069" width="4.415" height="4.415" transform="translate(2141.511 480.698) rotate(-60)" fill="#f7dd80"/>
    <rect id="Rectangle_21070" data-name="Rectangle 21070" width="4.415" height="4.415" transform="translate(2135.48 482.315) rotate(-60)" fill="#f7dd80"/>
    <rect id="Rectangle_21071" data-name="Rectangle 21071" width="4.415" height="4.415" transform="translate(2139.303 484.523) rotate(-60)" fill="#f7dd80"/>
    <rect id="Rectangle_21072" data-name="Rectangle 21072" width="4.415" height="4.415" transform="translate(2145.335 482.906) rotate(-60)" fill="#f7dd80"/>
    <rect id="Rectangle_21073" data-name="Rectangle 21073" width="4.415" height="4.415" transform="translate(2149.159 485.114) rotate(-60)" fill="#f7dd80"/>
    <rect id="Rectangle_21074" data-name="Rectangle 21074" width="4.415" height="4.415" transform="translate(2143.127 486.731) rotate(-60)" fill="#f7dd80"/>
    <rect id="Rectangle_21075" data-name="Rectangle 21075" width="4.415" height="4.415" transform="translate(2102.682 468.477) rotate(-60)" fill="#f7dd80"/>
    <rect id="Rectangle_21076" data-name="Rectangle 21076" width="4.415" height="4.415" transform="translate(2106.505 470.685) rotate(-60)" fill="#f7dd80"/>
    <rect id="Rectangle_21077" data-name="Rectangle 21077" width="4.415" height="4.415" transform="translate(2100.474 472.301) rotate(-60)" fill="#f7dd80"/>
    <rect id="Rectangle_21078" data-name="Rectangle 21078" width="4.415" height="4.415" transform="translate(2104.298 474.508) rotate(-60)" fill="#f7dd80"/>
    <rect id="Rectangle_21079" data-name="Rectangle 21079" width="4.415" height="4.415" transform="translate(2110.329 472.893) rotate(-60)" fill="#f7dd80"/>
    <rect id="Rectangle_21080" data-name="Rectangle 21080" width="4.415" height="4.415" transform="translate(2114.153 475.1) rotate(-60)" fill="#f7dd80"/>
    <rect id="Rectangle_21081" data-name="Rectangle 21081" width="4.415" height="4.415" transform="translate(2108.122 476.716) rotate(-60)" fill="#f7dd80"/>
    <rect id="Rectangle_21082" data-name="Rectangle 21082" width="4.415" height="4.415" transform="translate(2111.946 478.924) rotate(-60)" fill="#f7dd80"/>
    <rect id="Rectangle_21083" data-name="Rectangle 21083" width="4.415" height="4.415" transform="translate(2137.096 488.346) rotate(-60)" fill="#f7dd80"/>
    <rect id="Rectangle_21084" data-name="Rectangle 21084" width="4.415" height="4.415" transform="translate(2134.888 492.17) rotate(-60)" fill="#f7dd80"/>
    <rect id="Rectangle_21085" data-name="Rectangle 21085" width="4.415" height="4.415" transform="translate(2102.09 478.333) rotate(-60)" fill="#f7dd80"/>
    <rect id="Rectangle_21086" data-name="Rectangle 21086" width="4.415" height="4.415" transform="translate(2105.914 480.541) rotate(-60)" fill="#f7dd80"/>
    <rect id="Rectangle_21087" data-name="Rectangle 21087" width="4.415" height="4.415" transform="translate(2109.738 482.748) rotate(-60)" fill="#f7dd80"/>
    <rect id="Rectangle_21088" data-name="Rectangle 21088" width="4.415" height="4.415" transform="translate(2111.354 488.78) rotate(-60)" fill="#f7dd80"/>
    <rect id="Rectangle_21089" data-name="Rectangle 21089" width="4.415" height="4.415" transform="translate(2119.001 493.195) rotate(-60)" fill="#f7dd80"/>
    <rect id="Rectangle_21090" data-name="Rectangle 21090" width="4.415" height="4.415" transform="translate(2122.826 495.403) rotate(-60)" fill="#f7dd80"/>
    <rect id="Rectangle_21091" data-name="Rectangle 21091" width="4.415" height="4.415" transform="translate(2132.68 495.994) rotate(-60)" fill="#f7dd80"/>
    <rect id="Rectangle_21092" data-name="Rectangle 21092" width="4.415" height="4.415" transform="translate(2126.649 497.61) rotate(-60)" fill="#f7dd80"/>
    <rect id="Rectangle_21093" data-name="Rectangle 21093" width="4.415" height="4.415" transform="translate(2130.472 499.818) rotate(-60)" fill="#f7dd80"/>
    <rect id="Rectangle_21094" data-name="Rectangle 21094" width="4.415" height="4.415" transform="translate(2134.297 502.026) rotate(-60)" fill="#f7dd80"/>
    <rect id="Rectangle_21095" data-name="Rectangle 21095" width="4.415" height="4.415" transform="translate(2138.121 504.233) rotate(-60)" fill="#f7dd80"/>
    <rect id="Rectangle_21096" data-name="Rectangle 21096" width="4.415" height="4.415" transform="translate(2112.97 494.811) rotate(-60)" fill="#f7dd80"/>
    <rect id="Rectangle_21097" data-name="Rectangle 21097" width="4.415" height="4.415" transform="translate(2106.938 496.427) rotate(-60)" fill="#f7dd80"/>
    <rect id="Rectangle_21098" data-name="Rectangle 21098" width="4.415" height="4.415" transform="translate(2110.762 498.635) rotate(-60)" fill="#f7dd80"/>
    <rect id="Rectangle_21099" data-name="Rectangle 21099" width="4.415" height="4.415" transform="translate(2116.793 497.018) rotate(-60)" fill="#f7dd80"/>
    <rect id="Rectangle_21100" data-name="Rectangle 21100" width="4.415" height="4.415" transform="translate(2120.618 499.226) rotate(-60)" fill="#f7dd80"/>
    <rect id="Rectangle_21101" data-name="Rectangle 21101" width="4.415" height="4.415" transform="translate(2114.586 500.842) rotate(-60)" fill="#f7dd80"/>
    <rect id="Rectangle_21102" data-name="Rectangle 21102" width="4.415" height="4.415" transform="translate(2118.41 503.05) rotate(-60)" fill="#f7dd80"/>
    <rect id="Rectangle_21103" data-name="Rectangle 21103" width="4.415" height="4.415" transform="translate(2124.442 501.434) rotate(-60)" fill="#f7dd80"/>
    <rect id="Rectangle_21104" data-name="Rectangle 21104" width="4.415" height="4.415" transform="translate(2128.265 503.641) rotate(-60)" fill="#f7dd80"/>
    <rect id="Rectangle_21105" data-name="Rectangle 21105" width="4.415" height="4.415" transform="translate(2122.233 505.258) rotate(-60)" fill="#f7dd80"/>
    <rect id="Rectangle_21106" data-name="Rectangle 21106" width="4.415" height="4.415" transform="translate(2126.057 507.466) rotate(-60)" fill="#f7dd80"/>
    <rect id="Rectangle_21107" data-name="Rectangle 21107" width="4.415" height="4.415" transform="translate(2132.09 505.849) rotate(-60)" fill="#f7dd80"/>
    <rect id="Rectangle_21108" data-name="Rectangle 21108" width="4.415" height="4.415" transform="translate(2135.913 508.057) rotate(-60)" fill="#f7dd80"/>
    <rect id="Rectangle_21109" data-name="Rectangle 21109" width="4.415" height="4.415" transform="translate(2129.882 509.673) rotate(-60)" fill="#f7dd80"/>
    <rect id="Rectangle_21110" data-name="Rectangle 21110" width="4.415" height="4.415" transform="translate(2133.705 511.881) rotate(-60)" fill="#f7dd80"/>
    <rect id="Rectangle_21111" data-name="Rectangle 21111" width="4.415" height="4.415" transform="translate(2139.737 510.265) rotate(-60)" fill="#f7dd80"/>
    <rect id="Rectangle_21112" data-name="Rectangle 21112" width="4.415" height="4.415" transform="translate(2137.529 514.089) rotate(-60)" fill="#f7dd80"/>
    <rect id="Rectangle_21113" data-name="Rectangle 21113" width="4.415" height="4.415" transform="translate(2141.353 516.297) rotate(-60)" fill="#f7dd80"/>
    <rect id="Rectangle_21114" data-name="Rectangle 21114" width="4.415" height="4.415" transform="translate(2160.472 527.335) rotate(-60)" fill="#f7dd80"/>
    <rect id="Rectangle_21115" data-name="Rectangle 21115" width="4.415" height="4.415" transform="translate(2164.296 529.542) rotate(-60)" fill="#f7dd80"/>
    <rect id="Rectangle_21116" data-name="Rectangle 21116" width="4.415" height="4.415" transform="translate(2168.12 531.751) rotate(-60)" fill="#f7dd80"/>
    <rect id="Rectangle_21117" data-name="Rectangle 21117" width="4.415" height="4.415" transform="translate(2104.731 500.251) rotate(-60)" fill="#f7dd80"/>
    <rect id="Rectangle_21118" data-name="Rectangle 21118" width="4.415" height="4.415" transform="translate(2108.554 502.459) rotate(-60)" fill="#f7dd80"/>
    <rect id="Rectangle_21119" data-name="Rectangle 21119" width="4.415" height="4.415" transform="translate(2102.524 504.075) rotate(-60)" fill="#f7dd80"/>
    <rect id="Rectangle_21120" data-name="Rectangle 21120" width="4.415" height="4.415" transform="translate(2106.347 506.282) rotate(-60)" fill="#f7dd80"/>
    <rect id="Rectangle_21121" data-name="Rectangle 21121" width="4.415" height="4.415" transform="translate(2112.378 504.666) rotate(-60)" fill="#f7dd80"/>
    <rect id="Rectangle_21122" data-name="Rectangle 21122" width="4.415" height="4.415" transform="translate(2116.203 506.874) rotate(-60)" fill="#f7dd80"/>
    <rect id="Rectangle_21123" data-name="Rectangle 21123" width="4.415" height="4.415" transform="translate(2110.17 508.49) rotate(-60)" fill="#f7dd80"/>
    <rect id="Rectangle_21124" data-name="Rectangle 21124" width="4.415" height="4.415" transform="translate(2113.995 510.698) rotate(-60)" fill="#f7dd80"/>
    <rect id="Rectangle_21125" data-name="Rectangle 21125" width="4.415" height="4.415" transform="translate(2120.026 509.082) rotate(-60)" fill="#f7dd80"/>
    <rect id="Rectangle_21126" data-name="Rectangle 21126" width="4.415" height="4.415" transform="translate(2123.85 511.289) rotate(-60)" fill="#f7dd80"/>
    <rect id="Rectangle_21127" data-name="Rectangle 21127" width="4.415" height="4.415" transform="translate(2117.819 512.905) rotate(-60)" fill="#f7dd80"/>
    <rect id="Rectangle_21128" data-name="Rectangle 21128" width="4.415" height="4.415" transform="translate(2121.642 515.113) rotate(-60)" fill="#f7dd80"/>
    <rect id="Rectangle_21129" data-name="Rectangle 21129" width="4.415" height="4.415" transform="translate(2127.674 513.497) rotate(-60)" fill="#f7dd80"/>
    <rect id="Rectangle_21130" data-name="Rectangle 21130" width="4.415" height="4.415" transform="translate(2131.498 515.705) rotate(-60)" fill="#f7dd80"/>
    <rect id="Rectangle_21131" data-name="Rectangle 21131" width="4.415" height="4.415" transform="translate(2125.467 517.32) rotate(-60)" fill="#f7dd80"/>
    <rect id="Rectangle_21132" data-name="Rectangle 21132" width="4.415" height="4.415" transform="translate(2129.29 519.528) rotate(-60)" fill="#f7dd80"/>
    <rect id="Rectangle_21133" data-name="Rectangle 21133" width="4.415" height="4.415" transform="translate(2135.322 517.913) rotate(-60)" fill="#f7dd80"/>
    <rect id="Rectangle_21134" data-name="Rectangle 21134" width="4.415" height="4.415" transform="translate(2139.145 520.12) rotate(-60)" fill="#f7dd80"/>
    <rect id="Rectangle_21135" data-name="Rectangle 21135" width="4.415" height="4.415" transform="translate(2133.114 521.736) rotate(-60)" fill="#f7dd80"/>
    <rect id="Rectangle_21136" data-name="Rectangle 21136" width="4.415" height="4.415" transform="translate(2136.938 523.944) rotate(-60)" fill="#f7dd80"/>
    <rect id="Rectangle_21137" data-name="Rectangle 21137" width="4.415" height="4.415" transform="translate(2140.761 526.151) rotate(-60)" fill="#f7dd80"/>
    <rect id="Rectangle_21138" data-name="Rectangle 21138" width="4.415" height="4.415" transform="translate(2144.586 528.359) rotate(-60)" fill="#f7dd80"/>
    <rect id="Rectangle_21139" data-name="Rectangle 21139" width="4.415" height="4.415" transform="translate(2154.44 528.951) rotate(-60)" fill="#f7dd80"/>
    <rect id="Rectangle_21140" data-name="Rectangle 21140" width="4.415" height="4.415" transform="translate(2148.409 530.567) rotate(-60)" fill="#f7dd80"/>
    <rect id="Rectangle_21141" data-name="Rectangle 21141" width="4.415" height="4.415" transform="translate(2152.233 532.774) rotate(-60)" fill="#f7dd80"/>
    <rect id="Rectangle_21142" data-name="Rectangle 21142" width="4.415" height="4.415" transform="translate(2158.265 531.158) rotate(-60)" fill="#f7dd80"/>
    <rect id="Rectangle_21143" data-name="Rectangle 21143" width="4.415" height="4.415" transform="translate(2162.088 533.366) rotate(-60)" fill="#f7dd80"/>
    <rect id="Rectangle_21144" data-name="Rectangle 21144" width="4.415" height="4.415" transform="translate(2156.057 534.982) rotate(-60)" fill="#f7dd80"/>
    <rect id="Rectangle_21145" data-name="Rectangle 21145" width="4.415" height="4.415" transform="translate(2159.881 537.19) rotate(-60)" fill="#f7dd80"/>
    <rect id="Rectangle_21146" data-name="Rectangle 21146" width="4.415" height="4.415" transform="translate(2165.913 535.574) rotate(-60)" fill="#f7dd80"/>
    <rect id="Rectangle_21147" data-name="Rectangle 21147" width="4.415" height="4.415" transform="translate(2169.736 537.782) rotate(-60)" fill="#f7dd80"/>
    <rect id="Rectangle_21148" data-name="Rectangle 21148" width="4.415" height="4.415" transform="translate(2163.705 539.397) rotate(-60)" fill="#f7dd80"/>
    <rect id="Rectangle_21149" data-name="Rectangle 21149" width="4.415" height="4.415" transform="translate(2167.528 541.605) rotate(-60)" fill="#f7dd80"/>
    <rect id="Rectangle_21150" data-name="Rectangle 21150" width="4.415" height="4.415" transform="translate(2100.315 507.899) rotate(-60)" fill="#f7dd80"/>
    <rect id="Rectangle_21151" data-name="Rectangle 21151" width="4.415" height="4.415" transform="translate(2104.139 510.106) rotate(-60)" fill="#f7dd80"/>
    <rect id="Rectangle_21152" data-name="Rectangle 21152" width="4.415" height="4.415" transform="translate(2098.108 511.722) rotate(-60)" fill="#f7dd80"/>
    <rect id="Rectangle_21153" data-name="Rectangle 21153" width="4.415" height="4.415" transform="translate(2101.931 513.93) rotate(-60)" fill="#f7dd80"/>
    <rect id="Rectangle_21154" data-name="Rectangle 21154" width="4.415" height="4.415" transform="translate(2107.963 512.314) rotate(-60)" fill="#f7dd80"/>
    <rect id="Rectangle_21155" data-name="Rectangle 21155" width="4.415" height="4.415" transform="translate(2111.787 514.522) rotate(-60)" fill="#f7dd80"/>
    <rect id="Rectangle_21156" data-name="Rectangle 21156" width="4.415" height="4.415" transform="translate(2105.755 516.137) rotate(-60)" fill="#f7dd80"/>
    <rect id="Rectangle_21157" data-name="Rectangle 21157" width="4.415" height="4.415" transform="translate(2109.58 518.345) rotate(-60)" fill="#f7dd80"/>
    <rect id="Rectangle_21158" data-name="Rectangle 21158" width="4.415" height="4.415" transform="translate(2115.61 516.729) rotate(-60)" fill="#f7dd80"/>
    <rect id="Rectangle_21159" data-name="Rectangle 21159" width="4.415" height="4.415" transform="translate(2119.434 518.937) rotate(-60)" fill="#f7dd80"/>
    <rect id="Rectangle_21160" data-name="Rectangle 21160" width="4.415" height="4.415" transform="translate(2113.403 520.553) rotate(-60)" fill="#f7dd80"/>
    <rect id="Rectangle_21161" data-name="Rectangle 21161" width="4.415" height="4.415" transform="translate(2117.227 522.76) rotate(-60)" fill="#f7dd80"/>
    <rect id="Rectangle_21162" data-name="Rectangle 21162" width="4.415" height="4.415" transform="translate(2123.259 521.145) rotate(-60)" fill="#f7dd80"/>
    <rect id="Rectangle_21163" data-name="Rectangle 21163" width="4.415" height="4.415" transform="translate(2127.082 523.352) rotate(-60)" fill="#f7dd80"/>
    <rect id="Rectangle_21164" data-name="Rectangle 21164" width="4.415" height="4.415" transform="translate(2121.051 524.968) rotate(-60)" fill="#f7dd80"/>
    <rect id="Rectangle_21165" data-name="Rectangle 21165" width="4.415" height="4.415" transform="translate(2124.875 527.176) rotate(-60)" fill="#f7dd80"/>
    <rect id="Rectangle_21166" data-name="Rectangle 21166" width="4.415" height="4.415" transform="translate(2130.906 525.56) rotate(-60)" fill="#f7dd80"/>
    <rect id="Rectangle_21167" data-name="Rectangle 21167" width="4.415" height="4.415" transform="translate(2134.73 527.768) rotate(-60)" fill="#f7dd80"/>
    <rect id="Rectangle_21168" data-name="Rectangle 21168" width="4.415" height="4.415" transform="translate(2128.699 529.384) rotate(-60)" fill="#f7dd80"/>
    <rect id="Rectangle_21169" data-name="Rectangle 21169" width="4.415" height="4.415" transform="translate(2132.522 531.591) rotate(-60)" fill="#f7dd80"/>
    <rect id="Rectangle_21170" data-name="Rectangle 21170" width="4.415" height="4.415" transform="translate(2150.025 536.598) rotate(-60)" fill="#f7dd80"/>
    <rect id="Rectangle_21171" data-name="Rectangle 21171" width="4.415" height="4.415" transform="translate(2153.849 538.806) rotate(-60)" fill="#f7dd80"/>
    <rect id="Rectangle_21172" data-name="Rectangle 21172" width="4.415" height="4.415" transform="translate(2157.673 541.014) rotate(-60)" fill="#f7dd80"/>
    <rect id="Rectangle_21173" data-name="Rectangle 21173" width="4.415" height="4.415" transform="translate(2151.642 542.63) rotate(-60)" fill="#f7dd80"/>
    <rect id="Rectangle_21174" data-name="Rectangle 21174" width="4.415" height="4.415" transform="translate(2155.465 544.838) rotate(-60)" fill="#f7dd80"/>
    <rect id="Rectangle_21175" data-name="Rectangle 21175" width="4.415" height="4.415" transform="translate(2161.497 543.222) rotate(-60)" fill="#f7dd80"/>
    <rect id="Rectangle_21176" data-name="Rectangle 21176" width="4.415" height="4.415" transform="translate(2165.321 545.43) rotate(-60)" fill="#f7dd80"/>
    <rect id="Rectangle_21177" data-name="Rectangle 21177" width="4.415" height="4.415" transform="translate(2159.29 547.045) rotate(-60)" fill="#f7dd80"/>
    <rect id="Rectangle_21178" data-name="Rectangle 21178" width="4.415" height="4.415" transform="translate(2095.9 515.547) rotate(-60)" fill="#f7dd80"/>
    <rect id="Rectangle_21179" data-name="Rectangle 21179" width="4.415" height="4.415" transform="translate(2099.724 517.754) rotate(-60)" fill="#f7dd80"/>
    <rect id="Rectangle_21180" data-name="Rectangle 21180" width="4.415" height="4.415" transform="translate(2097.516 521.578) rotate(-60)" fill="#f7dd80"/>
    <rect id="Rectangle_21181" data-name="Rectangle 21181" width="4.415" height="4.415" transform="translate(2103.547 519.962) rotate(-60)" fill="#f7dd80"/>
    <rect id="Rectangle_21182" data-name="Rectangle 21182" width="4.415" height="4.415" transform="translate(2107.371 522.17) rotate(-60)" fill="#f7dd80"/>
    <rect id="Rectangle_21183" data-name="Rectangle 21183" width="4.415" height="4.415" transform="translate(2101.34 523.785) rotate(-60)" fill="#f7dd80"/>
    <rect id="Rectangle_21184" data-name="Rectangle 21184" width="4.415" height="4.415" transform="translate(2105.164 525.993) rotate(-60)" fill="#f7dd80"/>
    <rect id="Rectangle_21185" data-name="Rectangle 21185" width="4.415" height="4.415" transform="translate(2111.195 524.377) rotate(-60)" fill="#f7dd80"/>
    <rect id="Rectangle_21186" data-name="Rectangle 21186" width="4.415" height="4.415" transform="translate(2115.019 526.585) rotate(-60)" fill="#f7dd80"/>
    <rect id="Rectangle_21187" data-name="Rectangle 21187" width="4.415" height="4.415" transform="translate(2108.988 528.201) rotate(-60)" fill="#f7dd80"/>
    <rect id="Rectangle_21188" data-name="Rectangle 21188" width="4.415" height="4.415" transform="translate(2112.811 530.408) rotate(-60)" fill="#f7dd80"/>
    <rect id="Rectangle_21189" data-name="Rectangle 21189" width="4.415" height="4.415" transform="translate(2118.843 528.793) rotate(-60)" fill="#f7dd80"/>
    <rect id="Rectangle_21190" data-name="Rectangle 21190" width="4.415" height="4.415" transform="translate(2122.667 531) rotate(-60)" fill="#f7dd80"/>
    <rect id="Rectangle_21191" data-name="Rectangle 21191" width="4.415" height="4.415" transform="translate(2116.636 532.616) rotate(-60)" fill="#f7dd80"/>
    <rect id="Rectangle_21192" data-name="Rectangle 21192" width="4.415" height="4.415" transform="translate(2120.459 534.824) rotate(-60)" fill="#f7dd80"/>
    <rect id="Rectangle_21193" data-name="Rectangle 21193" width="4.415" height="4.415" transform="translate(2126.491 533.208) rotate(-60)" fill="#f7dd80"/>
    <rect id="Rectangle_21194" data-name="Rectangle 21194" width="4.415" height="4.415" transform="translate(2130.314 535.416) rotate(-60)" fill="#f7dd80"/>
    <rect id="Rectangle_21195" data-name="Rectangle 21195" width="4.415" height="4.415" transform="translate(2124.283 537.032) rotate(-60)" fill="#f7dd80"/>
    <rect id="Rectangle_21196" data-name="Rectangle 21196" width="4.415" height="4.415" transform="translate(2070.158 515.98) rotate(-60)" fill="#f7dd80"/>
    <rect id="Rectangle_21197" data-name="Rectangle 21197" width="4.415" height="4.415" transform="translate(2073.981 518.187) rotate(-60)" fill="#f7dd80"/>
    <rect id="Rectangle_21198" data-name="Rectangle 21198" width="4.415" height="4.415" transform="translate(2077.805 520.395) rotate(-60)" fill="#f7dd80"/>
    <rect id="Rectangle_21199" data-name="Rectangle 21199" width="4.415" height="4.415" transform="translate(2085.453 524.81) rotate(-60)" fill="#f7dd80"/>
    <rect id="Rectangle_21200" data-name="Rectangle 21200" width="4.415" height="4.415" transform="translate(2091.485 523.194) rotate(-60)" fill="#f7dd80"/>
    <rect id="Rectangle_21201" data-name="Rectangle 21201" width="4.415" height="4.415" transform="translate(2099.132 527.609) rotate(-60)" fill="#f7dd80"/>
    <rect id="Rectangle_21202" data-name="Rectangle 21202" width="4.415" height="4.415" transform="translate(2102.957 529.817) rotate(-60)" fill="#f7dd80"/>
    <rect id="Rectangle_21203" data-name="Rectangle 21203" width="4.415" height="4.415" transform="translate(2106.78 532.024) rotate(-60)" fill="#f7dd80"/>
    <rect id="Rectangle_21204" data-name="Rectangle 21204" width="4.415" height="4.415" transform="translate(2110.604 534.232) rotate(-60)" fill="#f7dd80"/>
    <rect id="Rectangle_21205" data-name="Rectangle 21205" width="4.415" height="4.415" transform="translate(2114.428 536.44) rotate(-60)" fill="#f7dd80"/>
    <rect id="Rectangle_21206" data-name="Rectangle 21206" width="4.415" height="4.415" transform="translate(2118.251 538.647) rotate(-60)" fill="#f7dd80"/>
    <rect id="Rectangle_21207" data-name="Rectangle 21207" width="4.415" height="4.415" transform="translate(2125.899 543.063) rotate(-60)" fill="#f7dd80"/>
    <rect id="Rectangle_21208" data-name="Rectangle 21208" width="4.415" height="4.415" transform="translate(2127.515 549.095) rotate(-60)" fill="#f7dd80"/>
    <rect id="Rectangle_21209" data-name="Rectangle 21209" width="4.415" height="4.415" transform="translate(2131.339 551.303) rotate(-60)" fill="#f7dd80"/>
    <rect id="Rectangle_21210" data-name="Rectangle 21210" width="4.415" height="4.415" transform="translate(2135.163 553.51) rotate(-60)" fill="#f7dd80"/>
    <rect id="Rectangle_21211" data-name="Rectangle 21211" width="4.415" height="4.415" transform="translate(2138.986 555.718) rotate(-60)" fill="#f7dd80"/>
    <rect id="Rectangle_21212" data-name="Rectangle 21212" width="4.415" height="4.415" transform="translate(2058.095 519.211) rotate(-60)" fill="#f7dd80"/>
    <rect id="Rectangle_21213" data-name="Rectangle 21213" width="4.415" height="4.415" transform="translate(2064.126 517.595) rotate(-60)" fill="#f7dd80"/>
    <rect id="Rectangle_21214" data-name="Rectangle 21214" width="4.415" height="4.415" transform="translate(2067.95 519.803) rotate(-60)" fill="#f7dd80"/>
    <rect id="Rectangle_21215" data-name="Rectangle 21215" width="4.415" height="4.415" transform="translate(2061.918 521.419) rotate(-60)" fill="#f7dd80"/>
    <rect id="Rectangle_21216" data-name="Rectangle 21216" width="4.415" height="4.415" transform="translate(2065.743 523.627) rotate(-60)" fill="#f7dd80"/>
    <rect id="Rectangle_21217" data-name="Rectangle 21217" width="4.415" height="4.415" transform="translate(2071.774 522.011) rotate(-60)" fill="#f7dd80"/>
    <rect id="Rectangle_21218" data-name="Rectangle 21218" width="4.415" height="4.415" transform="translate(2075.597 524.218) rotate(-60)" fill="#f7dd80"/>
    <rect id="Rectangle_21219" data-name="Rectangle 21219" width="4.415" height="4.415" transform="translate(2069.566 525.834) rotate(-60)" fill="#f7dd80"/>
    <rect id="Rectangle_21220" data-name="Rectangle 21220" width="4.415" height="4.415" transform="translate(2073.39 528.042) rotate(-60)" fill="#f7dd80"/>
    <rect id="Rectangle_21221" data-name="Rectangle 21221" width="4.415" height="4.415" transform="translate(2079.422 526.426) rotate(-60)" fill="#f7dd80"/>
    <rect id="Rectangle_21222" data-name="Rectangle 21222" width="4.415" height="4.415" transform="translate(2077.215 530.25) rotate(-60)" fill="#f7dd80"/>
    <rect id="Rectangle_21223" data-name="Rectangle 21223" width="4.415" height="4.415" transform="translate(2081.038 532.457) rotate(-60)" fill="#f7dd80"/>
    <rect id="Rectangle_21224" data-name="Rectangle 21224" width="4.415" height="4.415" transform="translate(2125.307 552.918) rotate(-60)" fill="#f7dd80"/>
    <rect id="Rectangle_21225" data-name="Rectangle 21225" width="4.415" height="4.415" transform="translate(2129.132 555.126) rotate(-60)" fill="#f7dd80"/>
    <rect id="Rectangle_21226" data-name="Rectangle 21226" width="4.415" height="4.415" transform="translate(2123.1 556.742) rotate(-60)" fill="#f7dd80"/>
    <rect id="Rectangle_21227" data-name="Rectangle 21227" width="4.415" height="4.415" transform="translate(2126.924 558.95) rotate(-60)" fill="#f7dd80"/>
    <rect id="Rectangle_21228" data-name="Rectangle 21228" width="4.415" height="4.415" transform="translate(2132.955 557.334) rotate(-60)" fill="#f7dd80"/>
    <rect id="Rectangle_21229" data-name="Rectangle 21229" width="4.415" height="4.415" transform="translate(2136.779 559.541) rotate(-60)" fill="#f7dd80"/>
    <rect id="Rectangle_21230" data-name="Rectangle 21230" width="4.415" height="4.415" transform="translate(2130.748 561.157) rotate(-60)" fill="#f7dd80"/>
    <rect id="Rectangle_21231" data-name="Rectangle 21231" width="4.415" height="4.415" transform="translate(2134.571 563.365) rotate(-60)" fill="#f7dd80"/>
    <rect id="Rectangle_21232" data-name="Rectangle 21232" width="4.415" height="4.415" transform="translate(2140.603 561.749) rotate(-60)" fill="#f7dd80"/>
    <rect id="Rectangle_21233" data-name="Rectangle 21233" width="4.415" height="4.415" transform="translate(2138.396 565.573) rotate(-60)" fill="#f7dd80"/>
    <rect id="Rectangle_21234" data-name="Rectangle 21234" width="4.415" height="4.415" transform="translate(2055.887 523.036) rotate(-60)" fill="#f7dd80"/>
    <rect id="Rectangle_21235" data-name="Rectangle 21235" width="4.415" height="4.415" transform="translate(2053.679 526.859) rotate(-60)" fill="#f7dd80"/>
    <rect id="Rectangle_21236" data-name="Rectangle 21236" width="4.415" height="4.415" transform="translate(2059.711 525.243) rotate(-60)" fill="#f7dd80"/>
    <rect id="Rectangle_21237" data-name="Rectangle 21237" width="4.415" height="4.415" transform="translate(2063.535 527.451) rotate(-60)" fill="#f7dd80"/>
    <rect id="Rectangle_21238" data-name="Rectangle 21238" width="4.415" height="4.415" transform="translate(2057.503 529.067) rotate(-60)" fill="#f7dd80"/>
    <rect id="Rectangle_21239" data-name="Rectangle 21239" width="4.415" height="4.415" transform="translate(2061.327 531.275) rotate(-60)" fill="#f7dd80"/>
    <rect id="Rectangle_21240" data-name="Rectangle 21240" width="4.415" height="4.415" transform="translate(2067.358 529.659) rotate(-60)" fill="#f7dd80"/>
    <rect id="Rectangle_21241" data-name="Rectangle 21241" width="4.415" height="4.415" transform="translate(2071.182 531.866) rotate(-60)" fill="#f7dd80"/>
    <rect id="Rectangle_21242" data-name="Rectangle 21242" width="4.415" height="4.415" transform="translate(2065.151 533.482) rotate(-60)" fill="#f7dd80"/>
    <rect id="Rectangle_21243" data-name="Rectangle 21243" width="4.415" height="4.415" transform="translate(2068.974 535.69) rotate(-60)" fill="#f7dd80"/>
    <rect id="Rectangle_21244" data-name="Rectangle 21244" width="4.415" height="4.415" transform="translate(2075.006 534.074) rotate(-60)" fill="#f7dd80"/>
    <rect id="Rectangle_21245" data-name="Rectangle 21245" width="4.415" height="4.415" transform="translate(2078.83 536.281) rotate(-60)" fill="#f7dd80"/>
    <rect id="Rectangle_21246" data-name="Rectangle 21246" width="4.415" height="4.415" transform="translate(2072.799 537.898) rotate(-60)" fill="#f7dd80"/>
    <rect id="Rectangle_21247" data-name="Rectangle 21247" width="4.415" height="4.415" transform="translate(2076.622 540.105) rotate(-60)" fill="#f7dd80"/>
    <rect id="Rectangle_21248" data-name="Rectangle 21248" width="4.415" height="4.415" transform="translate(2120.892 560.566) rotate(-60)" fill="#f7dd80"/>
    <rect id="Rectangle_21249" data-name="Rectangle 21249" width="4.415" height="4.415" transform="translate(2124.716 562.774) rotate(-60)" fill="#f7dd80"/>
    <rect id="Rectangle_21250" data-name="Rectangle 21250" width="4.415" height="4.415" transform="translate(2122.509 566.598) rotate(-60)" fill="#f7dd80"/>
    <rect id="Rectangle_21251" data-name="Rectangle 21251" width="4.415" height="4.415" transform="translate(2128.54 564.982) rotate(-60)" fill="#f7dd80"/>
    <rect id="Rectangle_21252" data-name="Rectangle 21252" width="4.415" height="4.415" transform="translate(2132.363 567.189) rotate(-60)" fill="#f7dd80"/>
    <rect id="Rectangle_21253" data-name="Rectangle 21253" width="4.415" height="4.415" transform="translate(2126.332 568.805) rotate(-60)" fill="#f7dd80"/>
    <rect id="Rectangle_21254" data-name="Rectangle 21254" width="4.415" height="4.415" transform="translate(2130.156 571.013) rotate(-60)" fill="#f7dd80"/>
    <rect id="Rectangle_21255" data-name="Rectangle 21255" width="4.415" height="4.415" transform="translate(2136.188 569.397) rotate(-60)" fill="#f7dd80"/>
    <rect id="Rectangle_21256" data-name="Rectangle 21256" width="4.415" height="4.415" transform="translate(2055.295 532.891) rotate(-60)" fill="#f7dd80"/>
    <rect id="Rectangle_21257" data-name="Rectangle 21257" width="4.415" height="4.415" transform="translate(2059.119 535.099) rotate(-60)" fill="#f7dd80"/>
    <rect id="Rectangle_21258" data-name="Rectangle 21258" width="4.415" height="4.415" transform="translate(2056.912 538.922) rotate(-60)" fill="#f7dd80"/>
    <rect id="Rectangle_21259" data-name="Rectangle 21259" width="4.415" height="4.415" transform="translate(2062.943 537.306) rotate(-60)" fill="#f7dd80"/>
    <rect id="Rectangle_21260" data-name="Rectangle 21260" width="4.415" height="4.415" transform="translate(2066.767 539.514) rotate(-60)" fill="#f7dd80"/>
    <rect id="Rectangle_21261" data-name="Rectangle 21261" width="4.415" height="4.415" transform="translate(2060.735 541.13) rotate(-60)" fill="#f7dd80"/>
    <rect id="Rectangle_21262" data-name="Rectangle 21262" width="4.415" height="4.415" transform="translate(2064.559 543.337) rotate(-60)" fill="#f7dd80"/>
    <rect id="Rectangle_21263" data-name="Rectangle 21263" width="4.415" height="4.415" transform="translate(2070.591 541.722) rotate(-60)" fill="#f7dd80"/>
  </g>
</svg>
