<svg xmlns="http://www.w3.org/2000/svg" width="740" height="97.999" viewBox="0 0 740 97.999">
  <g id="elon-t" transform="translate(-475 -39.001)">
    <g id="Exclusion_19" data-name="Exclusion 19" transform="translate(6642 5051)" fill="#15172a">
      <path d="M -5433.0009765625 -4915.99951171875 L -6159.43603515625 -4915.99951171875 L -6159.43603515625 -4916.40478515625 L -6159.43603515625 -4918.40478515625 L -6161.43603515625 -4918.40478515625 L -6165 -4918.40478515625 L -6165 -5007.59423828125 L -6161.43603515625 -5007.59423828125 L -6159.43603515625 -5007.59423828125 L -6159.43603515625 -5009.59423828125 L -6159.43603515625 -5009.9990234375 L -5433.0009765625 -5009.9990234375 L -5433.0009765625 -5008 L -5433.0009765625 -5006 L -5431.0009765625 -5006 L -5429 -5006 L -5429 -4920.00048828125 L -5431.0009765625 -4920.00048828125 L -5433.0009765625 -4920.00048828125 L -5433.0009765625 -4918.00048828125 L -5433.0009765625 -4915.99951171875 Z" stroke="none"/>
      <path d="M -5435.0009765625 -4917.99951171875 L -5435.0009765625 -4918.00048828125 L -5435.0009765625 -4922.00048828125 L -5431.0009765625 -4922.00048828125 L -5431 -4922.00048828125 L -5431 -5004 L -5431.0009765625 -5004 L -5435.0009765625 -5004 L -5435.0009765625 -5007.9990234375 L -6157.43603515625 -5007.9990234375 L -6157.43603515625 -5005.59423828125 L -6161.43603515625 -5005.59423828125 L -6163 -5005.59423828125 L -6163 -4920.40478515625 L -6161.43603515625 -4920.40478515625 L -6157.43603515625 -4920.40478515625 L -6157.43603515625 -4917.99951171875 L -5435.0009765625 -4917.99951171875 M -5431.0009765625 -4913.99951171875 L -6161.43603515625 -4913.99951171875 L -6161.43603515625 -4916.40478515625 L -6167 -4916.40478515625 L -6167 -5009.59423828125 L -6161.43603515625 -5009.59423828125 L -6161.43603515625 -5011.9990234375 L -5431.0009765625 -5011.9990234375 L -5431.0009765625 -5008 L -5427 -5008 L -5427 -4918.00048828125 L -5431.0009765625 -4918.00048828125 L -5431.0009765625 -4914.00048828125 L -5431.0009765625 -4913.99951171875 Z" stroke="none" fill="#fff"/>
    </g>
    <path id="Path_54370" data-name="Path 54370" d="M-256.272-24Zm4.5,0h1.5v4.5h-1.5V0h-1.5V-15h-1.5v1.5h-1.5V-15h1.5v-1.5h1.5v-3h1.5Zm6,0h1.5v4.5h9v3h-1.5V-15h-1.5v-1.5h1.5V-18h-9v1.5h-1.5V-15h-1.5v1.5h-1.5V-15h1.5v-1.5h1.5v-3h1.5Zm3,9h1.5V-1.5h-1.5V0h-1.5V-1.5h1.5Zm-3,3h1.5v3h-1.5v1.5h-1.5V-6h-1.5V-7.5h1.5V-9h1.5Zm6,0h1.5v1.5h-1.5Zm1.5,1.5h1.5V-9h-1.5Zm1.5,1.5h1.5v3h-1.5Zm-9,6h1.5v1.5h-1.5Zm15.9-21Zm6,1.5h10.5v15h6V-6h-7.5v1.5h-1.5V-6h-4.5v1.5h-1.5V-3h-1.5v1.5h-1.5V0h-1.5V-1.5h1.5V-3h1.5V-4.5h1.5V-6h-7.5V-7.5h6Zm1.5,1.5v3h7.5v-3Zm0,4.5V-15h7.5v-1.5Zm0,3V-12h7.5v-1.5Zm0,3v3h7.5v-3Zm7.5,6h1.5V-3h-1.5Zm1.5,1.5h1.5V0h-1.5Zm9.9-21Zm9,0h1.5v3h12v1.5h-13.5v3h9v15h-1.5V0h-1.5V-1.5h1.5V-6h-9V0h-1.5V-12h-1.5v1.5h-1.5V-9h-1.5v1.5h-1.5V-9h1.5v-1.5h1.5V-12h1.5v-1.5h1.5v-3h1.5v-3h-7.5V-21h9Zm-1.5,9v3h9v-3Zm0,4.5v3h9v-3Zm6,7.5h1.5v1.5h-1.5Zm12.9-21Zm6,0h1.5v4.5h-1.5V0h-1.5V-15h-1.5v1.5h-1.5V-12h-1.5v-1.5h1.5V-15h1.5v-1.5h1.5v-3h1.5Zm3,1.5h10.5v6h3V-15h-3v7.5h-1.5V-9h-4.5v3h-1.5v3h-1.5v1.5h-1.5V0h-1.5V-1.5h1.5V-3h1.5V-6h1.5V-9h-3v-1.5h3V-15h-4.5v-1.5h4.5V-21h-3Zm4.5,1.5v4.5h4.5V-21Zm0,6v4.5h4.5V-15Zm12.9-9Zm12,0h1.5v1.5h7.5V-21h-1.5v1.5h-1.5V-18h-1.5v1.5h-1.5V-15h-3v1.5h-3V-15h3v-1.5h3V-18h1.5v-1.5h1.5V-21h-4.5v1.5h-3V-18h-1.5v-1.5h1.5V-21h1.5Zm-10.5,1.5h7.5v3h-1.5v3h-1.5V-15h-1.5v-1.5h1.5v-3h1.5V-21h-4.5V-7.5h1.5V-6h-1.5V0h-1.5Zm12,3h1.5V-18h-1.5Zm3,3h3V-15h-3Zm-10.5,1.5h1.5v3h-1.5Zm13.5,0h3v1.5h-3V-12h-3v3h4.5v1.5h-4.5V-6h4.5v1.5h-4.5V-3h6v1.5h-15V-3h7.5V-4.5h-4.5V-6h4.5V-7.5h-4.5V-6h-1.5V-7.5h1.5v-3h1.5V-9h3v-3h-3v-1.5h7.5Zm-12,3h1.5v4.5h-1.5V-6h-1.5v1.5h-1.5V-6h1.5V-7.5h1.5Zm30.9,1.872a1.411,1.411,0,0,0-1.056.432,1.392,1.392,0,0,0-.408,1.056,1.428,1.428,0,0,0,.408,1.056,1.488,1.488,0,0,0,1.056.408,1.53,1.53,0,0,0,1.056-.408,1.449,1.449,0,0,0,.432-1.056,1.411,1.411,0,0,0-.432-1.056A1.449,1.449,0,0,0-112.272-10.128ZM-97.872-24Zm4.5,1.5h16.5V-21h-7.5v1.5h6V-18h-6v1.5h6V-15h-6v3h7.5v9h-1.5v1.5h-1.5V0h-1.5V-1.5h1.5V-3h1.5v-7.5h-15Zm1.5,1.5v1.5h6V-21Zm0,3v1.5h6V-18Zm0,3v3h6v-3Zm-3,6h1.5v4.5h-1.5V-3h-1.5V-4.5h1.5Zm3,0h1.5v1.5h-1.5Zm4.5,0h1.5v1.5h-1.5Zm4.5,0h1.5v1.5h-1.5Zm-7.5,1.5h1.5v3h-1.5Zm4.5,0h1.5v3h-1.5Zm4.5,0h1.5v3h-1.5Zm-1.5,4.5h1.5v1.5h-1.5Zm11.4-21Zm3,0h1.5v4.5h4.5V-24h1.5v4.5h1.5V-18h-1.5V-7.5h1.5V-6h-12V-7.5h3V-18h-1.5v-1.5h1.5Zm15,1.5h3V-21h-3v1.5h-3V-15h7.5v1.5h-3V0h-1.5V-13.5h-3v9h-1.5v3h-1.5V0h-1.5V-1.5h1.5v-3h1.5V-21h4.5Zm-13.5,4.5v3h4.5v-3Zm0,4.5V-12h4.5v-1.5Zm0,3v3h4.5v-3Zm0,6h1.5V-3h-1.5v1.5h-1.5V0h-1.5V-1.5h1.5V-3h1.5Zm3,0h1.5V-3h-1.5Zm1.5,1.5h1.5v1.5h-1.5Zm17.4-21Zm10.5,0h1.5v3h10.5v1.5h-10.5v3h6V-9h-3v7.5h-1.5V-9h-4.5v4.5h-1.5V-3h-1.5v1.5h-3V0h-3V-1.5h3V-3h3V-4.5h1.5V-9h-3v-7.5h6v-3h-10.5V-21h10.5Zm-4.5,9v4.5h10.5V-15Zm15,10.5h1.5V0h-7.5V-1.5h6Zm5.4-12.78H-8.3v3.48H-15.24v3.456h3.5v3.48h-3.5v3.48H-8.3V.024H-18.672Zm16.224-.072H1.008V-3.48H7.92V-.048H-2.448Zm16.224.024h3.48V-.072h-3.48Zm3.456,0h6.912V-.072H17.232V-3.456h3.5V-13.872h-3.5ZM30-17.3H40.368V0H36.96V-13.8H33.5V0H30Zm25.584-.024h3.408v3.5h3.5v3.456h3.456v-3.456h3.456v-3.5h3.384v17.3H69.408V-10.368H65.952V-6.96H62.5v-3.408h-3.5V-.024H55.584Zm23.088.048h3.456V-3.456h3.5V-17.28H89.04V-.024H78.672Zm16.272-.048h10.368v3.456H98.448v3.5h6.864V-.024H94.944V-3.5h6.96V-6.96h-6.96Zm16.248,0h3.456v6.984H118.1v-6.984h3.48v6.984H118.1v3.408h3.48V-.048H118.1V-6.936h-3.456V-.048h-3.456ZM127.344-24Zm4.5,0h1.5v3h-1.5v1.5h6V-15h1.5v-3h1.5v-6h1.5v4.5h6V-3h-1.5v1.5h-1.5V0h-1.5V-1.5h1.5V-3h1.5V-18h-6v3h-1.5v1.5h-1.5v12h-1.5V-3h-6v1.5h-1.5v-18h1.5V-21h1.5Zm-1.5,6v6h6v-6Zm10.5,4.5h1.5V-12h-1.5Zm1.5,1.5h1.5v3h-1.5Zm-12,1.5v6h6v-6Zm12,7.5h1.5v1.5h-1.5Zm11.4-21Zm6,0h1.5v3h7.5v-3h1.5v3h6v1.5h-6V-18h3v4.5h-16.5V-18h3v-1.5h-6V-21h6Zm1.5,4.5V-18h7.5v-1.5Zm-3,3V-15h3v-1.5Zm4.5,0V-15h4.5v-1.5Zm6,0V-15h3v-1.5Zm-13.5,4.5h21v3h-1.5v1.5h-1.5V-9h1.5v-1.5h-10.5V-9h7.5v3h-1.5v1.5h-3V-3h-3v1.5h-3V0h-6V-1.5h6V-3h3V-4.5h3V-6h3V-7.5h-7.5V-6h-3v1.5h-3V-6h3V-7.5h1.5V-9h1.5v-1.5h-6V-9h-1.5v1.5h-1.5V-9h1.5Zm7.5,6h1.5v1.5h-1.5Zm17.4-18Zm6,0h1.5v4.5h3V-18h-3v1.5h1.5V-15h-1.5v7.5h-1.5V-15h-1.5v1.5h-1.5V-12h-1.5v-1.5h1.5V-15h1.5v-1.5h1.5V-18h-4.5v-1.5h4.5Zm6,1.5h7.5V-9h-7.5Zm1.5,1.5v3h4.5v-3Zm0,4.5V-15h4.5v-1.5Zm-4.5,1.5h1.5v1.5h-1.5Zm4.5,1.5v3h4.5v-3Zm-4.5,4.5h1.5v1.5h-1.5Zm1.5,1.5h1.5v3h-1.5Zm-7.5,1.5h1.5v3h-1.5v1.5h-1.5V-3h1.5Zm3,0h1.5v4.5h-1.5Zm12,0h1.5v1.5h-1.5Zm-3,1.5h1.5V0h-9V-1.5h7.5Zm4.5,0h1.5v3h-1.5Zm6.948-12.828h6.864v3.5h-3.408V-3.456h3.408V-.072h-6.864Zm6.864,3.5h3.408V-3.456h-3.408Zm9.312-3.528h3.5v3.5h3.456v3.456h3.408v-6.96h3.5v17.3h-3.456V-6.984h-3.456v-3.408h-3.456V-.048h-3.5Zm19.68.024h10.368v17.3h-3.5v-13.8h-3.456v13.8h-3.408Zm3.408,6.96h3.456V-6.96h-3.456Z" transform="translate(845 98)" fill="#fff"/>
  </g>
</svg>
