<svg xmlns="http://www.w3.org/2000/svg" width="734.65" height="306.996" viewBox="0 0 734.65 306.996">
  <path id="elon-d" d="M18.2,8.844V26.008h2.044V10.72H27.16V8.844ZM30.8,4ZM43.05,4H44.8V5.75H43.05ZM44.8,5.75h1.75v3.5H44.8Zm1.75,3.5H48.3v3.5H46.55ZM37.8,11h1.75V28.5H37.8Zm-3.5,3.5h1.75v5.25H34.3v3.5H32.55V25H30.8V23.25h1.75v-3.5H34.3Zm17.5,0h1.75v1.75H51.8Zm1.75,1.75H55.3v3.5H53.55Zm1.75,3.5h1.75v3.5H55.3Zm-5.25,3.5H51.8v7H39.55V28.5h10.5ZM61.6,4ZM72.1,4h1.75V7.5h14V9.25H72.1v3.5H82.6v17.5H80.85V32H79.1V30.25h1.75V25H70.35v7H68.6V18H66.85v1.75H65.1V21.5H63.35v1.75H61.6V21.5h1.75V19.75H65.1V18h1.75V16.25H68.6v-3.5h1.75V9.25H61.6V7.5H72.1ZM70.35,14.5V18h10.5V14.5Zm0,5.25v3.5h10.5v-3.5Zm7,8.75H79.1v1.75H77.35ZM92.4,4Zm10.5,0h1.75V7.5h8.75V9.25h-1.75V11H109.9v1.75h-1.75V14.5h-3.5v1.75H102.9V18H99.4v1.75H94.15V18H99.4V16.25h3.5V14.5h1.75V12.75h3.5V11h1.75V9.25h-8.75v3.5h-3.5V14.5H95.9V12.75h1.75V11H99.4V9.25h1.75V7.5h1.75Zm-1.75,8.75h1.75V14.5h-1.75Zm7,1.75h1.75v1.75h-1.75V18h8.75v1.75h-1.75V21.5H113.4v1.75h-1.75V25H109.9v1.75h-1.75V28.5h-3.5v1.75H99.4V32H94.15V30.25H99.4V28.5h5.25V25h1.75v1.75h1.75V25h1.75V23.25h1.75V21.5h1.75V19.75h-8.75V21.5H102.9v1.75H99.4V25H95.9V23.25h3.5V21.5h3.5V19.75h1.75V18h1.75V16.25h1.75Zm-5.25,8.75h1.75V25H102.9ZM123.2,4Zm12.25,0h1.75v8.75h12.25V14.5H137.2v1.75h-1.75V21.5H133.7V25h-1.75v1.75H130.2V28.5h-1.75v1.75H126.7V32h-1.75V30.25h1.75V28.5h1.75V26.75h1.75V25h1.75V21.5h1.75V16.25h1.75V14.5H123.2V12.75h12.25Zm1.75,12.25h1.75v3.5H137.2Zm1.75,3.5h1.75v3.5h-1.75Zm1.75,3.5h1.75V25H140.7ZM142.45,25h1.75v1.75h-1.75Zm1.75,1.75h5.25V28.5H147.7v1.75h-1.75V28.5H144.2Zm23.772-6.762a1.694,1.694,0,0,0-1.316.476,1.625,1.625,0,0,0-.5,1.26,1.666,1.666,0,0,0,.476,1.232,1.628,1.628,0,0,0,1.2.5,1.5,1.5,0,0,0,.616-.112,3.3,3.3,0,0,1-.588,1.876,4.049,4.049,0,0,1-1.792,1.232v1.372a5.4,5.4,0,0,0,2.884-1.82,5.247,5.247,0,0,0,1.092-3.276,3.253,3.253,0,0,0-.56-1.96A1.788,1.788,0,0,0,167.972,19.988ZM184.8,4Zm3.5,0h21V9.25h-3.5V11h-1.75v1.75H202.3V11h1.75V9.25h-3.5V14.5h3.5V12.75h1.75V14.5h1.75V18h1.75V30.25h-1.75V32H205.8V30.25h1.75V19.75h-7V21.5h5.25v8.75h-14V28.5h7V26.75h-5.25v-3.5H191.8V25h-1.75v1.75H188.3v3.5h-1.75V32H184.8V30.25h1.75v-3.5h1.75Zm1.75,1.75V7.5h17.5V5.75Zm0,3.5v14h1.75V21.5h1.75V19.75H191.8V14.5h1.75V12.75h1.75V11h1.75v1.75H195.3V14.5h3.5V9.25h-3.5V11h-1.75V9.25Zm3.5,7V18h3.5V16.25Zm5.25,0V18h1.75V16.25Zm3.5,0V18h3.5V16.25Zm-7,3.5V21.5h3.5V19.75Zm0,3.5V25h3.5V23.25Zm5.25,0V25h3.5V23.25Zm0,3.5V28.5h3.5V26.75ZM215.6,4Zm3.5,0h1.75V5.75H219.1Zm14,0h1.75V9.25H233.1v3.5h-1.75V14.5H229.6v1.75h-1.75V18H226.1V28.5h-1.75v1.75H222.6V28.5h1.75V16.25h-3.5V25H219.1v3.5h-1.75v1.75H215.6V28.5h1.75V25h1.75V11h-3.5V9.25h12.25V11h-7v3.5h5.25v1.75h1.75V14.5h1.75V12.75h1.75V9.25h1.75ZM220.85,5.75h1.75V7.5h-1.75Zm14,3.5h1.75v3.5h-1.75Zm1.75,3.5h1.75V14.5H236.6Zm1.75,1.75h3.5v1.75H240.1V18h-1.75Zm-7,3.5h3.5v1.75h-3.5Zm3.5,1.75h1.75V21.5h-1.75ZM229.6,25h3.5v1.75h-3.5Zm-8.75,1.75h1.75V28.5h-1.75Zm12.25,0h3.5v3.5h-1.75V28.5H233.1ZM246.4,4Zm5.25,0h1.75V9.25h-1.75V32H249.9V14.5h-1.75v1.75H246.4V14.5h1.75V12.75h1.75V9.25h1.75Zm7,0h1.75V9.25h10.5v3.5h-1.75V14.5H267.4V12.75h1.75V11h-10.5v1.75H256.9V14.5h-1.75v1.75H253.4V14.5h1.75V12.75h1.75V9.25h1.75Zm3.5,10.5h1.75V30.25h-1.75V32H260.4V30.25h1.75Zm-3.5,3.5h1.75v3.5h-1.75v1.75H256.9V25h-1.75V23.25h1.75V21.5h1.75Zm7,0h1.75v1.75h-1.75Zm1.75,1.75h1.75V21.5H267.4Zm1.75,1.75h1.75V25h-1.75Zm-10.5,7h1.75v1.75h-1.75ZM277.2,4Zm5.25,0h1.75V7.5h-1.75V9.25h7V14.5h1.75V11h1.75V4h1.75V9.25h7V28.5h-1.75v1.75H298.2V32h-1.75V30.25h1.75V28.5h1.75V11h-7v3.5H291.2v1.75h-1.75v14H287.7V28.5h-7v1.75h-1.75v-21h1.75V7.5h1.75Zm-1.75,7v7h7V11Zm12.25,5.25h1.75V18h-1.75ZM294.7,18h1.75v3.5H294.7Zm-14,1.75v7h7v-7Zm14,8.75h1.75v1.75H294.7ZM308,4Zm3.5,0h1.75V5.75H332.5V7.5H329V11h3.5v1.75H329v3.5h5.25V18h-7v3.5h3.5v1.75h-3.5v3.5h5.25V28.5h-5.25V32H325.5V28.5h-5.25V25H322v1.75h3.5v-3.5H322V21.5h3.5V18H315v3.5h5.25V25H318.5v1.75h-1.75V28.5H315v1.75h-3.5V32H308V30.25h3.5V28.5H315V26.75h1.75V25h1.75V23.25h-5.25V25H311.5v1.75h-1.75V25h1.75V21.5h1.75V18H308V16.25h3.5v-3.5h-1.75V11h1.75V9.25h-1.75V11H308V9.25h1.75V7.5h1.75Zm1.75,3.5V11h3.5V7.5Zm5.25,0V11H322V7.5Zm5.25,0V11h3.5V7.5Zm-10.5,5.25v3.5h3.5v-3.5Zm5.25,0v3.5H322v-3.5Zm5.25,0v3.5h3.5v-3.5ZM313.25,25H315v1.75h-1.75ZM338.8,4Zm10.5,0h1.75V7.5H349.3V9.25h-1.75V11H345.8v1.75h-1.75V14.5H359.8V12.75h1.75V14.5h1.75V18h-1.75V16.25h-17.5V18H342.3V16.25h-1.75V14.5h1.75V12.75h1.75V11h1.75V9.25h1.75V7.5h1.75Zm7,5.25h1.75V11H356.3ZM358.05,11h1.75v1.75h-1.75Zm-14,8.75H359.8V32h-1.75V30.25H345.8V32h-1.75Zm1.75,1.75v7h12.25v-7ZM369.6,4Zm3.5,0h1.75V5.75H373.1Zm12.25,0h1.75v8.75h8.75V14.5H390.6v14h-1.75v-14H387.1V25h-1.75v3.5H383.6v1.75h-1.75V32H380.1V30.25h1.75V28.5h1.75V25h1.75V14.5H380.1v7h-3.5v8.75h-1.75V32H373.1V30.25h1.75V21.5h-3.5v-7h8.75V12.75h5.25Zm-10.5,1.75h1.75V7.5h-1.75Zm14,0h1.75V7.5h-1.75ZM390.6,7.5h1.75V9.25H390.6Zm-21,1.75h12.25V11H369.6Zm3.5,7v3.5h5.25v-3.5Zm-1.75,7h1.75V25h-1.75v1.75H369.6V25h1.75Zm7,0h1.75V25h-1.75ZM380.1,25h1.75v1.75H380.1Zm14,0h1.75v5.25H390.6V28.5h3.5Zm-22.75,3.5h1.75v1.75h-1.75ZM400.4,4Zm10.5,0h1.75V7.5h14V9.25H410.9v3.5h10.5v17.5h-1.75V32H417.9V30.25h1.75V25h-10.5v7H407.4V18h-1.75v1.75H403.9V21.5h-1.75v1.75H400.4V21.5h1.75V19.75h1.75V18h1.75V16.25h1.75v-3.5h1.75V9.25H400.4V7.5h10.5Zm-1.75,10.5V18h10.5V14.5Zm0,5.25v3.5h10.5v-3.5Zm7,8.75h1.75v1.75h-1.75ZM431.2,4Zm10.5,0h1.75V7.5h8.75V9.25h-1.75V11H448.7v1.75h-1.75V14.5h-3.5v1.75H441.7V18h-3.5v1.75h-5.25V18h5.25V16.25h3.5V14.5h1.75V12.75h3.5V11h1.75V9.25h-8.75v3.5h-3.5V14.5H434.7V12.75h1.75V11h1.75V9.25h1.75V7.5h1.75Zm-1.75,8.75h1.75V14.5h-1.75Zm7,1.75h1.75v1.75h-1.75V18h8.75v1.75h-1.75V21.5H452.2v1.75h-1.75V25H448.7v1.75h-1.75V28.5h-3.5v1.75H438.2V32h-5.25V30.25h5.25V28.5h5.25V25h1.75v1.75h1.75V25h1.75V23.25h1.75V21.5h1.75V19.75h-8.75V21.5H441.7v1.75h-3.5V25h-3.5V23.25h3.5V21.5h3.5V19.75h1.75V18h1.75V16.25h1.75Zm-5.25,8.75h1.75V25H441.7ZM462,4Zm12.25,0H476v8.75h12.25V14.5H476v1.75h-1.75V21.5H472.5V25h-1.75v1.75H469V28.5h-1.75v1.75H465.5V32h-1.75V30.25h1.75V28.5h1.75V26.75H469V25h1.75V21.5h1.75V16.25h1.75V14.5H462V12.75h12.25ZM476,16.25h1.75v3.5H476Zm1.75,3.5h1.75v3.5h-1.75Zm1.75,3.5h1.75V25H479.5ZM481.25,25H483v1.75h-1.75ZM483,26.75h5.25V28.5H486.5v1.75h-1.75V28.5H483Zm17.556-8.918V33.12H493.64V35h8.96V17.832Zm37.044.56a3.594,3.594,0,0,0-2.576,1.008,3.262,3.262,0,0,0-1.064,2.52,3.2,3.2,0,0,0,1.064,2.492,3.618,3.618,0,0,0,2.576,1.036,3.666,3.666,0,0,0,2.576-1.036,3.483,3.483,0,0,0,0-5.012A3.641,3.641,0,0,0,537.6,18.392Zm0,1.484a2.12,2.12,0,0,1,1.484.588,1.954,1.954,0,0,1,.644,1.456,2,2,0,0,1-.644,1.456,2.12,2.12,0,0,1-1.484.588,2.027,2.027,0,0,1-1.484-.588,1.858,1.858,0,0,1-.644-1.456,1.819,1.819,0,0,1,.644-1.456A2.027,2.027,0,0,1,537.6,19.876Zm16.856-8.092h12.1v4.032h-8.008V19.9h8.008V31.972h-12.1v-4.06h8.12V23.88h-8.12Zm26.992,12.068h-4.032v8.092h-4.032V11.756h12.152v4.032h-8.064V19.82h3.976Zm.056-8.064h4.032l-.028,8.064h-4.032Zm10.752-4h12.1V31.972h-4.088v-16.1h-4.032v16.1h-3.976Zm3.976,8.12h4.032V23.88h-4.032Zm14.952-8.12h12.04v4h-8.036V28h8.036v3.976h-12.04Zm18.928.056h12.1V15.9h-8.092v4.032H638.2v4.06h-4.088v4.06h8.092v3.976h-12.1Zm18.984-.056h4.032v8.148h4.032V11.784h4.06v8.148h-4.06v3.976h4.06v8.036h-4.06V23.908h-4.032v8.036H649.1V23.908h4.032V19.932H649.1ZM667.968,4Zm10.5,0h1.75V7.5h3.5V9.25h-3.5v3.5h3.5V21.5h5.25V18h-3.5V16.25h3.5V14.5h-3.5V12.75h3.5V9.25h-3.5V7.5h5.25v14h3.5v1.75h-26.25V21.5h3.5V7.5h3.5V5.75h1.75V7.5h-1.75V9.25h-1.75v3.5h3.5V14.5h-3.5v1.75h3.5V18h-3.5v3.5h5.25V16.25h1.75V21.5h1.75v-7h-3.5Zm-1.75,21h1.75v1.75h-1.75V28.5h-1.75v1.75h-1.75V32h-1.75V30.25h1.75V28.5h1.75V26.75h1.75Zm7,0h1.75v1.75h-1.75Zm1.75,1.75h1.75V28.5h-1.75Zm1.75,1.75h3.5V32h-1.75V30.25h-1.75ZM698.768,4Zm7,0h1.75v7h3.5v1.75h-3.5V18h3.5v1.75h-3.5V32h-1.75V21.5h-3.5v1.75h-1.75V21.5h-1.75V19.75h7v-7h-3.5V14.5h-1.75v1.75h-1.75V14.5h1.75v-7h1.75V11h3.5Zm10.5,0h1.75V7.5h5.25V9.25h-5.25V14.5h7v1.75h-3.5v3.5h3.5V21.5h-3.5v8.75h-1.75V32h-1.75V30.25h1.75V21.5h-5.25v1.75h-1.75V21.5h-1.75V19.75h8.75v-3.5h-10.5V14.5h7V9.25h-5.25V7.5h5.25Zm-1.75,19.25h1.75v3.5h-1.75Zm1.75,5.25h1.75v1.75h-1.75ZM0,50Zm3.5,0H5.25v5.25H10.5V50h1.75v5.25H14V57H12.25V69.25H14V71H0V69.25H3.5V57H1.75V55.25H3.5ZM21,51.75h3.5V53.5H21v1.75H17.5V60.5h8.75v1.75h-3.5V78H21V62.25H17.5v10.5H15.75v3.5H14V78H12.25V76.25H14v-3.5h1.75V53.5H21ZM5.25,57v3.5H10.5V57Zm0,5.25V64H10.5V62.25Zm0,3.5v3.5H10.5v-3.5Zm0,7H7V74.5H5.25v1.75H3.5V78H1.75V76.25H3.5V74.5H5.25Zm3.5,0H10.5V74.5H8.75ZM10.5,74.5h1.75v1.75H10.5ZM30.8,50Zm5.25,0H37.8v7h3.5V55.25h5.25v-3.5H48.3v3.5h7V57h-14v1.75H37.8v3.5h1.75V60.5H41.3v1.75H39.55V64H37.8V76.25H36.05V78H34.3V76.25h1.75V65.75H34.3V67.5H30.8V65.75h3.5V64h1.75V58.75H30.8V57h5.25Zm8.75,0h1.75v1.75H44.8Zm-1.75,8.75H44.8V64H43.05Zm8.75,0h1.75V64H51.8v5.25H50.05v3.5H48.3V74.5h8.75v1.75H39.55V74.5h7V72.75H48.3v-3.5h1.75V64H51.8ZM44.8,64h1.75v7H44.8ZM32.55,74.5H34.3v1.75H32.55ZM61.6,50Zm7,0h1.75v3.5H68.6V57H66.85v1.75H65.1V60.5H63.35v1.75H61.6V60.5h1.75V58.75H65.1V57h1.75V53.5H68.6Zm15.75,0H86.1V76.25H84.35V78H82.6V76.25h1.75Zm-14,3.5H72.1v1.75H70.35Zm1.75,1.75h1.75V57H72.1Zm7,0h1.75V71H79.1ZM68.6,57h1.75v1.75H68.6Zm5.25,0h3.5v3.5H75.6v8.75H66.85V71H75.6v7H73.85V76.25H68.6V78H66.85V72.75H65.1v3.5H63.35V78H61.6V76.25h1.75v-3.5H65.1V60.5h5.25V58.75H72.1V60.5h3.5V58.75H73.85Zm-7,5.25V64h7V62.25Zm0,3.5V67.5h7V65.75Zm1.75,7V74.5h5.25V72.75ZM80.85,74.5H82.6v1.75H80.85ZM92.4,50Zm5.25,0H99.4v1.75H97.65Zm7,0h1.75v7h3.5v5.25h3.5V60.5h1.75V57h1.75v3.5h-1.75v1.75h3.5V64h-3.5v3.5h3.5v1.75h-3.5V78H113.4V69.25h-3.5v7h-1.75V78H106.4V76.25h1.75V58.75H106.4V71h-1.75v3.5H102.9v1.75h-1.75V78H99.4V76.25h1.75V74.5h1.75V71h1.75V64H99.4v3.5h3.5v1.75H99.4v3.5H97.65V74.5H95.9v1.75H94.15V78H92.4V76.25h1.75V74.5H95.9V72.75h1.75v-3.5h-3.5V67.5h3.5V64H92.4V62.25h5.25V60.5H99.4V57h1.75v3.5H99.4v1.75h5.25v-3.5H102.9V57h1.75Zm7,0h1.75v1.75h-1.75ZM99.4,51.75h1.75V53.5h1.75v1.75H94.15V53.5H99.4Zm14,0h1.75V53.5h3.5v1.75H109.9V53.5h3.5ZM95.9,57h1.75v3.5H95.9Zm15.75,0h1.75v3.5h-1.75Zm-1.75,7v3.5h3.5V64Zm-5.25,10.5h1.75v1.75h-1.75ZM123.2,50Zm12.25,0h1.75V62.25h-1.75V67.5H133.7V71h-1.75v1.75H130.2V74.5h-1.75v1.75H126.7V78h-1.75V76.25h1.75V74.5h1.75V72.75h1.75V71h1.75V67.5h1.75V62.25h1.75Zm1.75,12.25h1.75V67.5H137.2Zm1.75,5.25h1.75V71h-1.75ZM140.7,71h1.75v1.75H140.7Zm1.75,1.75h1.75V74.5h-1.75Zm1.75,1.75h5.25v1.75H147.7V78h-1.75V76.25H144.2ZM154,50Zm7,0h1.75v5.25H161V78h-1.75V60.5H157.5v1.75h-1.75V64H154V62.25h1.75V60.5h1.75V58.75h1.75v-3.5H161Zm3.5,1.75h12.25v7h3.5V60.5h-3.5v8.75H175V67.5h-5.25V71H168v3.5h-1.75v1.75H164.5V78h-1.75V76.25h1.75V74.5h1.75V71H168V67.5h-3.5V65.75H168V60.5h-5.25V58.75H168V53.5h-3.5Zm5.25,1.75v5.25H175V53.5Zm0,7v5.25H175V60.5ZM184.8,50Zm14,0h1.75v1.75h8.75V53.5h-1.75v1.75H205.8V57h-1.75v1.75H202.3V60.5h-3.5v1.75h-3.5V60.5h3.5V58.75h3.5V57h1.75V55.25h1.75V53.5h-5.25v1.75h-3.5V57H195.3V55.25h1.75V53.5h1.75Zm-12.25,1.75h8.75v3.5h-1.75v3.5H191.8V60.5h-1.75V58.75h1.75v-3.5h1.75V53.5H188.3V69.25h1.75V71H188.3v7h-1.75Zm14,3.5h1.75V57h-1.75Zm3.5,3.5h3.5V60.5h-3.5ZM191.8,60.5h1.75V64H191.8Zm15.75,0h3.5v1.75h-3.5V64h-3.5v3.5h5.25v1.75h-5.25V71h5.25v1.75h-5.25V74.5h7v1.75h-17.5V74.5h8.75V72.75h-5.25V71h5.25V69.25h-5.25V71H195.3V69.25h1.75v-3.5h1.75V67.5h3.5V64h-3.5V62.25h8.75Zm-14,3.5h1.75v5.25h-1.75V71H191.8v1.75h-1.75V71h1.75V69.25h1.75Zm36.05,2.184a1.647,1.647,0,0,0-1.232.5,1.624,1.624,0,0,0-.476,1.232,1.666,1.666,0,0,0,.476,1.232,1.736,1.736,0,0,0,1.232.476,1.785,1.785,0,0,0,1.232-.476,1.691,1.691,0,0,0,.5-1.232,1.647,1.647,0,0,0-.5-1.232A1.691,1.691,0,0,0,229.6,66.184ZM246.4,50Zm5.25,1.75H270.9V53.5h-8.75v1.75h7V57h-7v1.75h7V60.5h-7V64h8.75V74.5h-1.75v1.75H267.4V78h-1.75V76.25h1.75V74.5h1.75V65.75h-17.5Zm1.75,1.75v1.75h7V53.5Zm0,3.5v1.75h7V57Zm0,3.5V64h7V60.5Zm-3.5,7h1.75v5.25H249.9V74.5h-1.75V72.75h1.75Zm3.5,0h1.75v1.75H253.4Zm5.25,0h1.75v1.75h-1.75Zm5.25,0h1.75v1.75H263.9Zm-8.75,1.75h1.75v3.5h-1.75Zm5.25,0h1.75v3.5H260.4Zm5.25,0h1.75v3.5h-1.75ZM263.9,74.5h1.75v1.75H263.9ZM277.2,50Zm3.5,0h1.75v5.25h5.25V50h1.75v5.25h1.75V57h-1.75V69.25h1.75V71h-14V69.25h3.5V57h-1.75V55.25h1.75Zm17.5,1.75h3.5V53.5h-3.5v1.75h-3.5V60.5h8.75v1.75h-3.5V78H298.2V62.25h-3.5v10.5h-1.75v3.5H291.2V78h-1.75V76.25h1.75v-3.5h1.75V53.5h5.25ZM282.45,57v3.5h5.25V57Zm0,5.25V64h5.25V62.25Zm0,3.5v3.5h5.25v-3.5Zm0,7h1.75V74.5h-1.75v1.75H280.7V78h-1.75V76.25h1.75V74.5h1.75Zm3.5,0h1.75V74.5h-1.75Zm1.75,1.75h1.75v1.75H287.7ZM308,50Zm12.25,0H322v3.5h12.25v1.75H322v3.5h7V67.5h-3.5v8.75h-1.75V67.5H318.5v5.25h-1.75V74.5H315v1.75h-3.5V78H308V76.25h3.5V74.5H315V72.75h1.75V67.5h-3.5V58.75h7v-3.5H308V53.5h12.25ZM315,60.5v5.25h12.25V60.5Zm17.5,12.25h1.75V78H325.5V76.25h7Zm20.272-6.762a1.694,1.694,0,0,0-1.316.476,1.625,1.625,0,0,0-.5,1.26,1.666,1.666,0,0,0,.476,1.232,1.628,1.628,0,0,0,1.2.5,1.5,1.5,0,0,0,.616-.112,3.3,3.3,0,0,1-.588,1.876,4.049,4.049,0,0,1-1.792,1.232v1.372a5.4,5.4,0,0,0,2.884-1.82,5.247,5.247,0,0,0,1.092-3.276,3.253,3.253,0,0,0-.56-1.96A1.788,1.788,0,0,0,352.772,65.988ZM369.6,50Zm7,0h1.75v1.75h3.5V53.5h-3.5v1.75h3.5V57h-3.5v5.25h3.5V60.5h1.75V51.75h7V50h3.5v1.75h-3.5V53.5h-5.25v1.75h10.5V57H390.6v5.25h3.5V64H371.35V62.25h3.5V60.5h1.75V58.75h-5.25V57h5.25V53.5h-5.25V51.75h5.25Zm8.75,7v3.5H383.6v1.75h5.25V57Zm-5.25,1.75h1.75V60.5H380.1Zm-5.25,7H390.6V67.5H374.85Zm0,3.5H390.6V71H374.85Zm0,3.5H390.6V78H374.85Zm1.75,1.75v1.75h12.25V74.5ZM400.4,50Zm10.5,0h1.75v1.75H410.9Zm1.75,1.75h1.75V53.5h12.25v1.75H400.4V53.5h12.25Zm-8.75,7h19.25V60.5H403.9Zm0,5.25h19.25v1.75H403.9Zm1.75,5.25H421.4V78h-1.75V76.25H407.4V78h-1.75ZM407.4,71v3.5h12.25V71Zm23.8-21Zm1.75,1.75H455.7V53.5h-7V57h5.25v7h-10.5v1.75h14V67.5h-7V71H448.7v1.75h-1.75V74.5h-3.5v1.75h-3.5V78H434.7V76.25h5.25V74.5h3.5V72.75h3.5V71h1.75V67.5h-7v1.75h-1.75V71H438.2V69.25h1.75V67.5H431.2V65.75h10.5V64h-7V57h5.25V53.5h-7Zm8.75,1.75V57h5.25V53.5Zm-5.25,5.25v3.5h3.5v-3.5Zm5.25,0v3.5h5.25v-3.5Zm7,0v3.5h3.5v-3.5ZM439.95,71h3.5v1.75h-3.5Zm7,3.5h3.5v1.75h-3.5Zm3.5,1.75h1.75V78h-1.75ZM462,50Zm3.5,0h1.75v1.75H465.5Zm14,0h1.75v1.75h7V53.5H472.5V51.75h7Zm-12.25,1.75H469V53.5h-1.75ZM462,55.25h8.75V57H462Zm10.5,0h7V60.5h-1.75v1.75h3.5v-7h7V60.5H483v1.75h5.25V64H483v1.75h3.5V67.5H483v1.75h5.25V71h-7v1.75H479.5V71h-1.75v3.5h1.75v1.75h-1.75V78H476V74.5h-1.75v1.75H469V74.5h-3.5v1.75h-1.75V65.75h7v3.5H476V67.5h-3.5V65.75H476V64h-3.5V62.25H476V60.5h-3.5ZM474.25,57v1.75h3.5V57ZM483,57v1.75h3.5V57Zm-19.25,1.75h7V60.5h-7Zm0,3.5h7V64h-7Zm14,1.75v1.75h3.5V64ZM465.5,67.5v5.25H469V67.5Zm12.25,0v1.75h3.5V67.5Zm-7,3.5v3.5h3.5V72.75H476V71Zm10.5,1.75H483V74.5h-1.75ZM483,74.5h5.25v1.75H486.5V78h-1.75V76.25H483ZM492.8,50Zm12.25,0h1.75V64h-1.75v3.5H503.3V71h-1.75v1.75H499.8V74.5h-1.75v1.75H496.3V78h-1.75V76.25h1.75V74.5h1.75V72.75h1.75V71h1.75V67.5h1.75V64h1.75Zm-7,7h1.75v5.25h-1.75V64H496.3v1.75h-1.75V64h1.75V62.25h1.75Zm15.75,0h1.75v3.5H513.8v1.75h-1.75V64H510.3V62.25h1.75V60.5h1.75Zm-7,7h1.75v3.5H506.8Zm1.75,3.5h1.75V71h-1.75ZM510.3,71h1.75v1.75H510.3Zm1.75,1.75h1.75V74.5h-1.75Zm1.75,1.75h5.25v1.75H517.3V78h-1.75V76.25H513.8ZM523.6,50Zm3.5,0h1.75v1.75h8.75V53.5h-5.25v1.75H530.6V53.5h-3.5v1.75h-1.75V57H523.6V55.25h1.75V53.5h1.75Zm12.25,0h1.75v1.75h8.75V53.5H544.6v1.75h-1.75V53.5h-3.5v1.75H537.6V57h-1.75V55.25h1.75V53.5h1.75Zm-7,5.25h1.75V57h-1.75Zm12.25,0h1.75V57H544.6ZM528.85,57h1.75v1.75h-1.75Zm12.25,0h1.75v1.75H541.1V60.5h8.75v1.75H523.6V60.5h7V58.75h1.75V60.5h7V58.75h1.75Zm-14,7h8.75V76.25H534.1V78h-1.75V76.25h1.75v-3.5h-5.25V78H527.1Zm17.5,0h1.75V76.25H544.6V78h-1.75V76.25h1.75Zm-15.75,1.75V67.5h5.25V65.75Zm10.5,0h1.75v7h-1.75Zm-10.5,3.5V71h5.25V69.25Zm1.75,5.25h1.75v1.75H530.6Zm10.5,0h1.75v1.75H541.1ZM554.4,50Zm17.5,0h5.25v1.75H571.9V53.5h-3.5v1.75h12.25V57H568.4v1.75h7V67.5h-7v1.75h8.75V71H568.4v3.5h12.25v1.75H554.4V74.5h12.25V71H557.9V69.25h8.75V67.5h-7V58.75h7V57H554.4V55.25h12.25V53.5H557.9V51.75h14ZM561.4,60.5v1.75h5.25V60.5Zm7,0v1.75h5.25V60.5Zm-7,3.5v1.75h5.25V64Zm7,0v1.75h5.25V64Zm16.8-14Zm3.5,0h1.75v1.75H588.7Zm10.5,0h1.75v3.5h10.5v1.75H599.2V57h-1.75v1.75h-3.5V60.5H592.2V64h1.75V62.25h1.75V64h-1.75v1.75H592.2V78h-1.75V64H588.7v1.75h-1.75V67.5H585.2V65.75h1.75V64h1.75V62.25h1.75V60.5h1.75V58.75h1.75V57H585.2V55.25h10.5V57h1.75V55.25h1.75Zm-8.75,1.75h1.75V53.5h-1.75ZM599.2,57h10.5v8.75h-8.75V67.5h8.75v1.75h-1.75V71H606.2v3.5h-3.5v1.75h-3.5V78h-3.5V76.25h3.5V74.5h3.5V72.75h1.75V71h1.75V69.25h-5.25V71h-3.5v1.75H595.7V71h1.75V69.25h1.75Zm1.75,1.75V60.5h7V58.75Zm0,3.5V64h7V62.25Zm-7,3.5h1.75V67.5h-1.75Zm7,5.25h1.75v1.75h-1.75Zm5.25,3.5h1.75v1.75H606.2Zm1.75,1.75h3.5V78h-3.5ZM616,50Zm5.25,0H623v3.5h8.75V50h1.75v3.5h8.75v1.75H633.5v3.5h7V67.5h-1.75V65.75H633.5v3.5h-1.75V71h1.75v1.75H630V74.5h-1.75v1.75H626.5V78H623V76.25h3.5V74.5h1.75V72.75H630V71h-1.75V69.25h3.5v-3.5h-7v-7h7v-3.5h-10.5V78H619.5V60.5h-1.75v1.75H616V60.5h1.75V58.75h1.75v-3.5h1.75Zm5.25,10.5V64h5.25V60.5Zm7,0V64h5.25V60.5Zm-7,7h1.75v1.75H626.5Zm7,5.25H637V74.5h-3.5ZM637,74.5h5.25v1.75H640.5V78h-1.75V76.25H637ZM646.8,50Zm3.5,1.75h19.25v24.5H667.8V78h-1.75V76.25h1.75V67.5h-7v8.75h-1.75V67.5h-7v5.25H650.3v3.5h-1.75V78H646.8V76.25h1.75v-3.5h1.75Zm1.75,1.75v5.25h7V53.5Zm8.75,0v5.25h7V53.5Zm-8.75,7v5.25h7V60.5Zm8.75,0v5.25h7V60.5Zm3.5,14h1.75v1.75H664.3Zm27.272-8.512a1.694,1.694,0,0,0-1.316.476,1.625,1.625,0,0,0-.5,1.26,1.666,1.666,0,0,0,.476,1.232,1.628,1.628,0,0,0,1.2.5,1.5,1.5,0,0,0,.616-.112,3.3,3.3,0,0,1-.588,1.876,4.049,4.049,0,0,1-1.792,1.232v1.372a5.4,5.4,0,0,0,2.884-1.82,5.247,5.247,0,0,0,1.092-3.276,3.253,3.253,0,0,0-.56-1.96A1.788,1.788,0,0,0,691.572,65.988ZM708.4,50Zm1.75,1.75H732.9V53.5h-7V57h5.25v7h-10.5v1.75h14V67.5h-7V71H725.9v1.75h-1.75V74.5h-3.5v1.75h-3.5V78H711.9V76.25h5.25V74.5h3.5V72.75h3.5V71h1.75V67.5h-7v1.75h-1.75V71H715.4V69.25h1.75V67.5H708.4V65.75h10.5V64h-7V57h5.25V53.5h-7Zm8.75,1.75V57h5.25V53.5Zm-5.25,5.25v3.5h3.5v-3.5Zm5.25,0v3.5h5.25v-3.5Zm7,0v3.5h3.5v-3.5ZM717.15,71h3.5v1.75h-3.5Zm7,3.5h3.5v1.75h-3.5Zm3.5,1.75h1.75V78h-1.75ZM0,96Zm3.5,0H5.25v1.75h3.5V96H10.5v1.75h5.25V99.5H10.5v1.75h5.25V103H10.5v1.75h5.25V110H14v1.75H12.25v-3.5H14V106.5H10.5v5.25H8.75V106.5H5.25V110H3.5v-5.25H8.75V103H3.5v-1.75H8.75V99.5H3.5v1.75H1.75V99.5H3.5Zm19.25,0H24.5v14H22.75v1.75H21V110h1.75ZM17.5,97.75h1.75v8.75H17.5Zm1.75,10.5H21V110H19.25ZM14,111.75h1.75v1.75h10.5v1.75h-3.5V117H21v1.75H19.25v1.75H17.5v-1.75h1.75V117H21v-1.75H15.75V117H14v-1.75H10.5v7h1.75V120.5H14v1.75H12.25V124H8.75v-5.25H7v1.75H5.25v1.75H1.75V120.5h3.5v-1.75H7V117H8.75v-1.75H0V113.5H14ZM15.75,117H17.5v1.75H15.75Zm3.5,3.5h7v1.75H24.5V124H22.75v-1.75h-3.5ZM30.8,96Zm7,0h1.75v5.25H37.8v7h1.75V106.5H41.3V103h1.75V96H44.8v5.25H57.05V103H46.55v5.25h7V110h-7v5.25H55.3V117H46.55v7H44.8V103H43.05v3.5H41.3v1.75H39.55V110H37.8v14H36.05V106.5H34.3v1.75H32.55V110H30.8v-1.75h1.75V106.5H34.3v-1.75h1.75v-3.5H37.8Zm23.8,0Zm5.25,0H68.6v8.75h1.75V96H72.1v5.25h1.75V99.5H75.6v1.75H73.85V103H72.1v1.75h3.5V103h7V96h1.75v7h3.5v1.75h-3.5v17.5H82.6V124H80.85v-1.75H82.6v-17.5h-7v1.75h-14v-1.75h5.25V103H65.1v-1.75h1.75Zm-3.5,3.5H65.1v1.75H63.35Zm1.75,8.75h1.75V110H65.1Zm7,0h1.75V110H72.1v1.75h3.5v1.75H70.35v1.75h3.5V117h-3.5v1.75H75.6v1.75H70.35v1.75h-3.5V124H65.1v-1.75H63.35V120.5H68.6V117H65.1v-1.75h3.5V113.5H63.35v-1.75h3.5V110H68.6v1.75h1.75V110H72.1Zm5.25,0H79.1V110H77.35ZM79.1,110h1.75v3.5H79.1Zm0,10.5h1.75v1.75H79.1ZM92.4,96Zm12.25,1.75H116.9v7H104.65ZM94.15,99.5h8.75v1.75H99.4v5.25h1.75v1.75H99.4v7h3.5V117H99.4v1.75H95.9v1.75H94.15v-1.75H92.4V117h5.25v-8.75h-3.5V106.5h3.5v-5.25h-3.5Zm12.25,0V103h1.75V99.5Zm3.5,0V103h1.75V99.5Zm3.5,0V103h1.75V99.5Zm-10.5,7h15.75v1.75H102.9Zm1.75,3.5H116.9v5.25h-5.25V117H109.9v-1.75h-1.75v7h1.75V120.5h1.75v1.75H109.9V124h-3.5v-5.25h-1.75v1.75H102.9v1.75h-1.75V120.5h1.75v-1.75h1.75V117h1.75v-1.75h-1.75Zm1.75,1.75v1.75h8.75v-1.75Zm10.5,3.5h1.75V117H116.9v1.75h-1.75v1.75H113.4v-1.75h1.75V117h1.75ZM111.65,117h1.75v1.75h-1.75Zm3.5,3.5h1.75v1.75h-1.75Zm1.75,1.75h1.75V124H116.9ZM123.2,96Zm3.5,0h1.75v7h3.5v1.75h5.25V103h1.75v1.75h1.75V103h1.75v-1.75H137.2V103h-1.75v-1.75h-3.5V99.5h7V97.75h1.75V99.5h7v1.75h-3.5V103h-1.75v1.75h7v1.75H130.2v-1.75h-1.75v8.75h3.5v1.75h-3.5V117H126.7v1.75h-1.75V117H123.2v-1.75h3.5v-10.5h-3.5V103h3.5Zm10.5,0h1.75v1.75H137.2Zm-3.5,12.25h12.25V117h-3.5v5.25H140.7V117h-3.5v3.5h-1.75v1.75H133.7V124h-3.5v-1.75h3.5V120.5h1.75V117H133.7Zm1.75,1.75v1.75h8.75V110Zm0,3.5v1.75h8.75V113.5Zm12.25,5.25h1.75V124h-7v-1.75h5.25ZM154,96Zm5.25,0H175v1.75h-7V99.5h12.25V103H178.5v1.75h-1.75V103h1.75v-1.75H168v7h-1.75V110H164.5v1.75H161v1.75h-3.5v1.75H154V113.5h3.5v-1.75H161V110h3.5v-1.75h1.75v-7H157.5V103h-1.75v1.75H154V103h1.75V99.5h10.5V97.75h-7Zm0,7h5.25v1.75h-5.25Zm10.5,0H175v1.75h-5.25Zm-10.5,3.5h5.25v1.75h-5.25Zm10.5,0H175v1.75h-5.25V110H168v-1.75h1.75Zm0,3.5h3.5v1.75h-3.5Zm-5.25,1.75h1.75v1.75H164.5Zm8.75,0h3.5v1.75h-3.5Zm-7,1.75H168v1.75h5.25V117H171.5v1.75h-1.75v1.75H168v1.75h-1.75V120.5H168v-1.75h1.75V117H161v-1.75h5.25Zm10.5,0h3.5v1.75h-3.5Zm-12.25,5.25h1.75v1.75H164.5Zm3.5,3.5h1.75V124H168ZM184.8,96Zm3.5,1.75h1.75V99.5H188.3Zm1.75,1.75h1.75V103h-1.75Zm7,0H209.3v1.75h-5.25v7h7V110h-7v12.25H202.3V124h-1.75v-1.75h1.75V110h-7v-1.75h7v-7h-5.25ZM184.8,103h1.75v1.75H184.8Zm8.75,0h1.75v3.5h-1.75V110H191.8v3.5h-1.75v8.75H188.3v-7h-3.5V113.5h5.25V110h1.75v-3.5h1.75Zm-7,1.75h1.75v3.5h-1.75ZM198.8,120.5h1.75v1.75H198.8ZM215.6,96Zm3.5,0h1.75v1.75H219.1Zm10.5,0h1.75v3.5h5.25v8.75h-1.75v-7h-3.5v3.5H229.6v1.75h-1.75v1.75H226.1V110h-1.75v-1.75h1.75V106.5h1.75v-1.75h1.75v-3.5h-3.5V99.5h3.5Zm-8.75,1.75h1.75V99.5h-1.75Zm-3.5,1.75h1.75v1.75h-1.75Zm1.75,1.75h1.75V103H219.1Zm3.5,1.75h1.75v1.75H222.6v1.75h-1.75V110H219.1v-3.5h1.75v-1.75h1.75Zm-5.25,1.75h1.75v1.75h-1.75Zm22.75,0h1.75V110H236.6v-1.75h3.5Zm-12.25,3.5h1.75v3.5h12.25v1.75h-10.5v1.75H229.6V124h-1.75v-8.75H226.1V117h-1.75v1.75H222.6v1.75h-1.75v1.75h-3.5V120.5h3.5v-1.75h1.75V117h1.75v-1.75h1.75V113.5H215.6v-1.75h12.25Zm3.5,7h1.75V117h-1.75ZM233.1,117h1.75v1.75H233.1Zm1.75,1.75h5.25v1.75h-1.75v1.75H236.6V120.5h-1.75ZM246.4,96Zm5.25,0H267.4v1.75h-7V99.5h12.25V103H270.9v1.75h-1.75V103h1.75v-1.75H260.4v7h-1.75v-7H249.9V103h-1.75v1.75H246.4V103h1.75V99.5h10.5V97.75h-7Zm0,7h5.25v1.75h-5.25Zm10.5,0h5.25v1.75h-5.25Zm-10.5,3.5h5.25v1.75h-5.25Zm10.5,0h5.25v1.75h-5.25ZM249.9,110h19.25v8.75H260.4v3.5h-1.75v-3.5H249.9Zm1.75,1.75v1.75h7v-1.75Zm8.75,0v1.75h7v-1.75Zm-8.75,3.5V117h7v-1.75Zm8.75,0V117h7v-1.75Zm10.5,3.5h1.75V124H260.4v-1.75h10.5ZM277.2,96Zm8.75,0h5.25v1.75h-3.5V99.5h-1.75v1.75h5.25V103h-5.25v1.75h5.25V103h3.5V96h1.75v7h5.25v17.5h-1.75v1.75H298.2V124h-1.75v-1.75h1.75V120.5h1.75V104.75h-3.5v8.75H294.7v5.25h-1.75v1.75H291.2v1.75h-1.75V124H287.7v-1.75h1.75V120.5h1.75v-1.75h1.75V113.5h1.75v-8.75h-3.5v8.75h-5.25v1.75h5.25V117h-5.25v1.75h3.5v1.75h-3.5v1.75h-3.5V124H280.7v-1.75h-1.75V120.5h5.25V117h-5.25v-1.75h5.25V113.5h-5.25v-8.75h5.25V103h-7v-1.75h7V99.5h-5.25V97.75h7Zm-5.25,10.5v1.75h3.5V106.5Zm5.25,0v1.75h3.5V106.5ZM280.7,110v1.75h3.5V110Zm5.25,0v1.75h3.5V110Zm8.75,10.5h1.75v1.75H294.7ZM308,96Zm12.25,0H322v5.25h10.5V103H322v1.75h7v8.75h-7v1.75h12.25V117H322v7h-1.75v-7H308v-1.75h12.25V113.5h-7v-8.75h7V103h-10.5v-1.75h10.5ZM315,106.5v1.75h5.25V106.5Zm7,0v1.75h5.25V106.5Zm-7,3.5v1.75h5.25V110Zm7,0v1.75h5.25V110Zm30.772,1.988a1.694,1.694,0,0,0-1.316.476,1.625,1.625,0,0,0-.5,1.26,1.666,1.666,0,0,0,.476,1.232,1.628,1.628,0,0,0,1.2.5,1.5,1.5,0,0,0,.616-.112,3.3,3.3,0,0,1-.588,1.876,4.049,4.049,0,0,1-1.792,1.232v1.372a5.4,5.4,0,0,0,2.884-1.82,5.247,5.247,0,0,0,1.092-3.276,3.253,3.253,0,0,0-.56-1.96A1.788,1.788,0,0,0,352.772,111.988ZM369.6,96Zm17.5,0h1.75v3.5h7v1.75h-7V103h5.25v7h-14v1.75h15.75v1.75h-7v1.75H387.1V113.5h-7v7h1.75V117h1.75v3.5h-1.75v1.75H380.1V124h-1.75v-3.5H369.6v-1.75h3.5V117h-1.75v-1.75h1.75V113.5h-3.5v-1.75h7v1.75h-1.75v1.75h1.75V117h-1.75v1.75h3.5V110H369.6v-1.75h1.75V99.5H369.6V97.75h12.25V99.5H380.1v8.75h1.75V103h5.25v-1.75h-5.25V99.5h5.25Zm-14,3.5v1.75h5.25V99.5Zm0,3.5v1.75h5.25V103Zm10.5,1.75v3.5h1.75v-3.5Zm3.5,0v3.5h1.75v-3.5Zm3.5,0v3.5h1.75v-3.5Zm-17.5,1.75v1.75h5.25V106.5Zm15.75,8.75h1.75v3.5h-1.75Zm3.5,0h1.75V117h-1.75Zm-7,1.75h1.75v5.25h-1.75Zm8.75,0h1.75v5.25H394.1Zm-3.5,3.5h1.75V124H387.1v-1.75h3.5ZM400.4,96Zm7,0h1.75v5.25h3.5V103h-3.5v3.5h3.5v1.75h-3.5v3.5h3.5v1.75h-3.5v7h17.5v1.75H407.4V120.5h-1.75v-1.75h1.75v-10.5h-7V106.5h7V103h-5.25v-1.75h5.25Zm7,3.5h8.75V110H421.4v-1.75h-5.25V117H414.4V106.5h7v-5.25h-7ZM403.9,110h1.75v8.75H403.9v3.5h-1.75V124H400.4v-1.75h1.75v-3.5h1.75Zm19.25,3.5h1.75v5.25h-8.75V117h7ZM431.2,96Zm12.25,0h1.75v3.5h10.5v1.75H445.2V110h1.75v-1.75h1.75V103h1.75v5.25H448.7V110h-1.75v3.5H445.2V124h-1.75V113.5H441.7v1.75h-1.75V117H438.2v1.75h-3.5v1.75h-3.5v-1.75h3.5V117h3.5v-1.75h1.75V113.5h1.75V110h1.75v-8.75h-10.5V99.5h10.5Zm-5.25,7h1.75v5.25H438.2V110h-1.75v1.75H434.7V110h1.75v-1.75h1.75Zm1.75,5.25h1.75V110h-1.75Zm10.5,0h1.75V110h-1.75ZM452.2,110h1.75v1.75H452.2Zm-5.25,3.5h1.75v1.75h-1.75Zm1.75,1.75h3.5V117h-3.5Zm3.5,1.75h5.25v1.75H455.7v1.75h-1.75v-1.75H452.2ZM462,96Zm5.25,0H469v5.25h-1.75V124H465.5V106.5h-1.75v1.75H462V106.5h1.75v-1.75h1.75v-3.5h1.75Zm7,1.75H476V99.5h-1.75Zm8.75,0h1.75v14H483v3.5h-1.75v3.5H479.5v1.75h-1.75v1.75H476V124h-1.75v-1.75H476V120.5h1.75v-1.75h1.75v-3.5h1.75v-3.5H483Zm-7,1.75h1.75v1.75H476Zm1.75,1.75h1.75v3.5h-1.75Zm-7,1.75h1.75v14h1.75v-1.75H476V113.5h1.75v1.75H476V117h-1.75v1.75H472.5v1.75h-1.75ZM483,117h1.75v1.75H483Zm1.75,1.75h3.5v3.5H486.5V120.5h-1.75ZM492.8,96Zm19.25,0h3.5v1.75h1.75V99.5H506.8V110h12.25v1.75H506.8v10.5h-1.75V124H503.3v-1.75h1.75v-10.5H492.8V110h12.25v-8.75h-10.5V99.5h10.5V97.75h7Zm-14,7h1.75v1.75h-1.75Zm14,0h1.75v3.5h-1.75v1.75H510.3V106.5h1.75Zm-12.25,1.75h1.75v3.5H499.8Zm1.75,15.75h1.75v1.75h-1.75ZM523.6,96Zm5.25,0h1.75v3.5h5.25V97.75h1.75V99.5h-1.75V103H534.1v1.75h3.5v1.75h-5.25v1.75H530.6V110h5.25v14H534.1v-1.75h-5.25V124H527.1V113.5h-1.75v1.75H523.6V113.5h1.75v-1.75h1.75V110h1.75v-1.75h1.75V106.5h-7v-1.75h5.25v-3.5h-3.5V99.5h3.5Zm10.5,1.75h8.75v3.5h-1.75v3.5H544.6v1.75h-1.75v-1.75h1.75v-3.5h1.75V99.5H541.1v15.75h1.75V117H541.1v7h-1.75Zm-8.75,3.5v3.5h1.75V103h1.75v-1.75Zm14,5.25h1.75V110H544.6Zm1.75,3.5h1.75v5.25h-1.75V117H544.6v1.75h-1.75V117h1.75v-1.75h1.75Zm-17.5,1.75v3.5h5.25v-3.5Zm0,5.25v3.5h5.25V117ZM554.4,96Zm7,0h1.75v3.5H561.4V103h-1.75v1.75H557.9v1.75h-1.75v1.75H554.4V106.5h1.75v-1.75h1.75V103h1.75V99.5h1.75Zm3.5,1.75h12.25V110h-7v3.5H568.4V110h-1.75v10.5h1.75v-1.75h1.75v1.75H568.4v1.75h-1.75V124H564.9Zm1.75,1.75V103h8.75V99.5Zm-5.25,5.25h1.75v3.5H561.4V124h-1.75V111.75H557.9v1.75h-1.75v1.75H554.4V113.5h1.75v-1.75h1.75V110h1.75v-1.75h1.75Zm5.25,0v3.5h8.75v-3.5Zm10.5,7h1.75v1.75h-1.75v1.75H575.4V117h-1.75v1.75H571.9V117h1.75v-1.75h1.75V113.5h1.75Zm-7,1.75h1.75V117h-1.75Zm3.5,5.25h3.5v1.75h-3.5Zm3.5,1.75h3.5v1.75h-3.5ZM585.2,96Zm0,1.75h26.25V99.5h-10.5V103H599.2v21h-1.75V108.25H595.7V110h-1.75v1.75H592.2v1.75h-1.75v1.75H588.7V117h-1.75v-1.75h1.75V113.5h1.75v-1.75h1.75V110h1.75v-1.75h1.75V106.5h1.75V103h1.75V99.5h-14Zm15.75,8.75h1.75v1.75h-1.75Zm1.75,1.75h1.75V110H602.7Zm1.75,1.75h3.5v1.75h1.75v3.5h-1.75V113.5H606.2v-1.75h-1.75ZM616,96Zm1.75,1.75h24.5V99.5H637v22.75h-1.75V124H633.5v-1.75h1.75V99.5h-17.5ZM623,103h8.75v14H630v-1.75h-5.25V117H623Zm1.75,1.75v8.75H630v-8.75Zm7,15.75h1.75v1.75h-1.75ZM646.8,96Zm3.5,1.75h19.25v14H667.8V110H652.05v1.75H650.3Zm1.75,1.75V103h7V99.5Zm8.75,0V103h7V99.5Zm-8.75,5.25v3.5h7v-3.5Zm8.75,0v3.5h7v-3.5Zm-1.75,7h1.75v1.75h-1.75Zm1.75,1.75h1.75V117H660.8Zm-7,1.75h1.75v5.25H653.8Zm15.75,0h1.75V117h-1.75Zm-21,1.75h1.75v3.5h-1.75v1.75H646.8V120.5h1.75Zm17.5,0h1.75v5.25H655.55V120.5h10.5Zm5.25,0h1.75v3.5H671.3Zm6.3-21Zm1.75,0h1.75v1.75h-1.75Zm10.5,0h1.75v1.75h-1.75Zm8.75,0h1.75v1.75H698.6V99.5h3.5v1.75h-5.25V103h3.5v1.75h-3.5v1.75h7v1.75H698.6v5.25h5.25v1.75H702.1V117h-1.75v1.75H698.6v1.75h-1.75v1.75H695.1V120.5h1.75v-5.25h-3.5V117h1.75v1.75h-1.75V124h-3.5v-1.75h1.75V120.5h-3.5v-1.75h3.5v-3.5h-3.5V113.5h3.5v-1.75h-3.5V110h7v1.75h-1.75v1.75h3.5v-5.25H688.1V106.5h7v-1.75h-3.5V103h3.5v-1.75h-5.25V99.5h1.75V97.75h1.75V99.5h3.5V97.75h1.75Zm-17.5,1.75h1.75V99.5H681.1Zm-3.5,3.5h10.5V103H677.6Zm1.75,3.5h7v1.75h-7Zm0,3.5h7V110h-7Zm21,1.75h1.75v1.75h-1.75Zm-21,1.75h7v10.5H684.6V120.5h-3.5v1.75h-1.75Zm1.75,1.75v5.25h3.5V113.5Zm17.5,1.75V117h1.75v-1.75Zm0,5.25h1.75v1.75H698.6Zm3.5,0h1.75V124h-3.5v-1.75h1.75Zm20.272-8.512a1.694,1.694,0,0,0-1.316.476,1.625,1.625,0,0,0-.5,1.26,1.666,1.666,0,0,0,.476,1.232,1.628,1.628,0,0,0,1.2.5,1.5,1.5,0,0,0,.616-.112,3.3,3.3,0,0,1-.588,1.876,4.049,4.049,0,0,1-1.792,1.232v1.372a5.4,5.4,0,0,0,2.884-1.82,5.247,5.247,0,0,0,1.092-3.276,3.253,3.253,0,0,0-.56-1.96A1.788,1.788,0,0,0,722.372,111.988ZM0,142Zm5.25,0H7v5.25H5.25V170H3.5V152.5H1.75v1.75H0V152.5H1.75v-1.75H3.5v-3.5H5.25Zm3.5,3.5h14v15.75h-14Zm1.75,1.75v5.25H21v-5.25Zm0,7v5.25H21v-5.25ZM7,164.75H24.5v1.75H7Zm37.772-6.762a1.694,1.694,0,0,0-1.316.476,1.625,1.625,0,0,0-.5,1.26,1.666,1.666,0,0,0,.476,1.232,1.628,1.628,0,0,0,1.2.5,1.5,1.5,0,0,0,.616-.112,3.3,3.3,0,0,1-.588,1.876,4.049,4.049,0,0,1-1.792,1.232v1.372a5.4,5.4,0,0,0,2.884-1.82,5.247,5.247,0,0,0,1.092-3.276,3.253,3.253,0,0,0-.56-1.96A1.788,1.788,0,0,0,44.772,157.988ZM61.6,142Zm1.75,1.75h10.5v24.5H72.1V170H70.35v-1.75H72.1V159.5H68.6V163H66.85v3.5H65.1v1.75H63.35V170H61.6v-1.75h1.75V166.5H65.1V163h1.75v-3.5h-3.5v-1.75h3.5V152.5h-3.5v-1.75h3.5V145.5h-3.5Zm14,0H86.1v3.5H84.35v3.5H82.6v1.75H80.85v-1.75H82.6v-3.5h1.75V145.5H79.1v15.75h1.75V163H79.1v7H77.35ZM68.6,145.5v5.25h3.5V145.5Zm0,7v5.25h3.5V152.5Zm14,0h1.75V156H82.6Zm1.75,3.5H86.1v5.25H84.35V163H82.6v1.75H80.85V163H82.6v-1.75h1.75ZM68.6,166.5h1.75v1.75H68.6ZM92.4,142Zm8.75,0h1.75v5.25h3.5V149h-3.5v5.25h3.5V156h-3.5v1.75h-7v1.75H94.15v-1.75H92.4V156h3.5V145.5h1.75V156h3.5Zm7,0h1.75v7h1.75v-1.75h3.5V145.5h1.75v1.75h-1.75V149h-3.5v1.75H109.9V156h-1.75Zm8.75,10.5h1.75v5.25H109.9V156h7Zm-19.25,8.75H113.4V163H97.65Zm-3.5,5.25H116.9v1.75H94.15ZM123.2,142Zm22.75,0h1.75v26.25h-1.75V170H144.2v-1.75h1.75Zm-21,1.75H137.2v10.5h-1.75V152.5H126.7v1.75h-1.75Zm1.75,1.75v5.25h8.75V145.5Zm14,0h1.75v15.75H140.7Zm-12.25,8.75h1.75v3.5h7v8.75h-1.75v1.75H133.7V170h-1.75v-1.75h1.75V166.5h1.75v-7H130.2V163h-1.75v3.5H126.7v1.75h-1.75V170H123.2v-1.75h1.75V166.5h1.75V163h1.75Zm1.75,12.25h1.75v1.75H130.2Zm12.25,0h1.75v1.75h-1.75ZM154,142Zm12.25,0H168v12.25h-1.75v5.25H164.5V163h-1.75v1.75H161v1.75h-1.75v1.75H157.5V170h-1.75v-1.75h1.75V166.5h1.75v-1.75H161V163h1.75v-3.5h1.75v-5.25h1.75ZM168,154.25h1.75v5.25H168Zm1.75,5.25h1.75V163h-1.75Zm1.75,3.5h1.75v1.75H171.5Zm1.75,1.75H175v1.75h-1.75ZM175,166.5h5.25v1.75H178.5V170h-1.75v-1.75H175Zm9.8-24.5Zm3.5,0h5.25v1.75h-3.5v1.75h3.5v1.75h-3.5V149h3.5v1.75h-3.5v1.75h5.25v-1.75h1.75V149h1.75v-3.5h1.75V149H198.8v1.75h-1.75v1.75h1.75v-1.75h1.75v1.75h5.25v-1.75h-3.5V149h3.5v-1.75h-3.5V145.5h3.5v-1.75h-3.5V142h5.25v10.5h3.5V156H209.3v1.75h-1.75V156h1.75v-1.75h-3.5v10.5h-3.5v3.5h-1.75v-3.5H195.3v1.75h-1.75v1.75H191.8V170h-5.25v-1.75h5.25V166.5h1.75v-1.75h-3.5v-10.5H188.3V156h-1.75v1.75H184.8V156h1.75v-3.5h1.75Zm7,0h1.75v1.75H195.3Zm3.5,0h1.75v1.75H198.8v1.75h-1.75V149H195.3v-3.5h1.75v-1.75h1.75Zm-7,12.25V156h12.25v-1.75Zm0,3.5v1.75h12.25v-1.75Zm0,3.5V163h12.25v-1.75Zm15.75,3.5h1.75V170h-7v-1.75h5.25ZM215.6,142Zm7,0h1.75v3.5H222.6v1.75h-1.75V149H219.1v1.75h-1.75v1.75H215.6v-1.75h1.75V149h1.75v-1.75h1.75V145.5h1.75Zm3.5,1.75h12.25v8.75H226.1Zm1.75,1.75v1.75h8.75V145.5Zm0,3.5v1.75h8.75V149Zm-5.25,1.75h1.75v3.5H222.6v5.25h12.25V156h-10.5v-1.75H240.1V156h-3.5v3.5h5.25v1.75H236.6v7h-1.75V170H233.1v-1.75h1.75v-7h-7V163H226.1v-1.75h-3.5V170h-1.75V157.75H219.1v1.75h-1.75v1.75H215.6V159.5h1.75v-1.75h1.75V156h1.75v-1.75h1.75ZM227.85,163h1.75v3.5h-1.75Zm3.5,3.5h1.75v1.75h-1.75ZM246.4,142Zm5.25,0h1.75v5.25h-1.75V170H249.9V152.5h-1.75v1.75H246.4V152.5h1.75v-1.75h1.75v-3.5h1.75Zm5.25,0h1.75v5.25h3.5V149h-3.5v5.25h3.5V149h1.75v-7h1.75v7h7v1.75H270.9V156h-1.75v3.5H267.4V163h-1.75v1.75H263.9v1.75h-1.75v1.75H260.4V170h-1.75v-1.75h1.75V166.5h1.75v-1.75h1.75V163h1.75v-3.5h1.75V156h1.75v-5.25H263.9v3.5h-1.75v10.5h-7v1.75H253.4V154.25h3.5V149h-3.5v-1.75h3.5Zm7,12.25h1.75v5.25H263.9ZM255.15,156v7h5.25v-7Zm12.25,7h1.75v3.5H267.4Zm1.75,3.5h3.5v1.75H270.9V170h-1.75ZM277.2,142Zm0,1.75h26.25v1.75h-10.5V149H291.2v21h-1.75V154.25H287.7V156h-1.75v1.75H284.2v1.75h-1.75v1.75H280.7V163h-1.75v-1.75h1.75V159.5h1.75v-1.75h1.75V156h1.75v-1.75h1.75V152.5h1.75V149h1.75v-3.5h-14Zm15.75,8.75h1.75v1.75h-1.75Zm1.75,1.75h1.75V156H294.7Zm1.75,1.75h3.5v1.75h1.75v3.5h-1.75V159.5H298.2v-1.75h-1.75ZM308,142Zm22.75,0h1.75v26.25h-1.75V170H329v-1.75h1.75Zm-21,1.75h14v1.75h-7v1.75H315V149h-1.75v1.75H311.5v1.75h8.75v-1.75H322v1.75h1.75V156H322v-1.75h-5.25v5.25H322v1.75h-5.25v3.5h7v1.75h-7v1.75H311.5V170h-1.75v-1.75H308V166.5h7v-5.25h-5.25V159.5H315v-5.25h-3.5V156h-1.75v-1.75H308V152.5h1.75v-1.75h1.75V149h1.75v-1.75H315V145.5h-5.25Zm15.75,3.5h1.75V163H325.5Zm-7,1.75h1.75v1.75H318.5Zm8.75,17.5H329v1.75h-1.75ZM338.8,142Zm5.25,0h1.75v3.5h-1.75v1.75h7v5.25h1.75V149h1.75v-7h1.75v5.25h7V166.5h-1.75v1.75H359.8V170h-1.75v-1.75h1.75V166.5h1.75V149h-7v3.5H352.8v1.75h-1.75v14H349.3V166.5h-7v1.75h-1.75v-21h1.75V145.5h1.75Zm-1.75,7v7h7v-7Zm12.25,5.25h1.75V156h-1.75ZM356.3,156h1.75v3.5H356.3Zm-14,1.75v7h7v-7Zm14,8.75h1.75v1.75H356.3Zm27.272-8.512a1.694,1.694,0,0,0-1.316.476,1.625,1.625,0,0,0-.5,1.26,1.666,1.666,0,0,0,.476,1.232,1.628,1.628,0,0,0,1.2.5,1.5,1.5,0,0,0,.616-.112,3.3,3.3,0,0,1-.588,1.876,4.049,4.049,0,0,1-1.792,1.232v1.372a5.4,5.4,0,0,0,2.884-1.82,5.247,5.247,0,0,0,1.092-3.276,3.253,3.253,0,0,0-.56-1.96A1.788,1.788,0,0,0,383.572,157.988ZM400.4,142Zm8.75,0h1.75v1.75h1.75v1.75h-3.5v5.25h5.25V142h1.75v8.75h10.5v1.75h-10.5v7H414.4v-7h-5.25v5.25h1.75V156h1.75v1.75H410.9v1.75h-1.75v8.75H407.4V170h-1.75v-1.75h1.75v-7h-1.75V163h-3.5v-1.75h3.5V159.5h1.75v-7h-7v-1.75h7v-3.5h-5.25V145.5h5.25v-1.75h1.75Zm10.5,1.75h1.75v1.75h-1.75Zm1.75,1.75h1.75V149H421.4Zm0,8.75h1.75v3.5H421.4v1.75h-1.75v1.75H417.9V163h-1.75v1.75H414.4v1.75h-1.75v1.75H410.9V166.5h1.75v-1.75h1.75V163h1.75v-3.5h3.5v-1.75h1.75ZM417.9,163h1.75v1.75H417.9Zm5.25,0h1.75v7h-1.75v-1.75H421.4V166.5h1.75Zm-3.5,1.75h1.75v1.75h-1.75ZM403.9,166.5h1.75v1.75H403.9ZM431.2,142Zm0,12.25h26.25V156H431.2ZM462,142Zm10.5,0h1.75v1.75H472.5Zm1.75,1.75H476v1.75h12.25v1.75H486.5V149h-1.75v1.75H483V149h1.75v-1.75H465.5V149h-1.75v1.75H462V149h1.75v-3.5h10.5Zm-8.75,8.75h19.25v1.75H476v5.25h7v1.75h-7v5.25h12.25v1.75h-17.5V166.5h3.5V154.25H465.5Zm1.75,5.25H469v7h-1.75v1.75H465.5v1.75h-1.75V170H462v-1.75h1.75V166.5h1.75v-1.75h1.75Zm1.75,7h1.75v1.75H469ZM492.8,142Zm5.25,0h1.75v5.25h-1.75V170H496.3V152.5h-1.75v1.75H492.8V152.5h1.75v-1.75h1.75v-3.5h1.75Zm5.25,0h1.75v5.25h3.5V149h-3.5v5.25h3.5V149h1.75v-7h1.75v7h7v1.75H517.3V156h-1.75v3.5H513.8V163h-1.75v1.75H510.3v1.75h-1.75v1.75H506.8V170h-1.75v-1.75h1.75V166.5h1.75v-1.75h1.75V163h1.75v-3.5h1.75V156h1.75v-5.25H510.3v3.5h-1.75v10.5h-7v1.75H499.8V154.25h3.5V149h-3.5v-1.75h3.5Zm7,12.25h1.75v5.25H510.3ZM501.55,156v7h5.25v-7Zm12.25,7h1.75v3.5H513.8Zm1.75,3.5h3.5v1.75H517.3V170h-1.75ZM523.6,142Zm7,0h1.75v3.5H530.6v1.75h-1.75V149H527.1v1.75h-1.75v1.75H523.6v-1.75h1.75V149h1.75v-1.75h1.75V145.5h1.75Zm3.5,1.75h12.25v8.75H534.1Zm1.75,1.75v1.75h8.75V145.5Zm0,3.5v1.75h8.75V149Zm-5.25,1.75h1.75v3.5H530.6v5.25h12.25V156h-10.5v-1.75H548.1V156h-3.5v3.5h5.25v1.75H544.6v7h-1.75V170H541.1v-1.75h1.75v-7h-7V163H534.1v-1.75h-3.5V170h-1.75V157.75H527.1v1.75h-1.75v1.75H523.6V159.5h1.75v-1.75h1.75V156h1.75v-1.75h1.75ZM535.85,163h1.75v3.5h-1.75Zm3.5,3.5h1.75v1.75h-1.75ZM554.4,142Zm22.75,0h1.75v26.25h-1.75V170H575.4v-1.75h1.75Zm-21,1.75h14v1.75h-7v1.75H561.4V149h-1.75v1.75H557.9v1.75h8.75v-1.75h1.75v1.75h1.75V156H568.4v-1.75h-5.25v5.25h5.25v1.75h-5.25v3.5h7v1.75h-7v1.75H557.9V170h-1.75v-1.75H554.4V166.5h7v-5.25h-5.25V159.5h5.25v-5.25h-3.5V156h-1.75v-1.75H554.4V152.5h1.75v-1.75h1.75V149h1.75v-1.75h1.75V145.5h-5.25Zm15.75,3.5h1.75V163H571.9Zm-7,1.75h1.75v1.75H564.9Zm8.75,17.5h1.75v1.75h-1.75Zm25.522-8.512a1.694,1.694,0,0,0-1.316.476,1.625,1.625,0,0,0-.5,1.26,1.666,1.666,0,0,0,.476,1.232,1.628,1.628,0,0,0,1.2.5,1.5,1.5,0,0,0,.616-.112,3.3,3.3,0,0,1-.588,1.876,4.049,4.049,0,0,1-1.792,1.232v1.372a5.4,5.4,0,0,0,2.884-1.82,5.247,5.247,0,0,0,1.092-3.276,3.253,3.253,0,0,0-.56-1.96A1.788,1.788,0,0,0,599.172,157.988ZM616,142Zm7,0h1.75v5.25H623V170h-1.75V152.5H619.5v1.75h-1.75V156H616v-1.75h1.75V152.5h1.75v-1.75h1.75v-3.5H623Zm3.5,1.75h12.25v7h3.5v1.75h-3.5v8.75H637V159.5h-5.25V163H630v3.5h-1.75v1.75H626.5V170h-1.75v-1.75h1.75V166.5h1.75V163H630v-3.5h-3.5v-1.75H630V152.5h-5.25v-1.75H630V145.5h-3.5Zm5.25,1.75v5.25H637V145.5Zm0,7v5.25H637V152.5ZM646.8,142Zm14,0h1.75v1.75h8.75v1.75h-1.75v1.75H667.8V149h-1.75v1.75H664.3v1.75h-3.5v1.75h-3.5V152.5h3.5v-1.75h3.5V149h1.75v-1.75h1.75V145.5h-5.25v1.75h-3.5V149H657.3v-1.75h1.75V145.5h1.75Zm-12.25,1.75h8.75v3.5h-1.75v3.5H653.8v1.75h-1.75v-1.75h1.75v-3.5h1.75V145.5H650.3v15.75h1.75V163H650.3v7h-1.75Zm14,3.5h1.75V149h-1.75Zm3.5,3.5h3.5v1.75h-3.5ZM653.8,152.5h1.75V156H653.8Zm15.75,0h3.5v1.75h-3.5V156h-3.5v3.5h5.25v1.75h-5.25V163h5.25v1.75h-5.25v1.75h7v1.75h-17.5V166.5h8.75v-1.75h-5.25V163h5.25v-1.75h-5.25V163H657.3v-1.75h1.75v-3.5h1.75v1.75h3.5V156h-3.5v-1.75h8.75Zm-14,3.5h1.75v5.25h-1.75V163H653.8v1.75h-1.75V163h1.75v-1.75h1.75Zm36.05,2.184a1.646,1.646,0,0,0-1.232.5,1.624,1.624,0,0,0-.476,1.232,1.666,1.666,0,0,0,.476,1.232,1.736,1.736,0,0,0,1.232.476,1.785,1.785,0,0,0,1.232-.476,1.691,1.691,0,0,0,.5-1.232,1.647,1.647,0,0,0-.5-1.232A1.691,1.691,0,0,0,691.6,158.184ZM708.4,142Zm5.25,1.75H732.9v1.75h-8.75v1.75h7V149h-7v1.75h7v1.75h-7V156h8.75v10.5h-1.75v1.75H729.4V170h-1.75v-1.75h1.75V166.5h1.75v-8.75h-17.5Zm1.75,1.75v1.75h7V145.5Zm0,3.5v1.75h7V149Zm0,3.5V156h7v-3.5Zm-3.5,7h1.75v5.25H711.9v1.75h-1.75v-1.75h1.75Zm3.5,0h1.75v1.75H715.4Zm5.25,0h1.75v1.75h-1.75Zm5.25,0h1.75v1.75H725.9Zm-8.75,1.75h1.75v3.5h-1.75Zm5.25,0h1.75v3.5H722.4Zm5.25,0h1.75v3.5h-1.75Zm-1.75,5.25h1.75v1.75H725.9ZM0,188Zm3.5,0H5.25v5.25H10.5V188h1.75v5.25H14V195H12.25v12.25H14V209H0v-1.75H3.5V195H1.75v-1.75H3.5ZM21,189.75h3.5v1.75H21v1.75H17.5v5.25h8.75v1.75h-3.5V216H21V200.25H17.5v10.5H15.75v3.5H14V216H12.25v-1.75H14v-3.5h1.75V191.5H21ZM5.25,195v3.5H10.5V195Zm0,5.25V202H10.5v-1.75Zm0,3.5v3.5H10.5v-3.5Zm0,7H7v1.75H5.25v1.75H3.5V216H1.75v-1.75H3.5V212.5H5.25Zm3.5,0H10.5v1.75H8.75Zm1.75,1.75h1.75v1.75H10.5ZM30.8,188Zm12.25,0H44.8v3.5H57.05v1.75H44.8v3.5h7v8.75H48.3v8.75H46.55V205.5H41.3v5.25H39.55v1.75H37.8v1.75H34.3V216H30.8v-1.75h3.5V212.5h3.5v-1.75h1.75V205.5h-3.5v-8.75h7v-3.5H30.8V191.5H43.05ZM37.8,198.5v5.25H50.05V198.5Zm17.5,12.25h1.75V216H48.3v-1.75h7ZM61.6,188Zm15.75,0h7v1.75h-7v1.75H75.6v1.75H86.1V195H75.6v1.75h7v3.5h5.25V202H82.6v3.5H77.35v1.75H75.6V216H73.85v-8.75H72.1V209H70.35v1.75H68.6v1.75H65.1v1.75H61.6V212.5h3.5v-1.75h3.5V209h1.75v-1.75H72.1V205.5h-7v-1.75h8.75V202H61.6v-1.75H73.85V198.5H65.1v-1.75h8.75V195H63.35v-1.75h10.5V191.5H65.1v-1.75H77.35ZM75.6,198.5v1.75h5.25V198.5Zm0,3.5v1.75h5.25V202Zm1.75,5.25H79.1V209H77.35ZM79.1,209h3.5v1.75H79.1Zm3.5,1.75h5.25v1.75H86.1v1.75H84.35V212.5H82.6ZM92.4,188Zm5.25,0H99.4v7h3.5v-1.75h5.25V188h1.75v5.25h7V195h-7v3.5h8.75v1.75H113.4v3.5h5.25v1.75H113.4v8.75h-1.75V216H109.9v-1.75h1.75V205.5h-7v1.75H102.9V205.5h-1.75v-1.75h10.5v-3.5h-10.5V202H99.4v12.25H97.65V216H95.9v-1.75h1.75v-10.5H95.9v1.75H92.4v-1.75h3.5V202h1.75v-5.25H92.4V195h5.25Zm5.25,7v1.75H99.4v3.5h1.75V198.5h7V195Zm1.75,12.25h1.75v3.5h-1.75Zm-10.5,5.25H95.9v1.75H94.15Zm14,0h1.75v1.75h-1.75ZM123.2,188Zm14,0h1.75v1.75H137.2Zm-10.5,1.75h1.75v1.75H126.7Zm12.25,0h1.75v1.75h7v1.75H131.95V191.5h7Zm-10.5,1.75h1.75V195h-1.75Zm5.25,3.5h12.25v1.75H133.7Zm-10.5,3.5h7v12.25h-1.75v1.75H126.7v1.75h-1.75V212.5h1.75v-1.75h1.75v-10.5H123.2Zm10.5,0h12.25v1.75H133.7Zm0,3.5h12.25v8.75H144.2V209h-8.75v1.75H133.7Zm1.75,1.75v3.5h8.75v-3.5Zm-5.25,7h1.75v1.75H130.2Zm1.75,1.75h17.5v1.75h-17.5ZM154,188Zm5.25,0H161v7h3.5v1.75H161v1.75h1.75v1.75H161V216h-1.75V202H157.5v3.5h-1.75v1.75H154V205.5h1.75V202h1.75v-3.5h1.75v-1.75H154V195h5.25Zm7,0H168v1.75h-1.75Zm8.75,0h1.75v1.75H175v1.75h3.5v1.75h-7V195h5.25v1.75H171.5v1.75h7v1.75h-8.75V202H168v-1.75h-3.5V202h-1.75v-1.75h1.75V198.5h5.25v-1.75h-3.5V195h3.5v-1.75H164.5V191.5H168v-1.75h1.75v1.75h3.5v-1.75H175Zm-5.25,14h1.75v5.25h1.75V205.5H175v-1.75h1.75v1.75H175v1.75h-1.75V209H171.5v5.25h-1.75V216H168v-1.75h1.75V205.5h-3.5v-1.75h3.5Zm-7,5.25H168v3.5h-1.75v1.75H164.5v1.75h-1.75V212.5h1.75v-1.75h1.75V209h-3.5Zm10.5,1.75H175v1.75h-1.75Zm1.75,1.75h5.25v1.75H178.5v1.75h-1.75V212.5H175Zm-8.75,1.75H168v1.75h-1.75ZM184.8,188Zm5.25,0h1.75v3.5h-1.75v1.75h7v5.25h1.75V195h1.75v-7h1.75v5.25h7V212.5h-1.75v1.75H205.8V216h-1.75v-1.75h1.75V212.5h1.75V195h-7v3.5H198.8v1.75h-1.75v14H195.3V212.5h-7v1.75h-1.75v-21h1.75V191.5h1.75Zm-1.75,7v7h7v-7Zm12.25,5.25h1.75V202h-1.75ZM202.3,202h1.75v3.5H202.3Zm-14,1.75v7h7v-7Zm14,8.75h1.75v1.75H202.3ZM215.6,188Zm7,0h1.75v5.25H222.6V216h-1.75V198.5H219.1v1.75h-1.75V202H215.6v-1.75h1.75V198.5h1.75v-1.75h1.75v-3.5h1.75Zm7,0h1.75v1.75H229.6Zm1.75,1.75h1.75v3.5h7V195H224.35v-1.75h7Zm-5.25,8.75h12.25v1.75H226.1Zm0,3.5h12.25v1.75H226.1Zm0,3.5h12.25V216H236.6v-1.75h-8.75V216H226.1Zm1.75,1.75v5.25h8.75v-5.25ZM246.4,188Zm12.25,0h1.75v3.5h-1.75v1.75H256.9V195h-1.75v1.75H253.4v1.75h-3.5v1.75h-3.5V198.5h3.5v-1.75h3.5V195h1.75v-1.75h1.75V191.5h1.75Zm1.75,3.5h1.75v1.75H260.4Zm1.75,1.75h1.75V195h-1.75ZM256.9,195h1.75v1.75H256.9Zm7,0h3.5v1.75h-3.5Zm-5.25,1.75h1.75v3.5h7v3.5h-1.75v1.75H263.9v1.75h-1.75V205.5h1.75v-1.75h1.75V202h-14v-1.75h7Zm8.75,0h5.25v1.75H270.9v1.75h-1.75V198.5H267.4Zm-10.5,8.75h1.75v1.75H256.9Zm-3.5,1.75h1.75v7H253.4Zm5.25,0h1.75v3.5h-1.75ZM249.9,209h1.75v3.5H249.9v1.75h-1.75V212.5h1.75Zm17.5,0h1.75v1.75H267.4Zm-3.5,1.75h1.75V216h-10.5v-1.75h8.75Zm5.25,0h1.75v3.5h-1.75Zm22.022-6.762a1.694,1.694,0,0,0-1.316.476,1.625,1.625,0,0,0-.5,1.26,1.666,1.666,0,0,0,.476,1.232,1.628,1.628,0,0,0,1.2.5,1.5,1.5,0,0,0,.616-.112,3.3,3.3,0,0,1-.588,1.876,4.049,4.049,0,0,1-1.792,1.232v1.372a5.4,5.4,0,0,0,2.884-1.82,5.247,5.247,0,0,0,1.092-3.276,3.253,3.253,0,0,0-.56-1.96A1.788,1.788,0,0,0,291.172,203.988ZM308,188Zm12.25,0H322v1.75h-1.75Zm1.75,1.75h1.75v1.75h10.5v1.75h-14v3.5H318.5v1.75h-1.75v1.75H329V198.5h1.75v1.75h1.75v3.5h-1.75V202H325.5v10.5h-1.75V202h-3.5v5.25H318.5v3.5h-1.75v1.75H315v1.75h-1.75V216h-3.5v-1.75h3.5V212.5H315v-1.75h1.75v-3.5h1.75V202h-5.25v-1.75H315V198.5h1.75v-1.75h1.75v-3.5h-8.75V191.5H322Zm5.25,7H329v1.75h-1.75Zm3.5,10.5h1.75v7h-7V212.5h5.25ZM338.8,188Zm1.75,0h1.75v1.75h-1.75Zm10.5,0h1.75v3.5h5.25V188h1.75v3.5h5.25v1.75H359.8v5.25h-3.5V202h7v12.25h-1.75V216H359.8v-1.75h1.75v-3.5H359.8V209h1.75v-5.25H356.3v1.75h1.75v1.75H356.3V209h1.75v-1.75h1.75V209h-1.75v1.75H356.3V216h-1.75v-5.25H352.8V209h1.75v-5.25H349.3v1.75h1.75v1.75H349.3V209h1.75v-1.75h1.75V209h-1.75v1.75H349.3V216h-1.75V202h7v-3.5h-3.5v-5.25H345.8V191.5h5.25Zm-8.75,1.75h1.75v3.5H342.3Zm10.5,3.5v3.5h5.25v-3.5Zm-14,1.75h1.75v1.75H338.8Zm1.75,1.75h1.75v3.5h-1.75Zm3.5,1.75h1.75v5.25h-1.75v10.5H342.3v-7h-3.5V205.5h3.5v-1.75h1.75Zm14,14h1.75v1.75h-1.75ZM369.6,188Zm1.75,1.75H383.6v8.75h5.25V195h1.75v-1.75h1.75V191.5h-7v-1.75h10.5v1.75H394.1v1.75h-1.75V195H390.6v3.5h5.25V202H394.1v1.75h-1.75V202h1.75v-1.75h-3.5v14h-1.75V216H387.1v-1.75h1.75v-14H383.6V202h-5.25v3.5h5.25v1.75h-5.25v3.5h5.25v1.75h-5.25v1.75H373.1V216h-1.75v-1.75H369.6V212.5h7v-5.25h-5.25V205.5h5.25V202h-5.25Zm1.75,1.75V195h3.5v-3.5Zm5.25,0V195h3.5v-3.5Zm8.75,1.75h1.75V195H387.1Zm-14,3.5v3.5h3.5v-3.5Zm5.25,0v3.5h3.5v-3.5Zm7,15.75h1.75v1.75h-1.75ZM400.4,188Zm12.25,0h1.75v1.75h-1.75Zm1.75,1.75h1.75v3.5H414.4Zm1.75,3.5h1.75v3.5h-1.75ZM407.4,195h1.75v17.5H407.4Zm-3.5,3.5h1.75v5.25H403.9v3.5h-1.75V209H400.4v-1.75h1.75v-3.5h1.75Zm17.5,0h1.75v1.75H421.4Zm1.75,1.75h1.75v3.5h-1.75Zm1.75,3.5h1.75v3.5H424.9Zm-5.25,3.5h1.75v7H409.15V212.5h10.5ZM431.2,188Zm5.25,0h1.75v3.5h-1.75v1.75h7v5.25h1.75V195h1.75v-7h1.75v5.25h7V212.5h-1.75v1.75H452.2V216h-1.75v-1.75h1.75V212.5h1.75V195h-7v3.5H445.2v1.75h-1.75v14H441.7V212.5h-7v1.75h-1.75v-21h1.75V191.5h1.75Zm-1.75,7v7h7v-7Zm12.25,5.25h1.75V202h-1.75ZM448.7,202h1.75v3.5H448.7Zm-14,1.75v7h7v-7Zm14,8.75h1.75v1.75H448.7ZM462,188Zm7,0h1.75v3.5H476v1.75h-5.25v3.5h3.5v8.75h-3.5V209H476v1.75h-5.25V216H469v-5.25h-5.25V209H469v-3.5h-3.5v-8.75H469v-3.5h-5.25V191.5H469Zm8.75,1.75h8.75v24.5h-1.75V216H483v-1.75h1.75V205.5H479.5v7h-1.75v1.75H476V216h-1.75v-1.75H476V212.5h1.75Zm1.75,1.75v5.25h5.25V191.5Zm-12.25,7v1.75h5.25V198.5Zm12.25,0v5.25h5.25V198.5ZM467.25,202v1.75h5.25V202Zm14,10.5H483v1.75h-1.75ZM492.8,188Zm5.25,1.75H513.8v24.5h-1.75V212.5H499.8v1.75h-1.75Zm1.75,1.75v5.25h12.25V191.5Zm0,7v5.25h12.25V198.5Zm0,7v5.25h12.25V205.5ZM523.6,188Zm5.25,0h1.75v7h3.5v-1.75h3.5V191.5h-5.25v-1.75h17.5v1.75H544.6v1.75h3.5v7h-14v-3.5h-3.5v3.5h1.75V202H530.6v14h-1.75V202H527.1v3.5h-1.75v1.75H523.6V205.5h1.75V202h1.75v-3.5h1.75v-1.75H523.6V195h5.25Zm10.5,3.5v1.75h3.5V191.5Zm-3.5,3.5v3.5h1.75V195Zm3.5,0v3.5h3.5V195Zm5.25,0v3.5h1.75V195Zm-12.25,7h1.75v1.75h-1.75Zm3.5,0h10.5v1.75h-10.5Zm-3.5,3.5h17.5v1.75h-7v7H541.1V216h-1.75v-1.75h1.75v-7h-8.75Zm3.5,3.5h1.75v1.75h-1.75v1.75H534.1v1.75h-1.75V212.5h1.75v-1.75h1.75Zm8.75,0h1.75v1.75H544.6Zm1.75,1.75h3.5v3.5H548.1V212.5h-1.75Zm-8.75,1.75h1.75v1.75H537.6ZM554.4,188Zm5.25,0h1.75v1.75h-1.75Zm14,0h1.75v1.75h-1.75v1.75H571.9v1.75h8.75V195H554.4v-1.75h8.75V191.5h1.75v1.75h5.25V191.5h1.75v-1.75h1.75Zm-12.25,1.75h1.75v1.75H561.4Zm-3.5,7h8.75v17.5H564.9V216h-1.75v-1.75h1.75V209h-5.25v7H557.9Zm17.5,0h1.75v17.5H575.4V216h-1.75v-1.75h1.75Zm-15.75,1.75V202h5.25v-3.5Zm10.5,0h1.75V209h-1.75Zm-10.5,5.25v3.5h5.25v-3.5Zm1.75,8.75h1.75v1.75H561.4Zm10.5,0h1.75v1.75H571.9ZM585.2,188Zm12.25,0h1.75v3.5h3.5v-1.75h1.75v1.75h7v1.75h-7v3.5h5.25v1.75h-5.25V202h5.25v1.75h-5.25v3.5h7V209h-14v1.75H595.7V195h-1.75v1.75H592.2V195h1.75v-1.75h1.75V191.5h1.75Zm3.5,0h1.75v1.75h-1.75Zm-12.25,1.75h1.75v1.75H588.7Zm1.75,1.75h1.75V195h-1.75Zm7,1.75v3.5h5.25v-3.5ZM585.2,198.5h7v12.25h-1.75v1.75H588.7v1.75h-1.75V212.5h1.75v-1.75h1.75v-10.5H585.2Zm12.25,0V202h5.25v-3.5Zm0,5.25v3.5h5.25v-3.5Zm-5.25,7h1.75v1.75H592.2Zm1.75,1.75h17.5v1.75h-17.5Zm34.762-16.492.42,14.616h1.736l.448-14.616ZM630,212.668a1.6,1.6,0,0,0-1.2.476,1.5,1.5,0,0,0-.476,1.176,1.6,1.6,0,0,0,.476,1.2A1.717,1.717,0,0,0,630,216a1.785,1.785,0,0,0,1.232-.476,1.624,1.624,0,0,0,.476-1.2,1.6,1.6,0,0,0-.476-1.176A1.666,1.666,0,0,0,630,212.668ZM0,234Zm7,0H8.75v5.25H7V262H5.25V244.5H3.5v1.75H1.75V248H0v-1.75H1.75V244.5H3.5v-1.75H5.25v-3.5H7Zm3.5,1.75H22.75v7h3.5v1.75h-3.5v8.75H21V251.5H15.75V255H14v3.5H12.25v1.75H10.5V262H8.75v-1.75H10.5V258.5h1.75V255H14v-3.5H10.5v-1.75H14V244.5H8.75v-1.75H14V237.5H10.5Zm5.25,1.75v5.25H21V237.5Zm0,7v5.25H21V244.5ZM30.8,234Zm14,0h1.75v1.75H55.3v1.75H53.55v1.75H51.8V241H50.05v1.75H48.3v1.75H44.8v1.75H41.3V244.5h3.5v-1.75h3.5V241h1.75v-1.75H51.8V237.5H46.55v1.75h-3.5V241H41.3v-1.75h1.75V237.5H44.8Zm-12.25,1.75H41.3v3.5H39.55v3.5H37.8v1.75H36.05v-1.75H37.8v-3.5h1.75V237.5H34.3v15.75h1.75V255H34.3v7H32.55Zm14,3.5H48.3V241H46.55Zm3.5,3.5h3.5v1.75h-3.5ZM37.8,244.5h1.75V248H37.8Zm15.75,0h3.5v1.75h-3.5V248h-3.5v3.5H55.3v1.75H50.05V255H55.3v1.75H50.05v1.75h7v1.75H39.55V258.5H48.3v-1.75H43.05V255H48.3v-1.75H43.05V255H41.3v-1.75h1.75v-3.5H44.8v1.75h3.5V248H44.8v-1.75h8.75Zm-14,3.5H41.3v5.25H39.55V255H37.8v1.75H36.05V255H37.8v-1.75h1.75Zm36.05,2.184a1.647,1.647,0,0,0-1.232.5,1.624,1.624,0,0,0-.476,1.232,1.666,1.666,0,0,0,.476,1.232,1.736,1.736,0,0,0,1.232.476,1.785,1.785,0,0,0,1.232-.476,1.691,1.691,0,0,0,.5-1.232,1.647,1.647,0,0,0-.5-1.232A1.691,1.691,0,0,0,75.6,250.184ZM92.4,234Zm5.25,1.75H116.9v1.75h-8.75v1.75h7V241h-7v1.75h7v1.75h-7V248h8.75v10.5h-1.75v1.75H113.4V262h-1.75v-1.75h1.75V258.5h1.75v-8.75H97.65Zm1.75,1.75v1.75h7V237.5Zm0,3.5v1.75h7V241Zm0,3.5V248h7v-3.5Zm-3.5,7h1.75v5.25H95.9v1.75H94.15v-1.75H95.9Zm3.5,0h1.75v1.75H99.4Zm5.25,0h1.75v1.75h-1.75Zm5.25,0h1.75v1.75H109.9Zm-8.75,1.75h1.75v3.5h-1.75Zm5.25,0h1.75v3.5H106.4Zm5.25,0h1.75v3.5h-1.75Zm-1.75,5.25h1.75v1.75H109.9ZM123.2,234Zm3.5,0h1.75v5.25h5.25V234h1.75v5.25h1.75V241h-1.75v12.25h1.75V255h-14v-1.75h3.5V241h-1.75v-1.75h1.75Zm17.5,1.75h3.5v1.75h-3.5v1.75h-3.5v5.25h8.75v1.75h-3.5V262H144.2V246.25h-3.5v10.5h-1.75v3.5H137.2V262h-1.75v-1.75h1.75v-3.5h1.75V237.5h5.25ZM128.45,241v3.5h5.25V241Zm0,5.25V248h5.25v-1.75Zm0,3.5v3.5h5.25v-3.5Zm0,7h1.75v1.75h-1.75v1.75H126.7V262h-1.75v-1.75h1.75V258.5h1.75Zm3.5,0h1.75v1.75h-1.75Zm1.75,1.75h1.75v1.75H133.7ZM154,234Zm12.25,0H168v3.5h12.25v1.75H168v3.5h7v8.75h-3.5v8.75h-1.75V251.5H164.5v5.25h-1.75v1.75H161v1.75h-3.5V262H154v-1.75h3.5V258.5H161v-1.75h1.75V251.5h-3.5v-8.75h7v-3.5H154V237.5h12.25ZM161,244.5v5.25h12.25V244.5Zm17.5,12.25h1.75V262H171.5v-1.75h7Zm20.3-11.8a1.573,1.573,0,0,0-1.232.532,1.524,1.524,0,0,0-.476,1.2,1.6,1.6,0,0,0,.476,1.2,1.647,1.647,0,0,0,1.232.5,1.691,1.691,0,0,0,1.232-.5,1.628,1.628,0,0,0,.5-1.2,1.544,1.544,0,0,0-.5-1.2A1.613,1.613,0,0,0,198.8,244.948Zm0,10.248a1.573,1.573,0,0,0-1.232.532,1.524,1.524,0,0,0-.476,1.2,1.6,1.6,0,0,0,.476,1.2,1.647,1.647,0,0,0,1.232.5,1.691,1.691,0,0,0,1.232-.5,1.628,1.628,0,0,0,.5-1.2,1.544,1.544,0,0,0-.5-1.2A1.613,1.613,0,0,0,198.8,255.2Zm35-16.352v17.164h2.044V240.72h6.916v-1.876ZM246.4,234Zm5.25,3.5H267.4v14h-1.75v-1.75H253.4v1.75h-1.75Zm1.75,1.75V248h12.25v-8.75Zm1.75,14h1.75V255h-1.75v1.75H253.4v1.75h-1.75v1.75H249.9V262h-1.75v-1.75h1.75V258.5h1.75v-1.75h1.75V255h1.75Zm7,0h1.75V255h-1.75ZM263.9,255h1.75v1.75H263.9Zm1.75,1.75h1.75v1.75h1.75V262H267.4v-1.75h-1.75ZM277.2,234Zm1.75,1.75H301.7v1.75h-7V241h5.25v7h-10.5v1.75h14v1.75h-7V255H294.7v1.75h-1.75v1.75h-3.5v1.75h-3.5V262H280.7v-1.75h5.25V258.5h3.5v-1.75h3.5V255h1.75v-3.5h-7v1.75h-1.75V255H284.2v-1.75h1.75V251.5H277.2v-1.75h10.5V248h-7v-7h5.25v-3.5h-7Zm8.75,1.75V241h5.25v-3.5Zm-5.25,5.25v3.5h3.5v-3.5Zm5.25,0v3.5h5.25v-3.5Zm7,0v3.5h3.5v-3.5ZM285.95,255h3.5v1.75h-3.5Zm7,3.5h3.5v1.75h-3.5Zm3.5,1.75h1.75V262h-1.75ZM308,234Zm3.5,0h1.75v3.5h7v1.75H315V241h-1.75v-1.75H311.5V241h-1.75v1.75H308V241h1.75v-1.75h1.75Zm12.25,0h1.75v3.5h8.75v1.75h-7V241H325.5v-1.75H322V241h-1.75v-1.75H322V237.5h1.75ZM315,241h1.75v1.75h10.5V241H329v1.75h1.75v7H322v3.5h10.5v5.25h-1.75v1.75H329V262h-1.75v-1.75H329V258.5h1.75V255H322v7h-1.75v-5.25H318.5v1.75H315v1.75h-3.5V262H308v-1.75h3.5V258.5H315v-1.75h3.5V255h-7v-7h8.75v-3.5H311.5v-1.75H315Zm7,3.5V248h7v-3.5Zm-8.75,5.25v3.5h7v-3.5Zm12.25,8.75h1.75v1.75H325.5ZM338.8,234Zm0,12.25h26.25V248H338.8ZM369.6,234Zm12.25,0h1.75v5.25h7V241h-7v3.5h12.25v1.75H383.6V255h-1.75v-8.75H369.6V244.5h7v-8.75h1.75v8.75h3.5Zm-5.25,14h1.75v1.75h1.75v1.75h-3.5v1.75h-1.75V255H373.1v-1.75h1.75V251.5h1.75Zm12.25,0h1.75v1.75h1.75v1.75H390.6v1.75h-1.75V255H387.1v1.75h-1.75v1.75h-3.5v1.75H376.6V262h-5.25v-1.75h5.25V258.5h5.25v-1.75h3.5V255h1.75v-1.75h1.75Zm11.55-14Zm7,0h12.25v12.25H407.4Zm1.75,1.75v3.5h8.75v-3.5Zm0,5.25v3.5h8.75V241Zm-7,7H424.9v1.75H414.4v3.5h8.75V255H414.4v5.25h-3.5V258.5h1.75v-8.75h-10.5Zm5.25,3.5h1.75v5.25H407.4v1.75h-1.75v1.75H403.9V262h-1.75v-1.75h1.75V258.5h1.75v-1.75h1.75Zm1.75,5.25h1.75v1.75h-1.75Zm5.25,3.5h10.5V262H414.4Zm35-21.406v17.164h2.044V240.72h6.916v-1.876ZM462,234Zm1.75,1.75h24.5v1.75H483v22.75h-1.75V262H479.5v-1.75h1.75V237.5h-17.5ZM469,241h8.75v14H476v-1.75h-5.25V255H469Zm1.75,1.75v8.75H476v-8.75Zm7,15.75h1.75v1.75h-1.75ZM492.8,234Zm5.25,0h1.75v3.5h-1.75v1.75H496.3V241h5.25v-3.5h1.75V241h1.75v3.5H503.3v15.75h-1.75V262H499.8v-1.75h1.75V255H496.3v7h-1.75V244.5h8.75v-1.75H492.8V241h1.75v-1.75h1.75V237.5h1.75Zm8.75,0h1.75v7h1.75v-1.75h1.75V237.5h1.75v-1.75h1.75v3.5h-3.5V241H510.3v1.75h-1.75v3.5H506.8Zm8.75,8.75h1.75V248h-8.75v-1.75h7Zm-19.25,3.5v3.5h5.25v-3.5Zm10.5,3.5h1.75V255h1.75v-1.75h1.75V251.5h1.75v-1.75h1.75v3.5h-3.5V255H510.3v1.75h-1.75v3.5H506.8Zm-10.5,1.75v1.75h5.25V251.5Zm21,5.25h1.75V262h-10.5v-1.75h8.75Zm-19.25,1.75h1.75v1.75h-1.75ZM523.6,234Zm5.25,0h1.75v3.5h-1.75v1.75h7v5.25h1.75V241h1.75v-7h1.75v5.25h7V258.5h-1.75v1.75H544.6V262h-1.75v-1.75h1.75V258.5h1.75V241h-7v3.5H537.6v1.75h-1.75v14H534.1V258.5h-7v1.75h-1.75v-21h1.75V237.5h1.75Zm-1.75,7v7h7v-7Zm12.25,5.25h1.75V248h-1.75ZM541.1,248h1.75v3.5H541.1Zm-14,1.75v7h7v-7Zm14,8.75h1.75v1.75H541.1Zm21.056-10.668V263.12H555.24V265h8.96V247.832Zm37.016,2.156a1.694,1.694,0,0,0-1.316.476,1.625,1.625,0,0,0-.5,1.26,1.666,1.666,0,0,0,.476,1.232,1.628,1.628,0,0,0,1.2.5,1.5,1.5,0,0,0,.616-.112,3.3,3.3,0,0,1-.588,1.876,4.049,4.049,0,0,1-1.792,1.232v1.372a5.4,5.4,0,0,0,2.884-1.82,5.247,5.247,0,0,0,1.092-3.276,3.253,3.253,0,0,0-.56-1.96A1.788,1.788,0,0,0,599.172,249.988ZM616,234Zm14,0h1.75v5.25H637v-3.5h1.75v3.5h3.5V241h-10.5v5.25H630V241h-8.75v5.25h7V255H626.5v1.75h-1.75V255h1.75v-7h-5.25v8.75H619.5v1.75h-1.75v1.75H616V258.5h1.75v-1.75h1.75v-17.5H630Zm5.25,0H637v1.75h-1.75Zm3.5,10.5h1.75V248h-1.75v3.5H637v1.75h-1.75v3.5h-3.5v1.75H630v1.75h-1.75V262H626.5v-1.75h1.75V258.5H630v-1.75h1.75V255h1.75v-3.5H637V248h1.75Zm-7,1.75h1.75v5.25h-1.75Zm-8.75,7h1.75V255H623ZM640.5,255h1.75v7h-3.5v-1.75h1.75Zm-5.25,1.75H637v1.75h-1.75ZM637,258.5h1.75v1.75H637Zm9.8-24.5Zm15.75,0h1.75v7h7v17.5h-1.75v1.75H667.8V262h-1.75v-1.75h1.75V258.5h1.75V242.75H664.3v8.75h-1.75V255H660.8v1.75h-1.75v1.75H657.3v1.75h-1.75V262H653.8v-1.75h1.75V258.5h1.75v-1.75h1.75V255h1.75v-3.5h1.75v-8.75h-3.5V241h3.5Zm-15.75,5.25h10.5V241h-3.5v10.5h5.25v1.75H653.8V255h-3.5v1.75h-1.75V255H646.8v-1.75h5.25V241H646.8Zm15.75,17.5h1.75v1.75h-1.75Zm1.75,1.75h1.75v1.75H664.3ZM677.6,234Zm5.25,0h1.75v3.5h-1.75v1.75h7v5.25h1.75V241h1.75v-7h1.75v5.25h7V258.5h-1.75v1.75H698.6V262h-1.75v-1.75h1.75V258.5h1.75V241h-7v3.5H691.6v1.75h-1.75v14H688.1V258.5h-7v1.75h-1.75v-21h1.75V237.5h1.75Zm-1.75,7v7h7v-7Zm12.25,5.25h1.75V248h-1.75ZM695.1,248h1.75v3.5H695.1Zm-14,1.75v7h7v-7Zm14,8.75h1.75v1.75H695.1ZM708.4,234Zm5.25,0h1.75v7h3.5v-3.5h1.75V234h1.75v3.5h-1.75v1.75h1.75V237.5h1.75V241H722.4v1.75h-1.75v1.75h1.75v-1.75h1.75V248H722.4v1.75h3.5V234h1.75v15.75h3.5V248h1.75v1.75h1.75v1.75H729.4V255h-1.75v-3.5H722.4V255h-1.75v3.5H718.9v1.75h-1.75V262h-3.5V248H711.9v3.5h-1.75v1.75H708.4V251.5h1.75V248h1.75v-3.5h1.75v-1.75H708.4V241h5.25Zm17.5,0h1.75v3.5h-1.75v1.75h1.75V237.5h1.75V241H732.9v1.75h-1.75v1.75h1.75v-1.75h1.75v3.5h-3.5V248H729.4v-5.25h1.75V241H729.4v-3.5h1.75Zm-12.25,7v1.75h-3.5v1.75h1.75v1.75H715.4v14h1.75V258.5h1.75V255h1.75v-3.5h-3.5v-1.75h3.5V248h1.75v-1.75h-3.5V248h-1.75v-1.75h1.75v-3.5h1.75V241Zm12.25,12.25h1.75V255h-1.75v3.5h-3.5v1.75H725.9V262h-1.75v-1.75h1.75V258.5h1.75v-1.75h1.75V255h1.75ZM722.4,255h1.75v1.75H722.4Zm1.75,1.75h1.75v1.75h-1.75Zm8.75,0h1.75V262H732.9v-1.75h-1.75V258.5h1.75ZM0,280Zm10.5,0h1.75v1.75H10.5Zm1.75,1.75H14v1.75h7v-1.75h1.75v1.75H24.5v1.75H14V287H12.25v1.75h3.5V287H17.5v1.75H15.75v1.75H14v1.75H12.25V294h3.5v-1.75H17.5V294h1.75v-1.75H21V294H19.25v3.5H17.5v-1.75H8.75V294H10.5v-1.75h1.75V290.5H8.75v-1.75H10.5V287h1.75v-1.75H1.75V283.5h10.5ZM1.75,287H3.5v1.75H1.75ZM21,287h1.75v1.75H21v1.75H19.25v-1.75H21ZM3.5,288.75H5.25v1.75H3.5Zm1.75,3.5H7V294H5.25v1.75H3.5v1.75H1.75v-1.75H3.5V294H5.25ZM21,294h1.75v1.75H21Zm1.75,1.75H24.5v1.75H22.75Zm-10.5,1.75H14v1.75H26.25V301H14v7H12.25v-7H0v-1.75H12.25ZM30.8,280Zm3.5,0h1.75v1.75H34.3Zm12.25,0H48.3v8.75h8.75v1.75H51.8v14H50.05v-14H48.3V301H46.55v3.5H44.8v1.75H43.05V308H41.3v-1.75h1.75V304.5H44.8V301h1.75V290.5H41.3v7H37.8v8.75H36.05V308H34.3v-1.75h1.75V297.5h-3.5v-7H41.3v-1.75h5.25Zm-10.5,1.75H37.8v1.75H36.05Zm14,0H51.8v1.75H50.05Zm1.75,1.75h1.75v1.75H51.8Zm-21,1.75H43.05V287H30.8Zm3.5,7v3.5h5.25v-3.5Zm-1.75,7H34.3V301H32.55v1.75H30.8V301h1.75Zm7,0H41.3V301H39.55ZM41.3,301h1.75v1.75H41.3Zm14,0h1.75v5.25H51.8V304.5h3.5Zm-22.75,3.5H34.3v1.75H32.55ZM61.6,280Zm0,1.75H87.85v1.75H77.35V287H75.6v21H73.85V292.25H72.1V294H70.35v1.75H68.6v1.75H66.85v1.75H65.1V301H63.35v-1.75H65.1V297.5h1.75v-1.75H68.6V294h1.75v-1.75H72.1V290.5h1.75V287H75.6v-3.5h-14Zm15.75,8.75H79.1v1.75H77.35Zm1.75,1.75h1.75V294H79.1ZM80.85,294h3.5v1.75H86.1v3.5H84.35V297.5H82.6v-1.75H80.85ZM92.4,280Zm12.25,0h1.75v1.75h-1.75v1.75H102.9v1.75h5.25V283.5h3.5v1.75H109.9V287h-8.75v-1.75H99.4V287H95.9v1.75H92.4V287h3.5v-1.75h3.5V283.5h3.5v-1.75h1.75Zm1.75,1.75h1.75v1.75H106.4Zm5.25,3.5h3.5V287h-3.5Zm3.5,1.75h3.5v1.75h-3.5v7H95.9v-7h19.25Zm-17.5,3.5V294h3.5v-1.75h1.75V294h1.75v-3.5h-3.5v1.75H99.4V290.5Zm8.75,0V294h1.75v-1.75h1.75V290.5Zm5.25,0v1.75H109.9V294h3.5v-3.5Zm-14,7H113.4V308h-1.75v-1.75H99.4V308H97.65Zm1.75,1.75V301h12.25v-1.75Zm0,3.5v1.75h12.25v-1.75ZM123.2,280Zm7,0h12.25v12.25H130.2Zm1.75,1.75v3.5h8.75v-3.5Zm0,5.25v3.5h8.75V287Zm-7,7H147.7v1.75H137.2v3.5h8.75V301H137.2v5.25h-3.5V304.5h1.75v-8.75h-10.5Zm5.25,3.5h1.75v5.25H130.2v1.75h-1.75v1.75H126.7V308h-1.75v-1.75h1.75V304.5h1.75v-1.75h1.75Zm1.75,5.25h1.75v1.75h-1.75Zm5.25,3.5h10.5V308H137.2ZM154,280Zm5.25,0H175v1.75h-7v1.75h12.25V287H178.5v1.75h-1.75V287h1.75v-1.75H168v7h-1.75V294H164.5v1.75H161v1.75h-3.5v1.75H154V297.5h3.5v-1.75H161V294h3.5v-1.75h1.75v-7H157.5V287h-1.75v1.75H154V287h1.75v-3.5h10.5v-1.75h-7Zm0,7h5.25v1.75h-5.25Zm10.5,0H175v1.75h-5.25Zm-10.5,3.5h5.25v1.75h-5.25Zm10.5,0H175v1.75h-5.25V294H168v-1.75h1.75Zm0,3.5h3.5v1.75h-3.5Zm-5.25,1.75h1.75v1.75H164.5Zm8.75,0h3.5v1.75h-3.5Zm-7,1.75H168v1.75h5.25V301H171.5v1.75h-1.75v1.75H168v1.75h-1.75V304.5H168v-1.75h1.75V301H161v-1.75h5.25Zm10.5,0h3.5v1.75h-3.5Zm-12.25,5.25h1.75v1.75H164.5Zm3.5,3.5h1.75V308H168Zm30.8-11.858a3.594,3.594,0,0,0-2.576,1.008,3.263,3.263,0,0,0-1.064,2.52,3.2,3.2,0,0,0,1.064,2.492,3.618,3.618,0,0,0,2.576,1.036,3.666,3.666,0,0,0,2.576-1.036,3.483,3.483,0,0,0,0-5.012A3.641,3.641,0,0,0,198.8,294.392Zm0,1.484a2.12,2.12,0,0,1,1.484.588,1.954,1.954,0,0,1,.644,1.456,2,2,0,0,1-.644,1.456,2.12,2.12,0,0,1-1.484.588,2.026,2.026,0,0,1-1.484-.588,1.858,1.858,0,0,1-.644-1.456,1.819,1.819,0,0,1,.644-1.456A2.026,2.026,0,0,1,198.8,295.876Zm24.556-2.044V309.12H216.44V311h8.96V293.832Z" transform="translate(0 -4)" fill="#fff"/>
</svg>
