<svg xmlns="http://www.w3.org/2000/svg" width="290" height="290" viewBox="0 0 290 290">
  <g id="elon" transform="translate(-371.004)">
    <rect id="Rectangle_40922" data-name="Rectangle 40922" width="290" height="290" transform="translate(371.004)" fill="#545454"/>
    <g id="Group_44409" data-name="Group 44409" transform="translate(371 49)">
      <path id="Path_60825" data-name="Path 60825" d="M660.079,476.309V448a13.614,13.614,0,0,0-4.419-2.377c-6.532-2.214-72.075-24.945-73.1-24.945s-7.037-13.53-10.361-14.162-76.533-3.536-82.221-.321-25,17.652-25,17.652S397.637,448.375,386.8,452.6c-9.769,3.812-14.106,21.993-16.2,28.346l289.451.078a14.449,14.449,0,0,1,.028-4.715Z" transform="translate(-370.596 -240.71)" fill="#1a1920"/>
      <path id="Path_60826" data-name="Path 60826" d="M694.457,481.361c.532-7.3,1.667-20.872,3.383-31.172,2.465-14.8-2.841-30.053-3.733-37s-5.708-7.611-6.342-7.822-83.8,11.208-83.8,11.208-.125,13.95-.132,20.926c-.006,5.949,4.769,33.882,6.568,43.856Z" transform="translate(-489.331 -241.045)" fill="#dedbd3"/>
      <path id="Path_60827" data-name="Path 60827" d="M688.766,391.179c-1.907,2.573-.266,22.832,0,28.751s0,11.2,0,11.2-48.99,33.46-66.911,17.335S603.829,413.8,603.829,413.8l.43-16.278Z" transform="translate(-489.325 -233.829)" fill="#ca9072"/>
      <path id="Path_60828" data-name="Path 60828" d="M766.3,393.556c-1.049,1.268-4.477,25.275-2.034,32.225a33.9,33.9,0,0,1,2.034,12.471l8.114-10.358-4.5,2.749-1.009-40.431Z" transform="translate(-570.507 -233.337)" fill="#9c624b"/>
      <path id="Path_60829" data-name="Path 60829" d="M604.681,401.719c-.124-1.107-.423,4.258,20.718,20.22,1.787,1.349,18.181,5.39,28.54,1.374s34.248-25.158,34.248-25.158l1-6.976S604.848,403.207,604.681,401.719Z" transform="translate(-489.747 -233.829)" fill="#4f2d21"/>
      <path id="Path_60830" data-name="Path 60830" d="M569.654,204.291s-.035,10.464,1.022,11.732a5.714,5.714,0,0,0,2.531,1.69c-.29-2.256,1.037,11.449,2.4,15.889,2.665,8.687,1.486,20.189,9.174,25.612,8.053,5.681,24.584,22.556,34.731,21.077s14.164-.846,17.547-2.326,16.49-10.993,20.083-13.741,13.953-13.728,14.8-17.117,1.268-18.188,1.268-18.188-1.057-17.335,1.48-21.775,5.844-14.178,5.844-14.178-3.519-53.26-11.341-59.814-36.278-20.295-36.278-20.295l-53.147,14.8-11.628,31.5,1.144,44.268Z" transform="translate(-471.172 -92.287)" fill="#e0a484"/>
      <path id="Path_60831" data-name="Path 60831" d="M638.688,354.056l5.5-22.363h25.173s11.988,17.19,12.17,18.561-1.089,4.31-1.089,4.31S642.6,362.829,638.688,354.056Z" transform="translate(-507.047 -203.577)" fill="#cb826a"/>
      <path id="Path_60832" data-name="Path 60832" d="M618.854,251.611c.164.419-11.733-5.571-20.929.891s-10.063-1.481-8.308-4.539,3.129-7.581,7.674-7.434S614.943,241.616,618.854,251.611Z" transform="translate(-481.692 -157.213)" fill="#e8b097"/>
      <path id="Path_60833" data-name="Path 60833" d="M646.861,249.437c2.537.86,18.14,6.228,21.167,2.53s-2.748,5.818-1.9,10.471c.486,2.671,2.116,19.925,2.116,19.925a15.6,15.6,0,0,1-7.708,4.893c-2.508.575-6.46-1.631-8.178-3.9,0,0-.153-17.855,1.06-22.517S646.861,249.437,646.861,249.437Z" transform="translate(-511.198 -161.745)" fill="#cb826a" opacity="0.21"/>
      <path id="Path_60834" data-name="Path 60834" d="M619.907,166.185c-1.57,1.511-8.714,7.81-6.841,10.458s7.3,10.467,1.872,16.6-2.747,6.189-2.747,6.189,13.769,3.1,19.238,6.826c2.327,1.584,8.858,2.843,13.528,2.736a12.728,12.728,0,0,0,5.756-1.39l13.843-9.819,14.057.694s1.017-18.991-1.1-21.839-13.107-14.527-17.758-13.761S625.16,161.13,619.907,166.185Z" transform="translate(-493.234 -117.709)" fill="#e8b097" opacity="0.6"/>
      <path id="Path_60835" data-name="Path 60835" d="M615.725,289.67c-3.913,1.134-9.958.961-13.757,4.18s-6.935,10.7-4.433,13.11c.624.6,5.5,7.233,8.879,7.655,0,0,3.592,10.214,2.748,15.654s6.132,23.826,13.954,26.5,19.027,7.109,31.288-.5,17.59-22.566,18.677-25.331.508-15.3,1.486-18.241,6.052-11.713-2.827-18.953-19.578-12.92-23.677-13.229-6.016.349-5.806,1.7.774,15.7-1.17,17.9c-2.23,2.528-4.162,2.311-7.9,2a8.084,8.084,0,0,1-7.2-6.273l-2.873-12.68S619.732,288.508,615.725,289.67Z" transform="translate(-485.662 -177.509)" fill="#e8b097" opacity="0.59"/>
      <path id="Path_60836" data-name="Path 60836" d="M726.427,245.977c.238.588-5.6,11.613-5.6,12.142s-6.765-7.408-6.765-7.408-6.4-3.081-10.735-1.787a45.219,45.219,0,0,0-9.543,4.707s1.252-9.022,4.212-11.57S724.63,241.538,726.427,245.977Z" transform="translate(-535.083 -157.426)" fill="#e8b097"/>
      <path id="Path_60837" data-name="Path 60837" d="M638.686,375.12c-.152,1.233,6.87,10.174,19.463,9.619a25.121,25.121,0,0,0,20.217-11.627S638.9,373.4,638.686,375.12Z" transform="translate(-507.043 -224.641)" fill="#bf856d" opacity="0.95"/>
      <path id="Path_60838" data-name="Path 60838" d="M732.845,242.494s-.785,10.867-3.211,10.582,1.941,2.684,1.941,2.684l8.458,3.147-.763-3.572a18.2,18.2,0,0,0-3.945-8Z" transform="translate(-552.945 -158.214)" fill="#c4917a"/>
      <path id="Path_60839" data-name="Path 60839" d="M670.283,175.2c-.271.569.507,9.054,0,9.689s-8.678,22.56-8.678,22.56l5.406,4.1a12.089,12.089,0,0,1,4.687,8.137h0a10.875,10.875,0,0,1-2.727,8.639l-.633,1.116s1.011,8.144-1,9.912a43.7,43.7,0,0,1-5.6,3.844s3.594,2.021,1.057,12.234-7.822,13.082-7.822,13.082-4.033,9.719-4.862,11.084c-.41.676-9.879,16.1-19.872,16.642-10.186.556-21.485-13.5-24.393-13.662-7.509-.411-19.579-18.828-19.791-25.7s-2.114-29.854-1.48-33.48c.555-3.172,1.959-10.112,2.3-11.8.053-.258.114-.508.185-.762.526-1.862,2.828-9.878,3.855-11.249.7-.934,1.89-2.4,6.131-4.4a67.971,67.971,0,0,1,10.78-3.569,25.64,25.64,0,0,0-10.147-1.861c-5.431.215-13.526,2.907-13.526,2.907s-.843-11.715,0-17.459,8.877-22.868,10.779-24.771.875-6.09.875-6.09l-18.21,2.285.261,87.994s1.9,28.5,9.507,38.645c6.375,8.5,24.692,20.46,30.822,21.748s23.169,1.086,33.465-6.846,25.095-25.049,25.095-25.049l.868-44.327,7.588-12.337C684.524,177.8,674.7,165.952,670.283,175.2Z" transform="translate(-475.987 -108.298)" fill="#c68b71"/>
      <path id="Path_60840" data-name="Path 60840" d="M693.783,324.064c-.016-.589,6.96-1.9,5.48-5.58a37.489,37.489,0,0,0-2.451-4.834c-.973-1.648-1.777-2.808-1.777-2.808" transform="translate(-535.071 -192.973)" fill="#e8b097" opacity="0.59"/>
      <path id="Path_60841" data-name="Path 60841" d="M651.788,325.012s12.774,1.285,16.067.937,11.854-.359,8.773-5.928c-4.228-7.642-22.669-6.841-24.256-4.628S646.609,321.735,651.788,325.012Z" transform="translate(-512.429 -194.51)" fill="#e8b097" opacity="0.59"/>
      <path id="Path_60842" data-name="Path 60842" d="M578.525,162.919c-.644,1.23.376,9.222-1.557,14.719s-3.2,23.424-3.2,23.424a13.672,13.672,0,0,0-1.057,7.018,147.563,147.563,0,0,1,.211,15.221c-.211,4.651,1.268,9.091,1.057,11.2s1.9,19.873,1.9,19.873,1.273,11.2,2.645,15.855,6.446,11.2,6.446,11.2l4.891,5.5,2.389,1.641,4.847,7.979c-.348.349-16.567-9.671-20.293-21.459-3.618-11.446-5.153-31.747-5.153-31.747s-5.5-40.084-5.708-42.287.4-14.665,1.057-16.448S578.525,162.919,578.525,162.919Z" transform="translate(-469.997 -117.746)" fill="#865e50"/>
      <path id="Path_60843" data-name="Path 60843" d="M787.628,266.312c1.464-1.051,7.846-7.927,9.326-5.836s3.8,7.86,1.691,16.5a61.7,61.7,0,0,1-5.919,15.7c-.845,1.4-1.528,7.451-5.1,9.392s-5.684,3.209-6.107,1.729-.634-15.855,0-19.661S786.575,267.067,787.628,266.312Z" transform="translate(-579.526 -167.159)" fill="#d57e64"/>
      <path id="Path_60844" data-name="Path 60844" d="M685.132,530.587c3.454-4.117,8.529-10.877,8.529-10.877l-11.273-16.7a67.93,67.93,0,0,0-8.662-.845c-3.488,0-13.53,15.221-13.53,15.221l7.519,13.2Z" transform="translate(-517.99 -290.271)" fill="#303030"/>
      <path id="Path_60845" data-name="Path 60845" d="M564.964,116.173l-3.291,6.283-2.991,5.085,3.141,3.889-3.141,6.881-1.2,2.692s-2.692,2.992-3.59,4.189.3,5.085,0,6.88,2.693,20.642,2.693,20.642l.9,16.155S552.4,177.2,551.2,173.911s-1.5-22.736-1.5-22.736-6.282-16.753-6.282-17.65v-3.59l-4.189,1.2s5.086-6.282,6.283-8.077a47,47,0,0,0,2.991-6.881s5.684-4.487,5.983-5.385l2.692-8.077,5.684-5.983s1.5-6.282,3.59-6.881,4.189-6.282,5.385-7.18,0,2.692,0,2.692l3.59-2.836s3.59-2.848,5.684-4.643,7.778-1.5,9.573-1.5,12.266-.935,17.052-.019c0,0-4.787-5.067-3.889-3.87s7.778,2.991,7.778,2.991V71l5.385,2.991,13.163,3.291,2.693-4.188,5.385,4.787,5.684-3.889,1.5,9.274s5.385,7.778,5.085,8.675.012,6.881.012,6.881,8.664,2.393,10.758,6.582,10.171,14.659,11.966,17.351,3.889,9.274,3.889,9.274h-4.189l4.189,10.171-2.693,6.881.135,16.317-1.878-.637a4.453,4.453,0,0,0-.392,2.443c.3.9-2.352.723-2.352.723l-.3,1.5-2.094,2.393-.53-2.826-1.564,4.621L659.2,160.449s2.992-10.171,0-13.163-8.676-7.479-8.676-7.479,2.094-14.958.9-19.146-3.59-11.069-10.77-14.06-17.351-4.487-17.351-4.487l-5.086,4.487-2.393-6.582c-3.889,1.8-16.454,2.393-16.454,2.393l-7.778,2.992-5.983,3.889s-.9-6.282-2.692-5.385-6.581,2.693-7.778,3.59S568.255,115.276,564.964,116.173Z" transform="translate(-456.473 -71)" fill="#453c34"/>
      <path id="Path_60846" data-name="Path 60846" d="M655.945,325.778a2.332,2.332,0,0,1,3.171,0c.581.581,1.294,1.449,1.984,2.3a16.185,16.185,0,0,0,2.455,2.768,3.737,3.737,0,0,0,3.032.087,2.569,2.569,0,0,0,.977-.933c1.064-1.691,2.122-4.486,3.6-4.885s3.383-.188,3.171.869-.634,1.646-2.537,2.092a6.879,6.879,0,0,0-3,1.5l-2.352,1.666a1.784,1.784,0,0,1-1.675.208L661.014,330l-4.228-1.925S654.77,326.369,655.945,325.778Z" transform="translate(-515.633 -200.138)" fill="#332119"/>
      <g id="Group_44391" data-name="Group 44391" transform="translate(184.256 133.25)">
        <g id="Group_44390" data-name="Group 44390">
          <path id="Path_60847" data-name="Path 60847" d="M752.881,342.139l-.173,1.072c-.11.682-.273,1.656-.491,2.82s-.456,2.525-.747,3.976-.619,3.006-1.007,4.538-.845,3.049-1.293,4.464c-.222.708-.461,1.384-.7,2.023s-.467,1.239-.7,1.785-.468,1.04-.679,1.473c-.235.424-.424.8-.625,1.086-.1.145-.175.278-.257.385l-.222.262-.183.217.162-.233.194-.278c.069-.114.139-.252.224-.4.178-.294.34-.681.542-1.114.177-.446.387-.943.587-1.5s.411-1.158.623-1.8l.629-2.032c.426-1.413.841-2.933,1.225-4.46.408-1.523.765-3.05,1.066-4.5s.634-2.79.893-3.946.509-2.111.669-2.784Z" transform="translate(-745.801 -342.139)" fill="#795d4b"/>
        </g>
      </g>
      <g id="Group_44393" data-name="Group 44393" transform="translate(118.124 132.775)">
        <g id="Group_44392" data-name="Group 44392">
          <path id="Path_60848" data-name="Path 60848" d="M611.134,341.172l.267,1.053c.159.672.406,1.629.668,2.784s.584,2.5.894,3.946.657,2.977,1.066,4.5c.383,1.527.8,3.047,1.225,4.46l.629,2.032c.212.642.411,1.25.622,1.8s.41,1.052.588,1.5c.2.432.364.82.542,1.114.085.149.154.287.224.4l.194.278.163.233-.183-.217-.222-.262c-.081-.107-.161-.24-.257-.385-.2-.286-.39-.661-.626-1.086-.211-.434-.459-.922-.679-1.474-.237-.546-.463-1.148-.7-1.785s-.476-1.315-.7-2.023c-.448-1.415-.888-2.935-1.293-4.464-.388-1.532-.728-3.085-1.007-4.538s-.526-2.813-.747-3.976-.372-2.14-.492-2.82S611.134,341.172,611.134,341.172Z" transform="translate(-611.134 -341.172)" fill="#795d4b"/>
        </g>
      </g>
      <path id="Path_60849" data-name="Path 60849" d="M604.7,317.657c0-.669,6.416,15.372,7.61,16.912,2.4,3.1,3.715,5.854,5.285,7.4a22.564,22.564,0,0,0,4.89,3.383s6.684,8.55,10.754,9.936c3.652,1.244,17.335,2.749,23.466-3.171s7.188-8.456,7.188-8.456l6.765-2.96,6.922-10.993s8.722-3.8,9.99-7.822,2.326-18.437,2.326-18.437l-.846-19.193,5.919-8.879.979-6.319,3.173,3.98s-6.464,14.9-6.806,17.189-.6,32.126-1.786,36.317c-.592,2.1-3.586,6.788-7.837,11.62s-9.375,7.958-11.17,9.25c-3.589,2.584-12.059,11.559-25.394,12.038l-5.521.366c-5.617.574-8.144-.361-13.336-2.58a41.529,41.529,0,0,1-7.968-4.3c-4.481-3.3-8.51-11.822-10.187-15.726A20.785,20.785,0,0,1,607.9,333.4C606.975,329.089,604.7,318.5,604.7,317.657Z" transform="translate(-489.776 -171.723)" fill="#a56f59"/>
      <g id="Group_44395" data-name="Group 44395" transform="translate(114.963 102.385)">
        <g id="Group_44394" data-name="Group 44394">
          <path id="Path_60850" data-name="Path 60850" d="M604.7,279.334s.244.126.683.314c.216.1.489.2.8.326.315.105.661.245,1.051.365s.809.254,1.261.368c.447.131.936.2,1.427.318.5.067,1.015.175,1.545.213a13.482,13.482,0,0,0,1.6.089c.269,0,.539.019.807.006l.8-.056a16.846,16.846,0,0,0,2.968-.5c.224-.06.449-.1.655-.171l.6-.215c.377-.148.744-.243,1.043-.384l.779-.363.688-.309-.642.394-.746.444a10.015,10.015,0,0,1-1.021.476l-.594.257c-.206.086-.432.141-.657.216a9.815,9.815,0,0,1-1.444.39,11.526,11.526,0,0,1-1.584.241l-.823.065c-.276.016-.553,0-.831,0a14.011,14.011,0,0,1-1.65-.11c-.545-.042-1.067-.18-1.578-.261-.5-.132-.992-.238-1.44-.4-.452-.143-.874-.293-1.256-.452-.389-.14-.725-.318-1.03-.457-.3-.157-.559-.285-.766-.407a6.763,6.763,0,0,1-.645-.4Z" transform="translate(-604.704 -279.334)" fill="#bf8669"/>
        </g>
      </g>
      <g id="Group_44397" data-name="Group 44397" transform="translate(162.137 100.693)">
        <g id="Group_44396" data-name="Group 44396">
          <path id="Path_60851" data-name="Path 60851" d="M700.771,276.315l.223.086c.146.055.359.138.626.257l2.208.957c.46.188.955.4,1.491.583s1.1.374,1.693.551c.3.078.6.172.906.239l.937.2.961.14c.323.029.648.042.973.064a10,10,0,0,0,1.927-.123,5.936,5.936,0,0,0,.921-.2l.449-.12.422-.177c.559-.216,1.1-.5,1.613-.75l1.446-.708c.893-.442,1.652-.783,2.177-1.034l.832-.38-.788.465c-.506.286-1.22.714-2.094,1.2l-1.408.78a15.742,15.742,0,0,1-1.61.83l-.442.2-.47.141a5.423,5.423,0,0,1-.969.233,10.424,10.424,0,0,1-2.021.146c-.338-.026-.677-.041-1.012-.076l-.993-.153a18.6,18.6,0,0,1-3.58-1.122c-.533-.216-1.022-.452-1.474-.665-.9-.43-1.622-.853-2.136-1.122S700.771,276.315,700.771,276.315Z" transform="translate(-700.771 -275.892)" fill="#bf8669"/>
        </g>
      </g>
      <path id="Path_60852" data-name="Path 60852" d="M689.172,248.361s-4.456,8.245-4.456,13.53,2.553,15.325,2.228,17.176a27.331,27.331,0,0,1-2.228,5.445v1.479s3.642-3.187,4.682-2.873,5.254,3.591,5.254,3.591-.726-1.662-2.046-4.135a52.435,52.435,0,0,1-2.922-5.461c-.853-2.187-3.065-11.2-3.065-15.221S689.172,248.361,689.172,248.361Z" transform="translate(-530.459 -161.198)" fill="#ba6d58"/>
      <g id="Group_44399" data-name="Group 44399" transform="translate(160.59 91.049)">
        <g id="Group_44398" data-name="Group 44398">
          <path id="Path_60853" data-name="Path 60853" d="M697.621,259.358a5.689,5.689,0,0,0,.848-.342c.531-.238,1.265-.638,2.186-1.039.458-.2.961-.415,1.5-.621s1.12-.4,1.729-.566c.307-.074.619-.157.937-.226s.645-.129.976-.167a12.215,12.215,0,0,1,2.02-.125l.51.013.5.046c.329.024.662.07.995.125a18.524,18.524,0,0,1,1.907.415,24.163,24.163,0,0,1,3.236,1.165,20.694,20.694,0,0,1,2.946,1.58s-.3-.155-.825-.4c-.264-.123-.586-.269-.959-.428s-.8-.322-1.263-.5a25.447,25.447,0,0,0-3.24-1,18.091,18.091,0,0,0-1.867-.359c-.316-.049-.638-.092-.973-.114l-.49-.04-.49-.008a13.527,13.527,0,0,0-1.948.112c-.64.083-1.266.208-1.868.346a27.792,27.792,0,0,0-3.231,1.023c-.928.363-1.707.665-2.257.868a5.667,5.667,0,0,1-.65.2Z" transform="translate(-697.621 -256.267)" fill="#ab7052"/>
        </g>
      </g>
      <g id="Group_44401" data-name="Group 44401" transform="translate(114.961 92.604)">
        <g id="Group_44400" data-name="Group 44400">
          <path id="Path_60854" data-name="Path 60854" d="M604.7,264.562l.174-.215c.111-.142.267-.356.487-.613a11.1,11.1,0,0,1,.831-.893,10.219,10.219,0,0,1,1.218-1.02c.236-.172.5-.328.76-.5.275-.153.558-.315.856-.469.306-.135.613-.294.942-.42a10.106,10.106,0,0,1,1.02-.35,16.43,16.43,0,0,1,2.2-.475l1.151-.127,1.166-.045a21.483,21.483,0,0,1,2.312.13l.571.06.558.094c.371.06.736.121,1.09.212a14.334,14.334,0,0,1,2.013.6,15.186,15.186,0,0,1,1.724.749,11.2,11.2,0,0,1,1.369.8,11.411,11.411,0,0,1,.981.725,6.536,6.536,0,0,1,.772.727,8.157,8.157,0,0,0-.83-.651,11.189,11.189,0,0,0-1.019-.646c-.2-.119-.419-.235-.654-.35s-.478-.24-.739-.356a14.9,14.9,0,0,0-1.721-.66c-.308-.111-.635-.188-.966-.278s-.673-.167-1.021-.242-.7-.139-1.067-.192l-.547-.084-.554-.05a21.541,21.541,0,0,0-2.269-.1l-1.137.028-1.122.107a14.818,14.818,0,0,0-4.073,1.115c-.3.136-.577.282-.852.419-.262.159-.524.3-.762.457a13.561,13.561,0,0,0-1.251.927,10.979,10.979,0,0,0-.884.822l-.537.567Z" transform="translate(-604.704 -259.433)" fill="#ab7052"/>
        </g>
      </g>
      <g id="Group_44403" data-name="Group 44403" transform="translate(128.063 103.512)">
        <g id="Group_44402" data-name="Group 44402" opacity="0.56">
          <path id="Path_60855" data-name="Path 60855" d="M641.522,281.628s-.094.18-.27.484a3.738,3.738,0,0,1-.354.529,6.983,6.983,0,0,1-.522.653,9.239,9.239,0,0,1-.671.716c-.256.233-.507.506-.8.743s-.579.507-.9.739-.636.481-.963.713-.666.445-1,.66-.671.4-.991.6c-.65.374-1.273.7-1.818.949a15.457,15.457,0,0,1-1.863.755s.615-.528,1.572-1.238c.477-.36,1.037-.768,1.642-1.2l1.892-1.335c.327-.219.65-.443.962-.67l.926-.654.859-.62c.276-.2.521-.4.761-.569s.439-.346.629-.494.356-.28.483-.4C641.365,281.756,641.522,281.628,641.522,281.628Z" transform="translate(-631.375 -281.628)" fill="#afa597"/>
        </g>
      </g>
      <g id="Group_44405" data-name="Group 44405" transform="translate(157.85 100.693)">
        <g id="Group_44404" data-name="Group 44404" opacity="0.56">
          <path id="Path_60856" data-name="Path 60856" d="M692.029,275.892a11.109,11.109,0,0,1,1.168.708c.338.225.718.5,1.113.808s.81.641,1.213.988.795.7,1.156,1.049.694.669.974.958.509.537.673.709.252.285.252.285-.133-.039-.361-.123a6.8,6.8,0,0,1-.9-.421,11,11,0,0,1-1.182-.739c-.2-.15-.424-.3-.629-.464s-.417-.336-.622-.511c-.409-.351-.8-.725-1.148-1.089s-.664-.719-.918-1.038a8.809,8.809,0,0,1-.789-1.12Z" transform="translate(-692.029 -275.892)" fill="#afa597"/>
        </g>
      </g>
      <path id="Path_60857" data-name="Path 60857" d="M610.3,268.23a19.319,19.319,0,0,0,10.359,1.691,46.521,46.521,0,0,0,7.611-1.691s-5.352-4.368-9.725-4.064S610.3,268.23,610.3,268.23Z" transform="translate(-492.587 -169.227)" fill="#efefef"/>
      <path id="Path_60858" data-name="Path 60858" d="M733.423,240.529c1.723.964,8.148,13.805,8.148,13.805l3.786-9.958-7.791-3.85Z" transform="translate(-555.248 -157.213)" fill="#97684c" opacity="0.78"/>
      <path id="Path_60859" data-name="Path 60859" d="M701.095,263.989s4.719,3.213,9.011,2.579a28.848,28.848,0,0,0,7.674-2.3s-5.386-4.212-9.513-3.237a25.118,25.118,0,0,0-7.172,2.958Z" transform="translate(-538.797 -167.566)" fill="#efefef"/>
      <path id="Path_60860" data-name="Path 60860" d="M626.5,265.763s.827,4.32-1.691,4.489c-1.515.1-3.428.474-4.757-.528a5.3,5.3,0,0,1-1.587-3.961S624.387,263.6,626.5,265.763Z" transform="translate(-496.742 -169.559)" fill="#444d56"/>
      <path id="Path_60861" data-name="Path 60861" d="M713.367,262.424s-.782,4.6,1.057,4.6,3.064.93,5-.5a3.066,3.066,0,0,0,.839-2.623,1.885,1.885,0,0,0-1.525-1.776C717.046,261.8,714.234,261.443,713.367,262.424Z" transform="translate(-544.954 -168.026)" fill="#444d56"/>
      <path id="Path_60862" data-name="Path 60862" d="M608.283,129.951c-1.192,1.143-4.44,9.09-4.44,9.09l4.44-1.268v3.04l6.83-5.431,2.261,1.757,3.594-1.757,3.979-2.048-.386,2.748s3.98-2.326,4.527-3.594a7.97,7.97,0,0,1,2.45-2.537l-2.27,4.228-1.747,3.594,5.708-5.5,5.427-2.326-5.427,4.228,7.58-3.171,2.779,1.268,4.456,1.057,2.412,6.131L654.793,131l5.5-1.057,11.377.18-8.451-5.624a10.618,10.618,0,0,0-4.8-2.94,54.6,54.6,0,0,0-19.759-1.9C625.607,120.882,616,122.552,608.283,129.951Z" transform="translate(-489.323 -95.64)" fill="#564d47"/>
      <g id="Group_44407" data-name="Group 44407" transform="translate(210.781 99.153)">
        <g id="Group_44406" data-name="Group 44406">
          <path id="Path_60863" data-name="Path 60863" d="M804.557,272.758l.121,1.038c.077.661.188,1.6.292,2.735s.212,2.458.277,3.882a43.614,43.614,0,0,1,.012,4.489c-.02.385-.07.776-.119,1.167l-.118.6-.138.543c-.176.722-.384,1.438-.6,2.125a17.731,17.731,0,0,1-.722,1.955,11.65,11.65,0,0,1-.868,1.667,7.3,7.3,0,0,1-.981,1.258,3.507,3.507,0,0,1-.49.449,3.05,3.05,0,0,1-.458.327c-.146.087-.274.167-.39.225l-.31.122-.255.1.231-.147.273-.174.334-.282a2.835,2.835,0,0,0,.38-.378l.2-.224.2-.262a8.646,8.646,0,0,0,.776-1.29,19.482,19.482,0,0,0,1.251-3.584c.184-.677.33-1.386.507-2.113l.13-.547.091-.509c.039-.359.079-.719.095-1.092.056-.738.072-1.49.084-2.229s.014-1.472.021-2.178c0-1.415.007-2.74.025-3.878s.042-2.086.074-2.752S804.557,272.758,804.557,272.758Z" transform="translate(-799.813 -272.758)" fill="#865e50"/>
        </g>
      </g>
      <path id="Path_60864" data-name="Path 60864" d="M789.852,307.725c-.423.846-2.326,5.5-2.326,5.5s1.692-2.96,2.96-2.749,4.228-.319,4.44-1.216" transform="translate(-582.78 -191.388)" fill="none" stroke="#865e50" stroke-miterlimit="10" stroke-width="2"/>
      <path id="Path_60865" data-name="Path 60865" d="M787.527,421.291s.529,4.2,1.191,9.216a27.552,27.552,0,0,0-1.191-9.216Z" transform="translate(-582.777 -249.142)" fill="#f6f4e7"/>
      <path id="Path_60866" data-name="Path 60866" d="M621.785,489.459h5.5c3.784-8.063,11.083-20.839,13.96-23.561a21.682,21.682,0,0,1,7.3-4.862s18.355,21.128,19.7,28.423h5.9c6.386-8.475,15.846-21.123,16.8-22.927,1.457-2.748,7.377-18.392,6.848-19.238-.313-.5-1.55-9.511-2.509-16.787-.2,2.607-1.008,5.163-3.093,6.746-5.708,4.334-40.243,23.36-40.733,23.149s-19.821-11.2-26.54-15.222-19.4-19.872-19.4-19.872l-1.692-4.017s.634,14.587,0,17.335c0,0-.211,4.228,1.692,13.107C606.918,458.226,616.651,478.841,621.785,489.459Z" transform="translate(-489.33 -249.142)" fill="#f6f4e7"/>
      <path id="Path_60867" data-name="Path 60867" d="M597.854,251.132c1.207-.414-.846,4.306-.423,6.751S600.6,261.6,600.6,261.6l5.6,1.864s-9.138-.032-11.387,2.646-2.883,7.615-3.518,6.981,3.518-11.341,3.518-11.341S593.837,252.51,597.854,251.132Z" transform="translate(-482.885 -162.594)" fill="#97684c" opacity="0.78"/>
      <path id="Path_60868" data-name="Path 60868" d="M699.943,264.233s5.413-2.889,10.909-2.3,6.342,2.3,6.342,2.3-3.3-3.617-7.674-3.406S701.084,262.565,699.943,264.233Z" transform="translate(-538.211 -167.533)" fill="#30241b"/>
      <path id="Path_60869" data-name="Path 60869" d="M607.285,268.8s5.919-4.651,11.2-4.017a15.564,15.564,0,0,1,8.245,3.383S617.432,258.442,607.285,268.8Z" transform="translate(-491.055 -169.165)" fill="#30241b"/>
      <path id="Path_60870" data-name="Path 60870" d="M626.311,265.816a3.24,3.24,0,0,0-1.638-.4,3.166,3.166,0,0,0-1.639.4c-.323.212-.7.526-.679.96a8.559,8.559,0,0,0,.2,1.348.835.835,0,0,0,.021.1c.008.034.013.068.021.1h.016a.99.99,0,0,0,.2.3,2.349,2.349,0,0,0,1.285.579,3.4,3.4,0,0,0,1.657-.127c.333-.129.9-.363.988-.753a9.107,9.107,0,0,0,.247-1.555C627.015,266.367,626.619,266,626.311,265.816Z" transform="translate(-498.719 -169.872)"/>
      <path id="Path_60871" data-name="Path 60871" d="M720.487,264.011c-.166-1-1.376-1.353-2.269-1.329a3.1,3.1,0,0,0-1.6.389,1.191,1.191,0,0,0-.664.94,7.861,7.861,0,0,0,.18,1.433h.028a.831.831,0,0,0,.261.63,2.326,2.326,0,0,0,1.269.572,3.355,3.355,0,0,0,1.635-.125c.338-.131.869-.355.975-.744A4.114,4.114,0,0,0,720.487,264.011Z" transform="translate(-546.351 -168.48)"/>
      <path id="Path_60872" data-name="Path 60872" d="M628.789,267.225a1.354,1.354,0,0,0-.872.128H627.9c-.271.043-.367.243-.272.384a.524.524,0,0,0-.023.106c0,.308.321.484.576.573a1.681,1.681,0,0,0,1.112-.02c.157-.058.313-.154.329-.336.013-.148.03-.3.046-.445C629.706,267.3,629.2,267.16,628.789,267.225Z" transform="translate(-501.386 -170.78)" fill="#fff"/>
      <path id="Path_60873" data-name="Path 60873" d="M723.576,265.658a1.061,1.061,0,0,0-1.617-.2c-.2.023-.435.083-.511.268-.084.207.119.375.3.431a2.188,2.188,0,0,0,1.4.188c.17-.057.286-.17.268-.341C723.55,265.925,723.66,265.809,723.576,265.658Z" transform="translate(-549.139 -169.743)" fill="#fff"/>
      <path id="Path_60874" data-name="Path 60874" d="M650.413,292.247s-2.22-4.123-1.8-5.709a14.188,14.188,0,0,1,2.382-3.91s.274,2.04,1,2.431a8.748,8.748,0,0,0,2.362.634l-.237-.542a13.614,13.614,0,0,1-.871-2.711,7.879,7.879,0,0,1-.2-2.826c.317-1.426.846-11.777.951-14.423s.951-7.072-.423-8.823a56.374,56.374,0,0,0-6.87-6.93s5.391,5.82,5.5,8.512-4.968,8.136-4.968,8.136l2.748-.894a18.922,18.922,0,0,1,1.013,8.23c-.479,4.555-2.382,7.514-3.333,10.157S644.81,290.133,650.413,292.247Z" transform="translate(-511.045 -161.745)" fill="#ba6d58"/>
      <g id="Group_44408" data-name="Group 44408" transform="translate(132.537 142.958)">
        <path id="Path_60875" data-name="Path 60875" d="M655.892,361.91c.63-.07,3.8,1.691,3.8,1.691s2.328-1.9,3.385-1.691,16.214,5.5,16.214,5.5a10.665,10.665,0,0,1-2.935.878c-.652-.107-33.729,1.236-35.66,1.025S652.087,362.333,655.892,361.91Z" transform="translate(-640.508 -361.894)" fill="#a85950"/>
        <path id="Path_60876" data-name="Path 60876" d="M640.9,373.651c.4,0,10.331,4.651,17.308,4.44s14.312-1.692,21.288-6.342c0,0-10.929-.423-13.255-.846s-1.006-.819-4.175.027-6.183,1.453-9.355.819S640.9,373.651,640.9,373.651Z" transform="translate(-640.705 -366.235)" fill="#c5746c"/>
      </g>
      <path id="Path_60877" data-name="Path 60877" d="M639.322,373s9.587-2,11.03-1.9,11.168,0,12.119.1,10.993-.109,10.993-.109h4.909s-9.877-.423-12.1-1.057-4.122-1.163-4.968-.74-2.009,1.374-3.383.846-2.326-1.678-4.439-1-13,2.794-14.8,3.851Z" transform="translate(-507.046 -222.516)" fill="#7f3c35"/>
      <path id="Path_60878" data-name="Path 60878" d="M589.678,245.111c.508.8,3.291-5.983,6.581-6.282s14.659,0,14.659,0l3.291-.133-2.692-4.653s-.6,1.8-1.8,1.8-5.7-2.393-7.787-1.8a40.907,40.907,0,0,0-4.179,1.5s-6.916,1.2-8.1,2.692S587.584,241.82,589.678,245.111Z" transform="translate(-481.456 -153.867)" fill="#453c34"/>
      <path id="Path_60879" data-name="Path 60879" d="M699.943,235.265a70.676,70.676,0,0,1,6.581-3.387,81.054,81.054,0,0,1,8.376-2l8.676,2.693,4.786,4.921,1.2,2.857-5.983-2.857s-3.59-2.527-7.18-2.378-3.889-1.047-5.684,0-6.282,0-6.282,0S701.438,237.06,699.943,235.265Z" transform="translate(-538.217 -151.799)" fill="#453c34"/>
      <ellipse id="Ellipse_741" data-name="Ellipse 741" cx="5.14" cy="3.213" rx="5.14" ry="3.213" transform="translate(143.985 119.086)" fill="#f2baa7"/>
      <path id="Path_60880" data-name="Path 60880" d="M662.422,377.406s5.866,2.493,9.321,2.259,9.064-2.259,9.064-2.259S665.694,376.939,662.422,377.406Z" transform="translate(-519.116 -226.719)" fill="#eda19d" opacity="0.6"/>
    </g>
  </g>
</svg>
