<svg xmlns="http://www.w3.org/2000/svg" width="680" height="72" viewBox="0 0 680 72">
  <g id="g2-c" transform="translate(-5327 -3739)">
    <g id="Path_54260" data-name="Path 54260" transform="translate(5327 3739)" fill="#ffda2d">
      <path d="M 672.8868408203125 70 L 7.113303184509277 70 L 7.113303184509277 68.23336029052734 L 5.113303184509277 68.23336029052734 L 2.000030517578125 68.23336029052734 L 2.000030517578125 3.766818284988403 L 5.113303184509277 3.766818284988403 L 7.113303184509277 3.766818284988403 L 7.113303184509277 2 L 672.8868408203125 2 L 672.8868408203125 3.766818284988403 L 674.8868408203125 3.766818284988403 L 678 3.766818284988403 L 678 68.23336029052734 L 674.8868408203125 68.23336029052734 L 672.8868408203125 68.23336029052734 L 672.8868408203125 70 Z" stroke="none"/>
      <path d="M 670.8868408203125 68 L 670.8868408203125 66.23336029052734 L 674.8868408203125 66.23336029052734 L 676 66.23336029052734 L 676 5.766818046569824 L 674.8868408203125 5.766818046569824 L 670.8868408203125 5.766818046569824 L 670.8868408203125 4 L 9.113303184509277 4 L 9.113303184509277 5.766818046569824 L 5.113303184509277 5.766818046569824 L 4.000030517578125 5.766818046569824 L 4.000030517578125 66.23336029052734 L 5.113303184509277 66.23336029052734 L 9.113303184509277 66.23336029052734 L 9.113303184509277 68 L 670.8868408203125 68 M 674.8868408203125 72 L 5.113303184509277 72 L 5.113303184509277 70.23336029052734 L 3.0517578125e-05 70.23336029052734 L 3.0517578125e-05 1.766818165779114 L 5.113303184509277 1.766818165779114 L 5.113303184509277 0 L 674.8868408203125 0 L 674.8868408203125 1.766818165779114 L 680 1.766818165779114 L 680 70.23336029052734 L 674.8868408203125 70.23336029052734 L 674.8868408203125 71.99945831298828 L 674.8868408203125 72 Z" stroke="none" fill="#fff"/>
    </g>
    <path id="Path_54263" data-name="Path 54263" d="M9.563-.158A7.946,7.946,0,0,1,6.82.413,5.371,5.371,0,0,1,3.876-.444,5.6,5.6,0,0,1,1.784-2.993,9.383,9.383,0,0,1,1.037-6.82a9.4,9.4,0,0,1,.738-3.806,5.631,5.631,0,0,1,2.083-2.558,5.341,5.341,0,0,1,2.962-.87,7.946,7.946,0,0,1,2.742.571v1.617a5.587,5.587,0,0,0-2.812-.817,2.964,2.964,0,0,0-1.929.721A4.988,4.988,0,0,0,3.41-9.848,8.36,8.36,0,0,0,2.874-6.82a8.3,8.3,0,0,0,.554,3.067,5,5,0,0,0,1.415,2.1,2.956,2.956,0,0,0,1.907.7,5.62,5.62,0,0,0,2.813-.817ZM18,.413a1.379,1.379,0,0,1-1.011-.422,1.379,1.379,0,0,1-.422-1.011,1.368,1.368,0,0,1,.426-1.015A1.391,1.391,0,0,1,18-2.452,1.391,1.391,0,0,1,19-2.035a1.368,1.368,0,0,1,.426,1.015,1.379,1.379,0,0,1-.422,1.011A1.379,1.379,0,0,1,18,.413ZM28-18Zm0,1.125H44.875v1.125h-6.75v2.25H37V0H35.875V-10.125H34.75V-9H33.625v1.125H32.5V-6.75H31.375v1.125H30.25V-4.5H29.125V-5.625H30.25V-6.75h1.125V-7.875H32.5V-9h1.125v-1.125H34.75V-11.25h1.125V-13.5H37v-2.25H28ZM38.125-11.25H39.25v1.125H38.125Zm1.125,1.125h1.125V-9H39.25ZM40.375-9h2.25v1.125H43.75v2.25H42.625V-6.75H41.5V-7.875H40.375ZM47.8-18Zm3.375,0H52.3v2.25H51.175v1.125H50.05V-13.5h3.375v-2.25H54.55v2.25h1.125v2.25H54.55V-1.125H53.425V0H52.3V-1.125h1.125V-4.5H50.05V0H48.925V-11.25H54.55v-1.125H47.8V-13.5h1.125v-1.125H50.05V-15.75h1.125ZM56.8-18h1.125v4.5H59.05v-1.125h1.125V-15.75H61.3v-1.125h1.125v2.25h-2.25V-13.5H59.05v1.125H57.925v2.25H56.8Zm5.625,5.625H63.55V-9H57.925v-1.125h4.5ZM50.05-10.125v2.25h3.375v-2.25Zm6.75,2.25h1.125V-4.5H59.05V-5.625h1.125V-6.75H61.3V-7.875h1.125v2.25h-2.25V-4.5H59.05v1.125H57.925v2.25H56.8ZM50.05-6.75v1.125h3.375V-6.75Zm13.5,3.375h1.125V0h-6.75V-1.125H63.55ZM51.175-2.25H52.3v1.125H51.175ZM67.6-18Zm11.25,0h1.125v2.25h4.5v2.25H83.35v1.125H82.225V-13.5H83.35v-1.125h-4.5V-13.5h1.125v1.125h-2.25v1.125h2.25v-1.125H81.1v1.125h3.375v1.125H81.1v2.25h3.375V-6.75H81.1v1.125h3.375V-4.5H81.1v2.25h3.375v1.125h-6.75V0H76.6V-9H75.475v1.125H74.35V-2.25H73.225V-3.375h-2.25v2.25H69.85v-6.75H68.725V-6.75H67.6V-7.875h1.125v-2.25H69.85v-2.25h1.125v-2.25H67.6V-15.75h6.75v1.125H72.1v2.25H70.975v1.125H74.35V-9h1.125v-1.125H76.6v-2.25h1.125v-2.25H76.6V-13.5H75.475v1.125H74.35V-13.5h1.125v-2.25H78.85Zm-7.875,7.875V-4.5h2.25v-5.625Zm6.75,0v2.25h2.25v-2.25Zm0,3.375v1.125h2.25V-6.75Zm0,2.25v2.25h2.25V-4.5ZM87.4-18Zm6.75,0h1.125v1.125H94.15Zm1.125,1.125H96.4v1.125h7.875v1.125H103.15V-13.5h-1.125v1.125H100.9V-13.5h1.125v-1.125H89.65V-13.5H88.525v1.125H87.4V-13.5h1.125v-2.25h6.75ZM89.65-11.25h12.375v1.125H96.4V-6.75h4.5v1.125H96.4V-2.25h7.875v1.125H93.025V-2.25h2.25v-7.875H89.65Zm1.125,3.375H91.9v4.5H90.775V-2.25H89.65v1.125H88.525V0H87.4V-1.125h1.125V-2.25H89.65V-3.375h1.125Zm1.125,4.5h1.125V-2.25H91.9ZM107.2-18Zm6.75,0h1.125v2.25h9v1.125H113.95v2.25h6.75v11.25h-1.125V0H118.45V-1.125h1.125V-4.5h-6.75V0H111.7V-9h-1.125v1.125H109.45V-6.75h-1.125v1.125H107.2V-6.75h1.125V-7.875h1.125V-9h1.125v-1.125H111.7v-2.25h1.125v-2.25H107.2V-15.75h6.75Zm-1.125,6.75V-9h6.75v-2.25Zm0,3.375v2.25h6.75v-2.25Zm4.5,5.625h1.125v1.125h-1.125ZM127-18Zm6.75,0h1.125v2.25H140.5v1.125h-1.125V-13.5H138.25v1.125h-1.125v1.125h-2.25v1.125H133.75V-9H131.5v1.125h-3.375V-9H131.5v-1.125h2.25V-11.25h1.125v-1.125h2.25V-13.5h1.125v-1.125h-5.625v2.25h-2.25v1.125H129.25v-1.125h1.125V-13.5H131.5v-1.125h1.125V-15.75h1.125Zm-1.125,5.625h1.125v1.125h-1.125Zm4.5,1.125h1.125v1.125h-1.125V-9h5.625v1.125h-1.125V-6.75H140.5v1.125h-1.125V-4.5H138.25v1.125h-1.125V-2.25h-2.25v1.125H131.5V0h-3.375V-1.125H131.5V-2.25h3.375V-4.5H136v1.125h1.125V-4.5h1.125V-5.625h1.125V-6.75H140.5V-7.875h-5.625V-6.75H133.75v1.125H131.5V-4.5h-2.25V-5.625h2.25V-6.75h2.25V-7.875h1.125V-9H136v-1.125h1.125ZM133.75-5.625h1.125V-4.5H133.75ZM146.8-18Zm7.875,0H155.8V-5.625h-1.125ZM151.3-14.625h1.125v2.25H151.3v2.25h-1.125V-9H149.05v1.125h-1.125V-9h1.125v-1.125h1.125v-2.25H151.3Zm7.875,0H160.3V-13.5h-1.125ZM160.3-13.5h1.125v1.125H160.3Zm1.125,1.125h1.125v2.25h-1.125Zm-2.25,2.25H160.3v2.25h-1.125V-6.75H158.05v1.125h-1.125V-4.5H155.8v1.125h-1.125V-2.25H153.55v1.125H151.3V0h-3.375V-1.125H151.3V-2.25h2.25V-3.375h1.125V-4.5H155.8V-5.625h1.125V-6.75h1.125V-7.875h1.125ZM166.6-18Zm7.875,1.125h6.75V-6.75H180.1v4.5h-1.125v-4.5h-2.25v3.375H175.6V-2.25h-1.125v1.125H173.35V0H171.1V-1.125h2.25V-2.25h1.125V-3.375H175.6V-6.75h-1.125Zm-6.75,1.125h5.625v1.125H171.1v3.375h2.25v1.125H171.1v4.5h2.25V-4.5H171.1v1.125h-2.25V-2.25h-1.125V-3.375H166.6V-4.5h3.375v-5.625h-2.25V-11.25h2.25v-3.375h-2.25Zm7.875,0v2.25h4.5v-2.25Zm0,3.375v1.125h4.5v-1.125Zm0,2.25v2.25h4.5v-2.25Zm6.75,4.5h1.125v4.5H180.1V-2.25h2.25ZM186.4-18Zm7.875,0H195.4v2.25h-1.125v1.125H193.15V-13.5h-1.125v1.125H190.9v1.125h-1.125v1.125H188.65V-9H186.4v-1.125h2.25V-11.25h1.125v-1.125H190.9V-13.5h1.125v-1.125h1.125V-15.75h1.125Zm1.125,2.25h1.125v1.125H195.4Zm1.125,1.125h1.125V-13.5h-1.125ZM197.65-13.5h1.125v1.125H197.65Zm1.125,1.125H199.9v1.125h-1.125v1.125H195.4v2.25h4.5V-6.75h-4.5v4.5h1.125V-3.375h1.125V-4.5h1.125V-5.625H199.9V-4.5h-1.125v1.125H197.65V-2.25h4.5v1.125H187.525V-2.25h4.5V-3.375h1.125V-2.25h1.125v-4.5h-4.5V-7.875h4.5v-2.25H190.9V-11.25h7.875ZM199.9-11.25h3.375v1.125H202.15V-9h-1.125v-1.125H199.9ZM189.775-5.625H190.9V-4.5h-1.125ZM190.9-4.5h1.125v1.125H190.9Zm24.282-3.222a1.089,1.089,0,0,0-.846.306,1.044,1.044,0,0,0-.324.81,1.071,1.071,0,0,0,.306.792,1.047,1.047,0,0,0,.774.324.963.963,0,0,0,.4-.072,2.123,2.123,0,0,1-.378,1.206,2.6,2.6,0,0,1-1.152.792v.882a3.473,3.473,0,0,0,1.854-1.17,3.373,3.373,0,0,0,.7-2.106,2.091,2.091,0,0,0-.36-1.26A1.149,1.149,0,0,0,215.182-7.722ZM226-18Zm3.375,0H230.5v3.375h-1.125V0H228.25V-11.25h-1.125v1.125H226V-11.25h1.125v-1.125h1.125v-2.25h1.125Zm2.25,2.25h9V-5.625h-9Zm1.125,1.125v3.375h6.75v-3.375Zm0,4.5V-6.75h6.75v-3.375Zm-2.25,6.75h11.25V-2.25H230.5ZM245.8-18Zm3.375,0H250.3v2.25h-1.125v1.125H248.05V-13.5h3.375v-2.25h1.125v2.25h1.125v2.25H252.55V-1.125h-1.125V0H250.3V-1.125h1.125V-4.5H248.05V0h-1.125V-11.25h5.625v-1.125H245.8V-13.5h1.125v-1.125h1.125V-15.75h1.125Zm5.625,0h1.125v4.5h1.125v-1.125h1.125V-15.75H259.3v-1.125h1.125v2.25h-2.25V-13.5H257.05v1.125h-1.125v2.25H254.8Zm5.625,5.625h1.125V-9h-5.625v-1.125h4.5Zm-12.375,2.25v2.25h3.375v-2.25Zm6.75,2.25h1.125V-4.5h1.125V-5.625h1.125V-6.75H259.3V-7.875h1.125v2.25h-2.25V-4.5H257.05v1.125h-1.125v2.25H254.8ZM248.05-6.75v1.125h3.375V-6.75Zm13.5,3.375h1.125V0h-6.75V-1.125h5.625ZM249.175-2.25H250.3v1.125h-1.125ZM265.6-18Zm11.25,0h1.125v2.25h4.5v2.25H281.35v1.125h-1.125V-13.5h1.125v-1.125h-4.5V-13.5h1.125v1.125h-2.25v1.125h2.25v-1.125H279.1v1.125h3.375v1.125H279.1v2.25h3.375V-6.75H279.1v1.125h3.375V-4.5H279.1v2.25h3.375v1.125h-6.75V0H274.6V-9h-1.125v1.125H272.35V-2.25h-1.125V-3.375h-2.25v2.25H267.85v-6.75h-1.125V-6.75H265.6V-7.875h1.125v-2.25h1.125v-2.25h1.125v-2.25H265.6V-15.75h6.75v1.125H270.1v2.25h-1.125v1.125h3.375V-9h1.125v-1.125H274.6v-2.25h1.125v-2.25H274.6V-13.5h-1.125v1.125H272.35V-13.5h1.125v-2.25h3.375Zm-7.875,7.875V-4.5h2.25v-5.625Zm6.75,0v2.25h2.25v-2.25Zm0,3.375v1.125h2.25V-6.75Zm0,2.25v2.25h2.25V-4.5ZM285.4-18Zm6.75,0h1.125v1.125H292.15Zm1.125,1.125H294.4v1.125h7.875v1.125H301.15V-13.5h-1.125v1.125H298.9V-13.5h1.125v-1.125H287.65V-13.5h-1.125v1.125H285.4V-13.5h1.125v-2.25h6.75ZM287.65-11.25h12.375v1.125H294.4V-6.75h4.5v1.125h-4.5V-2.25h7.875v1.125h-11.25V-2.25h2.25v-7.875H287.65Zm1.125,3.375H289.9v4.5h-1.125V-2.25H287.65v1.125h-1.125V0H285.4V-1.125h1.125V-2.25h1.125V-3.375h1.125Zm1.125,4.5h1.125V-2.25H289.9ZM305.2-18Zm6.75,0h1.125v2.25h9v1.125H311.95v2.25h6.75v11.25h-1.125V0H316.45V-1.125h1.125V-4.5h-6.75V0H309.7V-9h-1.125v1.125H307.45V-6.75h-1.125v1.125H305.2V-6.75h1.125V-7.875h1.125V-9h1.125v-1.125H309.7v-2.25h1.125v-2.25H305.2V-15.75h6.75Zm-1.125,6.75V-9h6.75v-2.25Zm0,3.375v2.25h6.75v-2.25Zm4.5,5.625h1.125v1.125h-1.125ZM325-18Zm4.5,0h1.125v2.25H329.5v2.25h-1.125v1.125H327.25v1.125h-1.125v1.125H325V-11.25h1.125v-1.125h1.125V-13.5h1.125v-2.25H329.5Zm2.25,1.125h7.875V-9h-4.5v2.25H334V-9h-1.125v6.75H334V-3.375h1.125V-2.25H334v1.125h-1.125V0H331.75Zm1.125,1.125v2.25H338.5v-2.25ZM329.5-12.375h1.125v2.25H329.5V0h-1.125V-7.875H327.25V-6.75h-1.125v1.125H325V-6.75h1.125V-7.875h1.125V-9h1.125v-1.125H329.5Zm3.375,0v2.25H338.5v-2.25Zm6.75,4.5h1.125V-6.75h-1.125v1.125H338.5V-4.5h-1.125v1.125H336.25V-4.5h1.125V-5.625H338.5V-6.75h1.125Zm-4.5,1.125h1.125V-4.5h-1.125Zm2.25,3.375h2.25V-2.25h-2.25Zm2.25,1.125h2.25v1.125h-2.25ZM344.8-18Zm6.75,0h1.125v2.25H358.3v1.125h-1.125V-13.5H356.05v1.125h-1.125v1.125h-2.25v1.125H351.55V-9H349.3v1.125h-3.375V-9H349.3v-1.125h2.25V-11.25h1.125v-1.125h2.25V-13.5h1.125v-1.125h-5.625v2.25h-2.25v1.125H347.05v-1.125h1.125V-13.5H349.3v-1.125h1.125V-15.75h1.125Zm-1.125,5.625h1.125v1.125h-1.125Zm4.5,1.125h1.125v1.125h-1.125V-9h5.625v1.125h-1.125V-6.75H358.3v1.125h-1.125V-4.5H356.05v1.125h-1.125V-2.25h-2.25v1.125H349.3V0h-3.375V-1.125H349.3V-2.25h3.375V-4.5H353.8v1.125h1.125V-4.5h1.125V-5.625h1.125V-6.75H358.3V-7.875h-5.625V-6.75H351.55v1.125H349.3V-4.5h-2.25V-5.625h2.25V-6.75h2.25V-7.875h1.125V-9H353.8v-1.125h1.125ZM351.55-5.625h1.125V-4.5H351.55ZM364.6-18Zm9,0h1.125v1.125H373.6Zm4.5,0h1.125v1.125H378.1v1.125h-1.125v1.125H375.85V-15.75h1.125v-1.125H378.1Zm-12.375,1.125h6.75v2.25H371.35V-13.5h-1.125v1.125h2.25v4.5H369.1v2.25h3.375V-2.25H371.35v1.125h-1.125V0H369.1V-1.125h1.125V-2.25h1.125V-4.5h-3.375V-9h3.375v-2.25h-3.375v1.125H366.85V-9h-1.125v1.125H364.6V-9h1.125v-1.125h1.125V-11.25h1.125v-1.125H369.1V-13.5h1.125v-1.125h1.125V-15.75h-5.625Zm9,0h1.125v1.125h-1.125Zm5.625,0h1.125v1.125H380.35v1.125h-1.125v2.25H378.1V-9h-1.125v-2.25h-2.25v3.375H373.6V-6.75h-1.125V-7.875H373.6v-4.5h4.5V-13.5h-1.125v-1.125h2.25V-15.75h1.125Zm-14.625,2.25h1.125V-13.5h-1.125ZM366.85-13.5h1.125v1.125H366.85Zm12.375,1.125h2.25v1.125h-2.25ZM378.1-9h2.25v1.125H378.1Zm-4.5,2.25h5.625V-4.5H378.1v2.25h-2.25v1.125h-1.125V0h-2.25V-1.125h2.25V-2.25h1.125V-3.375h1.125V-4.5H378.1V-5.625h-4.5Zm0,2.25h2.25v1.125H373.6Zm-5.625,2.25H369.1v1.125h-1.125Zm10.125,0h2.25V0h-1.125V-1.125H378.1ZM384.4-18Zm1.125,1.125H400.15v1.125h-4.5v1.125h3.375v4.5H386.65v-4.5h3.375V-15.75h-4.5Zm5.625,1.125v1.125h3.375V-15.75Zm-3.375,2.25v2.25h2.25V-13.5Zm3.375,0v2.25h3.375V-13.5Zm4.5,0v2.25h2.25V-13.5ZM387.775-9H397.9v1.125H387.775ZM384.4-6.75h16.875v1.125H393.4v4.5h-1.125V0H391.15V-1.125h1.125v-4.5H384.4Zm3.375,2.25H388.9v1.125h-1.125V-2.25H386.65v1.125h-1.125V-2.25h1.125V-3.375h1.125Zm9,0H397.9v1.125h-1.125ZM397.9-3.375h1.125v2.25H397.9ZM390.025-2.25h1.125v1.125h-1.125Zm23.175-6.5a2.31,2.31,0,0,0-1.656.648,2.1,2.1,0,0,0-.684,1.62,2.06,2.06,0,0,0,.684,1.6,2.326,2.326,0,0,0,1.656.666,2.357,2.357,0,0,0,1.656-.666,2.15,2.15,0,0,0,.684-1.6,2.161,2.161,0,0,0-.684-1.62A2.341,2.341,0,0,0,413.2-8.748Zm0,.954a1.363,1.363,0,0,1,.954.378,1.256,1.256,0,0,1,.414.936,1.285,1.285,0,0,1-.414.936,1.363,1.363,0,0,1-.954.378,1.3,1.3,0,0,1-.954-.378,1.194,1.194,0,0,1-.414-.936,1.17,1.17,0,0,1,.414-.936A1.3,1.3,0,0,1,413.2-7.794Z" transform="translate(5367 3782)" fill="#15172a"/>
  </g>
</svg>
