<svg xmlns="http://www.w3.org/2000/svg" width="680" height="72" viewBox="0 0 680 72">
  <g id="g1-a" transform="translate(-2974 -3576)">
    <g id="Path_54230" data-name="Path 54230" transform="translate(2974 3576)" fill="#ffda2d">
      <path d="M 672.8868408203125 70 L 7.113303184509277 70 L 7.113303184509277 68.23336029052734 L 5.113303184509277 68.23336029052734 L 2.000030517578125 68.23336029052734 L 2.000030517578125 3.766818284988403 L 5.113303184509277 3.766818284988403 L 7.113303184509277 3.766818284988403 L 7.113303184509277 2 L 672.8868408203125 2 L 672.8868408203125 3.766818284988403 L 674.8868408203125 3.766818284988403 L 678 3.766818284988403 L 678 68.23336029052734 L 674.8868408203125 68.23336029052734 L 672.8868408203125 68.23336029052734 L 672.8868408203125 70 Z" stroke="none"/>
      <path d="M 670.8868408203125 68 L 670.8868408203125 66.23336029052734 L 674.8868408203125 66.23336029052734 L 676 66.23336029052734 L 676 5.766818046569824 L 674.8868408203125 5.766818046569824 L 670.8868408203125 5.766818046569824 L 670.8868408203125 4 L 9.113303184509277 4 L 9.113303184509277 5.766818046569824 L 5.113303184509277 5.766818046569824 L 4.000030517578125 5.766818046569824 L 4.000030517578125 66.23336029052734 L 5.113303184509277 66.23336029052734 L 9.113303184509277 66.23336029052734 L 9.113303184509277 68 L 670.8868408203125 68 M 674.8868408203125 72 L 5.113303184509277 72 L 5.113303184509277 70.23336029052734 L 3.0517578125e-05 70.23336029052734 L 3.0517578125e-05 1.766818165779114 L 5.113303184509277 1.766818165779114 L 5.113303184509277 0 L 674.8868408203125 0 L 674.8868408203125 1.766818165779114 L 680 1.766818165779114 L 680 70.23336029052734 L 674.8868408203125 70.23336029052734 L 674.8868408203125 71.99945831298828 L 674.8868408203125 72 Z" stroke="none" fill="#fff"/>
    </g>
    <path id="Path_54233" data-name="Path 54233" d="M2,0H.29l4.2-13.641h1.8L10.521,0H8.648L7.717-3h-4.8ZM3.34-4.359H7.321L5.678-9.536l-.387-1.371L4.948-9.536ZM18,.413a1.379,1.379,0,0,1-1.011-.422,1.379,1.379,0,0,1-.422-1.011,1.368,1.368,0,0,1,.426-1.015A1.391,1.391,0,0,1,18-2.452,1.391,1.391,0,0,1,19-2.035a1.368,1.368,0,0,1,.426,1.015,1.379,1.379,0,0,1-.422,1.011A1.379,1.379,0,0,1,18,.413ZM28-18Zm7.875,0H37v2.25H35.875v1.125H34.75V-13.5H33.625v1.125H32.5v1.125H31.375v1.125H30.25V-9H28v-1.125h2.25V-11.25h1.125v-1.125H32.5V-13.5h1.125v-1.125H34.75V-15.75h1.125ZM37-15.75h1.125v1.125H37Zm1.125,1.125H39.25V-13.5H38.125ZM39.25-13.5h1.125v1.125H39.25Zm1.125,1.125H41.5v1.125H40.375v1.125H37V-6.75h4.5v1.125H37V-2.25h6.75v1.125H29.125V-2.25h6.75V-5.625h-4.5V-6.75h4.5v-3.375H32.5V-11.25h7.875ZM41.5-11.25h3.375v1.125H43.75V-9H42.625v-1.125H41.5ZM47.8-18Zm3.375,0H52.3v1.125H51.175ZM52.3-16.875h1.125v1.125H52.3Zm5.625,0H63.55v2.25H62.425v2.25H61.3v1.125H60.175v-1.125H61.3v-2.25h1.125V-15.75H59.05V-5.625h1.125V-4.5H59.05V0H57.925V-9H47.8v-1.125h3.375V-11.25H52.3v1.125h1.125V-11.25H54.55v-1.125h1.125v1.125H54.55v1.125h3.375Zm-9,2.25H56.8V-13.5H48.925Zm1.125,2.25h1.125v1.125H50.05ZM61.3-11.25h1.125V-9H61.3ZM62.425-9H63.55v3.375H62.425V-4.5H61.3v1.125H60.175V-4.5H61.3V-5.625h1.125ZM50.05-7.875h5.625v6.75H54.55V-2.25H51.175v1.125H50.05ZM51.175-6.75v3.375H54.55V-6.75ZM67.6-18Zm6.75,0h1.125v2.25h9v1.125H74.35V-13.5H73.225v2.25H72.1v3.375h5.625V-9H78.85v-1.125h1.125V-11.25H74.35v-1.125h7.875v1.125H81.1v1.125H79.975V-9H78.85v1.125h5.625V-6.75H78.85v5.625H77.725V0H76.6V-1.125h1.125V-6.75H72.1V0H70.975V-7.875H69.85V-6.75H68.725v1.125H67.6V-6.75h1.125V-7.875H69.85V-9h1.125v-2.25H72.1V-13.5h1.125v-1.125H67.6V-15.75h6.75ZM75.475-2.25H76.6v1.125H75.475ZM87.4-18Zm4.5,0h1.125v3.375h2.25V-13.5h-2.25v2.25h2.25v1.125h-2.25v2.25h2.25V-6.75h-2.25v4.5h11.25v1.125H91.9V-2.25H90.775V-3.375H91.9v-6.75H87.4V-11.25h4.5V-13.5H88.525v-1.125H91.9Zm4.5,2.25h5.625V-9H100.9v-1.125H97.525V-4.5H96.4v-6.75h4.5v-3.375H96.4ZM89.65-9h1.125v5.625H89.65v2.25H88.525V0H87.4V-1.125h1.125v-2.25H89.65Zm12.375,2.25h1.125v3.375H97.525V-4.5h4.5ZM107.2-18Zm7.875,0H116.2v2.25h6.75v1.125H116.2V-9h1.125v-1.125h1.125V-13.5h1.125v3.375H118.45V-9h-1.125v2.25H116.2V0h-1.125V-6.75H113.95v1.125h-1.125V-4.5H111.7v1.125h-2.25V-2.25H107.2V-3.375h2.25V-4.5h2.25V-5.625h1.125V-6.75h1.125V-9h1.125v-5.625h-6.75V-15.75h6.75ZM111.7-13.5h1.125v3.375H111.7V-9h-1.125v1.125H109.45V-9h1.125v-1.125H111.7Zm1.125,3.375h1.125V-9h-1.125Zm6.75,0H120.7V-9h-1.125ZM120.7-9h1.125v1.125H120.7Zm-3.375,2.25h1.125v1.125h-1.125Zm1.125,1.125h2.25V-4.5h-2.25ZM120.7-4.5h3.375v1.125H122.95V-2.25h-1.125V-3.375H120.7Z" transform="translate(3014 3621)" fill="#15172a"/>
  </g>
</svg>
