<svg xmlns="http://www.w3.org/2000/svg" width="728.416" height="74.749" viewBox="0 0 728.416 74.749">
  <g id="g1-b1" transform="translate(-3790 -3669)">
    <g id="Path_54237" data-name="Path 54237" transform="translate(3790 3671)" fill="#15172a">
      <path d="M 672.8868408203125 70 L 7.113303184509277 70 L 7.113303184509277 68.23336029052734 L 5.113303184509277 68.23336029052734 L 2.000030517578125 68.23336029052734 L 2.000030517578125 3.766818284988403 L 5.113303184509277 3.766818284988403 L 7.113303184509277 3.766818284988403 L 7.113303184509277 2 L 672.8868408203125 2 L 672.8868408203125 3.766818284988403 L 674.8868408203125 3.766818284988403 L 678 3.766818284988403 L 678 68.23336029052734 L 674.8868408203125 68.23336029052734 L 672.8868408203125 68.23336029052734 L 672.8868408203125 70 Z" stroke="none"/>
      <path d="M 670.8868408203125 68 L 670.8868408203125 66.23336029052734 L 674.8868408203125 66.23336029052734 L 676 66.23336029052734 L 676 5.766818046569824 L 674.8868408203125 5.766818046569824 L 670.8868408203125 5.766818046569824 L 670.8868408203125 4 L 9.113303184509277 4 L 9.113303184509277 5.766818046569824 L 5.113303184509277 5.766818046569824 L 4.000030517578125 5.766818046569824 L 4.000030517578125 66.23336029052734 L 5.113303184509277 66.23336029052734 L 9.113303184509277 66.23336029052734 L 9.113303184509277 68 L 670.8868408203125 68 M 674.8868408203125 72 L 5.113303184509277 72 L 5.113303184509277 70.23336029052734 L 3.0517578125e-05 70.23336029052734 L 3.0517578125e-05 1.766818165779114 L 5.113303184509277 1.766818165779114 L 5.113303184509277 0 L 674.8868408203125 0 L 674.8868408203125 1.766818165779114 L 680 1.766818165779114 L 680 70.23336029052734 L 674.8868408203125 70.23336029052734 L 674.8868408203125 71.99945831298828 L 674.8868408203125 72 Z" stroke="none" fill="#ffda2d"/>
    </g>
    <path id="Path_54240" data-name="Path 54240" d="M1.512,0V-13.641H4.175a9.185,9.185,0,0,1,3.212.365A2.553,2.553,0,0,1,8.6-12.2a3.234,3.234,0,0,1,.4,1.626,3.932,3.932,0,0,1-.237,1.367,3.724,3.724,0,0,1-.7,1.178A4.779,4.779,0,0,1,6.715-7.022a4.355,4.355,0,0,1,2.2,1.6,3.635,3.635,0,0,1,.576,1.9A3.5,3.5,0,0,1,9-1.767,3.291,3.291,0,0,1,7.638-.457,6.438,6.438,0,0,1,4.825,0ZM3.287-7.5H5.15a4.143,4.143,0,0,0,1.323-.8A2.773,2.773,0,0,0,7.1-9.224,3,3,0,0,0,7.3-10.354a1.773,1.773,0,0,0-.567-1.441,3.633,3.633,0,0,0-2.21-.475H3.287Zm0,6.135H4.966a2.857,2.857,0,0,0,2.079-.664,2.161,2.161,0,0,0,.672-1.6,2.29,2.29,0,0,0-.369-1.261A2.492,2.492,0,0,0,6.205-5.8a6.444,6.444,0,0,0-2.426-.338H3.287ZM18,.413a1.379,1.379,0,0,1-1.011-.422,1.379,1.379,0,0,1-.422-1.011,1.368,1.368,0,0,1,.426-1.015A1.391,1.391,0,0,1,18-2.452,1.391,1.391,0,0,1,19-2.035a1.368,1.368,0,0,1,.426,1.015,1.379,1.379,0,0,1-.422,1.011A1.379,1.379,0,0,1,18,.413ZM28-18Zm0,7.875H44.875V-9H28ZM47.8-18Zm3.375,0H52.3v1.125H51.175ZM52.3-16.875h1.125v1.125H52.3Zm5.625,0H63.55v2.25H62.425v2.25H61.3v1.125H60.175v-1.125H61.3v-2.25h1.125V-15.75H59.05V-5.625h1.125V-4.5H59.05V0H57.925V-9H47.8v-1.125h3.375V-11.25H52.3v1.125h1.125V-11.25H54.55v-1.125h1.125v1.125H54.55v1.125h3.375Zm-9,2.25H56.8V-13.5H48.925Zm1.125,2.25h1.125v1.125H50.05ZM61.3-11.25h1.125V-9H61.3ZM62.425-9H63.55v3.375H62.425V-4.5H61.3v1.125H60.175V-4.5H61.3V-5.625h1.125ZM50.05-7.875h5.625v6.75H54.55V-2.25H51.175v1.125H50.05ZM51.175-6.75v3.375H54.55V-6.75ZM67.6-18Zm9,0h1.125v2.25H76.6Zm-3.375,1.125H74.35v2.25H73.225v2.25H72.1v1.125H70.975v1.125H69.85V-9H68.725v1.125H67.6V-9h1.125v-1.125H69.85V-11.25h1.125v-1.125H72.1v-2.25h1.125Zm4.5,1.125H78.85v2.25H77.725ZM78.85-13.5h1.125v1.125H78.85Zm1.125,1.125H81.1v1.125H79.975ZM81.1-11.25h1.125v1.125h2.25V-9H83.35v1.125H82.225V-9H81.1ZM70.975-10.125h9V-2.25H78.85v1.125H77.725V0H76.6V-1.125h1.125V-2.25H78.85V-9h-4.5v4.5H73.225v2.25H72.1v1.125H70.975V0H69.85V-1.125h1.125V-2.25H72.1V-4.5h1.125V-9h-2.25Zm4.5,7.875H76.6v1.125H75.475ZM87.4-18Zm6.75,0h1.125v2.25h9v1.125H94.15V-13.5H93.025v2.25H91.9v3.375h5.625V-9H98.65v-1.125h1.125V-11.25H94.15v-1.125h7.875v1.125H100.9v1.125H99.775V-9H98.65v1.125h5.625V-6.75H98.65v5.625H97.525V0H96.4V-1.125h1.125V-6.75H91.9V0H90.775V-7.875H89.65V-6.75H88.525v1.125H87.4V-6.75h1.125V-7.875H89.65V-9h1.125v-2.25H91.9V-13.5h1.125v-1.125H87.4V-15.75h6.75ZM95.275-2.25H96.4v1.125H95.275ZM107.2-18Zm3.375,0H111.7v2.25h1.125v1.125h-2.25v2.25h3.375V-13.5h1.125v-1.125h3.375V-18h1.125v2.25h2.25v-1.125h1.125v1.125h1.125v1.125H122.95V-13.5h-1.125v1.125H120.7v1.125h-2.25v1.125h-1.125V-9h-2.25v1.125H111.7v2.25h1.125V-6.75h1.125v1.125h-1.125V-4.5H111.7v1.125h4.5V-2.25h-4.5v1.125h-2.25V0h-1.125V-1.125H107.2V-2.25h3.375V-7.875H107.2V-9h3.375v-2.25h-2.25v1.125H107.2V-11.25h1.125v-1.125h1.125v-2.25h1.125ZM120.7-18h1.125v1.125H120.7Zm-7.875,3.375h1.125V-13.5h-1.125Zm6.75,0v2.25H120.7V-13.5h1.125v-1.125Zm-4.5,1.125v1.125H113.95v1.125H111.7V-9h3.375v-1.125h2.25V-11.25h1.125V-13.5Zm7.875,1.125h1.125v2.25h-2.25V-9H120.7v-2.25h2.25Zm-4.5,2.25h1.125v2.25h2.25V-9h1.125v1.125h1.125v2.25H122.95V-4.5h-1.125v2.25H120.7V-3.375h-1.125V-2.25H118.45v1.125H116.2V-2.25h2.25V-3.375h1.125v-2.25H120.7V-4.5h1.125V-5.625h1.125V-6.75h-3.375v1.125h-4.5V-6.75h3.375ZM107.2-6.75h1.125v1.125H107.2Zm1.125,1.125h1.125V-4.5h-1.125Zm14.625,2.25h1.125V0H122.95V-1.125h-1.125V-2.25h1.125Zm13.032-4.347a1.089,1.089,0,0,0-.846.306,1.044,1.044,0,0,0-.324.81,1.071,1.071,0,0,0,.306.792,1.047,1.047,0,0,0,.774.324.963.963,0,0,0,.4-.072,2.123,2.123,0,0,1-.378,1.206,2.6,2.6,0,0,1-1.152.792v.882a3.472,3.472,0,0,0,1.854-1.17,3.373,3.373,0,0,0,.7-2.106,2.091,2.091,0,0,0-.36-1.26A1.149,1.149,0,0,0,135.982-7.722ZM146.8-18Zm3.375,1.125H160.3v5.625h-5.625V-9h6.75v6.75H160.3v1.125h-1.125V0H158.05V-1.125h1.125V-2.25H160.3V-7.875h-5.625v2.25H153.55v2.25h-1.125V-2.25H151.3v1.125h-1.125V0h-2.25V-1.125h2.25V-2.25H151.3V-3.375h1.125v-2.25h1.125v-2.25h-5.625V-9h5.625v-2.25h-3.375ZM151.3-15.75v3.375h7.875V-15.75Zm4.5,12.375h1.125V-2.25H155.8Zm1.125,1.125h1.125v1.125h-1.125ZM166.6-18Zm4.5,0h1.125v3.375H171.1V-13.5h4.5V-9h-1.125v2.25H173.35v1.125h-1.125V-4.5H171.1v1.125h-1.125V-2.25H168.85v1.125h-1.125V0H166.6V-1.125h1.125V-2.25h1.125V-3.375h1.125V-4.5H171.1V-5.625h1.125V-6.75h1.125V-9h1.125v-3.375h-4.5V-9H168.85v1.125h-1.125V-6.75H166.6V-7.875h1.125V-9h1.125v-3.375h1.125v-2.25H171.1Zm5.625,0h1.125v5.625h1.125v1.125H177.85V0h-1.125Zm2.25,6.75H180.1v1.125h-1.125Zm1.125,1.125h1.125V-9h1.125v2.25h-1.125V-7.875H180.1ZM169.975-9H171.1v1.125h-1.125ZM171.1-7.875h1.125V-6.75H171.1ZM186.4-18Zm0,7.875h16.875V-9H186.4ZM206.2-18Zm3.375,0H210.7v1.125h-1.125Zm1.125,1.125h1.125v1.125H210.7Zm5.625,0h5.625v2.25h-1.125v2.25H219.7v1.125h-1.125v-1.125H219.7v-2.25h1.125V-15.75H217.45V-5.625h1.125V-4.5H217.45V0h-1.125V-9H206.2v-1.125h3.375V-11.25H210.7v1.125h1.125V-11.25h1.125v-1.125h1.125v1.125H212.95v1.125h3.375Zm-9,2.25H215.2V-13.5h-7.875Zm1.125,2.25h1.125v1.125H208.45ZM219.7-11.25h1.125V-9H219.7ZM220.825-9h1.125v3.375h-1.125V-4.5H219.7v1.125h-1.125V-4.5H219.7V-5.625h1.125ZM208.45-7.875h5.625v6.75H212.95V-2.25h-3.375v1.125H208.45Zm1.125,1.125v3.375h3.375V-6.75ZM226-18Zm9,0h1.125v2.25H235Zm-3.375,1.125h1.125v2.25h-1.125v2.25H230.5v1.125h-1.125v1.125H228.25V-9h-1.125v1.125H226V-9h1.125v-1.125h1.125V-11.25h1.125v-1.125H230.5v-2.25h1.125Zm4.5,1.125h1.125v2.25h-1.125Zm1.125,2.25h1.125v1.125H237.25Zm1.125,1.125H239.5v1.125h-1.125ZM239.5-11.25h1.125v1.125h2.25V-9H241.75v1.125h-1.125V-9H239.5Zm-10.125,1.125h9V-2.25H237.25v1.125h-1.125V0H235V-1.125h1.125V-2.25h1.125V-9h-4.5v4.5h-1.125v2.25H230.5v1.125h-1.125V0H228.25V-1.125h1.125V-2.25H230.5V-4.5h1.125V-9h-2.25Zm4.5,7.875H235v1.125h-1.125ZM245.8-18Zm4.5,0h1.125v3.375H250.3v4.5h1.125V-11.25h1.125V-13.5h1.125V-18H254.8v3.375h7.875V-13.5h-6.75v3.375h4.5V-9h-4.5v3.375h5.625V-4.5h-5.625V0H254.8V-13.5h-1.125v2.25H252.55v1.125h-1.125V-9H250.3V0h-1.125V-11.25H248.05v1.125h-1.125V-9H245.8v-1.125h1.125V-11.25h1.125v-1.125h1.125v-2.25H250.3Zm15.3,0Zm3.375,0H270.1v4.5h2.25v1.125H270.1v2.25h1.125V-9H270.1v7.875h-1.125V0H267.85V-1.125h1.125v-6.75H267.85V-6.75H265.6V-7.875h2.25V-9h1.125v-3.375H265.6V-13.5h3.375Zm4.5,1.125H279.1v5.625h-1.125v-4.5H274.6v4.5h-1.125v1.125H272.35V-11.25h1.125ZM279.1-11.25h2.25v1.125H279.1ZM272.35-9h7.875v2.25H279.1v1.125h-1.125V-4.5H276.85v1.125h-1.125V-2.25H274.6v1.125h-2.25V0H270.1V-1.125h2.25V-2.25h2.25V-3.375h1.125V-4.5h1.125V-5.625h1.125V-6.75H279.1V-7.875h-4.5v2.25h-1.125v-2.25H272.35Zm2.25,3.375h1.125V-4.5H274.6Zm2.25,2.25h2.25V-2.25h-2.25ZM266.725-2.25h1.125v1.125h-1.125Zm12.375,0h3.375v1.125H281.35V0h-1.125V-1.125H279.1ZM285.4-18Zm1.125,0h1.125v1.125h-1.125Zm6.75,0H294.4v1.125h6.75v2.25h-1.125V-13.5H298.9v-1.125h1.125V-15.75H296.65v2.25h-1.125v1.125H294.4v1.125h-1.125v1.125H298.9V-11.25h3.375v1.125H301.15V-9h-1.125v-1.125H298.9V-2.25h-1.125v1.125H296.65V-2.25h-5.625v1.125H289.9V0h-1.125V-1.125H289.9V-2.25h-1.125V-9H287.65v-2.25H285.4v-1.125h2.25V-13.5h1.125v-1.125H289.9V-15.75h1.125v1.125H289.9V-13.5h-1.125v3.375h2.25V-11.25h2.25v-1.125H294.4V-13.5h1.125v-2.25h-2.25v1.125H292.15V-13.5h-1.125v-1.125h1.125V-15.75h1.125Zm-5.625,1.125h1.125v2.25H287.65Zm9,3.375h1.125v1.125H296.65Zm1.125,1.125H298.9v1.125h-1.125ZM289.9-9v1.125h7.875V-9Zm0,2.25v1.125h7.875V-6.75Zm0,2.25v1.125h7.875V-4.5Zm7.875,3.375H298.9V0h-1.125ZM305.2-18Zm3.375,0H309.7v3.375h2.25V-13.5H309.7v3.375h3.375v-6.75h6.75V-6.75H318.7v5.625h-1.125V-6.75h-2.25v3.375H314.2V-2.25h-1.125v1.125H311.95V0h-1.125V-1.125h1.125V-2.25h1.125V-3.375H314.2V-6.75h-1.125V-9H309.7v3.375h-1.125v2.25H307.45V-2.25h-1.125v1.125H305.2V-2.25h1.125V-3.375h1.125v-2.25h1.125V-9H305.2v-1.125h3.375V-13.5h-2.25v-1.125h2.25Zm5.625,2.25v2.25h4.5v-2.25Zm0,3.375v1.125h4.5v-1.125Zm0,2.25v2.25h4.5v-2.25Zm-4.5,4.5h1.125V-4.5H309.7ZM310.825-4.5h1.125v1.125h-1.125ZM320.95-3.375h1.125V0H318.7V-1.125h2.25ZM325-18Zm4.5,0h1.125v1.125H334v2.25h2.25V-15.75h1.125V-4.5H336.25v-9H334v2.25h-3.375v1.125h4.5V-9H325v-1.125h4.5V-11.25h-3.375v-1.125H329.5V-13.5H325v-1.125h4.5V-15.75h-3.375v-1.125H329.5Zm10.125,0h1.125V-1.125h-1.125V0H338.5V-1.125h1.125Zm-9,2.25v1.125h2.25V-15.75Zm0,2.25v1.125h2.25V-13.5Zm-4.5,5.625H334V-2.25h-7.875ZM327.25-6.75v1.125h2.25V-6.75Zm3.375,0v1.125h2.25V-6.75ZM327.25-4.5v1.125h2.25V-4.5Zm3.375,0v1.125h2.25V-4.5Zm6.75,2.25H338.5v1.125h-1.125ZM325-1.125h11.25V0H325Z" transform="translate(3830 3715)" fill="#fff"/>
    <g id="Group_41370" data-name="Group 41370" transform="translate(4034.75 3747.749) rotate(-90)">
      <rect id="Rectangle_33782" data-name="Rectangle 33782" width="4.153" height="8.305" transform="translate(62.138 475.36)" fill="#f77622"/>
      <rect id="Rectangle_33783" data-name="Rectangle 33783" width="4.153" height="12.458" transform="translate(12.305 471.207)" fill="#f77622"/>
      <rect id="Rectangle_33784" data-name="Rectangle 33784" width="4.153" height="4.153" transform="translate(66.291 471.207)" fill="#f77622"/>
      <rect id="Rectangle_33785" data-name="Rectangle 33785" width="4.153" height="4.153" transform="translate(70.444 467.054)" fill="#f77622"/>
      <rect id="Rectangle_33786" data-name="Rectangle 33786" width="4.153" height="4.153" transform="translate(8.153 467.054)" fill="#f77622"/>
      <rect id="Rectangle_33787" data-name="Rectangle 33787" width="4.153" height="8.305" transform="translate(28.916 429.68)" fill="#f77622"/>
      <rect id="Rectangle_33788" data-name="Rectangle 33788" width="4.153" height="4.153" transform="translate(16.458 433.833)" fill="#f77622"/>
      <rect id="Rectangle_33789" data-name="Rectangle 33789" width="4.153" height="8.305" transform="translate(45.527 425.527)" fill="#f77622"/>
      <rect id="Rectangle_33790" data-name="Rectangle 33790" width="4.153" height="8.305" transform="translate(62.138 421.375)" fill="#f77622"/>
      <path id="Path_53385" data-name="Path 53385" d="M33.611,388.153H29.458V384H17v4.153h4.153v4.153h8.305v4.153H21.153v4.153h8.305v8.306H21.153v4.153h8.305V429.68h4.153v37.374h4.153V425.527H33.611Z" transform="translate(40.985)" fill="#f77622"/>
      <rect id="Rectangle_33791" data-name="Rectangle 33791" width="4.153" height="45.68" transform="translate(4 421.375)" fill="#f77622"/>
      <path id="Path_53386" data-name="Path 53386" d="M5,392v4.153H17.458v8.305h4.153V392Z" transform="translate(3.153 25.222)" fill="#f77622"/>
      <path id="Path_53387" data-name="Path 53387" d="M9,391v4.153H21.458v8.305h4.153V391Z" transform="translate(15.764 22.069)" fill="#f77622"/>
      <path id="Path_53388" data-name="Path 53388" d="M25.458,405.764H13v4.153H25.458v8.306h4.153V385H25.458Z" transform="translate(28.375 3.153)" fill="#f77622"/>
      <path id="Path_53389" data-name="Path 53389" d="M58.985,480.513v-8.306h4.153v-4.153h4.153V463.9h4.153V426.527H67.291V409.916H58.985v-4.153h8.305v-8.306H58.985v-4.153h8.305v-4.153H58.985V385H54.833v33.222H50.68v-8.306H38.222v12.458H34.069v-8.305H21.611v12.458H17.458v-8.305H5V463.9H9.153v4.153h4.153v12.458Zm4.153-62.291v8.305H58.985v-8.305Zm-16.611,4.153v8.306H42.375v-8.306Zm-16.611,4.153v8.305H25.764v-8.305Zm-12.458,8.305H13.305V430.68h4.153Z" transform="translate(3.153 3.153)" fill="#feae34"/>
    </g>
  </g>
</svg>
