<svg xmlns="http://www.w3.org/2000/svg" width="680" height="72" viewBox="0 0 680 72">
  <g id="g1-c" transform="translate(-2974 -3768)">
    <g id="Path_54232" data-name="Path 54232" transform="translate(2974 3768)" fill="#ffda2d">
      <path d="M 672.8868408203125 70 L 7.113303184509277 70 L 7.113303184509277 68.23336029052734 L 5.113303184509277 68.23336029052734 L 2.000030517578125 68.23336029052734 L 2.000030517578125 3.766818284988403 L 5.113303184509277 3.766818284988403 L 7.113303184509277 3.766818284988403 L 7.113303184509277 2 L 672.8868408203125 2 L 672.8868408203125 3.766818284988403 L 674.8868408203125 3.766818284988403 L 678 3.766818284988403 L 678 68.23336029052734 L 674.8868408203125 68.23336029052734 L 672.8868408203125 68.23336029052734 L 672.8868408203125 70 Z" stroke="none"/>
      <path d="M 670.8868408203125 68 L 670.8868408203125 66.23336029052734 L 674.8868408203125 66.23336029052734 L 676 66.23336029052734 L 676 5.766818046569824 L 674.8868408203125 5.766818046569824 L 670.8868408203125 5.766818046569824 L 670.8868408203125 4 L 9.113303184509277 4 L 9.113303184509277 5.766818046569824 L 5.113303184509277 5.766818046569824 L 4.000030517578125 5.766818046569824 L 4.000030517578125 66.23336029052734 L 5.113303184509277 66.23336029052734 L 9.113303184509277 66.23336029052734 L 9.113303184509277 68 L 670.8868408203125 68 M 674.8868408203125 72 L 5.113303184509277 72 L 5.113303184509277 70.23336029052734 L 3.0517578125e-05 70.23336029052734 L 3.0517578125e-05 1.766818165779114 L 5.113303184509277 1.766818165779114 L 5.113303184509277 0 L 674.8868408203125 0 L 674.8868408203125 1.766818165779114 L 680 1.766818165779114 L 680 70.23336029052734 L 674.8868408203125 70.23336029052734 L 674.8868408203125 71.99945831298828 L 674.8868408203125 72 Z" stroke="none" fill="#fff"/>
    </g>
    <path id="Path_54384" data-name="Path 54384" d="M9.563-.158A7.946,7.946,0,0,1,6.82.413,5.371,5.371,0,0,1,3.876-.444,5.6,5.6,0,0,1,1.784-2.993,9.383,9.383,0,0,1,1.037-6.82a9.4,9.4,0,0,1,.738-3.806,5.631,5.631,0,0,1,2.083-2.558,5.341,5.341,0,0,1,2.962-.87,7.946,7.946,0,0,1,2.742.571v1.617a5.587,5.587,0,0,0-2.812-.817,2.964,2.964,0,0,0-1.929.721A4.988,4.988,0,0,0,3.41-9.848,8.36,8.36,0,0,0,2.874-6.82a8.3,8.3,0,0,0,.554,3.067,5,5,0,0,0,1.415,2.1,2.956,2.956,0,0,0,1.907.7,5.62,5.62,0,0,0,2.813-.817ZM18,.413a1.379,1.379,0,0,1-1.011-.422,1.379,1.379,0,0,1-.422-1.011,1.368,1.368,0,0,1,.426-1.015A1.391,1.391,0,0,1,18-2.452,1.391,1.391,0,0,1,19-2.035a1.368,1.368,0,0,1,.426,1.015,1.379,1.379,0,0,1-.422,1.011A1.379,1.379,0,0,1,18,.413ZM28-18Zm2.25,0h1.125v1.125H30.25Zm4.5,0h1.125v3.375H41.5V-13.5H40.375v1.125H39.25v1.125h3.375V-9H41.5v1.125h2.25V-2.25H42.625v1.125H41.5V0H40.375V-1.125H41.5V-2.25h1.125v-4.5h-2.25v1.125H39.25V-6.75H31.375V-4.5H30.25v1.125H29.125V-2.25H28V-3.375h1.125V-4.5H30.25V-6.75h1.125V-9H32.5v-2.25h1.125V-13.5h-4.5v-1.125h2.25v-2.25H32.5v2.25h2.25Zm0,4.5v2.25h3.375v-1.125H39.25V-13.5Zm-1.125,3.375V-9H32.5v1.125h7.875V-9H41.5v-1.125ZM32.5-5.625h1.125v2.25H32.5V-2.25H31.375V-3.375H32.5Zm2.25,0h1.125V-4.5H34.75Zm2.25,0h1.125V-4.5H37v1.125H35.875V-4.5H37Zm3.375,0H41.5v2.25H40.375ZM38.125-4.5H39.25v1.125H38.125ZM39.25-2.25h1.125v1.125H39.25ZM47.8-18Zm2.25,1.125H62.425v2.25H61.3V-13.5H60.175v1.125H59.05v1.125H57.925v1.125H56.8v9H55.675V0H54.55V-1.125h1.125V-11.25h2.25v-1.125H59.05V-13.5h1.125v-1.125H61.3V-15.75H50.05ZM53.425-2.25H54.55v1.125H53.425ZM67.6-18Zm4.5,0h1.125v2.25H78.85V-18h1.125v2.25h4.5v1.125h-4.5V-13.5h2.25v3.375H69.85V-13.5H72.1v-1.125H67.6V-15.75h4.5Zm1.125,3.375V-13.5H78.85v-1.125Zm-2.25,2.25v1.125h2.25v-1.125Zm3.375,0v1.125h3.375v-1.125Zm4.5,0v1.125H81.1v-1.125ZM68.725-9h15.75v2.25H83.35v1.125H82.225V-6.75H83.35V-7.875H75.475V-6.75H81.1V-4.5H79.975v1.125h-2.25V-2.25h-2.25v1.125h-2.25V0h-4.5V-1.125h4.5V-2.25h2.25V-3.375h2.25V-4.5h2.25V-5.625H74.35V-4.5H72.1v1.125H69.85V-4.5H72.1V-5.625h1.125V-6.75H74.35V-7.875h-4.5V-6.75H68.725v1.125H67.6V-6.75h1.125ZM74.35-4.5h1.125v1.125H74.35ZM87.4-18Zm4.5,0h1.125v3.375h2.25V-13.5h-2.25v1.125H94.15v1.125H93.025v5.625H91.9V-11.25H90.775v1.125H89.65V-9H88.525v-1.125H89.65V-11.25h1.125v-1.125H91.9V-13.5H88.525v-1.125H91.9Zm4.5,1.125h5.625V-6.75H96.4Zm1.125,1.125v2.25H100.9v-2.25Zm0,3.375v1.125H100.9v-1.125ZM94.15-11.25h1.125v1.125H94.15Zm3.375,1.125v2.25H100.9v-2.25ZM94.15-6.75h1.125v1.125H94.15Zm1.125,1.125H96.4v2.25H95.275ZM89.65-4.5h1.125v2.25H89.65v1.125H88.525V-2.25H89.65Zm2.25,0h1.125v3.375H91.9Zm9,0h1.125v1.125H100.9ZM98.65-3.375h1.125V0h-6.75V-1.125H98.65Zm3.375,0h1.125v2.25h-1.125Zm14.157-4.347a1.089,1.089,0,0,0-.846.306,1.044,1.044,0,0,0-.324.81,1.071,1.071,0,0,0,.306.792,1.047,1.047,0,0,0,.774.324.963.963,0,0,0,.4-.072,2.123,2.123,0,0,1-.378,1.206,2.6,2.6,0,0,1-1.152.792v.882a3.473,3.473,0,0,0,1.854-1.17,3.373,3.373,0,0,0,.7-2.106,2.091,2.091,0,0,0-.36-1.26A1.149,1.149,0,0,0,116.182-7.722ZM127-18Zm7.875,0H136v3.375h2.25V-15.75h1.125v-1.125H140.5v1.125h-1.125v1.125h4.5v2.25H142.75v1.125h-1.125v-1.125h1.125V-13.5h-13.5v1.125h-1.125v1.125H127v-1.125h1.125v-2.25H131.5V-15.75h1.125v1.125h2.25Zm-4.5,1.125H131.5v1.125h-1.125Zm1.125,4.5h7.875v4.5H131.5Zm1.125,1.125V-9h5.625v-2.25Zm-3.375,4.5h12.375V0H140.5V-1.125H130.375V0H129.25Zm1.125,1.125V-4.5h4.5V-5.625Zm5.625,0V-4.5h4.5V-5.625Zm-5.625,2.25V-2.25h4.5V-3.375Zm5.625,0V-2.25h4.5V-3.375ZM146.8-18Zm3.375,0H151.3v3.375h3.375v2.25h3.375V-18h1.125v5.625h4.5v1.125h-4.5v1.125H158.05v2.25h-1.125V-6.75H155.8v1.125h-1.125V-4.5H153.55V-5.625h1.125V-6.75H155.8V-7.875h1.125v-2.25h1.125V-11.25h-3.375v1.125H153.55v2.25h-1.125V-6.75H151.3v1.125h-1.125V-4.5H149.05v1.125h-1.125V-4.5h1.125V-5.625h1.125V-6.75H151.3V-7.875h1.125v-2.25h1.125V-13.5h-3.375v1.125H151.3v1.125h-2.25v1.125h-1.125V-9H146.8v-1.125h1.125V-11.25h1.125V-13.5h1.125ZM160.3-15.75h1.125v1.125H160.3Zm1.125,1.125h1.125V-13.5h-1.125ZM151.3-11.25h1.125v1.125H151.3Zm-2.25,1.125h1.125V-9H149.05Zm10.125,0H160.3v2.25h-1.125Zm-9,1.125H151.3v1.125h-1.125ZM160.3-7.875h1.125V-6.75H160.3Zm1.125,1.125h2.25v1.125H162.55V-4.5h-1.125ZM149.05-3.375h1.125v2.25H149.05V0h-1.125V-1.125h1.125Zm3.375,0h1.125V-2.25h-1.125Zm4.5,0h1.125V-2.25h-1.125Zm4.5,0h1.125V-2.25h-1.125ZM153.55-2.25h1.125V0H153.55Zm4.5,0h1.125V0H158.05Zm4.5,0h1.125V0H162.55ZM166.6-18Zm1.125,1.125h15.75v1.125H180.1V-1.125h-1.125V0H177.85V-1.125h1.125V-15.75h-11.25ZM171.1-13.5h5.625v9H175.6V-5.625h-3.375V-4.5H171.1Zm1.125,1.125V-6.75H175.6v-5.625Zm4.5,10.125h1.125v1.125h-1.125ZM186.4-18Zm5.625,1.125h1.125v1.125h-1.125Zm7.875,0h1.125V-9H199.9v3.375h-1.125V-4.5H199.9v1.125h-2.25V-2.25h-1.125v1.125h-2.25V0h-2.25V-1.125h2.25V-2.25h2.25V-3.375h1.125v-2.25h1.125V-9H199.9ZM188.65-15.75h1.125V-3.375H190.9V-4.5h1.125V-5.625h1.125V-6.75h1.125V-7.875H195.4V-6.75h-1.125v1.125H193.15V-4.5h-1.125v1.125H190.9V-2.25h-1.125v1.125H188.65Zm4.5,0h1.125v1.125H193.15Zm1.125,1.125H195.4v2.25h-1.125ZM199.9-3.375h1.125V-2.25H199.9Zm1.125,1.125h1.125V0h-1.125ZM206.2-18Zm7.875,0H215.2v1.125h6.75v1.125H207.325v-1.125h6.75ZM210.7-14.625h7.875v3.375H210.7Zm1.125,1.125v1.125h5.625V-13.5Zm-4.5,3.375h15.75V-9H221.95v1.125h-1.125V-6.75H219.7V-7.875h1.125V-9H208.45v1.125h-1.125V-6.75H206.2V-7.875h1.125Zm6.75,2.25h4.5V-6.75H215.2v1.125h3.375V-4.5H215.2v1.125h4.5V-2.25h-4.5v1.125h-6.75V-2.25h5.625V-3.375H210.7V-4.5h3.375V-5.625h-4.5V-6.75h4.5Zm6.75,4.5h1.125V0H215.2V-1.125h5.625ZM226-18Zm0,1.125h16.875v1.125h-6.75v2.25H235V0h-1.125V-10.125H232.75V-9h-1.125v1.125H230.5V-6.75h-1.125v1.125H228.25V-4.5h-1.125V-5.625h1.125V-6.75h1.125V-7.875H230.5V-9h1.125v-1.125h1.125V-11.25h1.125V-13.5H235v-2.25h-9Zm10.125,5.625h1.125v1.125h-1.125Zm1.125,1.125h1.125V-9H237.25ZM238.375-9h2.25v1.125h1.125v2.25h-1.125V-6.75H239.5V-7.875h-1.125Zm7.425-9Zm5.625,0h1.125v2.25h-1.125v1.125H250.3V-13.5h-1.125v1.125H248.05v1.125h-1.125v1.125H245.8V-11.25h1.125v-1.125h1.125V-13.5h1.125v-1.125H250.3V-15.75h1.125Zm2.25,0H254.8v1.125h-1.125Zm5.625,0h1.125v1.125H259.3v1.125h-1.125v-1.125H259.3Zm-12.375,1.125h1.125v1.125h-1.125Zm7.875,0h1.125v1.125H254.8Zm-6.75,1.125h1.125v1.125H248.05Zm4.5,1.125h9V-13.5h-3.375v2.25h3.375V0h-1.125V-1.125h-6.75V0H252.55V-11.25h2.25V-13.5h-2.25ZM250.3-13.5h1.125V-2.25H250.3v1.125h-1.125V0H248.05V-1.125h1.125V-2.25H250.3V-7.875h-1.125V-6.75H248.05v1.125h-1.125V-4.5H245.8V-5.625h1.125V-6.75h1.125V-7.875h1.125V-9H250.3Zm5.625,0v2.25h1.125V-13.5Zm-2.25,3.375V-6.75H254.8v-3.375Zm2.25,0V-6.75H254.8v1.125h-1.125V-4.5h6.75V-5.625h-2.25V-6.75h2.25v-3.375h-2.25V-6.75H257.05v-3.375Zm-2.25,6.75V-2.25h6.75V-3.375Zm-6.75,1.125h1.125v1.125h-1.125ZM265.6-18Zm10.125,0h1.125v1.125h3.375v1.125H279.1v1.125h-1.125V-13.5h3.375V-9h-5.625v1.125H274.6V-6.75h-1.125v1.125h-2.25V-6.75h2.25V-7.875H274.6V-9h-1.125v-3.375H272.35V-13.5h1.125v-1.125H274.6V-15.75h1.125ZM265.6-16.875h5.625v2.25H270.1V-13.5h-1.125v1.125h-2.25V-13.5h2.25v-1.125H270.1V-15.75h-4.5Zm10.125,1.125v1.125H274.6V-13.5h2.25v-1.125h1.125V-15.75ZM265.6-14.625h1.125V-13.5H265.6Zm3.375,2.25H270.1v1.125h2.25V-9h-1.125v1.125H270.1V-9h1.125v-1.125h-2.25v9H267.85V0h-1.125V-1.125h1.125v-9H265.6V-11.25h3.375Zm5.625,0v2.25h1.125V-11.25h1.125v-1.125Zm3.375,0v1.125H276.85v1.125h3.375v-2.25Zm-2.25,4.5h1.125V-6.75h-1.125v1.125H274.6V-4.5h-1.125v1.125h-2.25V-4.5h2.25V-5.625H274.6V-6.75h1.125Zm4.5,0h1.125V-6.75h-1.125v1.125H279.1V-4.5h-1.125v3.375H276.85V0h-1.125V-1.125h1.125v-2.25h-1.125v2.25H274.6V-2.25h-1.125v1.125h-2.25V-2.25h2.25V-3.375h2.25V-4.5h1.125V-6.75h1.125v1.125H279.1V-6.75h1.125ZM279.1-4.5h1.125v1.125H279.1Zm1.125,1.125h2.25V-2.25H281.35v1.125h-1.125ZM265.6-2.25h1.125v1.125H265.6ZM285.4-18Zm3.375,0H289.9v2.25h-1.125v1.125h4.5v3.375H294.4V-13.5h1.125V-18h1.125v3.375h4.5V-2.25h-1.125v1.125H298.9V0h-1.125V-1.125H298.9V-2.25h1.125V-13.5h-4.5v2.25H294.4v1.125h-1.125v9H292.15V-2.25h-4.5v1.125h-1.125v-13.5h1.125V-15.75h1.125Zm-1.125,4.5V-9h4.5v-4.5Zm7.875,3.375h1.125V-9h-1.125ZM296.65-9h1.125v2.25H296.65Zm-9,1.125v4.5h4.5v-4.5Zm9,5.625h1.125v1.125H296.65ZM305.2-18Zm5.625,0h1.125v2.25h4.5V-18h1.125v2.25h4.5v1.125h-4.5v2.25H316.45v-2.25h-4.5v2.25h-1.125v2.25H309.7V0h-1.125V-7.875H307.45V-6.75h-1.125v1.125H305.2V-6.75h1.125V-7.875h1.125V-9h1.125v-1.125H309.7v-2.25h1.125v-2.25H305.2V-15.75h5.625Zm3.375,5.625h1.125v4.5h1.125V-9h1.125v-1.125H318.7V-11.25h1.125V-9h-2.25v1.125H316.45V-6.75h-1.125v4.5H314.2V-4.5h-1.125v1.125H311.95V-2.25h-1.125V-3.375h1.125V-4.5h1.125V-5.625H314.2Zm6.75,6.75h1.125v4.5h-6.75V-2.25h5.625ZM325-18Zm3.375,0H329.5v4.5h2.25v1.125H329.5v2.25h1.125V-11.25h1.125v-1.125h3.375V-18h1.125v2.25h4.5v1.125h-4.5v2.25h3.375V-6.75H336.25V-4.5h5.625v1.125H336.25V0h-1.125V-3.375h-4.5V-4.5h4.5V-6.75H331.75v-3.375h-1.125V-9H329.5v7.875h-1.125V0H327.25V-1.125h1.125v-6.75H327.25V-6.75H325V-7.875h2.25V-9h1.125v-3.375H325V-13.5h3.375Zm4.5,6.75v1.125H338.5V-11.25Zm0,2.25v1.125H338.5V-9Zm-6.75,6.75h1.125v1.125h-1.125ZM344.8-18Zm3.375,0H349.3v3.375h-1.125V0H347.05V-11.25h-1.125v1.125H344.8V-11.25h1.125v-1.125h1.125v-2.25h1.125Zm3.375,0h1.125v3.375h2.25V-13.5h-2.25v3.375h2.25V-13.5h1.125V-18h1.125v4.5h4.5v1.125H360.55V-9h-1.125v2.25H358.3V-4.5h-1.125v1.125H356.05V-2.25h-1.125v1.125H353.8V0h-1.125V-1.125H353.8V-2.25h1.125V-3.375h1.125V-4.5h1.125V-6.75H358.3V-9h1.125v-3.375H356.05v2.25h-1.125v6.75h-4.5V-2.25H349.3v-7.875h2.25V-13.5H349.3v-1.125h2.25Zm4.5,7.875h1.125V-6.75H356.05ZM350.425-9v4.5H353.8V-9ZM358.3-4.5h1.125v2.25H358.3Zm1.125,2.25h2.25v1.125H360.55V0h-1.125ZM364.6-18Zm7.875,0H373.6v1.125h-1.125v1.125H371.35v1.125h6.75V0h-1.125V-1.125H369.1V0h-1.125V-14.625h2.25V-15.75h1.125v-1.125h1.125ZM369.1-13.5v3.375h7.875V-13.5Zm0,4.5v2.25h7.875V-9Zm0,3.375V-2.25h7.875V-5.625ZM384.4-18Zm1.125,2.25H397.9v7.875h-1.125V-9h-9v6.75H386.65v-7.875h10.125v-4.5h-11.25Zm13.5,11.25h1.125v3.375H387.775V-2.25h11.25ZM404.2-18Zm4.5,0h1.125v3.375h2.25V-13.5h-2.25v1.125h1.125v1.125h-1.125v5.625H408.7V-11.25h-1.125v1.125H406.45V-9h-1.125v-1.125h1.125V-11.25h1.125v-1.125H408.7V-13.5h-3.375v-1.125H408.7Zm4.5,1.125h5.625V-6.75H413.2Zm1.125,1.125v2.25H417.7v-2.25Zm0,3.375v1.125H417.7v-1.125ZM410.95-11.25h1.125v1.125H410.95Zm3.375,1.125v2.25H417.7v-2.25ZM410.95-6.75h1.125v1.125H410.95Zm1.125,1.125H413.2v2.25h-1.125ZM406.45-4.5h1.125v2.25H406.45v1.125h-1.125V-2.25h1.125Zm2.25,0h1.125v3.375H408.7Zm9,0h1.125v1.125H417.7Zm-2.25,1.125h1.125V0h-6.75V-1.125h5.625Zm3.375,0h1.125v2.25h-1.125ZM424-18Zm3.375,0H428.5v3.375h-1.125V0H426.25V-11.25h-1.125v1.125H424V-11.25h1.125v-1.125h1.125v-2.25h1.125Zm3.375,0h1.125v3.375h2.25V-13.5h-2.25v3.375h2.25V-13.5h1.125V-18h1.125v4.5h4.5v1.125H439.75V-9h-1.125v2.25H437.5V-4.5h-1.125v1.125H435.25V-2.25h-1.125v1.125H433V0h-1.125V-1.125H433V-2.25h1.125V-3.375h1.125V-4.5h1.125V-6.75H437.5V-9h1.125v-3.375H435.25v2.25h-1.125v6.75h-4.5V-2.25H428.5v-7.875h2.25V-13.5H428.5v-1.125h2.25Zm4.5,7.875h1.125V-6.75H435.25ZM429.625-9v4.5H433V-9ZM437.5-4.5h1.125v2.25H437.5Zm1.125,2.25h2.25v1.125H439.75V0h-1.125ZM443.8-18Zm3.375,0H448.3v2.25h-1.125v1.125h4.5v3.375H452.8V-13.5h1.125V-18h1.125v3.375h4.5V-2.25h-1.125v1.125H457.3V0h-1.125V-1.125H457.3V-2.25h1.125V-13.5h-4.5v2.25H452.8v1.125h-1.125v9H450.55V-2.25h-4.5v1.125h-1.125v-13.5h1.125V-15.75h1.125Zm-1.125,4.5V-9h4.5v-4.5Zm7.875,3.375h1.125V-9h-1.125ZM455.05-9h1.125v2.25H455.05Zm-9,1.125v4.5h4.5v-4.5Zm9,5.625h1.125v1.125H455.05ZM463.6-18Zm7.875,0H472.6v2.25h7.875v1.125H472.6V-13.5h5.625v3.375H472.6V-9h5.625v2.25h2.25v1.125h-2.25v2.25H472.6v2.25h-1.125V0H470.35V-1.125h1.125v-2.25H465.85V-4.5h5.625V-5.625H463.6V-6.75h7.875V-7.875H465.85V-9h5.625v-1.125H465.85V-13.5h5.625v-1.125H463.6V-15.75h7.875Zm-4.5,5.625v1.125h4.5v-1.125Zm5.625,0v1.125h4.5v-1.125Zm0,4.5V-6.75h4.5V-7.875Zm0,2.25V-4.5h4.5V-5.625ZM469.225-2.25h1.125v1.125h-1.125ZM483.4-18Zm3.375,0H487.9v4.5h1.125v1.125H487.9v1.125h1.125v-1.125h1.125V-13.5h3.375v-1.125h-4.5V-15.75h4.5V-18h1.125v2.25h4.5v1.125h-4.5V-13.5h3.375v1.125H494.65v1.125h5.625v1.125H487.9V0h-1.125Zm-2.25,4.5h1.125v3.375h-1.125V-9H483.4v-1.125h1.125Zm5.625,1.125v1.125h3.375v-1.125Zm0,3.375h7.875v7.875H496.9V0h-1.125V-1.125H496.9v-2.25h-5.625V0H490.15Zm1.125,1.125V-6.75H496.9V-7.875Zm0,2.25V-4.5H496.9V-5.625ZM494.65-2.25h1.125v1.125H494.65Z" transform="translate(3013 3813)" fill="#15172a"/>
  </g>
</svg>
