<svg xmlns="http://www.w3.org/2000/svg" width="740" height="98" viewBox="0 0 740 98">
  <g id="g11" transform="translate(-475 -39.001)">
    <g id="Exclusion_19" data-name="Exclusion 19" transform="translate(6642 5051)" fill="#15172a">
      <path d="M -5433.0009765625 -4915.99951171875 L -6159.43603515625 -4915.99951171875 L -6159.43603515625 -4916.40478515625 L -6159.43603515625 -4918.40478515625 L -6161.43603515625 -4918.40478515625 L -6165 -4918.40478515625 L -6165 -5007.59423828125 L -6161.43603515625 -5007.59423828125 L -6159.43603515625 -5007.59423828125 L -6159.43603515625 -5009.59423828125 L -6159.43603515625 -5009.9990234375 L -5433.0009765625 -5009.9990234375 L -5433.0009765625 -5008 L -5433.0009765625 -5006 L -5431.0009765625 -5006 L -5429 -5006 L -5429 -4920.00048828125 L -5431.0009765625 -4920.00048828125 L -5433.0009765625 -4920.00048828125 L -5433.0009765625 -4918.00048828125 L -5433.0009765625 -4915.99951171875 Z" stroke="none"/>
      <path d="M -5435.0009765625 -4917.99951171875 L -5435.0009765625 -4918.00048828125 L -5435.0009765625 -4922.00048828125 L -5431.0009765625 -4922.00048828125 L -5431 -4922.00048828125 L -5431 -5004 L -5431.0009765625 -5004 L -5435.0009765625 -5004 L -5435.0009765625 -5007.9990234375 L -6157.43603515625 -5007.9990234375 L -6157.43603515625 -5005.59423828125 L -6161.43603515625 -5005.59423828125 L -6163 -5005.59423828125 L -6163 -4920.40478515625 L -6161.43603515625 -4920.40478515625 L -6157.43603515625 -4920.40478515625 L -6157.43603515625 -4917.99951171875 L -5435.0009765625 -4917.99951171875 M -5431.0009765625 -4913.99951171875 L -6161.43603515625 -4913.99951171875 L -6161.43603515625 -4916.40478515625 L -6167 -4916.40478515625 L -6167 -5009.59423828125 L -6161.43603515625 -5009.59423828125 L -6161.43603515625 -5011.9990234375 L -5431.0009765625 -5011.9990234375 L -5431.0009765625 -5008 L -5427 -5008 L -5427 -4918.00048828125 L -5431.0009765625 -4918.00048828125 L -5431.0009765625 -4914.00048828125 L -5431.0009765625 -4913.99951171875 Z" stroke="none" fill="#fff"/>
    </g>
    <path id="Path_54303" data-name="Path 54303" d="M0-28Zm5.25,0H7v5.25H5.25V0H3.5V-17.5H1.75v1.75H0V-17.5H1.75v-1.75H3.5v-3.5H5.25Zm7,0H14v5.25H24.5v3.5H22.75v1.75H21v-1.75h1.75V-21H12.25v1.75H10.5v1.75H8.75v1.75H7V-17.5H8.75v-1.75H10.5v-3.5h1.75Zm3.5,10.5H17.5V-1.75H15.75V0H14V-1.75h1.75ZM12.25-14H14v3.5H12.25v1.75H10.5V-7H8.75V-8.75H10.5V-10.5h1.75Zm7,0H21v1.75H19.25ZM21-12.25h1.75v1.75H21Zm1.75,1.75H24.5V-7H22.75Zm-10.5,7H14v1.75H12.25ZM30.8-28Zm7,1.75H50.05v17.5h7V-7H48.3v1.75H46.55V-7H41.3v1.75H39.55V-3.5H37.8v1.75H36.05V0H34.3V-1.75h1.75V-3.5H37.8V-5.25h1.75V-7H30.8V-8.75h7Zm1.75,1.75V-21H48.3v-3.5Zm0,5.25v1.75H48.3v-1.75Zm0,3.5V-14H48.3v-1.75Zm0,3.5v3.5H48.3v-3.5Zm8.75,7h1.75V-3.5H48.3ZM50.05-3.5H51.8V0H50.05ZM61.6-28Zm10.5,0h1.75v3.5h14v1.75H72.1v3.5H82.6v17.5H80.85V0H79.1V-1.75h1.75V-7H70.35V0H68.6V-14H66.85v1.75H65.1v1.75H63.35v1.75H61.6V-10.5h1.75v-1.75H65.1V-14h1.75v-1.75H68.6v-3.5h1.75v-3.5H61.6V-24.5H72.1ZM70.35-17.5V-14h10.5v-3.5Zm0,5.25v3.5h10.5v-3.5Zm7,8.75H79.1v1.75H77.35ZM92.4-28Zm1.75,1.75H116.9v1.75h-7v1.75h5.25v5.25H95.9v-5.25h5.25V-24.5h-7Zm8.75,1.75v1.75h5.25V-24.5ZM97.65-21v1.75h3.5V-21Zm5.25,0v1.75h5.25V-21Zm7,0v1.75h3.5V-21ZM97.65-15.75H113.4V-3.5h-1.75v1.75H109.9V-3.5h-8.75v1.75H99.4V0H97.65V-1.75H99.4V-3.5H97.65ZM99.4-14v1.75h12.25V-14Zm0,3.5v1.75h12.25V-10.5Zm0,3.5v1.75h12.25V-7Zm12.25,5.25h1.75V0h-1.75ZM123.2-28Zm7,0h1.75v5.25H130.2V0h-1.75V-17.5H126.7v1.75h-1.75V-14H123.2v-1.75h1.75V-17.5h1.75v-1.75h1.75v-3.5h1.75Zm10.5,0h1.75v3.5H140.7v1.75h7V0h-1.75V-3.5H137.2V0h-1.75V-22.75h3.5V-24.5h1.75Zm-3.5,7v7h8.75v-7Zm0,8.75v7h8.75v-7ZM154-28Zm3.5,0h1.75v5.25h5.25V-28h1.75v5.25H168V-21h-1.75V-8.75H168V-7H154V-8.75h3.5V-21h-1.75v-1.75h1.75ZM175-26.25h3.5v1.75H175v1.75h-3.5v5.25h8.75v1.75h-3.5V0H175V-15.75h-3.5v10.5h-1.75v3.5H168V0h-1.75V-1.75H168v-3.5h1.75V-24.5H175ZM159.25-21v3.5h5.25V-21Zm0,5.25V-14h5.25v-1.75Zm0,3.5v3.5h5.25v-3.5Zm0,7H161V-3.5h-1.75v1.75H157.5V0h-1.75V-1.75h1.75V-3.5h1.75Zm3.5,0h1.75V-3.5h-1.75ZM164.5-3.5h1.75v1.75H164.5Zm35.28-1.2a4.292,4.292,0,0,0,.112-1.176c.028-.42.056-.812.056-1.176a8.309,8.309,0,0,0-.2-1.2,5,5,0,0,0-.364-1.148,5.089,5.089,0,0,0-.756-.98,4.13,4.13,0,0,0-.9-.812,7.183,7.183,0,0,0-1.064-.644,6.231,6.231,0,0,0-1.12-.448c-.42-.14-.812-.364-1.232-.5-.476-.168-.952-.28-1.428-.448-.28-.084-.588-.224-.9-.336a7.49,7.49,0,0,1-.784-.5,4.6,4.6,0,0,1-.98-.672,2.7,2.7,0,0,1-.7-.924,2.719,2.719,0,0,1-.2-1.036,3.046,3.046,0,0,1,.168-1.008,3.542,3.542,0,0,1,.56-.868,3.017,3.017,0,0,1,.84-.588,4.219,4.219,0,0,1,.924-.364,6.073,6.073,0,0,1,.98-.2c.336,0,.672-.056,1.008-.028.14.028.112.084.252.112.364.056.728.14,1.12.2.42.028.9-.056,1.428-.056a1.786,1.786,0,0,0,.868-.168,2.016,2.016,0,0,0,.644-.644,1.388,1.388,0,0,0,.308-.952,1.284,1.284,0,0,0-.42-.924,3.664,3.664,0,0,0-.672-.476,4.86,4.86,0,0,0-.728-.42c-.364-.084-.756-.112-1.148-.168a7.73,7.73,0,0,0-1.12-.168c-.392-.028-.784-.112-1.148-.112a7.569,7.569,0,0,0-1.148.14c-.392.056-.784.056-1.148.14s-.728.28-1.092.392a10.43,10.43,0,0,0-1.064.42,8.6,8.6,0,0,0-.868.476,5.812,5.812,0,0,0-.812.532,4.347,4.347,0,0,0-.728.7,5.914,5.914,0,0,0-.588.868,9.917,9.917,0,0,0-.532.924A5.633,5.633,0,0,0,185-17.92a6.154,6.154,0,0,0-.168,1.036c-.028.336-.028.672-.028,1.036a5.16,5.16,0,0,0,.2,1.176,4.727,4.727,0,0,0,.532,1.064,4.634,4.634,0,0,0,.7.952,5.524,5.524,0,0,0,.952.84,9.859,9.859,0,0,0,1.064.672,11.426,11.426,0,0,0,1.176.476c.308.14.588.308.9.42s.644.2.952.308c.252.084.5.224.756.308.252.112.532.2.784.28a5.771,5.771,0,0,1,1.176.588,4.84,4.84,0,0,1,.98.868,2.191,2.191,0,0,1,.5.98,3.083,3.083,0,0,1,.14,1.12,2.612,2.612,0,0,1-.42,1.036,4.655,4.655,0,0,1-.812.84,3.853,3.853,0,0,1-1.008.644,6.5,6.5,0,0,1-1.064.14,6.209,6.209,0,0,1-1.036.084,7.674,7.674,0,0,1-1.036-.224,6.3,6.3,0,0,1-.98-.252L188.8-3.7a5.716,5.716,0,0,0-.952-.084,3.581,3.581,0,0,0-.952.028,2.113,2.113,0,0,0-.952.42,2.228,2.228,0,0,0-.56.9,1.533,1.533,0,0,0,.14.952,2.1,2.1,0,0,0,.56.728,3.845,3.845,0,0,0,.56.364c.252.14.5.28.756.392a4.719,4.719,0,0,0,.784.336c.308.084.644.084.98.14s.644.14.98.168.672-.056,1.008-.056c.252,0,.532.028.812.028.112,0,.112-.056.2-.056.14,0,.28.084.448.084.364-.028.728-.056,1.092-.112A6.933,6.933,0,0,0,194.8.252,6.629,6.629,0,0,0,195.8-.224c.308-.168.672-.252.952-.42a9.4,9.4,0,0,0,.812-.672,6.168,6.168,0,0,0,.784-.672,4.608,4.608,0,0,0,.56-.868,5.55,5.55,0,0,0,.532-.868A6.763,6.763,0,0,0,199.78-4.7Zm10.3-12.684a5.085,5.085,0,0,1,.168,1.54v1.092c0,.336-.028.7-.028,1.064s.056.7.056,1.064-.028.728-.028,1.064c0,.56.056.56.056,1.12v1.092c0,.56-.056.56-.056,1.092v2.128c0,.364.028.7,0,1.064V-4c0,.364.028.728.056,1.092l.168,1.064a2.281,2.281,0,0,0,.56,1.232,1.954,1.954,0,0,0,1.26.42c.028,0,.056.028.084.028a1.7,1.7,0,0,0,1.176-.448,2.023,2.023,0,0,0,.644-1.12,3.59,3.59,0,0,0,.112-.84c.028-.364-.028-.728-.028-1.12,0-.56.028-.56.028-1.12,0-.532-.056-.532-.056-1.092,0-.392.056-.756.056-1.12,0-.392-.028-.756-.028-1.12,0-.392.028-.756.028-1.12,0-.392.056-.756.056-1.12,0-.392-.084-.756-.084-1.12,0-.392-.028-.756-.028-1.12v-1.12c0-.392.084-.756.084-1.12,0-.336.028-.672.056-1.064.028-.308,0-.672.056-1.036a3.329,3.329,0,0,1,.42-1.12,3.019,3.019,0,0,1,.784-.9,3.931,3.931,0,0,1,1.148-.42,2.512,2.512,0,0,1,.5-.056.818.818,0,0,1,.252-.056,3.085,3.085,0,0,1,.5-.056c.364-.056.756-.084,1.148-.14a2.16,2.16,0,0,0,1.064-.448,1.433,1.433,0,0,0,.476-1.036,1.394,1.394,0,0,0-.532-1.008,1.778,1.778,0,0,0-1.036-.476c-.2-.028-.168-.14-.364-.168l-.924-.084c-.308-.028-.644-.056-.952-.056-.336,0-.7.028-1.036.028s-.7-.028-1.036-.028h-1.036c-.364,0-.7.056-1.064.056-.336,0-.672-.028-1.036-.028H210.7c-.336,0-.7.028-1.036.028s-.7.028-1.036.028c-.364,0-.7-.028-1.036-.028a.027.027,0,0,1-.028-.028c-.364,0-.728,0-1.092.028-.364.056-.7.14-1.064.2a1.9,1.9,0,0,0-1.064.5,1.446,1.446,0,0,0-.476,1.064,1.561,1.561,0,0,0,.476,1.036,1.921,1.921,0,0,0,1.036.392c.28.056.532.14.812.168.28.056.588.056.84.084a7.556,7.556,0,0,1,1.148.168,2.943,2.943,0,0,1,.84.42,2.1,2.1,0,0,1,.616.7A2.868,2.868,0,0,1,210.084-17.388ZM227.22.308c.308.028.588.028.9.028.028,0,.028.028.056.028.364,0,.7-.028,1.036-.028s.672.056,1.008.056c.392,0,.784-.028,1.176-.028h1.12c.56,0,.56-.028,1.12-.028s.56.056,1.12.056c.588,0,.588-.028,1.148-.028s.56.028,1.12.028h.056c.056,0,.112-.028.168-.028h.308l.812-.084a2.056,2.056,0,0,0,1.12-.5A1.781,1.781,0,0,0,240.1-1.68a1.667,1.667,0,0,0-1.008-1.2,3.747,3.747,0,0,0-.728-.252c-.336-.056-.644-.14-.952-.168-.336-.028-.644-.056-.952-.056h-1.232c-.392,0-.812.084-1.2.084-.5,0-.98-.084-1.484-.084-.084,0-.2.056-.28.056a4.546,4.546,0,0,1-1.6-.252,2.92,2.92,0,0,1-.98-.616,2.3,2.3,0,0,1-.588-.98,3.423,3.423,0,0,1-.252-1.176c.028-.42,0-.812.056-1.12a2.843,2.843,0,0,1,.5-1.008,2.342,2.342,0,0,1,.84-.7,3.466,3.466,0,0,1,1.036-.336c.364-.056.7-.056,1.036-.084a6.491,6.491,0,0,1,1.036-.028c.392,0,.784-.084,1.176-.084s.756.084,1.148.084c.168,0,.168-.028.336-.028a4.9,4.9,0,0,0,.9-.112,3.686,3.686,0,0,0,.84-.252,1.937,1.937,0,0,0,.7-.532,1.492,1.492,0,0,0,.336-.84,1.758,1.758,0,0,0-.336-.9,1.98,1.98,0,0,0-.756-.56,3.738,3.738,0,0,0-.924-.28c-.28-.028-.532-.112-.784-.112-.056,0-.056.084-.112.084-.308,0-.644-.056-.952-.056h-.98c-.336,0-.644-.028-.98-.028a8.842,8.842,0,0,1-1.232-.028,5.151,5.151,0,0,1-1.176-.252,2.442,2.442,0,0,1-.84-.476,2.8,2.8,0,0,1-.476-.784,3.023,3.023,0,0,1-.252-.9c0-.14.028-.28.028-.42,0-.084-.056-.2-.056-.28a2.937,2.937,0,0,1,.252-1.232,2.287,2.287,0,0,1,.84-.952,3.8,3.8,0,0,1,1.2-.364c.42-.056.784-.14,1.176-.168a8.271,8.271,0,0,1,1.176-.056h.924c.308,0,.588-.028.9-.028s.616.084.924.084.308-.112.644-.112a3.254,3.254,0,0,0,1.484-.252,1.8,1.8,0,0,0,.644-.56,1.819,1.819,0,0,0,.364-.784,1.58,1.58,0,0,0-.224-.9,1.9,1.9,0,0,0-.7-.588,3.185,3.185,0,0,0-.784-.364,4.273,4.273,0,0,0-.84-.084c-.28-.028-.56-.056-.84-.056-.364,0-.728-.056-1.092-.056s-.7.028-1.064.028-.728.028-1.092.028-.728-.056-1.064-.056c-.364,0-.728-.028-1.092-.028s-.728.028-1.092.028c-.336,0-.7.056-1.064.056h-.028a5.412,5.412,0,0,0-.952.028,7.821,7.821,0,0,0-.924.168,2.3,2.3,0,0,0-1.2.56,2.439,2.439,0,0,0-.588,1.2,6.653,6.653,0,0,0-.084,1.092c0,.392-.056.756-.056,1.148,0,.364.028.728.028,1.12,0,.364-.028.756-.028,1.12v1.148c0,.364.056.756.056,1.12s-.028.756-.028,1.12c0,.392.028.756.028,1.148v1.12c0,.364-.084.756-.084,1.12,0,.392.112.756.112,1.148,0,.364-.028.756-.028,1.12s.028.756.028,1.12c0,.392-.084.756-.084,1.148,0,.364-.028.756-.028,1.12,0,.392.112.756.112,1.12,0,.28-.084.5-.056.728a2.8,2.8,0,0,0,.42,1.148,2.426,2.426,0,0,0,.868.9A3.175,3.175,0,0,0,227.22.308ZM244.412-18.76l.392,1.008c.224.532.2.532.392,1.036s.14.532.364,1.036l.42,1.064c.14.364.308.7.476,1.036l.42,1.064c.168.364.252.728.392,1.092l.42,1.064c.14.336.364.672.5,1.008.14.364.224.756.364,1.092.112.308.28.616.392.924.14.308.224.644.364.952.112.308.308.588.448.924.112.308.168.644.308.98.112.308.252.616.364.924s.28.616.42.952a4.654,4.654,0,0,0,.532.98,3.677,3.677,0,0,0,.7.9,2.938,2.938,0,0,0,.784.392,2.815,2.815,0,0,0,.868.2.027.027,0,0,1,.028-.028,2.459,2.459,0,0,0,1.092-.308,2.167,2.167,0,0,0,.84-.756,7.1,7.1,0,0,0,.644-.952,9.873,9.873,0,0,0,.42-1.092c.168-.364.252-.728.42-1.092.14-.364.28-.728.448-1.092.112-.28.308-.56.42-.84s.2-.588.336-.9c.112-.28.2-.588.308-.9.168-.336.364-.7.5-1.036.14-.364.308-.728.476-1.092.14-.336.252-.728.392-1.064l.42-1.064c.2-.448.392-.868.56-1.316.14-.364.336-.728.476-1.092.168-.364.308-.728.476-1.092.14-.308.2-.672.336-.98l.42-.952a9.785,9.785,0,0,0,.42-.952c.112-.308.2-.672.308-.98a4.461,4.461,0,0,0,.28-.924,2.479,2.479,0,0,0-.084-.924,1.528,1.528,0,0,0-.56-.7,1.464,1.464,0,0,0-.84-.308,2.2,2.2,0,0,0-.924.112,3.08,3.08,0,0,0-.784.476,2.81,2.81,0,0,0-.532.616,4.777,4.777,0,0,0-.392.756c0,.056,0,.056-.028.084-.14.364-.308.728-.448,1.092s-.308.728-.448,1.092-.252.756-.392,1.12l-.336,1.064c-.14.336-.336.672-.448,1.008-.14.364-.308.728-.448,1.12-.14.364-.2.784-.336,1.148s-.336.728-.476,1.092c-.14.336-.308.672-.476,1.008a6.521,6.521,0,0,1-.56.952,1.718,1.718,0,0,1-1.288.784v.084c-.42,0-.784-.336-1.2-.812a6.15,6.15,0,0,1-.476-.7,5.117,5.117,0,0,1-.392-.784c-.14-.308-.28-.644-.392-.952-.14-.336-.224-.644-.364-.98-.112-.308-.252-.644-.364-.98-.112-.308-.252-.616-.392-.952-.112-.336-.252-.644-.364-.98-.112-.308-.308-.616-.42-.952l-.336-.98c-.112-.308-.252-.644-.364-.98-.112-.308-.224-.644-.364-.98-.112-.308-.224-.616-.336-.868a4.158,4.158,0,0,0-.588-.756,2.47,2.47,0,0,0-.756-.672,2.6,2.6,0,0,0-.952-.364,1.823,1.823,0,0,0-.868-.028,1.5,1.5,0,0,0-.728.476,1.654,1.654,0,0,0-.476.728,1.784,1.784,0,0,0-.056.868,5.285,5.285,0,0,0,.252.952A8.652,8.652,0,0,0,244.412-18.76ZM270.228.308c.308.028.588.028.9.028.028,0,.028.028.056.028.364,0,.7-.028,1.036-.028s.672.056,1.008.056c.392,0,.784-.028,1.176-.028h1.12c.56,0,.56-.028,1.12-.028s.56.056,1.12.056c.588,0,.588-.028,1.148-.028s.56.028,1.12.028h.056c.056,0,.112-.028.168-.028h.308l.812-.084a2.056,2.056,0,0,0,1.12-.5,1.782,1.782,0,0,0,.616-1.456,1.667,1.667,0,0,0-1.008-1.2,3.747,3.747,0,0,0-.728-.252c-.336-.056-.644-.14-.952-.168-.336-.028-.644-.056-.952-.056h-1.232c-.392,0-.812.084-1.2.084-.5,0-.98-.084-1.484-.084-.084,0-.2.056-.28.056a4.546,4.546,0,0,1-1.6-.252,2.92,2.92,0,0,1-.98-.616,2.3,2.3,0,0,1-.588-.98,3.423,3.423,0,0,1-.252-1.176c.028-.42,0-.812.056-1.12a2.843,2.843,0,0,1,.5-1.008,2.342,2.342,0,0,1,.84-.7,3.466,3.466,0,0,1,1.036-.336c.364-.056.7-.056,1.036-.084A6.49,6.49,0,0,1,276.36-9.6c.392,0,.784-.084,1.176-.084s.756.084,1.148.084c.168,0,.168-.028.336-.028a4.9,4.9,0,0,0,.9-.112,3.685,3.685,0,0,0,.84-.252,1.937,1.937,0,0,0,.7-.532,1.492,1.492,0,0,0,.336-.84,1.758,1.758,0,0,0-.336-.9,1.98,1.98,0,0,0-.756-.56,3.739,3.739,0,0,0-.924-.28c-.28-.028-.532-.112-.784-.112-.056,0-.056.084-.112.084-.308,0-.644-.056-.952-.056h-.98c-.336,0-.644-.028-.98-.028a8.842,8.842,0,0,1-1.232-.028,5.151,5.151,0,0,1-1.176-.252,2.441,2.441,0,0,1-.84-.476,2.8,2.8,0,0,1-.476-.784,3.023,3.023,0,0,1-.252-.9c0-.14.028-.28.028-.42,0-.084-.056-.2-.056-.28a2.937,2.937,0,0,1,.252-1.232,2.287,2.287,0,0,1,.84-.952,3.8,3.8,0,0,1,1.2-.364c.42-.056.784-.14,1.176-.168a8.27,8.27,0,0,1,1.176-.056h.924c.308,0,.588-.028.9-.028s.616.084.924.084.308-.112.644-.112a3.254,3.254,0,0,0,1.484-.252,1.8,1.8,0,0,0,.644-.56,1.819,1.819,0,0,0,.364-.784,1.58,1.58,0,0,0-.224-.9,1.9,1.9,0,0,0-.7-.588,3.185,3.185,0,0,0-.784-.364,4.273,4.273,0,0,0-.84-.084c-.28-.028-.56-.056-.84-.056-.364,0-.728-.056-1.092-.056s-.7.028-1.064.028-.728.028-1.092.028-.728-.056-1.064-.056c-.364,0-.728-.028-1.092-.028s-.728.028-1.092.028c-.336,0-.7.056-1.064.056h-.028a5.412,5.412,0,0,0-.952.028,7.821,7.821,0,0,0-.924.168,2.3,2.3,0,0,0-1.2.56,2.439,2.439,0,0,0-.588,1.2,6.653,6.653,0,0,0-.084,1.092c0,.392-.056.756-.056,1.148,0,.364.028.728.028,1.12,0,.364-.028.756-.028,1.12v1.148c0,.364.056.756.056,1.12s-.028.756-.028,1.12c0,.392.028.756.028,1.148v1.12c0,.364-.084.756-.084,1.12,0,.392.112.756.112,1.148,0,.364-.028.756-.028,1.12s.028.756.028,1.12c0,.392-.084.756-.084,1.148,0,.364-.028.756-.028,1.12,0,.392.112.756.112,1.12,0,.28-.084.5-.056.728a2.8,2.8,0,0,0,.42,1.148,2.426,2.426,0,0,0,.868.9A3.175,3.175,0,0,0,270.228.308Zm41.748-19.1a3.9,3.9,0,0,1,1.316-.5c.476-.084.98-.224,1.484-.364a1.434,1.434,0,0,0,.7-.392,1.171,1.171,0,0,0,.392-.728,1.057,1.057,0,0,0-.28-.868,1.887,1.887,0,0,0-.756-.5,4.472,4.472,0,0,0-.644-.224c-.42-.028-.84,0-1.26,0-.364,0-.7-.028-1.064-.028-.336,0-.7-.056-1.064-.056h-2.24c-.588.028-.588.056-1.176.056s-.588-.084-1.176-.084c-.616,0-.616.028-1.2.028s-.588.084-1.176.084a4.351,4.351,0,0,0-.84.028,4.391,4.391,0,0,0-.812.224,1.281,1.281,0,0,0-.924,1.12,1.17,1.17,0,0,0,.224.784,1.737,1.737,0,0,0,.616.56,3.351,3.351,0,0,0,.672.168c.364.056.756.14,1.2.2a2.572,2.572,0,0,1,.812.308,2.565,2.565,0,0,1,.728.448,3.375,3.375,0,0,1,.56.728,2.674,2.674,0,0,1,.336.868,4.787,4.787,0,0,1,0,.9c0,.392.084.756.084,1.148,0,.364-.084.756-.084,1.148,0,.364.056.728.084,1.12,0,.364-.056.756-.056,1.148v1.12c0,.392.056.756.056,1.148v1.148c0,.364-.056.756-.056,1.12a5.675,5.675,0,0,1-.168,1.2,6.078,6.078,0,0,1-.308,1.176,3.016,3.016,0,0,1-.56.924,2.682,2.682,0,0,1-.868.728,3.314,3.314,0,0,1-1.064.28,2.481,2.481,0,0,1-1.092-.168c-.392-.112-.812-.2-1.176-.336a6.207,6.207,0,0,0-1.2-.42,1.968,1.968,0,0,0-1.008.028,1.8,1.8,0,0,0-.784.616,1.516,1.516,0,0,0-.252,1.036,2.261,2.261,0,0,0,.42.98,5.415,5.415,0,0,0,.476.56,5.038,5.038,0,0,0,.98.672,5.543,5.543,0,0,0,1.092.42,11.177,11.177,0,0,0,1.316.308,10.769,10.769,0,0,0,1.344.028,6.843,6.843,0,0,0,1.316-.028,9.255,9.255,0,0,0,1.26-.336A9.517,9.517,0,0,0,307.1.392a8.335,8.335,0,0,0,.84-.5,4.309,4.309,0,0,0,.728-.7,5.42,5.42,0,0,0,.588-.756,8.784,8.784,0,0,0,.5-.868,10.012,10.012,0,0,0,.28-.98,5.587,5.587,0,0,0,.252-.98c.056-.308.084-.644.112-.98s.056-.672.056-1.008c.028-.364.028-.7.028-1.064s.056-.7.056-1.064c0-.336-.056-.7-.056-1.064,0-.336.056-.7.056-1.064v-1.036c0-.364-.084-.7-.084-1.064s.084-.7.084-1.064-.056-.7-.084-1.064a6.925,6.925,0,0,1,.14-1.064c.028-.364.084-.7.14-1.064a2.951,2.951,0,0,1,.364-1.092A2.4,2.4,0,0,1,311.976-18.788Zm32.7,7.14c0-.224-.056-.448-.056-.644-.028-.392-.028-.756-.084-1.12s-.084-.728-.168-1.092-.14-.728-.252-1.064a6.685,6.685,0,0,0-.42-1.036c-.14-.336-.308-.672-.476-1.008a9.193,9.193,0,0,0-.56-.868,8.991,8.991,0,0,0-.588-.84,9.284,9.284,0,0,0-.728-.756c-.252-.224-.476-.476-.756-.7a8.716,8.716,0,0,0-.784-.644,9.725,9.725,0,0,0-.924-.5,9.269,9.269,0,0,0-.924-.42c-.336-.14-.616-.336-.952-.448-.308-.112-.672-.168-1.008-.252s-.7-.14-1.036-.2c-.364-.056-.728-.112-1.092-.14-.336-.056-.7-.168-1.064-.2-.364,0-.728.028-1.064.028-.364.028-.728.084-1.092.14a6.812,6.812,0,0,0-1.064.084c-.364.056-.728.112-1.064.2-.364.084-.7.224-1.036.336a10.764,10.764,0,0,0-1.008.392,10.224,10.224,0,0,0-.952.5c-.308.2-.616.42-.9.616-.308.224-.644.42-.924.644a11.111,11.111,0,0,0-.812.812,7.476,7.476,0,0,0-.672.9,7.458,7.458,0,0,0-.728.868,6.5,6.5,0,0,0-.448,1.008,7,7,0,0,0-.42,1.064,6.72,6.72,0,0,0-.336,1.064c-.084.364-.252.7-.308,1.092-.056.308-.084.616-.112.952-.028.308-.028.644-.028.98-.028.308-.028.616-.028.952,0,.308.056.644.084.98.028.364.056.728.112,1.064.056.364.168.728.252,1.064.084.364.2.728.308,1.064.14.336.252.672.392,1.008a10.415,10.415,0,0,0,.532.952,7.571,7.571,0,0,0,.616.924,7,7,0,0,0,.756.812,10.432,10.432,0,0,0,.728.84,7.333,7.333,0,0,0,.9.644l.924.588c.336.168.616.42.952.56s.7.252,1.036.364.7.2,1.064.28a9.472,9.472,0,0,0,.952.224c.308.056.616.084.952.112l.952.084c.308.028.616.028.952.028a13.647,13.647,0,0,0,1.512-.056c.392-.028.756-.056,1.12-.112.392-.084.756-.2,1.092-.28.392-.084.756-.14,1.12-.252s.728-.252,1.064-.392c.336-.168.672-.336,1.008-.532a10.676,10.676,0,0,0,.9-.672,10.974,10.974,0,0,0,.9-.7,7.933,7.933,0,0,0,.672-.7,8.052,8.052,0,0,0,.616-.756,7.7,7.7,0,0,0,.532-.784,4.084,4.084,0,0,0,.476-.84c.168-.308.364-.588.5-.9.112-.308.2-.644.308-.952.084-.336.224-.644.28-.98.084-.336.168-.672.224-1.008.028-.336.056-.672.056-1.008a6.406,6.406,0,0,0,.028-1.036Zm-4.76,3.276c-.14.364-.252.756-.42,1.092a8.765,8.765,0,0,1-.616,1.008,7.538,7.538,0,0,1-.756.9,7.638,7.638,0,0,1-.868.756c-.308.224-.644.448-.98.644a7.251,7.251,0,0,1-1.064.476,7.4,7.4,0,0,1-1.12.336,7.653,7.653,0,0,1-1.12.14,8.077,8.077,0,0,1-1.148.056,8.108,8.108,0,0,1-1.148-.168,7.97,7.97,0,0,1-1.092-.308,6.9,6.9,0,0,1-1.064-.392,5.354,5.354,0,0,1-.9-.448,5.45,5.45,0,0,1-.728-.672,4.15,4.15,0,0,1-.728-.672,3.47,3.47,0,0,1-.616-.784,6.8,6.8,0,0,1-.56-.98,7.137,7.137,0,0,1-.364-1.092,7.776,7.776,0,0,1-.336-1.064,7.206,7.206,0,0,1-.224-1.12c-.028-.364.028-.756.028-1.12.028-.392.084-.756.14-1.12.084-.364.14-.756.252-1.12a8.27,8.27,0,0,1,.448-1.036c.14-.336.308-.672.476-1.008a4.947,4.947,0,0,1,.644-.98,5.378,5.378,0,0,1,.812-.784,11.289,11.289,0,0,1,.9-.728c.336-.2.644-.42,1.008-.588a10.9,10.9,0,0,1,1.12-.28c.336-.084.672-.252,1.064-.336a7.227,7.227,0,0,1,1.12-.112h.14v.084c.364,0,.7.028,1.036.056.364.056.7.084,1.036.168a6.593,6.593,0,0,1,.98.308,5.669,5.669,0,0,1,.952.392,9.2,9.2,0,0,1,.868.56,6.083,6.083,0,0,1,.812.672,8.279,8.279,0,0,1,.672.728,8.113,8.113,0,0,1,.532.812c.168.28.336.588.476.868l.336.952a8.937,8.937,0,0,1,.308.924c.084.336.056.672.112,1.008.028.336.14.672.14,1.008a6.087,6.087,0,0,1-.056,1.008,6.3,6.3,0,0,1-.252.98C340.088-9.016,340.032-8.708,339.92-8.372Zm26.012.616a5.224,5.224,0,0,0-.448-.784,4.877,4.877,0,0,0-.532-.728c-.084-.084-.112-.056-.168-.112-.364-.364-.7-.812-1.064-1.2a2.109,2.109,0,0,1-.532-1.092,2.626,2.626,0,0,1,.112-1.2,1.785,1.785,0,0,1,.336-.644c.056-.056,0-.112.056-.168a11.135,11.135,0,0,0,.672-.924,7.233,7.233,0,0,0,.532-1.036,7.6,7.6,0,0,0,.252-1.148,5.245,5.245,0,0,0,0-1.148,4.031,4.031,0,0,0-.364-1.2,3.578,3.578,0,0,0-.588-1.064,5.956,5.956,0,0,0-.84-.84,4.947,4.947,0,0,0-.98-.644,6.069,6.069,0,0,0-1.064-.448,7.636,7.636,0,0,0-1.148-.28c-.308-.056-.616-.084-.924-.112-.336-.028-.644-.112-.952-.14a5.468,5.468,0,0,0-.952.084c-.392,0-.84-.028-1.288-.056-.392-.028-.812-.028-1.288-.084-.336-.028-.672-.084-.98-.112h-1.008c-.336,0-.672.028-.98.056-.336.028-.672.112-.98.168a3.853,3.853,0,0,0-1.092.336,1.782,1.782,0,0,0-.728.84,2.381,2.381,0,0,0-.28,1.064,9.461,9.461,0,0,0,0,1.26c0,.084-.028.084-.028.168,0,.336-.056.7-.056,1.036,0,.364.056.7.056,1.064s-.028.7-.028,1.064c0,.336.028.7.028,1.036,0,.364-.056.7-.056,1.064,0,.336.084.7.084,1.036,0,.364-.112.728-.112,1.064,0,.364.112.7.112,1.064,0,.336-.028.7-.028,1.036,0,.364-.028.7-.028,1.064,0,.336-.028.7-.028,1.036,0,.364-.028.728-.028,1.064,0,.364.084.364.084.756s-.028.392-.028.784c0,.364-.028.7-.028,1.064s.028.7.028,1.064a5.115,5.115,0,0,0,.084.98,2.789,2.789,0,0,0,.392.924,1.815,1.815,0,0,0,.728.644,2.185,2.185,0,0,0,.9.392,5.282,5.282,0,0,0,.98.056c.336.028.644.028.98.028h2.436s-.028-.028,0-.028a1.134,1.134,0,0,1,.308,0c.224,0,.476.028.7.028.392,0,.812-.028,1.176-.056.42,0,.812,0,1.2-.028.392-.056.812-.084,1.176-.14a6.544,6.544,0,0,0,1.092-.112,5.916,5.916,0,0,0,1.064-.336,5.439,5.439,0,0,0,1.008-.42A7.13,7.13,0,0,0,363.8-1.2a4.916,4.916,0,0,0,.84-.672,4.865,4.865,0,0,0,.7-.812,5.808,5.808,0,0,0,.532-.9,4.419,4.419,0,0,0,.308-1.036,4.294,4.294,0,0,0,.056-1.036,6.925,6.925,0,0,0-.14-1.064A6.652,6.652,0,0,0,365.932-7.756Zm-6.636-6.02a4.445,4.445,0,0,1-.952.5,6.5,6.5,0,0,1-1.064.2,6.868,6.868,0,0,1-1.092.112v-.056a4.636,4.636,0,0,1-1.428-.2,2.627,2.627,0,0,1-.84-.42,2.453,2.453,0,0,1-.672-.644,2.44,2.44,0,0,1-.392-.868,4.319,4.319,0,0,1-.084-1.008,6.171,6.171,0,0,1,.112-1.008,4.46,4.46,0,0,1,.448-1.12,2.672,2.672,0,0,1,.9-.784,3.47,3.47,0,0,1,1.148-.392c.308-.028.616-.056.924-.056a6.553,6.553,0,0,1,1.064.084,5.862,5.862,0,0,1,1.008.224,4.586,4.586,0,0,1,.924.392,2.8,2.8,0,0,1,.756.644,4.3,4.3,0,0,1,.588.812,2.6,2.6,0,0,1,.168,1.036,2.182,2.182,0,0,1-.084,1.036,3.141,3.141,0,0,1-.56.924A2.79,2.79,0,0,1,359.3-13.776Zm-6.412,6.468a3.122,3.122,0,0,1,.448-1.176,2.609,2.609,0,0,1,.952-.784,2.642,2.642,0,0,1,1.176-.364,2.562,2.562,0,0,1,.448.028h.42c.14,0,.28.028.42.028.028,0,.028-.028.056-.028a6.956,6.956,0,0,1,1.064-.056,7.1,7.1,0,0,1,1.064.2,7.092,7.092,0,0,1,1.008.336,3.1,3.1,0,0,1,.9.5,3.057,3.057,0,0,1,.672.812,2.542,2.542,0,0,1,.42.98,2.878,2.878,0,0,1,0,.98,3.451,3.451,0,0,1-.308.952,3.311,3.311,0,0,1-.616.784,7.167,7.167,0,0,1-.728.56,2.83,2.83,0,0,1-.84.364,7.818,7.818,0,0,1-1.092.28,7.829,7.829,0,0,1-1.12.084,7.829,7.829,0,0,1-1.12.084,7.194,7.194,0,0,1-1.12-.2,4.205,4.205,0,0,1-1.008-.392,2.02,2.02,0,0,1-.728-.812,2.711,2.711,0,0,1-.392-1.008c-.056-.392-.084-.756-.112-1.092A4.252,4.252,0,0,1,352.884-7.308ZM385.14-4.7a4.292,4.292,0,0,0,.112-1.176c.028-.42.056-.812.056-1.176a8.309,8.309,0,0,0-.2-1.2,5,5,0,0,0-.364-1.148,5.09,5.09,0,0,0-.756-.98,4.13,4.13,0,0,0-.9-.812,7.185,7.185,0,0,0-1.064-.644,6.232,6.232,0,0,0-1.12-.448c-.42-.14-.812-.364-1.232-.5-.476-.168-.952-.28-1.428-.448-.28-.084-.588-.224-.9-.336a7.489,7.489,0,0,1-.784-.5,4.6,4.6,0,0,1-.98-.672,2.7,2.7,0,0,1-.7-.924,2.719,2.719,0,0,1-.2-1.036,3.046,3.046,0,0,1,.168-1.008,3.542,3.542,0,0,1,.56-.868,3.017,3.017,0,0,1,.84-.588,4.219,4.219,0,0,1,.924-.364,6.074,6.074,0,0,1,.98-.2c.336,0,.672-.056,1.008-.028.14.028.112.084.252.112.364.056.728.14,1.12.2.42.028.9-.056,1.428-.056a1.786,1.786,0,0,0,.868-.168,2.016,2.016,0,0,0,.644-.644,1.388,1.388,0,0,0,.308-.952,1.284,1.284,0,0,0-.42-.924,3.665,3.665,0,0,0-.672-.476,4.862,4.862,0,0,0-.728-.42c-.364-.084-.756-.112-1.148-.168a7.731,7.731,0,0,0-1.12-.168c-.392-.028-.784-.112-1.148-.112a7.569,7.569,0,0,0-1.148.14c-.392.056-.784.056-1.148.14s-.728.28-1.092.392a10.432,10.432,0,0,0-1.064.42,8.6,8.6,0,0,0-.868.476,5.812,5.812,0,0,0-.812.532,4.346,4.346,0,0,0-.728.7,5.915,5.915,0,0,0-.588.868,9.913,9.913,0,0,0-.532.924,5.63,5.63,0,0,0-.224,1.036,6.151,6.151,0,0,0-.168,1.036c-.028.336-.028.672-.028,1.036a5.161,5.161,0,0,0,.2,1.176,4.728,4.728,0,0,0,.532,1.064,4.635,4.635,0,0,0,.7.952,5.523,5.523,0,0,0,.952.84,9.859,9.859,0,0,0,1.064.672,11.428,11.428,0,0,0,1.176.476c.308.14.588.308.9.42s.644.2.952.308c.252.084.5.224.756.308.252.112.532.2.784.28a5.77,5.77,0,0,1,1.176.588,4.84,4.84,0,0,1,.98.868,2.191,2.191,0,0,1,.5.98,3.083,3.083,0,0,1,.14,1.12,2.612,2.612,0,0,1-.42,1.036,4.656,4.656,0,0,1-.812.84,3.852,3.852,0,0,1-1.008.644,6.5,6.5,0,0,1-1.064.14,6.21,6.21,0,0,1-1.036.084,7.674,7.674,0,0,1-1.036-.224,6.3,6.3,0,0,1-.98-.252l-.448-.168a5.716,5.716,0,0,0-.952-.084,3.581,3.581,0,0,0-.952.028,2.113,2.113,0,0,0-.952.42,2.228,2.228,0,0,0-.56.9,1.533,1.533,0,0,0,.14.952,2.1,2.1,0,0,0,.56.728,3.846,3.846,0,0,0,.56.364c.252.14.5.28.756.392a4.719,4.719,0,0,0,.784.336c.308.084.644.084.98.14s.644.14.98.168.672-.056,1.008-.056c.252,0,.532.028.812.028.112,0,.112-.056.2-.056.14,0,.28.084.448.084.364-.028.728-.056,1.092-.112a6.933,6.933,0,0,0,1.092-.28,6.628,6.628,0,0,0,1.008-.476c.308-.168.672-.252.952-.42a9.4,9.4,0,0,0,.812-.672,6.168,6.168,0,0,0,.784-.672,4.608,4.608,0,0,0,.56-.868,5.55,5.55,0,0,0,.532-.868A6.766,6.766,0,0,0,385.14-4.7ZM389.228-28Zm5.25,0h1.75v3.5h-1.75v1.75h7v5.25h1.75V-21h1.75v-7h1.75v5.25h7V-3.5h-1.75v1.75h-1.75V0h-1.75V-1.75h1.75V-3.5h1.75V-21h-7v3.5h-1.75v1.75h-1.75v14h-1.75V-3.5h-7v1.75h-1.75v-21h1.75V-24.5h1.75Zm-1.75,7v7h7v-7Zm12.25,5.25h1.75V-14h-1.75Zm1.75,1.75h1.75v3.5h-1.75Zm-14,1.75v7h7v-7Zm14,8.75h1.75v1.75h-1.75Zm13.3-24.5Zm7,0h1.75v3.5h8.75V-28h1.75v3.5h7v1.75h-7V-21h3.5v5.25h-19.25V-21h3.5v-1.75h-7V-24.5h7Zm1.75,5.25V-21h8.75v-1.75Zm-3.5,3.5v1.75h3.5v-1.75Zm5.25,0v1.75h5.25v-1.75Zm7,0v1.75h3.5v-1.75ZM421.778-14h24.5v3.5h-1.75v1.75h-1.75V-10.5h1.75v-1.75h-12.25v1.75h8.75V-7h-1.75v1.75h-3.5V-3.5h-3.5v1.75h-3.5V0h-7V-1.75h7V-3.5h3.5V-5.25h3.5V-7h3.5V-8.75h-8.75V-7h-3.5v1.75h-3.5V-7h3.5V-8.75h1.75V-10.5h1.75v-1.75h-7v1.75h-1.75v1.75h-1.75V-10.5h1.75Zm8.75,7h1.75v1.75h-1.75Zm20.3-21Zm7,0h1.75v5.25h3.5V-21h-3.5v1.75h1.75v1.75h-1.75v8.75h-1.75V-17.5h-1.75v1.75h-1.75V-14h-1.75v-1.75h1.75V-17.5h1.75v-1.75h1.75V-21h-5.25v-1.75h5.25Zm7,1.75h8.75V-10.5h-8.75Zm1.75,1.75V-21h5.25v-3.5Zm0,5.25v1.75h5.25v-1.75Zm-5.25,1.75h1.75v1.75h-1.75Zm5.25,1.75v3.5h5.25v-3.5Zm-5.25,5.25h1.75v1.75h-1.75Zm1.75,1.75h1.75v3.5h-1.75ZM454.328-7h1.75v3.5h-1.75v1.75h-1.75V-3.5h1.75Zm3.5,0h1.75v5.25h-1.75Zm14,0h1.75v1.75h-1.75Zm-3.5,1.75h1.75V0h-10.5V-1.75h8.75Zm5.25,0h1.75v3.5h-1.75ZM483.747,0V-21.219h5.031a8.9,8.9,0,0,1,5.161,1.21,7.244,7.244,0,0,1,2.536,3.657,17.751,17.751,0,0,1,.848,5.8,15.892,15.892,0,0,1-.9,5.571,8.212,8.212,0,0,1-2.536,3.691A8.238,8.238,0,0,1,488.778,0Zm2.762-2.338h1.846a6.276,6.276,0,0,0,4-1A5.473,5.473,0,0,0,494.063-6.1a18.334,18.334,0,0,0,.513-4.888,14.226,14.226,0,0,0-.6-4.689,5.535,5.535,0,0,0-1.723-2.522,6.006,6.006,0,0,0-3.678-.882h-2.064ZM505.5,0h-2.543V-21.219h2.488L512.948-7.1l.82,2.105h.068L513.768-7.1V-21.219h2.543V0h-2.543l-7.3-13.891-1.025-2.229.055,2.2Zm18.441,0h-2.652l6.535-21.219h2.8L537.2,0h-2.912l-1.449-4.662h-7.465Zm2.092-6.781h6.193l-2.557-8.053-.6-2.133-.533,2.133Z" transform="translate(551 101)" fill="#fff"/>
  </g>
</svg>
