<svg xmlns="http://www.w3.org/2000/svg" width="680" height="72" viewBox="0 0 680 72">
  <g id="g2-a" transform="translate(-3646 -3547)">
    <g id="Path_54246" data-name="Path 54246" transform="translate(3646 3547)" fill="#ffda2d">
      <path d="M 672.8868408203125 70 L 7.113303184509277 70 L 7.113303184509277 68.23336029052734 L 5.113303184509277 68.23336029052734 L 2.000030517578125 68.23336029052734 L 2.000030517578125 3.766818284988403 L 5.113303184509277 3.766818284988403 L 7.113303184509277 3.766818284988403 L 7.113303184509277 2 L 672.8868408203125 2 L 672.8868408203125 3.766818284988403 L 674.8868408203125 3.766818284988403 L 678 3.766818284988403 L 678 68.23336029052734 L 674.8868408203125 68.23336029052734 L 672.8868408203125 68.23336029052734 L 672.8868408203125 70 Z" stroke="none"/>
      <path d="M 670.8868408203125 68 L 670.8868408203125 66.23336029052734 L 674.8868408203125 66.23336029052734 L 676 66.23336029052734 L 676 5.766818046569824 L 674.8868408203125 5.766818046569824 L 670.8868408203125 5.766818046569824 L 670.8868408203125 4 L 9.113303184509277 4 L 9.113303184509277 5.766818046569824 L 5.113303184509277 5.766818046569824 L 4.000030517578125 5.766818046569824 L 4.000030517578125 66.23336029052734 L 5.113303184509277 66.23336029052734 L 9.113303184509277 66.23336029052734 L 9.113303184509277 68 L 670.8868408203125 68 M 674.8868408203125 72 L 5.113303184509277 72 L 5.113303184509277 70.23336029052734 L 3.0517578125e-05 70.23336029052734 L 3.0517578125e-05 1.766818165779114 L 5.113303184509277 1.766818165779114 L 5.113303184509277 0 L 674.8868408203125 0 L 674.8868408203125 1.766818165779114 L 680 1.766818165779114 L 680 70.23336029052734 L 674.8868408203125 70.23336029052734 L 674.8868408203125 71.99945831298828 L 674.8868408203125 72 Z" stroke="none" fill="#fff"/>
    </g>
    <path id="Path_54247" data-name="Path 54247" d="M2,0H.29l4.2-13.641h1.8L10.521,0H8.648L7.717-3h-4.8ZM3.34-4.359H7.321L5.678-9.536l-.387-1.371L4.948-9.536ZM18,.413a1.379,1.379,0,0,1-1.011-.422,1.379,1.379,0,0,1-.422-1.011,1.368,1.368,0,0,1,.426-1.015A1.391,1.391,0,0,1,18-2.452,1.391,1.391,0,0,1,19-2.035a1.368,1.368,0,0,1,.426,1.015,1.379,1.379,0,0,1-.422,1.011A1.379,1.379,0,0,1,18,.413ZM28-18Zm2.25,0h1.125v1.125H30.25Zm4.5,0h1.125v3.375H41.5V-13.5H40.375v1.125H39.25v1.125h3.375V-9H41.5v1.125h2.25V-2.25H42.625v1.125H41.5V0H40.375V-1.125H41.5V-2.25h1.125v-4.5h-2.25v1.125H39.25V-6.75H31.375V-4.5H30.25v1.125H29.125V-2.25H28V-3.375h1.125V-4.5H30.25V-6.75h1.125V-9H32.5v-2.25h1.125V-13.5h-4.5v-1.125h2.25v-2.25H32.5v2.25h2.25Zm0,4.5v2.25h3.375v-1.125H39.25V-13.5Zm-1.125,3.375V-9H32.5v1.125h7.875V-9H41.5v-1.125ZM32.5-5.625h1.125v2.25H32.5V-2.25H31.375V-3.375H32.5Zm2.25,0h1.125V-4.5H34.75Zm2.25,0h1.125V-4.5H37v1.125H35.875V-4.5H37Zm3.375,0H41.5v2.25H40.375ZM38.125-4.5H39.25v1.125H38.125ZM39.25-2.25h1.125v1.125H39.25ZM47.8-18Zm2.25,1.125H62.425v2.25H61.3V-13.5H60.175v1.125H59.05v1.125H57.925v1.125H56.8v9H55.675V0H54.55V-1.125h1.125V-11.25h2.25v-1.125H59.05V-13.5h1.125v-1.125H61.3V-15.75H50.05ZM53.425-2.25H54.55v1.125H53.425ZM67.6-18Zm4.5,0h1.125v2.25H78.85V-18h1.125v2.25h4.5v1.125h-4.5V-13.5h2.25v3.375H69.85V-13.5H72.1v-1.125H67.6V-15.75h4.5Zm1.125,3.375V-13.5H78.85v-1.125Zm-2.25,2.25v1.125h2.25v-1.125Zm3.375,0v1.125h3.375v-1.125Zm4.5,0v1.125H81.1v-1.125ZM68.725-9h15.75v2.25H83.35v1.125H82.225V-6.75H83.35V-7.875H75.475V-6.75H81.1V-4.5H79.975v1.125h-2.25V-2.25h-2.25v1.125h-2.25V0h-4.5V-1.125h4.5V-2.25h2.25V-3.375h2.25V-4.5h2.25V-5.625H74.35V-4.5H72.1v1.125H69.85V-4.5H72.1V-5.625h1.125V-6.75H74.35V-7.875h-4.5V-6.75H68.725v1.125H67.6V-6.75h1.125ZM74.35-4.5h1.125v1.125H74.35ZM87.4-18Zm4.5,0h1.125v3.375h2.25V-13.5h-2.25v1.125H94.15v1.125H93.025v5.625H91.9V-11.25H90.775v1.125H89.65V-9H88.525v-1.125H89.65V-11.25h1.125v-1.125H91.9V-13.5H88.525v-1.125H91.9Zm4.5,1.125h5.625V-6.75H96.4Zm1.125,1.125v2.25H100.9v-2.25Zm0,3.375v1.125H100.9v-1.125ZM94.15-11.25h1.125v1.125H94.15Zm3.375,1.125v2.25H100.9v-2.25ZM94.15-6.75h1.125v1.125H94.15Zm1.125,1.125H96.4v2.25H95.275ZM89.65-4.5h1.125v2.25H89.65v1.125H88.525V-2.25H89.65Zm2.25,0h1.125v3.375H91.9Zm9,0h1.125v1.125H100.9ZM98.65-3.375h1.125V0h-6.75V-1.125H98.65Zm3.375,0h1.125v2.25h-1.125ZM107.2-18Zm5.625,0h1.125v1.125h1.125v1.125h-2.25v3.375H116.2V-18h1.125v5.625h6.75v1.125h-6.75v4.5H116.2v-4.5h-3.375v3.375h1.125V-9h1.125v1.125H113.95V-6.75h-1.125v5.625H111.7V0h-1.125V-1.125H111.7v-4.5h-1.125V-4.5h-2.25V-5.625h2.25V-6.75H111.7v-4.5h-4.5v-1.125h4.5v-2.25h-3.375V-15.75H111.7v-1.125h1.125Zm6.75,1.125H120.7v1.125h-1.125ZM120.7-15.75h1.125v2.25H120.7Zm0,5.625h1.125v2.25H120.7V-6.75h-1.125v1.125H118.45V-4.5h-1.125v1.125H116.2V-2.25h-1.125v1.125H113.95V-2.25h1.125V-3.375H116.2V-4.5h1.125V-6.75h2.25V-7.875H120.7ZM118.45-4.5h1.125v1.125H118.45Zm3.375,0h1.125V0h-1.125V-1.125H120.7V-2.25h1.125Zm-2.25,1.125H120.7V-2.25h-1.125ZM109.45-2.25h1.125v1.125H109.45ZM127-18Zm1.125,1.125h15.75v1.125H140.5V-1.125h-1.125V0H138.25V-1.125h1.125V-15.75h-11.25ZM131.5-13.5h5.625v9H136V-5.625h-3.375V-4.5H131.5Zm1.125,1.125V-6.75H136v-5.625Zm4.5,10.125h1.125v1.125h-1.125ZM146.8-18Zm5.625,1.125h1.125v1.125h-1.125Zm7.875,0h1.125V-9H160.3v3.375h-1.125V-4.5H160.3v1.125h-2.25V-2.25h-1.125v1.125h-2.25V0h-2.25V-1.125h2.25V-2.25h2.25V-3.375h1.125v-2.25h1.125V-9H160.3ZM149.05-15.75h1.125V-3.375H151.3V-4.5h1.125V-5.625h1.125V-6.75h1.125V-7.875H155.8V-6.75h-1.125v1.125H153.55V-4.5h-1.125v1.125H151.3V-2.25h-1.125v1.125H149.05Zm4.5,0h1.125v1.125H153.55Zm1.125,1.125H155.8v2.25h-1.125ZM160.3-3.375h1.125V-2.25H160.3Zm1.125,1.125h1.125V0h-1.125ZM166.6-18Zm4.5,0h1.125v3.375H171.1V0h-1.125V-11.25H168.85v1.125h-1.125V-9H166.6v-1.125h1.125V-11.25h1.125v-1.125h1.125v-2.25H171.1Zm7.875,0H180.1v5.625h3.375v1.125H180.1V-1.125h-1.125V0H177.85V-1.125h1.125V-11.25h-6.75v-1.125h6.75Zm-4.5,9H175.6v1.125h-1.125ZM175.6-7.875h1.125v2.25H175.6Zm1.125,5.625h1.125v1.125h-1.125ZM186.4-18Zm7.875,0H195.4v6.75h3.375v-4.5H199.9V-9h-1.125v-1.125H195.4V-2.25h4.5v-4.5h1.125V0H199.9V-1.125H188.65V-6.75h1.125v4.5h4.5v-7.875h-4.5V-15.75H190.9v4.5h3.375ZM206.2-18Zm5.625,0h1.125v1.125h1.125v1.125h-2.25v3.375H215.2V-18h1.125v5.625h6.75v1.125h-6.75v4.5H215.2v-4.5h-3.375v3.375h1.125V-9h1.125v1.125H212.95V-6.75h-1.125v5.625H210.7V0h-1.125V-1.125H210.7v-4.5h-1.125V-4.5h-2.25V-5.625h2.25V-6.75H210.7v-4.5h-4.5v-1.125h4.5v-2.25h-3.375V-15.75H210.7v-1.125h1.125Zm6.75,1.125H219.7v1.125h-1.125ZM219.7-15.75h1.125v2.25H219.7Zm0,5.625h1.125v2.25H219.7V-6.75h-1.125v1.125H217.45V-4.5h-1.125v1.125H215.2V-2.25h-1.125v1.125H212.95V-2.25h1.125V-3.375H215.2V-4.5h1.125V-6.75h2.25V-7.875H219.7ZM217.45-4.5h1.125v1.125H217.45Zm3.375,0h1.125V0h-1.125V-1.125H219.7V-2.25h1.125Zm-2.25,1.125H219.7V-2.25h-1.125ZM208.45-2.25h1.125v1.125H208.45ZM226-18Zm3.375,0H230.5v2.25h-1.125v1.125h4.5v3.375H235V-13.5h1.125V-18h1.125v3.375h4.5V-2.25h-1.125v1.125H239.5V0h-1.125V-1.125H239.5V-2.25h1.125V-13.5h-4.5v2.25H235v1.125h-1.125v9H232.75V-2.25h-4.5v1.125h-1.125v-13.5h1.125V-15.75h1.125Zm-1.125,4.5V-9h4.5v-4.5Zm7.875,3.375h1.125V-9h-1.125ZM237.25-9h1.125v2.25H237.25Zm-9,1.125v4.5h4.5v-4.5Zm9,5.625h1.125v1.125H237.25ZM245.8-18Zm0,7.875h16.875V-9H245.8ZM265.6-18Zm3.375,0H270.1v5.625h3.375v1.125H270.1v5.625h1.125V-6.75h1.125V-7.875h1.125V-6.75H272.35v1.125h-1.125V-4.5H270.1v1.125h-1.125v-6.75H265.6V-11.25h3.375Zm4.5,2.25h7.875v13.5h-1.125v1.125H279.1V0h-1.125V-1.125H279.1V-2.25h1.125V-14.625H276.85v9h-1.125v2.25H274.6V-2.25h-1.125v1.125H272.35V0H270.1V-1.125h2.25V-2.25h1.125V-3.375H274.6v-2.25h1.125v-9h-2.25Zm3.375,13.5h1.125v1.125H276.85Z" transform="translate(3686 3590)" fill="#15172a"/>
  </g>
</svg>
