<svg xmlns="http://www.w3.org/2000/svg" width="728.416" height="74.749" viewBox="0 0 728.416 74.749">
  <g id="g2-b1" transform="translate(-4412 -3640)">
    <g id="Path_54251" data-name="Path 54251" transform="translate(4412 3641)" fill="#15172a">
      <path d="M 672.8868408203125 70 L 7.113303184509277 70 L 7.113303184509277 68.23336029052734 L 5.113303184509277 68.23336029052734 L 2.000030517578125 68.23336029052734 L 2.000030517578125 3.766818284988403 L 5.113303184509277 3.766818284988403 L 7.113303184509277 3.766818284988403 L 7.113303184509277 2 L 672.8868408203125 2 L 672.8868408203125 3.766818284988403 L 674.8868408203125 3.766818284988403 L 678 3.766818284988403 L 678 68.23336029052734 L 674.8868408203125 68.23336029052734 L 672.8868408203125 68.23336029052734 L 672.8868408203125 70 Z" stroke="none"/>
      <path d="M 670.8868408203125 68 L 670.8868408203125 66.23336029052734 L 674.8868408203125 66.23336029052734 L 676 66.23336029052734 L 676 5.766818046569824 L 674.8868408203125 5.766818046569824 L 670.8868408203125 5.766818046569824 L 670.8868408203125 4 L 9.113303184509277 4 L 9.113303184509277 5.766818046569824 L 5.113303184509277 5.766818046569824 L 4.000030517578125 5.766818046569824 L 4.000030517578125 66.23336029052734 L 5.113303184509277 66.23336029052734 L 9.113303184509277 66.23336029052734 L 9.113303184509277 68 L 670.8868408203125 68 M 674.8868408203125 72 L 5.113303184509277 72 L 5.113303184509277 70.23336029052734 L 3.0517578125e-05 70.23336029052734 L 3.0517578125e-05 1.766818165779114 L 5.113303184509277 1.766818165779114 L 5.113303184509277 0 L 674.8868408203125 0 L 674.8868408203125 1.766818165779114 L 680 1.766818165779114 L 680 70.23336029052734 L 674.8868408203125 70.23336029052734 L 674.8868408203125 71.99945831298828 L 674.8868408203125 72 Z" stroke="none" fill="#ffda2d"/>
    </g>
    <path id="Path_54255" data-name="Path 54255" d="M1.512,0V-13.641H4.175a9.185,9.185,0,0,1,3.212.365A2.553,2.553,0,0,1,8.6-12.2a3.234,3.234,0,0,1,.4,1.626,3.932,3.932,0,0,1-.237,1.367,3.724,3.724,0,0,1-.7,1.178A4.779,4.779,0,0,1,6.715-7.022a4.355,4.355,0,0,1,2.2,1.6,3.635,3.635,0,0,1,.576,1.9A3.5,3.5,0,0,1,9-1.767,3.291,3.291,0,0,1,7.638-.457,6.438,6.438,0,0,1,4.825,0ZM3.287-7.5H5.15a4.143,4.143,0,0,0,1.323-.8A2.773,2.773,0,0,0,7.1-9.224,3,3,0,0,0,7.3-10.354a1.773,1.773,0,0,0-.567-1.441,3.633,3.633,0,0,0-2.21-.475H3.287Zm0,6.135H4.966a2.857,2.857,0,0,0,2.079-.664,2.161,2.161,0,0,0,.672-1.6,2.29,2.29,0,0,0-.369-1.261A2.492,2.492,0,0,0,6.205-5.8a6.444,6.444,0,0,0-2.426-.338H3.287ZM18,.413a1.379,1.379,0,0,1-1.011-.422,1.379,1.379,0,0,1-.422-1.011,1.368,1.368,0,0,1,.426-1.015A1.391,1.391,0,0,1,18-2.452,1.391,1.391,0,0,1,19-2.035a1.368,1.368,0,0,1,.426,1.015,1.379,1.379,0,0,1-.422,1.011A1.379,1.379,0,0,1,18,.413ZM28-18Zm0,7.875H44.875V-9H28ZM47.8-18Zm9,0h1.125v1.125h4.5v6.75h2.25v2.25H63.55V-9H61.3v1.125H60.175V-9H56.8v1.125H55.675V-6.75h2.25V-7.875H59.05V-6.75H61.3V-7.875h1.125V-6.75H63.55v1.125H57.925V-4.5H61.3v3.375h3.375V0H52.3V-1.125h2.25V-2.25h1.125V-3.375H56.8v-2.25H53.425V-6.75H54.55V-7.875h1.125V-9h-2.25v1.125H52.3v-2.25h2.25v-6.75H56.8Zm-7.875,1.125H50.05v1.125H48.925ZM50.05-15.75h1.125v2.25H50.05Zm5.625,0v1.125H61.3V-15.75Zm0,2.25v1.125H61.3V-13.5ZM47.8-11.25h3.375v9H50.05v1.125H48.925V0H47.8V-1.125h1.125V-2.25H50.05v-7.875H47.8Zm7.875,0v1.125H61.3V-11.25ZM56.8-3.375V-2.25H55.675v1.125H59.05V-2.25h1.125V-3.375ZM51.175-2.25H52.3v1.125H51.175ZM67.6-18Zm7.875,0H76.6v1.125H75.475Zm4.5,0H81.1v1.125H79.975v1.125H83.35v1.125H79.975V-13.5h2.25v3.375h2.25V-9h-2.25v3.375h-2.25V-4.5H81.1v1.125H79.975V0H78.85V-5.625H77.725V0H76.6V-3.375H75.475V-2.25H74.35v1.125H72.1v-2.25h1.125V-2.25H74.35V-3.375h1.125V-4.5H76.6V-5.625H74.35V-6.75H76.6V-9H73.225v3.375h-4.5v-11.25h4.5v6.75H76.6v-2.25H74.35V-13.5H76.6v-1.125H74.35V-15.75H76.6v-1.125h1.125v1.125H78.85v-1.125h1.125ZM69.85-15.75v2.25H72.1v-2.25Zm7.875,1.125V-13.5H78.85v-1.125Zm-7.875,2.25v2.25H72.1v-2.25Zm7.875,0v2.25H78.85v-2.25Zm2.25,0v2.25H81.1v-2.25ZM69.85-9v2.25H72.1V-9Zm7.875,0v2.25H78.85V-9Zm2.25,0v2.25H81.1V-9ZM68.725-4.5H69.85v2.25H68.725v1.125H67.6V-2.25h1.125Zm2.25,0H72.1v1.125H70.975ZM81.1-3.375h3.375V-2.25H83.35v1.125H82.225V-2.25H81.1ZM87.4-18Zm3.375,0H91.9v2.25h1.125v1.125h-2.25v2.25H94.15V-13.5h1.125v-1.125H98.65V-18h1.125v2.25h2.25v-1.125h1.125v1.125h1.125v1.125H103.15V-13.5h-1.125v1.125H100.9v1.125H98.65v1.125H97.525V-9h-2.25v1.125H91.9v2.25h1.125V-6.75H94.15v1.125H93.025V-4.5H91.9v1.125h4.5V-2.25H91.9v1.125H89.65V0H88.525V-1.125H87.4V-2.25h3.375V-7.875H87.4V-9h3.375v-2.25h-2.25v1.125H87.4V-11.25h1.125v-1.125H89.65v-2.25h1.125ZM100.9-18h1.125v1.125H100.9Zm-7.875,3.375H94.15V-13.5H93.025Zm6.75,0v2.25H100.9V-13.5h1.125v-1.125Zm-4.5,1.125v1.125H94.15v1.125H91.9V-9h3.375v-1.125h2.25V-11.25H98.65V-13.5Zm7.875,1.125h1.125v2.25h-2.25V-9H100.9v-2.25h2.25Zm-4.5,2.25h1.125v2.25h2.25V-9h1.125v1.125h1.125v2.25H103.15V-4.5h-1.125v2.25H100.9V-3.375H99.775V-2.25H98.65v1.125H96.4V-2.25h2.25V-3.375h1.125v-2.25H100.9V-4.5h1.125V-5.625h1.125V-6.75H99.775v1.125h-4.5V-6.75H98.65ZM87.4-6.75h1.125v1.125H87.4Zm1.125,1.125H89.65V-4.5H88.525Zm14.625,2.25h1.125V0H103.15V-1.125h-1.125V-2.25h1.125ZM107.2-18Zm0,7.875h16.875V-9H107.2ZM127-18Zm9,0h1.125v1.125h4.5v6.75h2.25v2.25H142.75V-9H140.5v1.125h-1.125V-9H136v1.125h-1.125V-6.75h2.25V-7.875h1.125V-6.75h2.25V-7.875h1.125V-6.75h1.125v1.125h-5.625V-4.5H140.5v3.375h3.375V0H131.5V-1.125h2.25V-2.25h1.125V-3.375H136v-2.25h-3.375V-6.75h1.125V-7.875h1.125V-9h-2.25v1.125H131.5v-2.25h2.25v-6.75H136Zm-7.875,1.125h1.125v1.125h-1.125Zm1.125,1.125h1.125v2.25H129.25Zm5.625,0v1.125H140.5V-15.75Zm0,2.25v1.125H140.5V-13.5ZM127-11.25h3.375v9H129.25v1.125h-1.125V0H127V-1.125h1.125V-2.25h1.125v-7.875H127Zm7.875,0v1.125H140.5V-11.25ZM136-3.375V-2.25h-1.125v1.125h3.375V-2.25h1.125V-3.375ZM130.375-2.25H131.5v1.125h-1.125ZM146.8-18Zm3.375,1.125H160.3v5.625h-6.75v1.125h-1.125V-9h5.625v-1.125h1.125V-9H158.05v1.125H155.8V-6.75h-2.25v1.125h6.75V-6.75h1.125v1.125h1.125v2.25h-1.125V-4.5H155.8v3.375h-1.125V0H153.55V-1.125h1.125V-4.5H149.05V-5.625h2.25V-6.75h2.25V-7.875h-4.5V-9h2.25v-1.125h1.125V-11.25h-2.25ZM151.3-15.75v1.125h3.375V-15.75Zm4.5,0v1.125h3.375V-15.75Zm-4.5,2.25v1.125h3.375V-13.5Zm4.5,0v1.125h3.375V-13.5Zm3.375,5.625H160.3V-6.75h-1.125Zm-9,4.5H151.3V-2.25h-1.125v1.125H149.05V0h-1.125V-1.125h1.125V-2.25h1.125Zm9,0H160.3V-2.25h-1.125Zm-6.75,1.125h1.125v1.125h-1.125Zm7.875,0h1.125V0H160.3ZM166.6-18Zm11.25,0h1.125v1.125h4.5v1.125h-4.5v1.125h3.375V-13.5h-3.375v1.125h4.5v1.125h-9v-1.125h3.375V-13.5H175.6v-1.125h2.25V-15.75h-3.375v-1.125h3.375Zm-6.75,1.125h2.25v1.125H171.1v3.375h2.25v1.125H171.1V-9h1.125v1.125H171.1V0h-1.125V-7.875H168.85v2.25h-1.125V-4.5H166.6V-5.625h1.125v-2.25h1.125v-2.25h1.125V-11.25H166.6v-1.125h3.375v-2.25H166.6V-15.75h4.5Zm4.5,6.75h6.75V-2.25h-1.125v1.125H180.1V-2.25h-2.25v1.125h-1.125V0H175.6V-1.125h1.125V-2.25H175.6ZM176.725-9v1.125h4.5V-9Zm-4.5,1.125h1.125V-6.75h-1.125Zm4.5,1.125v1.125h4.5V-6.75Zm0,2.25v1.125h4.5V-4.5Zm4.5,3.375h1.125V0h-1.125ZM186.4-18Zm4.5,0h1.125v2.25h5.625V-18h1.125v2.25h4.5v1.125h-4.5V-13.5h2.25v3.375H188.65V-13.5h2.25v-1.125h-4.5V-15.75h4.5Zm1.125,3.375V-13.5h5.625v-1.125Zm-2.25,2.25v1.125h2.25v-1.125Zm3.375,0v1.125h3.375v-1.125Zm4.5,0v1.125h2.25v-1.125ZM187.525-9h15.75v2.25H202.15v1.125h-1.125V-6.75h1.125V-7.875h-7.875V-6.75H199.9V-4.5h-1.125v1.125h-2.25V-2.25h-2.25v1.125h-2.25V0h-4.5V-1.125h4.5V-2.25h2.25V-3.375h2.25V-4.5h2.25V-5.625H193.15V-4.5H190.9v1.125h-2.25V-4.5h2.25V-5.625h1.125V-6.75h1.125V-7.875h-4.5V-6.75h-1.125v1.125H186.4V-6.75h1.125Zm5.625,4.5h1.125v1.125H193.15ZM206.2-18Zm4.5,0h1.125v3.375h2.25V-13.5h-2.25v1.125h1.125v1.125h-1.125v5.625H210.7V-11.25h-1.125v1.125H208.45V-9h-1.125v-1.125h1.125V-11.25h1.125v-1.125H210.7V-13.5h-3.375v-1.125H210.7Zm4.5,1.125h5.625V-6.75H215.2Zm1.125,1.125v2.25H219.7v-2.25Zm0,3.375v1.125H219.7v-1.125ZM212.95-11.25h1.125v1.125H212.95Zm3.375,1.125v2.25H219.7v-2.25ZM212.95-6.75h1.125v1.125H212.95Zm1.125,1.125H215.2v2.25h-1.125ZM208.45-4.5h1.125v2.25H208.45v1.125h-1.125V-2.25h1.125Zm2.25,0h1.125v3.375H210.7Zm9,0h1.125v1.125H219.7Zm-2.25,1.125h1.125V0h-6.75V-1.125h5.625Zm3.375,0h1.125v2.25h-1.125ZM226-18Zm1.125,0h1.125v1.125h-1.125Zm6.75,0H235v1.125h6.75v2.25h-1.125V-13.5H239.5v-1.125h1.125V-15.75H237.25v2.25h-1.125v1.125H235v1.125h-1.125v1.125H239.5V-11.25h3.375v1.125H241.75V-9h-1.125v-1.125H239.5V-2.25h-1.125v1.125H237.25V-2.25h-5.625v1.125H230.5V0h-1.125V-1.125H230.5V-2.25h-1.125V-9H228.25v-2.25H226v-1.125h2.25V-13.5h1.125v-1.125H230.5V-15.75h1.125v1.125H230.5V-13.5h-1.125v3.375h2.25V-11.25h2.25v-1.125H235V-13.5h1.125v-2.25h-2.25v1.125H232.75V-13.5h-1.125v-1.125h1.125V-15.75h1.125Zm-5.625,1.125h1.125v2.25H228.25Zm9,3.375h1.125v1.125H237.25Zm1.125,1.125H239.5v1.125h-1.125ZM230.5-9v1.125h7.875V-9Zm0,2.25v1.125h7.875V-6.75Zm0,2.25v1.125h7.875V-4.5Zm7.875,3.375H239.5V0h-1.125ZM245.8-18Zm7.875,0H254.8v2.25h-1.125v1.125H252.55V-13.5h-1.125v1.125H250.3v1.125h-1.125v1.125H248.05V-9H245.8v-1.125h2.25V-11.25h1.125v-1.125H250.3V-13.5h1.125v-1.125h1.125V-15.75h1.125Zm1.125,2.25h1.125v1.125H254.8Zm1.125,1.125h1.125V-13.5h-1.125ZM257.05-13.5h1.125v1.125H257.05Zm1.125,1.125H259.3v1.125h-1.125v1.125H254.8v2.25h4.5V-6.75h-4.5v4.5h1.125V-3.375h1.125V-4.5h1.125V-5.625H259.3V-4.5h-1.125v1.125H257.05V-2.25h4.5v1.125H246.925V-2.25h4.5V-3.375h1.125V-2.25h1.125v-4.5h-4.5V-7.875h4.5v-2.25H250.3V-11.25h7.875ZM259.3-11.25h3.375v1.125H261.55V-9h-1.125v-1.125H259.3ZM249.175-5.625H250.3V-4.5h-1.125ZM250.3-4.5h1.125v1.125H250.3Z" transform="translate(4452 3685)" fill="#fff"/>
    <g id="Group_41377" data-name="Group 41377" transform="translate(4656.75 3718.749) rotate(-90)">
      <rect id="Rectangle_33782" data-name="Rectangle 33782" width="4.153" height="8.305" transform="translate(62.138 475.36)" fill="#f77622"/>
      <rect id="Rectangle_33783" data-name="Rectangle 33783" width="4.153" height="12.458" transform="translate(12.305 471.207)" fill="#f77622"/>
      <rect id="Rectangle_33784" data-name="Rectangle 33784" width="4.153" height="4.153" transform="translate(66.291 471.207)" fill="#f77622"/>
      <rect id="Rectangle_33785" data-name="Rectangle 33785" width="4.153" height="4.153" transform="translate(70.444 467.054)" fill="#f77622"/>
      <rect id="Rectangle_33786" data-name="Rectangle 33786" width="4.153" height="4.153" transform="translate(8.153 467.054)" fill="#f77622"/>
      <rect id="Rectangle_33787" data-name="Rectangle 33787" width="4.153" height="8.305" transform="translate(28.916 429.68)" fill="#f77622"/>
      <rect id="Rectangle_33788" data-name="Rectangle 33788" width="4.153" height="4.153" transform="translate(16.458 433.833)" fill="#f77622"/>
      <rect id="Rectangle_33789" data-name="Rectangle 33789" width="4.153" height="8.305" transform="translate(45.527 425.527)" fill="#f77622"/>
      <rect id="Rectangle_33790" data-name="Rectangle 33790" width="4.153" height="8.305" transform="translate(62.138 421.375)" fill="#f77622"/>
      <path id="Path_53385" data-name="Path 53385" d="M33.611,388.153H29.458V384H17v4.153h4.153v4.153h8.305v4.153H21.153v4.153h8.305v8.306H21.153v4.153h8.305V429.68h4.153v37.374h4.153V425.527H33.611Z" transform="translate(40.985)" fill="#f77622"/>
      <rect id="Rectangle_33791" data-name="Rectangle 33791" width="4.153" height="45.68" transform="translate(4 421.375)" fill="#f77622"/>
      <path id="Path_53386" data-name="Path 53386" d="M5,392v4.153H17.458v8.305h4.153V392Z" transform="translate(3.153 25.222)" fill="#f77622"/>
      <path id="Path_53387" data-name="Path 53387" d="M9,391v4.153H21.458v8.305h4.153V391Z" transform="translate(15.764 22.069)" fill="#f77622"/>
      <path id="Path_53388" data-name="Path 53388" d="M25.458,405.764H13v4.153H25.458v8.306h4.153V385H25.458Z" transform="translate(28.375 3.153)" fill="#f77622"/>
      <path id="Path_53389" data-name="Path 53389" d="M58.985,480.513v-8.306h4.153v-4.153h4.153V463.9h4.153V426.527H67.291V409.916H58.985v-4.153h8.305v-8.306H58.985v-4.153h8.305v-4.153H58.985V385H54.833v33.222H50.68v-8.306H38.222v12.458H34.069v-8.305H21.611v12.458H17.458v-8.305H5V463.9H9.153v4.153h4.153v12.458Zm4.153-62.291v8.305H58.985v-8.305Zm-16.611,4.153v8.306H42.375v-8.306Zm-16.611,4.153v8.305H25.764v-8.305Zm-12.458,8.305H13.305V430.68h4.153Z" transform="translate(3.153 3.153)" fill="#feae34"/>
    </g>
  </g>
</svg>
