<svg xmlns="http://www.w3.org/2000/svg" width="728.416" height="74.749" viewBox="0 0 728.416 74.749">
  <g id="g2-c1" transform="translate(-4412 -3736)">
    <g id="Path_54253" data-name="Path 54253" transform="translate(4412 3737)" fill="#15172a">
      <path d="M 672.8868408203125 70 L 7.113303184509277 70 L 7.113303184509277 68.23336029052734 L 5.113303184509277 68.23336029052734 L 2.000030517578125 68.23336029052734 L 2.000030517578125 3.766818284988403 L 5.113303184509277 3.766818284988403 L 7.113303184509277 3.766818284988403 L 7.113303184509277 2 L 672.8868408203125 2 L 672.8868408203125 3.766818284988403 L 674.8868408203125 3.766818284988403 L 678 3.766818284988403 L 678 68.23336029052734 L 674.8868408203125 68.23336029052734 L 672.8868408203125 68.23336029052734 L 672.8868408203125 70 Z" stroke="none"/>
      <path d="M 670.8868408203125 68 L 670.8868408203125 66.23336029052734 L 674.8868408203125 66.23336029052734 L 676 66.23336029052734 L 676 5.766818046569824 L 674.8868408203125 5.766818046569824 L 670.8868408203125 5.766818046569824 L 670.8868408203125 4 L 9.113303184509277 4 L 9.113303184509277 5.766818046569824 L 5.113303184509277 5.766818046569824 L 4.000030517578125 5.766818046569824 L 4.000030517578125 66.23336029052734 L 5.113303184509277 66.23336029052734 L 9.113303184509277 66.23336029052734 L 9.113303184509277 68 L 670.8868408203125 68 M 674.8868408203125 72 L 5.113303184509277 72 L 5.113303184509277 70.23336029052734 L 3.0517578125e-05 70.23336029052734 L 3.0517578125e-05 1.766818165779114 L 5.113303184509277 1.766818165779114 L 5.113303184509277 0 L 674.8868408203125 0 L 674.8868408203125 1.766818165779114 L 680 1.766818165779114 L 680 70.23336029052734 L 674.8868408203125 70.23336029052734 L 674.8868408203125 71.99945831298828 L 674.8868408203125 72 Z" stroke="none" fill="#ffda2d"/>
    </g>
    <path id="Path_54257" data-name="Path 54257" d="M9.563-.158A7.946,7.946,0,0,1,6.82.413,5.371,5.371,0,0,1,3.876-.444,5.6,5.6,0,0,1,1.784-2.993,9.383,9.383,0,0,1,1.037-6.82a9.4,9.4,0,0,1,.738-3.806,5.631,5.631,0,0,1,2.083-2.558,5.341,5.341,0,0,1,2.962-.87,7.946,7.946,0,0,1,2.742.571v1.617a5.587,5.587,0,0,0-2.812-.817,2.964,2.964,0,0,0-1.929.721A4.988,4.988,0,0,0,3.41-9.848,8.36,8.36,0,0,0,2.874-6.82a8.3,8.3,0,0,0,.554,3.067,5,5,0,0,0,1.415,2.1,2.956,2.956,0,0,0,1.907.7,5.62,5.62,0,0,0,2.813-.817ZM18,.413a1.379,1.379,0,0,1-1.011-.422,1.379,1.379,0,0,1-.422-1.011,1.368,1.368,0,0,1,.426-1.015A1.391,1.391,0,0,1,18-2.452,1.391,1.391,0,0,1,19-2.035a1.368,1.368,0,0,1,.426,1.015,1.379,1.379,0,0,1-.422,1.011A1.379,1.379,0,0,1,18,.413ZM28-18Zm4.5,0h1.125v2.25H39.25V-18h1.125v2.25h4.5v1.125h-4.5V-13.5h2.25v3.375H30.25V-13.5H32.5v-1.125H28V-15.75h4.5Zm1.125,3.375V-13.5H39.25v-1.125Zm-2.25,2.25v1.125h2.25v-1.125Zm3.375,0v1.125h3.375v-1.125Zm4.5,0v1.125H41.5v-1.125ZM29.125-9h15.75v2.25H43.75v1.125H42.625V-6.75H43.75V-7.875H35.875V-6.75H41.5V-4.5H40.375v1.125h-2.25V-2.25h-2.25v1.125h-2.25V0h-4.5V-1.125h4.5V-2.25h2.25V-3.375h2.25V-4.5h2.25V-5.625H34.75V-4.5H32.5v1.125H30.25V-4.5H32.5V-5.625h1.125V-6.75H34.75V-7.875h-4.5V-6.75H29.125v1.125H28V-6.75h1.125ZM34.75-4.5h1.125v1.125H34.75ZM47.8-18Zm4.5,0h1.125v3.375h2.25V-13.5h-2.25v1.125H54.55v1.125H53.425v5.625H52.3V-11.25H51.175v1.125H50.05V-9H48.925v-1.125H50.05V-11.25h1.125v-1.125H52.3V-13.5H48.925v-1.125H52.3Zm4.5,1.125h5.625V-6.75H56.8Zm1.125,1.125v2.25H61.3v-2.25Zm0,3.375v1.125H61.3v-1.125ZM54.55-11.25h1.125v1.125H54.55Zm3.375,1.125v2.25H61.3v-2.25ZM54.55-6.75h1.125v1.125H54.55Zm1.125,1.125H56.8v2.25H55.675ZM50.05-4.5h1.125v2.25H50.05v1.125H48.925V-2.25H50.05Zm2.25,0h1.125v3.375H52.3Zm9,0h1.125v1.125H61.3ZM59.05-3.375h1.125V0h-6.75V-1.125H59.05Zm3.375,0H63.55v2.25H62.425ZM67.6-18Zm4.5,0h7.875v7.875H72.1Zm1.125,1.125v2.25H78.85v-2.25Zm0,3.375v2.25H78.85V-13.5ZM68.725-9H83.35v1.125H76.6v2.25h5.625V-4.5H76.6v3.375H74.35V-2.25h1.125V-7.875h-6.75ZM72.1-6.75h1.125v3.375H72.1V-2.25H70.975v1.125H69.85V0H68.725V-1.125H69.85V-2.25h1.125V-3.375H72.1Zm1.125,3.375H74.35V-2.25H73.225ZM76.6-1.125h6.75V0H76.6ZM87.4-18Zm4.5,0h1.125v3.375H91.9V0H90.775V-11.25H89.65v1.125H88.525V-9H87.4v-1.125h1.125V-11.25H89.65v-1.125h1.125v-2.25H91.9Zm5.625,0H98.65v6.75h4.5v1.125h-4.5V0H97.525V-10.125h-4.5V-11.25h4.5Zm9.675,0Zm9,0h1.125v1.125H116.2Zm1.125,1.125h1.125v1.125h5.625v1.125H120.7v2.25h3.375v1.125h-2.25v1.125H120.7v2.25h-1.125v-2.25H118.45V-9H116.2v-1.125h2.25V-11.25H116.2v1.125h-1.125v2.25H113.95v-2.25h-1.125V-9H111.7v1.125h-1.125v4.5H109.45v2.25h-1.125V0H107.2V-1.125h1.125v-2.25h1.125V-15.75h7.875Zm-6.75,2.25v2.25h3.375v-2.25Zm4.5,0v2.25h4.5v-2.25Zm-4.5,3.375V-9H111.7v-1.125h1.125V-11.25Zm11.25,1.125h1.125V-9h-1.125ZM122.95-9h1.125v1.125H122.95Zm-7.875,1.125H116.2V-6.75h-1.125v1.125h4.5V-6.75H120.7v1.125h-1.125V-4.5h-2.25v1.125H116.2V-2.25h5.625V-3.375h1.125V-2.25h1.125V0H122.95V-1.125h-9V0h-1.125V-1.125H111.7V-2.25h2.25V-3.375h2.25V-4.5h-3.375V-5.625h1.125V-6.75h1.125Zm21.2-5.229a3.879,3.879,0,0,0-3.024,1.188,4.364,4.364,0,0,0-1.08,3.024h1.44a3.255,3.255,0,0,1,.594-2.07,2.3,2.3,0,0,1,2-.882,2.356,2.356,0,0,1,1.764.63,2.272,2.272,0,0,1,.612,1.674,2.313,2.313,0,0,1-.522,1.422,12.237,12.237,0,0,1-1.17,1.134,5.6,5.6,0,0,0-1.206,1.458,3.527,3.527,0,0,0-.4,1.71V-3.4h1.44v-.414a2.578,2.578,0,0,1,.342-1.332,3.4,3.4,0,0,1,.846-.972c.792-.7,1.278-1.17,1.476-1.386a3.5,3.5,0,0,0,.666-2.106,3.231,3.231,0,0,0-1.026-2.538A3.831,3.831,0,0,0,136.27-13.1ZM136-2.142a1.031,1.031,0,0,0-.774.306.966.966,0,0,0-.306.756,1.031,1.031,0,0,0,.306.774A1.1,1.1,0,0,0,136,0a1.147,1.147,0,0,0,.792-.306,1.044,1.044,0,0,0,.306-.774,1.031,1.031,0,0,0-.306-.756A1.071,1.071,0,0,0,136-2.142ZM146.8-18Zm1.125,1.125h15.75v1.125H160.3V-1.125h-1.125V0H158.05V-1.125h1.125V-15.75h-11.25ZM151.3-13.5h5.625v9H155.8V-5.625h-3.375V-4.5H151.3Zm1.125,1.125V-6.75H155.8v-5.625Zm4.5,10.125h1.125v1.125h-1.125ZM166.6-18Zm5.625,1.125h1.125v1.125h-1.125Zm7.875,0h1.125V-9H180.1v3.375h-1.125V-4.5H180.1v1.125h-2.25V-2.25h-1.125v1.125h-2.25V0h-2.25V-1.125h2.25V-2.25h2.25V-3.375h1.125v-2.25h1.125V-9H180.1ZM168.85-15.75h1.125V-3.375H171.1V-4.5h1.125V-5.625h1.125V-6.75h1.125V-7.875H175.6V-6.75h-1.125v1.125H173.35V-4.5h-1.125v1.125H171.1V-2.25h-1.125v1.125H168.85Zm4.5,0h1.125v1.125H173.35Zm1.125,1.125H175.6v2.25h-1.125ZM180.1-3.375h1.125V-2.25H180.1Zm1.125,1.125h1.125V0h-1.125ZM186.4-18Zm9,0h1.125v2.25H195.4v1.125h7.875V-13.5h-9v1.125H193.15v1.125h-1.125V-4.5H190.9V-5.625h-2.25V-4.5h-1.125V-15.75h4.5v3.375h1.125V-13.5h1.125v-2.25H195.4Zm-6.75,3.375V-6.75h2.25v-7.875Zm4.5,3.375h7.875v1.125H199.9V-9h-1.125v1.125H197.65V-6.75h-1.125v1.125H195.4V-4.5h-1.125v2.25H193.15V-4.5h1.125V-5.625H195.4V-6.75h1.125V-7.875h1.125V-9h1.125v-1.125H193.15Zm9,6.75h1.125v3.375h-9V-2.25h7.875ZM206.2-18Zm7.875,1.125h9v1.125h-4.5v1.125h3.375V-13.5h-3.375v1.125h3.375v1.125h-3.375V-9h4.5v6.75H221.95v1.125h-1.125V0H219.7V-1.125h1.125V-2.25h1.125V-7.875h-7.875Zm-6.75,1.125h4.5V-4.5H210.7V-5.625h-2.25V-4.5h-1.125Zm7.875,0v1.125h2.25V-15.75Zm-6.75,1.125V-6.75h2.25v-7.875ZM215.2-13.5v1.125h2.25V-13.5Zm0,2.25V-9h2.25v-2.25Zm-2.25,4.5h1.125V-4.5H212.95v1.125h-1.125V-4.5h1.125Zm2.25,0h1.125v3.375H215.2Zm2.25,0h1.125v3.375H217.45Zm2.25,0h1.125v3.375H219.7Zm-1.125,4.5H219.7v1.125h-1.125ZM235.27-13.1a3.879,3.879,0,0,0-3.024,1.188,4.364,4.364,0,0,0-1.08,3.024h1.44a3.255,3.255,0,0,1,.594-2.07,2.3,2.3,0,0,1,2-.882,2.356,2.356,0,0,1,1.764.63,2.272,2.272,0,0,1,.612,1.674,2.313,2.313,0,0,1-.522,1.422,12.237,12.237,0,0,1-1.17,1.134,5.6,5.6,0,0,0-1.206,1.458,3.527,3.527,0,0,0-.4,1.71V-3.4h1.44v-.414a2.578,2.578,0,0,1,.342-1.332,3.4,3.4,0,0,1,.846-.972c.792-.7,1.278-1.17,1.476-1.386a3.5,3.5,0,0,0,.666-2.106,3.231,3.231,0,0,0-1.026-2.538A3.831,3.831,0,0,0,235.27-13.1ZM235-2.142a1.031,1.031,0,0,0-.774.306.966.966,0,0,0-.306.756,1.031,1.031,0,0,0,.306.774A1.1,1.1,0,0,0,235,0a1.147,1.147,0,0,0,.792-.306,1.044,1.044,0,0,0,.306-.774,1.031,1.031,0,0,0-.306-.756A1.071,1.071,0,0,0,235-2.142ZM245.8-18Zm4.5,0h11.25v3.375H250.3Zm-3.375,1.125h1.125v1.125h-1.125Zm4.5,0v1.125h2.25v-1.125Zm3.375,0v1.125h2.25v-1.125Zm3.375,0v1.125h2.25v-1.125ZM248.05-15.75h1.125v2.25H248.05Zm2.25,2.25h12.375v1.125H250.3Zm-4.5,1.125h3.375v9H248.05V-2.25h-1.125v1.125H245.8V-2.25h1.125V-3.375h1.125V-11.25H245.8Zm5.625,1.125h9v3.375H257.05V-6.75h-1.125V-7.875H254.8V-4.5h1.125V-5.625h1.125V-6.75h1.125v1.125H257.05V-4.5h-1.125v1.125H254.8V-2.25h5.625V-3.375H259.3V-4.5h2.25v2.25h1.125v1.125H250.3V-2.25h3.375V-5.625H252.55V-4.5h-1.125v1.125H250.3V-2.25h-1.125V-3.375H250.3V-4.5h1.125V-5.625h1.125V-6.75h1.125V-7.875h-2.25Zm1.125,1.125V-9h6.75v-1.125Zm7.875,2.25h1.125V-6.75h-1.125v1.125H259.3V-4.5h-1.125V-5.625H259.3V-6.75h1.125ZM265.6-18Zm4.5,0h7.875v7.875H270.1Zm1.125,1.125v2.25h5.625v-2.25Zm0,3.375v2.25h5.625V-13.5Zm-4.5,4.5H281.35v1.125H274.6v2.25h5.625V-4.5H274.6v3.375h-2.25V-2.25h1.125V-7.875h-6.75ZM270.1-6.75h1.125v3.375H270.1V-2.25h-1.125v1.125H267.85V0h-1.125V-1.125h1.125V-2.25h1.125V-3.375H270.1Zm1.125,3.375h1.125V-2.25h-1.125Zm3.375,2.25h6.75V0H274.6ZM285.4-18Zm6.75,0h1.125v3.375h3.375V-13.5h-3.375v2.25h2.25v-1.125h1.125V-13.5h1.125v-1.125H298.9V-15.75h1.125v1.125H298.9V-13.5h-1.125v1.125H296.65v1.125h5.625v1.125H294.4V-9h-1.125v1.125H292.15v2.25h2.25V-6.75h2.25V-7.875h1.125V-9H298.9v1.125h1.125V-6.75H296.65v1.125H294.4V-4.5h-2.25v2.25h-1.125V-5.625H289.9V-4.5h-1.125v1.125H287.65V-2.25h-1.125v1.125H285.4V-2.25h1.125V-3.375h1.125V-4.5h1.125V-5.625H289.9V-6.75h1.125V-7.875h1.125V-9h1.125v-1.125H285.4V-11.25h6.75V-13.5h-4.5v-1.125h4.5Zm7.875,13.5h1.125v3.375h-9V-2.25h7.875ZM305.2-18Zm7.875,0H314.2v1.125h7.875v2.25H320.95V-13.5h-1.125v-1.125h1.125V-15.75h-13.5v1.125h-1.125V-13.5H305.2v-1.125h1.125v-2.25h6.75Zm-4.5,3.375H318.7v2.25h3.375v1.125H318.7v9h-1.125v1.125H316.45V-2.25h-5.625v1.125H309.7V0h-1.125V-1.125H309.7V-2.25h-1.125V-9H307.45v-2.25H305.2v-1.125h3.375ZM309.7-13.5v1.125h3.375V-13.5Zm4.5,0v1.125h3.375V-13.5Zm-5.625,2.25v1.125h3.375V-11.25Zm4.5,0v1.125h4.5V-11.25ZM309.7-9v1.125h7.875V-9Zm0,2.25v1.125h7.875V-6.75Zm0,2.25v1.125h7.875V-4.5Zm7.875,3.375H318.7V0h-1.125ZM325-18Zm2.25,1.125h1.125v1.125H327.25Zm5.625,0h6.75v4.5h1.125V-4.5h-1.125v1.125H338.5V-4.5h1.125v-6.75h-6.75v7.875H331.75v-9h1.125Zm-4.5,1.125H329.5v2.25h-1.125Zm5.625,0v1.125h3.375v2.25H338.5V-15.75Zm0,2.25v1.125h2.25V-13.5Zm-9,2.25h4.5v7.875h-1.125V-2.25H327.25v1.125h-1.125V-2.25h1.125V-3.375h1.125v-6.75H325Zm9,1.125h4.5V-4.5h-1.125V-5.625h-2.25V-4.5H334ZM335.125-9v2.25h2.25V-9ZM329.5-3.375h1.125V-2.25H329.5Zm1.125,1.125h11.25v1.125h-11.25ZM344.8-18Zm3.375,1.125H358.3v15.75h-1.125V-2.25H349.3v1.125h-1.125ZM349.3-15.75v5.625h7.875V-15.75Zm0,6.75v5.625h7.875V-9Zm15.3-9Zm2.25,1.125h12.375v1.125H378.1v1.125h-1.125V-13.5H375.85v1.125h-1.125v1.125H373.6v1.125h7.875V-9H373.6v7.875h-1.125V0H371.35V-1.125h1.125V-9H364.6v-1.125h7.875V-11.25H373.6v-1.125h1.125V-13.5h1.125v-1.125h1.125V-15.75H366.85ZM370.225-2.25h1.125v1.125h-1.125ZM384.4-18Zm6.75,1.125h7.875v9H397.9V-9h-5.625v6.75H391.15Zm-5.625,1.125h4.5V-4.5H388.9V-5.625h-2.25V-4.5h-1.125Zm6.75,0v5.625h2.25V-15.75Zm3.375,0v5.625h2.25V-15.75Zm-9,1.125V-6.75h2.25v-7.875ZM400.15-4.5h1.125v3.375h-9V-2.25h7.875Z" transform="translate(4452 3780)" fill="#fff"/>
    <g id="Group_41381" data-name="Group 41381" transform="translate(4656.75 3814.749) rotate(-90)">
      <rect id="Rectangle_33782" data-name="Rectangle 33782" width="4.153" height="8.305" transform="translate(62.138 475.36)" fill="#f77622"/>
      <rect id="Rectangle_33783" data-name="Rectangle 33783" width="4.153" height="12.458" transform="translate(12.305 471.207)" fill="#f77622"/>
      <rect id="Rectangle_33784" data-name="Rectangle 33784" width="4.153" height="4.153" transform="translate(66.291 471.207)" fill="#f77622"/>
      <rect id="Rectangle_33785" data-name="Rectangle 33785" width="4.153" height="4.153" transform="translate(70.444 467.054)" fill="#f77622"/>
      <rect id="Rectangle_33786" data-name="Rectangle 33786" width="4.153" height="4.153" transform="translate(8.153 467.054)" fill="#f77622"/>
      <rect id="Rectangle_33787" data-name="Rectangle 33787" width="4.153" height="8.305" transform="translate(28.916 429.68)" fill="#f77622"/>
      <rect id="Rectangle_33788" data-name="Rectangle 33788" width="4.153" height="4.153" transform="translate(16.458 433.833)" fill="#f77622"/>
      <rect id="Rectangle_33789" data-name="Rectangle 33789" width="4.153" height="8.305" transform="translate(45.527 425.527)" fill="#f77622"/>
      <rect id="Rectangle_33790" data-name="Rectangle 33790" width="4.153" height="8.305" transform="translate(62.138 421.375)" fill="#f77622"/>
      <path id="Path_53385" data-name="Path 53385" d="M33.611,388.153H29.458V384H17v4.153h4.153v4.153h8.305v4.153H21.153v4.153h8.305v8.306H21.153v4.153h8.305V429.68h4.153v37.374h4.153V425.527H33.611Z" transform="translate(40.985)" fill="#f77622"/>
      <rect id="Rectangle_33791" data-name="Rectangle 33791" width="4.153" height="45.68" transform="translate(4 421.375)" fill="#f77622"/>
      <path id="Path_53386" data-name="Path 53386" d="M5,392v4.153H17.458v8.305h4.153V392Z" transform="translate(3.153 25.222)" fill="#f77622"/>
      <path id="Path_53387" data-name="Path 53387" d="M9,391v4.153H21.458v8.305h4.153V391Z" transform="translate(15.764 22.069)" fill="#f77622"/>
      <path id="Path_53388" data-name="Path 53388" d="M25.458,405.764H13v4.153H25.458v8.306h4.153V385H25.458Z" transform="translate(28.375 3.153)" fill="#f77622"/>
      <path id="Path_53389" data-name="Path 53389" d="M58.985,480.513v-8.306h4.153v-4.153h4.153V463.9h4.153V426.527H67.291V409.916H58.985v-4.153h8.305v-8.306H58.985v-4.153h8.305v-4.153H58.985V385H54.833v33.222H50.68v-8.306H38.222v12.458H34.069v-8.305H21.611v12.458H17.458v-8.305H5V463.9H9.153v4.153h4.153v12.458Zm4.153-62.291v8.305H58.985v-8.305Zm-16.611,4.153v8.306H42.375v-8.306Zm-16.611,4.153v8.305H25.764v-8.305Zm-12.458,8.305H13.305V430.68h4.153Z" transform="translate(3.153 3.153)" fill="#feae34"/>
    </g>
  </g>
</svg>
