<svg xmlns="http://www.w3.org/2000/svg" width="740" height="140" viewBox="0 0 740 140">
  <g id="g2-q" transform="translate(-313 -106)">
    <g id="g2-q-2" data-name="g2-q" transform="translate(752 4211.001)" fill="#e3f0fd">
      <path d="M 293.4356079101562 -3967.00048828125 L -431.4355773925781 -3967.00048828125 L -431.4355773925781 -3968.435546875 L -431.4355773925781 -3970.435546875 L -433.4355773925781 -3970.435546875 L -437.0000915527344 -3970.435546875 L -437.0000915527344 -4099.564453125 L -433.4355773925781 -4099.564453125 L -431.4355773925781 -4099.564453125 L -431.4355773925781 -4101.564453125 L -431.4355773925781 -4103.00048828125 L 293.4356079101562 -4103.00048828125 L 293.4356079101562 -4101.564453125 L 293.4356079101562 -4099.564453125 L 295.4356079101562 -4099.564453125 L 298.9999084472656 -4099.564453125 L 298.9998168945312 -3970.435546875 L 295.4356079101562 -3970.435546875 L 293.4356079101562 -3970.435546875 L 293.4356079101562 -3968.435546875 L 293.4356079101562 -3967.00048828125 Z" stroke="none"/>
      <path d="M 291.4356079101562 -3969.00048828125 L 291.4356079101562 -3972.435546875 L 295.4356079101562 -3972.435546875 L 296.9998168945312 -3972.435546875 L 296.9999084472656 -4097.564453125 L 295.4356079101562 -4097.564453125 L 291.4356079101562 -4097.564453125 L 291.4356079101562 -4101.00048828125 L -429.4355773925781 -4101.00048828125 L -429.4355773925781 -4097.564453125 L -433.4355773925781 -4097.564453125 L -435.0000915527344 -4097.564453125 L -435.0000915527344 -3972.435546875 L -433.4355773925781 -3972.435546875 L -429.4355773925781 -3972.435546875 L -429.4355773925781 -3969.00048828125 L 291.4356079101562 -3969.00048828125 M 295.4356079101562 -3965.00048828125 L -433.4355773925781 -3965.00048828125 L -433.4355773925781 -3968.435546875 L -439.0000915527344 -3968.435546875 L -439.0000915527344 -4101.564453125 L -433.4355773925781 -4101.564453125 L -433.4355773925781 -4105.00048828125 L 295.4356079101562 -4105.00048828125 L 295.4356079101562 -4101.564453125 L 300.9999084472656 -4101.564453125 L 300.9998168945312 -3968.435546875 L 295.4356079101562 -3968.435546875 L 295.4356079101562 -3965.001220703125 L 295.4356079101562 -3965.00048828125 Z" stroke="none" fill="#15172a"/>
    </g>
    <path id="Path_54243" data-name="Path 54243" d="M0-24Zm4.5,0H6v4.5H4.5V0H3V-15H1.5v1.5H0V-15H1.5v-1.5H3v-3H4.5Zm3,3h12V-7.5H7.5ZM9-19.5V-15h9v-4.5Zm0,6V-9h9v-4.5Zm-3,9H21V-3H6ZM26.4-24Zm6,0H42.9v10.5H32.4Zm1.5,1.5v3h7.5v-3Zm0,4.5v3h7.5v-3Zm-6,6H47.4v1.5h-9v3h7.5V-6H38.4v4.5h-3V-3h1.5v-7.5h-9Zm4.5,3h1.5v4.5H32.4V-3H30.9v1.5H29.4V0H27.9V-1.5h1.5V-3h1.5V-4.5h1.5Zm1.5,4.5h1.5V-3H33.9Zm4.5,3h9V0h-9ZM52.8-24Zm6,0h1.5v3h7.5v-3h1.5v3h6v1.5h-6V-18h3v4.5H55.8V-18h3v-1.5h-6V-21h6Zm1.5,4.5V-18h7.5v-1.5Zm-3,3V-15h3v-1.5Zm4.5,0V-15h4.5v-1.5Zm6,0V-15h3v-1.5ZM54.3-12h21v3H73.8v1.5H72.3V-9h1.5v-1.5H63.3V-9h7.5v3H69.3v1.5h-3V-3h-3v1.5h-3V0h-6V-1.5h6V-3h3V-4.5h3V-6h3V-7.5H61.8V-6h-3v1.5h-3V-6h3V-7.5h1.5V-9h1.5v-1.5h-6V-9H54.3v1.5H52.8V-9h1.5Zm7.5,6h1.5v1.5H61.8ZM79.2-24Zm6,0h1.5v4.5h3V-18h-3v1.5h1.5V-15H86.7v7.5H85.2V-15H83.7v1.5H82.2V-12H80.7v-1.5h1.5V-15h1.5v-1.5h1.5V-18H80.7v-1.5h4.5Zm6,1.5h7.5V-9H91.2ZM92.7-21v3h4.5v-3Zm0,4.5V-15h4.5v-1.5ZM88.2-15h1.5v1.5H88.2Zm4.5,1.5v3h4.5v-3ZM88.2-9h1.5v1.5H88.2Zm1.5,1.5h1.5v3H89.7ZM82.2-6h1.5v3H82.2v1.5H80.7V-3h1.5Zm3,0h1.5v4.5H85.2Zm12,0h1.5v1.5H97.2Zm-3,1.5h1.5V0h-9V-1.5h7.5Zm4.5,0h1.5v3H98.7ZM105.6-24Zm9,0h1.5v3h12v1.5H114.6v3h9v15h-1.5V0h-1.5V-1.5h1.5V-6h-9V0h-1.5V-12h-1.5v1.5h-1.5V-9h-1.5v1.5h-1.5V-9h1.5v-1.5h1.5V-12h1.5v-1.5h1.5v-3h1.5v-3h-7.5V-21h9Zm-1.5,9v3h9v-3Zm0,4.5v3h9v-3Zm6,7.5h1.5v1.5h-1.5ZM132-24Zm16.5,0H150v6h4.5v1.5H150V-12h4.5V0H153V-1.5h-6V0h-1.5V-12h3Zm-15,1.5H144v9h-4.5V-12H144v1.5h-4.5V-9H144v1.5h-6V-6h-6V-7.5h6v-3h-4.5V-12H138v-1.5h-4.5ZM135-21v1.5h1.5V-18H135v3h3v-1.5h-1.5V-18H138v-3Zm4.5,0v3H141v-1.5h1.5V-21Zm1.5,3v1.5h-1.5V-15h3v-3Zm6,7.5V-3h6v-7.5Zm-13.5,6H135v3h-1.5V0H132V-1.5h1.5Zm3,0H138v3h-1.5Zm3,0H141v3h-1.5Zm3,0H144v3h-1.5ZM158.4-24Zm13.5,0h1.5v1.5h6V-21h-1.5v1.5h-1.5V-18h-1.5v1.5h-3V-15h-1.5v1.5h7.5V-12h-4.5v1.5h6V-9h-6v3h3V-7.5h1.5v3H167.4v-3h1.5V-6h3V-9h-6v-1.5h1.5V-12h1.5v-1.5h-3V-15h3v-1.5h1.5V-18h3v-1.5h3V-21h-3v1.5h-1.5V-21h-1.5v3h-1.5v-1.5h-1.5V-18h-1.5v-1.5h1.5V-21h3v-1.5h1.5Zm-10.5,1.5h1.5V-21h-1.5Zm1.5,1.5h1.5v3h-1.5Zm-4.5,4.5h6v12h-1.5V-3h-1.5v1.5h-1.5V-3h1.5V-4.5h1.5V-15h-4.5ZM168.9-12v1.5h3V-12Zm-4.5,7.5h1.5V-3h-1.5ZM165.9-3h15v1.5h-15Zm18.9-21Zm13.5,0h1.5v1.5h4.5V-21h-4.5v1.5h6V-18H192.3v-1.5h6V-21h-4.5v-1.5h4.5Zm-10.5,1.5h1.5V-21h-1.5Zm1.5,1.5h1.5v3h-1.5Zm4.5,4.5h10.5V-12h-4.5v1.5h-1.5v6h-1.5V-9h-1.5v1.5h-1.5V-6h-1.5V-7.5h1.5V-9h1.5v-1.5h1.5V-12h-3Zm-9,1.5h6V-4.5h-1.5V-3h-1.5v1.5h-1.5V-3h1.5V-4.5h1.5v-9h-4.5Zm10.5,0v1.5h7.5V-15Zm9,3h1.5v1.5h-1.5V-9h-1.5v1.5h-1.5V-9h1.5v-1.5h1.5Zm-4.5,1.5h1.5V-9h-1.5Zm3,3h1.5V-6h-1.5ZM204.3-6h1.5v1.5h-1.5ZM190.8-4.5h1.5V-3h-1.5ZM192.3-3h15v1.5h-15Zm31.26-14.472a5.172,5.172,0,0,0-4.032,1.584,5.818,5.818,0,0,0-1.44,4.032h1.92a4.341,4.341,0,0,1,.792-2.76,3.067,3.067,0,0,1,2.664-1.176,3.141,3.141,0,0,1,2.352.84,3.029,3.029,0,0,1,.816,2.232,3.084,3.084,0,0,1-.7,1.9,16.315,16.315,0,0,1-1.56,1.512,7.472,7.472,0,0,0-1.608,1.944,4.7,4.7,0,0,0-.528,2.28v.552h1.92v-.552a3.437,3.437,0,0,1,.456-1.776,4.54,4.54,0,0,1,1.128-1.3c1.056-.936,1.7-1.56,1.968-1.848a4.662,4.662,0,0,0,.888-2.808,4.308,4.308,0,0,0-1.368-3.384A5.107,5.107,0,0,0,223.56-17.472ZM223.2-2.856a1.374,1.374,0,0,0-1.032.408,1.288,1.288,0,0,0-.408,1.008,1.374,1.374,0,0,0,.408,1.032A1.471,1.471,0,0,0,223.2,0a1.53,1.53,0,0,0,1.056-.408,1.392,1.392,0,0,0,.408-1.032,1.375,1.375,0,0,0-.408-1.008A1.428,1.428,0,0,0,223.2-2.856ZM237.6-24Zm4.5,0h1.5v3h15v1.5H242.1V-18h-1.5v1.5h-1.5V-18h1.5v-1.5h1.5Zm0,7.5h13.5v6h4.5V-9h-4.5v4.5h1.5V-3h-3v1.5h-1.5V0h-4.5V-1.5h4.5V-3h-12V-6h1.5V-9h-4.5v-1.5h4.5Zm1.5,1.5v4.5h10.5V-15h-6v1.5h-1.5V-15Zm4.5,1.5h1.5V-12h-1.5ZM243.6-9v3h-1.5v1.5h12V-9h-6v1.5h-1.5V-9Zm4.5,1.5h1.5V-6h-1.5ZM264-24Zm3,1.5h16.5V-21H276v6h9v1.5h-9V-12h-1.5v3H273v3h-1.5v1.5H270V-3h-1.5v1.5H267V0h-1.5V-1.5H267V-3h1.5V-4.5H270V-6h1.5V-9H273v-3h1.5v-1.5h-9V-15h9v-6H267ZM276-12h1.5v3H276Zm1.5,3H279v1.5h-1.5ZM279-7.5h1.5V-6H279ZM280.5-6H282v1.5h-1.5ZM282-4.5h4.5V-3H285v1.5h-1.5V-3H282ZM290.4-24Zm9,0h1.5v1.5h-1.5Zm1.5,1.5h1.5V-21h10.5v3h-1.5v1.5h-1.5v6h-4.5v3h6V-3h-1.5v1.5h-1.5V0h-1.5V-1.5h1.5V-3h1.5V-6h-6v-6h4.5v-3h-4.5v-1.5h4.5V-18h3v-1.5h-3V-18h-1.5v-1.5h-9V-18h-1.5v1.5h1.5V-18h1.5v1.5h3V0h-3V-1.5h1.5v-3h-1.5V-3h-3v1.5h-4.5V-3h4.5V-4.5h3V-6h-7.5V-7.5h3V-15h-3v-1.5h3V-18h1.5v-1.5h-3V-18h-1.5v1.5h-1.5V-18h1.5v-3h9Zm10.5,6h1.5V-15h-1.5Zm-15,1.5v1.5h4.5V-15Zm0,3v1.5h4.5V-12Zm0,3v1.5h4.5V-9Zm9,6h1.5v1.5h-1.5Zm11.4-21Zm4.5,0h1.5v7.5h1.5V-18h15v1.5H328.8v12h9V-3H327.3V-16.5h-3V-15h-1.5V0h-1.5Zm9,0h1.5v1.5h-1.5Zm1.5,1.5h1.5v3h-1.5ZM318.3-18h1.5v4.5h-1.5V-12h-1.5v-1.5h1.5Zm6,3h1.5v1.5h-1.5Zm30.876,4.7a1.452,1.452,0,0,0-1.128.408,1.393,1.393,0,0,0-.432,1.08,1.428,1.428,0,0,0,.408,1.056,1.4,1.4,0,0,0,1.032.432,1.285,1.285,0,0,0,.528-.1,2.83,2.83,0,0,1-.5,1.608,3.471,3.471,0,0,1-1.536,1.056v1.176a4.63,4.63,0,0,0,2.472-1.56,4.5,4.5,0,0,0,.936-2.808,2.788,2.788,0,0,0-.48-1.68A1.532,1.532,0,0,0,355.176-10.3ZM369.6-24Zm7.5,0h1.5v3h4.5v-3h1.5v3h7.5v1.5h-7.5V-18h-1.5v-1.5h-4.5V-18h-1.5v3h-1.5V0h-1.5V-10.5h-1.5V-9h-1.5v1.5h-1.5V-9h1.5v-1.5h1.5V-12h1.5v-3h1.5v-3h1.5v-1.5h-7.5V-21h7.5Zm1.5,7.5h13.5V-15h-3V-1.5h-1.5V0h-1.5V-1.5h1.5V-15h-9Zm0,4.5h6v7.5h-6Zm1.5,1.5V-6h3v-4.5ZM384.6-3h1.5v1.5h-1.5ZM396-24Zm6,0h1.5v4.5H414v12h-1.5V-6H411V-7.5h1.5V-18H402v1.5h-1.5V-15H399v1.5h-1.5V-12H396v-1.5h1.5V-15H399v-1.5h1.5v-3H402Zm-1.5,9h9v6H402v6h-1.5Zm1.5,1.5v3h6v-3ZM409.5-9H411v1.5h-1.5Zm6,1.5H417v6H402V-3h13.5ZM422.4-24Zm4.5,0h1.5v3h-1.5v3h-1.5v1.5h3v-3h1.5v3h-1.5v3h-1.5V-12h-1.5v1.5h3V-12h1.5v1.5h1.5v3h-1.5V-9h-4.5v1.5h-1.5V-9h-1.5v-1.5h1.5V-12h1.5v-1.5h1.5V-15h-4.5v-1.5h1.5V-18h1.5v-3h1.5Zm10.5,0h1.5v1.5h-1.5V-21h6V-9h-1.5v-1.5h-3V-9h-1.5v-1.5h-3V-9h-1.5V-21h3v-1.5h1.5Zm-3,4.5v3h1.5v-3Zm3,0V-18h4.5v-1.5Zm0,3V-15h-3v3h1.5v-1.5h1.5V-15h1.5v-1.5Zm3,0V-15h-1.5v1.5h-1.5V-12h1.5v-1.5h1.5V-12h1.5v-4.5ZM438.9-9h1.5v3h-1.5Zm-3,1.5h1.5V-3h-1.5Zm6,0h1.5V-6h-1.5ZM423.9-6h1.5v3h-1.5v1.5h-1.5V-3h1.5Zm3,0h1.5v4.5h-1.5Zm3,0h1.5v3h1.5V-6h1.5v3h-1.5v1.5h-3Zm13.5,0h1.5v3h-1.5Zm-3,1.5h1.5v3h-4.5V-3h3ZM448.8-24Zm6,0h10.5v10.5H454.8Zm1.5,1.5v3h7.5v-3Zm0,4.5v3h7.5v-3Zm-6,6h19.5v1.5h-9v3h7.5V-6h-7.5v4.5h-3V-3h1.5v-7.5h-9Zm4.5,3h1.5v4.5h-1.5V-3h-1.5v1.5h-1.5V0h-1.5V-1.5h1.5V-3h1.5V-4.5h1.5Zm1.5,4.5h1.5V-3h-1.5Zm4.5,3h9V0h-9ZM475.2-24Zm10.5,0h1.5v1.5h-1.5Zm1.5,1.5h1.5V-21h6v6H481.2v3h15V0h-3V-1.5h1.5V-6h-3v4.5h-1.5V-6h-3v4.5h-1.5V-6h-3V0h-1.5V-9h-1.5v3h-1.5v1.5h-1.5V-3h-1.5V-4.5h1.5V-6h1.5V-9h1.5V-21h7.5Zm-6,3v3h12v-3Zm1.5,9v3h3v-3Zm4.5,0v3h3v-3Zm4.5,0v3h3v-3ZM501.6-24Zm10.5,0h1.5v1.5h-1.5Zm1.5,1.5h1.5V-21h6v6H507.6v3h15V0h-3V-1.5h1.5V-6h-3v4.5h-1.5V-6h-3v4.5h-1.5V-6h-3V0h-1.5V-9h-1.5v3h-1.5v1.5h-1.5V-3h-1.5V-4.5h1.5V-6h1.5V-9h1.5V-21h7.5Zm-6,3v3h12v-3Zm1.5,9v3h3v-3Zm4.5,0v3h3v-3Zm4.5,0v3h3v-3Zm22.26-6.972a5.172,5.172,0,0,0-4.032,1.584,5.818,5.818,0,0,0-1.44,4.032h1.92a4.341,4.341,0,0,1,.792-2.76,3.067,3.067,0,0,1,2.664-1.176,3.141,3.141,0,0,1,2.352.84,3.03,3.03,0,0,1,.816,2.232,3.084,3.084,0,0,1-.7,1.9,16.324,16.324,0,0,1-1.56,1.512,7.471,7.471,0,0,0-1.608,1.944,4.7,4.7,0,0,0-.528,2.28v.552h1.92v-.552a3.437,3.437,0,0,1,.456-1.776,4.54,4.54,0,0,1,1.128-1.3c1.056-.936,1.7-1.56,1.968-1.848a4.662,4.662,0,0,0,.888-2.808,4.308,4.308,0,0,0-1.368-3.384A5.107,5.107,0,0,0,540.36-17.472ZM540-2.856a1.374,1.374,0,0,0-1.032.408,1.288,1.288,0,0,0-.408,1.008,1.374,1.374,0,0,0,.408,1.032A1.471,1.471,0,0,0,540,0a1.53,1.53,0,0,0,1.056-.408,1.392,1.392,0,0,0,.408-1.032,1.375,1.375,0,0,0-.408-1.008A1.428,1.428,0,0,0,540-2.856ZM0,11Zm10.5,0H12v9h1.5V18.5H15V17h1.5V12.5H18V14h1.5v1.5H18V17H16.5v1.5H15V20h7.5v1.5H15V32H13.5V21.5H9v6H7.5v3H6V32H4.5v1.5H3V35H0V33.5H3V32H4.5V30.5H6v-3H7.5v-6H0V20H10.5ZM3,12.5H4.5V14H3ZM4.5,14H6v1.5H4.5ZM6,15.5H7.5v3H6ZM19.5,26H21v7.5H15V32h4.5Zm6.9-15Zm4.5,0h1.5v3h4.5v3H35.4v3H33.9v1.5h-3V23H29.4v1.5h-3V23h3V21.5h1.5V20h3V17h1.5V15.5H30.9V17H29.4v1.5H27.9V17h1.5V15.5h-3V14h4.5Zm7.5,3h9v3H45.9v1.5H44.4V20H42.9v1.5H41.4V23H39.9v1.5H38.4V23h1.5V21.5h1.5V20h1.5V18.5h1.5V17h1.5V15.5h-6v3H38.4Zm-9,4.5h1.5V20H29.4Zm10.5,0h1.5V20H39.9Zm-6,3h1.5V23H33.9Zm9,0h1.5V23H42.9ZM35.4,23h1.5v3h7.5v7.5H42.9V35H41.4V33.5h1.5v-6h-6V29H35.4v3H33.9v1.5h-3V35h-3V33.5h3V32h3V29h1.5V27.5h-6V26h6Zm9,0h4.5v1.5H47.4V26H45.9V24.5H44.4Zm-4.5,9h1.5v1.5H39.9ZM52.8,11Zm9,0h1.5v6h9V32H70.8v1.5H69.3V35H67.8V33.5h1.5V32h1.5V18.5H63.3v6H61.8v3H60.3v3H58.8V32H57.3v1.5H55.8V35H54.3V33.5h1.5V32h1.5V30.5h1.5v-3h1.5v-3h1.5v-6H54.3V17h7.5Zm3,19.5h1.5V32H64.8ZM66.3,32h1.5v1.5H66.3ZM79.2,11Zm4.5,0h1.5v3H83.7v3H82.2v1.5h1.5V17h1.5v1.5h3v6h13.5V26h-6v3H94.2V26H92.7v7.5h1.5V32h1.5v1.5H94.2V35h-3V26h-3v1.5H86.7V26H82.2v6h1.5V30.5h1.5V29h1.5v1.5H85.2V32H83.7v1.5H82.2V35H80.7V20H79.2V18.5h1.5V17h1.5V14h1.5Zm7.5,1.5h7.5V23H91.2Zm-6,1.5h1.5v1.5H85.2Zm7.5,0v3h1.5V14Zm3,0v3h1.5V14Zm-9,1.5h1.5V17H86.7Zm6,3v3h1.5v-3Zm3,0v3h1.5v-3ZM82.2,20v1.5h4.5V20Zm0,3v1.5h4.5V23Zm1.5,4.5h1.5V29H83.7Zm15,0h1.5V29H98.7v3H97.2V30.5H95.7V29h3Zm-12,3h1.5v3H86.7Zm12,1.5h3v1.5h-3Zm6.9-21Zm6,0h1.5v3h-1.5v3h-1.5v1.5h1.5V17h1.5v1.5h4.5V17h1.5V11h1.5v4.5h6v12h-1.5V29h-1.5V27.5h1.5V17h-6v1.5h-1.5V20h-1.5v7.5h-1.5V26h-4.5v6h1.5V30.5h1.5V29h1.5v1.5h-1.5V32h-1.5v1.5h-1.5V35h-1.5V20h-1.5v1.5h-1.5V20h1.5V18.5h1.5V17h1.5V14h1.5Zm1.5,3h1.5v1.5h-1.5Zm1.5,1.5h1.5V17h-1.5ZM110.1,20v1.5h4.5V20Zm7.5,0h6v7.5h-1.5V26h-3v6h-1.5Zm1.5,1.5v3h3v-3Zm-9,1.5v1.5h4.5V23Zm1.5,4.5h1.5V29h-1.5Zm15,1.5h1.5v4.5h-9V32h7.5Zm-12,1.5h1.5v3h-1.5ZM132,11Zm10.5,0H144v1.5h-1.5V14H141v1.5h9V35h-1.5V33.5H138V35h-1.5V15.5h3V14H141V12.5h1.5ZM138,17v4.5h10.5V17Zm0,6v3h10.5V23Zm0,4.5V32h10.5V27.5ZM158.4,11Zm1.5,3h16.5V24.5h-1.5V23h-12v9h-1.5V21.5h13.5v-6h-15Zm18,15h1.5v4.5H162.9V32h15Zm6.9-18Zm3,0h1.5v1.5h-1.5Zm10.5,0h1.5v7.5h7.5V20h-4.5V32h-1.5V20h-1.5v9h-1.5v3h-1.5v1.5h-1.5V35h-1.5V33.5h1.5V32h1.5V29h1.5V20h-4.5v6h-3v7.5h-1.5V35h-1.5V33.5h1.5V26h-3V20h7.5V18.5h4.5Zm-9,1.5h1.5V14h-1.5Zm12,0h1.5V14h-1.5Zm1.5,1.5h1.5v1.5h-1.5Zm-18,1.5h10.5V17H184.8Zm3,6v3h4.5v-3Zm-1.5,6h1.5V29h-1.5v1.5h-1.5V29h1.5Zm6,0h1.5V29h-1.5Zm1.5,1.5h1.5v1.5h-1.5Zm12,0h1.5v4.5h-4.5V32h3Zm-19.5,3h1.5v1.5h-1.5Zm24.9-21Zm4.5,0h1.5v6h1.5V15.5h1.5V14h6V11h1.5v3h6v1.5h-6V17h4.5v1.5h-4.5V20h6v1.5H217.2V23h1.5v1.5h-1.5V35h-1.5V24.5h-1.5v3h-1.5V29h-1.5V27.5h1.5v-3h1.5v-3h-3V20h4.5Zm-4.5,3h1.5v1.5h-1.5Zm1.5,1.5h1.5v3h-1.5Zm7.5,0V17h-1.5v1.5h-1.5V20h9V18.5h-4.5V17h4.5V15.5Zm1.5,7.5h10.5V33.5h-1.5V35h-1.5V33.5h1.5v-3h-7.5V35h-1.5Zm-3,1.5h1.5v3h-1.5Zm4.5,0V26h7.5V24.5Zm0,3V29h7.5V27.5Zm4.5,4.5h1.5v1.5h-1.5Zm9.9-21Zm12,0h1.5v1.5h-1.5Zm1.5,1.5h1.5V14h7.5v1.5h-7.5v3h6v3h-1.5V20h-4.5v3h4.5v3h-1.5v1.5h-1.5V29h-1.5v1.5h-1.5V32h-1.5v1.5h-1.5V35h-3V33.5h3V32h1.5V30.5h1.5V29h1.5V27.5h1.5V26h1.5V24.5h-6v3h-1.5v-3h-1.5v6h-1.5v3h-1.5V35h-1.5V33.5h1.5v-3h1.5v-12h6v-3h-7.5V29h-1.5v3h-1.5v1.5h-1.5V35h-1.5V33.5h1.5V32h1.5V29h1.5V24.5h-1.5V26h-1.5v1.5h-1.5V26h1.5V24.5h1.5V23h1.5V14h9Zm-13.5,3h1.5V17h-1.5Zm1.5,1.5h1.5v3h-1.5Zm7.5,3v3h4.5V20Zm3,7.5h1.5V29h-1.5Zm3,3h3V32h-3Zm3,1.5h4.5v1.5h-1.5V35h-1.5V33.5h-1.5ZM264,11Zm9,0h1.5v6h9V32H282v1.5h-1.5V35H279V33.5h1.5V32H282V18.5h-7.5v6H273v3h-1.5v3H270V32h-1.5v1.5H267V35h-1.5V33.5H267V32h1.5V30.5H270v-3h1.5v-3H273v-6h-7.5V17H273Zm3,19.5h1.5V32H276Zm1.5,1.5H279v1.5h-1.5Zm12.9-21Zm10.5,0h1.5v1.5h6v3h3V17h-3v3h-6v1.5h10.5V23h-3v1.5h-1.5V23h-3v1.5h-1.5V23h-4.5v1.5h-1.5V23h-3v3h-1.5v1.5h-1.5V26h1.5V23h-3V21.5h10.5V20h-6V18.5h6V17h-9V15.5h9V14h-6V12.5h6Zm1.5,3v1.5h4.5V14Zm0,3v1.5h4.5V17Zm-3,7.5h1.5v3h4.5v-3h1.5v3h3v-3h1.5v3h-1.5V32h3v1.5H290.4V32h3V27.5h6ZM294.9,29v3h3V29Zm4.5,0v3h4.5V29Zm6,0v3h3V29Zm23.376-4.3a1.452,1.452,0,0,0-1.128.408,1.393,1.393,0,0,0-.432,1.08,1.428,1.428,0,0,0,.408,1.056,1.4,1.4,0,0,0,1.032.432,1.285,1.285,0,0,0,.528-.1,2.83,2.83,0,0,1-.5,1.608,3.471,3.471,0,0,1-1.536,1.056v1.176a4.63,4.63,0,0,0,2.472-1.56,4.5,4.5,0,0,0,.936-2.808,2.788,2.788,0,0,0-.48-1.68A1.532,1.532,0,0,0,328.776,24.7ZM343.2,11Zm4.5,0h1.5v6h3v1.5h-3V20h1.5v1.5h-1.5V35h-1.5V23h-1.5v3h-1.5v1.5h-1.5V26h1.5V23h1.5V20h1.5V18.5h-4.5V17h4.5Zm6,1.5h9V23h-4.5v3h-1.5V23h-1.5v9h1.5V30.5h1.5V32h-1.5v1.5h-1.5V35h-1.5Zm1.5,1.5v3h6V14Zm0,4.5v3h6v-3Zm-4.5,3h1.5v3h-1.5Zm12,1.5h1.5v1.5h-1.5V26h-1.5v1.5h-1.5V29h-1.5V26h3V24.5h1.5Zm-3,6h1.5v1.5h-1.5Zm1.5,1.5h4.5V32h-1.5v1.5h-1.5V32h-1.5ZM369.6,11Zm10.5,0h1.5v6h9v1.5h-7.5V20h-1.5v7.5h4.5V26h1.5v1.5h-1.5V29h-4.5v6h-1.5V29h-4.5V27.5h4.5V20h-1.5v3h-1.5v3h-1.5v1.5h-1.5V29h-1.5v1.5h-3V29h3V27.5h1.5V26h1.5V23h1.5V20h1.5V18.5h-7.5V17h9Zm3,9h1.5v3h-1.5Zm1.5,3h1.5v3h-1.5Zm3,4.5h4.5V29h-1.5v1.5h-1.5V29h-1.5ZM396,11Zm12,0h1.5v3H417v4.5h-1.5V20h-3V18.5h3v-3H408v3h-1.5V20H405V18.5h1.5v-3H408Zm-9,1.5h1.5V14H399Zm1.5,1.5H402v3h-1.5ZM396,17h1.5v1.5H396Zm1.5,1.5H399v3h-1.5ZM402,20h1.5v3H402v3h-1.5v7.5H399v-6h-3V26h4.5V23H402Zm4.5,1.5H417v3h-1.5v3H414V29h-1.5v1.5H411V32h-1.5v1.5h-3V35h-3V33.5h3V32h3V30.5H411V29h1.5V27.5H414v-3h1.5V23h-6v3H408V23h-1.5Zm3,4.5H411v3h-1.5Zm3,4.5H414V32h-1.5ZM414,32h4.5v1.5H417V35h-1.5V33.5H414Zm8.4-21Zm9,0h1.5v3h12v1.5H431.4v3h9v15h-1.5V35h-1.5V33.5h1.5V29h-9v6h-1.5V23h-1.5v1.5h-1.5V26h-1.5v1.5h-1.5V26h1.5V24.5h1.5V23h1.5V21.5h1.5v-3h1.5v-3h-7.5V14h9Zm-1.5,9v3h9V20Zm0,4.5v3h9v-3Zm6,7.5h1.5v1.5h-1.5Zm12.9-21Zm9,0h1.5v3h7.5v1.5h-1.5V17h-1.5v1.5h-1.5V20h-3v1.5h-1.5V23h-3v1.5h-4.5V23h4.5V21.5h3V20h1.5V18.5h3V17h1.5V15.5h-7.5v3h-3V20h-1.5V18.5h1.5V17h1.5V15.5h1.5V14h1.5Zm-1.5,7.5h1.5V20h-1.5Zm6,1.5h1.5v1.5h-1.5V23h7.5v1.5h-1.5V26h-1.5v1.5h-1.5V29h-1.5v1.5h-1.5V32h-3v1.5h-4.5V35h-4.5V33.5h4.5V32h4.5V29h1.5v1.5h1.5V29h1.5V27.5h1.5V26h1.5V24.5h-7.5V26h-1.5v1.5h-3V29h-3V27.5h3V26h3V24.5h1.5V23h1.5V21.5h1.5Zm-4.5,7.5h1.5V29h-1.5ZM475.2,11Zm6,0h1.5v3h-1.5v3h-1.5v1.5h1.5V17h1.5v1.5h3V17h1.5v1.5h-1.5v9h-1.5V26h-4.5v6h1.5V30.5h1.5V29h1.5v1.5h-1.5V32h-1.5v1.5h-1.5V35h-1.5V20h-1.5v1.5h-1.5V20h1.5V18.5h1.5V17h1.5V14h1.5Zm10.5,0h1.5v3h-1.5v3h-1.5v1.5h-1.5V20h-1.5V18.5h1.5V17h1.5V14h1.5Zm-9,3h1.5v1.5h-1.5Zm10.5,0h1.5v3h-1.5Zm-9,1.5h1.5V17h-1.5ZM494.7,17h1.5v1.5h-1.5Zm1.5,1.5h1.5V20h-1.5v1.5h-3v3h4.5V26h-4.5v7.5h-1.5V35h-1.5V33.5h1.5V26h-4.5V24.5h4.5v-3h-3V20h7.5ZM479.7,20v1.5h4.5V20Zm0,3v1.5h4.5V23Zm1.5,4.5h1.5V29h-1.5Zm7.5,0h1.5v3h-1.5V32h-1.5V30.5h1.5Zm6,0h1.5V29h-1.5Zm1.5,1.5h1.5v3h-1.5Zm-12,1.5h1.5v3h-1.5Zm4.5,1.5h1.5v1.5h-1.5Zm12.9-21Zm4.5,0h1.5v3h-1.5v1.5h6V20h1.5V17h1.5V11h1.5v4.5h6V32h-1.5v1.5h-1.5V35h-1.5V33.5h1.5V32h1.5V17h-6v3h-1.5v1.5h-1.5v12h-1.5V32h-6v1.5h-1.5v-18h1.5V14h1.5Zm-1.5,6v6h6V17Zm10.5,4.5h1.5V23h-1.5Zm1.5,1.5h1.5v3h-1.5Zm-12,1.5v6h6v-6Zm12,7.5h1.5v1.5h-1.5ZM528,11Zm4.5,0H534v3h1.5v1.5h-3v3H537V17h1.5V15.5H543V11h1.5v3h3V12.5H549V14h1.5v1.5H549V17h-1.5v1.5H546V20h-3v1.5h-1.5V23h-3v1.5H534v3h1.5V26H537v1.5h-1.5V29H534v1.5h6V32h-6v1.5h-3V35h-1.5V33.5H528V32h4.5V24.5H528V23h4.5V20h-3v1.5H528V20h1.5V18.5H531v-3h1.5ZM546,11h1.5v1.5H546Zm-10.5,4.5H537V17h-1.5Zm9,0v3H546V17h1.5V15.5Zm-6,1.5v1.5H537V20h-3v3h4.5V21.5h3V20H543V17ZM549,18.5h1.5v3h-3V23H546V20h3Zm-6,3h1.5v3h3V23H549v1.5h1.5v3H549V29h-1.5v3H546V30.5h-1.5V32H543v1.5h-3V32h3V30.5h1.5v-3H546V29h1.5V27.5H549V26h-4.5v1.5h-6V26H543ZM528,26h1.5v1.5H528Zm1.5,1.5H531V29h-1.5Zm19.5,3h1.5V35H549V33.5h-1.5V32H549ZM554.4,11Zm13.5,0h1.5v3h4.5v1.5h-4.5V17h6v1.5h-3V20h-1.5v1.5h4.5V23h-6v1.5h4.5V26h-4.5v1.5h6V29h-6v3h7.5v1.5h-15V32h6V29h-6V27.5h6V26h-4.5V24.5h4.5V23h-6V21.5h4.5V20h1.5v1.5h1.5V20h1.5V18.5h-4.5V20h-1.5V18.5h-3V17h6V15.5h-4.5V14h4.5Zm-10.5,1.5h1.5V14h-1.5Zm1.5,1.5h1.5v3h-1.5Zm-4.5,6h6V30.5h-1.5V32h-1.5v1.5h-1.5V32h1.5V30.5h1.5v-9h-4.5Zm6,10.5h1.5V32h-1.5ZM580.8,11Zm12,0h1.5v4.5h4.5v-3h1.5v3h3V17h-9v4.5h-1.5V17h-7.5v4.5h6V29h-1.5v1.5h-1.5V29h1.5V23h-4.5v7.5h-1.5V32h-1.5v1.5h-1.5V32h1.5V30.5h1.5v-15h9Zm4.5,0h1.5v1.5h-1.5Zm3,9h1.5v3h-1.5v3h-1.5v1.5h-1.5v3h-3V32h-1.5v1.5h-1.5V35h-1.5V33.5h1.5V32h1.5V30.5h1.5V29h1.5V26h3V23h1.5Zm-6,1.5h1.5V26h-1.5Zm-7.5,6h1.5V29h-1.5Zm15,1.5h1.5v6h-3V33.5h1.5Zm-4.5,1.5h1.5V32h-1.5Zm1.5,1.5h1.5v1.5h-1.5Zm8.4-21Zm6,0h1.5v3h7.5V11h1.5v3h6v1.5h-6V17h3v4.5H610.2V17h3V15.5h-6V14h6Zm1.5,4.5V17h7.5V15.5Zm-3,3V20h3V18.5Zm4.5,0V20h4.5V18.5Zm6,0V20h3V18.5ZM608.7,23h21v3h-1.5v1.5h-1.5V26h1.5V24.5H617.7V26h7.5v3h-1.5v1.5h-3V32h-3v1.5h-3V35h-6V33.5h6V32h3V30.5h3V29h3V27.5h-7.5V29h-3v1.5h-3V29h3V27.5h1.5V26h1.5V24.5h-6V26h-1.5v1.5h-1.5V26h1.5Zm7.5,6h1.5v1.5h-1.5Zm17.4-18Zm6,0h1.5v4.5h3V17h-3v1.5h1.5V20h-1.5v7.5h-1.5V20h-1.5v1.5h-1.5V23h-1.5V21.5h1.5V20h1.5V18.5h1.5V17h-4.5V15.5h4.5Zm6,1.5h7.5V26h-7.5Zm1.5,1.5v3h4.5V14Zm0,4.5V20h4.5V18.5ZM642.6,20h1.5v1.5h-1.5Zm4.5,1.5v3h4.5v-3ZM642.6,26h1.5v1.5h-1.5Zm1.5,1.5h1.5v3h-1.5ZM636.6,29h1.5v3h-1.5v1.5h-1.5V32h1.5Zm3,0h1.5v4.5h-1.5Zm12,0h1.5v1.5h-1.5Zm-3,1.5h1.5V35h-9V33.5h7.5Zm4.5,0h1.5v3h-1.5Zm19.26-12.972a5.172,5.172,0,0,0-4.032,1.584,5.819,5.819,0,0,0-1.44,4.032h1.92a4.341,4.341,0,0,1,.792-2.76,3.067,3.067,0,0,1,2.664-1.176,3.141,3.141,0,0,1,2.352.84,3.03,3.03,0,0,1,.816,2.232,3.084,3.084,0,0,1-.7,1.9,16.324,16.324,0,0,1-1.56,1.512,7.471,7.471,0,0,0-1.608,1.944,4.7,4.7,0,0,0-.528,2.28v.552h1.92v-.552a3.437,3.437,0,0,1,.456-1.776,4.54,4.54,0,0,1,1.128-1.3c1.056-.936,1.7-1.56,1.968-1.848a4.662,4.662,0,0,0,.888-2.808,4.308,4.308,0,0,0-1.368-3.384A5.107,5.107,0,0,0,672.36,17.528ZM672,32.144a1.374,1.374,0,0,0-1.032.408,1.288,1.288,0,0,0-.408,1.008,1.374,1.374,0,0,0,.408,1.032A1.471,1.471,0,0,0,672,35a1.53,1.53,0,0,0,1.056-.408,1.392,1.392,0,0,0,.408-1.032,1.375,1.375,0,0,0-.408-1.008A1.428,1.428,0,0,0,672,32.144ZM0,46Zm4.5,0H6v4.5H4.5V70H3V55H1.5v1.5H0V55H1.5V53.5H3v-3H4.5Zm6,0H12v4.5h9v3H19.5V55H18V53.5h1.5V52h-9v1.5H9V55H7.5v1.5H6V55H7.5V53.5H9v-3h1.5Zm3,9H15V68.5H13.5V70H12V68.5h1.5Zm-3,3H12v3H10.5v1.5H9V64H7.5V62.5H9V61h1.5Zm6,0H18v1.5H16.5ZM18,59.5h1.5V61H18ZM19.5,61H21v3H19.5Zm-9,6H12v1.5H10.5ZM26.4,46Zm1.5,1.5h9V49H35.4v1.5H33.9V52h3v7.5H35.4V61h1.5v1.5H35.4v6H33.9V70H32.4V68.5h1.5v-9h-3V52h1.5V50.5h1.5V49H29.4V64h1.5V61h1.5v3H30.9v1.5H29.4V67H27.9v1.5H26.4V67h1.5Zm10.5,0H48.9V49H44.4v1.5H42.9V52h4.5V62.5h-9v3H36.9v-3h1.5V52h3V50.5h1.5V49H38.4Zm-6,6V55h3V53.5Zm7.5,0V55h6V53.5Zm-7.5,3V58h3V56.5Zm7.5,0V58h6V56.5Zm0,3V61h6V59.5Zm0,6h1.5V67H39.9v1.5H38.4V70H36.9V68.5h1.5V67h1.5Zm4.5,0h1.5V67H44.4ZM30.9,67h1.5v1.5H30.9Zm15,0h3v3H47.4V68.5H45.9Zm6.9-21Zm10.5,0h1.5v1.5h7.5V49h-3v1.5H67.8V52h7.5v1.5H52.8V52h7.5V50.5h1.5V52h4.5V50.5h1.5V49H60.3v1.5H58.8V49h-3V47.5h7.5Zm-6,9H70.8v7.5h-6V64H63.3V62.5h-6Zm1.5,1.5V58H69.3V56.5Zm0,3V61H69.3V59.5Zm0,4.5h1.5v4.5H58.8Zm6,0h1.5v3H64.8Zm7.5,0h1.5v1.5H72.3Zm-18,1.5h1.5v3H54.3V70H52.8V68.5h1.5Zm15,0h1.5V70H60.3V68.5h9Zm4.5,0h1.5v3H73.8ZM79.2,46Zm6,0h1.5v4.5H85.2V70H83.7V55H82.2v1.5H80.7V58H79.2V56.5h1.5V55h1.5V53.5h1.5v-3h1.5Zm10.5,0h1.5v7.5h4.5V55H97.2V68.5H95.7V70H94.2V68.5h1.5V55h-9V53.5h9Zm-6,12h1.5v1.5H89.7Zm1.5,1.5h1.5v3H91.2ZM92.7,67h1.5v1.5H92.7Zm12.9-21Zm10.5,0h1.5v9h4.5V49h1.5v9h-1.5V56.5h-4.5V67h6V61h1.5v9h-1.5V68.5h-15V61h1.5v6h6V56.5h-6V49h1.5v6h4.5ZM132,46Zm9,0h1.5v3H150v1.5h-1.5V52H147v1.5h-1.5V55h-3v1.5H141V58h-3v1.5h-4.5V58H138V56.5h3V55h1.5V53.5h3V52H147V50.5h-7.5v3h-3V55H135V53.5h1.5V52H138V50.5h1.5V49H141Zm-1.5,7.5H141V55h-1.5Zm6,1.5H147v1.5h-1.5V58H153v1.5h-1.5V61H150v1.5h-1.5V64H147v1.5h-1.5V67h-3v1.5H138V70h-4.5V68.5H138V67h4.5V64H144v1.5h1.5V64H147V62.5h1.5V61H150V59.5h-7.5V61H141v1.5h-3V64h-3V62.5h3V61h3V59.5h1.5V58H144V56.5h1.5ZM141,62.5h1.5V64H141ZM158.4,46Zm10.5,0h1.5V62.5h-1.5Zm-4.5,4.5h1.5v3h-1.5v3h-1.5V58h-1.5v1.5h-1.5V58h1.5V56.5h1.5v-3h1.5Zm10.5,0h1.5V52h-1.5Zm1.5,1.5h1.5v1.5h-1.5Zm1.5,1.5h1.5v3h-1.5Zm-3,3h1.5v3h-1.5V61h-1.5v1.5h-1.5V64h-1.5v1.5h-1.5V67h-1.5v1.5h-3V70h-4.5V68.5h4.5V67h3V65.5h1.5V64h1.5V62.5h1.5V61h1.5V59.5h1.5ZM184.8,46Zm10.5,0h1.5v3h9v1.5h-9V58h1.5V56.5h1.5V52h1.5v4.5h-1.5V58h-1.5v3h-1.5v9h-1.5V61h-1.5v1.5h-1.5V64h-1.5v1.5h-3V67h-3V65.5h3V64h3V62.5h1.5V61h1.5V58h1.5V50.5h-9V49h9Zm-4.5,6h1.5v4.5h-1.5V58h-1.5v1.5h-1.5V58h1.5V56.5h1.5Zm1.5,4.5h1.5V58h-1.5Zm9,0h1.5V58h-1.5Zm1.5,1.5h1.5v1.5h-1.5Zm-4.5,3h1.5v1.5h-1.5Zm1.5,1.5h3V64h-3Zm3,1.5h4.5v1.5h-1.5V67h-1.5V65.5h-1.5Zm8.4-18Zm9,0h1.5v1.5h-1.5Zm1.5,1.5h1.5V49h9v3h-1.5v1.5h-1.5V52h1.5V50.5H214.2V52h-1.5v1.5h-1.5V52h1.5V49h9Zm-6,6h12V55h-12Zm-3,4.5h19.5v1.5h-7.5V67h-1.5V59.5h-3V64h-1.5v3h-1.5v1.5h-1.5V70h-3V68.5h3V67h1.5V64h1.5V59.5h-6Zm18,4.5h1.5v6h-7.5V67h6ZM237.6,46Zm12,0h1.5v4.5h4.5v-3h1.5v3h3V52h-9v4.5h-1.5V52h-7.5v4.5h6V64h-1.5v1.5h-1.5V64h1.5V58h-4.5v7.5h-1.5V67h-1.5v1.5h-1.5V67h1.5V65.5h1.5v-15h9Zm4.5,0h1.5v1.5h-1.5Zm3,9h1.5v3h-1.5v3h-1.5v1.5h-1.5v3h-3V67h-1.5v1.5h-1.5V70h-1.5V68.5h1.5V67h1.5V65.5h1.5V64h1.5V61h3V58h1.5Zm-6,1.5h1.5V61h-1.5Zm-7.5,6h1.5V64h-1.5Zm15,1.5h1.5v6h-3V68.5h1.5Zm-4.5,1.5h1.5V67h-1.5Zm1.5,1.5h1.5v1.5h-1.5ZM264,46Zm10.5,0H276v1.5h-1.5V49H273v1.5h9V70h-1.5V68.5H270V70h-1.5V50.5h3V49H273V47.5h1.5ZM270,52v4.5h10.5V52Zm0,6v3h10.5V58Zm0,4.5V67h10.5V62.5ZM290.4,46Zm1.5,3h16.5V59.5h-1.5V58h-12v9h-1.5V56.5h13.5v-6h-15Zm18,15h1.5v4.5H294.9V67h15Zm6.9-18Zm4.5,0h1.5v3h-1.5v1.5h6V55h1.5V52h1.5V46h1.5v4.5h6V67h-1.5v1.5h-1.5V70h-1.5V68.5h1.5V67h1.5V52h-6v3h-1.5v1.5h-1.5v12h-1.5V67h-6v1.5h-1.5v-18h1.5V49h1.5Zm-1.5,6v6h6V52Zm10.5,4.5h1.5V58h-1.5Zm1.5,1.5h1.5v3h-1.5Zm-12,1.5v6h6v-6Zm12,7.5h1.5v1.5h-1.5Zm11.4-21Zm6,0h1.5v3h7.5V46h1.5v3h6v1.5h-6V52h3v4.5H346.2V52h3V50.5h-6V49h6Zm1.5,4.5V52h7.5V50.5Zm-3,3V55h3V53.5Zm4.5,0V55h4.5V53.5Zm6,0V55h3V53.5ZM344.7,58h21v3h-1.5v1.5h-1.5V61h1.5V59.5H353.7V61h7.5v3h-1.5v1.5h-3V67h-3v1.5h-3V70h-6V68.5h6V67h3V65.5h3V64h3V62.5h-7.5V64h-3v1.5h-3V64h3V62.5h1.5V61h1.5V59.5h-6V61h-1.5v1.5h-1.5V61h1.5Zm7.5,6h1.5v1.5h-1.5Zm17.4-18Zm6,0h1.5v4.5h3V52h-3v1.5h1.5V55h-1.5v7.5h-1.5V55h-1.5v1.5h-1.5V58h-1.5V56.5h1.5V55h1.5V53.5h1.5V52h-4.5V50.5h4.5Zm6,1.5h7.5V61h-7.5Zm1.5,1.5v3h4.5V49Zm0,4.5V55h4.5V53.5ZM378.6,55h1.5v1.5h-1.5Zm4.5,1.5v3h4.5v-3ZM378.6,61h1.5v1.5h-1.5Zm1.5,1.5h1.5v3h-1.5ZM372.6,64h1.5v3h-1.5v1.5h-1.5V67h1.5Zm3,0h1.5v4.5h-1.5Zm12,0h1.5v1.5h-1.5Zm-3,1.5h1.5V70h-9V68.5h7.5Zm4.5,0h1.5v3h-1.5Zm19.26-12.972a5.172,5.172,0,0,0-4.032,1.584,5.818,5.818,0,0,0-1.44,4.032h1.92a4.341,4.341,0,0,1,.792-2.76,3.067,3.067,0,0,1,2.664-1.176,3.141,3.141,0,0,1,2.352.84,3.029,3.029,0,0,1,.816,2.232,3.084,3.084,0,0,1-.7,1.9,16.312,16.312,0,0,1-1.56,1.512,7.472,7.472,0,0,0-1.608,1.944,4.7,4.7,0,0,0-.528,2.28v.552h1.92v-.552a3.437,3.437,0,0,1,.456-1.776,4.54,4.54,0,0,1,1.128-1.3c1.056-.936,1.7-1.56,1.968-1.848a4.662,4.662,0,0,0,.888-2.808,4.308,4.308,0,0,0-1.368-3.384A5.107,5.107,0,0,0,408.36,52.528ZM408,67.144a1.374,1.374,0,0,0-1.032.408,1.288,1.288,0,0,0-.408,1.008,1.374,1.374,0,0,0,.408,1.032A1.472,1.472,0,0,0,408,70a1.53,1.53,0,0,0,1.056-.408,1.392,1.392,0,0,0,.408-1.032,1.375,1.375,0,0,0-.408-1.008A1.428,1.428,0,0,0,408,67.144Z" transform="translate(344 153)" fill="#132941"/>
  </g>
</svg>
