<svg xmlns="http://www.w3.org/2000/svg" width="680" height="72" viewBox="0 0 680 72">
  <g id="g3-a" transform="translate(-5327 -3547)">
    <g id="Path_54258" data-name="Path 54258" transform="translate(5327 3546.999)" fill="#ffda2d">
      <path d="M 672.8876342773438 70.00090026855469 L 7.113921642303467 70.00090026855469 L 7.114001750946045 68.23335266113281 L 5.113911151885986 68.23335266113281 L 2.0000901222229 68.23335266113281 L 2.000004529953003 3.767536640167236 L 5.11382007598877 3.767536640167236 L 7.113729000091553 3.767536640167236 L 7.113809585571289 2.000900268554688 L 672.8875122070312 2.000900268554688 L 672.887451171875 3.767536640167236 L 674.8875732421875 3.767536640167236 L 678.0005493164062 3.767536640167236 L 678.00048828125 68.23426055908203 L 674.8876342773438 68.23426055908203 L 672.8877563476562 68.23426055908203 L 672.8876342773438 70.00090026855469 Z" stroke="none"/>
      <path d="M 670.8877563476562 68.00090026855469 L 670.8878173828125 66.23426055908203 L 674.8876342773438 66.23426055908203 L 676.00048828125 66.23426055908203 L 676.0005493164062 5.767536640167236 L 674.8875732421875 5.767536640167236 L 670.8873901367188 5.767536640167236 L 670.887451171875 4.000900268554688 L 9.11371898651123 4.000900268554688 L 9.113637924194336 5.767536640167236 L 5.11382007598877 5.767536640167236 L 4.000007152557373 5.767536640167236 L 4.000087738037109 66.23335266113281 L 5.113911151885986 66.23335266113281 L 9.114092826843262 66.23335266113281 L 9.114012718200684 68.00090026855469 L 670.8877563476562 68.00090026855469 M 674.8876342773438 72.00090026855469 L 674.8875732421875 72.00090026855469 L 674.8865356445312 72.00090026855469 L 674.8875732421875 72.00090026855469 L 674.8876342773438 72.00090026855469 Z M 674.8876342773438 72.00090026855469 L 5.11382007598877 72.00090026855469 L 5.113911151885986 70.23335266113281 L 9.284001862397417e-05 70.23335266113281 L 1.930930466187419e-06 1.767536640167236 L 5.11382007598877 1.767536640167236 L 5.113911151885986 0.0009002685546875 L 674.8876342773438 0.0009002685546875 L 674.8875732421875 1.767536640167236 L 680.0005493164062 1.767536640167236 L 680.0004272460938 70.23426055908203 L 674.8876342773438 70.23426055908203 L 674.8875732421875 71.99990081787109 L 674.8875732421875 72.00090026855469 Z" stroke="none" fill="#fff"/>
    </g>
    <path id="Path_54261" data-name="Path 54261" d="M2,0H.29l4.2-13.641h1.8L10.521,0H8.648L7.717-3h-4.8ZM3.34-4.359H7.321L5.678-9.536l-.387-1.371L4.948-9.536ZM18,.413a1.379,1.379,0,0,1-1.011-.422,1.379,1.379,0,0,1-.422-1.011,1.368,1.368,0,0,1,.426-1.015A1.391,1.391,0,0,1,18-2.452,1.391,1.391,0,0,1,19-2.035a1.368,1.368,0,0,1,.426,1.015,1.379,1.379,0,0,1-.422,1.011A1.379,1.379,0,0,1,18,.413ZM28-18Zm7.875,0H37v3.375h2.25V-15.75h1.125v-1.125H41.5v1.125H40.375v1.125h4.5v2.25H43.75v1.125H42.625v-1.125H43.75V-13.5H30.25v1.125H29.125v1.125H28v-1.125h1.125v-2.25H32.5V-15.75h1.125v1.125h2.25Zm-4.5,1.125H32.5v1.125H31.375Zm1.125,4.5h7.875v4.5H32.5Zm1.125,1.125V-9H39.25v-2.25ZM30.25-6.75H42.625V0H41.5V-1.125H31.375V0H30.25Zm1.125,1.125V-4.5h4.5V-5.625Zm5.625,0V-4.5h4.5V-5.625Zm-5.625,2.25V-2.25h4.5V-3.375Zm5.625,0V-2.25h4.5V-3.375ZM47.8-18Zm3.375,0H52.3v3.375h3.375v2.25H59.05V-18h1.125v5.625h4.5v1.125h-4.5v1.125H59.05v2.25H57.925V-6.75H56.8v1.125H55.675V-4.5H54.55V-5.625h1.125V-6.75H56.8V-7.875h1.125v-2.25H59.05V-11.25H55.675v1.125H54.55v2.25H53.425V-6.75H52.3v1.125H51.175V-4.5H50.05v1.125H48.925V-4.5H50.05V-5.625h1.125V-6.75H52.3V-7.875h1.125v-2.25H54.55V-13.5H51.175v1.125H52.3v1.125H50.05v1.125H48.925V-9H47.8v-1.125h1.125V-11.25H50.05V-13.5h1.125ZM61.3-15.75h1.125v1.125H61.3Zm1.125,1.125H63.55V-13.5H62.425ZM52.3-11.25h1.125v1.125H52.3Zm-2.25,1.125h1.125V-9H50.05Zm10.125,0H61.3v2.25H60.175ZM51.175-9H52.3v1.125H51.175ZM61.3-7.875h1.125V-6.75H61.3ZM62.425-6.75h2.25v1.125H63.55V-4.5H62.425ZM50.05-3.375h1.125v2.25H50.05V0H48.925V-1.125H50.05Zm3.375,0H54.55V-2.25H53.425Zm4.5,0H59.05V-2.25H57.925Zm4.5,0H63.55V-2.25H62.425ZM54.55-2.25h1.125V0H54.55Zm4.5,0h1.125V0H59.05Zm4.5,0h1.125V0H63.55ZM67.6-18Zm1.125,1.125h15.75v1.125H81.1V-1.125H79.975V0H78.85V-1.125h1.125V-15.75H68.725ZM72.1-13.5h5.625v9H76.6V-5.625H73.225V-4.5H72.1Zm1.125,1.125V-6.75H76.6v-5.625Zm4.5,10.125H78.85v1.125H77.725ZM87.4-18Zm5.625,1.125H94.15v1.125H93.025Zm7.875,0h1.125V-9H100.9v3.375H99.775V-4.5H100.9v1.125H98.65V-2.25H97.525v1.125h-2.25V0h-2.25V-1.125h2.25V-2.25h2.25V-3.375H98.65v-2.25h1.125V-9H100.9ZM89.65-15.75h1.125V-3.375H91.9V-4.5h1.125V-5.625H94.15V-6.75h1.125V-7.875H96.4V-6.75H95.275v1.125H94.15V-4.5H93.025v1.125H91.9V-2.25H90.775v1.125H89.65Zm4.5,0h1.125v1.125H94.15Zm1.125,1.125H96.4v2.25H95.275ZM100.9-3.375h1.125V-2.25H100.9Zm1.125,1.125h1.125V0h-1.125Zm13.347-10.6.27,9.4h1.116l.288-9.4Zm.828,10.71a1.031,1.031,0,0,0-.774.306.966.966,0,0,0-.306.756,1.031,1.031,0,0,0,.306.774A1.1,1.1,0,0,0,116.2,0a1.147,1.147,0,0,0,.792-.306,1.044,1.044,0,0,0,.306-.774,1.031,1.031,0,0,0-.306-.756A1.071,1.071,0,0,0,116.2-2.142Z" transform="translate(5367 3590)" fill="#15172a"/>
  </g>
</svg>
