<svg xmlns="http://www.w3.org/2000/svg" width="728.416" height="74.749" viewBox="0 0 728.416 74.749">
  <g id="g3-b1" transform="translate(-6242 -3643)">
    <g id="Path_54265" data-name="Path 54265" transform="translate(6242 3644)" fill="#15172a">
      <path d="M 672.8868408203125 70 L 7.113303184509277 70 L 7.113303184509277 68.23336029052734 L 5.113303184509277 68.23336029052734 L 2.000030517578125 68.23336029052734 L 2.000030517578125 3.766818284988403 L 5.113303184509277 3.766818284988403 L 7.113303184509277 3.766818284988403 L 7.113303184509277 2 L 672.8868408203125 2 L 672.8868408203125 3.766818284988403 L 674.8868408203125 3.766818284988403 L 678 3.766818284988403 L 678 68.23336029052734 L 674.8868408203125 68.23336029052734 L 672.8868408203125 68.23336029052734 L 672.8868408203125 70 Z" stroke="none"/>
      <path d="M 670.8868408203125 68 L 670.8868408203125 66.23336029052734 L 674.8868408203125 66.23336029052734 L 676 66.23336029052734 L 676 5.766818046569824 L 674.8868408203125 5.766818046569824 L 670.8868408203125 5.766818046569824 L 670.8868408203125 4 L 9.113303184509277 4 L 9.113303184509277 5.766818046569824 L 5.113303184509277 5.766818046569824 L 4.000030517578125 5.766818046569824 L 4.000030517578125 66.23336029052734 L 5.113303184509277 66.23336029052734 L 9.113303184509277 66.23336029052734 L 9.113303184509277 68 L 670.8868408203125 68 M 674.8868408203125 72 L 5.113303184509277 72 L 5.113303184509277 70.23336029052734 L 3.0517578125e-05 70.23336029052734 L 3.0517578125e-05 1.766818165779114 L 5.113303184509277 1.766818165779114 L 5.113303184509277 0 L 674.8868408203125 0 L 674.8868408203125 1.766818165779114 L 680 1.766818165779114 L 680 70.23336029052734 L 674.8868408203125 70.23336029052734 L 674.8868408203125 71.99945831298828 L 674.8868408203125 72 Z" stroke="none" fill="#ffda2d"/>
    </g>
    <path id="Path_54268" data-name="Path 54268" d="M1.512,0V-13.641H4.175a9.185,9.185,0,0,1,3.212.365A2.553,2.553,0,0,1,8.6-12.2a3.234,3.234,0,0,1,.4,1.626,3.932,3.932,0,0,1-.237,1.367,3.724,3.724,0,0,1-.7,1.178A4.779,4.779,0,0,1,6.715-7.022a4.355,4.355,0,0,1,2.2,1.6,3.635,3.635,0,0,1,.576,1.9A3.5,3.5,0,0,1,9-1.767,3.291,3.291,0,0,1,7.638-.457,6.438,6.438,0,0,1,4.825,0ZM3.287-7.5H5.15a4.143,4.143,0,0,0,1.323-.8A2.773,2.773,0,0,0,7.1-9.224,3,3,0,0,0,7.3-10.354a1.773,1.773,0,0,0-.567-1.441,3.633,3.633,0,0,0-2.21-.475H3.287Zm0,6.135H4.966a2.857,2.857,0,0,0,2.079-.664,2.161,2.161,0,0,0,.672-1.6,2.29,2.29,0,0,0-.369-1.261A2.492,2.492,0,0,0,6.205-5.8a6.444,6.444,0,0,0-2.426-.338H3.287ZM18,.413a1.379,1.379,0,0,1-1.011-.422,1.379,1.379,0,0,1-.422-1.011,1.368,1.368,0,0,1,.426-1.015A1.391,1.391,0,0,1,18-2.452,1.391,1.391,0,0,1,19-2.035a1.368,1.368,0,0,1,.426,1.015,1.379,1.379,0,0,1-.422,1.011A1.379,1.379,0,0,1,18,.413ZM28-18Zm9,0h1.125v1.125H37Zm-6.75,1.125h1.125v1.125H30.25Zm7.875,0H39.25v1.125h4.5v1.125H33.625V-15.75h4.5Zm-6.75,1.125H32.5v2.25H31.375ZM34.75-13.5h7.875v1.125H34.75ZM28-11.25h4.5v7.875H31.375V-2.25H30.25v1.125H29.125V-2.25H30.25V-3.375h1.125v-6.75H28Zm6.75,0h7.875v1.125H34.75Zm0,2.25h7.875v5.625H41.5V-4.5H35.875v1.125H34.75Zm1.125,1.125v2.25H41.5v-2.25ZM32.5-3.375h1.125V-2.25H32.5ZM33.625-2.25h11.25v1.125H33.625ZM47.8-18Zm3.375,0H52.3v3.375H51.175V0H50.05V-11.25H48.925v1.125H47.8V-11.25h1.125v-1.125H50.05v-2.25h1.125Zm2.25,1.125H63.55v15.75H62.425V-2.25H54.55v1.125H53.425ZM54.55-15.75v2.25h3.375v-2.25Zm4.5,0v2.25h3.375v-2.25Zm-4.5,3.375v9h7.875v-9H59.05v2.25H61.3V-4.5H60.175V-5.625H56.8V-4.5H55.675v-5.625h2.25v-2.25ZM56.8-9v2.25h3.375V-9Zm10.8-9Zm3.375,0H72.1v2.25H83.35v1.125H76.6v3.375h5.625v1.125H76.6V-6.75h7.875v1.125H76.6V0H75.475V-5.625H67.6V-6.75h3.375v-4.5h4.5v-3.375h-4.5v2.25H69.85v1.125H68.725v-1.125H69.85v-2.25h1.125ZM72.1-10.125V-6.75h3.375v-3.375ZM87.4-18Zm4.5,0h1.125v3.375H91.9v3.375h4.5V-18h1.125v5.625h6.75v1.125h-6.75v1.125H91.9V0H90.775V-11.25H89.65v1.125H88.525V-9H87.4v-1.125h1.125V-11.25H89.65v-1.125h1.125v-2.25H91.9Zm6.75,1.125h1.125v1.125H98.65Zm1.125,1.125H100.9v2.25H99.775Zm-2.25,5.625H98.65V-6.75H97.525ZM98.65-6.75h1.125V-4.5H98.65Zm4.5,1.125h1.125V0H103.15V-1.125h-1.125V-2.25h1.125ZM99.775-4.5H100.9v1.125H99.775ZM100.9-3.375h1.125V-2.25H100.9ZM107.2-18Zm0,1.125h16.875v1.125h-6.75v2.25H116.2V0h-1.125V-10.125H113.95V-9h-1.125v1.125H111.7V-6.75h-1.125v1.125H109.45V-4.5h-1.125V-5.625h1.125V-6.75h1.125V-7.875H111.7V-9h1.125v-1.125h1.125V-11.25h1.125V-13.5H116.2v-2.25h-9Zm10.125,5.625h1.125v1.125h-1.125Zm1.125,1.125h1.125V-9H118.45ZM119.575-9h2.25v1.125h1.125v2.25h-1.125V-6.75H120.7V-7.875h-1.125ZM127-18Zm4.5,0h7.875v7.875H131.5Zm1.125,1.125v2.25h5.625v-2.25Zm0,3.375v2.25h5.625V-13.5Zm-4.5,4.5H142.75v1.125H136v2.25h5.625V-4.5H136v3.375h-2.25V-2.25h1.125V-7.875h-6.75ZM131.5-6.75h1.125v3.375H131.5V-2.25h-1.125v1.125H129.25V0h-1.125V-1.125h1.125V-2.25h1.125V-3.375H131.5Zm1.125,3.375h1.125V-2.25h-1.125ZM136-1.125h6.75V0H136ZM146.8-18Zm3.375,0H151.3v2.25h3.375v-1.125H155.8v1.125h-1.125v2.25H153.55v1.125h2.25v1.125h-3.375v1.125H151.3V-9h3.375V0H153.55V-1.125h-3.375V0H149.05V-6.75h-1.125v1.125H146.8V-6.75h1.125V-7.875h1.125V-9h1.125v-1.125H151.3V-11.25h-4.5v-1.125h3.375v-2.25h-2.25V-15.75h2.25Zm6.75,1.125h5.625v2.25h-1.125v2.25H160.3v1.125h-1.125v-1.125H160.3v-2.25h1.125V-15.75H158.05V-5.625h1.125V-4.5H158.05V0h-1.125Zm-5.625,2.25v2.25h1.125V-13.5h1.125v-1.125Zm9,3.375h1.125V-9H160.3ZM161.425-9h1.125v3.375h-1.125V-4.5H160.3v1.125h-1.125V-4.5H160.3V-5.625h1.125Zm-11.25,1.125v2.25h3.375v-2.25Zm0,3.375v2.25h3.375V-4.5ZM166.6-18Zm14.625,0h1.125V-1.125h-1.125V0H180.1V-1.125h1.125ZM168.85-16.875h9v4.5h-3.375v2.25h3.375v6.75h-1.125V-2.25H175.6V-3.375h1.125V-9h-2.25v4.5H175.6v1.125h-1.125V0H173.35V-9H171.1v6.75h-1.125v-4.5H168.85v3.375h-1.125V-2.25H166.6V-3.375h1.125V-6.75h1.125Zm1.125,1.125v2.25h6.75v-2.25Zm9,1.125H180.1V-4.5h-1.125Zm-9,2.25v2.25h3.375v-2.25Zm9,10.125H180.1v1.125h-1.125ZM186.4-18Zm6.75,0h1.125v2.25H199.9v1.125h-5.625v3.375h9v1.125h-9V0H193.15V-10.125H186.4V-11.25h6.75ZM195.4-7.875h1.125V-6.75H195.4Zm1.125,1.125h2.25v1.125H199.9v2.25h-1.125V-4.5H197.65V-5.625h-1.125ZM206.2-18Zm7.875,1.125h9v1.125h-4.5v1.125h3.375V-13.5h-3.375v1.125h3.375v1.125h-3.375V-9h4.5v6.75H221.95v1.125h-1.125V0H219.7V-1.125h1.125V-2.25h1.125V-7.875h-7.875Zm-6.75,1.125h4.5V-4.5H210.7V-5.625h-2.25V-4.5h-1.125Zm7.875,0v1.125h2.25V-15.75Zm-6.75,1.125V-6.75h2.25v-7.875ZM215.2-13.5v1.125h2.25V-13.5Zm0,2.25V-9h2.25v-2.25Zm-2.25,4.5h1.125V-4.5H212.95v1.125h-1.125V-4.5h1.125Zm2.25,0h1.125v3.375H215.2Zm2.25,0h1.125v3.375H217.45Zm2.25,0h1.125v3.375H219.7Zm-1.125,4.5H219.7v1.125h-1.125ZM235.27-13.1a3.879,3.879,0,0,0-3.024,1.188,4.364,4.364,0,0,0-1.08,3.024h1.44a3.255,3.255,0,0,1,.594-2.07,2.3,2.3,0,0,1,2-.882,2.356,2.356,0,0,1,1.764.63,2.272,2.272,0,0,1,.612,1.674,2.313,2.313,0,0,1-.522,1.422,12.237,12.237,0,0,1-1.17,1.134,5.6,5.6,0,0,0-1.206,1.458,3.527,3.527,0,0,0-.4,1.71V-3.4h1.44v-.414a2.578,2.578,0,0,1,.342-1.332,3.4,3.4,0,0,1,.846-.972c.792-.7,1.278-1.17,1.476-1.386a3.5,3.5,0,0,0,.666-2.106,3.231,3.231,0,0,0-1.026-2.538A3.831,3.831,0,0,0,235.27-13.1ZM235-2.142a1.031,1.031,0,0,0-.774.306.966.966,0,0,0-.306.756,1.031,1.031,0,0,0,.306.774A1.1,1.1,0,0,0,235,0a1.147,1.147,0,0,0,.792-.306,1.044,1.044,0,0,0,.306-.774,1.031,1.031,0,0,0-.306-.756A1.071,1.071,0,0,0,235-2.142Z" transform="translate(6282 3687)" fill="#fff"/>
    <g id="Group_41382" data-name="Group 41382" transform="translate(6486.75 3721.749) rotate(-90)">
      <rect id="Rectangle_33782" data-name="Rectangle 33782" width="4.153" height="8.305" transform="translate(62.138 475.36)" fill="#f77622"/>
      <rect id="Rectangle_33783" data-name="Rectangle 33783" width="4.153" height="12.458" transform="translate(12.305 471.207)" fill="#f77622"/>
      <rect id="Rectangle_33784" data-name="Rectangle 33784" width="4.153" height="4.153" transform="translate(66.291 471.207)" fill="#f77622"/>
      <rect id="Rectangle_33785" data-name="Rectangle 33785" width="4.153" height="4.153" transform="translate(70.444 467.054)" fill="#f77622"/>
      <rect id="Rectangle_33786" data-name="Rectangle 33786" width="4.153" height="4.153" transform="translate(8.153 467.054)" fill="#f77622"/>
      <rect id="Rectangle_33787" data-name="Rectangle 33787" width="4.153" height="8.305" transform="translate(28.916 429.68)" fill="#f77622"/>
      <rect id="Rectangle_33788" data-name="Rectangle 33788" width="4.153" height="4.153" transform="translate(16.458 433.833)" fill="#f77622"/>
      <rect id="Rectangle_33789" data-name="Rectangle 33789" width="4.153" height="8.305" transform="translate(45.527 425.527)" fill="#f77622"/>
      <rect id="Rectangle_33790" data-name="Rectangle 33790" width="4.153" height="8.305" transform="translate(62.138 421.375)" fill="#f77622"/>
      <path id="Path_53385" data-name="Path 53385" d="M33.611,388.153H29.458V384H17v4.153h4.153v4.153h8.305v4.153H21.153v4.153h8.305v8.306H21.153v4.153h8.305V429.68h4.153v37.374h4.153V425.527H33.611Z" transform="translate(40.985)" fill="#f77622"/>
      <rect id="Rectangle_33791" data-name="Rectangle 33791" width="4.153" height="45.68" transform="translate(4 421.375)" fill="#f77622"/>
      <path id="Path_53386" data-name="Path 53386" d="M5,392v4.153H17.458v8.305h4.153V392Z" transform="translate(3.153 25.222)" fill="#f77622"/>
      <path id="Path_53387" data-name="Path 53387" d="M9,391v4.153H21.458v8.305h4.153V391Z" transform="translate(15.764 22.069)" fill="#f77622"/>
      <path id="Path_53388" data-name="Path 53388" d="M25.458,405.764H13v4.153H25.458v8.306h4.153V385H25.458Z" transform="translate(28.375 3.153)" fill="#f77622"/>
      <path id="Path_53389" data-name="Path 53389" d="M58.985,480.513v-8.306h4.153v-4.153h4.153V463.9h4.153V426.527H67.291V409.916H58.985v-4.153h8.305v-8.306H58.985v-4.153h8.305v-4.153H58.985V385H54.833v33.222H50.68v-8.306H38.222v12.458H34.069v-8.305H21.611v12.458H17.458v-8.305H5V463.9H9.153v4.153h4.153v12.458Zm4.153-62.291v8.305H58.985v-8.305Zm-16.611,4.153v8.306H42.375v-8.306Zm-16.611,4.153v8.305H25.764v-8.305Zm-12.458,8.305H13.305V430.68h4.153Z" transform="translate(3.153 3.153)" fill="#feae34"/>
    </g>
  </g>
</svg>
