<svg xmlns="http://www.w3.org/2000/svg" width="740" height="140" viewBox="0 0 740 140">
  <g id="g3-q" transform="translate(-313 -105.999)">
    <g id="Exclusion_15" data-name="Exclusion 15" transform="translate(752 4211)" fill="#e3f0fd">
      <path d="M 293.4356079101562 -3967.00048828125 L -431.4355773925781 -3967.00048828125 L -431.4355773925781 -3968.435546875 L -431.4355773925781 -3970.435546875 L -433.4355773925781 -3970.435546875 L -437.0000915527344 -3970.435546875 L -437.0000915527344 -4099.564453125 L -433.4355773925781 -4099.564453125 L -431.4355773925781 -4099.564453125 L -431.4355773925781 -4101.564453125 L -431.4355773925781 -4103.00048828125 L 293.4356079101562 -4103.00048828125 L 293.4356079101562 -4101.564453125 L 293.4356079101562 -4099.564453125 L 295.4356079101562 -4099.564453125 L 298.9999084472656 -4099.564453125 L 298.9998168945312 -3970.435546875 L 295.4356079101562 -3970.435546875 L 293.4356079101562 -3970.435546875 L 293.4356079101562 -3968.435546875 L 293.4356079101562 -3967.00048828125 Z" stroke="none"/>
      <path d="M 291.4356079101562 -3969.00048828125 L 291.4356079101562 -3972.435546875 L 295.4356079101562 -3972.435546875 L 296.9998168945312 -3972.435546875 L 296.9999084472656 -4097.564453125 L 295.4356079101562 -4097.564453125 L 291.4356079101562 -4097.564453125 L 291.4356079101562 -4101.00048828125 L -429.4355773925781 -4101.00048828125 L -429.4355773925781 -4097.564453125 L -433.4355773925781 -4097.564453125 L -435.0000915527344 -4097.564453125 L -435.0000915527344 -3972.435546875 L -433.4355773925781 -3972.435546875 L -429.4355773925781 -3972.435546875 L -429.4355773925781 -3969.00048828125 L 291.4356079101562 -3969.00048828125 M 295.4356079101562 -3965.00048828125 L -433.4355773925781 -3965.00048828125 L -433.4355773925781 -3968.435546875 L -439.0000915527344 -3968.435546875 L -439.0000915527344 -4101.564453125 L -433.4355773925781 -4101.564453125 L -433.4355773925781 -4105.00048828125 L 295.4356079101562 -4105.00048828125 L 295.4356079101562 -4101.564453125 L 300.9999084472656 -4101.564453125 L 300.9998168945312 -3968.435546875 L 295.4356079101562 -3968.435546875 L 295.4356079101562 -3965.001220703125 L 295.4356079101562 -3965.00048828125 Z" stroke="none" fill="#15172a"/>
    </g>
    <path id="Path_54399" data-name="Path 54399" d="M0,3ZM4.5,3H6V6H21V7.5H4.5V9H3v1.5H1.5V9H3V7.5H4.5Zm0,7.5H18v6h4.5V18H18v4.5h1.5V24h-3v1.5H15V27H10.5V25.5H15V24H3V21H4.5V18H0V16.5H4.5ZM6,12v4.5H16.5V12h-6v1.5H9V12Zm4.5,1.5H12V15H10.5ZM6,18v3H4.5v1.5h12V18h-6v1.5H9V18Zm4.5,1.5H12V21H10.5ZM26.4,3Zm3,1.5H45.9V6H38.4v6h9v1.5h-9V15H36.9v3H35.4v3H33.9v1.5H32.4V24H30.9v1.5H29.4V27H27.9V25.5h1.5V24h1.5V22.5h1.5V21h1.5V18h1.5V15h1.5V13.5h-9V12h9V6H29.4Zm9,10.5h1.5v3H38.4Zm1.5,3h1.5v1.5H39.9Zm1.5,1.5h1.5V21H41.4ZM42.9,21h1.5v1.5H42.9Zm1.5,1.5h4.5V24H47.4v1.5H45.9V24H44.4ZM52.8,3Zm4.5,0h1.5v7.5h1.5V9h15v1.5H64.8v12h9V24H63.3V10.5h-3V12H58.8V27H57.3Zm9,0h1.5V4.5H66.3Zm1.5,1.5h1.5v3H67.8ZM54.3,9h1.5v4.5H54.3V15H52.8V13.5h1.5Zm6,3h1.5v1.5H60.3ZM79.2,3Zm6,0h1.5V6H85.2V7.5H83.7V9H82.2v1.5H80.7V12H79.2V10.5h1.5V9h1.5V7.5h1.5V6h1.5Zm3,1.5H98.7V12H88.2ZM89.7,6V7.5h7.5V6Zm0,3v1.5h7.5V9Zm-4.5,1.5h1.5v3H85.2V18H95.7V15h-9V13.5h13.5V15h-3v3h4.5v1.5H97.2v6H95.7V27H94.2V25.5h1.5v-6h-6V21H88.2V19.5h-3V27H83.7V16.5H82.2V18H80.7v1.5H79.2V18h1.5V16.5h1.5V15h1.5V13.5h1.5ZM89.7,21h1.5v3H89.7Zm3,3h1.5v1.5H92.7ZM105.6,3Zm13.5,0h1.5V6h6V7.5h-6V9h4.5v7.5h-4.5V18h6v1.5h-6V24h7.5v1.5h-15V24h6V19.5h-6V18h6V16.5h-4.5V9h4.5V7.5h-6V6h6ZM108.6,4.5h1.5V6h-1.5ZM110.1,6h1.5V9h-1.5Zm6,4.5V12h3V10.5Zm4.5,0V12h3V10.5Zm-15,1.5h6V22.5h-1.5V24h-1.5v1.5h-1.5V24h1.5V22.5h1.5v-9h-4.5Zm10.5,1.5V15h3V13.5Zm4.5,0V15h3V13.5Zm-9,9h1.5V24h-1.5ZM132,3Zm10.5,0H144V4.5h-1.5V6H141V7.5h9V27h-1.5V25.5H138V27h-1.5V7.5h3V6H141V4.5h1.5ZM138,9v4.5h10.5V9Zm0,6v3h10.5V15Zm0,4.5V24h10.5V19.5ZM158.4,3Zm1.5,3h16.5V16.5h-1.5V15h-12v9h-1.5V13.5h13.5v-6h-15Zm18,15h1.5v4.5H162.9V24h15Zm6.9-18Zm4.5,0h1.5V6h-1.5V7.5h6V12h1.5V9h1.5V3h1.5V7.5h6V24h-1.5v1.5h-1.5V27h-1.5V25.5h1.5V24h1.5V9h-6v3h-1.5v1.5h-1.5v12h-1.5V24h-6v1.5h-1.5V7.5h1.5V6h1.5Zm-1.5,6v6h6V9Zm10.5,4.5h1.5V15h-1.5Zm1.5,1.5h1.5v3h-1.5Zm-12,1.5v6h6v-6Zm12,7.5h1.5v1.5h-1.5ZM211.2,3Zm15,0h1.5V6h4.5V7.5h-4.5v3h6V12h-3v3h3v1.5h-3v9h-1.5V27h-1.5V25.5h1.5v-9h-9v6h-1.5V21h-4.5v1.5h-1.5V6h7.5v9h9V12h-7.5V10.5h4.5v-3h-3V6h3Zm-12,4.5V12h4.5V7.5Zm0,6v6h4.5v-6Zm9,4.5h1.5v1.5h-1.5Zm1.5,1.5h1.5v3h-1.5Zm1.5,4.5h1.5v1.5h-1.5ZM237.6,3Zm1.5,1.5h7.5V12h-6V27h-1.5Zm10.5,0h7.5v21h-1.5V27h-1.5V25.5h1.5V12h-6Zm-9,1.5V7.5h4.5V6Zm10.5,0V7.5h4.5V6ZM240.6,9v1.5h4.5V9Zm10.5,0v1.5h4.5V9Zm-7.5,4.5h9v9h-1.5V21h-6v1.5h-1.5Zm1.5,1.5v1.5h6V15Zm0,3v1.5h6V18Zm7.5,6h1.5v1.5h-1.5ZM264,3Zm4.5,0H270V6h4.5V4.5H276V6h-1.5V9H273v1.5h3V12h-4.5v1.5H270V15h4.5V27H273V25.5h-4.5V27H267V18h-1.5v1.5H264V18h1.5V16.5H267V15h1.5V13.5H270V12h-6V10.5h4.5v-3h-3V6h3Zm9,1.5H285v3h-1.5v3H282V12h-1.5V10.5H282v-3h1.5V6H279V19.5h1.5V21H279v6h-1.5Zm-7.5,3v3h1.5V9H273V7.5ZM282,12h1.5v3H282Zm1.5,3H285v4.5h-1.5V21H282v1.5h-1.5V21H282V19.5h1.5Zm-15,1.5v3H273v-3Zm0,4.5v3H273V21ZM290.4,3Zm12,0h1.5V6h7.5v4.5h-1.5V12h-3V10.5h3v-3h-7.5v3h-1.5V12h-1.5V10.5h1.5v-3h1.5Zm-9,1.5h1.5V6h-1.5ZM294.9,6h1.5V9h-1.5Zm-4.5,3h1.5v1.5h-1.5Zm1.5,1.5h1.5v3h-1.5Zm4.5,1.5h1.5v3h-1.5v3h-1.5v7.5h-1.5v-6h-3V18h4.5V15h1.5Zm4.5,1.5h10.5v3h-1.5v3h-1.5V21h-1.5v1.5h-1.5V24h-1.5v1.5h-3V27h-3V25.5h3V24h3V22.5h1.5V21h1.5V19.5h1.5v-3h1.5V15h-6v3h-1.5V15h-1.5Zm3,4.5h1.5v3h-1.5Zm3,4.5h1.5V24h-1.5Zm1.5,1.5h4.5v1.5h-1.5V27h-1.5V25.5h-1.5Zm8.4-21Zm9,0h1.5V6h12V7.5H325.8v3h9v15h-1.5V27h-1.5V25.5h1.5V21h-9v6h-1.5V15h-1.5v1.5h-1.5V18h-1.5v1.5h-1.5V18h1.5V16.5h1.5V15h1.5V13.5h1.5v-3h1.5v-3h-7.5V6h9Zm-1.5,9v3h9V12Zm0,4.5v3h9v-3Zm6,7.5h1.5v1.5h-1.5Zm24.876-7.3a1.452,1.452,0,0,0-1.128.408,1.393,1.393,0,0,0-.432,1.08,1.428,1.428,0,0,0,.408,1.056,1.4,1.4,0,0,0,1.032.432,1.285,1.285,0,0,0,.528-.1,2.83,2.83,0,0,1-.5,1.608,3.471,3.471,0,0,1-1.536,1.056v1.176a4.63,4.63,0,0,0,2.472-1.56,4.5,4.5,0,0,0,.936-2.808,2.788,2.788,0,0,0-.48-1.68A1.532,1.532,0,0,0,355.176,16.7ZM369.6,3Zm10.5,0h1.5V9h9v1.5h-9v6h7.5V18h-7.5v6h10.5v1.5H369.6V24h10.5V18h-7.5V16.5h7.5v-6h-6v3h-1.5V15h-1.5v1.5h-1.5V15h1.5V13.5h1.5v-3h1.5v-6h1.5V9h4.5ZM396,3Zm16.5,0H414V4.5h1.5V6H411v4.5h6V12h-6v4.5h4.5v9H414V24h-7.5v1.5H405v-9h4.5V12h-6V10.5h6v-3H405V6h4.5V4.5h3ZM399,4.5h1.5V6H399ZM400.5,6H402V9h-1.5ZM396,9h1.5v1.5H396Zm1.5,1.5H399v3h-1.5Zm4.5,3h1.5V15H402v1.5h-1.5v9H399v-6h-3V18h3V16.5h1.5V15H402Zm4.5,4.5v4.5H414V18ZM422.4,3Zm3,1.5h1.5V6h-1.5Zm7.5,0h9v6h1.5V21h-1.5v1.5h-1.5V21h1.5V12h-9V22.5h-1.5v-12h1.5Zm-6,1.5h1.5V9h-1.5Zm7.5,0V7.5h4.5v3h1.5V6Zm0,3v1.5h3V9Zm-12,3h6V22.5h-1.5V24h-1.5v1.5h-1.5V24h1.5V22.5h1.5v-9h-4.5Zm12,1.5h6V21h-1.5V19.5h-3V21h-1.5Zm1.5,1.5v3h3V15Zm-7.5,7.5h1.5V24h-1.5Zm1.5,1.5h15v1.5h-15ZM448.8,3Zm6,0h1.5V6h-1.5V7.5h-1.5V9h-1.5v1.5h-1.5V12h-1.5V10.5h1.5V9h1.5V7.5h1.5V6h1.5Zm3,1.5h10.5V12H457.8ZM459.3,6V7.5h7.5V6Zm0,3v1.5h7.5V9Zm-4.5,1.5h1.5v3h-1.5V18h10.5V15h-9V13.5h13.5V15h-3v3h4.5v1.5h-4.5v6h-1.5V27h-1.5V25.5h1.5v-6h-6V21h-1.5V19.5h-3V27h-1.5V16.5h-1.5V18h-1.5v1.5h-1.5V18h1.5V16.5h1.5V15h1.5V13.5h1.5ZM459.3,21h1.5v3h-1.5Zm3,3h1.5v1.5h-1.5ZM475.2,3Zm4.5,0h1.5V9h4.5v4.5h4.5v-3h1.5V9h1.5V7.5h1.5V6h-9V4.5h10.5v3h-1.5V9h-1.5v1.5h-1.5v3h6V15h-6V25.5h-1.5V27h-1.5V25.5h1.5V15h-4.5v1.5h-1.5v3h-1.5V21h-1.5v1.5h-1.5V24h-1.5v1.5h-1.5V27h-1.5V25.5h1.5V24h1.5V22.5h1.5V21h1.5V19.5h1.5v-3h1.5v-6h-4.5V15h-1.5v1.5h-1.5V15h1.5V10.5h-3V9h4.5Zm-1.5,13.5h1.5V18h-1.5Zm1.5,1.5h1.5v1.5h-1.5Zm3,3h1.5v1.5h-1.5Zm1.5,1.5h1.5V24h-1.5Zm3,1.5h1.5v1.5h-1.5ZM501.6,3Zm3,1.5h1.5V6h-1.5Zm4.5,0h12V15h-12Zm-3,1.5h1.5V9h-1.5Zm4.5,0V9h9V6Zm-9,3h1.5v1.5h-1.5Zm1.5,1.5h1.5v3h-1.5Zm7.5,0v3h9v-3Zm-4.5,3h1.5v3h-1.5v9h-1.5v-6h-3V18h3V16.5h1.5Zm3,3h1.5v3h3V21h-3v4.5h1.5V24h1.5v1.5h-1.5V27h-3Zm6,0h1.5V21h1.5V19.5h1.5v-3h1.5v3h-1.5V21h-1.5v1.5h-1.5v3h-1.5Zm7.5,6h1.5V27h-7.5V25.5h6ZM528,3Zm7.5,0h6V4.5h-6V6h-3V7.5H531V6h-1.5V4.5h6Zm9,0H546V25.5h-1.5Zm-9,3H537V7.5h-1.5ZM540,6h1.5V7.5H540v3h-3V12h4.5V25.5H540V27h-1.5V25.5H540V18h-1.5v4.5H537V24h-1.5v1.5H534V24h1.5V22.5H537v-3h-4.5V18h6V16.5H540v-3h-1.5v3h-6V15H534V13.5h-3V27h-1.5V12h6V10.5h-6V9h3V7.5H534V9h4.5V7.5H540Zm-4.5,7.5V15H537V13.5ZM534,21h1.5v1.5H534Zm15,0h1.5v6H546V25.5h3Zm-12,3h1.5v1.5H537Zm29.376-7.3a1.452,1.452,0,0,0-1.128.408,1.392,1.392,0,0,0-.432,1.08,1.428,1.428,0,0,0,.408,1.056,1.4,1.4,0,0,0,1.032.432,1.284,1.284,0,0,0,.528-.1,2.83,2.83,0,0,1-.5,1.608,3.47,3.47,0,0,1-1.536,1.056v1.176a4.63,4.63,0,0,0,2.472-1.56,4.5,4.5,0,0,0,.936-2.808,2.788,2.788,0,0,0-.48-1.68A1.532,1.532,0,0,0,566.376,16.7ZM580.8,3Zm4.5,0h1.5V7.5h-1.5V27h-1.5V12h-1.5v1.5h-1.5V12h1.5V10.5h1.5v-3h1.5Zm6,0h1.5V7.5h9v3h-1.5V12h-1.5V10.5h1.5V9h-9v1.5h-1.5V12h-1.5v1.5h-1.5V12h1.5V10.5h1.5v-3h1.5Zm3,9h1.5V25.5h-1.5V27h-1.5V25.5h1.5Zm-3,3h1.5v3h-1.5v1.5h-1.5V21h-1.5V19.5h1.5V18h1.5Zm6,0h1.5v1.5h-1.5Zm1.5,1.5h1.5V18h-1.5Zm1.5,1.5h1.5v3h-1.5Zm-9,6h1.5v1.5h-1.5ZM607.2,3Zm3,0h4.5V4.5h-3V6h3V7.5h-3V9h3v1.5h-3V12h4.5V10.5h1.5V9h1.5V6h1.5V9h-1.5v1.5h-1.5V12h1.5V10.5h1.5V12h4.5V10.5h-3V9h3V7.5h-3V6h3V4.5h-3V3h4.5v9h3v3h-1.5v1.5h-1.5V15h1.5V13.5h-3v9h-3v3h-1.5v-3h-4.5V24h-1.5v1.5h-1.5V27h-4.5V25.5h4.5V24h1.5V22.5h-3v-9h-1.5V15h-1.5v1.5h-1.5V15h1.5V12h1.5Zm6,0h1.5V4.5h-1.5Zm3,0h1.5V4.5h-1.5V6h-1.5V9h-1.5V6h1.5V4.5h1.5Zm-6,10.5V15h10.5V13.5Zm0,3V18h10.5V16.5Zm0,3V21h10.5V19.5Zm13.5,3h1.5V27h-6V25.5h4.5ZM633.6,3Zm6,0h1.5V6h-1.5V7.5h-1.5V9h-1.5v1.5h-1.5V12h-1.5V10.5h1.5V9h1.5V7.5h1.5V6h1.5Zm3,1.5h10.5V12H642.6ZM644.1,6V7.5h7.5V6Zm0,3v1.5h7.5V9Zm-4.5,1.5h1.5v3h-1.5V18h10.5V15h-9V13.5h13.5V15h-3v3h4.5v1.5h-4.5v6h-1.5V27h-1.5V25.5h1.5v-6h-6V21h-1.5V19.5h-3V27h-1.5V16.5h-1.5V18h-1.5v1.5h-1.5V18h1.5V16.5h1.5V15h1.5V13.5h1.5ZM644.1,21h1.5v3h-1.5Zm3,3h1.5v1.5h-1.5ZM660,3Zm4.5,0H666V7.5h-1.5V27H663V12h-1.5v1.5H660V12h1.5V10.5H663v-3h1.5Zm6,0H672V7.5h9v3h-1.5V12H678V10.5h1.5V9h-9v1.5H669V12h-1.5v1.5H666V12h1.5V10.5H669v-3h1.5Zm3,9H675V25.5h-1.5V27H672V25.5h1.5Zm-3,3H672v3h-1.5v1.5H669V21h-1.5V19.5H669V18h1.5Zm6,0H678v1.5h-1.5Zm1.5,1.5h1.5V18H678Zm1.5,1.5H681v3h-1.5Zm-9,6H672v1.5h-1.5ZM0,35Zm3,1.5H19.5v3H18V41H16.5v1.5H15V44H13.5v1.5H12v12H10.5V59H9V57.5h1.5V44h3V42.5H15V41h1.5V39.5H18V38H3ZM7.5,56H9v1.5H7.5ZM26.4,35Zm4.5,0h1.5v3h4.5v1.5H35.4V41H33.9v1.5h3v9h6v-3h-3V50H38.4V48.5h1.5v-3h1.5V47h1.5V44h1.5V42.5h1.5V38H41.4v4.5H39.9V44H38.4V42.5h1.5V38H38.4V36.5h9v6H45.9V44H44.4v3h3v1.5h-3v3h4.5V53H44.4v6H42.9V53h-6v6h-3V57.5h1.5V53H33.9v3H32.4V53H30.9v1.5H29.4v3H27.9V59H26.4V57.5h1.5v-3h1.5v-12h3V41h1.5V39.5h-3V41H29.4v1.5H27.9V44H26.4V42.5h1.5V41h1.5V38h1.5Zm12,6h1.5v1.5H42.9Zm-12,3v3h1.5V44Zm3,0v3h1.5V44Zm-3,4.5v3h1.5v-3Zm3,0v3h1.5v-3ZM52.8,35Zm10.5,0h1.5v1.5H63.3V38H61.8v1.5h9V59H69.3V57.5H58.8V59H57.3V39.5h3V38h1.5V36.5h1.5Zm-4.5,6v4.5H69.3V41Zm0,6v3H69.3V47Zm0,4.5V56H69.3V51.5ZM79.2,35Zm1.5,3H97.2V48.5H95.7V47h-12v9H82.2V45.5H95.7v-6h-15Zm18,15h1.5v4.5H83.7V56h15Zm6.9-18Zm10.5,1.5h12V38h-6v1.5h4.5V41h-4.5v1.5h4.5V44h-4.5v3h6v9h-1.5v1.5h-1.5V59h-1.5V57.5h1.5V56h1.5V48.5H116.1Zm-9,1.5h6V53h-1.5V51.5h-3V53h-1.5Zm10.5,0v1.5h3V38Zm-9,1.5V50h3V39.5Zm9,1.5v1.5h3V41Zm0,3v3h3V44Zm-3,6h1.5v3h-1.5v1.5h-1.5V53h1.5Zm3,0h1.5v4.5h-1.5Zm3,0h1.5v4.5h-1.5Zm3,0h1.5v4.5h-1.5Zm-1.5,6h1.5v1.5h-1.5Zm22.26-14.472a5.172,5.172,0,0,0-4.032,1.584,5.818,5.818,0,0,0-1.44,4.032h1.92a4.341,4.341,0,0,1,.792-2.76,3.067,3.067,0,0,1,2.664-1.176,3.141,3.141,0,0,1,2.352.84,3.029,3.029,0,0,1,.816,2.232,3.084,3.084,0,0,1-.7,1.9,16.312,16.312,0,0,1-1.56,1.512,7.472,7.472,0,0,0-1.608,1.944,4.7,4.7,0,0,0-.528,2.28v.552h1.92v-.552a3.437,3.437,0,0,1,.456-1.776,4.54,4.54,0,0,1,1.128-1.3c1.056-.936,1.7-1.56,1.968-1.848a4.662,4.662,0,0,0,.888-2.808,4.308,4.308,0,0,0-1.368-3.384A5.107,5.107,0,0,0,144.36,41.528ZM144,56.144a1.374,1.374,0,0,0-1.032.408,1.288,1.288,0,0,0-.408,1.008,1.374,1.374,0,0,0,.408,1.032A1.471,1.471,0,0,0,144,59a1.53,1.53,0,0,0,1.056-.408,1.392,1.392,0,0,0,.408-1.032,1.375,1.375,0,0,0-.408-1.008A1.428,1.428,0,0,0,144,56.144ZM158.4,35Zm1.5,1.5h9v21h-1.5V59h-1.5V57.5h1.5V50h-3v3h-1.5v3h-1.5v1.5h-1.5V59h-1.5V57.5h1.5V56h1.5V53h1.5V50h-3V48.5h3V44h-3V42.5h3V38h-3Zm12,0h7.5v3h-1.5v3h-1.5V44h-1.5V42.5h1.5v-3h1.5V38h-4.5V51.5h1.5V53h-1.5v6h-1.5ZM164.4,38v4.5h3V38Zm0,6v4.5h3V44Zm12,0h1.5v3h-1.5Zm1.5,3h1.5v4.5h-1.5V53h-1.5v1.5h-1.5V53h1.5V51.5h1.5Zm-13.5,9h1.5v1.5h-1.5Zm20.4-21Zm10.5,0h1.5v4.5h9V41h-9v4.5h10.5V47h-7.5v9h-1.5V47h-4.5v4.5h-1.5v3h-1.5V56h-1.5v1.5h-1.5V59h-3V57.5h3V56h1.5V54.5h1.5v-3h1.5V47h-7.5V45.5h10.5V41h-6v1.5h-1.5V44h-1.5V42.5h1.5V41h1.5V36.5h1.5v3h4.5Zm10.5,16.5h1.5v6h-7.5V56h6ZM211.2,35Zm10.5,0h1.5v3h9v1.5h-9V47h1.5V45.5h1.5V41h1.5v4.5h-1.5V47h-1.5v3h-1.5v9h-1.5V50h-1.5v1.5h-1.5V53h-1.5v1.5h-3V56h-3V54.5h3V53h3V51.5h1.5V50h1.5V47h1.5V39.5h-9V38h9Zm-4.5,6h1.5v4.5h-1.5V47h-1.5v1.5h-1.5V47h1.5V45.5h1.5Zm1.5,4.5h1.5V47h-1.5Zm9,0h1.5V47h-1.5Zm1.5,1.5h1.5v1.5h-1.5Zm-4.5,3h1.5v1.5h-1.5Zm1.5,1.5h3V53h-3Zm3,1.5h4.5v1.5h-1.5V56h-1.5V54.5h-1.5Zm8.4-18Zm13.5,0h6v1.5h-6V38h-1.5v1.5h6V41h-7.5v1.5h10.5V44h-12v1.5h-1.5V47h10.5V59h-1.5V57.5h-9V59h-1.5V48.5h-1.5V50h-1.5v1.5h-1.5V50h1.5V48.5h1.5V47h1.5V45.5h1.5V44h-6V42.5h7.5V41h-4.5V39.5h6V38h-7.5V36.5h10.5Zm-6,13.5V50h9V48.5Zm0,3V53h9V51.5Zm0,3V56h9V54.5ZM264,35Zm0,10.5h22.5V47H264ZM290.4,35Zm0,3h22.5v1.5h-12V59h-1.5V39.5h-9Zm12,6h1.5v1.5h-1.5Zm1.5,1.5h1.5V47h-1.5Zm1.5,1.5h3v3h-1.5V48.5h-1.5Zm11.4-12Zm4.5,0h1.5v4.5h-1.5V59h-1.5V44h-1.5v1.5h-1.5V44h1.5V42.5h1.5v-3h1.5Zm6,0h1.5v4.5h9v3h-1.5V44h-1.5V42.5h1.5V41h-9v1.5h-1.5V44h-1.5v1.5h-1.5V44h1.5V42.5h1.5v-3h1.5Zm3,9h1.5V57.5h-1.5V59h-1.5V57.5h1.5Zm-3,3h1.5v3h-1.5v1.5h-1.5V53h-1.5V51.5h1.5V50h1.5Zm6,0h1.5v1.5h-1.5Zm1.5,1.5h1.5V50h-1.5Zm1.5,1.5h1.5v3h-1.5Zm-9,6h1.5v1.5h-1.5Zm15.9-21Zm6,0h10.5V45.5H349.2Zm1.5,1.5v3h7.5v-3Zm0,4.5v3h7.5V41Zm-6,6h19.5v1.5h-9v3h7.5V53h-7.5v4.5h-3V56h1.5V48.5h-9Zm4.5,3h1.5v4.5h-1.5V56h-1.5v1.5h-1.5V59h-1.5V57.5h1.5V56h1.5V54.5h1.5Zm1.5,4.5h1.5V56h-1.5Zm4.5,3h9V59h-9ZM369.6,35Zm0,1.5h22.5V38h-9v3h-1.5V59h-1.5V45.5h-1.5V47h-1.5v1.5h-1.5V50h-1.5v1.5h-1.5V53h-1.5V51.5h1.5V50h1.5V48.5h1.5V47h1.5V45.5h1.5V44h1.5V41h1.5V38h-12ZM383.1,44h1.5v1.5h-1.5Zm1.5,1.5h1.5V47h-1.5Zm1.5,1.5h3v1.5h1.5v3h-1.5V50h-1.5V48.5h-1.5ZM396,35Zm6,0h10.5V45.5H402Zm1.5,1.5v3H411v-3Zm0,4.5v3H411V41Zm-6,6H417v1.5h-9v3h7.5V53H408v4.5h-3V56h1.5V48.5h-9Zm4.5,3h1.5v4.5H402V56h-1.5v1.5H399V59h-1.5V57.5H399V56h1.5V54.5H402Zm1.5,4.5H405V56h-1.5Zm4.5,3h9V59h-9ZM422.4,35Zm13.5,0h1.5v3h6v1.5h-6V41h4.5v1.5h-4.5V44h7.5v1.5h-15V47h-1.5v1.5h-1.5v9h-1.5v-6h-3V50h3V48.5h1.5V47h1.5V44h7.5V42.5h-4.5V41h4.5V39.5h-6V38h6Zm-10.5,1.5h1.5V38h-1.5Zm1.5,1.5h1.5v3h-1.5Zm-4.5,3h1.5v1.5h-1.5Zm1.5,1.5h1.5v3h-1.5Zm7.5,4.5h10.5V57.5h-1.5V59h-1.5V57.5h1.5v-3h-7.5V59h-1.5Zm1.5,1.5V50h7.5V48.5Zm0,3V53h7.5V51.5Zm4.5,4.5h1.5v1.5h-1.5Zm11.4-21Zm6,0h1.5v3h3v1.5h-3V41h1.5v1.5h-1.5V47h7.5V42.5h-1.5V44h-1.5V42.5h1.5V41h1.5V39.5h-3V38h3V35h1.5v3h4.5v1.5h-4.5V41h1.5v1.5h-1.5V47h4.5v3h-1.5v1.5h-1.5V50h1.5V48.5h-7.5v3h4.5V53h-4.5v4.5h10.5V59h-15V57.5h3v-9h-9V47h4.5V42.5h-1.5V44h-1.5v1.5h-1.5V44h1.5V42.5h1.5V41h1.5V39.5h-4.5V38h4.5Zm3,7.5h1.5V44h-1.5Zm9,0h3V44h-3Zm-12,7.5h1.5v3h-1.5v3h-1.5v1.5h-1.5V59h-1.5V57.5h1.5V56h1.5V53h1.5Zm0,6h1.5v1.5h-1.5Zm20.4-21Zm4.5,0h1.5v1.5h-1.5Zm6,0h1.5v3h3V36.5h1.5V35h1.5v1.5h-1.5V38h6v3h-1.5v1.5h-1.5V41h1.5V39.5h-18V41h-1.5v1.5h-1.5V41h1.5V38h4.5V36.5h1.5V38h3Zm-6,6h13.5v4.5h1.5V47h-4.5v1.5h-3V50h7.5v1.5h-7.5V53h10.5v1.5H487.2v3h-1.5V59h-1.5V57.5h1.5v-3H475.2V53h10.5V51.5h-7.5V50h7.5V48.5h-9V47h13.5V45.5H479.7Zm1.5,1.5V44h10.5V42.5ZM482.7,56h1.5v1.5h-1.5Zm18.9-21Zm3,0h1.5v6h3v1.5h-3V47h1.5V45.5h1.5V47h-1.5v1.5h-1.5v9h-1.5V59h-1.5V57.5h1.5V50h-3V48.5h3v-6h-3V41h3Zm6,1.5h12v6H512.1V44h10.5v1.5h-6V47h-1.5v1.5h4.5V47h1.5v1.5h1.5v3h-1.5V53h-3v3h6v1.5H510.6V56h6V53h-3V51.5h3V50h-4.5v3h-1.5v3h-1.5v1.5h-1.5V56h1.5V53h1.5Zm1.5,1.5v3h9V38Zm0,7.5v3h1.5V47h1.5V45.5Zm6,4.5v1.5h3V50Zm-16.5,6h1.5v1.5h-1.5ZM528,35Zm10.5,0H540v1.5h-1.5V38H537v1.5h9V59h-1.5V57.5H534V59h-1.5V39.5h3V38H537V36.5h1.5ZM534,41v4.5h10.5V41Zm0,6v3h10.5V47Zm0,4.5V56h10.5V51.5ZM554.4,35Zm1.5,3h16.5V48.5h-1.5V47h-12v9h-1.5V45.5h13.5v-6h-15Zm18,15h1.5v4.5H558.9V56h15Zm6.9-18Zm12,0h1.5v4.5h7.5v3h-1.5V44h-1.5V42.5h1.5V41h-6v4.5h6v3h-1.5V50h-1.5v1.5h-1.5V53h-1.5v1.5h-1.5V56h-1.5v1.5h-3V59h-3V57.5h3V56h3V54.5h1.5V53h1.5V51.5h1.5V50h1.5V48.5h1.5V47h-9v1.5h-1.5V47h-1.5V45.5h6V41h-7.5V54.5h-1.5v3h-1.5V59h-1.5V57.5h1.5v-3h1.5v-15h9Zm-3,13.5h1.5v3h-1.5Zm1.5,3h1.5V53h-1.5Zm3,3h3V56h-3Zm3,1.5h6v1.5h-1.5V59h-1.5V57.5h-3Zm9.9-21Zm10.5,0h1.5v4.5h9V41h-9v9h-1.5v3h-1.5v1.5h-1.5V56h-1.5v1.5h-3V59h-3V57.5h3V56h3V54.5h1.5V53h1.5V50h1.5V41h-9V39.5h9Zm-6,7.5h1.5V47h-1.5v1.5h-1.5V50h-1.5v1.5h-1.5V50h1.5V48.5h1.5V47h1.5Zm12,0h1.5V47h-1.5v1.5h-1.5V50h-1.5v3h-1.5V50h1.5V48.5h1.5V47h1.5ZM613.2,47h1.5v1.5h-1.5Zm12,0h1.5v1.5h-1.5Zm-10.5,1.5h1.5V50h-1.5Zm12,0h1.5V50h-1.5Zm1.5,1.5h1.5v1.5h-1.5Zm-7.5,3h1.5v1.5h-1.5Zm1.5,1.5h3V56h-3Zm3,1.5h4.5v1.5h-1.5V59h-1.5V57.5h-1.5Zm8.4-21Zm3,0h1.5v1.5h-1.5Zm1.5,1.5h1.5v3h-1.5Zm6,1.5h10.5V48.5h-4.5v3h4.5V53h-4.5v3h6v1.5h-15V56h7.5V53h-4.5V51.5h4.5v-3h-4.5v-3h-1.5V47h-1.5v1.5h-1.5V59h-1.5V47h-1.5v1.5h-1.5V50h-1.5V48.5h1.5V47h1.5V45.5h1.5V44h1.5V42.5h-6V41h9v1.5h-1.5V44h-1.5v3h1.5V45.5h1.5V44h1.5Zm1.5,1.5v3h3v-3Zm4.5,0v3h3v-3ZM645.6,44v3h3V44Zm4.5,0v3h3V44Zm-9,4.5h1.5V50h-1.5Zm1.5,1.5h1.5v1.5h-1.5ZM660,35Zm9,0h1.5v3h12v1.5H669v3h9v15h-1.5V59H675V57.5h1.5V53h-9v6H666V47h-1.5v1.5H663V50h-1.5v1.5H660V50h1.5V48.5H663V47h1.5V45.5H666v-3h1.5v-3H660V38h9Zm-1.5,9v3h9V44Zm0,4.5v3h9v-3Zm6,7.5H675v1.5h-1.5ZM0,67Zm9,0h1.5v3H18v1.5H16.5V73H15v1.5H13.5V76h-3v1.5H9V79H6v1.5H1.5V79H6V77.5H9V76h1.5V74.5h3V73H15V71.5H7.5v3h-3V76H3V74.5H4.5V73H6V71.5H7.5V70H9ZM7.5,74.5H9V76H7.5Zm6,1.5H15v1.5H13.5V79H21v1.5H19.5V82H18v1.5H16.5V85H15v1.5H13.5V88h-3v1.5H6V91H1.5V89.5H6V88h4.5V85H12v1.5h1.5V85H15V83.5h1.5V82H18V80.5H10.5V82H9v1.5H6V85H3V83.5H6V82H9V80.5h1.5V79H12V77.5h1.5ZM9,83.5h1.5V85H9ZM26.4,67Zm10.5,0h1.5V83.5H36.9Zm-4.5,4.5h1.5v3H32.4v3H30.9V79H29.4v1.5H27.9V79h1.5V77.5h1.5v-3h1.5Zm10.5,0h1.5V73H42.9ZM44.4,73h1.5v1.5H44.4Zm1.5,1.5h1.5v3H45.9Zm-3,3h1.5v3H42.9V82H41.4v1.5H39.9V85H38.4v1.5H36.9V88H35.4v1.5h-3V91H27.9V89.5h4.5V88h3V86.5h1.5V85h1.5V83.5h1.5V82h1.5V80.5h1.5ZM52.8,67Zm10.5,1.5h9V82H70.8v6H69.3V82h-3v4.5H64.8V88H63.3v1.5H61.8V91h-3V89.5h3V88h1.5V86.5h1.5V82H63.3Zm-9,1.5h7.5v1.5h-3V76h3v1.5h-3v6h3V85h-3v1.5h-3V88H54.3V86.5H52.8V85h4.5V77.5h-3V76h3V71.5h-3Zm10.5,0v3h6V70Zm0,4.5V76h6V74.5Zm0,3v3h6v-3Zm9,6h1.5v6H70.8V88h3ZM79.2,67Zm10.5,0h1.5v3H89.7v1.5H88.2V73H86.7v1.5H85.2V76H83.7v1.5H82.2V79h-3V77.5h3V76h1.5V74.5h1.5V73h1.5V71.5h1.5V70h1.5Zm1.5,3h1.5v1.5H91.2Zm1.5,1.5h1.5V73H92.7ZM94.2,73h1.5v1.5H94.2Zm1.5,1.5h1.5V76H95.7v1.5H91.2v3h6V82h-6v6h1.5V86.5h1.5V85h1.5V83.5h1.5V85H95.7v1.5H94.2V88h6v1.5H80.7V88h6V86.5h1.5V88h1.5V82h-6V80.5h6v-3H85.2V76H95.7ZM97.2,76h4.5v1.5h-1.5V79H98.7V77.5H97.2ZM83.7,83.5h1.5V85H83.7ZM85.2,85h1.5v1.5H85.2Zm32.76-11.472a5.172,5.172,0,0,0-4.032,1.584,5.818,5.818,0,0,0-1.44,4.032h1.92a4.341,4.341,0,0,1,.792-2.76,3.067,3.067,0,0,1,2.664-1.176,3.141,3.141,0,0,1,2.352.84,3.03,3.03,0,0,1,.816,2.232,3.084,3.084,0,0,1-.7,1.9,16.316,16.316,0,0,1-1.56,1.512,7.471,7.471,0,0,0-1.608,1.944,4.7,4.7,0,0,0-.528,2.28v.552h1.92v-.552a3.437,3.437,0,0,1,.456-1.776,4.54,4.54,0,0,1,1.128-1.3c1.056-.936,1.7-1.56,1.968-1.848A4.662,4.662,0,0,0,123,78.184a4.308,4.308,0,0,0-1.368-3.384A5.107,5.107,0,0,0,117.96,73.528Zm-.36,14.616a1.374,1.374,0,0,0-1.032.408,1.288,1.288,0,0,0-.408,1.008,1.374,1.374,0,0,0,.408,1.032A1.471,1.471,0,0,0,117.6,91a1.53,1.53,0,0,0,1.056-.408,1.392,1.392,0,0,0,.408-1.032,1.375,1.375,0,0,0-.408-1.008A1.428,1.428,0,0,0,117.6,88.144Z" transform="translate(342 129)" fill="#132941"/>
  </g>
</svg>
