<svg xmlns="http://www.w3.org/2000/svg" width="574.333" height="61.75" viewBox="0 0 574.333 61.75">
  <g id="g4-a1" transform="translate(780 -6225)">
    <g id="Path_54273" data-name="Path 54273" transform="translate(-780 6226)" fill="#4e332d">
      <path d="M 553.7894287109375 58 L 6.211447238922119 58 L 6.21150016784668 56.52699661254883 L 4.211428642272949 56.52699661254883 L 2.00006890296936 56.52699661254883 L 2.00000262260437 3.472212314605713 L 4.211357116699219 3.472212314605713 L 6.211285591125488 3.472212314605713 L 6.211338520050049 1.999998092651367 L 553.7891845703125 1.999998092651367 L 553.7890014648438 3.472212314605713 L 555.7891845703125 3.472212314605713 L 558 3.472212314605713 L 557.9998779296875 56.52778244018555 L 555.7893676757812 56.52778244018555 L 553.78955078125 56.52778244018555 L 553.7894287109375 58 Z" stroke="none"/>
      <path d="M 551.7896118164062 56 L 551.7897338867188 54.52778244018555 L 555.7893676757812 54.52778244018555 L 555.9998779296875 54.52778244018555 L 556 5.472212314605713 L 555.7891845703125 5.472212314605713 L 551.7888793945312 5.472212314605713 L 551.7890014648438 3.999998092651367 L 8.211221694946289 3.999998092651367 L 8.211142539978027 5.472212314605713 L 4.211357116699219 5.472212314605713 L 4.00000524520874 5.472212314605713 L 4.00006628036499 54.52699661254883 L 4.211428642272949 54.52699661254883 L 8.211643218994141 54.52699661254883 L 8.211564064025879 56 L 551.7896118164062 56 M 555.7893676757812 60 L 555.7891845703125 60 L 555.7884521484375 60 L 555.7891845703125 60 L 555.7893676757812 60 Z M 555.7893676757812 60 L 4.211357116699219 60 L 4.211428642272949 58.52699661254883 L 7.142857066355646e-05 58.52699661254883 L 5.684341886080801e-14 1.472212433815002 L 4.211357116699219 1.472212433815002 L 4.211428642272949 -1.9073486328125e-06 L 555.7893676757812 -1.9073486328125e-06 L 555.7891845703125 1.472212433815002 L 560 1.472212433815002 L 559.9998779296875 58.52778244018555 L 555.7893676757812 58.52778244018555 L 555.7891845703125 59.99914169311523 L 555.7891845703125 60 Z" stroke="none" fill="#232323"/>
    </g>
    <path id="Path_54279" data-name="Path 54279" d="M2,0H.29l4.2-13.641h1.8L10.521,0H8.648L7.717-3h-4.8ZM3.34-4.359H7.321L5.678-9.536l-.387-1.371L4.948-9.536ZM18,.413a1.379,1.379,0,0,1-1.011-.422,1.379,1.379,0,0,1-.422-1.011,1.368,1.368,0,0,1,.426-1.015A1.391,1.391,0,0,1,18-2.452,1.391,1.391,0,0,1,19-2.035a1.368,1.368,0,0,1,.426,1.015,1.379,1.379,0,0,1-.422,1.011A1.379,1.379,0,0,1,18,.413ZM28-18Zm3.375,0H32.5v4.5h2.25v1.125H32.5v2.25h1.125V-11.25H43.75v7.875H41.5V-2.25H40.375V-3.375h-2.25V-2.25H37v1.125H35.875V0H34.75V-1.125h1.125V-2.25H37V-3.375H34.75v-6.75H33.625V-9H32.5v7.875H31.375V0H30.25V-1.125h1.125v-6.75H30.25V-6.75H28V-7.875h2.25V-9h1.125v-3.375H28V-13.5h3.375Zm4.5,1.125h6.75v4.5h-6.75ZM37-15.75v2.25h4.5v-2.25Zm-1.125,5.625V-9h6.75v-1.125Zm0,2.25V-6.75h6.75V-7.875Zm0,2.25V-4.5h6.75V-5.625ZM29.125-2.25H30.25v1.125H29.125Zm12.375,0h1.125v1.125H41.5Zm1.125,1.125H43.75V0H42.625ZM47.8-18Zm7.875,0H56.8v4.5h5.625v1.125H56.8V-9h7.875v1.125H56.8V-6.75H55.675V-4.5H54.55v1.125H53.425V-2.25H52.3v1.125H50.05V0H47.8V-1.125h2.25V-2.25H52.3V-3.375h1.125V-4.5H54.55V-6.75h1.125V-7.875H47.8V-9h7.875v-3.375h-4.5v1.125H50.05v1.125H48.925V-11.25H50.05v-1.125h1.125v-4.5H52.3V-13.5h3.375ZM56.8-6.75h1.125v1.125H56.8Zm1.125,1.125H59.05V-4.5H57.925ZM59.05-4.5h1.125v1.125H59.05Zm1.125,1.125H61.3V-2.25H60.175ZM61.3-2.25h3.375v1.125H63.55V0H62.425V-1.125H61.3ZM67.6-18Zm6.75,0h1.125v2.25h9v1.125H74.35v2.25H81.1v11.25H79.975V0H78.85V-1.125h1.125V-4.5h-6.75V0H72.1V-9H70.975v1.125H69.85V-6.75H68.725v1.125H67.6V-6.75h1.125V-7.875H69.85V-9h1.125v-1.125H72.1v-2.25h1.125v-2.25H67.6V-15.75h6.75Zm-1.125,6.75V-9h6.75v-2.25Zm0,3.375v2.25h6.75v-2.25Zm4.5,5.625H78.85v1.125H77.725ZM87.4-18Zm1.125,1.125H94.15v2.25H93.025v2.25H91.9v1.125H90.775v-1.125H91.9v-2.25h1.125V-15.75H89.65V-5.625h1.125V-4.5H89.65V0H88.525Zm6.75,0h6.75V-9h-2.25v2.25H98.65V-9H96.4v6.75h1.125V-3.375H98.65V-2.25H97.525v1.125H96.4V0H95.275ZM96.4-15.75v2.25h4.5v-2.25Zm0,3.375v2.25h4.5v-2.25ZM91.9-11.25h1.125V-9H91.9ZM93.025-9H94.15v3.375H93.025V-4.5H91.9v1.125H90.775V-4.5H91.9V-5.625h1.125ZM103.15-9h1.125v1.125H103.15V-6.75h-1.125v1.125H100.9V-4.5H99.775V-6.75h2.25V-7.875h1.125ZM100.9-4.5h1.125v1.125H100.9Zm1.125,1.125h2.25V-2.25H103.15v1.125h-1.125Zm14.157-4.347a1.089,1.089,0,0,0-.846.306,1.044,1.044,0,0,0-.324.81,1.071,1.071,0,0,0,.306.792,1.047,1.047,0,0,0,.774.324.963.963,0,0,0,.4-.072,2.123,2.123,0,0,1-.378,1.206,2.6,2.6,0,0,1-1.152.792v.882a3.473,3.473,0,0,0,1.854-1.17,3.373,3.373,0,0,0,.7-2.106,2.091,2.091,0,0,0-.36-1.26A1.149,1.149,0,0,0,116.182-7.722ZM127-18Zm3.375,0H140.5v5.625H130.375Zm1.125,1.125v1.125h7.875v-1.125Zm0,2.25V-13.5h7.875v-1.125ZM127-11.25h16.875v1.125h-9V-9h6.75v2.25H140.5V-4.5h-1.125v1.125H138.25V-2.25h-1.125v1.125H136V0h-2.25V-3.375h-3.375V-2.25H127V-3.375h2.25v-6.75H127Zm3.375,1.125V-9h3.375v-1.125Zm0,2.25V-6.75h3.375V-7.875Zm4.5,0v6.75H136V-2.25h1.125V-3.375h1.125V-4.5h1.125V-6.75H140.5V-7.875h-3.375v2.25H136v-2.25Zm-4.5,2.25V-4.5h3.375V-5.625Zm6.75,0h1.125V-4.5h-1.125Zm2.25,2.25H140.5V-2.25h-1.125ZM140.5-2.25h3.375v1.125H142.75V0h-1.125V-1.125H140.5ZM146.8-18Zm6.75,0h1.125v2.25H160.3v1.125h-1.125V-13.5H158.05v1.125h-1.125v1.125h-2.25v1.125H153.55V-9H151.3v1.125h-3.375V-9H151.3v-1.125h2.25V-11.25h1.125v-1.125h2.25V-13.5h1.125v-1.125h-5.625v2.25h-2.25v1.125H149.05v-1.125h1.125V-13.5H151.3v-1.125h1.125V-15.75h1.125Zm-1.125,5.625h1.125v1.125h-1.125Zm4.5,1.125h1.125v1.125h-1.125V-9h5.625v1.125h-1.125V-6.75H160.3v1.125h-1.125V-4.5H158.05v1.125h-1.125V-2.25h-2.25v1.125H151.3V0h-3.375V-1.125H151.3V-2.25h3.375V-4.5H155.8v1.125h1.125V-4.5h1.125V-5.625h1.125V-6.75H160.3V-7.875h-5.625V-6.75H153.55v1.125H151.3V-4.5h-2.25V-5.625h2.25V-6.75h2.25V-7.875h1.125V-9H155.8v-1.125h1.125ZM153.55-5.625h1.125V-4.5H153.55ZM166.6-18Zm2.25,0h1.125v1.125H168.85Zm7.875,0h1.125v5.625h5.625v1.125H180.1v9h-1.125v-9H177.85V-4.5h-1.125v2.25H175.6v1.125h-1.125V0H173.35V-1.125h1.125V-2.25H175.6V-4.5h1.125v-6.75H173.35v4.5H171.1v5.625h-1.125V0H168.85V-1.125h1.125V-6.75h-2.25v-4.5h5.625v-1.125h3.375Zm-6.75,1.125H171.1v1.125h-1.125Zm9,0H180.1v1.125h-1.125ZM180.1-15.75h1.125v1.125H180.1Zm-13.5,1.125h7.875V-13.5H166.6Zm2.25,4.5v2.25h3.375v-2.25Zm-1.125,4.5h1.125V-4.5h-1.125v1.125H166.6V-4.5h1.125Zm4.5,0h1.125V-4.5h-1.125ZM173.35-4.5h1.125v1.125H173.35Zm9,0h1.125v3.375H180.1V-2.25h2.25ZM167.725-2.25h1.125v1.125h-1.125ZM186.4-18Zm4.5,0h7.875v7.875H190.9Zm1.125,1.125v2.25h5.625v-2.25Zm0,3.375v2.25h5.625V-13.5Zm-4.5,4.5H202.15v1.125H195.4v2.25h5.625V-4.5H195.4v3.375h-2.25V-2.25h1.125V-7.875h-6.75ZM190.9-6.75h1.125v3.375H190.9V-2.25h-1.125v1.125H188.65V0h-1.125V-1.125h1.125V-2.25h1.125V-3.375H190.9Zm1.125,3.375h1.125V-2.25h-1.125Zm3.375,2.25h6.75V0H195.4ZM206.2-18Zm2.25,0h1.125v1.125h4.5V-13.5H208.45v1.125h5.625V-9H210.7v2.25h3.375v1.125H210.7v2.25h3.375V-2.25H210.7v1.125h-2.25V0h-1.125V-1.125H206.2V-2.25h1.125v-4.5h1.125v4.5h1.125V-9h-2.25v-7.875h1.125Zm6.75,1.125h6.75v5.625H215.2v-1.125h5.625V-13.5h-4.5v-1.125h4.5V-15.75H215.2Zm-6.75,1.125v1.125h4.5V-15.75Zm0,4.5v1.125h4.5V-11.25Zm6.75,1.125h7.875v2.25H221.95V-9H219.7v2.25h3.375v3.375H221.95V-2.25h-1.125V-3.375h1.125v-2.25H219.7V-4.5h1.125v1.125H219.7V0h-1.125V-5.625h-2.25V-2.25H215.2v-4.5h3.375V-9h-2.25v1.125H215.2ZM226-18Zm3.375,0H239.5v1.125H235v1.125h7.875v2.25H241.75v1.125h-1.125V-13.5h1.125v-1.125H235v4.5h-1.125V-9H232.75v1.125H230.5V-6.75h-2.25v1.125H226V-6.75h2.25V-7.875h2.25V-9h2.25v-1.125h1.125v-4.5H228.25V-13.5h-1.125v1.125H226V-13.5h1.125v-2.25h6.75v-1.125h-4.5Zm0,4.5h3.375v1.125h-3.375Zm6.75,0H239.5v1.125h-3.375Zm-6.75,2.25h3.375v1.125h-3.375Zm6.75,0H239.5v1.125h-3.375V-9H235v-1.125h1.125Zm0,2.25h2.25v1.125h-2.25ZM232.75-7.875h1.125V-6.75H232.75Zm5.625,0h2.25V-6.75h-2.25Zm-4.5,1.125H235v1.125h3.375V-4.5H237.25v1.125h-1.125V-2.25H235v1.125h-1.125V-2.25H235V-3.375h1.125V-4.5H230.5V-5.625h3.375Zm6.75,0h2.25v1.125h-2.25ZM232.75-3.375h1.125V-2.25H232.75ZM235-1.125h1.125V0H235Zm19.782-6.6a1.089,1.089,0,0,0-.846.306,1.044,1.044,0,0,0-.324.81,1.071,1.071,0,0,0,.306.792,1.047,1.047,0,0,0,.774.324.963.963,0,0,0,.4-.072,2.123,2.123,0,0,1-.378,1.206,2.6,2.6,0,0,1-1.152.792v.882a3.473,3.473,0,0,0,1.854-1.17,3.373,3.373,0,0,0,.7-2.106,2.091,2.091,0,0,0-.36-1.26A1.149,1.149,0,0,0,254.782-7.722ZM265.6-18Zm0,1.125h16.875v1.125h-6.75v2.25H274.6V0h-1.125V-10.125H272.35V-9h-1.125v1.125H270.1V-6.75h-1.125v1.125H267.85V-4.5h-1.125V-5.625h1.125V-6.75h1.125V-7.875H270.1V-9h1.125v-1.125h1.125V-11.25h1.125V-13.5H274.6v-2.25h-9Zm10.125,5.625h1.125v1.125h-1.125Zm1.125,1.125h1.125V-9H276.85ZM277.975-9h2.25v1.125h1.125v2.25h-1.125V-6.75H279.1V-7.875h-1.125Zm7.425-9Zm7.875,0H294.4v1.125h-1.125v1.125H292.15v1.125h3.375V-15.75h2.25v1.125H296.65V-13.5h-5.625v-1.125H289.9V-13.5h-2.25v1.125H285.4V-13.5h2.25v-1.125h2.25V-15.75h2.25v-1.125h1.125Zm1.125,1.125h1.125v1.125H294.4Zm3.375,2.25h2.25V-13.5h-2.25Zm2.25,1.125h2.25v1.125h-2.25v4.5H287.65v-4.5h12.375Zm-11.25,2.25V-9h2.25v-1.125h1.125V-9h1.125v-2.25h-2.25v1.125H289.9V-11.25Zm5.625,0V-9h1.125v-1.125h1.125V-11.25Zm3.375,0v1.125H296.65V-9h2.25v-2.25Zm-9,4.5H298.9V0h-1.125V-1.125H289.9V0h-1.125ZM289.9-5.625V-4.5h7.875V-5.625Zm0,2.25V-2.25h7.875V-3.375ZM305.2-18Zm5.625,0h1.125v2.25h5.625v1.125H316.45V-13.5h-1.125v1.125H318.7v9h-1.125V-4.5H309.7v1.125h-1.125V-11.25H307.45v1.125h-1.125V-11.25h1.125v-1.125h1.125V-13.5H309.7v-1.125h1.125Zm0,3.375V-13.5H309.7v1.125h4.5V-13.5h1.125v-1.125ZM309.7-11.25v1.125h7.875V-11.25Zm0,2.25v1.125h7.875V-9Zm0,2.25v1.125h7.875V-6.75Zm1.125,3.375h1.125V-2.25h-1.125v1.125H309.7V0h-1.125V-1.125H309.7V-2.25h1.125Zm4.5,0h1.125V-2.25h-1.125ZM316.45-2.25h1.125v1.125H316.45Zm1.125,1.125H318.7V0h-1.125ZM325-18Zm4.5,0h1.125v3.375H329.5V0h-1.125V-11.25H327.25v1.125h-1.125V-9H325v-1.125h1.125V-11.25h1.125v-1.125h1.125v-2.25H329.5Zm6.75,0h1.125v1.125h4.5v1.125h-4.5v1.125h3.375V-13.5h-3.375v1.125h4.5v1.125h-11.25v-1.125h5.625V-13.5h-3.375v-1.125h3.375V-15.75h-4.5v-1.125h4.5Zm-3.375,7.875h7.875V-2.25h-1.125v1.125H338.5V-2.25h-3.375v1.125H334V0h-1.125V-1.125H334V-2.25h-1.125ZM334-9v1.125h5.625V-9Zm0,2.25v1.125h5.625V-6.75Zm0,2.25v1.125h5.625V-4.5Zm5.625,3.375h1.125V0h-1.125Z" transform="translate(-762 6265)" fill="#fff"/>
    <g id="Group_41388" data-name="Group 41388" transform="translate(-288 6286.75) rotate(-90)">
      <rect id="Rectangle_33782" data-name="Rectangle 33782" width="3.431" height="6.861" transform="translate(48.028 75.472)" fill="#f77622"/>
      <rect id="Rectangle_33783" data-name="Rectangle 33783" width="3.431" height="10.292" transform="translate(6.861 72.042)" fill="#f77622"/>
      <rect id="Rectangle_33784" data-name="Rectangle 33784" width="3.431" height="3.431" transform="translate(51.458 72.042)" fill="#f77622"/>
      <rect id="Rectangle_33785" data-name="Rectangle 33785" width="3.431" height="3.431" transform="translate(54.889 68.611)" fill="#f77622"/>
      <rect id="Rectangle_33786" data-name="Rectangle 33786" width="3.431" height="3.431" transform="translate(3.431 68.611)" fill="#f77622"/>
      <rect id="Rectangle_33787" data-name="Rectangle 33787" width="3.431" height="6.861" transform="translate(20.583 37.736)" fill="#f77622"/>
      <rect id="Rectangle_33788" data-name="Rectangle 33788" width="3.431" height="3.431" transform="translate(10.292 41.167)" fill="#f77622"/>
      <rect id="Rectangle_33789" data-name="Rectangle 33789" width="3.431" height="6.861" transform="translate(34.306 34.306)" fill="#f77622"/>
      <rect id="Rectangle_33790" data-name="Rectangle 33790" width="3.431" height="6.861" transform="translate(48.028 30.875)" fill="#f77622"/>
      <path id="Path_53385" data-name="Path 53385" d="M13.722,3.43H10.292V0H0V3.43H3.431V6.861h6.861v3.431H3.431v3.43h6.861v6.861H3.431v3.43h6.861V37.736h3.431V68.611h3.431V34.305H13.722Z" transform="translate(44.597 0)" fill="#f77622"/>
      <rect id="Rectangle_33791" data-name="Rectangle 33791" width="3.431" height="37.736" transform="translate(0 30.875)" fill="#f77622"/>
      <path id="Path_53386" data-name="Path 53386" d="M0,0V3.431H10.292v6.861h3.431V0Z" transform="translate(3.431 27.444)" fill="#f77622"/>
      <path id="Path_53387" data-name="Path 53387" d="M0,0V3.431H10.292v6.861h3.431V0Z" transform="translate(17.153 24.014)" fill="#f77622"/>
      <path id="Path_53388" data-name="Path 53388" d="M10.292,17.153H0v3.43H10.292v6.861h3.431V0H10.292Z" transform="translate(30.875 3.431)" fill="#f77622"/>
      <path id="Path_53389" data-name="Path 53389" d="M44.6,78.9V72.042h3.431v-3.43h3.431V65.181h3.431V34.306H51.458V20.583H44.6v-3.43h6.861V10.292H44.6V6.861h6.861V3.431H44.6V0H41.167V27.445H37.736V20.583H27.444V30.875H24.014V24.014H13.722V34.306H10.292V27.445H0V65.181H3.431v3.431H6.861V78.9Zm3.431-51.458v6.861H44.6V27.445Zm-13.722,3.43v6.861H30.875V30.875ZM20.583,34.306v6.861H17.153V34.306ZM10.292,41.167H6.861v-3.43h3.431Z" transform="translate(3.431 3.431)" fill="#feae34"/>
    </g>
  </g>
</svg>
