<svg xmlns="http://www.w3.org/2000/svg" width="574.333" height="61.75" viewBox="0 0 574.333 61.75">
  <g id="g4-b1" transform="translate(780 -6311)">
    <g id="Path_54275" data-name="Path 54275" transform="translate(-780 6312)" fill="#4e332d">
      <path d="M 553.7891235351562 58 L 6.210928440093994 58 L 6.210928440093994 56.52785873413086 L 4.210928440093994 56.52785873413086 L 2 56.52785873413086 L 2 3.472357034683228 L 4.210928440093994 3.472357034683228 L 6.210928440093994 3.472357034683228 L 6.210928440093994 2 L 553.7891235351562 2 L 553.7891235351562 3.472357034683228 L 555.7891235351562 3.472357034683228 L 558 3.472357034683228 L 557.9999389648438 56.52785873413086 L 555.7891235351562 56.52785873413086 L 553.7891235351562 56.52785873413086 L 553.7891235351562 58 Z" stroke="none"/>
      <path d="M 551.7891235351562 56 L 551.7891235351562 54.52785873413086 L 555.7891235351562 54.52785873413086 L 555.9999389648438 54.52785873413086 L 556 5.472357273101807 L 555.7891235351562 5.472357273101807 L 551.7891235351562 5.472357273101807 L 551.7891235351562 4 L 8.210928916931152 4 L 8.210928916931152 5.472357273101807 L 4.210928440093994 5.472357273101807 L 4 5.472357273101807 L 4 54.52785873413086 L 4.210928440093994 54.52785873413086 L 8.210928916931152 54.52785873413086 L 8.210928916931152 56 L 551.7891235351562 56 M 555.7891235351562 60 L 4.210928440093994 60 L 4.210928440093994 58.52785873413086 L 5.684341886080801e-14 58.52785873413086 L 5.684341886080801e-14 1.472357153892517 L 4.210928440093994 1.472357153892517 L 4.210928440093994 3.552713678800501e-15 L 555.7891235351562 3.552713678800501e-15 L 555.7891235351562 1.472357153892517 L 560 1.472357153892517 L 559.9999389648438 58.52785873413086 L 555.7891235351562 58.52785873413086 L 555.7891235351562 59.9995002746582 L 555.7891235351562 60 Z" stroke="none" fill="#232323"/>
    </g>
    <path id="Path_54281" data-name="Path 54281" d="M1.512,0V-13.641H4.175a9.185,9.185,0,0,1,3.212.365A2.553,2.553,0,0,1,8.6-12.2a3.234,3.234,0,0,1,.4,1.626,3.932,3.932,0,0,1-.237,1.367,3.724,3.724,0,0,1-.7,1.178A4.779,4.779,0,0,1,6.715-7.022a4.355,4.355,0,0,1,2.2,1.6,3.635,3.635,0,0,1,.576,1.9A3.5,3.5,0,0,1,9-1.767,3.291,3.291,0,0,1,7.638-.457,6.438,6.438,0,0,1,4.825,0ZM3.287-7.5H5.15a4.143,4.143,0,0,0,1.323-.8A2.773,2.773,0,0,0,7.1-9.224,3,3,0,0,0,7.3-10.354a1.773,1.773,0,0,0-.567-1.441,3.633,3.633,0,0,0-2.21-.475H3.287Zm0,6.135H4.966a2.857,2.857,0,0,0,2.079-.664,2.161,2.161,0,0,0,.672-1.6,2.29,2.29,0,0,0-.369-1.261A2.492,2.492,0,0,0,6.205-5.8a6.444,6.444,0,0,0-2.426-.338H3.287ZM18,.413a1.379,1.379,0,0,1-1.011-.422,1.379,1.379,0,0,1-.422-1.011,1.368,1.368,0,0,1,.426-1.015A1.391,1.391,0,0,1,18-2.452,1.391,1.391,0,0,1,19-2.035a1.368,1.368,0,0,1,.426,1.015,1.379,1.379,0,0,1-.422,1.011A1.379,1.379,0,0,1,18,.413ZM28-18Zm3.375,0H32.5v4.5h2.25v1.125H32.5v2.25h1.125V-9H32.5v7.875H31.375V0H30.25V-1.125h1.125v-6.75H30.25V-6.75H28V-7.875h2.25V-9h1.125v-3.375H28V-13.5h3.375Zm4.5,1.125H41.5v5.625H40.375v-4.5H37v4.5H35.875v1.125H34.75V-11.25h1.125ZM41.5-11.25h2.25v1.125H41.5ZM34.75-9h7.875v2.25H41.5v1.125H40.375V-4.5H39.25v1.125H38.125V-2.25H37v1.125H34.75V0H32.5V-1.125h2.25V-2.25H37V-3.375h1.125V-4.5H39.25V-5.625h1.125V-6.75H41.5V-7.875H37v2.25H35.875v-2.25H34.75ZM37-5.625h1.125V-4.5H37Zm2.25,2.25H41.5V-2.25H39.25ZM29.125-2.25H30.25v1.125H29.125Zm12.375,0h3.375v1.125H43.75V0H42.625V-1.125H41.5ZM47.8-18Zm1.125,0H50.05v1.125H48.925Zm6.75,0H56.8v1.125h6.75v2.25H62.425V-13.5H61.3v-1.125h1.125V-15.75H59.05v2.25H57.925v1.125H56.8v1.125H55.675v1.125H61.3V-11.25h3.375v1.125H63.55V-9H62.425v-1.125H61.3V-2.25H60.175v1.125H59.05V-2.25H53.425v1.125H52.3V0H51.175V-1.125H52.3V-2.25H51.175V-9H50.05v-2.25H47.8v-1.125h2.25V-13.5h1.125v-1.125H52.3V-15.75h1.125v1.125H52.3V-13.5H51.175v3.375h2.25V-11.25h2.25v-1.125H56.8V-13.5h1.125v-2.25h-2.25v1.125H54.55V-13.5H53.425v-1.125H54.55V-15.75h1.125ZM50.05-16.875h1.125v2.25H50.05Zm9,3.375h1.125v1.125H59.05Zm1.125,1.125H61.3v1.125H60.175ZM52.3-9v1.125h7.875V-9Zm0,2.25v1.125h7.875V-6.75Zm0,2.25v1.125h7.875V-4.5Zm7.875,3.375H61.3V0H60.175ZM67.6-18Zm1.125,1.125H74.35V-9h-4.5V0H68.725Zm7.875,0h5.625v15.75H81.1V0H79.975V-1.125H81.1V-9H76.6ZM69.85-15.75v2.25h3.375v-2.25Zm7.875,0v2.25H81.1v-2.25ZM69.85-12.375v2.25h3.375v-2.25Zm7.875,0v2.25H81.1v-2.25ZM78.85-2.25h1.125v1.125H78.85ZM87.4-18Zm3.375,0H91.9v4.5h2.25v-3.375h5.625v1.125h-2.25v1.125H98.65v3.375H97.525v1.125H98.65V-11.25h1.125V-13.5H100.9V-18h1.125v3.375h2.25V-13.5H103.15v1.125h-1.125V-13.5H100.9v2.25H99.775V-9H94.15v2.25H93.025V-9H94.15v-3.375H91.9v2.25h1.125V-9H91.9V0H90.775V-9H89.65v2.25H88.525v1.125H87.4V-6.75h1.125V-9H89.65v-2.25h1.125v-1.125H87.4V-13.5h3.375Zm4.5,2.25v1.125H96.4V-15.75Zm0,2.25v1.125h2.25V-13.5Zm7.875,1.125h1.125v2.25H103.15ZM95.275-11.25v1.125H96.4V-11.25Zm0,3.375h7.875V-2.25h1.125v1.125H94.15V-2.25h1.125ZM96.4-6.75v4.5h1.125v-4.5Zm2.25,0v4.5h1.125v-4.5Zm2.25,0v4.5h1.125v-4.5ZM107.2-18Zm3.375,0H111.7v3.375h-1.125V0H109.45V-11.25h-1.125v1.125H107.2V-11.25h1.125v-1.125h1.125v-2.25h1.125ZM120.7-18h1.125v1.125h1.125v1.125h-4.5v5.625h5.625V-9h-4.5v3.375H118.45V-9h-4.5v5.625h1.125V-4.5H116.2v1.125h-1.125V-2.25H113.95v1.125h-1.125V-15.75h5.625v-1.125h2.25Zm-6.75,3.375v4.5h3.375v-4.5Zm5.625,9H120.7v2.25h-1.125Zm3.375,0h1.125V0H122.95V-1.125h-1.125V-2.25h1.125Zm-5.625,2.25h1.125V-2.25h-1.125Zm3.375,0h1.125V-2.25H120.7ZM118.45-2.25h1.125V0H118.45Zm17.532-5.472a1.089,1.089,0,0,0-.846.306,1.044,1.044,0,0,0-.324.81,1.071,1.071,0,0,0,.306.792,1.047,1.047,0,0,0,.774.324.963.963,0,0,0,.4-.072,2.123,2.123,0,0,1-.378,1.206,2.6,2.6,0,0,1-1.152.792v.882a3.472,3.472,0,0,0,1.854-1.17,3.373,3.373,0,0,0,.7-2.106,2.091,2.091,0,0,0-.36-1.26A1.149,1.149,0,0,0,135.982-7.722ZM146.8-18Zm6.75,0h1.125v2.25h9v1.125H153.55v2.25h6.75v11.25h-1.125V0H158.05V-1.125h1.125V-4.5h-6.75V0H151.3V-9h-1.125v1.125H149.05V-6.75h-1.125v1.125H146.8V-6.75h1.125V-7.875h1.125V-9h1.125v-1.125H151.3v-2.25h1.125v-2.25H146.8V-15.75h6.75Zm-1.125,6.75V-9h6.75v-2.25Zm0,3.375v2.25h6.75v-2.25Zm4.5,5.625h1.125v1.125h-1.125ZM166.6-18Zm7.875,0H175.6V-7.875h4.5V-9h-3.375v-1.125h1.125V-11.25h1.125v-1.125h-2.25V-13.5h1.125v-1.125h1.125v-2.25H180.1v2.25h-1.125V-13.5h2.25v-1.125h1.125V-13.5h-1.125v1.125H180.1v1.125h-1.125v1.125h2.25V-11.25h1.125v1.125h1.125V-9h-2.25v1.125h2.25V-6.75H175.6V-4.5h-1.125V-6.75H171.1V-4.5h1.125v1.125h-2.25v2.25H168.85V0h-1.125V-1.125h1.125v-2.25h1.125V-6.75H166.6V-7.875h3.375V-9h-2.25v-1.125h1.125V-11.25h1.125v-1.125h-2.25V-13.5h1.125v-1.125h1.125v-2.25H171.1v2.25h-1.125V-13.5h2.25v-1.125h1.125V-13.5h-1.125v1.125H171.1v1.125h-1.125v1.125h2.25V-11.25h1.125v1.125h1.125ZM171.1-9v1.125h3.375V-9Zm7.875,3.375h2.25V-4.5h-2.25v1.125H177.85V-2.25H175.6v1.125h-1.125V0h-2.25V-1.125h2.25V-2.25H175.6V-4.5h1.125v1.125h1.125V-4.5h1.125Zm-6.75,2.25h1.125V-2.25h-1.125Zm9,0h1.125V0H180.1V-1.125h1.125ZM177.85-2.25h2.25v1.125h-2.25ZM186.4-18Zm11.25,0h1.125v1.125H199.9v1.125h-4.5v5.625h7.875V-9H195.4V0h-1.125V-9H186.4v-1.125h7.875v-4.5H188.65V-15.75h6.75v-1.125h2.25Zm8.55,0Zm2.25,2.25h12.375v1.125H208.45Zm-2.25,4.5h16.875v1.125H217.45V-2.25h-1.125v-7.875H212.95v4.5h-1.125v2.25H210.7V-2.25h-1.125v1.125H208.45V0H206.2V-1.125h2.25V-2.25h1.125V-3.375H210.7v-2.25h1.125v-4.5H206.2Zm15.75,5.625h1.125v4.5H217.45V-2.25h4.5ZM226-18Zm2.25,0h1.125v1.125H228.25Zm7.875,0h1.125v5.625h5.625v1.125H239.5v9h-1.125v-9H237.25V-4.5h-1.125v2.25H235v1.125h-1.125V0H232.75V-1.125h1.125V-2.25H235V-4.5h1.125v-6.75H232.75v4.5H230.5v5.625h-1.125V0H228.25V-1.125h1.125V-6.75h-2.25v-4.5h5.625v-1.125h3.375Zm-6.75,1.125H230.5v1.125h-1.125Zm9,0H239.5v1.125h-1.125ZM239.5-15.75h1.125v1.125H239.5ZM226-14.625h7.875V-13.5H226Zm2.25,4.5v2.25h3.375v-2.25Zm-1.125,4.5h1.125V-4.5h-1.125v1.125H226V-4.5h1.125Zm4.5,0h1.125V-4.5h-1.125ZM232.75-4.5h1.125v1.125H232.75Zm9,0h1.125v3.375H239.5V-2.25h2.25ZM227.125-2.25h1.125v1.125h-1.125ZM245.8-18Zm1.125,1.125h15.75v1.125H259.3V-1.125h-1.125V0H257.05V-1.125h1.125V-15.75h-11.25ZM250.3-13.5h5.625v9H254.8V-5.625h-3.375V-4.5H250.3Zm1.125,1.125V-6.75H254.8v-5.625Zm4.5,10.125h1.125v1.125h-1.125ZM265.6-18Zm5.625,1.125h1.125v1.125h-1.125Zm7.875,0h1.125V-9H279.1v3.375h-1.125V-4.5H279.1v1.125h-2.25V-2.25h-1.125v1.125h-2.25V0h-2.25V-1.125h2.25V-2.25h2.25V-3.375h1.125v-2.25h1.125V-9H279.1ZM267.85-15.75h1.125V-3.375H270.1V-4.5h1.125V-5.625h1.125V-6.75h1.125V-7.875H274.6V-6.75h-1.125v1.125H272.35V-4.5h-1.125v1.125H270.1V-2.25h-1.125v1.125H267.85Zm4.5,0h1.125v1.125H272.35Zm1.125,1.125H274.6v2.25h-1.125ZM279.1-3.375h1.125V-2.25H279.1Zm1.125,1.125h1.125V0h-1.125ZM285.4-18Zm3.375,0H289.9v4.5h2.25v1.125H289.9v2.25h1.125V-9H289.9v7.875h-1.125V0H287.65V-1.125h1.125v-6.75H287.65V-6.75H285.4V-7.875h2.25V-9h1.125v-3.375H285.4V-13.5h3.375Zm4.5,1.125H298.9v5.625h-1.125v-4.5H294.4v4.5h-1.125v1.125H292.15V-11.25h1.125ZM298.9-11.25h2.25v1.125H298.9ZM292.15-9h7.875v2.25H298.9v1.125h-1.125V-4.5H296.65v1.125h-1.125V-2.25H294.4v1.125h-2.25V0H289.9V-1.125h2.25V-2.25h2.25V-3.375h1.125V-4.5h1.125V-5.625h1.125V-6.75H298.9V-7.875h-4.5v2.25h-1.125v-2.25H292.15Zm2.25,3.375h1.125V-4.5H294.4Zm2.25,2.25h2.25V-2.25h-2.25ZM286.525-2.25h1.125v1.125h-1.125Zm12.375,0h3.375v1.125H301.15V0h-1.125V-1.125H298.9ZM305.2-18Zm1.125,0h1.125v1.125h-1.125Zm6.75,0H314.2v1.125h6.75v2.25h-1.125V-13.5H318.7v-1.125h1.125V-15.75H316.45v2.25h-1.125v1.125H314.2v1.125h-1.125v1.125H318.7V-11.25h3.375v1.125H320.95V-9h-1.125v-1.125H318.7V-2.25h-1.125v1.125H316.45V-2.25h-5.625v1.125H309.7V0h-1.125V-1.125H309.7V-2.25h-1.125V-9H307.45v-2.25H305.2v-1.125h2.25V-13.5h1.125v-1.125H309.7V-15.75h1.125v1.125H309.7V-13.5h-1.125v3.375h2.25V-11.25h2.25v-1.125H314.2V-13.5h1.125v-2.25h-2.25v1.125H311.95V-13.5h-1.125v-1.125h1.125V-15.75h1.125Zm-5.625,1.125h1.125v2.25H307.45Zm9,3.375h1.125v1.125H316.45Zm1.125,1.125H318.7v1.125h-1.125ZM309.7-9v1.125h7.875V-9Zm0,2.25v1.125h7.875V-6.75Zm0,2.25v1.125h7.875V-4.5Zm7.875,3.375H318.7V0h-1.125Z" transform="translate(-762 6351)" fill="#fff"/>
    <g id="Group_41389" data-name="Group 41389" transform="translate(-672 6376.75) rotate(-90)">
      <rect id="Rectangle_33782" data-name="Rectangle 33782" width="3.431" height="6.861" transform="translate(52.028 459.472)" fill="#f77622"/>
      <rect id="Rectangle_33783" data-name="Rectangle 33783" width="3.431" height="10.292" transform="translate(10.861 456.042)" fill="#f77622"/>
      <rect id="Rectangle_33784" data-name="Rectangle 33784" width="3.431" height="3.431" transform="translate(55.458 456.042)" fill="#f77622"/>
      <rect id="Rectangle_33785" data-name="Rectangle 33785" width="3.431" height="3.431" transform="translate(58.889 452.611)" fill="#f77622"/>
      <rect id="Rectangle_33786" data-name="Rectangle 33786" width="3.431" height="3.431" transform="translate(7.431 452.611)" fill="#f77622"/>
      <rect id="Rectangle_33787" data-name="Rectangle 33787" width="3.431" height="6.861" transform="translate(24.583 421.736)" fill="#f77622"/>
      <rect id="Rectangle_33788" data-name="Rectangle 33788" width="3.431" height="3.431" transform="translate(14.292 425.167)" fill="#f77622"/>
      <rect id="Rectangle_33789" data-name="Rectangle 33789" width="3.431" height="6.861" transform="translate(38.306 418.306)" fill="#f77622"/>
      <rect id="Rectangle_33790" data-name="Rectangle 33790" width="3.431" height="6.861" transform="translate(52.028 414.875)" fill="#f77622"/>
      <path id="Path_53385" data-name="Path 53385" d="M30.722,387.43H27.292V384H17v3.43h3.431v3.431h6.861v3.431H20.431v3.43h6.861v6.861H20.431v3.43h6.861v13.722h3.431v30.875h3.431V418.305H30.722Z" transform="translate(31.597)" fill="#f77622"/>
      <rect id="Rectangle_33791" data-name="Rectangle 33791" width="3.431" height="37.736" transform="translate(4 414.875)" fill="#f77622"/>
      <path id="Path_53386" data-name="Path 53386" d="M5,392v3.431H15.292v6.861h3.431V392Z" transform="translate(2.431 19.445)" fill="#f77622"/>
      <path id="Path_53387" data-name="Path 53387" d="M9,391v3.431H19.292v6.861h3.431V391Z" transform="translate(12.153 17.014)" fill="#f77622"/>
      <path id="Path_53388" data-name="Path 53388" d="M23.292,402.153H13v3.43H23.292v6.861h3.431V385H23.292Z" transform="translate(21.875 2.431)" fill="#f77622"/>
      <path id="Path_53389" data-name="Path 53389" d="M49.6,463.9v-6.861h3.431v-3.43h3.431V450.18h3.431V419.305H56.458V405.583H49.6v-3.43h6.861v-6.861H49.6v-3.43h6.861V388.43H49.6V385H46.167v27.445H42.736v-6.861H32.444v10.292H29.014v-6.861H18.722v10.292H15.292v-6.861H5V450.18H8.431v3.431h3.431V463.9Zm3.431-51.458v6.861H49.6v-6.861Zm-13.722,3.43v6.861H35.875v-6.861Zm-13.722,3.431v6.861H22.153v-6.861Zm-10.292,6.861H11.861v-3.43h3.431Z" transform="translate(2.431 2.431)" fill="#feae34"/>
    </g>
  </g>
</svg>
