<svg xmlns="http://www.w3.org/2000/svg" width="560" height="60" viewBox="0 0 560 60">
  <g id="g4-c" transform="translate(780 -6107)">
    <g id="Path_54276" data-name="Path 54276" transform="translate(-780 6107)" fill="#fff">
      <path d="M 553.7891235351562 58 L 6.210928440093994 58 L 6.210928440093994 56.52785873413086 L 4.210928440093994 56.52785873413086 L 2 56.52785873413086 L 2 3.472357034683228 L 4.210928440093994 3.472357034683228 L 6.210928440093994 3.472357034683228 L 6.210928440093994 2 L 553.7891235351562 2 L 553.7891235351562 3.472357034683228 L 555.7891235351562 3.472357034683228 L 558 3.472357034683228 L 557.9999389648438 56.52785873413086 L 555.7891235351562 56.52785873413086 L 553.7891235351562 56.52785873413086 L 553.7891235351562 58 Z" stroke="none"/>
      <path d="M 551.7891235351562 56 L 551.7891235351562 54.52785873413086 L 555.7891235351562 54.52785873413086 L 555.9999389648438 54.52785873413086 L 556 5.472357273101807 L 555.7891235351562 5.472357273101807 L 551.7891235351562 5.472357273101807 L 551.7891235351562 4 L 8.210928916931152 4 L 8.210928916931152 5.472357273101807 L 4.210928440093994 5.472357273101807 L 4 5.472357273101807 L 4 54.52785873413086 L 4.210928440093994 54.52785873413086 L 8.210928916931152 54.52785873413086 L 8.210928916931152 56 L 551.7891235351562 56 M 555.7891235351562 60 L 4.210928440093994 60 L 4.210928440093994 58.52785873413086 L 5.684341886080801e-14 58.52785873413086 L 5.684341886080801e-14 1.472357153892517 L 4.210928440093994 1.472357153892517 L 4.210928440093994 3.552713678800501e-15 L 555.7891235351562 3.552713678800501e-15 L 555.7891235351562 1.472357153892517 L 560 1.472357153892517 L 559.9999389648438 58.52785873413086 L 555.7891235351562 58.52785873413086 L 555.7891235351562 59.9995002746582 L 555.7891235351562 60 Z" stroke="none" fill="#232323"/>
    </g>
    <path id="Path_54282" data-name="Path 54282" d="M9.563-.158A7.946,7.946,0,0,1,6.82.413,5.371,5.371,0,0,1,3.876-.444,5.6,5.6,0,0,1,1.784-2.993,9.383,9.383,0,0,1,1.037-6.82a9.4,9.4,0,0,1,.738-3.806,5.631,5.631,0,0,1,2.083-2.558,5.341,5.341,0,0,1,2.962-.87,7.946,7.946,0,0,1,2.742.571v1.617a5.587,5.587,0,0,0-2.812-.817,2.964,2.964,0,0,0-1.929.721A4.988,4.988,0,0,0,3.41-9.848,8.36,8.36,0,0,0,2.874-6.82a8.3,8.3,0,0,0,.554,3.067,5,5,0,0,0,1.415,2.1,2.956,2.956,0,0,0,1.907.7,5.62,5.62,0,0,0,2.813-.817ZM18,.413a1.379,1.379,0,0,1-1.011-.422,1.379,1.379,0,0,1-.422-1.011,1.368,1.368,0,0,1,.426-1.015A1.391,1.391,0,0,1,18-2.452,1.391,1.391,0,0,1,19-2.035a1.368,1.368,0,0,1,.426,1.015,1.379,1.379,0,0,1-.422,1.011A1.379,1.379,0,0,1,18,.413ZM28-18Zm9,0h1.125v2.25H43.75v3.375H42.625v1.125h-2.25v-1.125h2.25v-2.25H37v2.25H35.875v1.125H34.75v-1.125h1.125v-2.25H37Zm-6.75,1.125h1.125v1.125H30.25Zm1.125,1.125H32.5v2.25H31.375ZM28-13.5h1.125v1.125H28Zm1.125,1.125H30.25v2.25H29.125ZM32.5-11.25h1.125V-9H32.5v2.25H31.375v5.625H30.25v-4.5H28V-6.75h3.375V-9H32.5Zm3.375,1.125H43.75v2.25H42.625v2.25H41.5V-4.5H40.375v1.125H39.25V-2.25H38.125v1.125h-2.25V0h-2.25V-1.125h2.25V-2.25h2.25V-3.375H39.25V-4.5h1.125V-5.625H41.5v-2.25h1.125V-9h-4.5v2.25H37V-9H35.875Zm2.25,3.375H39.25V-4.5H38.125Zm2.25,3.375H41.5V-2.25H40.375ZM41.5-2.25h3.375v1.125H43.75V0H42.625V-1.125H41.5ZM47.8-18Zm6.75,0h1.125v2.25h9v1.125H54.55v2.25H61.3v11.25H60.175V0H59.05V-1.125h1.125V-4.5h-6.75V0H52.3V-9H51.175v1.125H50.05V-6.75H48.925v1.125H47.8V-6.75h1.125V-7.875H50.05V-9h1.125v-1.125H52.3v-2.25h1.125v-2.25H47.8V-15.75h6.75Zm-1.125,6.75V-9h6.75v-2.25Zm0,3.375v2.25h6.75v-2.25Zm4.5,5.625H59.05v1.125H57.925ZM67.6-18Zm11.25,0h1.125v2.25H83.35v1.125H79.975v2.25h4.5v1.125h-2.25V-9h2.25v1.125h-2.25v6.75H81.1V0H79.975V-1.125H81.1v-6.75H74.35v4.5H73.225V-4.5H69.85v1.125H68.725V-15.75H74.35V-9H81.1v-2.25H75.475v-1.125H78.85v-2.25H76.6V-15.75h2.25Zm-9,3.375v3.375h3.375v-3.375Zm0,4.5v4.5h3.375v-4.5ZM76.6-6.75h1.125v1.125H76.6Zm1.125,1.125H78.85v2.25H77.725ZM78.85-2.25h1.125v1.125H78.85ZM87.4-18Zm1.125,1.125H94.15v5.625h-4.5V0H88.525Zm7.875,0h5.625v15.75H100.9V0H99.775V-1.125H100.9V-11.25H96.4ZM89.65-15.75v1.125h3.375V-15.75Zm7.875,0v1.125H100.9V-15.75ZM89.65-13.5v1.125h3.375V-13.5Zm7.875,0v1.125H100.9V-13.5ZM91.9-10.125h6.75v6.75H97.525V-4.5h-4.5v1.125H91.9ZM93.025-9v1.125h4.5V-9Zm0,2.25v1.125h4.5V-6.75Zm5.625,4.5h1.125v1.125H98.65ZM107.2-18Zm3.375,0H111.7v1.125h12.375v1.125h-4.5v1.125h3.375v3.375H111.7v-3.375h3.375V-15.75H111.7v1.125h-1.125V0H109.45V-11.25h-1.125v1.125H107.2V-11.25h1.125v-1.125h1.125v-2.25h1.125Zm5.625,2.25v1.125h2.25V-15.75Zm-3.375,2.25v1.125h2.25V-13.5Zm3.375,0v1.125h2.25V-13.5Zm3.375,0v1.125h2.25V-13.5Zm-6.75,3.375h9V-2.25H120.7v1.125h-1.125V-2.25h-4.5v1.125H113.95V0h-1.125V-1.125h1.125V-2.25h-1.125ZM113.95-9v1.125h6.75V-9Zm0,2.25v1.125h6.75V-6.75Zm0,2.25v1.125h6.75V-4.5Zm6.75,3.375h1.125V0H120.7ZM127-18Zm4.5,0h1.125v2.25h4.5V-18h1.125v2.25h5.625v1.125H138.25v2.25h3.375V-2.25h2.25v1.125H131.5V0h-1.125V-11.25H129.25v1.125h-1.125V-9H127v-1.125h1.125V-11.25h1.125v-1.125h1.125v-2.25H131.5Zm0,3.375V-2.25h2.25V-12.375h3.375v-2.25Zm3.375,3.375v1.125H140.5V-11.25Zm0,2.25v1.125H140.5V-9Zm0,2.25v1.125H140.5V-6.75Zm0,2.25v2.25H140.5V-4.5Zm20.907-3.222a1.089,1.089,0,0,0-.846.306,1.044,1.044,0,0,0-.324.81,1.071,1.071,0,0,0,.306.792,1.047,1.047,0,0,0,.774.324.963.963,0,0,0,.4-.072,2.123,2.123,0,0,1-.378,1.206,2.6,2.6,0,0,1-1.152.792v.882a3.473,3.473,0,0,0,1.854-1.17,3.373,3.373,0,0,0,.7-2.106,2.091,2.091,0,0,0-.36-1.26A1.149,1.149,0,0,0,155.782-7.722ZM166.6-18Zm1.125,1.125h15.75v1.125H180.1V-1.125h-1.125V0H177.85V-1.125h1.125V-15.75h-11.25ZM171.1-13.5h5.625v9H175.6V-5.625h-3.375V-4.5H171.1Zm1.125,1.125V-6.75H175.6v-5.625Zm4.5,10.125h1.125v1.125h-1.125ZM186.4-18Zm5.625,1.125h1.125v1.125h-1.125Zm7.875,0h1.125V-9H199.9v3.375h-1.125V-4.5H199.9v1.125h-2.25V-2.25h-1.125v1.125h-2.25V0h-2.25V-1.125h2.25V-2.25h2.25V-3.375h1.125v-2.25h1.125V-9H199.9ZM188.65-15.75h1.125V-3.375H190.9V-4.5h1.125V-5.625h1.125V-6.75h1.125V-7.875H195.4V-6.75h-1.125v1.125H193.15V-4.5h-1.125v1.125H190.9V-2.25h-1.125v1.125H188.65Zm4.5,0h1.125v1.125H193.15Zm1.125,1.125H195.4v2.25h-1.125ZM199.9-3.375h1.125V-2.25H199.9Zm1.125,1.125h1.125V0h-1.125ZM206.2-18Zm0,7.875h16.875V-9H206.2ZM226-18Zm7.875,0H235v2.25h6.75v1.125H235v2.25h4.5V-2.25h3.375v1.125H226V-2.25h3.375V-12.375h4.5v-2.25h-6.75V-15.75h6.75ZM230.5-11.25v1.125h7.875V-11.25Zm0,2.25v1.125h7.875V-9Zm0,2.25v1.125h7.875V-6.75Zm0,2.25v2.25h7.875V-4.5ZM245.8-18Zm2.25,0h1.125v1.125H248.05Zm7.875,0h1.125v3.375h-1.125V-13.5h6.75v1.125h-2.25v4.5H259.3v2.25h-1.125V-4.5H257.05v1.125h-1.125V-2.25H254.8v1.125h-1.125V0H252.55V-1.125h1.125V-2.25H254.8V-3.375h1.125V-4.5h1.125V-5.625h1.125v-2.25H259.3v-4.5h-4.5v1.125h-1.125v1.125H252.55V-2.25h-1.125v1.125H250.3V-2.25h1.125V-9h-2.25v4.5H248.05v2.25h-1.125v1.125H245.8V-2.25h1.125V-4.5h1.125v-7.875H245.8V-13.5h7.875v1.125h-4.5v2.25h3.375V-11.25h1.125v-1.125H254.8v-2.25h1.125Zm-6.75,1.125H250.3v2.25h-1.125ZM254.8-11.25h1.125v3.375H254.8Zm1.125,3.375h1.125v2.25h-1.125Zm2.25,3.375H259.3v2.25h-1.125Zm-9,1.125H250.3V-2.25h-1.125ZM259.3-2.25h3.375v1.125H261.55V0h-1.125V-1.125H259.3ZM265.6-18Zm4.5,0h1.125v1.125h5.625V-18h1.125v1.125h4.5v1.125h-4.5v1.125H276.85V-15.75h-5.625v1.125H270.1V-15.75h-4.5v-1.125h4.5Zm3.375,3.375H274.6V-13.5h4.5v-1.125h1.125V-13.5H279.1v1.125h-1.125v1.125H276.85v1.125h5.625V-9H274.6v1.125h-2.25V-6.75h6.75V0h-1.125V-1.125h-6.75V0H270.1V-5.625h-2.25V-4.5H265.6V-5.625h2.25V-6.75h2.25V-7.875h2.25V-9H265.6v-1.125h7.875v-2.25H267.85V-13.5h5.625Zm1.125,2.25v2.25h1.125V-11.25h1.125v-1.125Zm-3.375,6.75V-4.5h6.75V-5.625Zm0,2.25V-2.25h6.75V-3.375Z" transform="translate(-762 6146)" fill="#15172a"/>
  </g>
</svg>
