<svg xmlns="http://www.w3.org/2000/svg" width="730.113" height="270.477" viewBox="0 0 730.113 270.477">
  <g id="g4-img" transform="translate(-213 -419)">
    <g id="Exclusion_16" data-name="Exclusion 16" transform="translate(213 419.001)" fill="#232323">
      <path d="M 646 176.0002136230469 L 6.872583389282227 176.0002136230469 L 6.872583389282227 173.6316375732422 L 6.872583389282227 171.6316375732422 L 4.872583389282227 171.6316375732422 L 2 171.6316375732422 L 2 6.36855411529541 L 4.872583389282227 6.36855411529541 L 6.872583389282227 6.36855411529541 L 6.872583389282227 4.36855411529541 L 6.872583389282227 2.000887393951416 L 641.99951171875 2.000887393951416 L 641.99951171875 3.998720645904541 L 641.99951171875 5.998720645904541 L 643.99951171875 5.998720645904541 L 646 5.998720645904541 L 646 176.0002136230469 Z" stroke="none"/>
      <path d="M 644 174.0002136230469 L 644 7.998720645904541 L 643.99951171875 7.998720645904541 L 639.99951171875 7.998720645904541 L 639.99951171875 4.000887393951416 L 8.872583389282227 4.000887393951416 L 8.872583389282227 4.36855411529541 L 8.872583389282227 8.36855411529541 L 4.872583389282227 8.36855411529541 L 4 8.36855411529541 L 4 169.6316375732422 L 4.872583389282227 169.6316375732422 L 8.872583389282227 169.6316375732422 L 8.872583389282227 173.6316375732422 L 8.872583389282227 174.0002136230469 L 644 174.0002136230469 M 648 178.001220703125 L 648 178.0002136230469 L 4.872583389282227 178.0002136230469 L 4.872583389282227 173.6316375732422 L 5.684341886080801e-14 173.6316375732422 L 5.684341886080801e-14 4.36855411529541 L 4.872583389282227 4.36855411529541 L 4.872583389282227 0.000887329108081758 L 643.99951171875 0.000887329108081758 L 643.99951171875 3.998720645904541 L 648 3.998720645904541 L 648 178.0002136230469 L 648 178.001220703125 Z M 648 0.001887329155579209 L 643.99951171875 0.000887329108081758 L 648 -0.0009460042347200215 L 648 5.399576912168413e-05 L 648 0.001887329155579209 Z" stroke="none" fill="#fff"/>
    </g>
    <path id="Path_54270" data-name="Path 54270" d="M0-18Zm3.375,0H4.5v4.5H6.75v-1.125H9V-15.75H6.75v-1.125H9V-18h1.125v1.125H13.5V-18h1.125v1.125h2.25v1.125h-2.25v1.125h2.25v3.375h-4.5v1.125H11.25V-11.25h1.125v-3.375H13.5V-15.75H10.125v1.125H11.25v3.375H10.125v1.125H9V-9h3.375v-1.125H13.5V-9h3.375v1.125h-4.5V-6.75H15.75v1.125H12.375V-4.5H15.75v1.125H12.375V-2.25h4.5v1.125H9V0H7.875V-7.875H6.75V-6.75H5.625V-7.875H6.75V-9H7.875v-1.125H9V-11.25H6.75v-1.125H4.5v1.125H5.625v1.125H4.5V0H3.375V-9H2.25v2.25H1.125v1.125H0V-6.75H1.125V-9H2.25v-2.25H3.375v-1.125H0V-13.5H3.375Zm4.5,4.5v1.125h2.25V-13.5Zm5.625,0v1.125h2.25V-13.5ZM5.625-10.125H6.75V-9H5.625ZM9-7.875V-6.75h2.25V-7.875Zm0,2.25V-4.5h2.25V-5.625Zm0,2.25V-2.25h2.25V-3.375ZM19.8-18Zm2.25,0h1.125v1.125H22.05Zm1.125,1.125H24.3v1.125H23.175Zm4.5,0H31.05V-13.5H29.925v1.125H28.8v1.125H27.675v1.125H26.55V-11.25h1.125v-1.125H28.8V-13.5h1.125v-2.25h-2.25Zm4.5,0H33.3v1.125h1.125v-1.125H35.55v1.125H34.425v2.25H35.55v-1.125h1.125V-13.5H35.55v2.25H34.425v1.125H28.8V-11.25h5.625v-1.125H33.3v-2.25H32.175ZM19.8-14.625h6.75V-13.5H19.8Zm7.875,0H28.8V-13.5H27.675Zm-6.75,2.25h4.5v1.125h-4.5ZM35.55-11.25h1.125v1.125H35.55ZM20.925-10.125h4.5V-9h-4.5ZM28.8-9h5.625v5.625H33.3V-2.25h3.375v1.125H26.55V-2.25h3.375V-3.375H31.05V-2.25h1.125V-3.375H33.3V-4.5H29.925v1.125H28.8ZM20.925-7.875h4.5v6.75H24.3V-2.25H22.05v1.125H20.925Zm9,0v2.25H33.3v-2.25ZM22.05-6.75v3.375H24.3V-6.75ZM39.6-18Zm2.25,0h1.125v1.125H41.85Zm7.875,0H50.85v5.625h5.625v1.125H53.1v9H51.975v-9H50.85V-4.5H49.725v2.25H48.6v1.125H47.475V0H46.35V-1.125h1.125V-2.25H48.6V-4.5h1.125v-6.75H46.35v4.5H44.1v5.625H42.975V0H41.85V-1.125h1.125V-6.75h-2.25v-4.5H46.35v-1.125h3.375Zm-6.75,1.125H44.1v1.125H42.975Zm9,0H53.1v1.125H51.975ZM53.1-15.75h1.125v1.125H53.1ZM39.6-14.625h7.875V-13.5H39.6Zm2.25,4.5v2.25h3.375v-2.25Zm-1.125,4.5H41.85V-4.5H40.725v1.125H39.6V-4.5h1.125Zm4.5,0H46.35V-4.5H45.225ZM46.35-4.5h1.125v1.125H46.35Zm9,0h1.125v3.375H53.1V-2.25h2.25ZM40.725-2.25H41.85v1.125H40.725ZM59.4-18Zm4.5,0h7.875v7.875H63.9Zm1.125,1.125v2.25H70.65v-2.25Zm0,3.375v2.25H70.65V-13.5ZM60.525-9H75.15v1.125H68.4v2.25h5.625V-4.5H68.4v3.375H66.15V-2.25h1.125V-7.875h-6.75ZM63.9-6.75h1.125v3.375H63.9V-2.25H62.775v1.125H61.65V0H60.525V-1.125H61.65V-2.25h1.125V-3.375H63.9Zm1.125,3.375H66.15V-2.25H65.025ZM68.4-1.125h6.75V0H68.4ZM79.2-18Zm7.875,0H88.2v3.375h7.875V-13.5h-9v1.125H85.95v2.25H84.825V-2.25h4.5V-7.875H85.95V-9h3.375v-3.375H90.45V-9h3.375v1.125H90.45V-2.25h5.625v1.125H84.825V0H83.7V-6.75H82.575v1.125H81.45V-4.5H80.325v1.125H79.2V-4.5h1.125V-5.625H81.45V-6.75h1.125V-7.875H83.7v-2.25h1.125v-2.25H85.95V-13.5H80.325v-1.125h6.75ZM99-18Zm4.5,0h1.125v4.5h2.25v1.125h-2.25V-9h2.25v1.125h-2.25V0H103.5V-6.75h-2.25v1.125h-1.125V-6.75H99V-7.875h4.5v-4.5h-2.25v1.125h-1.125v1.125H99V-11.25h1.125v-4.5h1.125v2.25h2.25Zm6.75,0h1.125v2.25h3.375v1.125h-3.375v3.375h4.5v1.125h-2.25v2.25h2.25V-6.75h-2.25v5.625H112.5V0h-1.125V-1.125H112.5V-6.75h-3.375v1.125H108V-6.75h-1.125V-7.875H112.5v-2.25h-6.75V-11.25h4.5v-3.375h-3.375V-15.75h3.375ZM109.125-5.625h1.125v2.25h-1.125ZM110.25-2.25h1.125v1.125H110.25ZM118.8-18Zm6.75,0h1.125v1.125H125.55Zm1.125,1.125H127.8v1.125h7.875v1.125H134.55V-13.5h-1.125v1.125H132.3V-13.5h1.125v-1.125H121.05V-13.5h-1.125v1.125H118.8V-13.5h1.125v-2.25h6.75ZM121.05-11.25h12.375v1.125H127.8V-6.75h4.5v1.125h-4.5V-2.25h7.875v1.125h-11.25V-2.25h2.25v-7.875H121.05Zm1.125,3.375H123.3v4.5h-1.125V-2.25H121.05v1.125h-1.125V0H118.8V-1.125h1.125V-2.25h1.125V-3.375h1.125Zm1.125,4.5h1.125V-2.25H123.3ZM138.6-18Zm3.375,0H143.1v1.125h12.375v1.125h-4.5v1.125h3.375v3.375H143.1v-3.375h3.375V-15.75H143.1v1.125h-1.125V0H140.85V-11.25h-1.125v1.125H138.6V-11.25h1.125v-1.125h1.125v-2.25h1.125Zm5.625,2.25v1.125h2.25V-15.75Zm-3.375,2.25v1.125h2.25V-13.5Zm3.375,0v1.125h2.25V-13.5Zm3.375,0v1.125h2.25V-13.5Zm-6.75,3.375h9V-2.25H152.1v1.125h-1.125V-2.25h-4.5v1.125H145.35V0h-1.125V-1.125h1.125V-2.25h-1.125ZM145.35-9v1.125h6.75V-9Zm0,2.25v1.125h6.75V-6.75Zm0,2.25v1.125h6.75V-4.5Zm6.75,3.375h1.125V0H152.1ZM158.4-18Zm3.375,0H162.9v4.5h2.25v1.125H162.9v1.125h1.125v1.125H162.9V0h-1.125V-9H160.65v2.25h-1.125v1.125H158.4V-6.75h1.125V-9h1.125v-2.25h1.125v-1.125H158.4V-13.5h3.375Zm5.625,0h1.125v2.25h5.625v2.25h-1.125v1.125H171.9v1.125h-1.125v1.125H169.65V-9h-1.125v1.125h-2.25V-6.75h-2.25V-7.875h2.25V-9h2.25v-1.125h1.125V-11.25h1.125v-1.125H171.9V-13.5h1.125v-1.125H167.4V-13.5h1.125v1.125h-2.25v1.125H165.15v-1.125h1.125v-2.25H167.4Zm1.125,5.625h1.125v1.125h-1.125Zm-4.5,2.25h1.125V-9h-1.125Zm6.75,0h2.25V-9h-2.25ZM173.025-9h2.25v1.125h-2.25Zm-6.75,2.25h7.875V0h-1.125V-1.125H167.4V0h-1.125ZM167.4-5.625V-2.25h5.625V-5.625Zm19.782-2.1a1.089,1.089,0,0,0-.846.306,1.044,1.044,0,0,0-.324.81,1.071,1.071,0,0,0,.306.792,1.047,1.047,0,0,0,.774.324.963.963,0,0,0,.4-.072,2.123,2.123,0,0,1-.378,1.206,2.6,2.6,0,0,1-1.152.792v.882a3.473,3.473,0,0,0,1.854-1.17,3.373,3.373,0,0,0,.7-2.106,2.091,2.091,0,0,0-.36-1.26A1.149,1.149,0,0,0,187.182-7.722ZM198-18Zm2.25,0h1.125v4.5h2.25v1.125h-2.25v2.25H202.5V-11.25h1.125v1.125H202.5V-9h-1.125v7.875H200.25V0h-1.125V-1.125h1.125v-6.75h-1.125V-6.75H198V-7.875h1.125V-9h1.125v-3.375H198V-13.5h2.25Zm7.875,0h1.125v1.125h-1.125Zm1.125,1.125h1.125v1.125h4.5v1.125h-2.25V-13.5H211.5v-1.125h-1.125v2.25h2.25V-13.5h1.125v1.125h1.125v1.125h-2.25V-9h2.25v1.125h-2.25v2.25h2.25V-4.5h-2.25v2.25h2.25v1.125H209.25V0h-1.125V-5.625H207v2.25h-1.125V-2.25H204.75v1.125h-1.125V0H202.5V-1.125h1.125V-2.25h1.125V-3.375h1.125V-4.5H202.5V-5.625h1.125V-6.75h1.125V-7.875h1.125V-9h-2.25v-1.125h1.125v-2.25h1.125v-2.25h-2.25V-15.75h5.625ZM207-14.625v2.25h-1.125v2.25H207V-11.25h1.125v-1.125h1.125v-2.25Zm2.25,3.375V-9h2.25v-2.25ZM207-10.125v2.25h-1.125V-6.75H204.75v1.125H207V-6.75h1.125v-3.375Zm2.25,2.25v2.25h2.25v-2.25Zm0,3.375v2.25h2.25V-4.5ZM198-2.25h1.125v1.125H198ZM217.8-18Zm6.75,0h1.125v2.25h9v1.125H224.55v2.25h6.75v11.25h-1.125V0H229.05V-1.125h1.125V-4.5h-6.75V0H222.3V-9h-1.125v1.125H220.05V-6.75h-1.125v1.125H217.8V-6.75h1.125V-7.875h1.125V-9h1.125v-1.125H222.3v-2.25h1.125v-2.25H217.8V-15.75h6.75Zm-1.125,6.75V-9h6.75v-2.25Zm0,3.375v2.25h6.75v-2.25Zm4.5,5.625h1.125v1.125h-1.125ZM237.6-18Zm2.25,1.125h12.375v4.5H239.85Zm1.125,1.125v2.25h2.25v-2.25Zm3.375,0v2.25h3.375v-2.25Zm4.5,0v2.25h2.25v-2.25Zm-7.875,4.5H251.1v7.875h-2.25V-2.25h-1.125V-3.375H244.35V-2.25h-1.125v1.125H242.1V0h-1.125V-1.125H242.1V-2.25h1.125V-3.375h-2.25Zm1.125,1.125V-9h7.875v-1.125Zm0,2.25V-6.75h7.875V-7.875Zm0,2.25V-4.5h7.875V-5.625Zm6.75,3.375h1.125v1.125H248.85Zm1.125,1.125H251.1V0h-1.125ZM257.4-18Zm7.875,0H266.4v2.25h2.25v-1.125h1.125v1.125h4.5v1.125h-4.5v2.25h3.375v1.125h-3.375V-9h3.375v1.125h-3.375v2.25h4.5V-4.5h-9v1.125H264.15V-13.5h-1.125v1.125H261.9V-13.5h1.125v-1.125h1.125V-15.75h1.125Zm2.25,0h1.125v1.125h-1.125Zm-7.875,1.125h1.125v1.125H259.65Zm1.125,1.125H261.9v2.25h-1.125Zm4.5,1.125v2.25h3.375v-2.25ZM257.4-11.25h4.5v7.875h-1.125V-2.25H259.65v1.125h-1.125V-2.25h1.125V-3.375h1.125v-6.75H257.4Zm7.875,0V-9h3.375v-2.25Zm0,3.375v2.25h3.375v-2.25Zm-3.375,4.5h1.125V-2.25H261.9Zm1.125,1.125h11.25v1.125h-11.25ZM277.2-18Zm9,0h1.125v3.375h5.625V-13.5h-5.625V-9H286.2v-4.5h-7.875v-1.125H286.2Zm3.375,0H290.7v1.125h-1.125Zm1.125,1.125h1.125v1.125H290.7ZM279.45-11.25h5.625v5.625H279.45Zm11.25,0h1.125v3.375H290.7v2.25h-1.125v2.25H288.45V-2.25h-1.125v1.125H286.2V0h-2.25V-1.125h2.25V-2.25h1.125V-3.375h1.125v-2.25h1.125v-2.25H290.7Zm-10.125,1.125V-6.75h3.375v-3.375ZM287.325-9h1.125v3.375h-1.125Zm4.5,3.375h1.125V0h-1.125V-1.125H290.7V-2.25h1.125Zm-9,1.125H286.2v1.125h-3.375V-2.25h-4.5V-3.375h4.5Zm6.75,1.125H290.7V-2.25h-1.125ZM297-18Zm7.875,0H306v1.125h6.75v1.125H306v1.125h4.5V-13.5H300.375v-1.125h4.5V-15.75h-6.75v-1.125h6.75Zm-5.625,5.625h12.375V-9H310.5v6.75h-1.125v1.125H308.25V-2.25h-5.625v1.125H301.5V0h-1.125V-1.125H301.5V-2.25h-1.125V-9H299.25Zm1.125,1.125v1.125h2.25V-11.25Zm3.375,0v1.125h3.375V-11.25Zm4.5,0v1.125h2.25V-11.25ZM301.5-9v1.125h7.875V-9Zm0,2.25v1.125h7.875V-6.75Zm0,2.25v1.125h7.875V-4.5Zm7.875,3.375H310.5V0h-1.125ZM316.8-18Zm7.875,0H325.8v6.75h3.375v-4.5H330.3V-9h-1.125v-1.125H325.8V-2.25h4.5v-4.5h1.125V0H330.3V-1.125H319.05V-6.75h1.125v4.5h4.5v-7.875h-4.5V-15.75H321.3v4.5h3.375ZM336.6-18Zm3.375,0H341.1v2.25h-1.125v1.125h4.5v3.375H345.6V-13.5h1.125V-18h1.125v3.375h4.5V-2.25h-1.125v1.125H350.1V0h-1.125V-1.125H350.1V-2.25h1.125V-13.5h-4.5v2.25H345.6v1.125h-1.125v9H343.35V-2.25h-4.5v1.125h-1.125v-13.5h1.125V-15.75h1.125Zm-1.125,4.5V-9h4.5v-4.5Zm7.875,3.375h1.125V-9h-1.125ZM347.85-9h1.125v2.25H347.85Zm-9,1.125v4.5h4.5v-4.5Zm9,5.625h1.125v1.125H347.85ZM356.4-18Zm3.375,0H360.9v4.5h2.25v-1.125h2.25V-15.75h-2.25v-1.125h2.25V-18h1.125v1.125H369.9V-18h1.125v1.125h2.25v1.125h-2.25v1.125h2.25v3.375h-4.5v1.125H367.65V-11.25h1.125v-3.375H369.9V-15.75h-3.375v1.125h1.125v3.375h-1.125v1.125H365.4V-9h3.375v-1.125H369.9V-9h3.375v1.125h-4.5V-6.75h3.375v1.125h-3.375V-4.5h3.375v1.125h-3.375V-2.25h4.5v1.125H365.4V0h-1.125V-7.875H363.15V-6.75h-1.125V-7.875h1.125V-9h1.125v-1.125H365.4V-11.25h-2.25v-1.125H360.9v1.125h1.125v1.125H360.9V0h-1.125V-9H358.65v2.25h-1.125v1.125H356.4V-6.75h1.125V-9h1.125v-2.25h1.125v-1.125H356.4V-13.5h3.375Zm4.5,4.5v1.125h2.25V-13.5Zm5.625,0v1.125h2.25V-13.5Zm-7.875,3.375h1.125V-9h-1.125Zm3.375,2.25V-6.75h2.25V-7.875Zm0,2.25V-4.5h2.25V-5.625Zm0,2.25V-2.25h2.25V-3.375ZM376.2-18Zm7.875,0H385.2v1.125h1.125v1.125H382.95v4.5h3.375v1.125H382.95V-9h1.125v1.125H382.95V0h-1.125V-9H380.7v2.25h-1.125V-4.5H378.45v1.125h-1.125V-2.25H376.2V-3.375h1.125V-4.5h1.125V-6.75h1.125V-9H380.7v-1.125h-4.5V-11.25h5.625v-3.375h-4.5V-15.75h4.5v-1.125h2.25Zm6.75,0h1.125V-1.125h-1.125V0H389.7V-1.125h1.125Zm-3.375,3.375h1.125V-4.5H387.45Zm-3.375,6.75H385.2V-6.75h-1.125ZM385.2-6.75h1.125v1.125H385.2Zm3.375,4.5H389.7v1.125h-1.125ZM405-8.748a2.31,2.31,0,0,0-1.656.648,2.1,2.1,0,0,0-.684,1.62,2.06,2.06,0,0,0,.684,1.6A2.326,2.326,0,0,0,405-4.212a2.357,2.357,0,0,0,1.656-.666,2.15,2.15,0,0,0,.684-1.6,2.161,2.161,0,0,0-.684-1.62A2.341,2.341,0,0,0,405-8.748Zm0,.954a1.363,1.363,0,0,1,.954.378,1.256,1.256,0,0,1,.414.936,1.285,1.285,0,0,1-.414.936,1.363,1.363,0,0,1-.954.378,1.3,1.3,0,0,1-.954-.378,1.194,1.194,0,0,1-.414-.936,1.17,1.17,0,0,1,.414-.936A1.3,1.3,0,0,1,405-7.794ZM0,10Zm5.625,0H6.75v1.125H7.875V12.25H5.625v3.375H9V10h1.125v5.625h6.75V16.75h-6.75v4.5H9v-4.5H5.625v3.375H6.75V19H7.875v1.125H6.75V21.25H5.625v5.625H4.5V28H3.375V26.875H4.5v-4.5H3.375V23.5H1.125V22.375h2.25V21.25H4.5v-4.5H0V15.625H4.5v-2.25H1.125V12.25H4.5V11.125H5.625Zm6.75,1.125H13.5V12.25H12.375ZM13.5,12.25h1.125V14.5H13.5Zm0,5.625h1.125v2.25H13.5V21.25H12.375v1.125H11.25V23.5H10.125v1.125H9V25.75H7.875v1.125H6.75V25.75H7.875V24.625H9V23.5h1.125V21.25h2.25V20.125H13.5ZM11.25,23.5h1.125v1.125H11.25Zm3.375,0H15.75V28H14.625V26.875H13.5V25.75h1.125Zm-2.25,1.125H13.5V25.75H12.375ZM2.25,25.75H3.375v1.125H2.25ZM19.8,10Zm4.5,0h1.125v3.375H24.3V28H23.175V16.75H22.05v1.125H20.925V19H19.8V17.875h1.125V16.75H22.05V15.625h1.125v-2.25H24.3Zm2.25,1.125h4.5V19H27.675v9H26.55Zm5.625,0h4.5v15.75H35.55V28H34.425V26.875H35.55V19H32.175Zm-4.5,1.125V14.5h2.25V12.25Zm5.625,0V14.5h2.25V12.25Zm-5.625,3.375v2.25h2.25v-2.25Zm5.625,0v2.25h2.25v-2.25Zm0,10.125h1.125v1.125H33.3ZM39.6,10Zm7.875,0H48.6v1.125H47.475V12.25H46.35v1.125h7.875v13.5H53.1V28H51.975V26.875H53.1V14.5H42.975V28H41.85V13.375h3.375V12.25H46.35V11.125h1.125Zm-2.25,6.75H50.85v7.875H49.725V23.5H46.35v1.125H45.225Zm1.125,1.125v4.5h3.375v-4.5Zm4.5,7.875h1.125v1.125H50.85ZM59.4,10Zm2.25,0h1.125v1.125H61.65Zm1.125,1.125H63.9V12.25H62.775Zm4.5,0H70.65V14.5H69.525v1.125H68.4V16.75H67.275v1.125H66.15V16.75h1.125V15.625H68.4V14.5h1.125V12.25h-2.25Zm4.5,0H72.9V12.25h1.125V11.125H75.15V12.25H74.025V14.5H75.15V13.375h1.125V14.5H75.15v2.25H74.025v1.125H68.4V16.75h5.625V15.625H72.9v-2.25H71.775ZM59.4,13.375h6.75V14.5H59.4Zm7.875,0H68.4V14.5H67.275Zm-6.75,2.25h4.5V16.75h-4.5ZM75.15,16.75h1.125v1.125H75.15ZM60.525,17.875h4.5V19h-4.5ZM68.4,19h5.625v5.625H72.9V25.75h3.375v1.125H66.15V25.75h3.375V24.625H70.65V25.75h1.125V24.625H72.9V23.5H69.525v1.125H68.4Zm-7.875,1.125h4.5v6.75H63.9V25.75H61.65v1.125H60.525Zm9,0v2.25H72.9v-2.25ZM61.65,21.25v3.375H63.9V21.25ZM79.2,10Zm7.875,0H88.2v3.375h1.125V12.25H90.45V11.125h1.125V12.25H90.45v1.125h4.5V14.5H87.075v2.25h9v1.125h-4.5V19H90.45V17.875h-4.5V19H84.825v1.125H83.7V21.25H81.45v1.125H79.2V21.25h2.25V20.125H83.7V19h1.125V17.875H79.2V16.75h6.75V14.5H80.325V13.375h4.5V12.25H85.95v1.125h1.125ZM83.7,11.125h1.125V12.25H83.7ZM91.575,19H92.7v1.125H91.575v6.75H90.45V28H89.325V26.875H90.45V21.25H87.075V23.5H85.95v2.25H84.825v1.125H83.7V28H82.575V26.875H83.7V25.75h1.125V23.5H85.95V21.25H84.825V20.125h6.75ZM92.7,20.125h3.375V21.25H94.95v1.125H93.825V21.25H92.7ZM88.2,25.75h1.125v1.125H88.2ZM99,10Zm6.75,0h1.125v1.125H105.75Zm1.125,1.125H108V12.25h6.75v1.125h-3.375V14.5H110.25v1.125h3.375v11.25H112.5V28h-1.125V26.875H112.5V21.25h-1.125V20.125H112.5V16.75H102.375v3.375H103.5V19h1.125V17.875h1.125V19h-1.125v1.125H103.5V21.25h-1.125V28H101.25V15.625h3.375V14.5h1.125v1.125h3.375V14.5h1.125V13.375h-5.625V14.5H103.5V13.375h-3.375V12.25h6.75Zm2.25,6.75h1.125V19h-1.125ZM110.25,19h1.125v1.125H110.25v4.5h-5.625v-4.5h5.625Zm-4.5,2.25V23.5h3.375V21.25Zm4.5,4.5h1.125v1.125H110.25ZM118.8,10Zm4.5,0h1.125v3.375H123.3V28h-1.125V16.75H121.05v1.125h-1.125V19H118.8V17.875h1.125V16.75h1.125V15.625h1.125v-2.25H123.3Zm7.875,0H132.3v5.625h3.375V16.75H132.3V26.875h-1.125V28H130.05V26.875h1.125V16.75h-6.75V15.625h6.75Zm-4.5,9H127.8v1.125h-1.125Zm1.125,1.125h1.125v2.25H127.8Zm1.125,5.625h1.125v1.125h-1.125ZM138.6,10Zm7.875,0H147.6v6.75h3.375v-4.5H152.1V19h-1.125V17.875H147.6V25.75h4.5v-4.5h1.125V28H152.1V26.875H140.85V21.25h1.125v4.5h4.5V17.875h-4.5V12.25H143.1v4.5h3.375ZM158.4,10Zm0,7.875h16.875V19H158.4ZM178.2,10Zm3.375,0H182.7v1.125h4.5V12.25h-3.375v1.125H182.7V12.25h-1.125v1.125H180.45V14.5h-1.125V13.375h1.125V12.25h1.125Zm6.75,0h1.125v1.125h4.5V12.25h-3.375v1.125H189.45V12.25h-1.125v1.125H187.2V14.5h3.375V13.375H191.7V14.5h1.125v2.25h2.25v1.125h-2.25v2.25H187.2V21.25h5.625v1.125H187.2V23.5h6.75v1.125H187.2V28h-1.125V24.625h-6.75V23.5h6.75V22.375H180.45V21.25h5.625V20.125H180.45V19h5.625V17.875H178.2V16.75h7.875V15.625H180.45V14.5h3.375V13.375h1.125V14.5h1.125V13.375H187.2V12.25h1.125ZM187.2,15.625V16.75h4.5V15.625Zm0,2.25V19h4.5V17.875ZM198,10Zm3.375,0H202.5v2.25h1.125v1.125h-2.25v2.25h3.375V14.5h1.125V13.375h3.375V10h1.125v2.25h2.25V11.125h1.125V12.25h1.125v1.125H213.75V14.5h-1.125v1.125H211.5V16.75h-2.25v1.125h-1.125V19h-2.25v1.125H202.5v2.25h1.125V21.25h1.125v1.125h-1.125V23.5H202.5v1.125H207V25.75h-4.5v1.125h-2.25V28h-1.125V26.875H198V25.75h3.375V20.125H198V19h3.375V16.75h-2.25v1.125H198V16.75h1.125V15.625h1.125v-2.25h1.125ZM211.5,10h1.125v1.125H211.5Zm-7.875,3.375h1.125V14.5h-1.125Zm6.75,0v2.25H211.5V14.5h1.125V13.375Zm-4.5,1.125v1.125H204.75V16.75H202.5V19h3.375V17.875h2.25V16.75h1.125V14.5Zm7.875,1.125h1.125v2.25h-2.25V19H211.5V16.75h2.25Zm-4.5,2.25h1.125v2.25h2.25V19h1.125v1.125h1.125v2.25H213.75V23.5h-1.125v2.25H211.5V24.625h-1.125V25.75H209.25v1.125H207V25.75h2.25V24.625h1.125v-2.25H211.5V23.5h1.125V22.375h1.125V21.25h-3.375v1.125h-4.5V21.25h3.375ZM198,21.25h1.125v1.125H198Zm1.125,1.125h1.125V23.5h-1.125Zm14.625,2.25h1.125V28H213.75V26.875h-1.125V25.75h1.125Zm33.272,6.645a7.558,7.558,0,0,1-4.1-1.375,8.637,8.637,0,0,1-2.667-3.309,9.235,9.235,0,0,1,0-8.35,8.637,8.637,0,0,1,2.667-3.309,7.611,7.611,0,0,1,4.1-1.384v1.371a5.733,5.733,0,0,0-3.16,1.235,7.375,7.375,0,0,0-2.079,2.72,8.677,8.677,0,0,0,0,7.084,7.336,7.336,0,0,0,2.079,2.716,5.8,5.8,0,0,0,3.16,1.239ZM250.2,10Zm3.375,0H254.7v4.5h2.25V13.375h2.25V12.25h-2.25V11.125h2.25V10h1.125v1.125H263.7V10h1.125v1.125h2.25V12.25h-2.25v1.125h2.25V16.75h-4.5v1.125h-1.125V16.75h1.125V13.375H263.7V12.25h-3.375v1.125h1.125V16.75h-1.125v1.125H259.2V19h3.375V17.875H263.7V19h3.375v1.125h-4.5V21.25h3.375v1.125h-3.375V23.5h3.375v1.125h-3.375V25.75h4.5v1.125H259.2V28h-1.125V20.125h-1.125V21.25h-1.125V20.125h1.125V19h1.125V17.875H259.2V16.75h-2.25V15.625H254.7V16.75h1.125v1.125H254.7V28h-1.125V19h-1.125v2.25h-1.125v1.125H250.2V21.25h1.125V19h1.125V16.75h1.125V15.625H250.2V14.5h3.375Zm4.5,4.5v1.125h2.25V14.5Zm5.625,0v1.125h2.25V14.5Zm-7.875,3.375h1.125V19h-1.125Zm3.375,2.25V21.25h2.25V20.125Zm0,2.25V23.5h2.25V22.375Zm0,2.25V25.75h2.25V24.625ZM270,10Zm7.875,0H279v1.125h1.125V12.25h-3.375v4.5h3.375v1.125h-3.375V19h1.125v1.125h-1.125V28h-1.125V19H274.5v2.25h-1.125V23.5h-1.125v1.125h-1.125V25.75H270V24.625h1.125V23.5h1.125V21.25h1.125V19H274.5V17.875H270V16.75h5.625V13.375h-4.5V12.25h4.5V11.125h2.25Zm6.75,0h1.125V26.875h-1.125V28H283.5V26.875h1.125Zm-3.375,3.375h1.125V23.5h-1.125Zm-3.375,6.75H279V21.25h-1.125ZM279,21.25h1.125v1.125H279Zm3.375,4.5H283.5v1.125h-1.125ZM289.8,10Zm7.875,0H298.8v2.25h-1.125v1.125h-1.125V14.5h-1.125v1.125H294.3V16.75h-1.125v1.125h-1.125V19H289.8V17.875h2.25V16.75h1.125V15.625H294.3V14.5h1.125V13.375h1.125V12.25h1.125Zm1.125,2.25h1.125v1.125H298.8Zm1.125,1.125h1.125V14.5h-1.125Zm1.125,1.125h1.125v1.125h-1.125Zm1.125,1.125H303.3V16.75h-1.125v1.125H298.8v2.25h4.5V21.25h-4.5v4.5h1.125V24.625h1.125V23.5h1.125V22.375H303.3V23.5h-1.125v1.125h-1.125V25.75h4.5v1.125H290.927V25.75h4.5V24.625h1.125V25.75h1.125v-4.5h-4.5V20.125h4.5v-2.25H294.3V16.75h7.875ZM303.3,16.75h3.375v1.125h-1.125V19h-1.125V17.875H303.3Zm-10.125,5.625H294.3V23.5h-1.125ZM294.3,23.5h1.125v1.125H294.3Zm16.68-9.958a7.611,7.611,0,0,1,4.1,1.384,8.637,8.637,0,0,1,2.667,3.309,9.235,9.235,0,0,1,0,8.35,8.637,8.637,0,0,1-2.667,3.309,7.558,7.558,0,0,1-4.1,1.375V29.907a5.8,5.8,0,0,0,3.16-1.239,7.377,7.377,0,0,0,2.083-2.716,8.631,8.631,0,0,0,0-7.084,7.417,7.417,0,0,0-2.083-2.72,5.733,5.733,0,0,0-3.16-1.235Zm20.2,6.736a1.089,1.089,0,0,0-.846.306,1.044,1.044,0,0,0-.324.81,1.071,1.071,0,0,0,.306.792,1.047,1.047,0,0,0,.774.324.963.963,0,0,0,.4-.072,2.123,2.123,0,0,1-.378,1.206,2.6,2.6,0,0,1-1.152.792v.882a3.472,3.472,0,0,0,1.854-1.17,3.373,3.373,0,0,0,.7-2.106,2.091,2.091,0,0,0-.36-1.26A1.149,1.149,0,0,0,331.186,20.278ZM342,10Zm3.375,0H346.5v2.25h-1.125V14.5h-1.125v1.125h3.375v-2.25h1.125v2.25h-1.125V16.75H346.5v1.125h-1.125V19h-1.125v1.125h3.375V19h1.125v1.125h1.125v2.25h-1.125V21.25h-4.5v1.125h-1.125V21.25H342V20.125h1.125V19h1.125V17.875h1.125V16.75H342V15.625h1.125V14.5h1.125V12.25h1.125Zm6.75,0h1.125v3.375h-1.125V14.5h5.625V25.75h-1.125v1.125H355.5V28h-1.125V26.875H355.5V25.75h1.125V15.625H351V16.75h-1.125v1.125h-1.125V16.75h1.125V15.625H351v-2.25h1.125Zm0,7.875h1.125V19h-1.125ZM353.254,19h1.125v2.25h-1.125Zm-10.125,4.5h1.125v2.25h-1.125v1.125H342V25.75h1.125Zm2.25,0H346.5v1.125h-1.125Zm3.375,0h1.125v1.125h-1.125Zm-2.25,1.125h1.125v2.25H346.5Zm3.375,0H351v2.25h-1.125Zm3.375,1.125h1.125v1.125h-1.125ZM361.8,10Zm6.75,0h1.125v1.125h-1.125Zm1.125,1.125H370.8V12.25h7.875v1.125h-1.125V14.5h-1.125v1.125H375.3V14.5h1.125V13.375H364.054V14.5h-1.125v1.125H361.8V14.5h1.125V12.25h6.75Zm-5.625,5.625h12.375v1.125H370.8V21.25h4.5v1.125h-4.5V25.75h7.875v1.125h-11.25V25.75h2.25V17.875h-5.625Zm1.125,3.375H366.3v4.5h-1.125V25.75h-1.125v1.125h-1.125V28H361.8V26.875h1.125V25.75h1.125V24.625h1.125Zm1.125,4.5h1.125V25.75H366.3ZM381.6,10Zm7.875,0H390.6v3.375h7.875V14.5h-9v1.125h-1.125v2.25h-1.125V25.75h4.5V20.125h-3.375V19h3.375V15.625h1.125V19h3.375v1.125h-3.375V25.75h5.625v1.125h-11.25V28H386.1V21.25h-1.125v1.125h-1.125V23.5h-1.125v1.125H381.6V23.5h1.125V22.375h1.125V21.25h1.125V20.125H386.1v-2.25h1.125v-2.25h1.125V14.5h-5.625V13.375h6.75ZM401.4,10Zm4.5,0h1.125v4.5h2.25v1.125h-2.25V19h2.25v1.125h-2.25V28H405.9V21.25h-2.25v1.125h-1.125V21.25H401.4V20.125h4.5v-4.5h-2.25V16.75h-1.125v1.125H401.4V16.75h1.125v-4.5h1.125V14.5h2.25Zm6.75,0h1.125v2.25h3.375v1.125h-3.375V16.75h4.5v1.125h-2.25v2.25h2.25V21.25h-2.25v5.625H414.9V28h-1.125V26.875H414.9V21.25h-3.375v1.125H410.4V21.25h-1.125V20.125H414.9v-2.25h-6.75V16.75h4.5V13.375h-3.375V12.25h3.375Zm-1.125,12.375h1.125v2.25h-1.125Zm1.125,3.375h1.125v1.125h-1.125ZM421.2,10Zm6.75,0h1.125v1.125h-1.125Zm1.125,1.125H430.2V12.25h7.875v1.125h-1.125V14.5h-1.125v1.125H434.7V14.5h1.125V13.375H423.454V14.5h-1.125v1.125H421.2V14.5h1.125V12.25h6.75Zm-5.625,5.625h12.375v1.125H430.2V21.25h4.5v1.125h-4.5V25.75h7.875v1.125h-11.25V25.75h2.25V17.875h-5.625Zm1.125,3.375H425.7v4.5h-1.125V25.75h-1.125v1.125h-1.125V28H421.2V26.875h1.125V25.75h1.125V24.625h1.125Zm1.125,4.5h1.125V25.75H425.7ZM441,10Zm3.375,0H445.5v2.25h-1.125v1.125h4.5V16.75H450V14.5h1.125V10h1.125v3.375h4.5V25.75h-1.125v1.125H454.5V28h-1.125V26.875H454.5V25.75h1.125V14.5h-4.5v2.25H450v1.125h-1.125v9h-1.125V25.75h-4.5v1.125h-1.125v-13.5h1.125V12.25h1.125Zm-1.125,4.5V19h4.5V14.5Zm7.875,3.375h1.125V19h-1.125ZM452.254,19h1.125v2.25h-1.125Zm-9,1.125v4.5h4.5v-4.5Zm9,5.625h1.125v1.125h-1.125ZM460.8,10Zm11.25,0h1.125v2.25h3.375v1.125h-3.375v2.25h4.5V16.75h-2.25V19h2.25v1.125h-2.25v6.75H474.3V28h-1.125V26.875H474.3v-6.75h-6.75v4.5h-1.125V23.5h-3.375v1.125h-1.125V12.25h5.625V19h6.75V16.75h-5.625V15.625h3.375v-2.25H469.8V12.25h2.25Zm-9,3.375V16.75h3.375V13.375Zm0,4.5v4.5h3.375v-4.5Zm6.75,3.375h1.125v1.125H469.8Zm1.125,1.125h1.125v2.25h-1.125Zm1.125,3.375h1.125v1.125h-1.125ZM480.6,10Zm1.125,1.125h5.625V16.75h-4.5V28h-1.125Zm7.875,0h5.625v15.75H494.1V28h-1.125V26.875H494.1V16.75h-4.5Zm-6.75,1.125v1.125h3.375V12.25Zm7.875,0v1.125H494.1V12.25Zm-7.875,2.25v1.125h3.375V14.5Zm7.875,0v1.125H494.1V14.5ZM485.1,17.875h6.75v6.75h-1.125V23.5h-4.5v1.125H485.1ZM486.229,19v1.125h4.5V19Zm0,2.25v1.125h4.5V21.25Zm5.625,4.5h1.125v1.125h-1.125Zm37.772,5.52a7.558,7.558,0,0,1-4.1-1.375,8.637,8.637,0,0,1-2.667-3.309,9.235,9.235,0,0,1,0-8.35,8.637,8.637,0,0,1,2.667-3.309,7.611,7.611,0,0,1,4.1-1.384v1.371a5.733,5.733,0,0,0-3.16,1.235,7.375,7.375,0,0,0-2.079,2.72,8.677,8.677,0,0,0,0,7.084,7.336,7.336,0,0,0,2.079,2.716,5.8,5.8,0,0,0,3.16,1.239ZM532.805,10Zm3.375,0h1.125v1.125H536.18Zm9,0h1.125v1.125H545.18V12.25h-1.125v1.125h5.625V14.5H532.805V13.375h5.625V12.25h1.125v1.125h3.375V12.25h1.125V11.125h1.125Zm-7.875,1.125h1.125V12.25h-1.125Zm-2.25,4.5h5.625v11.25h-1.125V28H538.43V26.875h1.125V23.5H536.18V28h-1.125Zm11.25,0h1.125v11.25h-1.125V28H545.18V26.875h1.125ZM536.18,16.75V19h3.375V16.75Zm6.75,0h1.125V23.5H542.93Zm-6.75,3.375v2.25h3.375v-2.25Zm1.125,5.625h1.125v1.125h-1.125Zm6.75,0h1.125v1.125h-1.125Zm9.93-12.208a7.611,7.611,0,0,1,4.1,1.384,8.637,8.637,0,0,1,2.667,3.309,9.235,9.235,0,0,1,0,8.35,8.637,8.637,0,0,1-2.667,3.309,7.558,7.558,0,0,1-4.1,1.375V29.907a5.8,5.8,0,0,0,3.16-1.239,7.377,7.377,0,0,0,2.083-2.716,8.631,8.631,0,0,0,0-7.084,7.417,7.417,0,0,0-2.083-2.72,5.733,5.733,0,0,0-3.16-1.235Zm20.2,6.736a1.089,1.089,0,0,0-.846.306,1.044,1.044,0,0,0-.324.81,1.071,1.071,0,0,0,.306.792,1.047,1.047,0,0,0,.774.324.963.963,0,0,0,.4-.072,2.123,2.123,0,0,1-.378,1.206,2.6,2.6,0,0,1-1.152.792v.882a3.473,3.473,0,0,0,1.854-1.17,3.373,3.373,0,0,0,.7-2.106,2.091,2.091,0,0,0-.36-1.26A1.149,1.149,0,0,0,574.189,20.278ZM0,38Zm5.625,1.125H6.75V40.25H5.625Zm7.875,0h1.125V47H13.5v3.375H12.375V51.5H13.5v1.125H11.25V53.75H10.125v1.125H7.875V56H5.625V54.875h2.25V53.75h2.25V52.625H11.25v-2.25h1.125V47H13.5ZM2.25,40.25H3.375V52.625H4.5V51.5H5.625V50.375H6.75V49.25H7.875V48.125H9V49.25H7.875v1.125H6.75V51.5H5.625v1.125H4.5V53.75H3.375v1.125H2.25Zm4.5,0H7.875v1.125H6.75Zm1.125,1.125H9v2.25H7.875ZM13.5,52.625h1.125V53.75H13.5Zm1.125,1.125H15.75V56H14.625ZM19.8,38Zm4.5,0h1.125v4.5h2.25v1.125h-2.25V47h2.25v1.125h-2.25V56H24.3V49.25H22.05v1.125H20.925V49.25H19.8V48.125h4.5v-4.5H22.05V44.75H20.925v1.125H19.8V44.75h1.125v-4.5H22.05V42.5H24.3Zm6.75,0h1.125v2.25H35.55v1.125H32.175V44.75h4.5v1.125h-2.25v2.25h2.25V49.25h-2.25v5.625H33.3V56H32.175V54.875H33.3V49.25H29.925v1.125H28.8V49.25H27.675V48.125H33.3v-2.25H26.55V44.75h4.5V41.375H27.675V40.25H31.05ZM29.925,50.375H31.05v2.25H29.925ZM31.05,53.75h1.125v1.125H31.05ZM39.6,38Zm6.75,0h1.125v1.125H46.35Zm1.125,1.125H48.6V40.25h7.875v1.125H55.35V42.5H54.225v1.125H53.1V42.5h1.125V41.375H41.85V42.5H40.725v1.125H39.6V42.5h1.125V40.25h6.75ZM41.85,44.75H54.225v1.125H48.6V49.25h4.5v1.125H48.6V53.75h7.875v1.125H45.225V53.75h2.25V45.875H41.85Zm1.125,3.375H44.1v4.5H42.975V53.75H41.85v1.125H40.725V56H39.6V54.875h1.125V53.75H41.85V52.625h1.125Zm1.125,4.5h1.125V53.75H44.1ZM59.4,38Zm3.375,0H63.9v2.25H62.775v1.125h4.5V44.75H68.4V42.5h1.125V38H70.65v3.375h4.5V53.75H74.025v1.125H72.9V56H71.775V54.875H72.9V53.75h1.125V42.5h-4.5v2.25H68.4v1.125H67.275v9H66.15V53.75h-4.5v1.125H60.525v-13.5H61.65V40.25h1.125ZM61.65,42.5V47h4.5V42.5Zm7.875,3.375H70.65V47H69.525ZM70.65,47h1.125v2.25H70.65Zm-9,1.125v4.5h4.5v-4.5Zm9,5.625h1.125v1.125H70.65ZM79.2,38Zm3.375,0H83.7v1.125H96.075V40.25h-4.5v1.125H94.95V44.75H83.7V41.375h3.375V40.25H83.7v1.125H82.575V56H81.45V44.75H80.325v1.125H79.2V44.75h1.125V43.625H81.45v-2.25h1.125ZM88.2,40.25v1.125h2.25V40.25ZM84.825,42.5v1.125h2.25V42.5Zm3.375,0v1.125h2.25V42.5Zm3.375,0v1.125h2.25V42.5Zm-6.75,3.375h9V53.75H92.7v1.125H91.575V53.75h-4.5v1.125H85.95V56H84.825V54.875H85.95V53.75H84.825ZM85.95,47v1.125H92.7V47Zm0,2.25v1.125H92.7V49.25Zm0,2.25v1.125H92.7V51.5Zm6.75,3.375h1.125V56H92.7ZM99,38Zm3.375,0H103.5v4.5h2.25v1.125H103.5V44.75h1.125v1.125H103.5V56h-1.125V47H101.25v2.25h-1.125v1.125H99V49.25h1.125V47h1.125V44.75h1.125V43.625H99V42.5h3.375ZM108,38h1.125v2.25h5.625V42.5h-1.125v1.125H112.5V44.75h-1.125v1.125H110.25V47h-1.125v1.125h-2.25V49.25h-2.25V48.125h2.25V47h2.25V45.875h1.125V44.75h1.125V43.625H112.5V42.5h1.125V41.375H108V42.5h1.125v1.125h-2.25V44.75H105.75V43.625h1.125v-2.25H108Zm1.125,5.625h1.125V44.75h-1.125Zm-4.5,2.25h1.125V47h-1.125Zm6.75,0h2.25V47h-2.25ZM113.625,47h2.25v1.125h-2.25Zm-6.75,2.25h7.875V56h-1.125V54.875H108V56h-1.125ZM108,50.375V53.75h5.625V50.375ZM118.8,38Zm6.75,0h1.125v1.125H125.55Zm1.125,1.125H127.8v2.25h7.875V42.5h-4.5v1.125H130.05V42.5h-5.625v2.25H123.3v1.125h-1.125V47H121.05v1.125h-1.125V47h1.125V45.875h1.125V44.75H123.3V42.5h-4.5V41.375h7.875Zm4.5,4.5H132.3V44.75h-1.125ZM132.3,44.75h2.25V47h-1.125V45.875H132.3Zm-9,1.125h1.125V47H123.3Zm6.75,0h1.125V47H130.05v1.125h-1.125V49.25H127.8v1.125h-1.125V51.5H125.55v1.125h-1.125V53.75H123.3v1.125h-2.25V56H118.8V54.875h2.25V53.75h2.25V52.625h1.125V51.5h1.125V50.375h1.125V49.25H127.8V48.125h1.125V47h1.125ZM124.425,47h1.125v1.125h-1.125Zm1.125,1.125h1.125V49.25H125.55Zm2.25,2.25h1.125V51.5H127.8Zm1.125,1.125h1.125v1.125h-1.125Zm1.125,1.125h2.25V53.75h-2.25Zm2.25,1.125h3.375v1.125H134.55V56h-1.125V54.875H132.3ZM138.6,38Zm4.5,0h9v7.875h-6.75V47h-1.125v1.125H154.35V53.75h-1.125v1.125H152.1V56h-1.125V54.875H152.1V53.75h1.125v-4.5H149.85V51.5h-1.125v2.25H147.6v1.125h-1.125V56H145.35V54.875h1.125V53.75H147.6V51.5h1.125V49.25h-2.25V51.5H145.35v1.125h-1.125V53.75H143.1v1.125h-1.125V53.75H143.1V52.625h1.125V51.5h1.125V49.25h-3.375v1.125H140.85V51.5h-1.125V50.375h1.125V49.25h1.125V48.125H143.1V47h1.125V45.875H143.1Zm1.125,1.125v2.25h6.75v-2.25Zm0,3.375v2.25h6.75V42.5Zm5.625,11.25h1.125v1.125H149.85ZM158.4,38Zm2.25,1.125h4.5V44.75h1.125V43.625H167.4v-4.5h5.625v4.5H171.9V40.25h-3.375v3.375H167.4V44.75h-1.125v1.125H165.15v9h-1.125V56H162.9V54.875h1.125V49.25h-2.25v3.375H160.65v2.25h-1.125V56H158.4V54.875h1.125v-2.25h1.125Zm1.125,1.125v3.375h2.25V40.25Zm11.25,3.375h2.25V44.75h-2.25Zm-11.25,1.125v3.375h2.25V44.75Zm4.5,1.125h7.875v2.25h-1.125v2.25H171.9V51.5h-1.125v1.125H169.65V53.75h-1.125v1.125H167.4V56h-2.25V54.875h2.25V53.75h1.125V52.625h1.125V51.5h1.125V50.375H171.9v-2.25h1.125V47h-4.5v2.25H167.4V47h-1.125Zm2.25,3.375h1.125V51.5h-1.125Zm2.25,3.375H171.9V53.75h-1.125Zm-9,1.125H162.9v1.125h-1.125Zm10.125,0h3.375v1.125H174.15V56h-1.125V54.875H171.9ZM178.2,38Zm1.125,1.125H193.95V40.25h-4.5v1.125h3.375v4.5H180.45v-4.5h3.375V40.25h-4.5Zm5.625,1.125v1.125h3.375V40.25Zm-3.375,2.25v2.25h2.25V42.5Zm3.375,0v2.25h3.375V42.5Zm4.5,0v2.25h2.25V42.5ZM181.575,47H191.7v1.125H181.575ZM178.2,49.25h16.875v1.125H187.2v4.5h-1.125V56H184.95V54.875h1.125v-4.5H178.2Zm3.375,2.25H182.7v1.125h-1.125V53.75H180.45v1.125h-1.125V53.75h1.125V52.625h1.125Zm9,0H191.7v1.125h-1.125Zm1.125,1.125h1.125v2.25H191.7Zm-7.875,1.125h1.125v1.125h-1.125Zm23.157-5.472a1.089,1.089,0,0,0-.846.306,1.044,1.044,0,0,0-.324.81,1.071,1.071,0,0,0,.306.792,1.047,1.047,0,0,0,.774.324.963.963,0,0,0,.4-.072,2.123,2.123,0,0,1-.378,1.206,2.6,2.6,0,0,1-1.152.792v.882a3.472,3.472,0,0,0,1.854-1.17,3.373,3.373,0,0,0,.7-2.106,2.091,2.091,0,0,0-.36-1.26A1.149,1.149,0,0,0,206.982,48.278ZM217.8,38Zm4.5,0h1.125v3.375H222.3V56h-1.125V44.75H220.05v1.125h-1.125V47H217.8V45.875h1.125V44.75h1.125V43.625h1.125v-2.25H222.3Zm7.875,0H231.3v5.625h3.375V44.75H231.3V54.875h-1.125V56H229.05V54.875h1.125V44.75h-6.75V43.625h6.75Zm-4.5,9H226.8v1.125h-1.125Zm1.125,1.125h1.125v2.25H226.8Zm1.125,5.625h1.125v1.125h-1.125ZM237.6,38Zm7.875,0H246.6v6.75h3.375v-4.5H251.1V47h-1.125V45.875H246.6V53.75h4.5v-4.5h1.125V56H251.1V54.875H239.85V49.25h1.125v4.5h4.5V45.875h-4.5V40.25H242.1v4.5h3.375ZM257.4,38Zm9,0h1.125v1.125H266.4Zm-6.75,1.125h1.125V40.25H259.65Zm7.875,0h1.125V40.25h4.5v1.125H263.025V40.25h4.5Zm-6.75,1.125H261.9V42.5h-1.125Zm3.375,2.25h7.875v1.125H264.15Zm-6.75,2.25h4.5v7.875h-1.125V53.75H259.65v1.125h-1.125V53.75h1.125V52.625h1.125v-6.75H257.4Zm6.75,0h7.875v1.125H264.15Zm0,2.25h7.875v5.625H270.9V51.5h-5.625v1.125H264.15Zm1.125,1.125v2.25H270.9v-2.25Zm-3.375,4.5h1.125V53.75H261.9Zm1.125,1.125h11.25v1.125h-11.25ZM277.2,38Zm3.375,0H281.7v2.25h1.125v1.125h-2.25v2.25h3.375V42.5h1.125V41.375h3.375V38h1.125v2.25h2.25V39.125h1.125V40.25h1.125v1.125H292.95V42.5h-1.125v1.125H290.7V44.75h-2.25v1.125h-1.125V47h-2.25v1.125H281.7v2.25h1.125V49.25h1.125v1.125h-1.125V51.5H281.7v1.125h4.5V53.75h-4.5v1.125h-2.25V56h-1.125V54.875H277.2V53.75h3.375V48.125H277.2V47h3.375V44.75h-2.25v1.125H277.2V44.75h1.125V43.625h1.125v-2.25h1.125ZM290.7,38h1.125v1.125H290.7Zm-7.875,3.375h1.125V42.5h-1.125Zm6.75,0v2.25H290.7V42.5h1.125V41.375Zm-4.5,1.125v1.125H283.95V44.75H281.7V47h3.375V45.875h2.25V44.75h1.125V42.5Zm7.875,1.125h1.125v2.25h-2.25V47H290.7V44.75h2.25Zm-4.5,2.25h1.125v2.25h2.25V47h1.125v1.125h1.125v2.25H292.95V51.5h-1.125v2.25H290.7V52.625h-1.125V53.75H288.45v1.125H286.2V53.75h2.25V52.625h1.125v-2.25H290.7V51.5h1.125V50.375h1.125V49.25h-3.375v1.125h-4.5V49.25h3.375ZM277.2,49.25h1.125v1.125H277.2Zm1.125,1.125h1.125V51.5h-1.125Zm14.625,2.25h1.125V56H292.95V54.875h-1.125V53.75h1.125ZM297,38Zm9,0h1.125v2.25H310.5V38h1.125v2.25h2.25v1.125h-2.25V42.5h1.125v1.125h-1.125V44.75h2.25v1.125h-4.5V47h3.375v4.5h1.125v1.125H312.75v2.25h-1.125V56H310.5V54.875h1.125v-2.25H306V56h-1.125V52.625H303.75V51.5h1.125V47h3.375V45.875h-4.5V44.75H306V43.625h-1.125V42.5H306V41.375h-2.25V40.25H306Zm-7.875,1.125h4.5v11.25h-4.5Zm1.125,1.125V42.5h2.25V40.25Zm7.875,1.125V42.5H310.5V41.375Zm-7.875,2.25v2.25h2.25v-2.25Zm7.875,0V44.75H310.5V43.625ZM299.25,47v2.25h2.25V47ZM306,48.125V49.25h2.25V48.125Zm3.375,0V49.25h2.25V48.125ZM306,50.375V51.5h2.25V50.375Zm3.375,0V51.5h2.25V50.375ZM298.125,51.5h1.125v2.25h-1.125v1.125H297V53.75h1.125Zm2.25,0H301.5v1.125h-1.125Zm1.125,1.125h1.125v2.25H301.5Zm7.875,1.125H310.5v1.125h-1.125ZM316.8,38Zm2.25,1.125h12.375v4.5H319.05Zm1.125,1.125V42.5h2.25V40.25Zm3.375,0V42.5h3.375V40.25Zm4.5,0V42.5h2.25V40.25Zm-7.875,4.5H330.3v7.875h-2.25V53.75h-1.125V52.625H323.55V53.75h-1.125v1.125H321.3V56h-1.125V54.875H321.3V53.75h1.125V52.625h-2.25Zm1.125,1.125V47h7.875V45.875Zm0,2.25V49.25h7.875V48.125Zm0,2.25V51.5h7.875V50.375Zm6.75,3.375h1.125v1.125H328.05Zm1.125,1.125H330.3V56h-1.125ZM336.6,38Zm3.375,0H341.1v2.25h-1.125v1.125h4.5V44.75H345.6V42.5h1.125V38h1.125v3.375h4.5V53.75h-1.125v1.125H350.1V56h-1.125V54.875H350.1V53.75h1.125V42.5h-4.5v2.25H345.6v1.125h-1.125v9H343.35V53.75h-4.5v1.125h-1.125v-13.5h1.125V40.25h1.125Zm-1.125,4.5V47h4.5V42.5Zm7.875,3.375h1.125V47h-1.125ZM347.85,47h1.125v2.25H347.85Zm-9,1.125v4.5h4.5v-4.5Zm9,5.625h1.125v1.125H347.85ZM356.4,38Zm3.375,0H360.9v4.5h2.25V41.375h2.25V40.25h-2.25V39.125h2.25V38h1.125v1.125H369.9V38h1.125v1.125h2.25V40.25h-2.25v1.125h2.25V44.75h-4.5v1.125H367.65V44.75h1.125V41.375H369.9V40.25h-3.375v1.125h1.125V44.75h-1.125v1.125H365.4V47h3.375V45.875H369.9V47h3.375v1.125h-4.5V49.25h3.375v1.125h-3.375V51.5h3.375v1.125h-3.375V53.75h4.5v1.125H365.4V56h-1.125V48.125H363.15V49.25h-1.125V48.125h1.125V47h1.125V45.875H365.4V44.75h-2.25V43.625H360.9V44.75h1.125v1.125H360.9V56h-1.125V47H358.65v2.25h-1.125v1.125H356.4V49.25h1.125V47h1.125V44.75h1.125V43.625H356.4V42.5h3.375Zm4.5,4.5v1.125h2.25V42.5Zm5.625,0v1.125h2.25V42.5Zm-7.875,3.375h1.125V47h-1.125Zm3.375,2.25V49.25h2.25V48.125Zm0,2.25V51.5h2.25V50.375Zm0,2.25V53.75h2.25V52.625ZM376.2,38Zm7.875,0H385.2v1.125h1.125V40.25H382.95v4.5h3.375v1.125H382.95V47h1.125v1.125H382.95V56h-1.125V47H380.7v2.25h-1.125V51.5H378.45v1.125h-1.125V53.75H376.2V52.625h1.125V51.5h1.125V49.25h1.125V47H380.7V45.875h-4.5V44.75h5.625V41.375h-4.5V40.25h4.5V39.125h2.25Zm6.75,0h1.125V54.875h-1.125V56H389.7V54.875h1.125Zm-3.375,3.375h1.125V51.5H387.45Zm-3.375,6.75H385.2V49.25h-1.125ZM385.2,49.25h1.125v1.125H385.2Zm3.375,4.5H389.7v1.125h-1.125Zm16.407-5.472a1.089,1.089,0,0,0-.846.306,1.044,1.044,0,0,0-.324.81,1.071,1.071,0,0,0,.306.792,1.047,1.047,0,0,0,.774.324.963.963,0,0,0,.4-.072,2.123,2.123,0,0,1-.378,1.206,2.6,2.6,0,0,1-1.152.792v.882a3.472,3.472,0,0,0,1.854-1.17,3.373,3.373,0,0,0,.7-2.106,2.091,2.091,0,0,0-.36-1.26A1.149,1.149,0,0,0,404.982,48.278ZM415.8,38Zm2.25,0h1.125v1.125H418.05Zm7.875,0h1.125v5.625h5.625V44.75H429.3v9h-1.125v-9H427.05V51.5h-1.125v2.25H424.8v1.125h-1.125V56H422.55V54.875h1.125V53.75H424.8V51.5h1.125V44.75H422.55v4.5H420.3v5.625h-1.125V56H418.05V54.875h1.125V49.25h-2.25v-4.5h5.625V43.625h3.375Zm-6.75,1.125H420.3V40.25h-1.125Zm9,0H429.3V40.25h-1.125ZM429.3,40.25h1.125v1.125H429.3Zm-13.5,1.125h7.875V42.5H415.8Zm2.25,4.5v2.25h3.375v-2.25Zm-1.125,4.5h1.125V51.5h-1.125v1.125H415.8V51.5h1.125Zm4.5,0h1.125V51.5h-1.125ZM422.55,51.5h1.125v1.125H422.55Zm9,0h1.125v3.375H429.3V53.75h2.25Zm-14.625,2.25h1.125v1.125h-1.125ZM435.6,38Zm14.625,0h1.125V56h-1.125V49.25h-2.25v1.125h-2.25V51.5H444.6V40.25h1.125v9h2.25V48.125h2.25Zm-13.5,2.25h5.625V51.5h-1.125V50.375H437.85V51.5h-1.125Zm1.125,1.125V49.25h3.375V41.375ZM455.4,38Zm3.375,0H459.9v3.375h-1.125V56H457.65V44.75h-1.125v1.125H455.4V44.75h1.125V43.625h1.125v-2.25h1.125Zm3.375,0h1.125v3.375h2.25V42.5h-2.25v3.375h2.25V42.5h1.125V38h1.125v4.5h4.5v1.125H471.15V47h-1.125v2.25H468.9V51.5h-1.125v1.125H466.65V53.75h-1.125v1.125H464.4V56h-1.125V54.875H464.4V53.75h1.125V52.625h1.125V51.5h1.125V49.25H468.9V47h1.125V43.625H466.65v2.25h-1.125v6.75h-4.5V53.75H459.9V45.875h2.25V42.5H459.9V41.375h2.25Zm4.5,7.875h1.125V49.25H466.65ZM461.025,47v4.5H464.4V47Zm7.875,4.5h1.125v2.25H468.9Zm1.125,2.25h2.25v1.125H471.15V56h-1.125ZM475.2,38Zm3.375,0H479.7v4.5h2.25V41.375h2.25V40.25h-2.25V39.125h2.25V38h1.125v1.125H488.7V38h1.125v1.125h2.25V40.25h-2.25v1.125h2.25V44.75h-4.5v1.125H486.45V44.75h1.125V41.375H488.7V40.25h-3.375v1.125h1.125V44.75h-1.125v1.125H484.2V47h3.375V45.875H488.7V47h3.375v1.125h-4.5V49.25h3.375v1.125h-3.375V51.5h3.375v1.125h-3.375V53.75h4.5v1.125H484.2V56h-1.125V48.125H481.95V49.25h-1.125V48.125h1.125V47h1.125V45.875H484.2V44.75h-2.25V43.625H479.7V44.75h1.125v1.125H479.7V56h-1.125V47H477.45v2.25h-1.125v1.125H475.2V49.25h1.125V47h1.125V44.75h1.125V43.625H475.2V42.5h3.375Zm4.5,4.5v1.125h2.25V42.5Zm5.625,0v1.125h2.25V42.5Zm-7.875,3.375h1.125V47h-1.125Zm3.375,2.25V49.25h2.25V48.125Zm0,2.25V51.5h2.25V50.375Zm0,2.25V53.75h2.25V52.625ZM495,38Zm2.25,0h1.125v1.125H497.25Zm1.125,1.125H499.5V40.25h-1.125Zm4.5,0h3.375V42.5h-1.125v1.125H504V44.75h-1.125v1.125H501.75V44.75h1.125V43.625H504V42.5h1.125V40.25h-2.25Zm4.5,0H508.5V40.25h1.125V39.125h1.125V40.25h-1.125V42.5h1.125V41.375h1.125V42.5H510.75v2.25h-1.125v1.125H504V44.75h5.625V43.625H508.5v-2.25h-1.125ZM495,41.375h6.75V42.5H495Zm7.875,0H504V42.5h-1.125Zm-6.75,2.25h4.5V44.75h-4.5ZM510.75,44.75h1.125v1.125H510.75Zm-14.625,1.125h4.5V47h-4.5ZM504,47h5.625v5.625H508.5V53.75h3.375v1.125H501.75V53.75h3.375V52.625h1.125V53.75h1.125V52.625H508.5V51.5h-3.375v1.125H504Zm-7.875,1.125h4.5v6.75H499.5V53.75h-2.25v1.125h-1.125Zm9,0v2.25H508.5v-2.25ZM497.25,49.25v3.375h2.25V49.25Zm26.55-2a2.31,2.31,0,0,0-1.656.648,2.1,2.1,0,0,0-.684,1.62,2.06,2.06,0,0,0,.684,1.6,2.326,2.326,0,0,0,1.656.666,2.357,2.357,0,0,0,1.656-.666,2.239,2.239,0,0,0,0-3.222A2.341,2.341,0,0,0,523.8,47.252Zm0,.954a1.362,1.362,0,0,1,.954.378,1.256,1.256,0,0,1,.414.936,1.285,1.285,0,0,1-.414.936,1.362,1.362,0,0,1-.954.378,1.3,1.3,0,0,1-.954-.378,1.194,1.194,0,0,1-.414-.936,1.17,1.17,0,0,1,.414-.936A1.3,1.3,0,0,1,523.8,48.206Z" transform="translate(236 507)" fill="#fff8dd"/>
    <path id="Path_54271" data-name="Path 54271" d="M0-24Zm4.5,0H6v6H9v-1.5h3V-21H9v-1.5h3V-24h1.5v1.5H18V-24h1.5v1.5h3V-21h-3v1.5h3V-15h-6v1.5H15V-15h1.5v-4.5H18V-21H13.5v1.5H15V-15H13.5v1.5H12V-12h4.5v-1.5H18V-12h4.5v1.5h-6V-9H21v1.5H16.5V-6H21v1.5H16.5V-3h6v1.5H12V0H10.5V-10.5H9V-9H7.5v-1.5H9V-12h1.5v-1.5H12V-15H9v-1.5H6V-15H7.5v1.5H6V0H4.5V-12H3v3H1.5v1.5H0V-9H1.5v-3H3v-3H4.5v-1.5H0V-18H4.5Zm6,6v1.5h3V-18ZM18-18v1.5h3V-18ZM7.5-13.5H9V-12H7.5Zm4.5,3V-9h3v-1.5Zm0,3V-6h3V-7.5Zm0,3V-3h3V-4.5ZM26.4-24Zm3,0h1.5v1.5H29.4Zm1.5,1.5h1.5V-21H30.9Zm6,0h4.5V-18H39.9v1.5H38.4V-15H36.9v1.5H35.4V-15h1.5v-1.5h1.5V-18h1.5v-3h-3Zm6,0h1.5V-21h1.5v-1.5h1.5V-21H45.9v3h1.5v-1.5h1.5V-18H47.4v3H45.9v1.5H38.4V-15h7.5v-1.5H44.4v-3H42.9Zm-16.5,3h9V-18h-9Zm10.5,0h1.5V-18H36.9Zm-9,3h6V-15h-6ZM47.4-15h1.5v1.5H47.4ZM27.9-13.5h6V-12h-6ZM38.4-12h7.5v7.5H44.4V-3h4.5v1.5H35.4V-3h4.5V-4.5h1.5V-3h1.5V-4.5h1.5V-6H39.9v1.5H38.4ZM27.9-10.5h6v9H32.4V-3h-3v1.5H27.9Zm12,0v3h4.5v-3ZM29.4-9v4.5h3V-9ZM52.8-24Zm10.5,0h1.5V-1.5H63.3V0H61.8V-1.5h1.5Zm-4.5,7.5h1.5v3H58.8v3H57.3V-9H55.8v1.5H54.3V-9h1.5v-1.5h1.5v-3h1.5Zm9,0h1.5V-15H67.8ZM69.3-15h1.5v1.5H69.3Zm1.5,1.5h1.5v3H70.8Zm1.5,3h1.5v3H72.3ZM60.3-3h1.5v1.5H60.3ZM79.2-24Zm6,0h1.5v3h4.5v-1.5h1.5V-21H91.2v3H89.7v1.5h1.5V-15H86.7v1.5h4.5V-15h1.5v-4.5h1.5V-24h1.5v4.5H94.2V-18h7.5v1.5h-3v6H97.2v3H95.7V-6H94.2v1.5H92.7V-3H91.2v1.5H89.7V0H88.2V-1.5h1.5V-3h1.5V-4.5h1.5V-6h1.5V-7.5h1.5v-3h1.5v-6h-3v9H92.7v-6H91.2V-12H89.7v1.5H88.2V-9H86.7v1.5h3V-6h-3v4.5H85.2V0H83.7V-1.5h1.5v-3H80.7V-6h4.5v-4.5h3V-12H83.7v1.5H82.2V-9H80.7v1.5H79.2V-9h1.5v-1.5h1.5V-12H80.7v-1.5h4.5V-15h-6v-1.5h6v-3H80.7V-21h4.5Zm1.5,4.5v3h1.5V-18h1.5v-1.5ZM95.7-6h1.5v1.5H95.7Zm1.5,1.5h1.5V-3H97.2ZM82.2-3h1.5v1.5H82.2ZM98.7-3h3v1.5h-1.5V0H98.7Zm6.9-21Zm9,0h1.5v1.5h-1.5Zm1.5,1.5h1.5V-21h10.5v3h-1.5v1.5h-1.5V-15H114.6v1.5h-1.5V-12h7.5v-1.5h1.5V-12h1.5v3h-1.5v-1.5h-4.5v3h6V-6h-6v3h9v1.5H107.1V-3h9V-6h-6V-7.5h6v-3h-6V-12h1.5v-1.5h1.5V-15h-4.5v-1.5h16.5V-18h1.5v-1.5h-18V-18h-1.5v1.5h-1.5V-18h1.5v-3h9ZM144-14.616a1.348,1.348,0,0,0-1.056.456,1.306,1.306,0,0,0-.408,1.032,1.374,1.374,0,0,0,.408,1.032,1.411,1.411,0,0,0,1.056.432,1.449,1.449,0,0,0,1.056-.432,1.4,1.4,0,0,0,.432-1.032,1.323,1.323,0,0,0-.432-1.032A1.383,1.383,0,0,0,144-14.616Zm0,8.784a1.348,1.348,0,0,0-1.056.456,1.306,1.306,0,0,0-.408,1.032,1.374,1.374,0,0,0,.408,1.032A1.411,1.411,0,0,0,144-2.88a1.449,1.449,0,0,0,1.056-.432,1.4,1.4,0,0,0,.432-1.032,1.323,1.323,0,0,0-.432-1.032A1.383,1.383,0,0,0,144-5.832Z" transform="translate(236 475)" fill="#ffda2d"/>
    <g id="Group_41325" data-name="Group 41325" transform="translate(22)">
      <g id="Group_38426" data-name="Group 38426" transform="translate(1802 -1604)">
        <path id="Path_50320" data-name="Path 50320" d="M-1158.08,2173.869v20.525h7.072v7.588h9.055v6.3h46.678v-6.3h7.543v-7.588h6.291v-28.717h6.951V2146h-82.59Z" transform="translate(157)" fill="#edd5c2"/>
        <path id="Path_50318" data-name="Path 50318" d="M-1157.723,2131.05h6.219v7.014h64.781v7.366h12.729v13.677h-12.729v-6.229h-7.917v-6.448h-35.384v6.448h-21.48v20.947h-6.219v7.27h-7.246v-7.27h-8v-20.947h8v6.229h7.246V2131.05Z" transform="translate(157)" fill="#53140d"/>
        <rect id="Rectangle_25451" data-name="Rectangle 25451" width="7" height="14" transform="translate(-987 2153)" fill="#0b122f"/>
        <rect id="Rectangle_25452" data-name="Rectangle 25452" width="7" height="14" transform="translate(-945 2153)" fill="#0b122f"/>
        <path id="Path_50319" data-name="Path 50319" d="M-1137,2167v14.824h7.285v5.068h26.941V2167Z" transform="translate(157)" fill="#fff"/>
        <path id="Path_50321" data-name="Path 50321" d="M-1073.515,2167v7.65h17.5v7.742h-8.432v9.432h-16.528V2167Z" transform="translate(156 -2)" fill="#53140d"/>
        <path id="Path_50322" data-name="Path 50322" d="M-1178.721,2186.893v8.074h-15.83v7.891h8.766v7.422h11.648v5.973h15.73v6.641h6.92v-12.613h-6.92v-7.422h-15.73v-15.965Z" transform="translate(157)" fill="#edd5c2"/>
        <path id="Path_50323" data-name="Path 50323" d="M-1080.979,2215.463h20.555v-6.969h12.84v-6.973h9.7v-7.416H-1053.2v-6.379h-7.223v13.795h-20.555Z" transform="translate(157 7)" fill="#edd5c2"/>
        <path id="Path_50326" data-name="Path 50326" d="M-1137,2251.5v33.68h-7.447v8.3h21.123v-35.27h15.021v6.779h6.727v28.49h13.24v-28.49h-5.447V2251.5Z" transform="translate(157)" fill="#28284c"/>
        <path id="Path_50324" data-name="Path 50324" d="M-1151.215,2208.281v14.512h13.814V2251.5h42.949v-28.705h15.131v-14.512Z" transform="translate(157)" fill="#2e7e9c"/>
        <path id="Path_50325" data-name="Path 50325" d="M-1116,2215.463v8.264h-6.562v12.631H-1116v-6.531h6.326v-14.363Z" transform="translate(157)" fill="#fefefe"/>
        <rect id="Rectangle_20960" data-name="Rectangle 20960" width="30.208" height="3.776" transform="translate(-997.304 2126.711)" fill="#d99a36"/>
        <rect id="Rectangle_20961" data-name="Rectangle 20961" width="30.208" height="3.776" transform="translate(-997.304 2119.159)" fill="#d99a36"/>
        <rect id="Rectangle_20962" data-name="Rectangle 20962" width="3.776" height="7.552" transform="translate(-1001.08 2130.488)" fill="#e8bc48"/>
        <rect id="Rectangle_20963" data-name="Rectangle 20963" width="22.656" height="7.552" transform="translate(-989.752 2130.488)" fill="#e8bc48"/>
        <rect id="Rectangle_20964" data-name="Rectangle 20964" width="33.984" height="3.776" transform="translate(-967.096 2126.711)" fill="#e8bc48"/>
        <rect id="Rectangle_20965" data-name="Rectangle 20965" width="22.656" height="3.776" transform="translate(-989.752 2122.936)" fill="#e8bc48"/>
        <rect id="Rectangle_20966" data-name="Rectangle 20966" width="3.776" height="3.776" transform="translate(-1001.08 2122.936)" fill="#e8bc48"/>
        <rect id="Rectangle_20967" data-name="Rectangle 20967" width="33.984" height="3.776" transform="translate(-967.096 2119.159)" fill="#e8bc48"/>
        <rect id="Rectangle_20968" data-name="Rectangle 20968" width="3.776" height="22.656" transform="translate(-1001.08 2096.503)" fill="#e8bc48"/>
        <path id="Path_50173" data-name="Path 50173" d="M360.233,206.859h-3.776v3.776h-3.776v3.776h-3.776v7.552h-7.552v-7.552h-3.776v11.328h22.656Z" transform="translate(-1327.329 1893.42)" fill="#e8bc48"/>
        <rect id="Rectangle_20969" data-name="Rectangle 20969" width="15.104" height="7.552" transform="translate(-944.44 2130.488)" fill="#fff268"/>
        <rect id="Rectangle_20970" data-name="Rectangle 20970" width="18.88" height="7.552" transform="translate(-967.096 2130.488)" fill="#fff268"/>
        <rect id="Rectangle_20971" data-name="Rectangle 20971" width="7.552" height="7.552" transform="translate(-997.304 2130.488)" fill="#fff268"/>
        <rect id="Rectangle_20972" data-name="Rectangle 20972" width="15.104" height="3.776" transform="translate(-944.44 2122.936)" fill="#fff268"/>
        <rect id="Rectangle_20973" data-name="Rectangle 20973" width="18.88" height="3.776" transform="translate(-967.096 2122.936)" fill="#fff268"/>
        <rect id="Rectangle_20974" data-name="Rectangle 20974" width="7.552" height="3.776" transform="translate(-997.304 2122.936)" fill="#fff268"/>
        <path id="Path_50174" data-name="Path 50174" d="M422.989,223.656V201h-3.776v3.776h-3.776v3.776h-3.776v3.776h-3.776v11.328Z" transform="translate(-1352.325 1895.503)" fill="#fff268"/>
        <path id="Path_50175" data-name="Path 50175" d="M391.611,223.656V219.88h-3.776v-7.552h-3.776v-3.776h-3.776v-3.776h-3.776V201h-3.776v22.656Z" transform="translate(-1339.827 1895.503)" fill="#fff268"/>
        <path id="Path_50176" data-name="Path 50176" d="M333.411,225.739v-15.1h-3.776v-3.776h-3.776v18.88Z" transform="translate(-1323.163 1893.42)" fill="#fff268"/>
        <rect id="Rectangle_20975" data-name="Rectangle 20975" width="3.776" height="7.552" transform="translate(-948.216 2130.488)" fill="#caff94"/>
        <rect id="Rectangle_20976" data-name="Rectangle 20976" width="3.776" height="3.776" transform="translate(-948.216 2122.936)" fill="#caff94"/>
        <rect id="Rectangle_20977" data-name="Rectangle 20977" width="3.776" height="3.776" transform="translate(-948.216 2115.384)" fill="#caff94"/>
      </g>
      <g id="Group_41324" data-name="Group 41324" transform="translate(948.738 137.814) rotate(45)">
        <rect id="Rectangle_33719" data-name="Rectangle 33719" width="4.01" height="12.03" transform="translate(203.793 434.309)" fill="#f6757a"/>
        <rect id="Rectangle_33720" data-name="Rectangle 33720" width="4.01" height="8.02" transform="translate(203.793 446.338)" fill="#b86f50"/>
        <rect id="Rectangle_33721" data-name="Rectangle 33721" width="12.03" height="4.01" transform="translate(191.763 438.319)" fill="#ecf0f1"/>
        <rect id="Rectangle_33722" data-name="Rectangle 33722" width="8.02" height="4.01" transform="translate(147.654 442.329)" fill="#262b44"/>
        <rect id="Rectangle_33723" data-name="Rectangle 33723" width="12.03" height="4.01" transform="translate(191.763 446.338)" fill="#8b9bb4"/>
        <rect id="Rectangle_33724" data-name="Rectangle 33724" width="28.069" height="4.01" transform="translate(163.694 450.348)" fill="#be4a2f"/>
        <rect id="Rectangle_33725" data-name="Rectangle 33725" width="12.03" height="4.01" transform="translate(191.763 450.348)" fill="#c0cbdc"/>
        <rect id="Rectangle_33726" data-name="Rectangle 33726" width="12.03" height="4.01" transform="translate(191.763 442.329)" fill="#c0cbdc"/>
        <rect id="Rectangle_33727" data-name="Rectangle 33727" width="12.03" height="4.01" transform="translate(191.763 434.309)" fill="#c0cbdc"/>
        <rect id="Rectangle_33729" data-name="Rectangle 33729" width="28.069" height="8.02" transform="translate(163.694 442.329)" fill="#f77622"/>
        <path id="Path_53371" data-name="Path 53371" d="M91.02,313.03V301H87.01v4.01H83v8.02Z" transform="translate(72.674 133.309)" fill="#e4a672"/>
        <path id="Path_53372" data-name="Path 53372" d="M91.02,312.02V304H83v4.01h4.01v4.01Z" transform="translate(72.674 142.338)" fill="#d77643"/>
        <rect id="Rectangle_33730" data-name="Rectangle 33730" width="28.069" height="4.01" transform="translate(163.694 434.309)" fill="#feae34"/>
        <rect id="Rectangle_33731" data-name="Rectangle 33731" width="28.069" height="4.01" transform="translate(163.694 438.319)" fill="#fee761"/>
      </g>
    </g>
  </g>
</svg>
