<svg xmlns="http://www.w3.org/2000/svg" width="829.834" height="122" viewBox="0 0 829.834 122">
  <g id="g4-q" transform="translate(-268 -82)">
    <g id="Exclusion_15" data-name="Exclusion 15" transform="translate(752 4211.001)" fill="#2e817f">
      <path d="M 293.4356079101562 -4009.00048828125 L -431.4355773925781 -4009.00048828125 L -431.4355773925781 -4009.405029296875 L -431.4355773925781 -4011.405029296875 L -433.4355773925781 -4011.405029296875 L -437.0000915527344 -4011.405029296875 L -437.0000915527344 -4100.59521484375 L -433.4355773925781 -4100.59521484375 L -431.4355773925781 -4100.59521484375 L -431.4355773925781 -4102.59521484375 L -431.4355773925781 -4103.00048828125 L 293.4356079101562 -4103.00048828125 L 293.4356079101562 -4102.59521484375 L 293.4356079101562 -4100.59521484375 L 295.4356079101562 -4100.59521484375 L 298.9999084472656 -4100.59521484375 L 298.9998168945312 -4011.405029296875 L 295.4356079101562 -4011.405029296875 L 293.4356079101562 -4011.405029296875 L 293.4356079101562 -4009.405029296875 L 293.4356079101562 -4009.00048828125 Z" stroke="none"/>
      <path d="M 291.4356079101562 -4011.00048828125 L 291.4356079101562 -4013.405029296875 L 295.4356079101562 -4013.405029296875 L 296.9998168945312 -4013.405029296875 L 296.9999084472656 -4098.59521484375 L 295.4356079101562 -4098.59521484375 L 291.4356079101562 -4098.59521484375 L 291.4356079101562 -4101.00048828125 L -429.4355773925781 -4101.00048828125 L -429.4355773925781 -4098.59521484375 L -433.4355773925781 -4098.59521484375 L -435.0000915527344 -4098.59521484375 L -435.0000915527344 -4013.405029296875 L -433.4355773925781 -4013.405029296875 L -429.4355773925781 -4013.405029296875 L -429.4355773925781 -4011.00048828125 L 291.4356079101562 -4011.00048828125 M 295.4356079101562 -4007.00048828125 L -433.4355773925781 -4007.00048828125 L -433.4355773925781 -4009.405029296875 L -439.0000915527344 -4009.405029296875 L -439.0000915527344 -4102.59521484375 L -433.4355773925781 -4102.59521484375 L -433.4355773925781 -4105.00048828125 L 295.4356079101562 -4105.00048828125 L 295.4356079101562 -4102.59521484375 L 300.9999084472656 -4102.59521484375 L 300.9998168945312 -4009.405029296875 L 295.4356079101562 -4009.405029296875 L 295.4356079101562 -4007.0009765625 L 295.4356079101562 -4007.00048828125 Z" stroke="none" fill="#2f211e"/>
    </g>
    <path id="Path_54285" data-name="Path 54285" d="M7.766-2.119V-18.5a19.992,19.992,0,0,1-2.229,1.559A17.269,17.269,0,0,1,2.57-15.627v-2.3a17.982,17.982,0,0,0,5.2-3.295h2.543v19.1h5.1V0H2.57V-2.119ZM28,.643a2.145,2.145,0,0,1-1.572-.656,2.145,2.145,0,0,1-.656-1.572,2.127,2.127,0,0,1,.663-1.579A2.163,2.163,0,0,1,28-3.814a2.163,2.163,0,0,1,1.565.649,2.127,2.127,0,0,1,.663,1.579A2.145,2.145,0,0,1,29.57-.014,2.145,2.145,0,0,1,28,.643ZM56-28Zm8.75,1.75H66.5v1.75H64.75Zm12.25,0h1.75V-14H77v5.25H75.25V-7H77v1.75H73.5V-3.5H71.75v1.75h-3.5V0h-3.5V-1.75h3.5V-3.5h3.5V-5.25H73.5v-3.5h1.75V-14H77ZM59.5-24.5h1.75V-5.25H63V-7h1.75V-8.75H66.5V-10.5h1.75v-1.75H70v1.75H68.25v1.75H66.5V-7H64.75v1.75H63V-3.5H61.25v1.75H59.5Zm7,0h1.75v1.75H66.5Zm1.75,1.75H70v3.5H68.25ZM77-5.25h1.75V-3.5H77ZM78.75-3.5H80.5V0H78.75ZM86.8-28Zm0,3.5h26.25v1.75h-14V0H97.3V-22.75H86.8Zm14,7h1.75v1.75H100.8Zm1.75,1.75h1.75V-14h-1.75ZM104.3-14h3.5v3.5h-1.75v-1.75H104.3Zm13.3-14Zm7,1.75h10.5V-3.5h-1.75v1.75H131.6V-3.5h1.75v-8.75h-3.5v3.5H128.1v3.5h-1.75V-3.5H124.6v1.75h-1.75V-3.5h1.75V-5.25h1.75v-3.5h1.75v-3.5h-3.5V-14h3.5v-5.25h-3.5V-21h3.5v-3.5h-3.5Zm12.25,0h7v3.5H142.1v5.25h-1.75v1.75H138.6V-7h1.75v1.75H138.6V0h-1.75ZM117.6-24.5h5.25V-5.25H121.1V-7h-1.75v1.75H117.6Zm12.25,0V-21h3.5v-3.5Zm8.75,0v7h1.75v-5.25h1.75V-24.5Zm-19.25,1.75v14h1.75v-14Zm10.5,3.5V-14h3.5v-5.25Zm10.5,3.5h1.75V-14h-1.75ZM142.1-14h1.75v8.75H142.1V-3.5h-1.75V-5.25h1.75ZM129.85-5.25h1.75V-3.5h-1.75ZM148.4-28Zm0,12.25h26.25V-14H148.4ZM179.2-28Zm5.25,0h1.75v5.25h-1.75V0H182.7V-17.5h-1.75v1.75H179.2V-17.5h1.75v-1.75h1.75v-3.5h1.75Zm3.5,1.75H203.7v24.5h-1.75V-3.5H189.7v1.75h-1.75Zm1.75,1.75V-21h5.25v-3.5Zm7,0V-21h5.25v-3.5Zm-7,5.25v14h12.25v-14H196.7v3.5h3.5V-7h-1.75V-8.75H193.2V-7h-1.75v-8.75h3.5v-3.5ZM193.2-14v3.5h5.25V-14ZM210-28Zm0,1.75h26.25v1.75h-10.5V-21H224V0h-1.75V-15.75H220.5V-14h-1.75v1.75H217v1.75h-1.75v1.75H213.5V-7h-1.75V-8.75h1.75V-10.5h1.75v-1.75H217V-14h1.75v-1.75h1.75V-17.5h1.75V-21H224v-3.5H210Zm15.75,8.75h1.75v1.75h-1.75Zm1.75,1.75h1.75V-14H227.5ZM229.25-14h3.5v1.75h1.75v3.5h-1.75V-10.5H231v-1.75h-1.75ZM240.8-28Zm7,0h12.25v12.25H247.8Zm1.75,1.75v3.5h8.75v-3.5Zm0,5.25v3.5h8.75V-21Zm-7,7H265.3v1.75H254.8v3.5h8.75V-7H254.8v5.25h-3.5V-3.5h1.75v-8.75h-10.5Zm5.25,3.5h1.75v5.25H247.8V-3.5h-1.75v1.75H244.3V0h-1.75V-1.75h1.75V-3.5h1.75V-5.25h1.75Zm1.75,5.25h1.75V-3.5h-1.75Zm5.25,3.5h10.5V0H254.8ZM271.6-28Zm5.25,0h1.75v7h3.5v-1.75h3.5V-24.5h-3.5v-1.75h3.5V-28h1.75v1.75h5.25V-28h1.75v1.75h3.5v1.75h-3.5v1.75h3.5v5.25h-7v1.75H289.1V-17.5h1.75v-5.25h1.75V-24.5h-5.25v1.75h1.75v5.25h-1.75v1.75H285.6V-14h5.25v-1.75h1.75V-14h5.25v1.75h-7v1.75h5.25v1.75h-5.25V-7h5.25v1.75h-5.25V-3.5h7v1.75H285.6V0h-1.75V-12.25H282.1v1.75h-1.75v-1.75h1.75V-14h1.75v-1.75h1.75V-17.5h-3.5v-1.75h-3.5v1.75h1.75v1.75H278.6V0h-1.75V-14H275.1v3.5h-1.75v1.75H271.6V-10.5h1.75V-14h1.75v-3.5h1.75v-1.75H271.6V-21h5.25Zm7,7v1.75h3.5V-21Zm8.75,0v1.75h3.5V-21Zm-12.25,5.25h1.75V-14h-1.75Zm5.25,3.5v1.75h3.5v-1.75Zm0,3.5V-7h3.5V-8.75Zm0,3.5V-3.5h3.5V-5.25ZM302.4-28Zm3.5,0h1.75v1.75H305.9Zm1.75,1.75h1.75v1.75h-1.75Zm7,0h5.25V-21h-1.75v1.75H316.4v1.75h-1.75v1.75H312.9V-17.5h1.75v-1.75h1.75V-21h1.75v-3.5h-3.5Zm7,0h1.75v1.75h1.75v-1.75h1.75v1.75h-1.75V-21h1.75v-1.75h1.75V-21H326.9v3.5h-1.75v1.75H316.4V-17.5h8.75v-1.75H323.4v-3.5h-1.75Zm-19.25,3.5h10.5V-21H302.4Zm12.25,0h1.75V-21h-1.75Zm-10.5,3.5h7v1.75h-7ZM326.9-17.5h1.75v1.75H326.9Zm-22.75,1.75h7V-14h-7ZM316.4-14h8.75v8.75H323.4V-3.5h5.25v1.75H312.9V-3.5h5.25V-5.25h1.75V-3.5h1.75V-5.25h1.75V-7h-5.25v1.75H316.4Zm-12.25,1.75h7v10.5H309.4V-3.5h-3.5v1.75h-1.75Zm14,0v3.5h5.25v-3.5ZM305.9-10.5v5.25h3.5V-10.5ZM333.2-28Zm5.25,0h1.75v3.5h-1.75v1.75h7v5.25h1.75V-21h1.75v-7h1.75v5.25h7V-3.5h-1.75v1.75H354.2V0h-1.75V-1.75h1.75V-3.5h1.75V-21h-7v3.5H347.2v1.75h-1.75v14H343.7V-3.5h-7v1.75h-1.75v-21h1.75V-24.5h1.75Zm-1.75,7v7h7v-7Zm12.25,5.25h1.75V-14h-1.75ZM350.7-14h1.75v3.5H350.7Zm-14,1.75v7h7v-7Zm14,8.75h1.75v1.75H350.7ZM364-28Zm7,0h1.75v7h3.5v1.75h-3.5V-14h3.5v1.75h-3.5V0H371V-10.5h-3.5v1.75h-1.75V-10.5H364v-1.75h7v-7h-3.5v1.75h-1.75v1.75H364V-17.5h1.75v-7h1.75V-21H371Zm10.5,0h1.75v3.5h5.25v1.75h-5.25v5.25h7v1.75h-3.5v3.5h3.5v1.75h-3.5v8.75H385V0h-1.75V-1.75H385V-10.5h-5.25v1.75H378V-10.5h-1.75v-1.75H385v-3.5H374.5V-17.5h7v-5.25h-5.25V-24.5h5.25ZM379.75-8.75h1.75v3.5h-1.75ZM381.5-3.5h1.75v1.75H381.5ZM394.8-28Zm7,0h1.75v3.5h10.5v1.75H412.3V-21h-1.75v1.75h5.25v10.5h-1.75V-10.5H401.8v7h-1.75v-14H398.3v1.75h-1.75V-14H394.8v-1.75h1.75V-17.5h1.75v-1.75h1.75v-3.5h1.75Zm0,5.25v3.5h7V-21h1.75v-1.75Zm0,5.25v5.25h5.25V-17.5Zm7,0v5.25h5.25V-17.5ZM417.55-7h1.75v5.25H401.8V-3.5h15.75Zm22.47-13.384a6.034,6.034,0,0,0-4.7,1.848,6.788,6.788,0,0,0-1.68,4.7h2.24a5.064,5.064,0,0,1,.924-3.22,3.578,3.578,0,0,1,3.108-1.372,3.664,3.664,0,0,1,2.744.98,3.534,3.534,0,0,1,.952,2.6,3.6,3.6,0,0,1-.812,2.212,19.033,19.033,0,0,1-1.82,1.764A8.717,8.717,0,0,0,439.1-8.6a5.486,5.486,0,0,0-.616,2.66v.644h2.24v-.644a4.009,4.009,0,0,1,.532-2.072,5.3,5.3,0,0,1,1.316-1.512c1.232-1.092,1.988-1.82,2.3-2.156a5.439,5.439,0,0,0,1.036-3.276,5.026,5.026,0,0,0-1.6-3.948A5.959,5.959,0,0,0,440.02-20.384ZM439.6-3.332a1.6,1.6,0,0,0-1.2.476,1.5,1.5,0,0,0-.476,1.176,1.6,1.6,0,0,0,.476,1.2A1.717,1.717,0,0,0,439.6,0a1.785,1.785,0,0,0,1.232-.476,1.623,1.623,0,0,0,.476-1.2,1.6,1.6,0,0,0-.476-1.176A1.666,1.666,0,0,0,439.6-3.332Z" transform="translate(456 166)" fill="#fff"/>
    <g id="Group_41327" data-name="Group 41327" transform="translate(123 -426)">
      <path id="Path_53380" data-name="Path 53380" d="M214.334,509H153.083v4.083H149v24.5h4.083v4.083h61.251v-4.083h4.083v-24.5h-4.083Zm-4.083,20.417H198v-4.083h12.25Zm-40.834,0h-12.25v-4.083h12.25Zm8.167,8.167V533.5H173.5V517.167h4.083v-4.083h12.25v4.083h4.083V533.5h-4.083v4.083Z" transform="translate(12.333 3.083)" fill="#ecf0f1"/>
      <rect id="Rectangle_33779" data-name="Rectangle 33779" width="12.25" height="4.083" transform="translate(210.334 528.417)" fill="#8b9bb4"/>
      <rect id="Rectangle_33780" data-name="Rectangle 33780" width="12.25" height="4.083" transform="translate(169.5 528.417)" fill="#8b9bb4"/>
      <path id="Path_53381" data-name="Path 53381" d="M160.083,511v4.083H156v12.25h12.25v-12.25h-4.083V511Z" transform="translate(33.917 9.25)" fill="#8b9bb4"/>
      <rect id="Rectangle_33781" data-name="Rectangle 33781" width="12.25" height="4.083" transform="translate(189.917 536.584)" fill="#5a6988"/>
      <path id="Path_53382" data-name="Path 53382" d="M171.333,510h-12.25v4.083H155v16.334h4.083v-12.25h4.083v-4.083h4.083v4.083h4.083v12.25h4.083V514.083h-4.083Z" transform="translate(30.834 6.167)" fill="#5a6988"/>
      <path id="Path_53383" data-name="Path 53383" d="M157.25,508v8.167H145V557h77.584v-8.167h12.25V508Zm-4.083,44.917v-4.083h-4.083v-24.5h4.083V520.25h4.083v28.584h53.084v4.083Zm77.584-12.25h-4.083v4.083H165.417v-4.083h-4.083v-24.5h4.083v-4.083h61.251v4.083h4.083Z" fill="#5a6988"/>
      <path id="Path_53384" data-name="Path 53384" d="M154.167,539.584V511h-4.083v4.083H146v24.5h4.083v4.083h57.167v-4.083Z" transform="translate(3.083 9.25)" fill="#c0cbdc"/>
    </g>
    <g id="Group_41335" data-name="Group 41335" transform="translate(863 -426)">
      <path id="Path_53380-2" data-name="Path 53380" d="M214.334,509H153.083v4.083H149v24.5h4.083v4.083h61.251v-4.083h4.083v-24.5h-4.083Zm-4.083,20.417H198v-4.083h12.25Zm-40.834,0h-12.25v-4.083h12.25Zm8.167,8.167V533.5H173.5V517.167h4.083v-4.083h12.25v4.083h4.083V533.5h-4.083v4.083Z" transform="translate(12.333 3.083)" fill="#ecf0f1"/>
      <rect id="Rectangle_33779-2" data-name="Rectangle 33779" width="12.25" height="4.083" transform="translate(210.334 528.417)" fill="#8b9bb4"/>
      <rect id="Rectangle_33780-2" data-name="Rectangle 33780" width="12.25" height="4.083" transform="translate(169.5 528.417)" fill="#8b9bb4"/>
      <path id="Path_53381-2" data-name="Path 53381" d="M160.083,511v4.083H156v12.25h12.25v-12.25h-4.083V511Z" transform="translate(33.917 9.25)" fill="#8b9bb4"/>
      <rect id="Rectangle_33781-2" data-name="Rectangle 33781" width="12.25" height="4.083" transform="translate(189.917 536.584)" fill="#5a6988"/>
      <path id="Path_53382-2" data-name="Path 53382" d="M171.333,510h-12.25v4.083H155v16.334h4.083v-12.25h4.083v-4.083h4.083v4.083h4.083v12.25h4.083V514.083h-4.083Z" transform="translate(30.834 6.167)" fill="#5a6988"/>
      <path id="Path_53383-2" data-name="Path 53383" d="M157.25,508v8.167H145V557h77.584v-8.167h12.25V508Zm-4.083,44.917v-4.083h-4.083v-24.5h4.083V520.25h4.083v28.584h53.084v4.083Zm77.584-12.25h-4.083v4.083H165.417v-4.083h-4.083v-24.5h4.083v-4.083h61.251v4.083h4.083Z" fill="#5a6988"/>
      <path id="Path_53384-2" data-name="Path 53384" d="M154.167,539.584V511h-4.083v4.083H146v24.5h4.083v4.083h57.167v-4.083Z" transform="translate(3.083 9.25)" fill="#c0cbdc"/>
    </g>
  </g>
</svg>
