<svg xmlns="http://www.w3.org/2000/svg" width="134" height="89.667" viewBox="0 0 134 89.667">
  <g id="g4" transform="translate(-2644.5 -5306.833)">
    <g id="Group_41318" data-name="Group 41318" transform="translate(2645 5307.333)">
      <path id="Union_91" data-name="Union 91" d="M-2488-4017.666v-81.844h61.385v-6.822h6.821v6.822h61.383v61.383h-3.408V-4096.1h-122.77v0h122.769v61.384h-3.41v6.82h3.41v6.822h0v-3.411h3.408v6.82Zm37.513-10.231v-3.41h-3.41v-3.41h3.41v-6.819h3.41v-10.231h-3.41v0h3.41v10.23h-3.41v6.819h-3.41v3.41h3.41Zm78.437-3.41v-3.41h3.41v-10.231h0v10.23h-3.41Zm-10.231,0v-3.41h0Zm3.41-3.41v-3.41h0Zm-51.155-3.41h6.822v-3.409h3.41v0h-3.41v3.409Zm54.566-6.82v0h0Zm-17.052,3.411h6.821v-3.412h-6.821v0h6.821v3.411Zm-23.872,0h3.41v-3.412h0v3.411Zm-44.332,0h0Zm6.82-3.411v-3.41h0Zm81.847-3.411h3.41v0Zm-6.821,0h3.411v-3.408h0v3.408Zm-10.23,0h6.82v0Zm-27.283,0v0h0Zm-6.819,0v-3.408h0Zm-13.641,0h0Zm51.154-3.408h0Zm-6.821,0v0Zm-10.23,0v-6.82h0Zm3.41-3.41h3.41v-3.41h10.231V-4062h3.41v0h-3.41v3.41h-10.231v3.41Zm-10.23,0h0Zm-6.821,0h3.41v-3.41h0v3.41Zm-3.409,0v0Zm-13.642,0v-3.41h0Zm-30.693,0h0Zm3.411,0v0Zm-10.231-3.41h0Zm6.82,0v0Zm44.334-3.41h0Zm-40.923,0h3.41v-3.411h-3.41v-3.41h6.82v0h-6.82v3.41h3.41v3.41Zm-6.821,0v0Zm-6.82,0h0Zm102.308-3.411v0Zm-6.821-3.41h3.411v-3.41h6.82v0h-6.82v3.41Zm-6.82,0v-3.41h0Zm-6.821,0h0v-3.41h0Zm-78.436,0v-3.41h0Zm61.385-3.41v-3.41h0Zm-68.205,0h0Zm88.667-10.23h13.641v3.41h3.41v0h-3.41v-3.41H-2389.1v0Zm-40.924,6.82h0Zm-10.229,0h3.41v-3.411h-3.41v0h3.41v3.41Zm-6.821,0h3.411v0Zm-13.64,0v0Zm44.332-6.82v3.41h0v-3.409h-10.23v0h10.23Zm-10.23,3.41h0Zm-37.513,0h0Zm10.231,0v0Zm54.564-3.409h0v0Zm-10.23,0h-3.411v0h3.411Zm-51.154,0h0Zm23.872,0v0Zm75.025,54.564v-6.82h6.82v6.82ZM-2375.46-4051.767ZM-2412.975-4082.461ZM-2426.615-4082.461Z" transform="translate(2488 4106.333)" fill="#2a68af" stroke="rgba(0,0,0,0)" stroke-width="1"/>
    </g>
    <path id="Path_54284" data-name="Path 54284" d="M-11.143-27.857v-5.571h-39v5.571h-5.571V0h5.571V5.571h22.286V0H-39V-27.857h16.714v11.143H-5.571V-27.857Zm0,16.714H-27.857v5.571h5.571V5.571H-5.571V-5.571h-5.571ZM44.571-33.429h-39v5.571H0V0H27.857V5.571H44.571V0h5.571V-5.571H44.571ZM16.714-5.571V-27.857H27.857V-5.571Z" transform="translate(2711.392 5368.08)" fill="#fff"/>
  </g>
</svg>
