<svg xmlns="http://www.w3.org/2000/svg" width="560" height="60" viewBox="0 0 560 60">
  <g id="g5-a" transform="translate(-544 -5911)">
    <g id="Path_54308" data-name="Path 54308" transform="translate(544 5911)" fill="#fff">
      <path d="M 553.789306640625 58 L 6.211447238922119 58 L 6.21150016784668 56.52699661254883 L 4.211428642272949 56.52699661254883 L 2.00006890296936 56.52699661254883 L 2.00000262260437 3.472212314605713 L 4.211357116699219 3.472212314605713 L 6.211285591125488 3.472212314605713 L 6.211338520050049 1.999998092651367 L 553.7891845703125 1.999998092651367 L 553.7891235351562 3.472212314605713 L 555.7891845703125 3.472212314605713 L 558 3.472212314605713 L 557.9998779296875 56.52778244018555 L 555.789306640625 56.52778244018555 L 553.7893676757812 56.52778244018555 L 553.789306640625 58 Z" stroke="none"/>
      <path d="M 551.7894287109375 56 L 551.7894897460938 54.52778244018555 L 555.789306640625 54.52778244018555 L 555.9998779296875 54.52778244018555 L 556 5.472212314605713 L 555.7891845703125 5.472212314605713 L 551.7890014648438 5.472212314605713 L 551.7890625 3.999998092651367 L 8.211221694946289 3.999998092651367 L 8.211142539978027 5.472212314605713 L 4.211357116699219 5.472212314605713 L 4.00000524520874 5.472212314605713 L 4.00006628036499 54.52699661254883 L 4.211428642272949 54.52699661254883 L 8.211643218994141 54.52699661254883 L 8.211564064025879 56 L 551.7894287109375 56 M 555.789306640625 60 L 555.7891845703125 60 L 555.7884521484375 60 L 555.7891845703125 60 L 555.789306640625 60 Z M 555.789306640625 60 L 4.211357116699219 60 L 4.211428642272949 58.52699661254883 L 7.142857066355646e-05 58.52699661254883 L 5.684341886080801e-14 1.472212433815002 L 4.211357116699219 1.472212433815002 L 4.211428642272949 -1.9073486328125e-06 L 555.789306640625 -1.9073486328125e-06 L 555.7891845703125 1.472212433815002 L 560 1.472212433815002 L 559.9998779296875 58.52778244018555 L 555.789306640625 58.52778244018555 L 555.7891845703125 59.99914169311523 L 555.7891845703125 60 Z" stroke="none" fill="#232323"/>
    </g>
    <path id="Path_54379" data-name="Path 54379" d="M2,0H.29l4.2-13.641h1.8L10.521,0H8.648L7.717-3h-4.8ZM3.34-4.359H7.321L5.678-9.536l-.387-1.371L4.948-9.536ZM18,.413a1.379,1.379,0,0,1-1.011-.422,1.379,1.379,0,0,1-.422-1.011,1.368,1.368,0,0,1,.426-1.015A1.391,1.391,0,0,1,18-2.452,1.391,1.391,0,0,1,19-2.035a1.368,1.368,0,0,1,.426,1.015,1.379,1.379,0,0,1-.422,1.011A1.379,1.379,0,0,1,18,.413Zm21.7-15.3V-3.852h1.314V-13.68H45.46v-1.206ZM47.8-18Zm6.75,0h3.375v1.125H54.55v2.25h4.5V-13.5h-4.5v6.75h1.125v1.125H54.55V0H53.425V-5.625H52.3V-4.5H51.175v1.125H50.05V-2.25H48.925V-3.375H50.05V-4.5h1.125V-5.625H52.3V-6.75h1.125V-13.5H47.8v-1.125h5.625V-15.75H50.05v-1.125h4.5Zm9,0h1.125V-1.125H63.55V0H62.425V-1.125H63.55Zm-3.375,3.375H61.3V-4.5H60.175Zm-9,2.25H52.3V-6.75H51.175V-7.875H50.05V-6.75H48.925V-7.875H50.05V-9h1.125v-1.125h-2.25V-11.25h2.25Zm4.5,0H56.8v2.25h1.125V-11.25H59.05v1.125H57.925V-9H56.8v1.125H55.675ZM57.925-9H59.05v2.25H56.8V-7.875h1.125Zm-2.25,3.375H56.8V-4.5H55.675ZM56.8-4.5h1.125v1.125H56.8Zm4.5,2.25h1.125v1.125H61.3ZM67.6-18Zm4.5,0h1.125v2.25H72.1v2.25H70.975v1.125H72.1V-13.5h1.125v1.125h2.25V-13.5H76.6v1.125H75.475v6.75H74.35V-6.75H70.975v4.5H72.1V-3.375h1.125V-4.5H74.35v1.125H73.225V-2.25H72.1v1.125H70.975V0H69.85V-11.25H68.725v1.125H67.6V-11.25h1.125v-1.125H69.85V-13.5h1.125v-2.25H72.1Zm7.875,0H81.1v2.25H79.975v2.25H78.85v1.125H77.725v1.125H76.6v-1.125h1.125V-13.5H78.85v-2.25h1.125Zm-6.75,2.25H74.35v1.125H73.225Zm7.875,0h1.125v2.25H81.1Zm-6.75,1.125h1.125V-13.5H74.35ZM82.225-13.5H83.35v1.125H82.225Zm1.125,1.125h1.125v1.125H83.35v1.125H81.1v2.25h3.375V-6.75H81.1v5.625H79.975V0H78.85V-1.125h1.125V-6.75H76.6V-7.875h3.375v-2.25h-2.25V-11.25H83.35ZM70.975-11.25v1.125H74.35V-11.25Zm0,2.25v1.125H74.35V-9ZM72.1-5.625h1.125V-4.5H72.1Zm5.625,0H78.85v2.25H77.725V-2.25H76.6V-3.375h1.125Zm4.5,0H83.35V-4.5H82.225ZM83.35-4.5h1.125v2.25H83.35Zm-9,1.125h1.125v2.25H74.35ZM77.725-2.25H78.85v1.125H77.725ZM87.4-18Zm2.25,1.125h12.375v1.125H96.4v4.5h6.75v1.125H96.4V-9H95.275v2.25H94.15V-4.5H93.025v1.125H91.9V-2.25H90.775v1.125H89.65V0H88.525V-1.125H89.65V-2.25h1.125V-3.375H91.9V-4.5h1.125V-6.75H94.15V-9h1.125v-1.125h-6.75V-11.25h6.75v-4.5H89.65ZM96.4-9h1.125v2.25H96.4Zm1.125,2.25H98.65v1.125H97.525ZM98.65-5.625h1.125V-4.5H98.65ZM99.775-4.5H100.9v1.125H99.775ZM100.9-3.375h3.375V-2.25H103.15v1.125h-1.125V-2.25H100.9ZM107.2-18Zm4.5,0h1.125v1.125H116.2v2.25h1.125V-13.5H116.2v2.25h-3.375v1.125H116.2V-11.25h1.125v-1.125h1.125v-2.25h1.125V-18H120.7v3.375h-1.125V-13.5h4.5v1.125H122.95v4.5h-1.125v2.25H120.7V-4.5h-1.125v1.125H118.45V-2.25h-1.125v1.125H116.2V0h-1.125V-1.125H116.2V-2.25h1.125V-3.375h1.125V-4.5h1.125V-6.75H120.7V-7.875h1.125v-4.5H118.45v1.125h-1.125v1.125H116.2V-6.75h-4.5v1.125h4.5V-4.5h-1.125v1.125H113.95V-2.25h-1.125v1.125h-2.25V0h-2.25V-1.125h2.25V-2.25h2.25V-3.375h1.125V-4.5h-3.375v2.25h-2.25V-3.375h1.125V-4.5H107.2V-5.625h3.375V-6.75h-2.25v-3.375H111.7V-11.25h-3.375V-13.5H107.2v-1.125h1.125v-2.25H111.7Zm-2.25,2.25v1.125h2.25V-15.75Zm3.375,0v1.125h2.25V-15.75ZM109.45-13.5v1.125h2.25V-13.5Zm3.375,0v1.125h2.25V-13.5Zm5.625,2.25h1.125v4.5H118.45Zm-9,2.25v1.125h2.25V-9Zm3.375,0v1.125h2.25V-9ZM120.7-4.5h1.125v2.25H120.7Zm1.125,2.25h1.125v1.125h-1.125Zm-9,1.125h1.125V0h-1.125Zm10.125,0h1.125V0H122.95Zm9.036-7.983V.72H127.54V1.926h5.76V-9.108ZM146.8-18Zm3.375,0H151.3v2.25h12.375v1.125h-2.25v3.375h2.25v1.125h-2.25V-6.75h2.25v1.125h-15.75V-6.75h2.25v-3.375h-2.25V-11.25h2.25v-3.375H149.05V-13.5h-1.125v1.125H146.8V-13.5h1.125v-1.125h1.125V-15.75h1.125Zm1.125,3.375v3.375h2.25v-3.375Zm3.375,0v3.375h2.25v-3.375Zm3.375,0v3.375h2.25v-3.375Zm-6.75,4.5V-6.75h2.25v-3.375Zm3.375,0V-6.75h2.25v-3.375Zm3.375,0V-6.75h2.25v-3.375ZM147.925-4.5h1.125v2.25h-1.125v1.125H146.8V-2.25h1.125Zm3.375,0h1.125v1.125H151.3Zm4.5,0h1.125v1.125H155.8Zm4.5,0h1.125v1.125H160.3Zm-7.875,1.125h1.125v2.25h-1.125Zm4.5,0h1.125v2.25h-1.125Zm4.5,0h1.125v2.25h-1.125ZM166.6-18Zm2.25,0h1.125v1.125H168.85Zm7.875,0h1.125v2.25h-1.125v1.125H175.6V-13.5h-1.125v1.125H173.35v1.125h-5.625v-1.125h5.625V-13.5h1.125v-1.125H175.6V-15.75h1.125Zm-6.75,1.125H171.1v1.125h-1.125Zm7.875,1.125h1.125v1.125H177.85ZM166.6-14.625h6.75V-13.5H166.6Zm12.375,0H180.1V-13.5h-1.125ZM180.1-13.5h1.125v1.125H180.1v1.125h-5.625v-1.125H180.1Zm1.125,1.125h1.125v1.125h-1.125Zm-13.5,2.25h4.5V-9h-4.5ZM173.35-9h9v7.875h-1.125V0H180.1V-1.125h1.125V-4.5h-2.25v2.25H180.1v1.125h-2.25V-4.5h-1.125v3.375H175.6V-4.5h-1.125V0H173.35Zm-5.625,1.125h4.5v6.75H171.1V-2.25h-2.25v1.125h-1.125Zm6.75,0v2.25H175.6v-2.25Zm2.25,0v2.25h1.125v-2.25Zm2.25,0v2.25h2.25v-2.25ZM168.85-6.75v3.375h2.25V-6.75ZM186.4-18Zm2.25,0h1.125v1.125H188.65Zm1.125,1.125H190.9v1.125h-1.125Zm4.5,0h7.875V-9h-1.125v1.125H199.9V-9h1.125v-6.75h-2.25v3.375H197.65v2.25h-1.125V-9H195.4v1.125h-1.125V-9H195.4v-1.125h1.125v-2.25h1.125V-15.75h-3.375Zm-7.875,2.25h6.75V-13.5H186.4Zm7.875,0H195.4v2.25h-1.125v1.125H193.15v-1.125h1.125Zm-6.75,2.25h4.5v1.125h-4.5Zm0,2.25h4.5V-9h-4.5Zm11.25,0H199.9V-9h-1.125Zm-11.25,2.25h4.5v4.5h1.125v-2.25h1.125v2.25H193.15V-2.25h-1.125v1.125H190.9V-2.25h-2.25v1.125h-1.125Zm9,0h1.125V-6.75h-1.125ZM188.65-6.75v3.375h2.25V-6.75Zm9,0h1.125V-4.5H197.65ZM195.4-5.625h1.125v4.5H195.4Zm5.625,0h1.125V-4.5h-1.125ZM202.15-4.5h1.125v2.25H202.15ZM199.9-3.375h1.125V0h-4.5V-1.125H199.9ZM206.2-18Zm9,0h1.125v2.25H219.7V-18h1.125v2.25h2.25v1.125h-2.25V-13.5h1.125v1.125h-1.125v1.125h2.25v1.125h-4.5V-9h3.375v4.5h1.125v1.125H221.95v2.25h-1.125V0H219.7V-1.125h1.125v-2.25H215.2V0h-1.125V-3.375H212.95V-4.5h1.125V-9h3.375v-1.125h-4.5V-11.25h2.25v-1.125h-1.125V-13.5H215.2v-1.125h-2.25V-15.75h2.25Zm-7.875,1.125h4.5v11.25h-4.5Zm1.125,1.125v2.25h2.25v-2.25Zm7.875,1.125V-13.5H219.7v-1.125Zm-7.875,2.25v2.25h2.25v-2.25Zm7.875,0v1.125H219.7v-1.125ZM208.45-9v2.25h2.25V-9Zm6.75,1.125V-6.75h2.25V-7.875Zm3.375,0V-6.75h2.25V-7.875ZM215.2-5.625V-4.5h2.25V-5.625Zm3.375,0V-4.5h2.25V-5.625ZM207.325-4.5h1.125v2.25h-1.125v1.125H206.2V-2.25h1.125Zm2.25,0H210.7v1.125h-1.125ZM210.7-3.375h1.125v2.25H210.7Zm7.875,1.125H219.7v1.125h-1.125ZM226-18Zm9,0h1.125v3.375h5.625V-13.5h-5.625V-9H235v-4.5h-7.875v-1.125H235Zm3.375,0H239.5v1.125h-1.125Zm1.125,1.125h1.125v1.125H239.5ZM228.25-11.25h5.625v5.625H228.25Zm11.25,0h1.125v3.375H239.5v2.25h-1.125v2.25H237.25V-2.25h-1.125v1.125H235V0h-2.25V-1.125H235V-2.25h1.125V-3.375h1.125v-2.25h1.125v-2.25H239.5Zm-10.125,1.125V-6.75h3.375v-3.375ZM236.125-9h1.125v3.375h-1.125Zm4.5,3.375h1.125V0h-1.125V-1.125H239.5V-2.25h1.125Zm-9,1.125H235v1.125h-3.375V-2.25h-4.5V-3.375h4.5Zm6.75,1.125H239.5V-2.25h-1.125ZM245.8-18Zm2.25,0h1.125v1.125H248.05Zm1.125,1.125H250.3v1.125h-1.125Zm4.5,0h7.875V-9h-1.125v1.125H259.3V-9h1.125v-6.75h-2.25v3.375H257.05v2.25h-1.125V-9H254.8v1.125h-1.125V-9H254.8v-1.125h1.125v-2.25h1.125V-15.75h-3.375Zm-7.875,2.25h6.75V-13.5H245.8Zm7.875,0H254.8v2.25h-1.125v1.125H252.55v-1.125h1.125Zm-6.75,2.25h4.5v1.125h-4.5Zm0,2.25h4.5V-9h-4.5Zm11.25,0H259.3V-9h-1.125Zm-11.25,2.25h4.5v4.5h1.125v-2.25h1.125v2.25H252.55V-2.25h-1.125v1.125H250.3V-2.25h-2.25v1.125h-1.125Zm9,0h1.125V-6.75h-1.125ZM248.05-6.75v3.375h2.25V-6.75Zm9,0h1.125V-4.5H257.05ZM254.8-5.625h1.125v4.5H254.8Zm5.625,0h1.125V-4.5h-1.125ZM261.55-4.5h1.125v2.25H261.55ZM259.3-3.375h1.125V0h-4.5V-1.125H259.3ZM265.6-18Zm4.5,0h1.125v2.25H274.6v-1.125h1.125v1.125h5.625v1.125h-5.625V-13.5h4.5v1.125h-4.5v1.125h4.5v1.125h-4.5V-9h5.625v1.125H270.1V-6.75h-1.125v-5.625H267.85v1.125h-1.125v1.125H265.6V-11.25h1.125v-1.125h1.125V-13.5h1.125v-2.25H270.1Zm3.375,0H274.6v1.125h-1.125ZM270.1-14.625V-13.5h4.5v-1.125Zm0,2.25v1.125h4.5v-1.125Zm0,2.25V-9h4.5v-1.125Zm0,3.375h10.125V0H279.1V-1.125h-7.875V0H270.1Zm1.125,1.125V-2.25H279.1V-5.625Zm23.157-2.1a1.089,1.089,0,0,0-.846.306,1.044,1.044,0,0,0-.324.81,1.071,1.071,0,0,0,.306.792,1.047,1.047,0,0,0,.774.324.963.963,0,0,0,.4-.072,2.123,2.123,0,0,1-.378,1.206,2.6,2.6,0,0,1-1.152.792v.882a3.472,3.472,0,0,0,1.854-1.17,3.373,3.373,0,0,0,.7-2.106,2.091,2.091,0,0,0-.36-1.26A1.149,1.149,0,0,0,294.382-7.722ZM305.2-18Zm10.125,0h1.125v2.25h3.375v2.25h2.25v1.125h-2.25v2.25H316.45V-9h3.375v1.125H316.45v2.25h4.5V-4.5h-4.5v2.25h5.625v1.125H309.7V-2.25h5.625V-4.5h-4.5V-5.625h4.5v-2.25H311.95V-9h3.375v-1.125H311.95V-11.25h3.375v-1.125h-4.5V-13.5h4.5v-1.125H311.95V-15.75h3.375ZM305.2-15.75h5.625v2.25H309.7v1.125h-1.125v1.125h2.25v3.375H309.7v2.25h-1.125v2.25H307.45v2.25h-1.125V0H305.2V-1.125h1.125v-2.25h1.125v-2.25h1.125v-2.25H309.7v-2.25h-3.375V-11.25h1.125v-1.125h1.125V-13.5H309.7v-1.125h-4.5Zm11.25,1.125V-13.5h2.25v-1.125Zm0,2.25v1.125h2.25v-1.125Zm-10.125,4.5h1.125v2.25h-1.125Zm2.25,4.5H309.7V-2.25h-1.125ZM325-18Zm1.125,0h1.125v1.125h-1.125Zm6.75,0H334v1.125h-1.125Zm5.625,0h1.125v1.125H338.5v1.125h2.25v1.125h-3.375V-13.5h2.25v1.125h-2.25v1.125h4.5v1.125H338.5V-6.75h3.375v1.125H340.75V-4.5h-1.125v1.125H338.5V-2.25h-1.125v1.125H336.25V-2.25h1.125V-5.625h-2.25V-4.5h1.125v1.125h-1.125V0h-2.25V-1.125H334V-2.25h-2.25V-3.375H334v-2.25h-2.25V-6.75H334V-7.875h-2.25V-9h4.5v1.125h-1.125V-6.75h2.25v-3.375H331.75V-11.25h4.5v-1.125H334V-13.5h2.25v-1.125h-3.375V-15.75H334v-1.125h1.125v1.125h2.25v-1.125H338.5Zm-11.25,1.125h1.125v1.125H327.25ZM325-14.625h6.75V-13.5H325Zm1.125,2.25h4.5v1.125h-4.5Zm0,2.25h4.5V-9h-4.5ZM339.625-9h1.125v1.125h-1.125Zm-13.5,1.125h4.5v6.75H329.5V-2.25h-2.25v1.125h-1.125ZM327.25-6.75v3.375h2.25V-6.75ZM338.5-5.625V-4.5h1.125V-5.625Zm0,3.375h1.125v1.125H338.5Zm2.25,0h1.125V0h-2.25V-1.125h1.125ZM344.8-18Zm2.25,1.125h1.125v1.125H347.05Zm3.375,0h4.5V-13.5H351.55v2.25h-1.125Zm5.625,0h4.5V-13.5h-3.375v2.25H356.05Zm-7.875,1.125H349.3v2.25h-1.125Zm3.375,0v1.125h2.25V-15.75Zm5.625,0v1.125h2.25V-15.75ZM353.8-12.375h1.125v2.25H353.8V-9h3.375v-2.25h2.25v-1.125h1.125v2.25H358.3V-9h2.25v1.125H358.3V-6.75h3.375v1.125H358.3V-4.5h-1.125V-5.625H353.8V-4.5h-1.125v1.125H351.55V-4.5h1.125V-5.625H349.3v2.25h-1.125V-2.25H347.05v1.125h-1.125V-2.25h1.125V-3.375h1.125v-6.75H344.8V-11.25h4.5v4.5h3.375V-7.875h-2.25V-9h2.25v-1.125H351.55V-11.25h2.25Zm0,4.5V-6.75h3.375V-7.875ZM358.3-4.5h1.125v1.125H358.3Zm-9,1.125h1.125V-2.25H349.3Zm1.125,1.125h11.25v1.125h-11.25ZM364.6-18Zm3.375,1.125H378.1v15.75h-1.125V-2.25H369.1v1.125h-1.125ZM369.1-15.75v5.625h7.875V-15.75Zm0,6.75v5.625h7.875V-9Zm15.3-9Zm2.25,0h1.125v3.375h3.375V-18h1.125v3.375H393.4V-13.5h-1.125v6.75h2.25V-16.875h5.625v15.75h-1.125V0H397.9V-1.125h1.125V-6.75H395.65v3.375h-1.125V-2.25H393.4v1.125h-1.125V0H391.15V-1.125h1.125V-2.25H393.4V-3.375h1.125v-2.25H384.4V-6.75h2.25V-13.5h-1.125v-1.125h1.125Zm9,2.25v3.375h3.375V-15.75Zm-7.875,2.25v1.125h3.375V-13.5Zm0,2.25v1.125h3.375V-11.25Zm7.875,0v3.375h3.375V-11.25ZM387.775-9v2.25h3.375V-9ZM386.65-4.5h1.125v2.25H386.65v1.125h-1.125V0H384.4V-1.125h1.125V-2.25h1.125Zm3.375,0h1.125v1.125h-1.125Zm1.125,1.125h1.125V-2.25H391.15Zm5.625,1.125H397.9v1.125h-1.125Zm17.594-2.522L404.824,0V-1.521l6.53-3.243-6.53-3.278v-1.5Zm7.425,3.41V-11.892a12.852,12.852,0,0,1-1.433,1,11.1,11.1,0,0,1-1.907.844v-1.477a11.56,11.56,0,0,0,3.34-2.118h1.635V-1.362h3.278V0h-8.253V-1.362ZM434.8-14.045a3.937,3.937,0,0,1,3.551,1.956,9.872,9.872,0,0,1,1.222,5.269,9.891,9.891,0,0,1-1.222,5.278A3.937,3.937,0,0,1,434.8.413a3.94,3.94,0,0,1-3.546-1.956,9.862,9.862,0,0,1-1.226-5.278,9.843,9.843,0,0,1,1.226-5.269A3.94,3.94,0,0,1,434.8-14.045ZM432.137-3.9l4.72-7.392a2.665,2.665,0,0,0-.971-1.1,2.235,2.235,0,0,0-1.085-.286,2.414,2.414,0,0,0-2.232,1.63,9.752,9.752,0,0,0-.765,4.135q0,.571.035,1.23A10.835,10.835,0,0,0,432.137-3.9Zm5.309-5.766-4.685,7.436a2.833,2.833,0,0,0,.87.962,1.969,1.969,0,0,0,1.1.321A2.458,2.458,0,0,0,437.1-2.817a11.681,11.681,0,0,0,.7-4.144A10.093,10.093,0,0,0,437.445-9.668Zm9.956-4.377a3.937,3.937,0,0,1,3.551,1.956,9.872,9.872,0,0,1,1.222,5.269,9.891,9.891,0,0,1-1.222,5.278A3.937,3.937,0,0,1,447.4.413a3.94,3.94,0,0,1-3.546-1.956,9.862,9.862,0,0,1-1.226-5.278,9.843,9.843,0,0,1,1.226-5.269A3.94,3.94,0,0,1,447.4-14.045ZM444.739-3.9l4.72-7.392a2.665,2.665,0,0,0-.971-1.1,2.235,2.235,0,0,0-1.085-.286,2.414,2.414,0,0,0-2.232,1.63,9.752,9.752,0,0,0-.765,4.135q0,.571.035,1.23A10.835,10.835,0,0,0,444.739-3.9Zm5.309-5.766-4.685,7.436a2.833,2.833,0,0,0,.87.962,1.969,1.969,0,0,0,1.1.321A2.458,2.458,0,0,0,449.7-2.817a11.681,11.681,0,0,0,.7-4.144A10.093,10.093,0,0,0,450.047-9.668ZM454.607-18Zm2.25,1.125h12.375v1.125h-5.625v4.5h6.75v1.125h-6.75V-9h-1.125v2.25h-1.125V-4.5h-1.125v1.125h-1.125V-2.25h-1.125v1.125h-1.125V0h-1.125V-1.125h1.125V-2.25h1.125V-3.375h1.125V-4.5h1.125V-6.75h1.125V-9h1.125v-1.125h-6.75V-11.25h6.75v-4.5h-5.625ZM463.607-9h1.125v2.25h-1.125Zm1.125,2.25h1.125v1.125h-1.125Zm1.125,1.125h1.125V-4.5h-1.125ZM466.982-4.5h1.125v1.125h-1.125Zm1.125,1.125h3.375V-2.25h-1.125v1.125h-1.125V-2.25h-1.125Z" transform="translate(563.22 5949)" fill="#15172a"/>
  </g>
</svg>
