<svg xmlns="http://www.w3.org/2000/svg" width="578.083" height="61.75" viewBox="0 0 578.083 61.75">
  <g id="g5-b1" transform="translate(-544 -6262)">
    <g id="Path_54311" data-name="Path 54311" transform="translate(544 6263)" fill="#4e332d">
      <path d="M 553.7891845703125 58 L 6.210928440093994 58 L 6.210928440093994 56.52785873413086 L 4.210928440093994 56.52785873413086 L 2 56.52785873413086 L 2 3.472357034683228 L 4.210928440093994 3.472357034683228 L 6.210928440093994 3.472357034683228 L 6.210928440093994 2 L 553.7891845703125 2 L 553.7891845703125 3.472357034683228 L 555.7891845703125 3.472357034683228 L 558 3.472357034683228 L 557.9999389648438 56.52785873413086 L 555.7891845703125 56.52785873413086 L 553.7891845703125 56.52785873413086 L 553.7891845703125 58 Z" stroke="none"/>
      <path d="M 551.7891845703125 56 L 551.7891845703125 54.52785873413086 L 555.7891845703125 54.52785873413086 L 555.9999389648438 54.52785873413086 L 556 5.472357273101807 L 555.7891845703125 5.472357273101807 L 551.7891845703125 5.472357273101807 L 551.7891845703125 4 L 8.210928916931152 4 L 8.210928916931152 5.472357273101807 L 4.210928440093994 5.472357273101807 L 4 5.472357273101807 L 4 54.52785873413086 L 4.210928440093994 54.52785873413086 L 8.210928916931152 54.52785873413086 L 8.210928916931152 56 L 551.7891845703125 56 M 555.7891845703125 60 L 4.210928440093994 60 L 4.210928440093994 58.52785873413086 L 5.684341886080801e-14 58.52785873413086 L 5.684341886080801e-14 1.472357153892517 L 4.210928440093994 1.472357153892517 L 4.210928440093994 3.552713678800501e-15 L 555.7891845703125 3.552713678800501e-15 L 555.7891845703125 1.472357153892517 L 560 1.472357153892517 L 559.9999389648438 58.52785873413086 L 555.7891845703125 58.52785873413086 L 555.7891845703125 59.9995002746582 L 555.7891845703125 60 Z" stroke="none" fill="#232323"/>
    </g>
    <path id="Path_54317" data-name="Path 54317" d="M1.512,0V-13.641H4.175a9.185,9.185,0,0,1,3.212.365A2.553,2.553,0,0,1,8.6-12.2a3.234,3.234,0,0,1,.4,1.626,3.932,3.932,0,0,1-.237,1.367,3.724,3.724,0,0,1-.7,1.178A4.779,4.779,0,0,1,6.715-7.022a4.355,4.355,0,0,1,2.2,1.6,3.635,3.635,0,0,1,.576,1.9A3.5,3.5,0,0,1,9-1.767,3.291,3.291,0,0,1,7.638-.457,6.438,6.438,0,0,1,4.825,0ZM3.287-7.5H5.15a4.143,4.143,0,0,0,1.323-.8A2.773,2.773,0,0,0,7.1-9.224,3,3,0,0,0,7.3-10.354a1.773,1.773,0,0,0-.567-1.441,3.633,3.633,0,0,0-2.21-.475H3.287Zm0,6.135H4.966a2.857,2.857,0,0,0,2.079-.664,2.161,2.161,0,0,0,.672-1.6,2.29,2.29,0,0,0-.369-1.261A2.492,2.492,0,0,0,6.205-5.8a6.444,6.444,0,0,0-2.426-.338H3.287ZM18,.413a1.379,1.379,0,0,1-1.011-.422,1.379,1.379,0,0,1-.422-1.011,1.368,1.368,0,0,1,.426-1.015A1.391,1.391,0,0,1,18-2.452,1.391,1.391,0,0,1,19-2.035a1.368,1.368,0,0,1,.426,1.015,1.379,1.379,0,0,1-.422,1.011A1.379,1.379,0,0,1,18,.413ZM28-18Zm3.375,0H32.5v1.125H44.875v1.125h-4.5v1.125H43.75v3.375H32.5v-3.375h3.375V-15.75H32.5v1.125H31.375V0H30.25V-11.25H29.125v1.125H28V-11.25h1.125v-1.125H30.25v-2.25h1.125ZM37-15.75v1.125h2.25V-15.75ZM33.625-13.5v1.125h2.25V-13.5ZM37-13.5v1.125h2.25V-13.5Zm3.375,0v1.125h2.25V-13.5Zm-6.75,3.375h9V-2.25H41.5v1.125H40.375V-2.25h-4.5v1.125H34.75V0H33.625V-1.125H34.75V-2.25H33.625ZM34.75-9v1.125H41.5V-9Zm0,2.25v1.125H41.5V-6.75Zm0,2.25v1.125H41.5V-4.5ZM41.5-1.125h1.125V0H41.5ZM47.8-18Zm4.5,0h1.125v3.375H52.3V-13.5h4.5V-9H55.675v2.25H54.55v1.125H53.425V-4.5H52.3v1.125H51.175V-2.25H50.05v1.125H48.925V0H47.8V-1.125h1.125V-2.25H50.05V-3.375h1.125V-4.5H52.3V-5.625h1.125V-6.75H54.55V-9h1.125v-3.375h-4.5V-9H50.05v1.125H48.925V-6.75H47.8V-7.875h1.125V-9H50.05v-3.375h1.125v-2.25H52.3Zm5.625,0H59.05v5.625h1.125v1.125H59.05V0H57.925Zm2.25,6.75H61.3v1.125H60.175ZM61.3-10.125h1.125V-9H63.55v2.25H62.425V-7.875H61.3ZM51.175-9H52.3v1.125H51.175ZM52.3-7.875h1.125V-6.75H52.3Zm16.952.782v-6.548H76.89v1.573h-6v3.34h.281A7.279,7.279,0,0,1,75.7-7.5a3.971,3.971,0,0,1,1.591,3.313,4.43,4.43,0,0,1-.642,2.364A4.411,4.411,0,0,1,74.842-.18a5.421,5.421,0,0,1-2.487.593A11.866,11.866,0,0,1,68.98-.229V-2.013a8.1,8.1,0,0,0,1.67.664,6.336,6.336,0,0,0,1.705.259,3.352,3.352,0,0,0,1.529-.378,2.72,2.72,0,0,0,1.16-1.1,2.959,2.959,0,0,0,.413-1.481,2.654,2.654,0,0,0-1.129-2.158,6.74,6.74,0,0,0-4.012-.883ZM80.694-3.542V-3.7a3.1,3.1,0,0,1,.681-2,2.228,2.228,0,0,1,1.833-.848,2.8,2.8,0,0,1,.567.057A4.016,4.016,0,0,1,84.4-6.3a9.216,9.216,0,0,1,1.055.532l1.063.589a3.554,3.554,0,0,0,1.591.536,1.074,1.074,0,0,0,.962-.47,1.815,1.815,0,0,0,.312-1.024v-.141h1.125v.141a2.674,2.674,0,0,1-.831,2.167,2.7,2.7,0,0,1-1.762.7,5.066,5.066,0,0,1-2.3-.817l-.9-.519a3.615,3.615,0,0,0-1.644-.58A1.237,1.237,0,0,0,82.421-5a1.287,1.287,0,0,0-.488.589,1.755,1.755,0,0,0-.185.712v.158ZM102.366,0H94.113V-1.5a3.7,3.7,0,0,1,.237-1.244,5.336,5.336,0,0,1,.905-1.49q.668-.826,1.415-1.591l.932-.949q.281-.29,1.23-1.345a9.652,9.652,0,0,0,1.252-1.617,2.322,2.322,0,0,0,.3-1.107,1.547,1.547,0,0,0-.7-1.358,2.745,2.745,0,0,0-1.582-.479,6.234,6.234,0,0,0-1.121.114A8.28,8.28,0,0,0,95.9-12.3q-.466.154-1.512.628v-1.45a8.7,8.7,0,0,1,2.219-.725,10.868,10.868,0,0,1,1.833-.2,5.348,5.348,0,0,1,1.956.347,2.567,2.567,0,0,1,1.327,1.077,2.987,2.987,0,0,1,.435,1.556,3.769,3.769,0,0,1-.558,1.89,13.068,13.068,0,0,1-2.1,2.487l-1,.993-.844.826A10.1,10.1,0,0,0,96.354-3.3a3.569,3.569,0,0,0-.545,1.8h6.557ZM110.8-14.045a3.937,3.937,0,0,1,3.551,1.956,9.872,9.872,0,0,1,1.222,5.269,9.891,9.891,0,0,1-1.222,5.278A3.937,3.937,0,0,1,110.8.413a3.94,3.94,0,0,1-3.546-1.956,9.862,9.862,0,0,1-1.226-5.278,9.843,9.843,0,0,1,1.226-5.269A3.94,3.94,0,0,1,110.8-14.045ZM108.139-3.9l4.72-7.392a2.665,2.665,0,0,0-.971-1.1,2.235,2.235,0,0,0-1.085-.286,2.414,2.414,0,0,0-2.232,1.63,9.752,9.752,0,0,0-.765,4.135q0,.571.035,1.23A10.835,10.835,0,0,0,108.139-3.9Zm5.309-5.766-4.685,7.436a2.833,2.833,0,0,0,.87.962,1.969,1.969,0,0,0,1.1.321A2.458,2.458,0,0,0,113.1-2.817a11.681,11.681,0,0,0,.7-4.144A10.093,10.093,0,0,0,113.447-9.668Zm7.32-3.973a2.377,2.377,0,0,1,2,.949,3.943,3.943,0,0,1,.725,2.461,3.939,3.939,0,0,1-.725,2.465,2.381,2.381,0,0,1-2,.945,2.393,2.393,0,0,1-2-.945,3.922,3.922,0,0,1-.729-2.465,3.926,3.926,0,0,1,.729-2.461A2.389,2.389,0,0,1,120.767-13.641Zm0,1.1a1.082,1.082,0,0,0-1.037.681,3.755,3.755,0,0,0-.325,1.63,3.777,3.777,0,0,0,.325,1.639,1.082,1.082,0,0,0,1.037.681,1.085,1.085,0,0,0,1.033-.681,3.734,3.734,0,0,0,.33-1.639,3.712,3.712,0,0,0-.33-1.63A1.085,1.085,0,0,0,120.767-12.542ZM119.466.413h-1.441l9.325-14.458h1.45Zm6.557-7.233a2.468,2.468,0,0,1,1.986.914,3.547,3.547,0,0,1,.765,2.355,3.88,3.88,0,0,1-.809,2.606,2.491,2.491,0,0,1-1.96.945A2.434,2.434,0,0,1,124.1-.9a3.7,3.7,0,0,1-.782-2.509,3.885,3.885,0,0,1,.738-2.47A2.376,2.376,0,0,1,126.023-6.82Zm.026,1.09a1.088,1.088,0,0,0-1.028.668,3.808,3.808,0,0,0-.334,1.705,2.925,2.925,0,0,0,.4,1.709,1.161,1.161,0,0,0,.949.558,1.149,1.149,0,0,0,.976-.606,3.208,3.208,0,0,0,.4-1.749,3.668,3.668,0,0,0-.33-1.591A1.084,1.084,0,0,0,126.049-5.73Z" transform="translate(562 6300)" fill="#fff"/>
    <g id="Group_41400" data-name="Group 41400" transform="translate(655.75 6327.75) rotate(-90)">
      <rect id="Rectangle_33782" data-name="Rectangle 33782" width="3.431" height="6.861" transform="translate(52.028 459.472)" fill="#f77622"/>
      <rect id="Rectangle_33783" data-name="Rectangle 33783" width="3.431" height="10.292" transform="translate(10.861 456.042)" fill="#f77622"/>
      <rect id="Rectangle_33784" data-name="Rectangle 33784" width="3.431" height="3.431" transform="translate(55.458 456.042)" fill="#f77622"/>
      <rect id="Rectangle_33785" data-name="Rectangle 33785" width="3.431" height="3.431" transform="translate(58.889 452.611)" fill="#f77622"/>
      <rect id="Rectangle_33786" data-name="Rectangle 33786" width="3.431" height="3.431" transform="translate(7.431 452.611)" fill="#f77622"/>
      <rect id="Rectangle_33787" data-name="Rectangle 33787" width="3.431" height="6.861" transform="translate(24.583 421.736)" fill="#f77622"/>
      <rect id="Rectangle_33788" data-name="Rectangle 33788" width="3.431" height="3.431" transform="translate(14.292 425.167)" fill="#f77622"/>
      <rect id="Rectangle_33789" data-name="Rectangle 33789" width="3.431" height="6.861" transform="translate(38.306 418.306)" fill="#f77622"/>
      <rect id="Rectangle_33790" data-name="Rectangle 33790" width="3.431" height="6.861" transform="translate(52.028 414.875)" fill="#f77622"/>
      <path id="Path_53385" data-name="Path 53385" d="M30.722,387.43H27.292V384H17v3.43h3.431v3.431h6.861v3.431H20.431v3.43h6.861v6.861H20.431v3.43h6.861v13.722h3.431v30.875h3.431V418.305H30.722Z" transform="translate(31.597)" fill="#f77622"/>
      <rect id="Rectangle_33791" data-name="Rectangle 33791" width="3.431" height="37.736" transform="translate(4 414.875)" fill="#f77622"/>
      <path id="Path_53386" data-name="Path 53386" d="M5,392v3.431H15.292v6.861h3.431V392Z" transform="translate(2.431 19.445)" fill="#f77622"/>
      <path id="Path_53387" data-name="Path 53387" d="M9,391v3.431H19.292v6.861h3.431V391Z" transform="translate(12.153 17.014)" fill="#f77622"/>
      <path id="Path_53388" data-name="Path 53388" d="M23.292,402.153H13v3.43H23.292v6.861h3.431V385H23.292Z" transform="translate(21.875 2.431)" fill="#f77622"/>
      <path id="Path_53389" data-name="Path 53389" d="M49.6,463.9v-6.861h3.431v-3.43h3.431V450.18h3.431V419.305H56.458V405.583H49.6v-3.43h6.861v-6.861H49.6v-3.43h6.861V388.43H49.6V385H46.167v27.445H42.736v-6.861H32.444v10.292H29.014v-6.861H18.722v10.292H15.292v-6.861H5V450.18H8.431v3.431h3.431V463.9Zm3.431-51.458v6.861H49.6v-6.861Zm-13.722,3.43v6.861H35.875v-6.861Zm-13.722,3.431v6.861H22.153v-6.861Zm-10.292,6.861H11.861v-3.43h3.431Z" transform="translate(2.431 2.431)" fill="#feae34"/>
    </g>
  </g>
</svg>
