<svg xmlns="http://www.w3.org/2000/svg" width="560" height="60" viewBox="0 0 560 60">
  <g id="g5-c" transform="translate(-1140 -5911)">
    <g id="Path_54304" data-name="Path 54304" transform="translate(1140 5911)" fill="#fff">
      <path d="M 553.7891845703125 58 L 6.210928440093994 58 L 6.210928440093994 56.52785873413086 L 4.210928440093994 56.52785873413086 L 2 56.52785873413086 L 2 3.472357034683228 L 4.210928440093994 3.472357034683228 L 6.210928440093994 3.472357034683228 L 6.210928440093994 2 L 553.7891845703125 2 L 553.7891845703125 3.472357034683228 L 555.7891845703125 3.472357034683228 L 558 3.472357034683228 L 557.9999389648438 56.52785873413086 L 555.7891845703125 56.52785873413086 L 553.7891845703125 56.52785873413086 L 553.7891845703125 58 Z" stroke="none"/>
      <path d="M 551.7891845703125 56 L 551.7891845703125 54.52785873413086 L 555.7891845703125 54.52785873413086 L 555.9999389648438 54.52785873413086 L 556 5.472357273101807 L 555.7891845703125 5.472357273101807 L 551.7891845703125 5.472357273101807 L 551.7891845703125 4 L 8.210928916931152 4 L 8.210928916931152 5.472357273101807 L 4.210928440093994 5.472357273101807 L 4 5.472357273101807 L 4 54.52785873413086 L 4.210928440093994 54.52785873413086 L 8.210928916931152 54.52785873413086 L 8.210928916931152 56 L 551.7891845703125 56 M 555.7891845703125 60 L 4.210928440093994 60 L 4.210928440093994 58.52785873413086 L 5.684341886080801e-14 58.52785873413086 L 5.684341886080801e-14 1.472357153892517 L 4.210928440093994 1.472357153892517 L 4.210928440093994 3.552713678800501e-15 L 555.7891845703125 3.552713678800501e-15 L 555.7891845703125 1.472357153892517 L 560 1.472357153892517 L 559.9999389648438 58.52785873413086 L 555.7891845703125 58.52785873413086 L 555.7891845703125 59.9995002746582 L 555.7891845703125 60 Z" stroke="none" fill="#232323"/>
    </g>
    <path id="Path_54306" data-name="Path 54306" d="M9.563-.158A7.946,7.946,0,0,1,6.82.413,5.371,5.371,0,0,1,3.876-.444,5.6,5.6,0,0,1,1.784-2.993,9.383,9.383,0,0,1,1.037-6.82a9.4,9.4,0,0,1,.738-3.806,5.631,5.631,0,0,1,2.083-2.558,5.341,5.341,0,0,1,2.962-.87,7.946,7.946,0,0,1,2.742.571v1.617a5.587,5.587,0,0,0-2.812-.817,2.964,2.964,0,0,0-1.929.721A4.988,4.988,0,0,0,3.41-9.848,8.36,8.36,0,0,0,2.874-6.82a8.3,8.3,0,0,0,.554,3.067,5,5,0,0,0,1.415,2.1,2.956,2.956,0,0,0,1.907.7,5.62,5.62,0,0,0,2.813-.817ZM18,.413a1.379,1.379,0,0,1-1.011-.422,1.379,1.379,0,0,1-.422-1.011,1.368,1.368,0,0,1,.426-1.015A1.391,1.391,0,0,1,18-2.452,1.391,1.391,0,0,1,19-2.035a1.368,1.368,0,0,1,.426,1.015,1.379,1.379,0,0,1-.422,1.011A1.379,1.379,0,0,1,18,.413ZM28-18Zm3.375,0H32.5v4.5h2.25v-1.125H37V-15.75H34.75v-1.125H37V-18h1.125v1.125H41.5V-18h1.125v1.125h2.25v1.125h-2.25v1.125h2.25v3.375h-4.5v1.125H39.25V-11.25h1.125v-3.375H41.5V-15.75H38.125v1.125H39.25v3.375H38.125v1.125H37V-9h3.375v-1.125H41.5V-9h3.375v1.125h-4.5V-6.75H43.75v1.125H40.375V-4.5H43.75v1.125H40.375V-2.25h4.5v1.125H37V0H35.875V-7.875H34.75V-6.75H33.625V-7.875H34.75V-9h1.125v-1.125H37V-11.25H34.75v-1.125H32.5v1.125h1.125v1.125H32.5V0H31.375V-9H30.25v2.25H29.125v1.125H28V-6.75h1.125V-9H30.25v-2.25h1.125v-1.125H28V-13.5h3.375Zm4.5,4.5v1.125h2.25V-13.5Zm5.625,0v1.125h2.25V-13.5Zm-7.875,3.375H34.75V-9H33.625ZM37-7.875V-6.75h2.25V-7.875Zm0,2.25V-4.5h2.25V-5.625Zm0,2.25V-2.25h2.25V-3.375ZM47.8-18Zm2.25,0h1.125v1.125H50.05Zm1.125,1.125H52.3v1.125H51.175Zm4.5,0H59.05V-13.5H57.925v1.125H56.8v1.125H55.675v1.125H54.55V-11.25h1.125v-1.125H56.8V-13.5h1.125v-2.25h-2.25Zm4.5,0H61.3v1.125h1.125v-1.125H63.55v1.125H62.425v2.25H63.55v-1.125h1.125V-13.5H63.55v2.25H62.425v1.125H56.8V-11.25h5.625v-1.125H61.3v-2.25H60.175ZM47.8-14.625h6.75V-13.5H47.8Zm7.875,0H56.8V-13.5H55.675Zm-6.75,2.25h4.5v1.125h-4.5ZM63.55-11.25h1.125v1.125H63.55ZM48.925-10.125h4.5V-9h-4.5ZM56.8-9h5.625v5.625H61.3V-2.25h3.375v1.125H54.55V-2.25h3.375V-3.375H59.05V-2.25h1.125V-3.375H61.3V-4.5H57.925v1.125H56.8ZM48.925-7.875h4.5v6.75H52.3V-2.25H50.05v1.125H48.925Zm9,0v2.25H61.3v-2.25ZM50.05-6.75v3.375H52.3V-6.75ZM67.6-18Zm3.375,0H72.1v1.125H84.475v1.125h-4.5v1.125H83.35v3.375H72.1v-3.375h3.375V-15.75H72.1v1.125H70.975V0H69.85V-11.25H68.725v1.125H67.6V-11.25h1.125v-1.125H69.85v-2.25h1.125ZM76.6-15.75v1.125h2.25V-15.75ZM73.225-13.5v1.125h2.25V-13.5Zm3.375,0v1.125h2.25V-13.5Zm3.375,0v1.125h2.25V-13.5Zm-6.75,3.375h9V-2.25H81.1v1.125H79.975V-2.25h-4.5v1.125H74.35V0H73.225V-1.125H74.35V-2.25H73.225ZM74.35-9v1.125H81.1V-9Zm0,2.25v1.125H81.1V-6.75Zm0,2.25v1.125H81.1V-4.5ZM81.1-1.125h1.125V0H81.1ZM87.4-18Zm3.375,0H91.9v4.5h2.25v1.125H91.9v1.125h1.125v1.125H91.9V0H90.775V-9H89.65v2.25H88.525v1.125H87.4V-6.75h1.125V-9H89.65v-2.25h1.125v-1.125H87.4V-13.5h3.375ZM96.4-18h1.125v2.25h5.625v2.25h-1.125v1.125H100.9v1.125H99.775v1.125H98.65V-9H97.525v1.125h-2.25V-6.75h-2.25V-7.875h2.25V-9h2.25v-1.125H98.65V-11.25h1.125v-1.125H100.9V-13.5h1.125v-1.125H96.4V-13.5h1.125v1.125h-2.25v1.125H94.15v-1.125h1.125v-2.25H96.4Zm1.125,5.625H98.65v1.125H97.525Zm-4.5,2.25H94.15V-9H93.025Zm6.75,0h2.25V-9h-2.25ZM102.025-9h2.25v1.125h-2.25Zm-6.75,2.25h7.875V0h-1.125V-1.125H96.4V0H95.275ZM96.4-5.625V-2.25h5.625V-5.625Zm16.2-8.42a3.937,3.937,0,0,1,3.551,1.956,9.872,9.872,0,0,1,1.222,5.269,9.891,9.891,0,0,1-1.222,5.278A3.937,3.937,0,0,1,112.6.413a3.94,3.94,0,0,1-3.546-1.956,9.862,9.862,0,0,1-1.226-5.278,9.843,9.843,0,0,1,1.226-5.269A3.94,3.94,0,0,1,112.6-14.045ZM109.933-3.9l4.72-7.392a2.665,2.665,0,0,0-.971-1.1,2.235,2.235,0,0,0-1.085-.286,2.414,2.414,0,0,0-2.232,1.63,9.752,9.752,0,0,0-.765,4.135q0,.571.035,1.23A10.835,10.835,0,0,0,109.933-3.9Zm5.309-5.766-4.685,7.436a2.833,2.833,0,0,0,.87.962,1.969,1.969,0,0,0,1.1.321A2.458,2.458,0,0,0,114.9-2.817a11.681,11.681,0,0,0,.7-4.144A10.093,10.093,0,0,0,115.242-9.668ZM125.2.413a1.379,1.379,0,0,1-1.011-.422,1.379,1.379,0,0,1-.422-1.011,1.368,1.368,0,0,1,.426-1.015,1.391,1.391,0,0,1,1.006-.417,1.391,1.391,0,0,1,1.006.417,1.368,1.368,0,0,1,.426,1.015,1.379,1.379,0,0,1-.422,1.011A1.379,1.379,0,0,1,125.2.413ZM135.207,0V-1.222a7.694,7.694,0,0,1,.325-2.408A9.006,9.006,0,0,1,136.675-5.8q.817-1.2,1.31-1.846l1.424-1.881.51-.659a8.335,8.335,0,0,0,1-1.811h-7.075v-1.644H142.5v1.09a2.8,2.8,0,0,1-.259,1.2,20.524,20.524,0,0,1-1.569,2.364q-.316.431-.624.861l-.914,1.283q-.879,1.239-1.3,1.978a6.492,6.492,0,0,0-.637,1.538,8.331,8.331,0,0,0-.215,2.1V0Zm9.8-18Zm2.25,2.25H159.63v1.125H147.255Zm-2.25,4.5H161.88v1.125h-5.625V-2.25H155.13v-7.875h-3.375v4.5H150.63v2.25h-1.125V-2.25H148.38v1.125h-1.125V0h-2.25V-1.125h2.25V-2.25h1.125V-3.375h1.125v-2.25h1.125v-4.5h-5.625Zm15.75,5.625h1.125v4.5h-5.625V-2.25h4.5ZM164.805-18Zm7.875,0h1.125v5.625h6.75v1.125h-6.75v7.875h7.875V-2.25H165.93V-3.375h6.75Zm11.925,0Zm0,2.25H201.48v1.125h-9V0h-1.125V-14.625h-6.75Zm9,4.5h1.125v1.125h-1.125Zm1.125,1.125h1.125V-9H194.73ZM195.855-9h2.25v2.25H196.98V-7.875h-1.125Zm17.532,1.278a1.089,1.089,0,0,0-.846.306,1.044,1.044,0,0,0-.324.81,1.071,1.071,0,0,0,.306.792,1.047,1.047,0,0,0,.774.324.963.963,0,0,0,.4-.072,2.123,2.123,0,0,1-.378,1.206,2.6,2.6,0,0,1-1.152.792v.882a3.472,3.472,0,0,0,1.854-1.17,3.373,3.373,0,0,0,.7-2.106,2.091,2.091,0,0,0-.36-1.26A1.149,1.149,0,0,0,213.387-7.722ZM224.205-18Zm11.25,0h1.125v1.125h-1.125Zm-11.25,1.125h1.125v1.125h-1.125Zm4.5,0h4.5v5.625H229.83V-9h3.375v5.625h-4.5V-6.75H227.58v1.125h-1.125V-2.25H225.33v1.125h-1.125V-2.25h1.125v-7.875h-1.125V-11.25h2.25v4.5h1.125V-9h1.125Zm7.875,0h1.125v1.125h2.25v1.125H234.33V-15.75h2.25ZM225.33-15.75h1.125v2.25H225.33Zm4.5,0v3.375h2.25V-15.75Zm4.5,2.25h1.125v1.125H234.33Zm4.5,0h1.125v1.125H238.83v1.125h2.25v1.125h-3.375v2.25h2.25V-6.75h-2.25v4.5h3.375v1.125H226.455V-2.25H236.58v-4.5h-2.25V-7.875h2.25v-2.25h-2.25V-11.25h1.125v-1.125h1.125v1.125h1.125v-1.125h1.125Zm-9,5.625V-4.5h2.25V-7.875ZM244.005-18Zm5.625,0h1.125v2.25h5.625v2.25h-1.125v1.125h3.375V-6.75h-1.125V-7.875h-2.25V-2.25H254.13V-7.875h-1.125V-6.75H251.88V-4.5h-1.125v1.125H249.63V-2.25h-1.125v1.125h-2.25V0h-2.25V-1.125h2.25V-2.25h2.25V-3.375h1.125V-4.5h1.125V-6.75h1.125V-7.875h-3.375V-6.75H247.38v-4.5h-1.125v1.125H245.13V-11.25h1.125v-1.125h1.125V-13.5h1.125v-2.25h1.125Zm0,3.375V-13.5h-1.125v1.125h5.625V-13.5h1.125v-1.125Zm-1.125,3.375V-9h3.375v-2.25Zm4.5,0V-9h4.5v-2.25Zm5.625,5.625h1.125v4.5h-4.5V-2.25h3.375ZM263.805-18Zm7.875,0h1.125v5.625h6.75v1.125h-6.75v1.125H271.68v2.25h-1.125v2.25H269.43v2.25h-1.125V-2.25H267.18v1.125h-1.125V0H264.93V-1.125h1.125V-2.25h1.125V-3.375h1.125v-2.25h1.125v-2.25h1.125v-2.25h1.125V-11.25h-6.75v-1.125h6.75Zm1.125,7.875h1.125v2.25h-1.125Zm1.125,2.25h1.125v2.25H273.93Zm-3.375,2.25h1.125V-4.5h-1.125Zm4.5,0h1.125V-4.5h-1.125ZM271.68-4.5h1.125v2.25H271.68Zm4.5,0h1.125v1.125H276.18Zm1.125,1.125h3.375V-2.25h-1.125v1.125H278.43V-2.25h-1.125ZM283.605-18Zm3.375,0h1.125v1.125H300.48v1.125h-4.5v1.125h3.375v3.375h-11.25v-3.375h3.375V-15.75h-3.375v1.125H286.98V0h-1.125V-11.25H284.73v1.125h-1.125V-11.25h1.125v-1.125h1.125v-2.25h1.125Zm5.625,2.25v1.125h2.25V-15.75ZM289.23-13.5v1.125h2.25V-13.5Zm3.375,0v1.125h2.25V-13.5Zm3.375,0v1.125h2.25V-13.5Zm-6.75,3.375h9V-2.25h-1.125v1.125H295.98V-2.25h-4.5v1.125h-1.125V0H289.23V-1.125h1.125V-2.25H289.23ZM290.355-9v1.125h6.75V-9Zm0,2.25v1.125h6.75V-6.75Zm0,2.25v1.125h6.75V-4.5Zm6.75,3.375h1.125V0h-1.125ZM303.405-18Zm4.5,0h1.125v3.375h-1.125V-13.5h4.5V-9H311.28v2.25h-1.125v1.125H309.03V-4.5h-1.125v1.125H306.78V-2.25h-1.125v1.125H304.53V0h-1.125V-1.125h1.125V-2.25h1.125V-3.375h1.125V-4.5h1.125V-5.625h1.125V-6.75h1.125V-9h1.125v-3.375h-4.5V-9h-1.125v1.125H304.53V-6.75h-1.125V-7.875h1.125V-9h1.125v-3.375h1.125v-2.25h1.125Zm5.625,0h1.125v5.625h1.125v1.125h-1.125V0H313.53Zm2.25,6.75h1.125v1.125H315.78Zm1.125,1.125h1.125V-9h1.125v2.25H318.03V-7.875h-1.125ZM306.78-9h1.125v1.125H306.78Zm1.125,1.125h1.125V-6.75h-1.125ZM323.205-18Zm9,0h1.125v3.375h5.625V-13.5H333.33V-9h-1.125v-4.5H324.33v-1.125h7.875Zm3.375,0h1.125v1.125H335.58Zm1.125,1.125h1.125v1.125h-1.125Zm-11.25,5.625h5.625v5.625h-5.625Zm11.25,0h1.125v3.375h-1.125v2.25H335.58v2.25h-1.125V-2.25H333.33v1.125h-1.125V0h-2.25V-1.125h2.25V-2.25h1.125V-3.375h1.125v-2.25h1.125v-2.25h1.125ZM326.58-10.125V-6.75h3.375v-3.375ZM333.33-9h1.125v3.375H333.33Zm4.5,3.375h1.125V0H337.83V-1.125h-1.125V-2.25h1.125Zm-9,1.125h3.375v1.125H328.83V-2.25h-4.5V-3.375h4.5Zm6.75,1.125h1.125V-2.25H335.58ZM343.005-18Zm3.375,0h1.125v4.5h1.125v1.125h-1.125v4.5h4.5v-4.5h-2.25v1.125H348.63v-1.125h1.125V-13.5h2.25V-18h1.125v4.5h4.5v5.625h2.25V-6.75h-6.75v1.125h-1.125v2.25H350.88V-2.25h-1.125v1.125H348.63V0h-2.25Zm-2.25,4.5h1.125v3.375H344.13V-9h-1.125v-1.125h1.125Zm9,1.125v4.5h3.375v-4.5ZM347.505-6.75v5.625h1.125V-2.25h1.125V-3.375h1.125v-2.25h1.125V-6.75Zm5.625,1.125h1.125V-4.5H353.13ZM354.255-4.5h1.125v1.125h-1.125Zm1.125,1.125h1.125V-2.25H355.38Zm1.125,1.125h3.375v1.125h-1.125V0H357.63V-1.125h-1.125Zm6.3-15.75Zm14.625,0h1.125V-1.125H377.43V0h-1.125V-1.125h1.125Zm-13.5,1.125h9v1.125h-4.5v1.125h-1.125V-13.5H366.18v1.125h-1.125v1.125h5.625v-1.125h1.125v1.125h1.125V-9h-1.125v-1.125H368.43V-6.75h3.375v1.125H368.43v2.25h4.5V-2.25h-4.5v1.125h-3.375V0H363.93V-1.125h-1.125V-2.25h4.5V-5.625H363.93V-6.75h3.375v-3.375h-2.25V-9H363.93v-1.125h-1.125V-11.25h1.125v-1.125h1.125V-13.5h1.125v-1.125h1.125V-15.75H363.93Zm10.125,2.25h1.125V-4.5h-1.125Zm-4.5,1.125h1.125v1.125h-1.125ZM375.18-2.25h1.125v1.125H375.18ZM382.605-18Zm2.25,0h1.125v3.375h3.375V-18h1.125v3.375h1.125V-13.5H390.48v6.75h2.25V-16.875h5.625v15.75H397.23V0h-1.125V-1.125h1.125V-6.75h-3.375v3.375H392.73V-2.25h-1.125v1.125H390.48V0h-1.125V-1.125h1.125V-2.25h1.125V-3.375h1.125v-2.25H382.605V-6.75h2.25V-13.5H383.73v-1.125h1.125Zm9,2.25v3.375h3.375V-15.75ZM385.98-13.5v1.125h3.375V-13.5Zm0,2.25v1.125h3.375V-11.25Zm7.875,0v3.375h3.375V-11.25ZM385.98-9v2.25h3.375V-9Zm-1.125,4.5h1.125v2.25h-1.125v1.125H383.73V0h-1.125V-1.125h1.125V-2.25h1.125Zm3.375,0h1.125v1.125H388.23Zm1.125,1.125h1.125V-2.25h-1.125ZM394.98-2.25h1.125v1.125H394.98ZM402.405-18Zm3.375,0h1.125v2.25H405.78v1.125h4.5v3.375h1.125V-13.5h1.125V-18h1.125v3.375h4.5V-2.25H417.03v1.125h-1.125V0H414.78V-1.125h1.125V-2.25h1.125V-13.5h-4.5v2.25h-1.125v1.125H410.28v9h-1.125V-2.25h-4.5v1.125H403.53v-13.5h1.125V-15.75h1.125Zm-1.125,4.5V-9h4.5v-4.5Zm7.875,3.375h1.125V-9H412.53ZM413.655-9h1.125v2.25h-1.125Zm-9,1.125v4.5h4.5v-4.5Zm9,5.625h1.125v1.125h-1.125ZM422.205-18Zm3.375,0h1.125v4.5h2.25v-1.125h2.25V-15.75h-2.25v-1.125h2.25V-18h1.125v1.125h3.375V-18h1.125v1.125h2.25v1.125h-2.25v1.125h2.25v3.375h-4.5v1.125h-1.125V-11.25h1.125v-3.375h1.125V-15.75H432.33v1.125h1.125v3.375H432.33v1.125h-1.125V-9h3.375v-1.125h1.125V-9h3.375v1.125h-4.5V-6.75h3.375v1.125H434.58V-4.5h3.375v1.125H434.58V-2.25h4.5v1.125h-7.875V0H430.08V-7.875h-1.125V-6.75H427.83V-7.875h1.125V-9h1.125v-1.125h1.125V-11.25h-2.25v-1.125h-2.25v1.125h1.125v1.125h-1.125V0H425.58V-9h-1.125v2.25H423.33v1.125h-1.125V-6.75h1.125V-9h1.125v-2.25h1.125v-1.125h-3.375V-13.5h3.375Zm4.5,4.5v1.125h2.25V-13.5Zm5.625,0v1.125h2.25V-13.5Zm-7.875,3.375h1.125V-9H427.83Zm3.375,2.25V-6.75h2.25V-7.875Zm0,2.25V-4.5h2.25V-5.625Zm0,2.25V-2.25h2.25V-3.375ZM442.005-18Zm2.25,0h1.125v1.125h-1.125Zm1.125,1.125h1.125v1.125H445.38Zm4.5,0h3.375V-13.5H452.13v1.125h-1.125v1.125H449.88v1.125h-1.125V-11.25h1.125v-1.125h1.125V-13.5h1.125v-2.25h-2.25Zm4.5,0h1.125v1.125h1.125v-1.125h1.125v1.125H456.63v2.25h1.125v-1.125h1.125V-13.5h-1.125v2.25H456.63v1.125h-5.625V-11.25h5.625v-1.125h-1.125v-2.25H454.38Zm-12.375,2.25h6.75V-13.5h-6.75Zm7.875,0h1.125V-13.5H449.88Zm-6.75,2.25h4.5v1.125h-4.5Zm14.625,1.125h1.125v1.125h-1.125ZM443.13-10.125h4.5V-9h-4.5ZM451.005-9h5.625v5.625h-1.125V-2.25h3.375v1.125H448.755V-2.25h3.375V-3.375h1.125V-2.25h1.125V-3.375h1.125V-4.5H452.13v1.125h-1.125ZM443.13-7.875h4.5v6.75h-1.125V-2.25h-2.25v1.125H443.13Zm9,0v2.25h3.375v-2.25ZM444.255-6.75v3.375h2.25V-6.75Z" transform="translate(1158 5948)" fill="#15172a"/>
  </g>
</svg>
