<svg xmlns="http://www.w3.org/2000/svg" width="578.083" height="61.75" viewBox="0 0 578.083 61.75">
  <g id="g5-d1" transform="translate(-544 -6448)">
    <g id="Path_54313" data-name="Path 54313" transform="translate(544 6449)" fill="#4e332d">
      <path d="M 553.7891845703125 58 L 6.210928440093994 58 L 6.210928440093994 56.52785873413086 L 4.210928440093994 56.52785873413086 L 2 56.52785873413086 L 2 3.472357034683228 L 4.210928440093994 3.472357034683228 L 6.210928440093994 3.472357034683228 L 6.210928440093994 2 L 553.7891845703125 2 L 553.7891845703125 3.472357034683228 L 555.7891845703125 3.472357034683228 L 558 3.472357034683228 L 557.9999389648438 56.52785873413086 L 555.7891845703125 56.52785873413086 L 553.7891845703125 56.52785873413086 L 553.7891845703125 58 Z" stroke="none"/>
      <path d="M 551.7891845703125 56 L 551.7891845703125 54.52785873413086 L 555.7891845703125 54.52785873413086 L 555.9999389648438 54.52785873413086 L 556 5.472357273101807 L 555.7891845703125 5.472357273101807 L 551.7891845703125 5.472357273101807 L 551.7891845703125 4 L 8.210928916931152 4 L 8.210928916931152 5.472357273101807 L 4.210928440093994 5.472357273101807 L 4 5.472357273101807 L 4 54.52785873413086 L 4.210928440093994 54.52785873413086 L 8.210928916931152 54.52785873413086 L 8.210928916931152 56 L 551.7891845703125 56 M 555.7891845703125 60 L 4.210928440093994 60 L 4.210928440093994 58.52785873413086 L 5.684341886080801e-14 58.52785873413086 L 5.684341886080801e-14 1.472357153892517 L 4.210928440093994 1.472357153892517 L 4.210928440093994 3.552713678800501e-15 L 555.7891845703125 3.552713678800501e-15 L 555.7891845703125 1.472357153892517 L 560 1.472357153892517 L 559.9999389648438 58.52785873413086 L 555.7891845703125 58.52785873413086 L 555.7891845703125 59.9995002746582 L 555.7891845703125 60 Z" stroke="none" fill="#232323"/>
    </g>
    <path id="Path_54319" data-name="Path 54319" d="M1.362,0V-13.641H4.6a5.722,5.722,0,0,1,3.318.778,4.657,4.657,0,0,1,1.63,2.351,11.411,11.411,0,0,1,.545,3.727A10.217,10.217,0,0,1,9.514-3.2,5.279,5.279,0,0,1,7.884-.831,5.3,5.3,0,0,1,4.6,0ZM3.138-1.5H4.324A4.035,4.035,0,0,0,6.9-2.145a3.518,3.518,0,0,0,1.1-1.78,11.786,11.786,0,0,0,.33-3.142,9.145,9.145,0,0,0-.387-3.015A3.558,3.558,0,0,0,6.829-11.7a3.861,3.861,0,0,0-2.364-.567H3.138ZM18,.413a1.379,1.379,0,0,1-1.011-.422,1.379,1.379,0,0,1-.422-1.011,1.368,1.368,0,0,1,.426-1.015A1.391,1.391,0,0,1,18-2.452,1.391,1.391,0,0,1,19-2.035a1.368,1.368,0,0,1,.426,1.015,1.379,1.379,0,0,1-.422,1.011A1.379,1.379,0,0,1,18,.413ZM28-18Zm5.625,1.125H34.75v1.125H33.625Zm7.875,0h1.125V-9H41.5v3.375H40.375V-4.5H41.5v1.125H39.25V-2.25H38.125v1.125h-2.25V0h-2.25V-1.125h2.25V-2.25h2.25V-3.375H39.25v-2.25h1.125V-9H41.5ZM30.25-15.75h1.125V-3.375H32.5V-4.5h1.125V-5.625H34.75V-6.75h1.125V-7.875H37V-6.75H35.875v1.125H34.75V-4.5H33.625v1.125H32.5V-2.25H31.375v1.125H30.25Zm4.5,0h1.125v1.125H34.75Zm1.125,1.125H37v2.25H35.875ZM41.5-3.375h1.125V-2.25H41.5ZM42.625-2.25H43.75V0H42.625ZM47.8-18Zm7.875,0H56.8v5.625h6.75v1.125H56.8v7.875h7.875V-2.25H48.925V-3.375h6.75ZM67.6-18Zm2.25,0h1.125v2.25h4.5v1.125h-4.5v3.375h2.25v-1.125h2.25v1.125h-2.25v1.125h-2.25V-9H69.85Zm6.75,0h1.125v3.375h2.25V-15.75h2.25v-1.125H83.35v1.125H82.225v1.125h-2.25V-13.5h-2.25v2.25H76.6v1.125H75.475V-9H81.1V0H79.975V-1.125H72.1V0H70.975V-9H74.35v-1.125h1.125V-11.25H76.6Zm5.625,4.5H83.35v3.375H77.725V-11.25h4.5ZM72.1-7.875v2.25h7.875v-2.25Zm0,3.375v2.25h7.875V-4.5ZM87.4-18Zm4.5,0h7.875v7.875H91.9Zm1.125,1.125v2.25H98.65v-2.25Zm0,3.375v2.25H98.65V-13.5ZM88.525-9H103.15v1.125H96.4v2.25h5.625V-4.5H96.4v3.375H94.15V-2.25h1.125V-7.875h-6.75ZM91.9-6.75h1.125v3.375H91.9V-2.25H90.775v1.125H89.65V0H88.525V-1.125H89.65V-2.25h1.125V-3.375H91.9Zm1.125,3.375H94.15V-2.25H93.025ZM96.4-1.125h6.75V0H96.4Z" transform="translate(562 6486)" fill="#fff"/>
    <g id="Group_41402" data-name="Group 41402" transform="translate(655.75 6513.75) rotate(-90)">
      <rect id="Rectangle_33782" data-name="Rectangle 33782" width="3.431" height="6.861" transform="translate(52.028 459.472)" fill="#f77622"/>
      <rect id="Rectangle_33783" data-name="Rectangle 33783" width="3.431" height="10.292" transform="translate(10.861 456.042)" fill="#f77622"/>
      <rect id="Rectangle_33784" data-name="Rectangle 33784" width="3.431" height="3.431" transform="translate(55.458 456.042)" fill="#f77622"/>
      <rect id="Rectangle_33785" data-name="Rectangle 33785" width="3.431" height="3.431" transform="translate(58.889 452.611)" fill="#f77622"/>
      <rect id="Rectangle_33786" data-name="Rectangle 33786" width="3.431" height="3.431" transform="translate(7.431 452.611)" fill="#f77622"/>
      <rect id="Rectangle_33787" data-name="Rectangle 33787" width="3.431" height="6.861" transform="translate(24.583 421.736)" fill="#f77622"/>
      <rect id="Rectangle_33788" data-name="Rectangle 33788" width="3.431" height="3.431" transform="translate(14.292 425.167)" fill="#f77622"/>
      <rect id="Rectangle_33789" data-name="Rectangle 33789" width="3.431" height="6.861" transform="translate(38.306 418.306)" fill="#f77622"/>
      <rect id="Rectangle_33790" data-name="Rectangle 33790" width="3.431" height="6.861" transform="translate(52.028 414.875)" fill="#f77622"/>
      <path id="Path_53385" data-name="Path 53385" d="M30.722,387.43H27.292V384H17v3.43h3.431v3.431h6.861v3.431H20.431v3.43h6.861v6.861H20.431v3.43h6.861v13.722h3.431v30.875h3.431V418.305H30.722Z" transform="translate(31.597)" fill="#f77622"/>
      <rect id="Rectangle_33791" data-name="Rectangle 33791" width="3.431" height="37.736" transform="translate(4 414.875)" fill="#f77622"/>
      <path id="Path_53386" data-name="Path 53386" d="M5,392v3.431H15.292v6.861h3.431V392Z" transform="translate(2.431 19.445)" fill="#f77622"/>
      <path id="Path_53387" data-name="Path 53387" d="M9,391v3.431H19.292v6.861h3.431V391Z" transform="translate(12.153 17.014)" fill="#f77622"/>
      <path id="Path_53388" data-name="Path 53388" d="M23.292,402.153H13v3.43H23.292v6.861h3.431V385H23.292Z" transform="translate(21.875 2.431)" fill="#f77622"/>
      <path id="Path_53389" data-name="Path 53389" d="M49.6,463.9v-6.861h3.431v-3.43h3.431V450.18h3.431V419.305H56.458V405.583H49.6v-3.43h6.861v-6.861H49.6v-3.43h6.861V388.43H49.6V385H46.167v27.445H42.736v-6.861H32.444v10.292H29.014v-6.861H18.722v10.292H15.292v-6.861H5V450.18H8.431v3.431h3.431V463.9Zm3.431-51.458v6.861H49.6v-6.861Zm-13.722,3.43v6.861H35.875v-6.861Zm-13.722,3.431v6.861H22.153v-6.861Zm-10.292,6.861H11.861v-3.43h3.431Z" transform="translate(2.431 2.431)" fill="#feae34"/>
    </g>
  </g>
</svg>
