<svg xmlns="http://www.w3.org/2000/svg" width="691.611" height="294.246" viewBox="0 0 691.611 294.246">
  <g id="g5-img" transform="translate(695 -6075)">
    <g id="Exclusion_16" data-name="Exclusion 16" transform="translate(-695 6075.001)" fill="#232323">
      <path d="M 646 203.9978637695312 L 6.872583389282227 203.9978637695312 L 6.872583389282227 200.9421081542969 L 6.872583389282227 198.9421081542969 L 4.872583389282227 198.9421081542969 L 2 198.9421081542969 L 2 7.055864334106445 L 4.872583389282227 7.055864334106445 L 6.872583389282227 7.055864334106445 L 6.872583389282227 5.055864334106445 L 6.872583389282227 2.001197814941406 L 641.99951171875 2.001197814941406 L 641.99951171875 4.627864360809326 L 641.99951171875 6.627864360809326 L 643.99951171875 6.627864360809326 L 646 6.627864360809326 L 646 203.9978637695312 Z" stroke="none"/>
      <path d="M 644 201.9978637695312 L 644 8.627864837646484 L 643.99951171875 8.627864837646484 L 639.99951171875 8.627864837646484 L 639.99951171875 4.627864360809326 L 639.99951171875 4.001197814941406 L 8.872583389282227 4.001197814941406 L 8.872583389282227 5.055864334106445 L 8.872583389282227 9.055864334106445 L 4.872583389282227 9.055864334106445 L 4 9.055864334106445 L 4 196.9421081542969 L 4.872583389282227 196.9421081542969 L 8.872583389282227 196.9421081542969 L 8.872583389282227 200.9421081542969 L 8.872583389282227 201.9978637695312 L 644 201.9978637695312 M 648 205.9990234375 L 648 205.9978637695312 L 4.872583389282227 205.9978637695312 L 4.872583389282227 200.9421081542969 L 5.684341886080801e-14 200.9421081542969 L 5.684341886080801e-14 5.055864334106445 L 4.872583389282227 5.055864334106445 L 4.872583389282227 0.001197733567096293 L 643.99951171875 0.001197733567096293 L 643.99951171875 4.627864360809326 L 648 4.627864360809326 L 648 205.9978637695312 L 648 205.9990234375 Z M 648 0.002364400308579206 L 643.99951171875 0.001197733567096293 L 648 -0.00096893310546875 L 648 0.0001977335632545874 L 648 0.002364400308579206 Z" stroke="none" fill="#fff"/>
    </g>
    <path id="Path_54381" data-name="Path 54381" d="M0-24Zm4.5,0H6v6H9v-1.5h3V-21H9v-1.5h3V-24h1.5v1.5H18V-24h1.5v1.5h3V-21h-3v1.5h3V-15h-6v1.5H15V-15h1.5v-4.5H18V-21H13.5v1.5H15V-15H13.5v1.5H12V-12h4.5v-1.5H18V-12h4.5v1.5h-6V-9H21v1.5H16.5V-6H21v1.5H16.5V-3h6v1.5H12V0H10.5V-10.5H9V-9H7.5v-1.5H9V-12h1.5v-1.5H12V-15H9v-1.5H6V-15H7.5v1.5H6V0H4.5V-12H3v3H1.5v1.5H0V-9H1.5v-3H3v-3H4.5v-1.5H0V-18H4.5Zm6,6v1.5h3V-18ZM18-18v1.5h3V-18ZM7.5-13.5H9V-12H7.5Zm4.5,3V-9h3v-1.5Zm0,3V-6h3V-7.5Zm0,3V-3h3V-4.5ZM26.136-24Zm3,0h1.5v1.5h-1.5Zm1.5,1.5h1.5V-21h-1.5Zm6,0h4.5V-18h-1.5v1.5h-1.5V-15h-1.5v1.5h-1.5V-15h1.5v-1.5h1.5V-18h1.5v-3h-3Zm6,0h1.5V-21h1.5v-1.5h1.5V-21h-1.5v3h1.5v-1.5h1.5V-18h-1.5v3h-1.5v1.5h-7.5V-15h7.5v-1.5h-1.5v-3h-1.5Zm-16.5,3h9V-18h-9Zm10.5,0h1.5V-18h-1.5Zm-9,3h6V-15h-6Zm19.5,1.5h1.5v1.5h-1.5Zm-19.5,1.5h6V-12h-6Zm10.5,1.5h7.5v7.5h-1.5V-3h4.5v1.5h-13.5V-3h4.5V-4.5h1.5V-3h1.5V-4.5h1.5V-6h-4.5v1.5h-1.5Zm-10.5,1.5h6v9h-1.5V-3h-3v1.5h-1.5Zm12,0v3h4.5v-3ZM29.136-9v4.5h3V-9ZM52.272-24Zm10.5,0h1.5V-1.5h-1.5V0h-1.5V-1.5h1.5Zm-4.5,7.5h1.5v3h-1.5v3h-1.5V-9h-1.5v1.5h-1.5V-9h1.5v-1.5h1.5v-3h1.5Zm9,0h1.5V-15h-1.5Zm1.5,1.5h1.5v1.5h-1.5Zm1.5,1.5h1.5v3h-1.5Zm1.5,3h1.5v3h-1.5Zm-12,7.5h1.5v1.5h-1.5ZM78.408-24Zm6,0h1.5v3h4.5v-1.5h1.5V-21h-1.5v3h-1.5v1.5h1.5V-15h-4.5v1.5h4.5V-15h1.5v-4.5h1.5V-24h1.5v4.5h-1.5V-18h7.5v1.5h-3v6h-1.5v3h-1.5V-6h-1.5v1.5h-1.5V-3h-1.5v1.5h-1.5V0h-1.5V-1.5h1.5V-3h1.5V-4.5h1.5V-6h1.5V-7.5h1.5v-3h1.5v-6h-3v9h-1.5v-6h-1.5V-12h-1.5v1.5h-1.5V-9h-1.5v1.5h3V-6h-3v4.5h-1.5V0h-1.5V-1.5h1.5v-3h-4.5V-6h4.5v-4.5h3V-12h-4.5v1.5h-1.5V-9h-1.5v1.5h-1.5V-9h1.5v-1.5h1.5V-12h-1.5v-1.5h4.5V-15h-6v-1.5h6v-3h-4.5V-21h4.5Zm1.5,4.5v3h1.5V-18h1.5v-1.5Zm9,13.5h1.5v1.5h-1.5Zm1.5,1.5h1.5V-3h-1.5Zm-15,1.5h1.5v1.5h-1.5Zm16.5,0h3v1.5h-1.5V0h-1.5Zm6.636-21Zm9,0h1.5v1.5h-1.5Zm1.5,1.5h1.5V-21h10.5v3h-1.5v1.5h-1.5V-15h-10.5v1.5h-1.5V-12h7.5v-1.5h1.5V-12h1.5v3h-1.5v-1.5h-4.5v3h6V-6h-6v3h9v1.5h-19.5V-3h9V-6h-6V-7.5h6v-3h-6V-12h1.5v-1.5h1.5V-15h-4.5v-1.5h16.5V-18h1.5v-1.5h-18V-18h-1.5v1.5h-1.5V-18h1.5v-3h9ZM137.875.551a1.838,1.838,0,0,1-1.348-.562,1.838,1.838,0,0,1-.562-1.348,1.823,1.823,0,0,1,.568-1.354,1.854,1.854,0,0,1,1.342-.557,1.854,1.854,0,0,1,1.342.557,1.823,1.823,0,0,1,.568,1.354,1.838,1.838,0,0,1-.562,1.348A1.838,1.838,0,0,1,137.875.551Zm0-10.184a1.838,1.838,0,0,1-1.348-.562,1.838,1.838,0,0,1-.562-1.348,1.823,1.823,0,0,1,.568-1.354,1.854,1.854,0,0,1,1.342-.557,1.854,1.854,0,0,1,1.342.557,1.823,1.823,0,0,1,.568,1.354,1.838,1.838,0,0,1-.562,1.348A1.838,1.838,0,0,1,137.875-9.633Z" transform="translate(-672 6131)" fill="#ffda2d"/>
    <path id="Path_54380" data-name="Path 54380" d="M0-18Zm3.375,0H13.5v5.625H3.375ZM4.5-16.875v1.125h7.875v-1.125Zm0,2.25V-13.5h7.875v-1.125ZM0-11.25H16.875v1.125h-9V-9h6.75v2.25H13.5V-4.5H12.375v1.125H11.25V-2.25H10.125v1.125H9V0H6.75V-3.375H3.375V-2.25H0V-3.375H2.25v-6.75H0Zm3.375,1.125V-9H6.75v-1.125Zm0,2.25V-6.75H6.75V-7.875Zm4.5,0v6.75H9V-2.25h1.125V-3.375H11.25V-4.5h1.125V-6.75H13.5V-7.875H10.125v2.25H9v-2.25Zm-4.5,2.25V-4.5H6.75V-5.625Zm6.75,0H11.25V-4.5H10.125Zm2.25,2.25H13.5V-2.25H12.375ZM13.5-2.25h3.375v1.125H15.75V0H14.625V-1.125H13.5ZM19.6-18Zm1.125,1.125H35.352V0H34.227V-1.125H21.852V0H20.727Zm1.125,1.125v13.5h5.625V-9H26.352v2.25H25.227v1.125H24.1V-4.5H22.977V-5.625H24.1V-6.75h1.125V-9h1.125v-1.125h1.125V-11.25h-4.5v-1.125h4.5V-15.75Zm6.75,0v3.375h4.5v1.125H28.6v1.125h1.125V-9H28.6v6.75h5.625v-13.5ZM29.727-9h1.125v1.125H29.727Zm1.125,1.125h1.125V-6.75H30.852ZM31.977-6.75H33.1V-4.5H31.977ZM39.2-18Zm2.25,0h1.125v4.5h2.25v1.125h-2.25V-9H43.7v-2.25h2.25v-4.5H48.2v-1.125H44.829V-18H54.954v1.125H49.329v1.125h4.5v4.5h2.25V-9H54.954v1.125H53.829V-9h1.125v-1.125h-4.5V-9H49.329v-1.125h-4.5V-9H43.7v1.125H42.579v6.75H41.454V0H40.329V-1.125h1.125V-6.75H39.2V-7.875h2.25v-4.5H39.2V-13.5h2.25Zm5.625,3.375V-13.5H52.7v-1.125Zm0,2.25v1.125H52.7v-1.125ZM44.829-9h1.125v1.125H44.829V-6.75H43.7V-7.875h1.125Zm2.25,0H48.2v1.125h3.375V-9H52.7v2.25H48.2v1.125h5.625V-4.5H52.7v1.125H51.579V-2.25h-2.25v1.125h-2.25V0h-2.25V-1.125h2.25V-2.25h2.25V-3.375h2.25V-4.5h-2.25v1.125H48.2V-4.5H47.079v1.125H45.954V-2.25H44.829V-3.375h1.125V-4.5h1.125Zm7.875,1.125h1.125V-6.75H54.954ZM39.2-2.25h1.125v1.125H39.2Zm12.375,0h2.25v1.125h-2.25Zm2.25,1.125h2.25V0h-2.25ZM58.806-18Zm3.375,0h1.125v1.125H62.181Zm1.125,1.125h1.125v1.125h3.375v1.125H59.931V-15.75h3.375Zm9,0h2.25v1.125h-2.25v1.125h-2.25v3.375h5.625v1.125h-2.25V0H72.306V-10.125h-2.25V-4.5H68.931v2.25H67.806v1.125H66.681V0H65.556V-1.125h1.125V-2.25h1.125V-3.375H66.681V-4.5h2.25V-15.75h3.375ZM61.056-13.5h1.125v1.125H61.056Zm4.5,0h1.125v1.125H65.556v1.125h2.25v1.125H64.431v2.25h3.375V-6.75H64.431v5.625H63.306V0H62.181V-1.125h1.125V-6.75H59.931V-7.875h3.375v-2.25h-4.5V-11.25h3.375v-1.125h1.125v1.125h1.125v-1.125h1.125Zm-4.5,7.875h1.125V-4.5H61.056v1.125H59.931V-2.25H58.806V-3.375h1.125V-4.5h1.125Zm4.5,0h1.125V-4.5H65.556Zm-4.5,3.375h1.125v1.125H61.056ZM78.408-18Zm12.375,0h1.125v1.125h1.125v1.125H87.408v3.375h5.625v1.125H87.408v3.375h7.875V-6.75H87.408v5.625H86.283V0H85.158V-1.125h1.125V-6.75H78.408V-7.875h7.875V-11.25H80.658v-1.125h5.625v-2.25h-6.75V-15.75h7.875v-1.125h3.375ZM84.033-2.25h1.125v1.125H84.033ZM98.01-18Zm3.375,0h1.125v2.25h-1.125v1.125h4.5v3.375h1.125V-13.5h1.125V-18h1.125v3.375h4.5V-2.25h-1.125v1.125H111.51V0h-1.125V-1.125h1.125V-2.25h1.125V-13.5h-4.5v2.25H107.01v1.125h-1.125v9H104.76V-2.25h-4.5v1.125H99.135v-13.5h1.125V-15.75h1.125Zm-1.125,4.5V-9h4.5v-4.5Zm7.875,3.375h1.125V-9h-1.125ZM109.26-9h1.125v2.25H109.26Zm-9,1.125v4.5h4.5v-4.5Zm9,5.625h1.125v1.125H109.26ZM117.612-18Zm7.875,0h1.125v1.125h-1.125Zm1.125,1.125h1.125v1.125h6.75v1.125h-4.5V-13.5h-1.125v-1.125h-1.125v2.25h2.25V-13.5h1.125v1.125h3.375v1.125h-3.375v1.125h2.25V-9h-2.25v1.125h2.25V-6.75h-2.25v1.125h3.375V-4.5h-7.875v1.125h-1.125V-4.5h1.125v-6.75h-1.125v1.125h-1.125V-4.5h-1.125v-6.75h-1.125v1.125h-1.125V-4.5h-1.125v2.25h-1.125v1.125h-1.125V-2.25h1.125V-4.5h1.125V-15.75h6.75Zm-5.625,2.25v3.375h1.125v-1.125h1.125V-13.5h1.125v-1.125Zm4.5,0V-13.5h-1.125v2.25h1.125v-1.125h1.125v-2.25Zm2.25,3.375v1.125h2.25V-11.25Zm0,2.25v1.125h2.25V-9Zm0,2.25v1.125h2.25V-6.75Zm-6.75,3.375h1.125v2.25h-1.125V0h-1.125V-1.125h1.125Zm2.25,0h1.125v2.25h-1.125Zm3.375,0h1.125V-2.25h-1.125Zm5.625,0h1.125V-2.25h-1.125Zm-2.25,1.125h1.125V0h-6.75V-1.125h5.625Zm3.375,0h1.125V0h-1.125ZM137.214-18Zm2.25,0h1.125v1.125h-1.125Zm7.875,0h1.125v1.125h-1.125Zm-6.75,1.125h1.125v1.125h-1.125Zm7.875,0h1.125v1.125h4.5v1.125h-5.625v2.25h-1.125v1.125h-1.125v1.125h3.375v-2.25h1.125v2.25h-1.125V-9h-1.125v1.125h-1.125V-6.75h-1.125v1.125h-1.125V-4.5h-1.125V-5.625h1.125V-6.75h1.125V-7.875h1.125V-9h-3.375v-1.125h1.125V-11.25h1.125v-1.125h1.125v-2.25h-3.375V-13.5h-6.75v-1.125h6.75V-15.75h4.5Zm-10.125,4.5h4.5v1.125h-4.5Zm0,2.25h4.5V-9h-4.5Zm13.5,0h1.125v2.25h-1.125V-6.75h-1.125v1.125h-1.125V-4.5h-1.125v1.125h-1.125V-2.25h-1.125v1.125h-2.25V-2.25h2.25V-3.375h1.125V-4.5h1.125V-5.625h1.125V-6.75h1.125V-7.875h1.125Zm-13.5,2.25h4.5v6.75h-1.125V-2.25h-2.25v1.125h-1.125Zm1.125,1.125v3.375h2.25V-6.75ZM149.589-4.5h1.125v1.125h-1.125Zm1.125,1.125h1.125V-2.25h-1.125Zm1.125,1.125h1.125V0h-1.125ZM156.816-18Zm4.5,0h7.875v7.875h-7.875Zm1.125,1.125v2.25h5.625v-2.25Zm0,3.375v2.25h5.625V-13.5Zm-4.5,4.5h14.625v1.125h-6.75v2.25h5.625V-4.5h-5.625v3.375h-2.25V-2.25h1.125V-7.875h-6.75Zm3.375,2.25h1.125v3.375h-1.125V-2.25h-1.125v1.125h-1.125V0h-1.125V-1.125h1.125V-2.25h1.125V-3.375h1.125Zm1.125,3.375h1.125V-2.25h-1.125Zm3.375,2.25h6.75V0h-6.75ZM176.418-18Zm0,1.125h16.875v1.125h-6.75v2.25h-1.125V0h-1.125V-10.125h-1.125V-9h-1.125v1.125h-1.125V-6.75h-1.125v1.125h-1.125V-4.5h-1.125V-5.625h1.125V-6.75h1.125V-7.875h1.125V-9h1.125v-1.125h1.125V-11.25h1.125V-13.5h1.125v-2.25h-9Zm10.125,5.625h1.125v1.125h-1.125Zm1.125,1.125h1.125V-9h-1.125ZM188.793-9h2.25v1.125h1.125v2.25h-1.125V-6.75h-1.125V-7.875h-1.125Zm7.227-9Zm2.25,0H199.4v3.375h4.5V-13.5h-2.25V-9h3.375v1.125h-3.375V-6.75H200.52V-4.5H199.4v2.25H198.27v1.125h-1.125V0H196.02V-1.125h1.125V-2.25h1.125V-4.5H199.4V-6.75h1.125V-7.875h-4.5V-9h4.5v-4.5h-2.25v1.125h-1.125v1.125H196.02v-1.125h1.125V-13.5h1.125Zm7.875,2.25h5.625v13.5h-1.125V-3.375H207.27V-2.25h-1.125Zm1.125,1.125V-4.5h3.375V-14.625ZM201.645-6.75h1.125V-4.5h-1.125ZM202.77-4.5H203.9v2.25H202.77ZM215.622-18Zm7.875,0h1.125v1.125H223.5Zm4.5,0h1.125v1.125H228v1.125h3.375v1.125h-4.5V-13.5h-1.125v1.125h4.5v9h-1.125V-4.5H223.5v1.125h-1.125v-9h2.25V-13.5h1.125v-1.125h-4.5V-15.75h3.375v-1.125h1.125v1.125h1.125v-1.125H228Zm-10.125,1.125H219v1.125h-1.125ZM219-15.75h1.125v2.25H219Zm-3.375,4.5h4.5v7.875H219V-2.25h-1.125v1.125h-1.125V-2.25h1.125V-3.375H219v-6.75h-3.375Zm7.875,0v1.125h5.625V-11.25Zm0,2.25v1.125h5.625V-9Zm0,2.25v1.125h5.625V-6.75Zm-3.375,3.375h1.125V-2.25h-1.125Zm1.125,1.125H232.5v1.125h-11.25ZM235.224-18Zm1.125,1.125h14.625v1.125h-4.5v2.25h3.375V-9H243.1v1.125h9V-6.75h-4.5V-4.5h-1.125v1.125h-1.125V-2.25H243.1v1.125h-2.25V0h-3.375V-1.125h3.375V-2.25h2.25V-3.375h2.25V-4.5h1.125V-6.75h-4.5v1.125h-1.125V-4.5h-1.125V-5.625h1.125V-6.75h-5.625V-7.875h6.75V-9h-4.5v-4.5h3.375v-2.25h-4.5Zm5.625,1.125v2.25h3.375v-2.25ZM238.6-12.375v2.25h2.25v-2.25Zm3.375,0v2.25h3.375v-2.25Zm4.5,0v2.25h2.25v-2.25ZM240.849-4.5h2.25v1.125h-2.25Zm4.5,2.25h2.25v1.125h-2.25Zm2.25,1.125h1.125V0H247.6ZM254.826-18Zm4.5,0h1.125v2.25h9v1.125h-7.875v2.25h6.75v1.125h-6.75V-9h6.75v1.125h-6.75V-6.75h-1.125v-7.875h-1.125V-13.5H258.2v1.125h-1.125v1.125h-1.125v-1.125h1.125V-13.5H258.2v-2.25h1.125ZM262.7-6.75h1.125v1.125H262.7Zm-6.75,1.125h1.125v2.25h-1.125V-2.25h-1.125V-3.375h1.125Zm3.375,0h1.125V-2.25h-1.125Zm4.5,0h1.125v2.25h-1.125Zm5.625,0h1.125V-4.5h-1.125ZM267.2-4.5h1.125v3.375h-7.875V-2.25h6.75Zm3.375,0H271.7v2.25h-1.125ZM274.428-18Zm9,0h1.125v1.125h-1.125Zm1.125,1.125h1.125v1.125H291.3v1.125h-3.375v2.25H291.3v1.125h-2.25v1.125h-1.125v2.25H286.8v-2.25h-1.125V-9h-2.25v-1.125h2.25V-11.25h-2.25v1.125H282.3v2.25h-1.125v-2.25h-1.125V-9h-1.125v1.125H277.8v4.5h-1.125v2.25h-1.125V0h-1.125V-1.125h1.125v-2.25h1.125V-15.75h7.875Zm-6.75,2.25v2.25h3.375v-2.25Zm4.5,0v2.25h4.5v-2.25Zm-4.5,3.375V-9h1.125v-1.125h1.125V-11.25Zm11.25,1.125h1.125V-9h-1.125ZM290.178-9H291.3v1.125h-1.125ZM282.3-7.875h1.125V-6.75H282.3v1.125h4.5V-6.75h1.125v1.125H286.8V-4.5h-2.25v1.125h-1.125V-2.25h5.625V-3.375h1.125V-2.25H291.3V0h-1.125V-1.125h-9V0h-1.125V-1.125h-1.125V-2.25h2.25V-3.375h2.25V-4.5h-3.375V-5.625h1.125V-6.75H282.3ZM294.03-18Zm3.375,0h1.125v4.5h2.25v1.125h-2.25v2.25h1.125V-9H298.53v2.25h2.25V-7.875H301.9V-11.25H300.78v-1.125H301.9v-4.5h1.125V-4.5H301.9v2.25H300.78v1.125h-1.125V0H298.53V-1.125h1.125V-2.25h1.125V-4.5H301.9V-6.75H300.78v1.125h-2.25v4.5H297.4V0H296.28V-1.125H297.4v-6.75H296.28V-6.75h-2.25V-7.875h2.25V-9H297.4v-3.375H294.03V-13.5H297.4Zm7.875,0H306.4v6.75h1.125v-1.125h1.125V-13.5h1.125v2.25h-2.25v1.125H306.4V-9h1.125v1.125H306.4V-2.25H305.28Zm2.25,10.125h1.125V-6.75H307.53Zm1.125,1.125h1.125v1.125h-1.125ZM309.78-4.5H310.9v3.375h-4.5V-2.25h3.375ZM295.155-2.25h1.125v1.125h-1.125ZM313.632-18Zm2.25,1.125h1.125v1.125h-1.125Zm3.375,0h4.5V-13.5h-3.375v2.25h-1.125Zm5.625,0h4.5V-13.5h-3.375v2.25h-1.125Zm-7.875,1.125h1.125v2.25h-1.125Zm3.375,0v1.125h2.25V-15.75Zm5.625,0v1.125h2.25V-15.75Zm-3.375,3.375h1.125v2.25h-1.125V-9h3.375v-2.25h2.25v-1.125h1.125v2.25h-2.25V-9h2.25v1.125h-2.25V-6.75h3.375v1.125h-3.375V-4.5h-1.125V-5.625h-3.375V-4.5h-1.125v1.125h-1.125V-4.5h1.125V-5.625h-3.375v2.25h-1.125V-2.25h-1.125v1.125h-1.125V-2.25h1.125V-3.375h1.125v-6.75h-3.375V-11.25h4.5v4.5h3.375V-7.875h-2.25V-9h2.25v-1.125h-1.125V-11.25h2.25Zm0,4.5V-6.75h3.375V-7.875Zm4.5,3.375h1.125v1.125h-1.125Zm-9,1.125h1.125V-2.25h-1.125Zm1.125,1.125h11.25v1.125h-11.25ZM333.234-18Zm3.375,0h1.125v4.5h2.25v-1.125h2.25V-15.75h-2.25v-1.125h2.25V-18h1.125v1.125h3.375V-18h1.125v1.125h2.25v1.125h-2.25v1.125h2.25v3.375h-4.5v1.125h-1.125V-11.25h1.125v-3.375h1.125V-15.75h-3.375v1.125h1.125v3.375h-1.125v1.125h-1.125V-9h3.375v-1.125h1.125V-9h3.375v1.125h-4.5V-6.75h3.375v1.125h-3.375V-4.5h3.375v1.125h-3.375V-2.25h4.5v1.125h-7.875V0h-1.125V-7.875h-1.125V-6.75h-1.125V-7.875h1.125V-9h1.125v-1.125h1.125V-11.25h-2.25v-1.125h-2.25v1.125h1.125v1.125h-1.125V0h-1.125V-9h-1.125v2.25h-1.125v1.125h-1.125V-6.75h1.125V-9h1.125v-2.25h1.125v-1.125h-3.375V-13.5h3.375Zm4.5,4.5v1.125h2.25V-13.5Zm5.625,0v1.125h2.25V-13.5Zm-7.875,3.375h1.125V-9h-1.125Zm3.375,2.25V-6.75h2.25V-7.875Zm0,2.25V-4.5h2.25V-5.625Zm0,2.25V-2.25h2.25V-3.375ZM352.836-18Zm2.25,0h1.125v1.125h-1.125Zm1.125,1.125h1.125v1.125h-1.125Zm4.5,0h3.375V-13.5h-1.125v1.125h-1.125v1.125h-1.125v1.125h-1.125V-11.25h1.125v-1.125h1.125V-13.5h1.125v-2.25h-2.25Zm4.5,0h1.125v1.125h1.125v-1.125h1.125v1.125h-1.125v2.25h1.125v-1.125h1.125V-13.5h-1.125v2.25h-1.125v1.125h-5.625V-11.25h5.625v-1.125h-1.125v-2.25h-1.125Zm-12.375,2.25h6.75V-13.5h-6.75Zm7.875,0h1.125V-13.5h-1.125Zm-6.75,2.25h4.5v1.125h-4.5Zm14.625,1.125h1.125v1.125h-1.125Zm-14.625,1.125h4.5V-9h-4.5ZM361.836-9h5.625v5.625h-1.125V-2.25h3.375v1.125H359.586V-2.25h3.375V-3.375h1.125V-2.25h1.125V-3.375h1.125V-4.5h-3.375v1.125h-1.125Zm-7.875,1.125h4.5v6.75h-1.125V-2.25h-2.25v1.125h-1.125Zm9,0v2.25h3.375v-2.25ZM355.086-6.75v3.375h2.25V-6.75Zm26.334-.972a1.089,1.089,0,0,0-.846.306,1.044,1.044,0,0,0-.324.81,1.071,1.071,0,0,0,.306.792,1.047,1.047,0,0,0,.774.324.963.963,0,0,0,.4-.072,2.123,2.123,0,0,1-.378,1.206,2.6,2.6,0,0,1-1.152.792v.882a3.472,3.472,0,0,0,1.854-1.17,3.373,3.373,0,0,0,.7-2.106,2.091,2.091,0,0,0-.36-1.26A1.149,1.149,0,0,0,381.42-7.722ZM392.04-18Zm6.75,0h1.125v2.25h9v1.125H398.79v2.25h6.75v11.25h-1.125V0H403.29V-1.125h1.125V-4.5h-6.75V0H396.54V-9h-1.125v1.125H394.29V-6.75h-1.125v1.125H392.04V-6.75h1.125V-7.875h1.125V-9h1.125v-1.125h1.125v-2.25h1.125v-2.25H392.04V-15.75h6.75Zm-1.125,6.75V-9h6.75v-2.25Zm0,3.375v2.25h6.75v-2.25Zm4.5,5.625h1.125v1.125h-1.125ZM411.642-18Zm7.875,0h1.125V-7.875h4.5V-9h-3.375v-1.125h1.125V-11.25h1.125v-1.125h-2.25V-13.5h1.125v-1.125h1.125v-2.25h1.125v2.25h-1.125V-13.5h2.25v-1.125h1.125V-13.5h-1.125v1.125h-1.125v1.125h-1.125v1.125h2.25V-11.25h1.125v1.125h1.125V-9h-2.25v1.125h2.25V-6.75h-7.875V-4.5h-1.125V-6.75h-3.375V-4.5h1.125v1.125h-2.25v2.25h-1.125V0h-1.125V-1.125h1.125v-2.25h1.125V-6.75h-3.375V-7.875h3.375V-9h-2.25v-1.125h1.125V-11.25h1.125v-1.125h-2.25V-13.5h1.125v-1.125h1.125v-2.25h1.125v2.25h-1.125V-13.5h2.25v-1.125h1.125V-13.5h-1.125v1.125h-1.125v1.125h-1.125v1.125h2.25V-11.25h1.125v1.125h1.125Zm-3.375,9v1.125h3.375V-9Zm7.875,3.375h2.25V-4.5h-2.25v1.125h-1.125V-2.25h-2.25v1.125h-1.125V0h-2.25V-1.125h2.25V-2.25h1.125V-4.5h1.125v1.125h1.125V-4.5h1.125Zm-6.75,2.25h1.125V-2.25h-1.125Zm9,0h1.125V0h-2.25V-1.125h1.125ZM422.892-2.25h2.25v1.125h-2.25ZM431.244-18Zm3.375,0h1.125v3.375h-1.125V0h-1.125V-11.25h-1.125v1.125h-1.125V-11.25h1.125v-1.125h1.125v-2.25h1.125Zm2.25,1.125h10.125v15.75h-1.125V-2.25h-7.875v1.125h-1.125Zm1.125,1.125v2.25h3.375v-2.25Zm4.5,0v2.25h3.375v-2.25Zm-4.5,3.375v9h7.875v-9h-3.375v2.25h2.25V-4.5h-1.125V-5.625h-3.375V-4.5h-1.125v-5.625h2.25v-2.25ZM440.244-9v2.25h3.375V-9Zm10.6-9Zm3.375,0h1.125v1.125h4.5v1.125h-3.375v1.125h-1.125V-15.75h-1.125v1.125H453.1V-13.5h-1.125v1.125h-1.125V-13.5h1.125v-1.125H453.1V-15.75h1.125Zm6.75,0H462.1v1.125h5.625v1.125h-3.375v1.125h-1.125V-15.75h-2.25v1.125h-1.125V-13.5h-1.125v5.625h-4.5V0H453.1V-13.5h3.375v-1.125H457.6V-13.5h1.125v-1.125h1.125V-15.75h1.125Zm3.375,3.375h1.125V0h-2.25V-1.125h1.125v-6.75h-4.5V-13.5h4.5Zm-10.125,2.25v1.125H457.6v-1.125Zm6.75,0v1.125h3.375v-1.125Zm-6.75,2.25V-9H457.6v-1.125Zm6.75,0V-9h3.375v-1.125Zm-4.5,3.375H462.1v5.625h-5.625ZM457.6-5.625V-4.5h3.375V-5.625Zm0,2.25V-2.25h3.375V-3.375ZM470.448-18Zm2.25,1.125h5.625V-13.5H472.7Zm6.75,0h5.625V-13.5h-5.625Zm-5.625,1.125v1.125H477.2V-15.75Zm6.75,0v1.125h3.375V-15.75Zm-6.75,3.375h10.125V-6.75h-4.5v1.125h7.875V-4.5h-7.875V0h-1.125V-4.5h-7.875V-5.625h7.875V-6.75h-4.5Zm1.125,1.125v1.125h3.375V-11.25Zm4.5,0v1.125h3.375V-11.25ZM474.948-9v1.125h3.375V-9Zm4.5,0v1.125h3.375V-9Zm10.6-9Zm3.375,0h1.125v2.25h-1.125v1.125h4.5v3.375h1.125V-13.5h1.125V-18H501.3v3.375h4.5V-2.25h-1.125v1.125H503.55V0h-1.125V-1.125h1.125V-2.25h1.125V-13.5h-4.5v2.25H499.05v1.125h-1.125v9H496.8V-2.25h-4.5v1.125h-1.125v-13.5H492.3V-15.75h1.125ZM492.3-13.5V-9h4.5v-4.5Zm7.875,3.375H501.3V-9h-1.125ZM501.3-9h1.125v2.25H501.3Zm-9,1.125v4.5h4.5v-4.5Zm9,5.625h1.125v1.125H501.3ZM509.652-18Zm7.875,0h1.125V-1.125h-1.125V0H516.4V-1.125h1.125Zm-3.375,5.625h1.125v2.25h-1.125v2.25h-1.125V-6.75H511.9v1.125h-1.125V-6.75H511.9V-7.875h1.125v-2.25h1.125Zm6.75,0h1.125v1.125H520.9Zm1.125,1.125h1.125v1.125h-1.125Zm1.125,1.125h1.125v2.25h-1.125Zm1.125,2.25H525.4v2.25h-1.125Zm-9,5.625H516.4v1.125h-1.125ZM529.254-18Zm2.25,0h1.125v1.125H531.5Zm7.875,0H540.5v4.5h3.375v5.625h2.25V-6.75H540.5V-4.5h-1.125v2.25h-1.125v1.125h-1.125V0H536V-1.125h1.125V-2.25h1.125V-4.5h1.125V-6.75H536v5.625h-1.125V-2.25H531.5v1.125h-1.125v-6.75h9v-4.5h-2.25V-13.5h2.25Zm-6.75,1.125h1.125v1.125h-1.125Zm-3.375,2.25h7.875V-13.5h-7.875Zm1.125,2.25H536v1.125h-5.625Zm10.125,0v4.5h2.25v-4.5Zm-10.125,2.25H536V-9h-5.625ZM531.5-6.75v3.375h3.375V-6.75Zm9,2.25h1.125v1.125H540.5Zm1.125,1.125h1.125V-2.25h-1.125Zm1.125,1.125h3.375v1.125H545V0h-1.125V-1.125h-1.125Zm6.1-15.75Zm7.875,0h1.125v1.125h7.875v2.25h-1.125V-15.75h-2.25v1.125h-1.125V-15.75h-6.75v1.125h-1.125V-13.5h-2.25v1.125h-1.125V-13.5h1.125v-1.125h2.25V-15.75h-2.25v1.125h-1.125V-13.5h-1.125v-1.125h1.125v-2.25h6.75Zm-2.25,3.375h1.125V-13.5h-1.125v1.125h2.25v4.5h1.125V-9h1.125v-2.25h1.125V-13.5h1.125v2.25h4.5v1.125h-1.125V-6.75h-1.125v1.125h-1.125v2.25h-1.125V-2.25h-1.125v1.125h-1.125V0h-1.125V-1.125h1.125V-2.25h1.125V-3.375h1.125v-2.25h1.125V-6.75h1.125v-3.375h-3.375V-9h-1.125v1.125h-1.125V-6.75h-3.375v1.125h3.375V-4.5h-4.5v1.125h3.375V0h-2.25V-1.125h1.125V-2.25h-3.375v1.125h-1.125V0h-1.125V-1.125h1.125V-2.25h1.125V-4.5h-2.25V-5.625h3.375V-6.75h-2.25v-5.625h2.25V-13.5h1.125Zm7.875,0h1.125V-13.5h-1.125Zm1.125,1.125h1.125v1.125h-1.125Zm-11.25,2.25v1.125h3.375V-11.25Zm0,2.25v1.125h3.375V-9Zm7.875,0h1.125v3.375h-1.125Zm2.25,5.625h1.125V-2.25h-1.125Zm1.125,1.125h2.25v1.125h-1.125V0h-1.125Zm13.977-8.712a1.011,1.011,0,0,0-.792.342.979.979,0,0,0-.306.774,1.031,1.031,0,0,0,.306.774,1.059,1.059,0,0,0,.792.324,1.087,1.087,0,0,0,.792-.324,1.047,1.047,0,0,0,.324-.774.992.992,0,0,0-.324-.774A1.037,1.037,0,0,0,577.458-10.962Zm0,6.588a1.011,1.011,0,0,0-.792.342.979.979,0,0,0-.306.774,1.031,1.031,0,0,0,.306.774,1.059,1.059,0,0,0,.792.324,1.087,1.087,0,0,0,.792-.324,1.047,1.047,0,0,0,.324-.774.992.992,0,0,0-.324-.774A1.037,1.037,0,0,0,577.458-4.374ZM4.992,24.638V14.108a12.852,12.852,0,0,1-1.433,1,11.1,11.1,0,0,1-1.907.844V14.478a11.56,11.56,0,0,0,3.34-2.118H6.627V24.638H9.905V26H1.652V24.638ZM17.8,26.413a1.44,1.44,0,1,1,1.011-.422A1.379,1.379,0,0,1,17.8,26.413Zm18.707-15.3V22.148h1.314V12.32h4.446V11.114ZM44.41,8Zm6.75,0h3.375V9.125H51.16v2.25h4.5V12.5h-4.5v6.75h1.125v1.125H51.16V26H50.035V20.375H48.91V21.5H47.785v1.125H46.66V23.75H45.535V22.625H46.66V21.5h1.125V20.375H48.91V19.25h1.125V12.5H44.41V11.375h5.625V10.25H46.66V9.125h4.5Zm9,0h1.125V24.875H60.16V26H59.035V24.875H60.16Zm-3.375,3.375H57.91V21.5H56.785Zm-9,2.25H48.91V19.25H47.785V18.125H46.66V19.25H45.535V18.125H46.66V17h1.125V15.875h-2.25V14.75h2.25Zm4.5,0H53.41v2.25h1.125V14.75H55.66v1.125H54.535V17H53.41v1.125H52.285ZM54.535,17H55.66v2.25H53.41V18.125h1.125Zm-2.25,3.375H53.41V21.5H52.285ZM53.41,21.5h1.125v1.125H53.41Zm4.5,2.25h1.125v1.125H57.91ZM64.012,8Zm4.5,0h1.125v2.25H68.512V12.5H67.387v1.125h1.125V12.5h1.125v1.125h2.25V12.5h1.125v1.125H71.887v6.75H70.762V19.25H67.387v4.5h1.125V22.625h1.125V21.5h1.125v1.125H69.637V23.75H68.512v1.125H67.387V26H66.262V14.75H65.137v1.125H64.012V14.75h1.125V13.625h1.125V12.5h1.125V10.25h1.125Zm7.875,0h1.125v2.25H76.387V12.5H75.262v1.125H74.137V14.75H73.012V13.625h1.125V12.5h1.125V10.25h1.125Zm-6.75,2.25h1.125v1.125H69.637Zm7.875,0h1.125V12.5H77.512Zm-6.75,1.125h1.125V12.5H70.762ZM78.637,12.5h1.125v1.125H78.637Zm1.125,1.125h1.125V14.75H79.762v1.125h-2.25v2.25h3.375V19.25H77.512v5.625H76.387V26H75.262V24.875h1.125V19.25H73.012V18.125h3.375v-2.25h-2.25V14.75h5.625ZM67.387,14.75v1.125h3.375V14.75Zm0,2.25v1.125h3.375V17Zm1.125,3.375h1.125V21.5H68.512Zm5.625,0h1.125v2.25H74.137V23.75H73.012V22.625h1.125Zm4.5,0h1.125V21.5H78.637ZM79.762,21.5h1.125v2.25H79.762Zm-9,1.125h1.125v2.25H70.762Zm3.375,1.125h1.125v1.125H74.137ZM83.614,8Zm2.25,1.125H98.239V10.25H92.614v4.5h6.75v1.125h-6.75V17H91.489v2.25H90.364V21.5H89.239v1.125H88.114V23.75H86.989v1.125H85.864V26H84.739V24.875h1.125V23.75h1.125V22.625h1.125V21.5h1.125V19.25h1.125V17h1.125V15.875h-6.75V14.75h6.75v-4.5H85.864ZM92.614,17h1.125v2.25H92.614Zm1.125,2.25h1.125v1.125H93.739Zm1.125,1.125h1.125V21.5H94.864ZM95.989,21.5h1.125v1.125H95.989Zm1.125,1.125h3.375V23.75H99.364v1.125H98.239V23.75H97.114ZM103.216,8Zm4.5,0h1.125V9.125h3.375v2.25h1.125V12.5h-1.125v2.25h-3.375v1.125h3.375V14.75h1.125V13.625h1.125v-2.25h1.125V8h1.125v3.375h-1.125V12.5h4.5v1.125h-1.125v4.5h-1.125v2.25h-1.125V21.5h-1.125v1.125h-1.125V23.75h-1.125v1.125h-1.125V26h-1.125V24.875h1.125V23.75h1.125V22.625h1.125V21.5h1.125V19.25h1.125V18.125h1.125v-4.5h-3.375V14.75h-1.125v1.125h-1.125V19.25h-4.5v1.125h4.5V21.5h-1.125v1.125h-1.125V23.75h-1.125v1.125h-2.25V26h-2.25V24.875h2.25V23.75h2.25V22.625h1.125V21.5h-3.375v2.25h-2.25V22.625h1.125V21.5h-2.25V20.375h3.375V19.25h-2.25V15.875h3.375V14.75h-3.375V12.5h-1.125V11.375h1.125V9.125h3.375Zm-2.25,2.25v1.125h2.25V10.25Zm3.375,0v1.125h2.25V10.25Zm-3.375,2.25v1.125h2.25V12.5Zm3.375,0v1.125h2.25V12.5Zm5.625,2.25h1.125v4.5h-1.125Zm-9,2.25v1.125h2.25V17Zm3.375,0v1.125h2.25V17Zm7.875,4.5h1.125v2.25h-1.125Zm1.125,2.25h1.125v1.125h-1.125Zm-9,1.125h1.125V26h-1.125Zm10.125,0h1.125V26h-1.125Zm8.838-7.983V26.72h-4.446v1.206h5.76V16.892ZM142.42,8Zm3.375,0h1.125v2.25h12.375v1.125h-2.25V14.75h2.25v1.125h-2.25V19.25h2.25v1.125h-15.75V19.25h2.25V15.875h-2.25V14.75h2.25V11.375H144.67V12.5h-1.125v1.125H142.42V12.5h1.125V11.375h1.125V10.25h1.125Zm1.125,3.375V14.75h2.25V11.375Zm3.375,0V14.75h2.25V11.375Zm3.375,0V14.75h2.25V11.375Zm-6.75,4.5V19.25h2.25V15.875Zm3.375,0V19.25h2.25V15.875Zm3.375,0V19.25h2.25V15.875ZM143.545,21.5h1.125v2.25h-1.125v1.125H142.42V23.75h1.125Zm3.375,0h1.125v1.125H146.92Zm4.5,0h1.125v1.125H151.42Zm4.5,0h1.125v1.125H155.92Zm-7.875,1.125h1.125v2.25h-1.125Zm4.5,0h1.125v2.25h-1.125Zm4.5,0h1.125v2.25h-1.125ZM162.022,8Zm2.25,0H165.4V9.125h-1.125Zm7.875,0h1.125v2.25h-1.125v1.125h-1.125V12.5H169.9v1.125h-1.125V14.75h-5.625V13.625h5.625V12.5H169.9V11.375h1.125V10.25h1.125ZM165.4,9.125h1.125V10.25H165.4Zm7.875,1.125H174.4v1.125h-1.125Zm-11.25,1.125h6.75V12.5h-6.75Zm12.375,0h1.125V12.5H174.4Zm1.125,1.125h1.125v1.125h-1.125V14.75H169.9V13.625h5.625Zm1.125,1.125h1.125V14.75h-1.125Zm-13.5,2.25h4.5V17h-4.5ZM168.772,17h9v7.875h-1.125V26h-1.125V24.875h1.125V21.5H174.4v2.25h1.125v1.125h-2.25V21.5h-1.125v3.375h-1.125V21.5H169.9V26h-1.125Zm-5.625,1.125h4.5v6.75h-1.125V23.75h-2.25v1.125h-1.125Zm6.75,0v2.25h1.125v-2.25Zm2.25,0v2.25h1.125v-2.25Zm2.25,0v2.25h2.25v-2.25ZM164.272,19.25v3.375h2.25V19.25ZM181.624,8Zm2.25,0H185V9.125h-1.125ZM185,9.125h1.125V10.25H185Zm4.5,0h7.875V17h-1.125v1.125h-1.125V17h1.125V10.25H194v3.375h-1.125v2.25h-1.125V17h-1.125v1.125H189.5V17h1.125V15.875h1.125v-2.25h1.125V10.25H189.5Zm-7.875,2.25h6.75V12.5h-6.75Zm7.875,0h1.125v2.25H189.5V14.75h-1.125V13.625H189.5Zm-6.75,2.25h4.5V14.75h-4.5Zm0,2.25h4.5V17h-4.5Zm11.25,0h1.125V17H194Zm-11.25,2.25h4.5v4.5h1.125v-2.25H189.5v2.25h-1.125V23.75h-1.125v1.125h-1.125V23.75h-2.25v1.125h-1.125Zm9,0h1.125V19.25h-1.125Zm-7.875,1.125v3.375h2.25V19.25Zm9,0H194V21.5h-1.125Zm-2.25,1.125h1.125v4.5h-1.125Zm5.625,0h1.125V21.5h-1.125Zm1.125,1.125H198.5v2.25h-1.125Zm-2.25,1.125h1.125V26h-4.5V24.875h3.375ZM201.226,8Zm9,0h1.125v2.25h3.375V8h1.125v2.25h2.25v1.125h-2.25V12.5h1.125v1.125h-1.125V14.75h2.25v1.125h-4.5V17h3.375v4.5H218.1v1.125h-1.125v2.25h-1.125V26h-1.125V24.875h1.125v-2.25h-5.625V26H209.1V22.625h-1.125V21.5H209.1V17h3.375V15.875h-4.5V14.75h2.25V13.625H209.1V12.5h1.125V11.375h-2.25V10.25h2.25Zm-7.875,1.125h4.5v11.25h-4.5Zm1.125,1.125V12.5h2.25V10.25Zm7.875,1.125V12.5h3.375V11.375Zm-7.875,2.25v2.25h2.25v-2.25Zm7.875,0V14.75h3.375V13.625ZM203.476,17v2.25h2.25V17Zm6.75,1.125V19.25h2.25V18.125Zm3.375,0V19.25h2.25V18.125Zm-3.375,2.25V21.5h2.25V20.375Zm3.375,0V21.5h2.25V20.375ZM202.351,21.5h1.125v2.25h-1.125v1.125h-1.125V23.75h1.125Zm2.25,0h1.125v1.125H204.6Zm1.125,1.125h1.125v2.25h-1.125ZM213.6,23.75h1.125v1.125H213.6ZM220.828,8Zm9,0h1.125v3.375h5.625V12.5h-5.625V17h-1.125V12.5h-7.875V11.375h7.875ZM233.2,8h1.125V9.125H233.2Zm1.125,1.125h1.125V10.25h-1.125Zm-11.25,5.625H228.7v5.625h-5.625Zm11.25,0h1.125v3.375h-1.125v2.25H233.2v2.25h-1.125V23.75h-1.125v1.125h-1.125V26h-2.25V24.875h2.25V23.75h1.125V22.625h1.125v-2.25H233.2v-2.25h1.125ZM224.2,15.875V19.25h3.375V15.875ZM230.953,17h1.125v3.375h-1.125Zm4.5,3.375h1.125V26h-1.125V24.875h-1.125V23.75h1.125Zm-9,1.125h3.375v1.125h-3.375V23.75h-4.5V22.625h4.5Zm6.75,1.125h1.125V23.75H233.2ZM240.43,8Zm2.25,0H243.8V9.125H242.68ZM243.8,9.125h1.125V10.25H243.8Zm4.5,0h7.875V17h-1.125v1.125H253.93V17h1.125V10.25H252.8v3.375H251.68v2.25h-1.125V17H249.43v1.125H248.3V17h1.125V15.875h1.125v-2.25h1.125V10.25H248.3Zm-7.875,2.25h6.75V12.5h-6.75Zm7.875,0h1.125v2.25H248.3V14.75H247.18V13.625H248.3Zm-6.75,2.25h4.5V14.75h-4.5Zm0,2.25h4.5V17h-4.5Zm11.25,0h1.125V17H252.8Zm-11.25,2.25h4.5v4.5h1.125v-2.25H248.3v2.25H247.18V23.75h-1.125v1.125H244.93V23.75h-2.25v1.125h-1.125Zm9,0h1.125V19.25h-1.125ZM242.68,19.25v3.375h2.25V19.25Zm9,0H252.8V21.5H251.68Zm-2.25,1.125h1.125v4.5H249.43Zm5.625,0h1.125V21.5h-1.125ZM256.18,21.5H257.3v2.25H256.18Zm-2.25,1.125h1.125V26h-4.5V24.875h3.375ZM260.032,8Zm4.5,0h1.125v2.25h3.375V9.125h1.125V10.25h5.625v1.125h-5.625V12.5h4.5v1.125h-4.5V14.75h4.5v1.125h-4.5V17h5.625v1.125h-11.25V19.25h-1.125V13.625h-1.125V14.75h-1.125v1.125h-1.125V14.75h1.125V13.625h1.125V12.5h1.125V10.25h1.125Zm3.375,0h1.125V9.125h-1.125Zm-3.375,3.375V12.5h4.5V11.375Zm0,2.25V14.75h4.5V13.625Zm0,2.25V17h4.5V15.875Zm0,3.375h10.125V26h-1.125V24.875h-7.875V26h-1.125Zm1.125,1.125V23.75h7.875V20.375Zm22.959-2.1a1.089,1.089,0,0,0-.846.306,1.044,1.044,0,0,0-.324.81,1.071,1.071,0,0,0,.306.792,1.047,1.047,0,0,0,.774.324.963.963,0,0,0,.4-.072,2.123,2.123,0,0,1-.378,1.206,2.6,2.6,0,0,1-1.152.792v.882a3.472,3.472,0,0,0,1.854-1.17,3.373,3.373,0,0,0,.7-2.106,2.091,2.091,0,0,0-.36-1.26A1.149,1.149,0,0,0,288.616,18.278ZM299.236,8Zm10.125,0h1.125v2.25h3.375V12.5h2.25v1.125h-2.25v2.25h-3.375V17h3.375v1.125h-3.375v2.25h4.5V21.5h-4.5v2.25h5.625v1.125H303.736V23.75h5.625V21.5h-4.5V20.375h4.5v-2.25h-3.375V17h3.375V15.875h-3.375V14.75h3.375V13.625h-4.5V12.5h4.5V11.375h-3.375V10.25h3.375Zm-10.125,2.25h5.625V12.5h-1.125v1.125h-1.125V14.75h2.25v3.375h-1.125v2.25h-1.125v2.25h-1.125v2.25h-1.125V26h-1.125V24.875h1.125v-2.25h1.125v-2.25h1.125v-2.25h1.125v-2.25h-3.375V14.75h1.125V13.625h1.125V12.5h1.125V11.375h-4.5Zm11.25,1.125V12.5h2.25V11.375Zm0,2.25V14.75h2.25V13.625Zm-10.125,4.5h1.125v2.25h-1.125Zm2.25,4.5h1.125V23.75h-1.125ZM318.838,8Zm1.125,0h1.125V9.125h-1.125Zm6.75,0h1.125V9.125h-1.125Zm5.625,0h1.125V9.125h-1.125V10.25h2.25v1.125h-3.375V12.5h2.25v1.125h-2.25V14.75h4.5v1.125h-3.375V19.25h3.375v1.125h-1.125V21.5h-1.125v1.125h-1.125V23.75h-1.125v1.125h-1.125V23.75h1.125V20.375h-2.25V21.5h1.125v1.125h-1.125V26h-2.25V24.875h1.125V23.75h-2.25V22.625h2.25v-2.25h-2.25V19.25h2.25V18.125h-2.25V17h4.5v1.125h-1.125V19.25h2.25V15.875h-5.625V14.75h4.5V13.625h-2.25V12.5h2.25V11.375h-3.375V10.25h1.125V9.125h1.125V10.25h2.25V9.125h1.125Zm-11.25,1.125h1.125V10.25h-1.125Zm-2.25,2.25h6.75V12.5h-6.75Zm1.125,2.25h4.5V14.75h-4.5Zm0,2.25h4.5V17h-4.5ZM333.463,17h1.125v1.125h-1.125Zm-13.5,1.125h4.5v6.75h-1.125V23.75h-2.25v1.125h-1.125Zm1.125,1.125v3.375h2.25V19.25Zm11.25,1.125V21.5h1.125V20.375Zm0,3.375h1.125v1.125h-1.125Zm2.25,0h1.125V26h-2.25V24.875h1.125ZM338.44,8Zm3.375,0h1.125v4.5h2.25v1.125h-2.25v2.25h1.125V17H342.94v2.25h2.25V18.125h1.125V14.75H345.19V13.625h1.125v-4.5h1.125V21.5h-1.125v2.25H345.19v1.125h-1.125V26H342.94V24.875h1.125V23.75h1.125V21.5h1.125V19.25H345.19v1.125h-2.25v4.5h-1.125V26H340.69V24.875h1.125v-6.75H340.69V19.25h-2.25V18.125h2.25V17h1.125V13.625H338.44V12.5h3.375Zm7.875,0h1.125v6.75h1.125V13.625h1.125V12.5h1.125v2.25h-2.25v1.125h-1.125V17h1.125v1.125h-1.125V23.75H349.69Zm2.25,10.125h1.125V19.25H351.94Zm1.125,1.125h1.125v1.125h-1.125Zm1.125,2.25h1.125v3.375h-4.5V23.75h3.375Zm-14.625,2.25h1.125v1.125h-1.125ZM358.042,8Zm2.25,1.125h1.125V10.25h-1.125Zm3.375,0h4.5V12.5h-3.375v2.25h-1.125Zm5.625,0h4.5V12.5h-3.375v2.25h-1.125Zm-7.875,1.125h1.125V12.5h-1.125Zm3.375,0v1.125h2.25V10.25Zm5.625,0v1.125h2.25V10.25Zm-3.375,3.375h1.125v2.25h-1.125V17h3.375V14.75h2.25V13.625h1.125v2.25h-2.25V17h2.25v1.125h-2.25V19.25h3.375v1.125h-3.375V21.5h-1.125V20.375h-3.375V21.5h-1.125v1.125h-1.125V21.5h1.125V20.375h-3.375v2.25h-1.125V23.75h-1.125v1.125h-1.125V23.75h1.125V22.625h1.125v-6.75h-3.375V14.75h4.5v4.5h3.375V18.125h-2.25V17h2.25V15.875h-1.125V14.75h2.25Zm0,4.5V19.25h3.375V18.125Zm4.5,3.375h1.125v1.125h-1.125Zm-9,1.125h1.125V23.75h-1.125Zm1.125,1.125h11.25v1.125h-11.25ZM377.644,8Zm3.375,1.125h10.125v15.75h-1.125V23.75h-7.875v1.125h-1.125Zm1.125,1.125v5.625h7.875V10.25Zm0,6.75v5.625h7.875V17Zm15.1-9Zm2.25,0h1.125v3.375H404V8h1.125v3.375h1.125V12.5h-1.125v6.75h2.25V9.125H413v15.75h-1.125V26h-1.125V24.875h1.125V19.25H408.5v3.375h-1.125V23.75h-1.125v1.125h-1.125V26H404V24.875h1.125V23.75h1.125V22.625h1.125v-2.25H397.246V19.25h2.25V12.5h-1.125V11.375H399.5Zm9,2.25v3.375h3.375V10.25Zm-7.875,2.25v1.125H404V12.5Zm0,2.25v1.125H404V14.75Zm7.875,0v3.375h3.375V14.75ZM400.621,17v2.25H404V17ZM399.5,21.5h1.125v2.25H399.5v1.125h-1.125V26h-1.125V24.875h1.125V23.75H399.5Zm3.375,0H404v1.125h-1.125ZM404,22.625h1.125V23.75H404Zm5.625,1.125h1.125v1.125h-1.125Zm37-2.522L437.074,26V24.479l6.53-3.243-6.53-3.278v-1.5Zm7.227,3.41V14.108a12.852,12.852,0,0,1-1.433,1,11.1,11.1,0,0,1-1.907.844V14.478a11.56,11.56,0,0,0,3.34-2.118h1.635V24.638h3.278V26h-8.253V24.638Zm12.808-12.683a3.937,3.937,0,0,1,3.551,1.956,9.872,9.872,0,0,1,1.222,5.269,9.891,9.891,0,0,1-1.222,5.278,4.2,4.2,0,0,1-7.1,0,9.862,9.862,0,0,1-1.226-5.278,9.843,9.843,0,0,1,1.226-5.269A3.94,3.94,0,0,1,466.654,11.955ZM463.99,22.1l4.72-7.392a2.665,2.665,0,0,0-.971-1.1,2.235,2.235,0,0,0-1.085-.286,2.414,2.414,0,0,0-2.232,1.63,9.752,9.752,0,0,0-.765,4.135q0,.571.035,1.23A10.835,10.835,0,0,0,463.99,22.1Zm5.309-5.766-4.685,7.436a2.833,2.833,0,0,0,.87.962,1.969,1.969,0,0,0,1.1.321,2.458,2.458,0,0,0,2.373-1.868,11.681,11.681,0,0,0,.7-4.144A10.093,10.093,0,0,0,469.3,16.332Zm9.758-4.377a3.937,3.937,0,0,1,3.551,1.956,9.872,9.872,0,0,1,1.222,5.269,9.891,9.891,0,0,1-1.222,5.278,4.2,4.2,0,0,1-7.1,0,9.862,9.862,0,0,1-1.226-5.278,9.843,9.843,0,0,1,1.226-5.269A3.94,3.94,0,0,1,479.057,11.955ZM476.394,22.1l4.72-7.392a2.665,2.665,0,0,0-.971-1.1,2.235,2.235,0,0,0-1.085-.286,2.414,2.414,0,0,0-2.232,1.63,9.752,9.752,0,0,0-.765,4.135q0,.571.035,1.23A10.835,10.835,0,0,0,476.394,22.1Zm5.309-5.766-4.685,7.436a2.833,2.833,0,0,0,.87.962,1.969,1.969,0,0,0,1.1.321,2.458,2.458,0,0,0,2.373-1.868,11.681,11.681,0,0,0,.7-4.144A10.093,10.093,0,0,0,481.7,16.332ZM486.065,8Zm2.25,1.125H500.69V10.25h-5.625v4.5h6.75v1.125h-6.75V17H493.94v2.25h-1.125V21.5H491.69v1.125h-1.125V23.75H489.44v1.125h-1.125V26H487.19V24.875h1.125V23.75h1.125V22.625h1.125V21.5h1.125V19.25h1.125V17h1.125V15.875h-6.75V14.75h6.75v-4.5h-5.625ZM495.065,17h1.125v2.25h-1.125Zm1.125,2.25h1.125v1.125H496.19Zm1.125,1.125h1.125V21.5h-1.125ZM498.44,21.5h1.125v1.125H498.44Zm1.125,1.125h3.375V23.75h-1.125v1.125H500.69V23.75h-1.125ZM9.563,54H1.31V52.5a3.7,3.7,0,0,1,.237-1.244,5.336,5.336,0,0,1,.905-1.49q.668-.826,1.415-1.591l.932-.949q.281-.29,1.23-1.345a9.652,9.652,0,0,0,1.252-1.617,2.322,2.322,0,0,0,.3-1.107,1.547,1.547,0,0,0-.7-1.358A2.745,2.745,0,0,0,5.3,41.317a6.234,6.234,0,0,0-1.121.114,8.28,8.28,0,0,0-1.085.268q-.466.154-1.512.628v-1.45A8.7,8.7,0,0,1,3.8,40.153a10.868,10.868,0,0,1,1.833-.2,5.348,5.348,0,0,1,1.956.347,2.567,2.567,0,0,1,1.327,1.077,2.987,2.987,0,0,1,.435,1.556,3.769,3.769,0,0,1-.558,1.89,13.068,13.068,0,0,1-2.1,2.487l-1,.993-.844.826A10.1,10.1,0,0,0,3.551,50.7a3.569,3.569,0,0,0-.545,1.8H9.563Zm8.238.413a1.44,1.44,0,1,1,1.011-.422A1.379,1.379,0,0,1,17.8,54.413ZM24.808,36Zm3.375,0h1.125v1.125H41.683V38.25h-4.5v1.125h3.375V42.75H29.308V39.375h3.375V38.25H29.308v1.125H28.183V54H27.058V42.75H25.933v1.125H24.808V42.75h1.125V41.625h1.125v-2.25h1.125Zm5.625,2.25v1.125h2.25V38.25ZM30.433,40.5v1.125h2.25V40.5Zm3.375,0v1.125h2.25V40.5Zm3.375,0v1.125h2.25V40.5Zm-6.75,3.375h9V51.75H38.308v1.125H37.183V51.75h-4.5v1.125H31.558V54H30.433V52.875h1.125V51.75H30.433ZM31.558,45v1.125h6.75V45Zm0,2.25v1.125h6.75V47.25Zm0,2.25v1.125h6.75V49.5Zm6.75,3.375h1.125V54H38.308ZM44.41,36Zm4.5,0h1.125v3.375H48.91V40.5h4.5V45H52.285v2.25H51.16v1.125H50.035V49.5H48.91v1.125H47.785V51.75H46.66v1.125H45.535V54H44.41V52.875h1.125V51.75H46.66V50.625h1.125V49.5H48.91V48.375h1.125V47.25H51.16V45h1.125V41.625h-4.5V45H46.66v1.125H45.535V47.25H44.41V46.125h1.125V45H46.66V41.625h1.125v-2.25H48.91Zm5.625,0H55.66v5.625h1.125V42.75H55.66V54H54.535Zm2.25,6.75H57.91v1.125H56.785Zm1.125,1.125h1.125V45H60.16v2.25H59.035V46.125H57.91ZM47.785,45H48.91v1.125H47.785Zm1.125,1.125h1.125V47.25H48.91Zm16.754.782V40.359H73.3v1.573h-6v3.34h.281a7.279,7.279,0,0,1,4.535,1.23,3.971,3.971,0,0,1,1.591,3.313,4.35,4.35,0,0,1-2.452,4,5.421,5.421,0,0,1-2.487.593,11.866,11.866,0,0,1-3.375-.642V51.987a8.1,8.1,0,0,0,1.67.664,6.336,6.336,0,0,0,1.705.259,3.352,3.352,0,0,0,1.529-.378,2.72,2.72,0,0,0,1.16-1.1,2.959,2.959,0,0,0,.413-1.481,2.654,2.654,0,0,0-1.129-2.158,6.74,6.74,0,0,0-4.012-.883Zm11.244,3.551V50.3a3.1,3.1,0,0,1,.681-2,2.228,2.228,0,0,1,1.833-.848,2.8,2.8,0,0,1,.567.057,4.016,4.016,0,0,1,.628.193,9.216,9.216,0,0,1,1.055.532l1.063.589a3.554,3.554,0,0,0,1.591.536,1.074,1.074,0,0,0,.962-.47,1.815,1.815,0,0,0,.312-1.024v-.141h1.125v.141a2.625,2.625,0,0,1-2.593,2.865,5.066,5.066,0,0,1-2.3-.817l-.9-.519a3.615,3.615,0,0,0-1.644-.58,1.237,1.237,0,0,0-.655.185,1.287,1.287,0,0,0-.488.589,1.755,1.755,0,0,0-.185.712v.158ZM98.382,54H90.129V52.5a3.7,3.7,0,0,1,.237-1.244,5.336,5.336,0,0,1,.905-1.49q.668-.826,1.415-1.591l.932-.949q.281-.29,1.23-1.345A9.652,9.652,0,0,0,96.1,44.262a2.322,2.322,0,0,0,.3-1.107,1.547,1.547,0,0,0-.7-1.358,2.745,2.745,0,0,0-1.582-.479A6.234,6.234,0,0,0,93,41.432a8.28,8.28,0,0,0-1.085.268q-.466.154-1.512.628v-1.45a8.7,8.7,0,0,1,2.219-.725,10.868,10.868,0,0,1,1.833-.2,5.348,5.348,0,0,1,1.956.347,2.567,2.567,0,0,1,1.327,1.077,2.987,2.987,0,0,1,.435,1.556,3.769,3.769,0,0,1-.558,1.89,13.068,13.068,0,0,1-2.1,2.487l-1,.993-.844.826A10.1,10.1,0,0,0,92.37,50.7a3.569,3.569,0,0,0-.545,1.8h6.557Zm8.238-14.045a3.937,3.937,0,0,1,3.551,1.956,9.872,9.872,0,0,1,1.222,5.269,9.891,9.891,0,0,1-1.222,5.278,4.2,4.2,0,0,1-7.1,0,9.862,9.862,0,0,1-1.226-5.278,9.843,9.843,0,0,1,1.226-5.269A3.94,3.94,0,0,1,106.619,39.955ZM103.956,50.1l4.72-7.392a2.665,2.665,0,0,0-.971-1.1,2.235,2.235,0,0,0-1.085-.286,2.414,2.414,0,0,0-2.232,1.63,9.752,9.752,0,0,0-.765,4.135q0,.571.035,1.23A10.835,10.835,0,0,0,103.956,50.1Zm5.309-5.766-4.685,7.436a2.833,2.833,0,0,0,.87.962,1.969,1.969,0,0,0,1.1.321,2.458,2.458,0,0,0,2.373-1.868,11.681,11.681,0,0,0,.7-4.144A10.093,10.093,0,0,0,109.265,44.332Zm7.122-3.973a2.377,2.377,0,0,1,2,.949,4.546,4.546,0,0,1,0,4.926,2.593,2.593,0,0,1-4,0,4.523,4.523,0,0,1,0-4.926A2.389,2.389,0,0,1,116.386,40.359Zm0,1.1a1.082,1.082,0,0,0-1.037.681,4.272,4.272,0,0,0,0,3.27,1.127,1.127,0,0,0,2.07,0,4.219,4.219,0,0,0,0-3.27A1.085,1.085,0,0,0,116.386,41.458Zm-1.3,12.955h-1.441l9.325-14.458h1.45Zm6.557-7.233a2.468,2.468,0,0,1,1.986.914,3.547,3.547,0,0,1,.765,2.355,3.88,3.88,0,0,1-.809,2.606,2.491,2.491,0,0,1-1.96.945,2.434,2.434,0,0,1-1.907-.9,3.7,3.7,0,0,1-.782-2.509,3.885,3.885,0,0,1,.738-2.47A2.376,2.376,0,0,1,121.642,47.18Zm.026,1.09a1.088,1.088,0,0,0-1.028.668,3.808,3.808,0,0,0-.334,1.705,2.925,2.925,0,0,0,.4,1.709,1.161,1.161,0,0,0,.949.558,1.149,1.149,0,0,0,.976-.606,3.208,3.208,0,0,0,.4-1.749,3.668,3.668,0,0,0-.33-1.591A1.084,1.084,0,0,0,121.669,48.27Zm13.362-3.018a2.31,2.31,0,0,0-1.656.648,2.1,2.1,0,0,0-.684,1.62,2.06,2.06,0,0,0,.684,1.6,2.326,2.326,0,0,0,1.656.666,2.357,2.357,0,0,0,1.656-.666,2.239,2.239,0,0,0,0-3.222A2.341,2.341,0,0,0,135.03,45.252Zm0,.954a1.363,1.363,0,0,1,.954.378,1.256,1.256,0,0,1,.414.936,1.285,1.285,0,0,1-.414.936,1.363,1.363,0,0,1-.954.378,1.3,1.3,0,0,1-.954-.378,1.194,1.194,0,0,1-.414-.936,1.17,1.17,0,0,1,.414-.936A1.3,1.3,0,0,1,135.03,46.206ZM1.274,81.754V80.031a7.987,7.987,0,0,0,3.489,1.02A3.155,3.155,0,0,0,7,80.229a2.757,2.757,0,0,0,.883-2.114A2.639,2.639,0,0,0,6.913,76a5.169,5.169,0,0,0-3.3-.817H2.707V73.817H3.964a3.389,3.389,0,0,0,2.479-.769,2.376,2.376,0,0,0,.765-1.709A1.892,1.892,0,0,0,6.583,69.9a2.722,2.722,0,0,0-1.916-.584,7.14,7.14,0,0,0-3.12.817V68.579a8.809,8.809,0,0,1,3.059-.624,4.709,4.709,0,0,1,3.432.98,3.135,3.135,0,0,1,.945,2.237,3.29,3.29,0,0,1-.5,1.749A4.213,4.213,0,0,1,6.636,74.38a5.009,5.009,0,0,1,1.793.861,3.357,3.357,0,0,1,.918,1.2A3.754,3.754,0,0,1,9.659,78,4.03,4.03,0,0,1,8.24,81.165,5.353,5.353,0,0,1,4.57,82.413a11.439,11.439,0,0,1-1.419-.1A7.425,7.425,0,0,1,1.274,81.754Zm16.526.659a1.44,1.44,0,1,1,1.011-.422A1.379,1.379,0,0,1,17.8,82.413ZM24.808,64Zm3.375,0h1.125v4.5h2.25V67.375h2.25V66.25h-2.25V65.125h2.25V64h1.125v1.125h3.375V64h1.125v1.125h2.25V66.25h-2.25v1.125h2.25V70.75h-4.5v1.125H36.058V70.75h1.125V67.375h1.125V66.25H34.933v1.125h1.125V70.75H34.933v1.125H33.808V73h3.375V71.875h1.125V73h3.375v1.125h-4.5V75.25h3.375v1.125H37.183V77.5h3.375v1.125H37.183V79.75h4.5v1.125H33.808V82H32.683V74.125H31.558V75.25H30.433V74.125h1.125V73h1.125V71.875h1.125V70.75h-2.25V69.625h-2.25V70.75h1.125v1.125H29.308V82H28.183V73H27.058v2.25H25.933v1.125H24.808V75.25h1.125V73h1.125V70.75h1.125V69.625H24.808V68.5h3.375Zm4.5,4.5v1.125h2.25V68.5Zm5.625,0v1.125h2.25V68.5Zm-7.875,3.375h1.125V73H30.433Zm3.375,2.25V75.25h2.25V74.125Zm0,2.25V77.5h2.25V76.375Zm0,2.25V79.75h2.25V78.625ZM44.41,64Zm2.25,0h1.125v1.125H46.66Zm1.125,1.125H48.91V66.25H47.785Zm4.5,0H55.66V68.5H54.535v1.125H53.41V70.75H52.285v1.125H51.16V70.75h1.125V69.625H53.41V68.5h1.125V66.25h-2.25Zm4.5,0H57.91V66.25h1.125V65.125H60.16V66.25H59.035V68.5H60.16V67.375h1.125V68.5H60.16v2.25H59.035v1.125H53.41V70.75h5.625V69.625H57.91v-2.25H56.785ZM44.41,67.375h6.75V68.5H44.41Zm7.875,0H53.41V68.5H52.285Zm-6.75,2.25h4.5V70.75h-4.5ZM60.16,70.75h1.125v1.125H60.16ZM45.535,71.875h4.5V73h-4.5ZM53.41,73h5.625v5.625H57.91V79.75h3.375v1.125H51.16V79.75h3.375V78.625H55.66V79.75h1.125V78.625H57.91V77.5H54.535v1.125H53.41Zm-7.875,1.125h4.5v6.75H48.91V79.75H46.66v1.125H45.535Zm9,0v2.25H57.91v-2.25ZM46.66,75.25v3.375h2.25V75.25ZM64.012,64Zm3.375,0h1.125v1.125H80.887V66.25h-4.5v1.125h3.375V70.75H68.512V67.375h3.375V66.25H68.512v1.125H67.387V82H66.262V70.75H65.137v1.125H64.012V70.75h1.125V69.625h1.125v-2.25h1.125Zm5.625,2.25v1.125h2.25V66.25ZM69.637,68.5v1.125h2.25V68.5Zm3.375,0v1.125h2.25V68.5Zm3.375,0v1.125h2.25V68.5Zm-6.75,3.375h9V79.75H77.512v1.125H76.387V79.75h-4.5v1.125H70.762V82H69.637V80.875h1.125V79.75H69.637ZM70.762,73v1.125h6.75V73Zm0,2.25v1.125h6.75V75.25Zm0,2.25v1.125h6.75V77.5Zm6.75,3.375h1.125V82H77.512ZM83.614,64Zm3.375,0h1.125v4.5h2.25v1.125h-2.25V70.75h1.125v1.125H88.114V82H86.989V73H85.864v2.25H84.739v1.125H83.614V75.25h1.125V73h1.125V70.75h1.125V69.625H83.614V68.5h3.375Zm5.625,0h1.125v2.25h5.625V68.5H98.239v1.125H97.114V70.75H95.989v1.125H94.864V73H93.739v1.125h-2.25V75.25h-2.25V74.125h2.25V73h2.25V71.875h1.125V70.75h1.125V69.625h1.125V68.5h1.125V67.375H92.614V68.5h1.125v1.125h-2.25V70.75H90.364V69.625h1.125v-2.25h1.125Zm1.125,5.625h1.125V70.75H93.739Zm-4.5,2.25h1.125V73H89.239Zm6.75,0h2.25V73h-2.25ZM98.239,73h2.25v1.125h-2.25Zm-6.75,2.25h7.875V82H98.239V80.875H92.614V82H91.489Zm1.125,1.125V79.75h5.625V76.375Zm16-8.42a3.937,3.937,0,0,1,3.551,1.956,9.872,9.872,0,0,1,1.222,5.269,9.891,9.891,0,0,1-1.222,5.278,4.2,4.2,0,0,1-7.1,0,9.862,9.862,0,0,1-1.226-5.278,9.843,9.843,0,0,1,1.226-5.269A3.94,3.94,0,0,1,108.612,67.955ZM105.949,78.1l4.72-7.392a2.665,2.665,0,0,0-.971-1.1,2.235,2.235,0,0,0-1.085-.286,2.414,2.414,0,0,0-2.232,1.63,9.752,9.752,0,0,0-.765,4.135q0,.571.035,1.23A10.835,10.835,0,0,0,105.949,78.1Zm5.309-5.766-4.685,7.436a2.833,2.833,0,0,0,.87.962,1.969,1.969,0,0,0,1.1.321,2.458,2.458,0,0,0,2.373-1.868,11.681,11.681,0,0,0,.7-4.144A10.093,10.093,0,0,0,111.258,72.332Zm9.758,10.081a1.44,1.44,0,1,1,1.011-.422A1.379,1.379,0,0,1,121.016,82.413ZM130.827,82V80.778a7.694,7.694,0,0,1,.325-2.408,9.006,9.006,0,0,1,1.143-2.171q.817-1.2,1.31-1.846l1.424-1.881.51-.659a8.335,8.335,0,0,0,1-1.811h-7.075V68.359h8.657v1.09a2.8,2.8,0,0,1-.259,1.2,20.524,20.524,0,0,1-1.569,2.364q-.316.431-.624.861l-.914,1.283q-.879,1.239-1.3,1.978a6.492,6.492,0,0,0-.637,1.538,8.331,8.331,0,0,0-.215,2.1V82Zm9.6-18Zm2.25,2.25h12.375v1.125H142.677Zm-2.25,4.5H157.3v1.125h-5.625V79.75h-1.125V71.875h-3.375v4.5h-1.125v2.25h-1.125V79.75H143.8v1.125h-1.125V82h-2.25V80.875h2.25V79.75H143.8V78.625h1.125v-2.25h1.125v-4.5h-5.625Zm15.75,5.625H157.3v4.5h-5.625V79.75h4.5ZM160.029,64Zm7.875,0h1.125v5.625h6.75V70.75h-6.75v7.875H176.9V79.75h-15.75V78.625h6.75Zm11.727,0Zm0,2.25h16.875v1.125h-9V82h-1.125V67.375h-6.75Zm9,4.5h1.125v1.125h-1.125Zm1.125,1.125h1.125V73h-1.125ZM190.881,73h2.25v2.25h-1.125V74.125h-1.125Zm17.334,1.278a1.089,1.089,0,0,0-.846.306,1.044,1.044,0,0,0-.324.81,1.071,1.071,0,0,0,.306.792,1.047,1.047,0,0,0,.774.324.963.963,0,0,0,.4-.072,2.123,2.123,0,0,1-.378,1.206,2.6,2.6,0,0,1-1.152.792v.882a3.472,3.472,0,0,0,1.854-1.17,3.373,3.373,0,0,0,.7-2.106,2.091,2.091,0,0,0-.36-1.26A1.149,1.149,0,0,0,208.215,74.278ZM218.835,64Zm11.25,0h1.125v1.125h-1.125Zm-11.25,1.125h1.125V66.25h-1.125Zm4.5,0h4.5V70.75H224.46V73h3.375v5.625h-4.5V75.25H222.21v1.125h-1.125V79.75H219.96v1.125h-1.125V79.75h1.125V71.875h-1.125V70.75h2.25v4.5h1.125V73h1.125Zm7.875,0h1.125V66.25h2.25v1.125H228.96V66.25h2.25ZM219.96,66.25h1.125V68.5H219.96Zm4.5,0v3.375h2.25V66.25Zm4.5,2.25h1.125v1.125H228.96Zm4.5,0h1.125v1.125H233.46V70.75h2.25v1.125h-3.375v2.25h2.25V75.25h-2.25v4.5h3.375v1.125H221.085V79.75H231.21v-4.5h-2.25V74.125h2.25v-2.25h-2.25V70.75h1.125V69.625h1.125V70.75h1.125V69.625h1.125Zm-9,5.625V77.5h2.25V74.125ZM238.437,64Zm5.625,0h1.125v2.25h5.625V68.5h-1.125v1.125h3.375V75.25h-1.125V74.125h-2.25V79.75h-1.125V74.125h-1.125V75.25h-1.125V77.5h-1.125v1.125h-1.125V79.75h-1.125v1.125h-2.25V82h-2.25V80.875h2.25V79.75h2.25V78.625h1.125V77.5h1.125V75.25h1.125V74.125h-3.375V75.25h-1.125v-4.5h-1.125v1.125h-1.125V70.75h1.125V69.625h1.125V68.5h1.125V66.25h1.125Zm0,3.375V68.5h-1.125v1.125h5.625V68.5h1.125V67.375Zm-1.125,3.375V73h3.375V70.75Zm4.5,0V73h4.5V70.75Zm5.625,5.625h1.125v4.5h-4.5V79.75h3.375ZM258.039,64Zm7.875,0h1.125v5.625h6.75V70.75h-6.75v1.125h-1.125v2.25h-1.125v2.25h-1.125v2.25h-1.125V79.75h-1.125v1.125h-1.125V82h-1.125V80.875h1.125V79.75h1.125V78.625h1.125v-2.25h1.125v-2.25h1.125v-2.25h1.125V70.75h-6.75V69.625h6.75Zm1.125,7.875h1.125v2.25h-1.125Zm1.125,2.25h1.125v2.25h-1.125Zm-3.375,2.25h1.125V77.5h-1.125Zm4.5,0h1.125V77.5h-1.125ZM265.914,77.5h1.125v2.25h-1.125Zm4.5,0h1.125v1.125h-1.125Zm1.125,1.125h3.375V79.75h-1.125v1.125h-1.125V79.75h-1.125ZM277.641,64Zm3.375,0h1.125v1.125h12.375V66.25h-4.5v1.125h3.375V70.75h-11.25V67.375h3.375V66.25h-3.375v1.125h-1.125V82h-1.125V70.75h-1.125v1.125h-1.125V70.75h1.125V69.625h1.125v-2.25h1.125Zm5.625,2.25v1.125h2.25V66.25Zm-3.375,2.25v1.125h2.25V68.5Zm3.375,0v1.125h2.25V68.5Zm3.375,0v1.125h2.25V68.5Zm-6.75,3.375h9V79.75h-1.125v1.125h-1.125V79.75h-4.5v1.125h-1.125V82h-1.125V80.875h1.125V79.75h-1.125ZM284.391,73v1.125h6.75V73Zm0,2.25v1.125h6.75V75.25Zm0,2.25v1.125h6.75V77.5Zm6.75,3.375h1.125V82h-1.125ZM297.243,64Zm4.5,0h1.125v3.375h-1.125V68.5h4.5V73h-1.125v2.25h-1.125v1.125h-1.125V77.5h-1.125v1.125h-1.125V79.75h-1.125v1.125h-1.125V82h-1.125V80.875h1.125V79.75h1.125V78.625h1.125V77.5h1.125V76.375h1.125V75.25h1.125V73h1.125V69.625h-4.5V73h-1.125v1.125h-1.125V75.25h-1.125V74.125h1.125V73h1.125V69.625h1.125v-2.25h1.125Zm5.625,0h1.125v5.625h1.125V70.75h-1.125V82h-1.125Zm2.25,6.75h1.125v1.125h-1.125Zm1.125,1.125h1.125V73h1.125v2.25h-1.125V74.125h-1.125ZM300.618,73h1.125v1.125h-1.125Zm1.125,1.125h1.125V75.25h-1.125ZM316.845,64Zm9,0h1.125v3.375h5.625V68.5H326.97V73h-1.125V68.5H317.97V67.375h7.875Zm3.375,0h1.125v1.125H329.22Zm1.125,1.125h1.125V66.25h-1.125Zm-11.25,5.625h5.625v5.625h-5.625Zm11.25,0h1.125v3.375h-1.125v2.25H329.22v2.25h-1.125V79.75H326.97v1.125h-1.125V82h-2.25V80.875h2.25V79.75h1.125V78.625h1.125v-2.25h1.125v-2.25h1.125ZM320.22,71.875V75.25h3.375V71.875ZM326.97,73h1.125v3.375H326.97Zm4.5,3.375h1.125V82H331.47V80.875h-1.125V79.75h1.125Zm-9,1.125h3.375v1.125H322.47V79.75h-4.5V78.625h4.5Zm6.75,1.125h1.125V79.75H329.22ZM336.447,64Zm14.625,0H352.2V80.875h-1.125V82h-1.125V80.875h1.125Zm-13.5,1.125h9V66.25h-4.5v1.125h-1.125V68.5h-1.125v1.125H338.7V70.75h5.625V69.625h1.125V70.75h1.125V73h-1.125V71.875h-3.375V75.25h3.375v1.125h-3.375v2.25h4.5V79.75h-4.5v1.125H338.7V82h-1.125V80.875h-1.125V79.75h4.5V76.375h-3.375V75.25h3.375V71.875H338.7V73h-1.125V71.875h-1.125V70.75h1.125V69.625H338.7V68.5h1.125V67.375h1.125V66.25h-3.375Zm10.125,2.25h1.125V77.5H347.7ZM343.2,68.5h1.125v1.125H343.2Zm5.625,11.25h1.125v1.125h-1.125ZM356.049,64Zm2.25,0h1.125v3.375H362.8V64h1.125v3.375h1.125V68.5h-1.125v6.75h2.25V65.125H371.8v15.75h-1.125V82h-1.125V80.875h1.125V75.25H367.3v3.375h-1.125V79.75h-1.125v1.125h-1.125V82H362.8V80.875h1.125V79.75h1.125V78.625h1.125v-2.25H356.049V75.25h2.25V68.5h-1.125V67.375H358.3Zm9,2.25v3.375h3.375V66.25Zm-7.875,2.25v1.125H362.8V68.5Zm0,2.25v1.125H362.8V70.75Zm7.875,0v3.375h3.375V70.75ZM359.424,73v2.25H362.8V73ZM358.3,77.5h1.125v2.25H358.3v1.125h-1.125V82h-1.125V80.875h1.125V79.75H358.3Zm3.375,0H362.8v1.125h-1.125Zm1.125,1.125h1.125V79.75H362.8Zm5.625,1.125h1.125v1.125h-1.125ZM375.651,64Zm2.25,1.125h12.375V66.25h-5.625v4.5h6.75v1.125h-6.75V73h-1.125v2.25H382.4V77.5h-1.125v1.125h-1.125V79.75h-1.125v1.125H377.9V82h-1.125V80.875H377.9V79.75h1.125V78.625h1.125V77.5h1.125V75.25H382.4V73h1.125V71.875h-6.75V70.75h6.75v-4.5H377.9ZM384.651,73h1.125v2.25h-1.125Zm1.125,2.25H386.9v1.125h-1.125Zm1.125,1.125h1.125V77.5H386.9Zm1.125,1.125h1.125v1.125h-1.125Zm1.125,1.125h3.375V79.75H391.4v1.125h-1.125V79.75h-1.125ZM395.253,64Zm2.25,0h1.125v3.375H402V64h1.125v3.375h1.125V68.5h-1.125v6.75h2.25V65.125H411v15.75h-1.125V82h-1.125V80.875h1.125V75.25H406.5v3.375h-1.125V79.75h-1.125v1.125h-1.125V82H402V80.875h1.125V79.75h1.125V78.625h1.125v-2.25H395.253V75.25h2.25V68.5h-1.125V67.375H397.5Zm9,2.25v3.375h3.375V66.25Zm-7.875,2.25v1.125H402V68.5Zm0,2.25v1.125H402V70.75Zm7.875,0v3.375h3.375V70.75ZM398.628,73v2.25H402V73ZM397.5,77.5h1.125v2.25H397.5v1.125h-1.125V82h-1.125V80.875h1.125V79.75H397.5Zm3.375,0H402v1.125h-1.125ZM402,78.625h1.125V79.75H402Zm5.625,1.125h1.125v1.125h-1.125ZM414.855,64Zm3.375,0h1.125v4.5h2.25v1.125h-2.25v2.25h1.125V70.75h3.375V69.625h1.125V70.75h2.25V69.625h1.125V68.5h1.125v1.125h-1.125V70.75h3.375v1.125H426.1v2.25h5.625V75.25h-2.25V77.5h-1.125v1.125H427.23V79.75h-2.25v1.125h-2.25V82h-2.25V80.875h2.25V79.75h2.25V78.625h2.25V77.5h1.125V75.25H424.98v1.125h-1.125V77.5H422.73V76.375h1.125V75.25H420.48V74.125h4.5v-2.25h-4.5V73h-1.125v7.875H418.23V82H417.1V80.875h1.125v-6.75H417.1V75.25h-2.25V74.125h2.25V73h1.125V69.625h-3.375V68.5h3.375Zm6.75,0H426.1v1.125H424.98Zm1.125,1.125h1.125V66.25H430.6v1.125h-9V66.25h4.5ZM422.73,68.5h1.125v1.125H422.73Zm1.125,9h1.125v1.125h-1.125Zm-7.875,2.25H417.1v1.125H415.98Zm11.25,0h2.25v1.125h-2.25Zm2.25,1.125H430.6V82H429.48ZM434.457,64Zm12.375,0h1.125v1.125h1.125V66.25h-4.5v1.125h-2.25v2.25h7.875V70.75h-3.375v7.875h-1.125V70.75h-3.375V77.5h-1.125v1.125h-1.125V79.75h-1.125V78.625h1.125V77.5h1.125V66.25h3.375V65.125h2.25Zm-10.125,1.125h1.125V66.25h-1.125Zm1.125,1.125h1.125V68.5h-1.125Zm-3.375,4.5h4.5v7.875h-1.125V79.75h-1.125v1.125h-1.125V79.75h1.125V78.625h1.125v-6.75h-3.375Zm5.625,9h11.25v1.125h-11.25ZM454.059,64Zm3.375,0h1.125v2.25h-1.125v1.125h4.5V70.75h1.125V68.5h1.125V64h1.125v3.375h4.5V79.75h-1.125v1.125h-1.125V82h-1.125V80.875h1.125V79.75h1.125V68.5h-4.5v2.25h-1.125v1.125h-1.125v9h-1.125V79.75h-4.5v1.125h-1.125v-13.5h1.125V66.25h1.125Zm-1.125,4.5V73h4.5V68.5Zm7.875,3.375h1.125V73h-1.125ZM465.309,73h1.125v2.25h-1.125Zm-9,1.125v4.5h4.5v-4.5Zm9,5.625h1.125v1.125h-1.125ZM473.661,64Zm3.375,0h1.125v4.5h2.25V67.375h2.25V66.25h-2.25V65.125h2.25V64h1.125v1.125h3.375V64h1.125v1.125h2.25V66.25h-2.25v1.125h2.25V70.75h-4.5v1.125h-1.125V70.75h1.125V67.375h1.125V66.25h-3.375v1.125h1.125V70.75h-1.125v1.125h-1.125V73h3.375V71.875h1.125V73h3.375v1.125h-4.5V75.25h3.375v1.125h-3.375V77.5h3.375v1.125h-3.375V79.75h4.5v1.125h-7.875V82h-1.125V74.125h-1.125V75.25h-1.125V74.125h1.125V73h1.125V71.875h1.125V70.75h-2.25V69.625h-2.25V70.75h1.125v1.125h-1.125V82h-1.125V73h-1.125v2.25h-1.125v1.125h-1.125V75.25h1.125V73h1.125V70.75h1.125V69.625h-3.375V68.5h3.375Zm4.5,4.5v1.125h2.25V68.5Zm5.625,0v1.125h2.25V68.5Zm-7.875,3.375h1.125V73h-1.125Zm3.375,2.25V75.25h2.25V74.125Zm0,2.25V77.5h2.25V76.375Zm0,2.25V79.75h2.25V78.625ZM493.263,64Zm2.25,0h1.125v1.125h-1.125Zm1.125,1.125h1.125V66.25h-1.125Zm4.5,0h3.375V68.5h-1.125v1.125h-1.125V70.75h-1.125v1.125h-1.125V70.75h1.125V69.625h1.125V68.5h1.125V66.25h-2.25Zm4.5,0h1.125V66.25h1.125V65.125h1.125V66.25h-1.125V68.5h1.125V67.375h1.125V68.5h-1.125v2.25h-1.125v1.125h-5.625V70.75h5.625V69.625h-1.125v-2.25h-1.125Zm-12.375,2.25h6.75V68.5h-6.75Zm7.875,0h1.125V68.5h-1.125Zm-6.75,2.25h4.5V70.75h-4.5Zm14.625,1.125h1.125v1.125h-1.125Zm-14.625,1.125h4.5V73h-4.5ZM502.263,73h5.625v5.625h-1.125V79.75h3.375v1.125H500.013V79.75h3.375V78.625h1.125V79.75h1.125V78.625h1.125V77.5h-3.375v1.125h-1.125Zm-7.875,1.125h4.5v6.75h-1.125V79.75h-2.25v1.125h-1.125Zm9,0v2.25h3.375v-2.25Zm-7.875,1.125v3.375h2.25V75.25Z" transform="translate(-671 6165)" fill="#fff"/>
    <g id="Group_41415" data-name="Group 41415" transform="translate(-89.219 6197.026)">
      <g id="Group_38550" data-name="Group 38550">
        <rect id="Rectangle_26821" data-name="Rectangle 26821" width="41.186" height="19.769" transform="translate(15.884 78.713)" fill="#fff"/>
        <path id="Path_51924" data-name="Path 51924" d="M-1662.11,4242.81v6.312h5.41v10.888h-5.41v22.823h-4.518v3.783h-12.726v6.1h-20.633v-6.1h-15.6v-3.783h-6.474V4242.81h22.074V4238.8h22.909v4.009Z" transform="translate(1726.998 -4212.97)" fill="#a7633b"/>
        <path id="Path_51920" data-name="Path 51920" d="M-1650.661,4237.106v-19.292h-2.941v-5.625h-5.262v-5.746h-46.144v5.746h-9.157v5.625h-6.324v19.292h27.578v-4.482h22.412v4.482Z" transform="translate(1720.49 -4206.442)" fill="#392028"/>
        <path id="Path_51921" data-name="Path 51921" d="M-1663.653,4271.613v5.468h-5.211v6.305h-22.527v-6.305h-4.415v-5.468Z" transform="translate(1713.148 -4217.931)" fill="#fff"/>
        <path id="Path_51922" data-name="Path 51922" d="M-1690.772,4251.222v10.531h-5.032v-10.531Z" transform="translate(1740.267 -4214.336)" fill="#2f222f"/>
        <path id="Path_51923" data-name="Path 51923" d="M-1656.765,4251.222v10.045h-5.808v-10.045Z" transform="translate(1678.886 -4214.336)" fill="#2f222f"/>
        <path id="Path_51926" data-name="Path 51926" d="M-1686.42,4304.252h10.935v5.482h4.994V4325.6h6.356v17.293h-11.35v-10.75h-4.936v10.75h-42.439v-33.158h3.3v-5.482h11.815V4314l2.1,2.1v4.778h12.5v-11.148h6.717Z" transform="translate(1734.268 -4225.332)" fill="#474745"/>
        <path id="Path_51927" data-name="Path 51927" d="M-1681.824,4351.162v4.968h5.311v15.852h4.674v10.874h-9.984v-10.874h-5.489v-11.463h-16.632v22.337h-11.25v-31.694Z" transform="translate(1735.659 -4233.602)" fill="#6a6a68"/>
        <path id="Path_51928" data-name="Path 51928" d="M-1712.513,4351.162v4.534h-5.4v5.444h-4.944v-9.978Z" transform="translate(1782.646 -4233.602)" fill="#a7633b"/>
        <path id="Path_51929" data-name="Path 51929" d="M-1652.945,4351.162h-9.616v9.42h3.734v-5.5h5.882Z" transform="translate(1673.409 -4233.602)" fill="#a7633b"/>
        <path id="Path_51930" data-name="Path 51930" d="M-1704.989,4389.639v10.514H-1715.2v-10.514Z" transform="translate(1768.809 -4240.384)" fill="#502911"/>
        <path id="Path_51931" data-name="Path 51931" d="M-1658.962,4389.639V4400.4h-17.326v-5.5h5.829v-5.259Z" transform="translate(1690.734 -4240.384)" fill="#502911"/>
        <path id="Path_51925" data-name="Path 51925" d="M-1676.444,4304.252v5.843h-6.406v16.417h-6.845v-22.26Z" transform="translate(1719.259 -4225.332)" fill="#2950a7"/>
      </g>
    </g>
    <g id="Group_41416" data-name="Group 41416" transform="translate(-401.974 6626.352) rotate(-105)">
      <rect id="Rectangle_33719" data-name="Rectangle 33719" width="4.01" height="12.03" transform="translate(203.793 434.309)" fill="#f6757a"/>
      <rect id="Rectangle_33720" data-name="Rectangle 33720" width="4.01" height="8.02" transform="translate(203.793 446.338)" fill="#b86f50"/>
      <rect id="Rectangle_33721" data-name="Rectangle 33721" width="12.03" height="4.01" transform="translate(191.763 438.319)" fill="#ecf0f1"/>
      <rect id="Rectangle_33722" data-name="Rectangle 33722" width="8.02" height="4.01" transform="translate(147.654 442.329)" fill="#262b44"/>
      <rect id="Rectangle_33723" data-name="Rectangle 33723" width="12.03" height="4.01" transform="translate(191.763 446.338)" fill="#8b9bb4"/>
      <rect id="Rectangle_33724" data-name="Rectangle 33724" width="28.069" height="4.01" transform="translate(163.694 450.348)" fill="#be4a2f"/>
      <rect id="Rectangle_33725" data-name="Rectangle 33725" width="12.03" height="4.01" transform="translate(191.763 450.348)" fill="#c0cbdc"/>
      <rect id="Rectangle_33726" data-name="Rectangle 33726" width="12.03" height="4.01" transform="translate(191.763 442.329)" fill="#c0cbdc"/>
      <rect id="Rectangle_33727" data-name="Rectangle 33727" width="12.03" height="4.01" transform="translate(191.763 434.309)" fill="#c0cbdc"/>
      <rect id="Rectangle_33729" data-name="Rectangle 33729" width="28.069" height="8.02" transform="translate(163.694 442.329)" fill="#f77622"/>
      <path id="Path_53371" data-name="Path 53371" d="M91.02,313.03V301H87.01v4.01H83v8.02Z" transform="translate(72.674 133.309)" fill="#e4a672"/>
      <path id="Path_53372" data-name="Path 53372" d="M91.02,312.02V304H83v4.01h4.01v4.01Z" transform="translate(72.674 142.338)" fill="#d77643"/>
      <rect id="Rectangle_33730" data-name="Rectangle 33730" width="28.069" height="4.01" transform="translate(163.694 434.309)" fill="#feae34"/>
      <rect id="Rectangle_33731" data-name="Rectangle 33731" width="28.069" height="4.01" transform="translate(163.694 438.319)" fill="#fee761"/>
    </g>
  </g>
</svg>
