<svg xmlns="http://www.w3.org/2000/svg" width="829.834" height="122" viewBox="0 0 829.834 122">
  <g id="g5-q" transform="translate(-268 -82)">
    <g id="Exclusion_15" data-name="Exclusion 15" transform="translate(752 4211.001)" fill="#2e817f">
      <path d="M 293.4356079101562 -4009.00048828125 L -431.4355773925781 -4009.00048828125 L -431.4355773925781 -4009.405029296875 L -431.4355773925781 -4011.405029296875 L -433.4355773925781 -4011.405029296875 L -437.0000915527344 -4011.405029296875 L -437.0000915527344 -4100.59521484375 L -433.4355773925781 -4100.59521484375 L -431.4355773925781 -4100.59521484375 L -431.4355773925781 -4102.59521484375 L -431.4355773925781 -4103.00048828125 L 293.4356079101562 -4103.00048828125 L 293.4356079101562 -4102.59521484375 L 293.4356079101562 -4100.59521484375 L 295.4356079101562 -4100.59521484375 L 298.9999084472656 -4100.59521484375 L 298.9998168945312 -4011.405029296875 L 295.4356079101562 -4011.405029296875 L 293.4356079101562 -4011.405029296875 L 293.4356079101562 -4009.405029296875 L 293.4356079101562 -4009.00048828125 Z" stroke="none"/>
      <path d="M 291.4356079101562 -4011.00048828125 L 291.4356079101562 -4013.405029296875 L 295.4356079101562 -4013.405029296875 L 296.9998168945312 -4013.405029296875 L 296.9999084472656 -4098.59521484375 L 295.4356079101562 -4098.59521484375 L 291.4356079101562 -4098.59521484375 L 291.4356079101562 -4101.00048828125 L -429.4355773925781 -4101.00048828125 L -429.4355773925781 -4098.59521484375 L -433.4355773925781 -4098.59521484375 L -435.0000915527344 -4098.59521484375 L -435.0000915527344 -4013.405029296875 L -433.4355773925781 -4013.405029296875 L -429.4355773925781 -4013.405029296875 L -429.4355773925781 -4011.00048828125 L 291.4356079101562 -4011.00048828125 M 295.4356079101562 -4007.00048828125 L -433.4355773925781 -4007.00048828125 L -433.4355773925781 -4009.405029296875 L -439.0000915527344 -4009.405029296875 L -439.0000915527344 -4102.59521484375 L -433.4355773925781 -4102.59521484375 L -433.4355773925781 -4105.00048828125 L 295.4356079101562 -4105.00048828125 L 295.4356079101562 -4102.59521484375 L 300.9999084472656 -4102.59521484375 L 300.9998168945312 -4009.405029296875 L 295.4356079101562 -4009.405029296875 L 295.4356079101562 -4007.0009765625 L 295.4356079101562 -4007.00048828125 Z" stroke="none" fill="#2f211e"/>
    </g>
    <g id="Group_41327" data-name="Group 41327" transform="translate(123 -426)">
      <path id="Path_53380" data-name="Path 53380" d="M214.334,509H153.083v4.083H149v24.5h4.083v4.083h61.251v-4.083h4.083v-24.5h-4.083Zm-4.083,20.417H198v-4.083h12.25Zm-40.834,0h-12.25v-4.083h12.25Zm8.167,8.167V533.5H173.5V517.167h4.083v-4.083h12.25v4.083h4.083V533.5h-4.083v4.083Z" transform="translate(12.333 3.083)" fill="#ecf0f1"/>
      <rect id="Rectangle_33779" data-name="Rectangle 33779" width="12.25" height="4.083" transform="translate(210.334 528.417)" fill="#8b9bb4"/>
      <rect id="Rectangle_33780" data-name="Rectangle 33780" width="12.25" height="4.083" transform="translate(169.5 528.417)" fill="#8b9bb4"/>
      <path id="Path_53381" data-name="Path 53381" d="M160.083,511v4.083H156v12.25h12.25v-12.25h-4.083V511Z" transform="translate(33.917 9.25)" fill="#8b9bb4"/>
      <rect id="Rectangle_33781" data-name="Rectangle 33781" width="12.25" height="4.083" transform="translate(189.917 536.584)" fill="#5a6988"/>
      <path id="Path_53382" data-name="Path 53382" d="M171.333,510h-12.25v4.083H155v16.334h4.083v-12.25h4.083v-4.083h4.083v4.083h4.083v12.25h4.083V514.083h-4.083Z" transform="translate(30.834 6.167)" fill="#5a6988"/>
      <path id="Path_53383" data-name="Path 53383" d="M157.25,508v8.167H145V557h77.584v-8.167h12.25V508Zm-4.083,44.917v-4.083h-4.083v-24.5h4.083V520.25h4.083v28.584h53.084v4.083Zm77.584-12.25h-4.083v4.083H165.417v-4.083h-4.083v-24.5h4.083v-4.083h61.251v4.083h4.083Z" fill="#5a6988"/>
      <path id="Path_53384" data-name="Path 53384" d="M154.167,539.584V511h-4.083v4.083H146v24.5h4.083v4.083h57.167v-4.083Z" transform="translate(3.083 9.25)" fill="#c0cbdc"/>
    </g>
    <g id="Group_41335" data-name="Group 41335" transform="translate(863 -426)">
      <path id="Path_53380-2" data-name="Path 53380" d="M214.334,509H153.083v4.083H149v24.5h4.083v4.083h61.251v-4.083h4.083v-24.5h-4.083Zm-4.083,20.417H198v-4.083h12.25Zm-40.834,0h-12.25v-4.083h12.25Zm8.167,8.167V533.5H173.5V517.167h4.083v-4.083h12.25v4.083h4.083V533.5h-4.083v4.083Z" transform="translate(12.333 3.083)" fill="#ecf0f1"/>
      <rect id="Rectangle_33779-2" data-name="Rectangle 33779" width="12.25" height="4.083" transform="translate(210.334 528.417)" fill="#8b9bb4"/>
      <rect id="Rectangle_33780-2" data-name="Rectangle 33780" width="12.25" height="4.083" transform="translate(169.5 528.417)" fill="#8b9bb4"/>
      <path id="Path_53381-2" data-name="Path 53381" d="M160.083,511v4.083H156v12.25h12.25v-12.25h-4.083V511Z" transform="translate(33.917 9.25)" fill="#8b9bb4"/>
      <rect id="Rectangle_33781-2" data-name="Rectangle 33781" width="12.25" height="4.083" transform="translate(189.917 536.584)" fill="#5a6988"/>
      <path id="Path_53382-2" data-name="Path 53382" d="M171.333,510h-12.25v4.083H155v16.334h4.083v-12.25h4.083v-4.083h4.083v4.083h4.083v12.25h4.083V514.083h-4.083Z" transform="translate(30.834 6.167)" fill="#5a6988"/>
      <path id="Path_53383-2" data-name="Path 53383" d="M157.25,508v8.167H145V557h77.584v-8.167h12.25V508Zm-4.083,44.917v-4.083h-4.083v-24.5h4.083V520.25h4.083v28.584h53.084v4.083Zm77.584-12.25h-4.083v4.083H165.417v-4.083h-4.083v-24.5h4.083v-4.083h61.251v4.083h4.083Z" fill="#5a6988"/>
      <path id="Path_53384-2" data-name="Path 53384" d="M154.167,539.584V511h-4.083v4.083H146v24.5h4.083v4.083h57.167v-4.083Z" transform="translate(3.083 9.25)" fill="#c0cbdc"/>
    </g>
    <path id="Path_54375" data-name="Path 54375" d="M14.875,0H2.037V-2.338a5.762,5.762,0,0,1,.369-1.935A8.3,8.3,0,0,1,3.814-6.59q1.039-1.285,2.2-2.475l1.449-1.477q.437-.451,1.914-2.092a15.014,15.014,0,0,0,1.948-2.516,3.612,3.612,0,0,0,.472-1.723,2.407,2.407,0,0,0-1.094-2.112,4.271,4.271,0,0,0-2.461-.745,9.7,9.7,0,0,0-1.743.178,12.881,12.881,0,0,0-1.688.417q-.725.239-2.352.978v-2.256A13.529,13.529,0,0,1,5.913-21.54a16.905,16.905,0,0,1,2.851-.308,8.319,8.319,0,0,1,3.042.54,3.994,3.994,0,0,1,2.064,1.675,4.647,4.647,0,0,1,.677,2.42,5.863,5.863,0,0,1-.868,2.939A20.328,20.328,0,0,1,10.4-10.4L8.846-8.859,7.533-7.574a15.712,15.712,0,0,0-2.01,2.434,5.551,5.551,0,0,0-.848,2.8h10.2ZM28,.643a2.145,2.145,0,0,1-1.572-.656,2.145,2.145,0,0,1-.656-1.572,2.127,2.127,0,0,1,.663-1.579A2.163,2.163,0,0,1,28-3.814a2.163,2.163,0,0,1,1.565.649,2.127,2.127,0,0,1,.663,1.579A2.145,2.145,0,0,1,29.57-.014,2.145,2.145,0,0,1,28,.643ZM70.005-28Zm5.25,0h1.75v1.75h-1.75Zm1.75,1.75h1.75v1.75h5.25v1.75H71.755V-24.5h5.25Zm14,0h3.5v1.75h-3.5v1.75h-3.5v5.25h8.75v1.75h-3.5V0h-1.75V-15.75h-3.5V-7h-1.75v3.5h-1.75v1.75h-1.75V0h-1.75V-1.75h1.75V-3.5h1.75V-5.25h-1.75V-7h3.5V-24.5h5.25ZM73.505-21h1.75v1.75h-1.75Zm7,0h1.75v1.75h-1.75v1.75h3.5v1.75h-5.25v3.5h5.25v1.75h-5.25v8.75h-1.75V0h-1.75V-1.75h1.75V-10.5h-5.25v-1.75h5.25v-3.5h-7V-17.5h5.25v-1.75h1.75v1.75h1.75v-1.75h1.75Zm-7,12.25h1.75V-7h-1.75v1.75h-1.75V-3.5h-1.75V-5.25h1.75V-7h1.75Zm7,0h1.75V-7h-1.75Zm-7,5.25h1.75v1.75h-1.75Zm27.3-24.5Zm19.25,0h1.75v1.75h1.75v1.75h-8.75v5.25h8.75v1.75h-8.75v5.25h12.25v1.75h-12.25v8.75h-1.75V0h-1.75V-1.75h1.75V-10.5h-12.25v-1.75h12.25V-17.5h-8.75v-1.75h8.75v-3.5h-10.5V-24.5h12.25v-1.75h5.25Zm-10.5,24.5h1.75v1.75h-1.75ZM131.605-28Zm7,0h1.75v7h5.25v10.5h-1.75V-7h-1.75v1.75h-1.75V-3.5h-1.75v1.75h-3.5V0h-3.5V-1.75h3.5V-3.5h3.5V-5.25h1.75V-7h1.75v-3.5h1.75v-8.75h-5.25v7h-1.75v1.75h-1.75v-1.75h1.75v-7h-3.5V-21h5.25Zm8.75,5.25h8.75V-3.5h-1.75V-5.25h-5.25V-3.5h-1.75Zm1.75,1.75V-7h5.25V-21Zm-12.25,10.5h1.75v1.75h-1.75Zm1.75,1.75h1.75V-7h-1.75Zm3.5,3.5h1.75V-3.5h-1.75Zm1.75,1.75h1.75V0h-1.75ZM162.405-28Zm7,0h1.75v5.25h-1.75V0h-1.75V-17.5h-1.75v1.75h-1.75V-14h-1.75v-1.75h1.75V-17.5h1.75v-1.75h1.75v-3.5h1.75Zm3.5,3.5h15.75v1.75h-3.5v21h-1.75V0h-1.75V-1.75h1.75v-21h-10.5Zm0,5.25h7V-7h-1.75V-8.75h-3.5V-7h-1.75Zm1.75,1.75v7h3.5v-7Zm5.25,14h1.75v1.75h-1.75Zm13.3-24.5Zm5.25,0h1.75v7h3.5v1.75h-3.5v3.5h1.75V-14h-1.75v3.5h3.5v-1.75h1.75V-17.5h-1.75v-1.75h1.75v-7h1.75V-7h-1.75v3.5h-1.75v1.75h-1.75V0h-1.75V-1.75h1.75V-3.5h1.75V-7h1.75v-3.5h-1.75v1.75h-3.5v7h-1.75V0h-1.75V-1.75h1.75v-10.5h-1.75v1.75h-3.5v-1.75h3.5V-14h1.75v-5.25h-5.25V-21h5.25Zm12.25,0h1.75v10.5h1.75v-1.75h1.75V-21h1.75v3.5h-3.5v1.75h-1.75V-14h1.75v1.75h-1.75V-3.5h-1.75Zm3.5,15.75h1.75v1.75h-1.75Zm1.75,1.75h1.75v1.75h-1.75Zm1.75,3.5h1.75v5.25h-7V-3.5h5.25Zm-22.75,3.5h1.75v1.75h-1.75ZM224.005-28Zm3.5,1.75h1.75v1.75h-1.75Zm5.25,0h7V-21h-5.25v3.5h-1.75Zm8.75,0h7V-21h-5.25v3.5h-1.75Zm-12.25,1.75h1.75V-21h-1.75Zm5.25,0v1.75h3.5V-24.5Zm8.75,0v1.75h3.5V-24.5Zm-5.25,5.25h1.75v3.5h-1.75V-14h5.25v-3.5h3.5v-1.75h1.75v3.5h-3.5V-14h3.5v1.75h-3.5v1.75h5.25v1.75h-5.25V-7h-1.75V-8.75h-5.25V-7h-1.75v1.75h-1.75V-7h1.75V-8.75h-5.25v3.5h-1.75V-3.5h-1.75v1.75h-1.75V-3.5h1.75V-5.25h1.75v-10.5h-5.25V-17.5h7v7h5.25v-1.75h-3.5V-14h3.5v-1.75h-1.75V-17.5h3.5Zm0,7v1.75h5.25v-1.75Zm7,5.25h1.75v1.75h-1.75Zm-14,1.75h1.75V-3.5h-1.75Zm1.75,1.75h17.5v1.75h-17.5ZM254.805-28Zm5.25,0h1.75v7h3.5v-1.75h3.5V-24.5h-3.5v-1.75h3.5V-28h1.75v1.75h5.25V-28h1.75v1.75h3.5v1.75h-3.5v1.75h3.5v5.25h-7v1.75h-1.75V-17.5h1.75v-5.25h1.75V-24.5h-5.25v1.75h1.75v5.25h-1.75v1.75h-1.75V-14h5.25v-1.75h1.75V-14h5.25v1.75h-7v1.75h5.25v1.75h-5.25V-7h5.25v1.75h-5.25V-3.5h7v1.75h-12.25V0h-1.75V-12.25h-1.75v1.75h-1.75v-1.75h1.75V-14h1.75v-1.75h1.75V-17.5h-3.5v-1.75h-3.5v1.75h1.75v1.75h-1.75V0h-1.75V-14h-1.75v3.5h-1.75v1.75h-1.75V-10.5h1.75V-14h1.75v-3.5h1.75v-1.75h-5.25V-21h5.25Zm7,7v1.75h3.5V-21Zm8.75,0v1.75h3.5V-21Zm-12.25,5.25h1.75V-14h-1.75Zm5.25,3.5v1.75h3.5v-1.75Zm0,3.5V-7h3.5V-8.75Zm0,3.5V-3.5h3.5V-5.25ZM285.605-28Zm3.5,0h1.75v1.75h-1.75Zm1.75,1.75h1.75v1.75h-1.75Zm7,0h5.25V-21h-1.75v1.75h-1.75v1.75h-1.75v1.75h-1.75V-17.5h1.75v-1.75h1.75V-21h1.75v-3.5h-3.5Zm7,0h1.75v1.75h1.75v-1.75h1.75v1.75h-1.75V-21h1.75v-1.75h1.75V-21h-1.75v3.5h-1.75v1.75h-8.75V-17.5h8.75v-1.75h-1.75v-3.5h-1.75Zm-19.25,3.5h10.5V-21h-10.5Zm12.25,0h1.75V-21h-1.75Zm-10.5,3.5h7v1.75h-7Zm22.75,1.75h1.75v1.75h-1.75Zm-22.75,1.75h7V-14h-7ZM299.605-14h8.75v8.75h-1.75V-3.5h5.25v1.75h-15.75V-3.5h5.25V-5.25h1.75V-3.5h1.75V-5.25h1.75V-7h-5.25v1.75h-1.75Zm-12.25,1.75h7v10.5h-1.75V-3.5h-3.5v1.75h-1.75Zm14,0v3.5h5.25v-3.5Zm-12.25,1.75v5.25h3.5V-10.5Z" transform="translate(526 168)" fill="#fff"/>
  </g>
</svg>
