<svg xmlns="http://www.w3.org/2000/svg" width="200" height="60" viewBox="0 0 200 60">
  <g id="g6-a" transform="translate(-2206 -5975)">
    <g id="Path_54330" data-name="Path 54330" transform="translate(2206 5975)" fill="#fff">
      <path d="M 196.4962310791016 58 L 3.504085779190063 58 L 3.50410532951355 56.52699661254883 L 2.000025510787964 56.52699661254883 L 2.000000953674316 3.472234964370728 L 3.504026412963867 3.472234964370728 L 3.504045724868774 1.999998092651367 L 196.4961395263672 1.999998092651367 L 196.4960784912109 3.472234964370728 L 198 3.472234964370728 L 197.9999542236328 56.52778625488281 L 196.4962921142578 56.52778625488281 L 196.4962310791016 58 Z" stroke="none"/>
      <path d="M 194.4962921142578 56 L 194.4963531494141 54.52779388427734 L 195.9999694824219 54.52779388427734 L 196 5.472233295440674 L 194.4960021972656 5.472233295440674 L 194.4960479736328 3.999998092651367 L 5.504058837890625 3.999998092651367 L 5.504058837890625 5.472233295440674 L 4.000001907348633 5.472233295440674 L 4.000027179718018 54.52699661254883 L 5.504058837890625 54.52699661254883 L 5.504058837890625 56 L 194.4962921142578 56 M 198.4962005615234 60 L 198.4961395263672 60 L 198.4958801269531 60 L 198.4961395263672 60 L 198.4962005615234 60 Z M 198.4962005615234 60 L 1.504058837890625 60 L 1.504058837890625 58.52699661254883 L 2.941176535387058e-05 58.52699661254883 L 0 1.472233414649963 L 1.504058837890625 1.472233414649963 L 1.504058837890625 -1.9073486328125e-06 L 198.4962005615234 -1.9073486328125e-06 L 198.4961395263672 1.472233414649963 L 200 1.472233414649963 L 199.9999694824219 58.52779388427734 L 198.4962005615234 58.52779388427734 L 198.4961395263672 59.99917602539062 L 198.4961395263672 60 Z" stroke="none" fill="#232323"/>
    </g>
    <path id="Path_54334" data-name="Path 54334" d="M2,0H.29l4.2-13.641h1.8L10.521,0H8.648L7.717-3h-4.8ZM3.34-4.359H7.321L5.678-9.536l-.387-1.371L4.948-9.536ZM18,.413a1.379,1.379,0,0,1-1.011-.422,1.379,1.379,0,0,1-.422-1.011,1.368,1.368,0,0,1,.426-1.015A1.391,1.391,0,0,1,18-2.452,1.391,1.391,0,0,1,19-2.035a1.368,1.368,0,0,1,.426,1.015,1.379,1.379,0,0,1-.422,1.011A1.379,1.379,0,0,1,18,.413ZM35.813-2.206a5.283,5.283,0,0,1-1.8,1.854,3.839,3.839,0,0,1-1.929.624,2.947,2.947,0,0,1-2.21-1.063,4.623,4.623,0,0,1-.98-3.226,6.889,6.889,0,0,1,.65-3.045,5.477,5.477,0,0,1,1.74-2.118,4.526,4.526,0,0,1,2.7-.778q.466,0,1.406.1.141.018.422.044h1.644v6.935A9.317,9.317,0,0,0,37.826,0H36.121A15.3,15.3,0,0,1,35.813-2.206Zm0-1.942v-4.21A6.392,6.392,0,0,0,34.2-8.587a3.186,3.186,0,0,0-2.518,1.169,4.714,4.714,0,0,0-1.006,3.182,3.68,3.68,0,0,0,.549,2.2,1.558,1.558,0,0,0,1.252.743,2.743,2.743,0,0,0,1.688-.773A7.33,7.33,0,0,0,35.813-4.148ZM42.6-4.843V-6.205h6.82v1.362ZM62.828-.281A9.8,9.8,0,0,1,59.7.272a5.039,5.039,0,0,1-2.624-.681,4.81,4.81,0,0,1-1.789-1.846,5.4,5.4,0,0,1-.642-2.65A5.07,5.07,0,0,1,56.1-8.613a4.749,4.749,0,0,1,3.511-1.477,10.086,10.086,0,0,1,3.217.571v1.573a7.52,7.52,0,0,0-3.067-.782,3.4,3.4,0,0,0-1.687.444A2.918,2.918,0,0,0,56.851-6.9a4.6,4.6,0,0,0-.431,1.934,4.389,4.389,0,0,0,.831,2.531,2.944,2.944,0,0,0,2.606,1.2,7.387,7.387,0,0,0,1.055-.075,13.188,13.188,0,0,0,1.916-.549ZM67.8-4.843V-6.205h6.82v1.362ZM81.281-7.611a5.369,5.369,0,0,1,1.8-1.854,3.817,3.817,0,0,1,1.925-.624,2.961,2.961,0,0,1,2.215,1.063A4.609,4.609,0,0,1,88.207-5.8a6.85,6.85,0,0,1-.655,3.045A5.512,5.512,0,0,1,85.807-.637a4.526,4.526,0,0,1-2.7.778q-.457,0-1.406-.1Q81.562.026,81.281,0H79.646V-14.186h1.635Zm0,1.942v4.21a6.6,6.6,0,0,0,1.635.229,3.19,3.19,0,0,0,2.5-1.165,4.684,4.684,0,0,0,1.015-3.186,3.654,3.654,0,0,0-.554-2.206,1.571,1.571,0,0,0-1.257-.738,2.727,2.727,0,0,0-1.683.773A7.5,7.5,0,0,0,81.281-5.669Z" transform="translate(2224 6012)" fill="#15172a"/>
  </g>
</svg>
