<svg xmlns="http://www.w3.org/2000/svg" width="200" height="60" viewBox="0 0 200 60">
  <g id="g6-b" transform="translate(-2454 -5974.999)">
    <g id="Path_54327" data-name="Path 54327" transform="translate(2454 5974.999)" fill="#fff">
      <path d="M 196.4961090087891 58 L 3.503894805908203 58 L 3.503894805908203 56.5278434753418 L 2 56.5278434753418 L 2 3.472342014312744 L 3.503894805908203 3.472342014312744 L 3.503894805908203 2 L 196.4961090087891 2 L 196.4961090087891 3.472342014312744 L 198 3.472342014312744 L 197.9999694824219 56.5278434753418 L 196.4961090087891 56.5278434753418 L 196.4961090087891 58 Z" stroke="none"/>
      <path d="M 194.4961242675781 56 L 194.4961242675781 54.52782440185547 L 195.9999694824219 54.52782440185547 L 196 5.472323417663574 L 194.4961242675781 5.472323417663574 L 194.4961242675781 4 L 5.503911972045898 4 L 5.503911972045898 5.472323417663574 L 4 5.472323417663574 L 4 54.52782440185547 L 5.503911972045898 54.52782440185547 L 5.503911972045898 56 L 194.4961242675781 56 M 198.4961242675781 60 L 1.503911733627319 60 L 1.503911733627319 58.52782440185547 L 0 58.52782440185547 L 0 1.472323536872864 L 1.503911733627319 1.472323536872864 L 1.503911733627319 0 L 198.4961242675781 0 L 198.4961242675781 1.472323536872864 L 200 1.472323536872864 L 199.9999694824219 58.52782440185547 L 198.4961242675781 58.52782440185547 L 198.4961242675781 59.9995002746582 L 198.4961242675781 60 Z" stroke="none" fill="#232323"/>
    </g>
    <path id="Path_54328" data-name="Path 54328" d="M1.512,0V-13.641H4.175a9.185,9.185,0,0,1,3.212.365A2.553,2.553,0,0,1,8.6-12.2a3.234,3.234,0,0,1,.4,1.626,3.932,3.932,0,0,1-.237,1.367,3.724,3.724,0,0,1-.7,1.178A4.779,4.779,0,0,1,6.715-7.022a4.355,4.355,0,0,1,2.2,1.6,3.635,3.635,0,0,1,.576,1.9A3.5,3.5,0,0,1,9-1.767,3.291,3.291,0,0,1,7.638-.457,6.438,6.438,0,0,1,4.825,0ZM3.287-7.5H5.15a4.143,4.143,0,0,0,1.323-.8A2.773,2.773,0,0,0,7.1-9.224,3,3,0,0,0,7.3-10.354a1.773,1.773,0,0,0-.567-1.441,3.633,3.633,0,0,0-2.21-.475H3.287Zm0,6.135H4.966a2.857,2.857,0,0,0,2.079-.664,2.161,2.161,0,0,0,.672-1.6,2.29,2.29,0,0,0-.369-1.261A2.492,2.492,0,0,0,6.205-5.8a6.444,6.444,0,0,0-2.426-.338H3.287ZM18,.413a1.379,1.379,0,0,1-1.011-.422,1.379,1.379,0,0,1-.422-1.011,1.368,1.368,0,0,1,.426-1.015A1.391,1.391,0,0,1,18-2.452,1.391,1.391,0,0,1,19-2.035a1.368,1.368,0,0,1,.426,1.015,1.379,1.379,0,0,1-.422,1.011A1.379,1.379,0,0,1,18,.413ZM30.874-7.611a5.369,5.369,0,0,1,1.8-1.854A3.817,3.817,0,0,1,34.6-10.09a2.961,2.961,0,0,1,2.215,1.063A4.609,4.609,0,0,1,37.8-5.8a6.85,6.85,0,0,1-.655,3.045A5.512,5.512,0,0,1,35.4-.637a4.526,4.526,0,0,1-2.7.778q-.457,0-1.406-.1Q31.155.026,30.874,0H29.239V-14.186h1.635Zm0,1.942v4.21a6.6,6.6,0,0,0,1.635.229,3.19,3.19,0,0,0,2.5-1.165,4.684,4.684,0,0,0,1.015-3.186,3.654,3.654,0,0,0-.554-2.206,1.571,1.571,0,0,0-1.257-.738,2.727,2.727,0,0,0-1.683.773A7.5,7.5,0,0,0,30.874-5.669ZM42.6-4.843V-6.205h6.82v1.362ZM62.828-.281A9.8,9.8,0,0,1,59.7.272a5.039,5.039,0,0,1-2.624-.681,4.81,4.81,0,0,1-1.789-1.846,5.4,5.4,0,0,1-.642-2.65A5.07,5.07,0,0,1,56.1-8.613a4.749,4.749,0,0,1,3.511-1.477,10.086,10.086,0,0,1,3.217.571v1.573a7.52,7.52,0,0,0-3.067-.782,3.4,3.4,0,0,0-1.687.444A2.918,2.918,0,0,0,56.851-6.9a4.6,4.6,0,0,0-.431,1.934,4.389,4.389,0,0,0,.831,2.531,2.944,2.944,0,0,0,2.606,1.2,7.387,7.387,0,0,0,1.055-.075,13.188,13.188,0,0,0,1.916-.549ZM67.8-4.843V-6.205h6.82v1.362Zm18.42,2.637a5.283,5.283,0,0,1-1.8,1.854,3.839,3.839,0,0,1-1.929.624,2.947,2.947,0,0,1-2.21-1.063,4.623,4.623,0,0,1-.98-3.226,6.889,6.889,0,0,1,.65-3.045,5.477,5.477,0,0,1,1.74-2.118,4.526,4.526,0,0,1,2.7-.778q.466,0,1.406.1.141.018.422.044h1.644v6.935A9.317,9.317,0,0,0,88.233,0H86.528A15.3,15.3,0,0,1,86.221-2.206Zm0-1.942v-4.21A6.392,6.392,0,0,0,84.6-8.587a3.186,3.186,0,0,0-2.518,1.169,4.714,4.714,0,0,0-1.006,3.182,3.68,3.68,0,0,0,.549,2.2,1.558,1.558,0,0,0,1.252.743,2.743,2.743,0,0,0,1.688-.773A7.33,7.33,0,0,0,86.221-4.148Z" transform="translate(2472 6012)" fill="#15172a"/>
  </g>
</svg>
