<svg xmlns="http://www.w3.org/2000/svg" width="218" height="61" viewBox="0 0 218 61">
  <g id="g6-b1" transform="translate(-2206 -6164)">
    <g id="Path_54332" data-name="Path 54332" transform="translate(2206 6164)" fill="#4e332d">
      <path d="M 196.4961090087891 58 L 3.503894805908203 58 L 3.503894805908203 56.5278434753418 L 2 56.5278434753418 L 2 3.472342014312744 L 3.503894805908203 3.472342014312744 L 3.503894805908203 2 L 196.4961090087891 2 L 196.4961090087891 3.472342014312744 L 198 3.472342014312744 L 197.9999694824219 56.5278434753418 L 196.4961090087891 56.5278434753418 L 196.4961090087891 58 Z" stroke="none"/>
      <path d="M 194.4961242675781 56 L 194.4961242675781 54.52782440185547 L 195.9999694824219 54.52782440185547 L 196 5.472323417663574 L 194.4961242675781 5.472323417663574 L 194.4961242675781 4 L 5.503911972045898 4 L 5.503911972045898 5.472323417663574 L 4 5.472323417663574 L 4 54.52782440185547 L 5.503911972045898 54.52782440185547 L 5.503911972045898 56 L 194.4961242675781 56 M 198.4961242675781 60 L 1.503911733627319 60 L 1.503911733627319 58.52782440185547 L 0 58.52782440185547 L 0 1.472323536872864 L 1.503911733627319 1.472323536872864 L 1.503911733627319 0 L 198.4961242675781 0 L 198.4961242675781 1.472323536872864 L 200 1.472323536872864 L 199.9999694824219 58.52782440185547 L 198.4961242675781 58.52782440185547 L 198.4961242675781 59.9995002746582 L 198.4961242675781 60 Z" stroke="none" fill="#232323"/>
    </g>
    <path id="Path_54336" data-name="Path 54336" d="M1.512,0V-13.641H4.175a9.185,9.185,0,0,1,3.212.365A2.553,2.553,0,0,1,8.6-12.2a3.234,3.234,0,0,1,.4,1.626,3.932,3.932,0,0,1-.237,1.367,3.724,3.724,0,0,1-.7,1.178A4.779,4.779,0,0,1,6.715-7.022a4.355,4.355,0,0,1,2.2,1.6,3.635,3.635,0,0,1,.576,1.9A3.5,3.5,0,0,1,9-1.767,3.291,3.291,0,0,1,7.638-.457,6.438,6.438,0,0,1,4.825,0ZM3.287-7.5H5.15a4.143,4.143,0,0,0,1.323-.8A2.773,2.773,0,0,0,7.1-9.224,3,3,0,0,0,7.3-10.354a1.773,1.773,0,0,0-.567-1.441,3.633,3.633,0,0,0-2.21-.475H3.287Zm0,6.135H4.966a2.857,2.857,0,0,0,2.079-.664,2.161,2.161,0,0,0,.672-1.6,2.29,2.29,0,0,0-.369-1.261A2.492,2.492,0,0,0,6.205-5.8a6.444,6.444,0,0,0-2.426-.338H3.287ZM18,.413a1.379,1.379,0,0,1-1.011-.422,1.379,1.379,0,0,1-.422-1.011,1.368,1.368,0,0,1,.426-1.015A1.391,1.391,0,0,1,18-2.452,1.391,1.391,0,0,1,19-2.035a1.368,1.368,0,0,1,.426,1.015,1.379,1.379,0,0,1-.422,1.011A1.379,1.379,0,0,1,18,.413ZM30.874-7.611a5.369,5.369,0,0,1,1.8-1.854A3.817,3.817,0,0,1,34.6-10.09a2.961,2.961,0,0,1,2.215,1.063A4.609,4.609,0,0,1,37.8-5.8a6.85,6.85,0,0,1-.655,3.045A5.512,5.512,0,0,1,35.4-.637a4.526,4.526,0,0,1-2.7.778q-.457,0-1.406-.1Q31.155.026,30.874,0H29.239V-14.186h1.635Zm0,1.942v4.21a6.6,6.6,0,0,0,1.635.229,3.19,3.19,0,0,0,2.5-1.165,4.684,4.684,0,0,0,1.015-3.186,3.654,3.654,0,0,0-.554-2.206,1.571,1.571,0,0,0-1.257-.738,2.727,2.727,0,0,0-1.683.773A7.5,7.5,0,0,0,30.874-5.669ZM42.6-4.843V-6.205h6.82v1.362ZM62.828-.281A9.8,9.8,0,0,1,59.7.272a5.039,5.039,0,0,1-2.624-.681,4.81,4.81,0,0,1-1.789-1.846,5.4,5.4,0,0,1-.642-2.65A5.07,5.07,0,0,1,56.1-8.613a4.749,4.749,0,0,1,3.511-1.477,10.086,10.086,0,0,1,3.217.571v1.573a7.52,7.52,0,0,0-3.067-.782,3.4,3.4,0,0,0-1.687.444A2.918,2.918,0,0,0,56.851-6.9a4.6,4.6,0,0,0-.431,1.934,4.389,4.389,0,0,0,.831,2.531,2.944,2.944,0,0,0,2.606,1.2,7.387,7.387,0,0,0,1.055-.075,13.188,13.188,0,0,0,1.916-.549ZM67.8-4.843V-6.205h6.82v1.362Zm18.42,2.637a5.283,5.283,0,0,1-1.8,1.854,3.839,3.839,0,0,1-1.929.624,2.947,2.947,0,0,1-2.21-1.063,4.623,4.623,0,0,1-.98-3.226,6.889,6.889,0,0,1,.65-3.045,5.477,5.477,0,0,1,1.74-2.118,4.526,4.526,0,0,1,2.7-.778q.466,0,1.406.1.141.018.422.044h1.644v6.935A9.317,9.317,0,0,0,88.233,0H86.528A15.3,15.3,0,0,1,86.221-2.206Zm0-1.942v-4.21A6.392,6.392,0,0,0,84.6-8.587a3.186,3.186,0,0,0-2.518,1.169,4.714,4.714,0,0,0-1.006,3.182,3.68,3.68,0,0,0,.549,2.2,1.558,1.558,0,0,0,1.252.743,2.743,2.743,0,0,0,1.688-.773A7.33,7.33,0,0,0,86.221-4.148Z" transform="translate(2230 6201.186)" fill="#fff"/>
    <g id="Group_41406" data-name="Group 41406" transform="translate(1958 6229) rotate(-90)">
      <rect id="Rectangle_33782" data-name="Rectangle 33782" width="3.431" height="6.861" transform="translate(51.41 459.139)" fill="#f77622"/>
      <rect id="Rectangle_33783" data-name="Rectangle 33783" width="3.431" height="10.292" transform="translate(10.861 455.708)" fill="#f77622"/>
      <rect id="Rectangle_33784" data-name="Rectangle 33784" width="3.431" height="3.431" transform="translate(54.708 455.708)" fill="#f77622"/>
      <rect id="Rectangle_33785" data-name="Rectangle 33785" width="3.431" height="3.431" transform="translate(58.139 452.278)" fill="#f77622"/>
      <rect id="Rectangle_33786" data-name="Rectangle 33786" width="3.431" height="3.431" transform="translate(7.431 452.278)" fill="#f77622"/>
      <rect id="Rectangle_33787" data-name="Rectangle 33787" width="3.431" height="6.861" transform="translate(24.319 421.569)" fill="#f77622"/>
      <rect id="Rectangle_33788" data-name="Rectangle 33788" width="3.431" height="3.431" transform="translate(14.159 424.993)" fill="#f77622"/>
      <rect id="Rectangle_33789" data-name="Rectangle 33789" width="3.431" height="6.861" transform="translate(37.864 418.154)" fill="#f77622"/>
      <rect id="Rectangle_33790" data-name="Rectangle 33790" width="3.431" height="6.861" transform="translate(51.41 414.739)" fill="#f77622"/>
      <path id="Path_53385" data-name="Path 53385" d="M30.722,387.43H27.292V384H17v3.43h3.431v3.431h6.861v3.431H20.431v3.43h6.861v6.861H20.431v3.43h6.861v13.722h3.431v30.875h3.431V418.305H30.722Z" transform="translate(30.847)" fill="#f77622"/>
      <rect id="Rectangle_33791" data-name="Rectangle 33791" width="3.431" height="37.736" transform="translate(4 414.644)" fill="#f77622"/>
      <path id="Path_53386" data-name="Path 53386" d="M5,392v3.431H15.292v6.861h3.431V392Z" transform="translate(2.431 19.318)" fill="#f77622"/>
      <path id="Path_53387" data-name="Path 53387" d="M9,391v3.431H19.292v6.861h3.431V391Z" transform="translate(11.885 16.903)" fill="#f77622"/>
      <path id="Path_53388" data-name="Path 53388" d="M23.292,402.153H13v3.43H23.292v6.861h3.431V385H23.292Z" transform="translate(21.393 2.431)" fill="#f77622"/>
      <path id="Path_53389" data-name="Path 53389" d="M48.988,463.569v-6.832h3.384v-3.416h3.384V449.9h3.384V419.16H55.755V405.5H48.988V402.08h6.767v-6.832H48.988v-3.416h6.767v-3.416H48.988V385H45.6v27.329H42.22V405.5H32.069v10.248H28.686v-6.832H18.535V419.16H15.151v-6.832H5V449.9H8.384v3.416h3.384v10.248Zm3.384-51.241v6.832H48.988v-6.832Zm-13.535,3.416v6.832H35.453v-6.832ZM25.3,419.16v6.832H21.918V419.16Zm-10.151,6.832H11.767v-3.416h3.384Z" transform="translate(2.431 2.431)" fill="#feae34"/>
    </g>
  </g>
</svg>
