<svg xmlns="http://www.w3.org/2000/svg" width="218" height="61" viewBox="0 0 218 61">
  <g id="g6-c1" transform="translate(-2206 -6258)">
    <g id="Path_54333" data-name="Path 54333" transform="translate(2206 6259)" fill="#4e332d">
      <path d="M 196.4961090087891 58 L 3.503894805908203 58 L 3.503894805908203 56.5278434753418 L 2 56.5278434753418 L 2 3.472342014312744 L 3.503894805908203 3.472342014312744 L 3.503894805908203 2 L 196.4961090087891 2 L 196.4961090087891 3.472342014312744 L 198 3.472342014312744 L 197.9999694824219 56.5278434753418 L 196.4961090087891 56.5278434753418 L 196.4961090087891 58 Z" stroke="none"/>
      <path d="M 194.4961242675781 56 L 194.4961242675781 54.52782440185547 L 195.9999694824219 54.52782440185547 L 196 5.472323417663574 L 194.4961242675781 5.472323417663574 L 194.4961242675781 4 L 5.503911972045898 4 L 5.503911972045898 5.472323417663574 L 4 5.472323417663574 L 4 54.52782440185547 L 5.503911972045898 54.52782440185547 L 5.503911972045898 56 L 194.4961242675781 56 M 198.4961242675781 60 L 1.503911733627319 60 L 1.503911733627319 58.52782440185547 L 0 58.52782440185547 L 0 1.472323536872864 L 1.503911733627319 1.472323536872864 L 1.503911733627319 0 L 198.4961242675781 0 L 198.4961242675781 1.472323536872864 L 200 1.472323536872864 L 199.9999694824219 58.52782440185547 L 198.4961242675781 58.52782440185547 L 198.4961242675781 59.9995002746582 L 198.4961242675781 60 Z" stroke="none" fill="#232323"/>
    </g>
    <path id="Path_54337" data-name="Path 54337" d="M9.563-.158A7.946,7.946,0,0,1,6.82.413,5.371,5.371,0,0,1,3.876-.444,5.6,5.6,0,0,1,1.784-2.993,9.383,9.383,0,0,1,1.037-6.82a9.4,9.4,0,0,1,.738-3.806,5.631,5.631,0,0,1,2.083-2.558,5.341,5.341,0,0,1,2.962-.87,7.946,7.946,0,0,1,2.742.571v1.617a5.587,5.587,0,0,0-2.812-.817,2.964,2.964,0,0,0-1.929.721A4.988,4.988,0,0,0,3.41-9.848,8.36,8.36,0,0,0,2.874-6.82a8.3,8.3,0,0,0,.554,3.067,5,5,0,0,0,1.415,2.1,2.956,2.956,0,0,0,1.907.7,5.62,5.62,0,0,0,2.813-.817ZM18,.413a1.379,1.379,0,0,1-1.011-.422,1.379,1.379,0,0,1-.422-1.011,1.368,1.368,0,0,1,.426-1.015A1.391,1.391,0,0,1,18-2.452,1.391,1.391,0,0,1,19-2.035a1.368,1.368,0,0,1,.426,1.015,1.379,1.379,0,0,1-.422,1.011A1.379,1.379,0,0,1,18,.413ZM35.813-2.206a5.283,5.283,0,0,1-1.8,1.854,3.839,3.839,0,0,1-1.929.624,2.947,2.947,0,0,1-2.21-1.063,4.623,4.623,0,0,1-.98-3.226,6.889,6.889,0,0,1,.65-3.045,5.477,5.477,0,0,1,1.74-2.118,4.526,4.526,0,0,1,2.7-.778q.466,0,1.406.1.141.018.422.044h1.644v6.935A9.317,9.317,0,0,0,37.826,0H36.121A15.3,15.3,0,0,1,35.813-2.206Zm0-1.942v-4.21A6.392,6.392,0,0,0,34.2-8.587a3.186,3.186,0,0,0-2.518,1.169,4.714,4.714,0,0,0-1.006,3.182,3.68,3.68,0,0,0,.549,2.2,1.558,1.558,0,0,0,1.252.743,2.743,2.743,0,0,0,1.688-.773A7.33,7.33,0,0,0,35.813-4.148ZM42.6-4.843V-6.205h6.82v1.362ZM56.078-7.611a5.369,5.369,0,0,1,1.8-1.854A3.817,3.817,0,0,1,59.8-10.09a2.961,2.961,0,0,1,2.215,1.063A4.609,4.609,0,0,1,63-5.8a6.85,6.85,0,0,1-.655,3.045A5.512,5.512,0,0,1,60.6-.637a4.526,4.526,0,0,1-2.7.778q-.457,0-1.406-.1Q56.359.026,56.078,0H54.443V-14.186h1.635Zm0,1.942v4.21a6.6,6.6,0,0,0,1.635.229,3.19,3.19,0,0,0,2.5-1.165,4.684,4.684,0,0,0,1.015-3.186,3.654,3.654,0,0,0-.554-2.206,1.571,1.571,0,0,0-1.257-.738,2.727,2.727,0,0,0-1.683.773A7.5,7.5,0,0,0,56.078-5.669ZM67.8-4.843V-6.205h6.82v1.362ZM88.031-.281A9.8,9.8,0,0,1,84.9.272a5.039,5.039,0,0,1-2.624-.681A4.81,4.81,0,0,1,80.49-2.254a5.4,5.4,0,0,1-.642-2.65A5.07,5.07,0,0,1,81.3-8.613a4.749,4.749,0,0,1,3.511-1.477,10.086,10.086,0,0,1,3.217.571v1.573a7.52,7.52,0,0,0-3.067-.782,3.4,3.4,0,0,0-1.687.444A2.918,2.918,0,0,0,82.054-6.9a4.6,4.6,0,0,0-.431,1.934,4.389,4.389,0,0,0,.831,2.531,2.944,2.944,0,0,0,2.606,1.2,7.387,7.387,0,0,0,1.055-.075,13.188,13.188,0,0,0,1.916-.549Z" transform="translate(2230 6296.186)" fill="#fff"/>
    <g id="Group_41407" data-name="Group 41407" transform="translate(1958 6323) rotate(-90)">
      <rect id="Rectangle_33782" data-name="Rectangle 33782" width="3.431" height="6.861" transform="translate(51.41 459.139)" fill="#f77622"/>
      <rect id="Rectangle_33783" data-name="Rectangle 33783" width="3.431" height="10.292" transform="translate(10.861 455.708)" fill="#f77622"/>
      <rect id="Rectangle_33784" data-name="Rectangle 33784" width="3.431" height="3.431" transform="translate(54.708 455.708)" fill="#f77622"/>
      <rect id="Rectangle_33785" data-name="Rectangle 33785" width="3.431" height="3.431" transform="translate(58.139 452.278)" fill="#f77622"/>
      <rect id="Rectangle_33786" data-name="Rectangle 33786" width="3.431" height="3.431" transform="translate(7.431 452.278)" fill="#f77622"/>
      <rect id="Rectangle_33787" data-name="Rectangle 33787" width="3.431" height="6.861" transform="translate(24.319 421.569)" fill="#f77622"/>
      <rect id="Rectangle_33788" data-name="Rectangle 33788" width="3.431" height="3.431" transform="translate(14.159 424.993)" fill="#f77622"/>
      <rect id="Rectangle_33789" data-name="Rectangle 33789" width="3.431" height="6.861" transform="translate(37.864 418.154)" fill="#f77622"/>
      <rect id="Rectangle_33790" data-name="Rectangle 33790" width="3.431" height="6.861" transform="translate(51.41 414.739)" fill="#f77622"/>
      <path id="Path_53385" data-name="Path 53385" d="M30.722,387.43H27.292V384H17v3.43h3.431v3.431h6.861v3.431H20.431v3.43h6.861v6.861H20.431v3.43h6.861v13.722h3.431v30.875h3.431V418.305H30.722Z" transform="translate(30.847)" fill="#f77622"/>
      <rect id="Rectangle_33791" data-name="Rectangle 33791" width="3.431" height="37.736" transform="translate(4 414.644)" fill="#f77622"/>
      <path id="Path_53386" data-name="Path 53386" d="M5,392v3.431H15.292v6.861h3.431V392Z" transform="translate(2.431 19.318)" fill="#f77622"/>
      <path id="Path_53387" data-name="Path 53387" d="M9,391v3.431H19.292v6.861h3.431V391Z" transform="translate(11.885 16.903)" fill="#f77622"/>
      <path id="Path_53388" data-name="Path 53388" d="M23.292,402.153H13v3.43H23.292v6.861h3.431V385H23.292Z" transform="translate(21.393 2.431)" fill="#f77622"/>
      <path id="Path_53389" data-name="Path 53389" d="M48.988,463.569v-6.832h3.384v-3.416h3.384V449.9h3.384V419.16H55.755V405.5H48.988V402.08h6.767v-6.832H48.988v-3.416h6.767v-3.416H48.988V385H45.6v27.329H42.22V405.5H32.069v10.248H28.686v-6.832H18.535V419.16H15.151v-6.832H5V449.9H8.384v3.416h3.384v10.248Zm3.384-51.241v6.832H48.988v-6.832Zm-13.535,3.416v6.832H35.453v-6.832ZM25.3,419.16v6.832H21.918V419.16Zm-10.151,6.832H11.767v-3.416h3.384Z" transform="translate(2.431 2.431)" fill="#feae34"/>
    </g>
  </g>
</svg>
