<svg xmlns="http://www.w3.org/2000/svg" width="200" height="60" viewBox="0 0 200 60">
  <g id="g6-c" transform="translate(-2684 -5974.999)">
    <g id="Path_54326" data-name="Path 54326" transform="translate(2684 5974.999)" fill="#fff">
      <path d="M 196.4961090087891 58 L 3.503894805908203 58 L 3.503894805908203 56.5278434753418 L 2 56.5278434753418 L 2 3.472342014312744 L 3.503894805908203 3.472342014312744 L 3.503894805908203 2 L 196.4961090087891 2 L 196.4961090087891 3.472342014312744 L 198 3.472342014312744 L 197.9999694824219 56.5278434753418 L 196.4961090087891 56.5278434753418 L 196.4961090087891 58 Z" stroke="none"/>
      <path d="M 194.4961242675781 56 L 194.4961242675781 54.52782440185547 L 195.9999694824219 54.52782440185547 L 196 5.472323417663574 L 194.4961242675781 5.472323417663574 L 194.4961242675781 4 L 5.503911972045898 4 L 5.503911972045898 5.472323417663574 L 4 5.472323417663574 L 4 54.52782440185547 L 5.503911972045898 54.52782440185547 L 5.503911972045898 56 L 194.4961242675781 56 M 198.4961242675781 60 L 1.503911733627319 60 L 1.503911733627319 58.52782440185547 L 0 58.52782440185547 L 0 1.472323536872864 L 1.503911733627319 1.472323536872864 L 1.503911733627319 0 L 198.4961242675781 0 L 198.4961242675781 1.472323536872864 L 200 1.472323536872864 L 199.9999694824219 58.52782440185547 L 198.4961242675781 58.52782440185547 L 198.4961242675781 59.9995002746582 L 198.4961242675781 60 Z" stroke="none" fill="#232323"/>
    </g>
    <path id="Path_54329" data-name="Path 54329" d="M9.563-.158A7.946,7.946,0,0,1,6.82.413,5.371,5.371,0,0,1,3.876-.444,5.6,5.6,0,0,1,1.784-2.993,9.383,9.383,0,0,1,1.037-6.82a9.4,9.4,0,0,1,.738-3.806,5.631,5.631,0,0,1,2.083-2.558,5.341,5.341,0,0,1,2.962-.87,7.946,7.946,0,0,1,2.742.571v1.617a5.587,5.587,0,0,0-2.812-.817,2.964,2.964,0,0,0-1.929.721A4.988,4.988,0,0,0,3.41-9.848,8.36,8.36,0,0,0,2.874-6.82a8.3,8.3,0,0,0,.554,3.067,5,5,0,0,0,1.415,2.1,2.956,2.956,0,0,0,1.907.7,5.62,5.62,0,0,0,2.813-.817ZM18,.413a1.379,1.379,0,0,1-1.011-.422,1.379,1.379,0,0,1-.422-1.011,1.368,1.368,0,0,1,.426-1.015A1.391,1.391,0,0,1,18-2.452,1.391,1.391,0,0,1,19-2.035a1.368,1.368,0,0,1,.426,1.015,1.379,1.379,0,0,1-.422,1.011A1.379,1.379,0,0,1,18,.413ZM35.813-2.206a5.283,5.283,0,0,1-1.8,1.854,3.839,3.839,0,0,1-1.929.624,2.947,2.947,0,0,1-2.21-1.063,4.623,4.623,0,0,1-.98-3.226,6.889,6.889,0,0,1,.65-3.045,5.477,5.477,0,0,1,1.74-2.118,4.526,4.526,0,0,1,2.7-.778q.466,0,1.406.1.141.018.422.044h1.644v6.935A9.317,9.317,0,0,0,37.826,0H36.121A15.3,15.3,0,0,1,35.813-2.206Zm0-1.942v-4.21A6.392,6.392,0,0,0,34.2-8.587a3.186,3.186,0,0,0-2.518,1.169,4.714,4.714,0,0,0-1.006,3.182,3.68,3.68,0,0,0,.549,2.2,1.558,1.558,0,0,0,1.252.743,2.743,2.743,0,0,0,1.688-.773A7.33,7.33,0,0,0,35.813-4.148ZM42.6-4.843V-6.205h6.82v1.362ZM56.078-7.611a5.369,5.369,0,0,1,1.8-1.854A3.817,3.817,0,0,1,59.8-10.09a2.961,2.961,0,0,1,2.215,1.063A4.609,4.609,0,0,1,63-5.8a6.85,6.85,0,0,1-.655,3.045A5.512,5.512,0,0,1,60.6-.637a4.526,4.526,0,0,1-2.7.778q-.457,0-1.406-.1Q56.359.026,56.078,0H54.443V-14.186h1.635Zm0,1.942v4.21a6.6,6.6,0,0,0,1.635.229,3.19,3.19,0,0,0,2.5-1.165,4.684,4.684,0,0,0,1.015-3.186,3.654,3.654,0,0,0-.554-2.206,1.571,1.571,0,0,0-1.257-.738,2.727,2.727,0,0,0-1.683.773A7.5,7.5,0,0,0,56.078-5.669ZM67.8-4.843V-6.205h6.82v1.362ZM88.031-.281A9.8,9.8,0,0,1,84.9.272a5.039,5.039,0,0,1-2.624-.681A4.81,4.81,0,0,1,80.49-2.254a5.4,5.4,0,0,1-.642-2.65A5.07,5.07,0,0,1,81.3-8.613a4.749,4.749,0,0,1,3.511-1.477,10.086,10.086,0,0,1,3.217.571v1.573a7.52,7.52,0,0,0-3.067-.782,3.4,3.4,0,0,0-1.687.444A2.918,2.918,0,0,0,82.054-6.9a4.6,4.6,0,0,0-.431,1.934,4.389,4.389,0,0,0,.831,2.531,2.944,2.944,0,0,0,2.606,1.2,7.387,7.387,0,0,0,1.055-.075,13.188,13.188,0,0,0,1.916-.549Z" transform="translate(2702 6012)" fill="#15172a"/>
  </g>
</svg>
