<svg xmlns="http://www.w3.org/2000/svg" width="958.068" height="269.285" viewBox="0 0 958.068 269.285">
  <g id="g6-img" transform="translate(64 -419)">
    <g id="Group_41391" data-name="Group 41391">
      <g id="Group_41424" data-name="Group 41424" transform="translate(-1962 -6333)">
        <g id="Exclusion_27" data-name="Exclusion 27" transform="translate(1898 6752.001)" fill="#232323">
          <path d="M 925.2294311523438 240.09130859375 L 9.015618324279785 240.0903778076172 L 9.01569652557373 236.1493072509766 L 9.01569652557373 234.1493072509766 L 7.01569652557373 234.1493072509766 L 2.00005054473877 234.1493072509766 L 2.000166177749634 7.941936492919922 L 7.015578746795654 7.942020416259766 L 9.015579223632812 7.942020416259766 L 9.015579223632812 5.942020416259766 L 9.015657424926758 2.000961780548096 L 925.2294311523438 2.001079082489014 L 925.2294311523438 5.439667701721191 L 925.2294311523438 7.439667701721191 L 927.2294311523438 7.439667701721191 L 930.98876953125 7.439744472503662 L 930.9898071289062 234.9988098144531 L 927.2293701171875 234.9989624023438 L 925.2294311523438 234.9990844726562 L 925.2294311523438 236.9989624023438 L 925.2294311523438 240.09130859375 Z" stroke="none"/>
          <path d="M 923.2294311523438 238.09130859375 L 923.2294311523438 236.9989624023438 L 923.2294311523438 232.9990844726562 L 927.2293701171875 232.9989624023438 L 928.9898071289062 232.9988861083984 L 928.98876953125 9.439702987670898 L 927.2293701171875 9.439667701721191 L 923.2294311523438 9.439549446105957 L 923.2294311523438 5.439667701721191 L 923.2294311523438 4.001078605651855 L 11.01561737060547 4.000962257385254 L 11.01557922363281 5.942138195037842 L 11.01546096801758 9.942137718200684 L 7.015461444854736 9.942020416259766 L 4.000164985656738 9.941969871520996 L 4.000051498413086 232.1493072509766 L 7.01569652557373 232.1493072509766 L 11.01581382751465 232.1493072509766 L 11.01569652557373 236.1494293212891 L 11.01565837860107 238.0903778076172 L 923.2294311523438 238.09130859375 M 932.9886474609375 242.4394378662109 L 932.9876708984375 242.4394378662109 L 927.2294311523438 242.4394378662109 L 927.2296752929688 242.0902557373047 L 932.98876953125 242.0903778076172 L 932.9886474609375 242.4382629394531 L 932.9886474609375 242.4394378662109 Z M 927.2294311523438 242.09130859375 L 927.228515625 242.09130859375 L 7.015578746795654 242.0903778076172 L 7.01569652557373 236.1493072509766 L 4.951746450387873e-05 236.1493072509766 L 0.0001671645150054246 5.941902637481689 L 7.015578746795654 5.942020416259766 L 7.01569652557373 0.0009616340394131839 L 927.2294311523438 0.001079281093552709 L 927.2294311523438 5.439667701721191 L 932.98876953125 5.439785003662109 L 932.9898071289062 236.9987335205078 L 927.2294311523438 236.9989624023438 L 927.2294311523438 242.0902557373047 L 927.2294311523438 242.09130859375 Z M 932.98876953125 0.001902810530737042 L 927.2294311523438 0.0009616340394131839 L 932.98876953125 -0.0006854247767478228 L 932.98876953125 0.0002557516563683748 L 932.98876953125 0.001902810530737042 Z" stroke="none" fill="#fff"/>
        </g>
        <path id="Path_54388" data-name="Path 54388" d="M0,10Zm1.125,1.125H13.5V19H12.375V17.875h-9V25.75H2.25V14.5H3.375v2.25h9v-4.5H1.125Zm13.5,11.25H15.75v4.5H3.375V25.75h11.25ZM19.8,10Zm3.375,0H24.3v2.25H23.175V14.5H22.05v1.125H24.3v-2.25h1.125v2.25H24.3v2.25H23.175V19H22.05v1.125H24.3V19h1.125v1.125H26.55v2.25H25.425V21.25H22.05v1.125H20.925V21.25H19.8V20.125h1.125V19H22.05V17.875h1.125V16.75H19.8V15.625h1.125V14.5H22.05V12.25h1.125Zm3.375,1.125H36.675v2.25H35.55V14.5H34.425v1.125H33.3V14.5h1.125V13.375H35.55V12.25H33.3v1.125H32.175V14.5H31.05v1.125H29.925V14.5H31.05V13.375h1.125V12.25h-2.25v1.125H28.8V14.5H27.675v1.125H26.55V14.5h1.125V13.375H28.8V12.25H26.55Zm1.125,4.5H28.8V16.75H27.675Zm3.375,0h1.125V16.75H31.05Zm3.375,0H35.55V16.75H34.425ZM28.8,16.75h1.125v1.125H28.8Zm3.375,0H33.3v1.125H32.175Zm3.375,0h1.125v1.125H35.55ZM27.675,19H35.55v1.125H32.175V25.75h4.5v1.125H25.425V23.5H26.55v2.25h4.5V20.125H27.675Zm-6.75,4.5H22.05v2.25H20.925v1.125H19.8V25.75h1.125Zm2.25,0H24.3v3.375H23.175ZM39.6,10Zm6.75,0h1.125v2.25h9v1.125H46.35v2.25H53.1v11.25H51.975V28H50.85V26.875h1.125V23.5h-6.75V28H44.1V19H42.975v1.125H41.85V21.25H40.725v1.125H39.6V21.25h1.125V20.125H41.85V19h1.125V17.875H44.1v-2.25h1.125v-2.25H39.6V12.25h6.75Zm-1.125,6.75V19h6.75V16.75Zm0,3.375v2.25h6.75v-2.25Zm4.5,5.625H50.85v1.125H49.725ZM59.4,10Zm2.25,1.125h4.5V16.75h1.125V15.625H68.4v-4.5h5.625v4.5H72.9V12.25H69.525v3.375H68.4V16.75H67.275v1.125H66.15v9H65.025V28H63.9V26.875h1.125V21.25h-2.25v3.375H61.65v2.25H60.525V28H59.4V26.875h1.125v-2.25H61.65Zm1.125,1.125v3.375h2.25V12.25Zm11.25,3.375h2.25V16.75h-2.25ZM62.775,16.75v3.375h2.25V16.75Zm4.5,1.125H75.15v2.25H74.025v2.25H72.9V23.5H71.775v1.125H70.65V25.75H69.525v1.125H68.4V28H66.15V26.875H68.4V25.75h1.125V24.625H70.65V23.5h1.125V22.375H72.9v-2.25h1.125V19h-4.5v2.25H68.4V19H67.275Zm2.25,3.375H70.65V23.5H69.525Zm2.25,3.375H72.9V25.75H71.775Zm-9,1.125H63.9v1.125H62.775Zm10.125,0h3.375v1.125H75.15V28H74.025V26.875H72.9ZM79.2,10Zm1.125,1.125H94.95V12.25h-4.5v1.125h3.375v4.5H81.45v-4.5h3.375V12.25h-4.5ZM85.95,12.25v1.125h3.375V12.25ZM82.575,14.5v2.25h2.25V14.5Zm3.375,0v2.25h3.375V14.5Zm4.5,0v2.25H92.7V14.5ZM82.575,19H92.7v1.125H82.575ZM79.2,21.25H96.075v1.125H88.2v4.5H87.075V28H85.95V26.875h1.125v-4.5H79.2Zm3.375,2.25H83.7v1.125H82.575V25.75H81.45v1.125H80.325V25.75H81.45V24.625h1.125Zm9,0H92.7v1.125H91.575ZM92.7,24.625h1.125v2.25H92.7ZM84.825,25.75H85.95v1.125H84.825ZM99,10Zm12.375,0H112.5v1.125h1.125V12.25H108v1.125h-4.5V14.5h10.125v6.75H112.5V20.125h-9V23.5h-1.125v2.25H101.25v1.125h-1.125V28H99V26.875h1.125V25.75h1.125V23.5h1.125V12.25H108V11.125h3.375ZM103.5,15.625V19h9V15.625ZM118.8,10Zm3.375,0H123.3v2.25h-1.125v1.125h4.5V16.75H127.8V14.5h1.125V10h1.125v3.375h4.5V25.75h-1.125v1.125H132.3V28h-1.125V26.875H132.3V25.75h1.125V14.5h-4.5v2.25H127.8v1.125h-1.125v9H125.55V25.75h-4.5v1.125h-1.125v-13.5h1.125V12.25h1.125Zm-1.125,4.5V19h4.5V14.5Zm7.875,3.375h1.125V19h-1.125ZM130.05,19h1.125v2.25H130.05Zm-9,1.125v4.5h4.5v-4.5Zm9,5.625h1.125v1.125H130.05ZM138.6,10Zm3.375,0H143.1v4.5h2.25v1.125H143.1v2.25h1.125V19H143.1v7.875h-1.125V28H140.85V26.875h1.125v-6.75H140.85V21.25H138.6V20.125h2.25V19h1.125V15.625H138.6V14.5h3.375Zm4.5,1.125H152.1V16.75h-1.125v-4.5H147.6v4.5h-1.125v1.125H145.35V16.75h1.125ZM152.1,16.75h2.25v1.125H152.1ZM145.35,19h7.875v2.25H152.1v1.125h-1.125V23.5H149.85v1.125h-1.125V25.75H147.6v1.125h-2.25V28H143.1V26.875h2.25V25.75h2.25V24.625h1.125V23.5h1.125V22.375h1.125V21.25H152.1V20.125h-4.5v2.25h-1.125v-2.25H145.35Zm2.25,3.375h1.125V23.5H147.6Zm2.25,2.25h2.25V25.75h-2.25ZM139.725,25.75h1.125v1.125h-1.125Zm12.375,0h3.375v1.125H154.35V28h-1.125V26.875H152.1ZM158.4,10Zm1.125,0h1.125v1.125h-1.125Zm6.75,0H167.4v1.125h6.75v2.25h-1.125V14.5H171.9V13.375h1.125V12.25H169.65V14.5h-1.125v1.125H167.4V16.75h-1.125v1.125H171.9V16.75h3.375v1.125H174.15V19h-1.125V17.875H171.9V25.75h-1.125v1.125H169.65V25.75h-5.625v1.125H162.9V28h-1.125V26.875H162.9V25.75h-1.125V19H160.65V16.75H158.4V15.625h2.25V14.5h1.125V13.375H162.9V12.25h1.125v1.125H162.9V14.5h-1.125v3.375h2.25V16.75h2.25V15.625H167.4V14.5h1.125V12.25h-2.25v1.125H165.15V14.5h-1.125V13.375h1.125V12.25h1.125Zm-5.625,1.125h1.125v2.25H160.65Zm9,3.375h1.125v1.125H169.65Zm1.125,1.125H171.9V16.75h-1.125ZM162.9,19v1.125h7.875V19Zm0,2.25v1.125h7.875V21.25Zm0,2.25v1.125h7.875V23.5Zm7.875,3.375H171.9V28h-1.125ZM178.2,10Zm7.875,0H187.2v7.875h-1.125V21.25H184.95V23.5h-1.125v1.125H182.7V25.75h-1.125v1.125H180.45V28h-1.125V26.875h1.125V25.75h1.125V24.625H182.7V23.5h1.125V21.25h1.125V17.875h1.125Zm1.125,7.875h1.125V21.25H187.2Zm1.125,3.375h1.125V23.5h-1.125Zm1.125,2.25h1.125v1.125H189.45Zm1.125,1.125H191.7V25.75h-1.125ZM191.7,25.75h3.375v1.125H193.95V28h-1.125V26.875H191.7Zm15.282-5.472a1.089,1.089,0,0,0-.846.306,1.044,1.044,0,0,0-.324.81,1.071,1.071,0,0,0,.306.792,1.047,1.047,0,0,0,.774.324.963.963,0,0,0,.4-.072,2.123,2.123,0,0,1-.378,1.206,2.6,2.6,0,0,1-1.152.792v.882a3.472,3.472,0,0,0,1.854-1.17,3.373,3.373,0,0,0,.7-2.106,2.091,2.091,0,0,0-.36-1.26A1.149,1.149,0,0,0,206.982,20.278ZM217.8,10Zm3.375,2.25H231.3v9h-1.125V20.125H222.3V21.25h-1.125Zm1.125,1.125V19h7.875V13.375Zm1.125,9h1.125V23.5h-1.125v1.125H222.3V25.75h-1.125v1.125H220.05V28h-1.125V26.875h1.125V25.75h1.125V24.625H222.3V23.5h1.125Zm4.5,0h1.125V23.5h-1.125ZM229.05,23.5h1.125v1.125H229.05Zm1.125,1.125H231.3V25.75h1.125V28H231.3V26.875h-1.125ZM237.6,10Zm2.25,0h12.375v1.125H246.6V12.25h7.875V14.5H253.35v1.125h-1.125V14.5h1.125V13.375H246.6v4.5h-1.125v-4.5H239.85V14.5h-1.125v1.125H237.6V14.5h1.125V12.25h6.75V11.125H239.85Zm1.125,4.5h3.375v1.125h-3.375Zm6.75,0H251.1v1.125h-3.375Zm-6.75,2.25h3.375v1.125h-3.375Zm6.75,0H251.1v1.125h-3.375ZM237.6,19h16.875v1.125h-9V21.25h6.75v5.625H251.1V28h-1.125V26.875H251.1v-4.5h-3.375v4.5H246.6v-4.5h-2.25v4.5h-1.125v-4.5h-2.25V28H239.85V21.25h4.5V20.125H237.6Zm11.25,6.75h1.125v1.125H248.85ZM257.4,10Zm14.625,0h1.125V26.875h-1.125V28H270.9V26.875h1.125Zm-13.5,1.125h9V12.25h-4.5v1.125H261.9V14.5h-1.125v1.125H259.65V16.75h5.625V15.625H266.4V16.75h1.125V19H266.4V17.875h-3.375V21.25H266.4v1.125h-3.375v2.25h4.5V25.75h-4.5v1.125H259.65V28h-1.125V26.875H257.4V25.75h4.5V22.375h-3.375V21.25H261.9V17.875h-2.25V19h-1.125V17.875H257.4V16.75h1.125V15.625h1.125V14.5h1.125V13.375H261.9V12.25h-3.375Zm10.125,2.25h1.125V23.5H268.65Zm-4.5,1.125h1.125v1.125H264.15Zm5.625,11.25H270.9v1.125h-1.125ZM277.2,10Zm2.25,1.125h13.5V12.25h-5.625v1.125H286.2V14.5h4.5v7.875h-3.375v4.5H286.2V28h-1.125V26.875H286.2v-4.5h-3.375V14.5h2.25V13.375H286.2V12.25h-5.625V23.5H279.45v2.25h-1.125v1.125H277.2V25.75h1.125V23.5h1.125Zm4.5,4.5v2.25h5.625v-2.25Zm0,3.375v2.25h5.625V19Zm-1.125,4.5h1.125v1.125h-1.125V25.75H281.7v1.125h-1.125V25.75H281.7V24.625h1.125Zm6.75,0H290.7v1.125h-1.125Zm1.125,1.125h2.25v2.25h-1.125V25.75H290.7Zm-6.75,1.125h1.125v1.125H283.95ZM297,10Zm1.125,1.125h5.625V16.75h-4.5V28h-1.125Zm7.875,0h5.625v15.75H310.5V28h-1.125V26.875H310.5V16.75H306Zm-6.75,1.125v1.125h3.375V12.25Zm7.875,0v1.125H310.5V12.25ZM299.25,14.5v1.125h3.375V14.5Zm7.875,0v1.125H310.5V14.5Zm-6.75,3.375h9V19h-2.25v2.25h2.25v1.125h-2.25v4.5H306v-4.5h-2.25v2.25h-1.125V25.75H301.5v1.125h-1.125V25.75H301.5V24.625h1.125v-2.25h-2.25V21.25h2.25V19h-2.25ZM303.75,19v2.25H306V19Zm4.5,6.75h1.125v1.125H308.25ZM316.8,10Zm12.375,0H330.3v1.125h1.125V12.25H325.8v1.125h-4.5V14.5h10.125v6.75H330.3V20.125h-9V23.5h-1.125v2.25H319.05v1.125h-1.125V28H316.8V26.875h1.125V25.75h1.125V23.5h1.125V12.25H325.8V11.125h3.375ZM321.3,15.625V19h9V15.625ZM336.6,10Zm7.875,0H345.6v3.375h1.125V12.25h1.125V11.125h1.125V12.25H347.85v1.125h4.5V14.5h-7.875v2.25h9v1.125h-4.5V19H347.85V17.875h-4.5V19h-1.125v1.125H341.1V21.25h-2.25v1.125H336.6V21.25h2.25V20.125h2.25V19h1.125V17.875H336.6V16.75h6.75V14.5h-5.625V13.375h4.5V12.25h1.125v1.125h1.125ZM341.1,11.125h1.125V12.25H341.1ZM348.975,19H350.1v1.125h-1.125v6.75H347.85V28h-1.125V26.875h1.125V21.25h-3.375V23.5H343.35v2.25h-1.125v1.125H341.1V28h-1.125V26.875H341.1V25.75h1.125V23.5h1.125V21.25h-1.125V20.125h6.75Zm1.125,1.125h3.375V21.25H352.35v1.125h-1.125V21.25H350.1Zm-4.5,5.625h1.125v1.125H345.6ZM356.4,10Zm6.75,0h1.125v1.125H363.15Zm1.125,1.125H365.4V12.25h6.75v1.125h-3.375V14.5H367.65v1.125h3.375v11.25H369.9V28h-1.125V26.875H369.9V21.25h-1.125V20.125H369.9V16.75H359.775v3.375H360.9V19h1.125V17.875h1.125V19h-1.125v1.125H360.9V21.25h-1.125V28H358.65V15.625h3.375V14.5h1.125v1.125h3.375V14.5h1.125V13.375h-5.625V14.5H360.9V13.375h-3.375V12.25h6.75Zm2.25,6.75h1.125V19h-1.125ZM367.65,19h1.125v1.125H367.65v4.5h-5.625v-4.5h5.625Zm-4.5,2.25V23.5h3.375V21.25Zm4.5,4.5h1.125v1.125H367.65ZM376.2,10Zm3.375,0H380.7v4.5h3.375V25.75H382.95v1.125h-1.125V28H380.7V26.875h1.125V25.75h1.125V15.625H380.7V23.5h-1.125v2.25H378.45v1.125h-1.125V28H376.2V26.875h1.125V25.75h1.125V23.5h1.125V15.625H376.2V14.5h3.375Zm6.75,3.375h5.625v13.5h-1.125V25.75H387.45v1.125h-1.125ZM387.45,14.5V24.625h3.375V14.5Zm-7.875,11.25H380.7v1.125h-1.125ZM396,10Zm3.375,0H400.5v1.125H405V12.25h-3.375v1.125H400.5V12.25h-1.125v1.125H398.25V14.5h-1.125v1.125H396V14.5h1.125V13.375h1.125V12.25h1.125Zm6.75,0h1.125v1.125h5.625V12.25H409.5v1.125h-1.125V12.25h-2.25v1.125H405V14.5h-1.125v1.125H402.75V16.75H400.5v1.125h7.875V16.75h4.5v1.125H411.75V19h-1.125V17.875H409.5V19H399.375V17.875H398.25V19H396V17.875h2.25V16.75h2.25V15.625h2.25V14.5h1.125V13.375H405V12.25h1.125Zm-4.5,3.375h1.125V14.5h-1.125Zm7.875,0h1.125V14.5H409.5ZM405,14.5h1.125v1.125H405Zm1.125,1.125h2.25V16.75h-2.25Zm-7.875,4.5h5.625v4.5h-2.25V25.75H400.5v1.125h-1.125V28H398.25V26.875h1.125V25.75H400.5V24.625h-2.25Zm6.75,0h5.625v4.5h-2.25V25.75H407.25v1.125h-1.125V28H405V26.875h1.125V25.75h1.125V24.625H405Zm-5.625,1.125V23.5h3.375V21.25Zm6.75,0V23.5H409.5V21.25Zm-4.5,4.5h1.125v1.125h-1.125Zm6.75,0H409.5v1.125h-1.125Zm-5.625,1.125h1.125V28H402.75Zm6.75,0h1.125V28H409.5ZM415.8,10Zm0,7.875h16.875V19H415.8ZM435.6,10Zm0,1.125h5.625V16.75H437.85v3.375h3.375V25.75H440.1v1.125h-1.125V28H437.85V26.875h1.125V25.75H440.1v-4.5h-3.375V15.625H440.1V12.25h-4.5Zm7.875,0h7.875V12.25H444.6v1.125h5.625V14.5H444.6v1.125h5.625V16.75H444.6v1.125h7.875V19H446.85v2.25h-1.125V19H444.6v6.75h1.125V24.625h1.125V25.75h-1.125v1.125H444.6V28h-1.125V19h-2.25V17.875h2.25Zm6.75,9h1.125V21.25h-1.125v1.125H449.1v2.25h-1.125V23.5H446.85V21.25h1.125v1.125H449.1V21.25h1.125Zm-1.125,4.5h3.375V25.75H451.35v1.125h-1.125V25.75H449.1ZM436.725,25.75h1.125v1.125h-1.125ZM467.1,13.114V24.148h1.314V14.32h4.446V13.114ZM475.2,10Zm2.25,0h1.125v1.125H477.45Zm1.125,1.125H479.7V12.25h-1.125Zm4.5,0h7.875V19h-1.125v1.125H488.7V19h1.125V12.25h-2.25v3.375H486.45v2.25h-1.125V19H484.2v1.125h-1.125V19H484.2V17.875h1.125v-2.25h1.125V12.25h-3.375Zm-7.875,2.25h6.75V14.5H475.2Zm7.875,0H484.2v2.25h-1.125V16.75H481.95V15.625h1.125Zm-6.75,2.25h4.5V16.75h-4.5Zm0,2.25h4.5V19h-4.5Zm11.25,0H488.7V19h-1.125Zm-11.25,2.25h4.5v4.5h1.125v-2.25h1.125v2.25H481.95V25.75h-1.125v1.125H479.7V25.75h-2.25v1.125h-1.125Zm9,0h1.125V21.25h-1.125ZM477.45,21.25v3.375h2.25V21.25Zm9,0h1.125V23.5H486.45Zm-2.25,1.125h1.125v4.5H484.2Zm5.625,0h1.125V23.5h-1.125ZM490.95,23.5h1.125v2.25H490.95Zm-2.25,1.125h1.125V28h-4.5V26.875H488.7ZM495,10Zm9,0h1.125v2.25H508.5V10h1.125v2.25h2.25v1.125h-2.25V14.5h1.125v1.125h-1.125V16.75h2.25v1.125h-4.5V19h3.375v4.5h1.125v1.125H510.75v2.25h-1.125V28H508.5V26.875h1.125v-2.25H504V28h-1.125V24.625H501.75V23.5h1.125V19h3.375V17.875h-4.5V16.75H504V15.625h-1.125V14.5H504V13.375h-2.25V12.25H504Zm-7.875,1.125h4.5v11.25h-4.5Zm1.125,1.125V14.5h2.25V12.25Zm7.875,1.125V14.5H508.5V13.375Zm-7.875,2.25v2.25h2.25v-2.25Zm7.875,0V16.75H508.5V15.625ZM497.25,19v2.25h2.25V19ZM504,20.125V21.25h2.25V20.125Zm3.375,0V21.25h2.25V20.125ZM504,22.375V23.5h2.25V22.375Zm3.375,0V23.5h2.25V22.375ZM496.125,23.5h1.125v2.25h-1.125v1.125H495V25.75h1.125Zm2.25,0H499.5v1.125h-1.125Zm1.125,1.125h1.125v2.25H499.5Zm7.875,1.125H508.5v1.125h-1.125ZM530.1,13.114a15.214,15.214,0,0,0-1.854,3.708,14.33,14.33,0,0,0,0,9.4,15.883,15.883,0,0,0,1.854,3.708h1.26a18.238,18.238,0,0,1-1.71-3.726,14.223,14.223,0,0,1,0-9.36,17.4,17.4,0,0,1,1.71-3.726ZM534.6,10Zm4.5,0h1.125v2.25H543.6V11.125h1.125V12.25h5.625v1.125h-5.625V14.5h4.5v1.125h-4.5V16.75h4.5v1.125h-4.5V19h5.625v1.125H539.1V21.25h-1.125V15.625H536.85V16.75h-1.125v1.125H534.6V16.75h1.125V15.625h1.125V14.5h1.125V12.25H539.1Zm3.375,0H543.6v1.125h-1.125ZM539.1,13.375V14.5h4.5V13.375Zm0,2.25V16.75h4.5V15.625Zm0,2.25V19h4.5V17.875Zm0,3.375h10.125V28H548.1V26.875h-7.875V28H539.1Zm1.125,1.125V25.75H548.1V22.375Zm15.615-9.261a18.32,18.32,0,0,1,1.71,3.726,14.854,14.854,0,0,1,.792,4.68,14.94,14.94,0,0,1-.792,4.68,19.256,19.256,0,0,1-1.71,3.726h1.26a17.421,17.421,0,0,0,1.854-3.708,14.33,14.33,0,0,0,0-9.4,16.617,16.617,0,0,0-1.854-3.708ZM574.2,10Zm3.375,0H578.7v4.5h2.25V13.375h2.25V12.25h-2.25V11.125h2.25V10h1.125v1.125H587.7V10h1.125v1.125h2.25V12.25h-2.25v1.125h2.25V16.75h-4.5v1.125H585.45V16.75h1.125V13.375H587.7V12.25h-3.375v1.125h1.125V16.75h-1.125v1.125H583.2V19h3.375V17.875H587.7V19h3.375v1.125h-4.5V21.25h3.375v1.125h-3.375V23.5h3.375v1.125h-3.375V25.75h4.5v1.125H583.2V28h-1.125V20.125H580.95V21.25h-1.125V20.125h1.125V19h1.125V17.875H583.2V16.75h-2.25V15.625H578.7V16.75h1.125v1.125H578.7V28h-1.125V19H576.45v2.25h-1.125v1.125H574.2V21.25h1.125V19h1.125V16.75h1.125V15.625H574.2V14.5h3.375Zm4.5,4.5v1.125h2.25V14.5Zm5.625,0v1.125h2.25V14.5Zm-7.875,3.375h1.125V19h-1.125Zm3.375,2.25V21.25h2.25V20.125Zm0,2.25V23.5h2.25V22.375Zm0,2.25V25.75h2.25V24.625ZM594,10Zm2.25,0h1.125v1.125H596.25Zm1.125,1.125H598.5V12.25h-1.125Zm4.5,0h3.375V14.5h-1.125v1.125H603V16.75h-1.125v1.125H600.75V16.75h1.125V15.625H603V14.5h1.125V12.25h-2.25Zm4.5,0H607.5V12.25h1.125V11.125h1.125V12.25h-1.125V14.5h1.125V13.375h1.125V14.5H609.75v2.25h-1.125v1.125H603V16.75h5.625V15.625H607.5v-2.25h-1.125ZM594,13.375h6.75V14.5H594Zm7.875,0H603V14.5h-1.125Zm-6.75,2.25h4.5V16.75h-4.5ZM609.75,16.75h1.125v1.125H609.75Zm-14.625,1.125h4.5V19h-4.5ZM603,19h5.625v5.625H607.5V25.75h3.375v1.125H600.75V25.75h3.375V24.625h1.125V25.75h1.125V24.625H607.5V23.5h-3.375v1.125H603Zm-7.875,1.125h4.5v6.75H598.5V25.75h-2.25v1.125h-1.125Zm9,0v2.25H607.5v-2.25ZM596.25,21.25v3.375h2.25V21.25ZM613.8,10Zm2.25,1.125H627.3V25.75h-1.125V12.25h-9V24.625H616.05v2.25h-1.125V28H613.8V26.875h1.125v-2.25h1.125Zm4.5,2.25h4.5V14.5h-3.375v2.25h3.375v4.5h-3.375V23.5H622.8V22.375h1.125V23.5h1.125v2.25h-1.125V24.625h-2.25V25.75H620.55v1.125h-1.125V25.75H618.3V24.625h2.25V21.25H618.3v-4.5h2.25V15.625H618.3V14.5h2.25Zm-1.125,4.5v2.25h1.125v-2.25Zm2.25,0v2.25h2.25v-2.25Zm7.875,6.75h1.125V28h-2.25V26.875h1.125ZM627.3,25.75h1.125v1.125H627.3ZM633.6,10Zm11.25,0h1.125v2.25H644.85v1.125h-1.125V14.5H642.6v1.125h-1.125V16.75H640.35V15.625h1.125V14.5H642.6V13.375h1.125V12.25h1.125Zm-10.125,1.125h5.625v2.25h-1.125v2.25H638.1V16.75h-1.125V15.625H638.1v-2.25h1.125V12.25H635.85V22.375h1.125V23.5H635.85V28h-1.125Zm11.25,1.125H647.1v1.125h-1.125Zm1.125,1.125h1.125V14.5H647.1Zm1.125,1.125h1.125v1.125h-1.125V16.75H642.6V15.625h5.625Zm1.125,1.125h1.125V16.75H649.35ZM638.1,16.75h1.125V19H638.1Zm3.375,1.125h3.375v4.5h-1.125V25.75H642.6v1.125h-1.125V28H640.35V26.875h1.125V25.75H642.6V22.375h-1.125Zm4.5,0h3.375v4.5h-1.125V25.75H647.1v1.125h-1.125V28H644.85V26.875h1.125V25.75H647.1V22.375h-1.125ZM639.225,19h1.125v3.375h-1.125V23.5H638.1v1.125h-1.125V23.5H638.1V22.375h1.125Zm3.375,0v2.25h1.125V19Zm4.5,0v2.25h1.125V19Zm-3.375,6.75h1.125v1.125h-1.125Zm4.5,0h1.125v1.125h-1.125Zm1.125,1.125h1.125V28H649.35ZM653.4,10Zm1.125,1.125h5.625v2.25h-1.125V14.5H657.9v2.25h3.375V14.5h2.25V13.375h1.125V12.25h-3.375V11.125h7.875V12.25h-3.375v1.125H664.65V14.5h4.5v9h-1.125V22.375H662.4V23.5h-1.125V19H660.15v1.125h-1.125V19h1.125V17.875H657.9v9h-1.125V28H655.65V26.875h1.125v-9H653.4V16.75h3.375V14.5H657.9V13.375h1.125V12.25h-4.5Zm1.125,2.25h1.125V14.5H655.65Zm6.75,2.25V16.75h5.625V15.625Zm0,2.25V19h5.625V17.875Zm0,2.25V21.25h5.625V20.125Zm1.125,3.375h1.125v1.125h-1.125V25.75H662.4v1.125h-1.125V28H660.15V26.875h1.125V25.75H662.4V24.625h1.125Zm2.25,0H666.9v1.125h-1.125Zm1.125,1.125h1.125V25.75h1.125V28h-1.125V26.875H666.9ZM654.525,25.75h1.125v1.125h-1.125ZM673.2,10Zm7.875,0H682.2v3.375h5.625V14.5H682.2v3.375h7.875V19H673.2V17.875h7.875V14.5h-4.5v1.125H675.45V16.75h-1.125V15.625h1.125V14.5h1.125V11.125H677.7v2.25h3.375Zm-4.5,11.25H686.7V28h-1.125V26.875H677.7V28h-1.125Zm1.125,1.125V25.75h7.875V22.375ZM693,10Zm7.875,0H702v1.125h4.5v2.25h3.375V14.5H706.5v2.25H702v1.125h5.625V19H702v1.125h7.875V21.25H693V20.125h7.875V19H695.25V17.875h5.625V16.75H695.25V15.625h5.625V14.5H693V13.375h7.875V12.25H695.25V11.125h5.625ZM702,12.25v1.125h3.375V12.25Zm0,2.25v1.125h3.375V14.5Zm-5.625,7.875H706.5V28H696.375ZM697.5,23.5v1.125h7.875V23.5Zm0,2.25v1.125h7.875V25.75Zm20.286-6.858V28.72H713.34v1.206h5.76V18.892ZM732.6,10Zm2.25,0h1.125v1.125H734.85Zm7.875,0h1.125v5.625h5.625V16.75H746.1v9h-1.125v-9H743.85V23.5h-1.125v2.25H741.6v1.125h-1.125V28H739.35V26.875h1.125V25.75H741.6V23.5h1.125V16.75H739.35v4.5H737.1v5.625h-1.125V28H734.85V26.875h1.125V21.25h-2.25v-4.5h5.625V15.625h3.375Zm-6.75,1.125H737.1V12.25h-1.125Zm9,0H746.1V12.25h-1.125ZM746.1,12.25h1.125v1.125H746.1Zm-13.5,1.125h7.875V14.5H732.6Zm2.25,4.5v2.25h3.375v-2.25Zm-1.125,4.5h1.125V23.5h-1.125v1.125H732.6V23.5h1.125Zm4.5,0h1.125V23.5h-1.125ZM739.35,23.5h1.125v1.125H739.35Zm9,0h1.125v3.375H746.1V25.75h2.25Zm-14.625,2.25h1.125v1.125h-1.125ZM752.4,10Zm1.125,1.125h15.75V12.25H765.9V26.875h-1.125V28H763.65V26.875h1.125V12.25h-11.25ZM756.9,14.5h5.625v9H761.4V22.375h-3.375V23.5H756.9Zm1.125,1.125V21.25H761.4V15.625Zm4.5,10.125h1.125v1.125h-1.125ZM772.2,10Zm3.375,0H776.7v4.5h2.25v1.125H776.7v2.25h1.125V19H776.7v7.875h-1.125V28H774.45V26.875h1.125v-6.75H774.45V21.25H772.2V20.125h2.25V19h1.125V15.625H772.2V14.5h3.375Zm4.5,1.125H785.7V16.75h-1.125v-4.5H781.2v4.5h-1.125v1.125H778.95V16.75h1.125ZM785.7,16.75h2.25v1.125H785.7ZM778.95,19h7.875v2.25H785.7v1.125h-1.125V23.5H783.45v1.125h-1.125V25.75H781.2v1.125h-2.25V28H776.7V26.875h2.25V25.75h2.25V24.625h1.125V23.5h1.125V22.375h1.125V21.25H785.7V20.125h-4.5v2.25h-1.125v-2.25H778.95Zm2.25,3.375h1.125V23.5H781.2Zm2.25,2.25h2.25V25.75h-2.25ZM773.325,25.75h1.125v1.125h-1.125Zm12.375,0h3.375v1.125H787.95V28h-1.125V26.875H785.7ZM792,10Zm1.125,0h1.125v1.125h-1.125Zm6.75,0H801v1.125h6.75v2.25h-1.125V14.5H805.5V13.375h1.125V12.25H803.25V14.5h-1.125v1.125H801V16.75h-1.125v1.125H805.5V16.75h3.375v1.125H807.75V19h-1.125V17.875H805.5V25.75h-1.125v1.125H803.25V25.75h-5.625v1.125H796.5V28h-1.125V26.875H796.5V25.75h-1.125V19H794.25V16.75H792V15.625h2.25V14.5h1.125V13.375H796.5V12.25h1.125v1.125H796.5V14.5h-1.125v3.375h2.25V16.75h2.25V15.625H801V14.5h1.125V12.25h-2.25v1.125H798.75V14.5h-1.125V13.375h1.125V12.25h1.125Zm-5.625,1.125h1.125v2.25H794.25Zm9,3.375h1.125v1.125H803.25Zm1.125,1.125H805.5V16.75h-1.125ZM796.5,19v1.125h7.875V19Zm0,2.25v1.125h7.875V21.25Zm0,2.25v1.125h7.875V23.5Zm7.875,3.375H805.5V28h-1.125ZM811.8,10Zm3.375,0H816.3v4.5h2.25V13.375h2.25V12.25h-2.25V11.125h2.25V10h1.125v1.125H825.3V10h1.125v1.125h2.25V12.25h-2.25v1.125h2.25V16.75h-4.5v1.125H823.05V16.75h1.125V13.375H825.3V12.25h-3.375v1.125h1.125V16.75h-1.125v1.125H820.8V19h3.375V17.875H825.3V19h3.375v1.125h-4.5V21.25h3.375v1.125h-3.375V23.5h3.375v1.125h-3.375V25.75h4.5v1.125H820.8V28h-1.125V20.125H818.55V21.25h-1.125V20.125h1.125V19h1.125V17.875H820.8V16.75h-2.25V15.625H816.3V16.75h1.125v1.125H816.3V28h-1.125V19H814.05v2.25h-1.125v1.125H811.8V21.25h1.125V19h1.125V16.75h1.125V15.625H811.8V14.5h3.375Zm4.5,4.5v1.125h2.25V14.5Zm5.625,0v1.125h2.25V14.5Zm-7.875,3.375h1.125V19h-1.125Zm3.375,2.25V21.25h2.25V20.125Zm0,2.25V23.5h2.25V22.375Zm0,2.25V25.75h2.25V24.625ZM831.6,10Zm2.25,0h1.125v1.125H833.85Zm1.125,1.125H836.1V12.25h-1.125Zm4.5,0h3.375V14.5h-1.125v1.125H840.6V16.75h-1.125v1.125H838.35V16.75h1.125V15.625H840.6V14.5h1.125V12.25h-2.25Zm4.5,0H845.1V12.25h1.125V11.125h1.125V12.25h-1.125V14.5h1.125V13.375h1.125V14.5H847.35v2.25h-1.125v1.125H840.6V16.75h5.625V15.625H845.1v-2.25h-1.125ZM831.6,13.375h6.75V14.5H831.6Zm7.875,0H840.6V14.5h-1.125Zm-6.75,2.25h4.5V16.75h-4.5ZM847.35,16.75h1.125v1.125H847.35Zm-14.625,1.125h4.5V19h-4.5ZM840.6,19h5.625v5.625H845.1V25.75h3.375v1.125H838.35V25.75h3.375V24.625h1.125V25.75h1.125V24.625H845.1V23.5h-3.375v1.125H840.6Zm-7.875,1.125h4.5v6.75H836.1V25.75h-2.25v1.125h-1.125Zm9,0v2.25H845.1v-2.25ZM833.85,21.25v3.375h2.25V21.25Zm25.722-6.1.27,9.4h1.116l.288-9.4Zm.828,10.71a1.031,1.031,0,0,0-.774.306.966.966,0,0,0-.306.756,1.031,1.031,0,0,0,.306.774A1.1,1.1,0,0,0,860.4,28a1.147,1.147,0,0,0,.792-.306,1.044,1.044,0,0,0,.306-.774,1.031,1.031,0,0,0-.306-.756A1.071,1.071,0,0,0,860.4,25.858ZM0,36Zm4.5,0H5.625v4.5H9v6.75H7.875V49.5H6.75v1.125H5.625V51.75H4.5v1.125H2.25V54H0V52.875H2.25V51.75H4.5V50.625H5.625V49.5H6.75V47.25H7.875V41.625H4.5v4.5H3.375V47.25H2.25V46.125H3.375v-4.5H1.125V40.5H4.5Zm5.625,3.375H15.75V51.75H14.625V50.625H11.25V51.75H10.125ZM11.25,40.5v9h3.375v-9ZM3.375,47.25H4.5v1.125H3.375ZM4.5,48.375H5.625V49.5H4.5Zm2.25,2.25H7.875V51.75H6.75ZM7.875,51.75H9V54H7.875ZM19.8,36Zm3.375,1.125H33.3v9H32.175V45H28.8v2.25h7.875v1.125H31.05V49.5H29.925V48.375H28.8V54H27.675V48.375H26.55V49.5H25.425v1.125H24.3V51.75H22.05v1.125H19.8V51.75h2.25V50.625H24.3V49.5h1.125V48.375H19.8V47.25h7.875V45H24.3v1.125H23.175ZM24.3,38.25V40.5h3.375V38.25Zm4.5,0V40.5h3.375V38.25Zm-4.5,3.375v2.25h3.375v-2.25Zm4.5,0v2.25h3.375v-2.25ZM31.05,49.5H33.3v1.125H31.05Zm2.25,1.125h3.375V51.75H35.55v1.125H34.425V51.75H33.3ZM39.6,36Zm4.5,0h7.875v7.875H44.1Zm1.125,1.125v2.25H50.85v-2.25Zm0,3.375v2.25H50.85V40.5Zm-4.5,4.5H55.35v1.125H48.6v2.25h5.625V49.5H48.6v3.375H46.35V51.75h1.125V46.125h-6.75ZM44.1,47.25h1.125v3.375H44.1V51.75H42.975v1.125H41.85V54H40.725V52.875H41.85V51.75h1.125V50.625H44.1Zm1.125,3.375H46.35V51.75H45.225Zm3.375,2.25h6.75V54H48.6ZM59.4,36Zm3.375,0H63.9v4.5h2.25v1.125H63.9v2.25h1.125V45H63.9v7.875H62.775V54H61.65V52.875h1.125v-6.75H61.65V47.25H59.4V46.125h2.25V45h1.125V41.625H59.4V40.5h3.375Zm4.5,1.125H72.9V42.75H71.775v-4.5H68.4v4.5H67.275v1.125H66.15V42.75h1.125ZM72.9,42.75h2.25v1.125H72.9ZM66.15,45h7.875v2.25H72.9v1.125H71.775V49.5H70.65v1.125H69.525V51.75H68.4v1.125H66.15V54H63.9V52.875h2.25V51.75H68.4V50.625h1.125V49.5H70.65V48.375h1.125V47.25H72.9V46.125H68.4v2.25H67.275v-2.25H66.15Zm2.25,3.375h1.125V49.5H68.4Zm2.25,2.25H72.9V51.75H70.65ZM60.525,51.75H61.65v1.125H60.525Zm12.375,0h3.375v1.125H75.15V54H74.025V52.875H72.9ZM79.2,36Zm1.125,0H81.45v1.125H80.325Zm6.75,0H88.2v1.125h6.75v2.25H93.825V40.5H92.7V39.375h1.125V38.25H90.45V40.5H89.325v1.125H88.2V42.75H87.075v1.125H92.7V42.75h3.375v1.125H94.95V45H93.825V43.875H92.7V51.75H91.575v1.125H90.45V51.75H84.825v1.125H83.7V54H82.575V52.875H83.7V51.75H82.575V45H81.45V42.75H79.2V41.625h2.25V40.5h1.125V39.375H83.7V38.25h1.125v1.125H83.7V40.5H82.575v3.375h2.25V42.75h2.25V41.625H88.2V40.5h1.125V38.25h-2.25v1.125H85.95V40.5H84.825V39.375H85.95V38.25h1.125ZM81.45,37.125h1.125v2.25H81.45Zm9,3.375h1.125v1.125H90.45Zm1.125,1.125H92.7V42.75H91.575ZM83.7,45v1.125h7.875V45Zm0,2.25v1.125h7.875V47.25Zm0,2.25v1.125h7.875V49.5Zm7.875,3.375H92.7V54H91.575ZM99,36Zm3.375,0H103.5v1.125h-1.125Zm1.125,1.125h1.125V38.25H108v1.125h-7.875V38.25H103.5Zm9,0h2.25V38.25H112.5v1.125h-2.25V42.75h5.625v1.125h-2.25V54H112.5V43.875h-2.25V49.5h-1.125v2.25H108v1.125h-1.125V54H105.75V52.875h1.125V51.75H108V50.625h-1.125V49.5h2.25V38.25H112.5ZM101.25,40.5h1.125v1.125H101.25Zm4.5,0h1.125v1.125H105.75V42.75H108v1.125h-3.375v2.25H108V47.25h-3.375v5.625H103.5V54h-1.125V52.875H103.5V47.25h-3.375V46.125H103.5v-2.25H99V42.75h3.375V41.625H103.5V42.75h1.125V41.625h1.125Zm-4.5,7.875h1.125V49.5H101.25v1.125h-1.125V51.75H99V50.625h1.125V49.5h1.125Zm4.5,0h1.125V49.5H105.75Zm-4.5,3.375h1.125v1.125H101.25ZM118.8,36Zm11.25,0h1.125v2.25h4.5V40.5H134.55v1.125h-1.125V42.75H132.3V45h3.375v3.375H134.55v2.25h-1.125V51.75H132.3v1.125h-1.125V54h-2.25V52.875h2.25V51.75H132.3V49.5h1.125V48.375h1.125v-2.25h-3.375v2.25h-2.25V49.5H127.8V48.375h1.125V47.25h1.125V46.125h1.125V45H130.05v1.125H127.8V45h2.25V43.875h1.125v-2.25h2.25V40.5h1.125V39.375h-4.5V40.5h-1.125v1.125H127.8V45h-3.375v2.25H127.8v1.125h-2.25V49.5h-1.125V54H123.3V49.5h-1.125v1.125H121.05V51.75h-1.125v1.125H118.8V51.75h1.125V50.625h1.125V49.5h1.125V48.375H118.8V47.25h4.5V45h-3.375V37.125H127.8V40.5h1.125V39.375h1.125Zm-9,2.25V40.5h2.25V38.25Zm3.375,0V40.5h2.25V38.25Zm5.625,2.25h1.125v1.125H130.05Zm-9,1.125v2.25h2.25v-2.25Zm3.375,0v2.25h2.25v-2.25Zm6.75,6.75H132.3V49.5h-1.125ZM125.55,49.5h1.125v1.125H125.55Zm1.125,1.125H127.8V51.75h-1.125ZM138.6,36Zm4.5,0h1.125v3.375H143.1v6.75h5.625V42.75h-4.5V41.625h4.5V36h1.125v5.625h4.5V42.75h-4.5v3.375h5.625V47.25H149.85V54h-1.125V47.25H143.1V54h-1.125V42.75H140.85v1.125h-1.125V45s-.844.281-1.125,0,0-1.125,0-1.125h1.125V42.75h1.125V41.625h1.125v-2.25H143.1Zm2.25,1.125h1.125V38.25H145.35Zm7.875,0h1.125V38.25h-1.125v1.125H152.1V40.5h-1.125V39.375H152.1V38.25h1.125Zm-6.75,1.125H147.6V40.5h-1.125Zm20.907,8.028a1.089,1.089,0,0,0-.846.306,1.044,1.044,0,0,0-.324.81,1.071,1.071,0,0,0,.306.792,1.047,1.047,0,0,0,.774.324.963.963,0,0,0,.4-.072,2.123,2.123,0,0,1-.378,1.206,2.6,2.6,0,0,1-1.152.792v.882a3.472,3.472,0,0,0,1.854-1.17,3.373,3.373,0,0,0,.7-2.106,2.091,2.091,0,0,0-.36-1.26A1.149,1.149,0,0,0,167.382,46.278ZM178.2,36Zm3.375,2.25H191.7v9h-1.125V46.125H182.7V47.25h-1.125Zm1.125,1.125V45h7.875V39.375Zm1.125,9h1.125V49.5h-1.125v1.125H182.7V51.75h-1.125v1.125H180.45V54h-1.125V52.875h1.125V51.75h1.125V50.625H182.7V49.5h1.125Zm4.5,0h1.125V49.5h-1.125ZM189.45,49.5h1.125v1.125H189.45Zm1.125,1.125H191.7V51.75h1.125V54H191.7V52.875h-1.125ZM198,36Zm1.125,1.125H213.75V38.25h-4.5V40.5h3.375V45h-6.75v1.125h9V47.25h-4.5V49.5H209.25v1.125h-1.125V51.75h-2.25v1.125h-2.25V54H200.25V52.875h3.375V51.75h2.25V50.625h2.25V49.5h1.125V47.25h-4.5v1.125h-1.125V49.5H202.5V48.375h1.125V47.25H198V46.125h6.75V45h-4.5V40.5h3.375V38.25h-4.5Zm5.625,1.125V40.5h3.375V38.25Zm-3.375,3.375v2.25h2.25v-2.25Zm3.375,0v2.25h3.375v-2.25Zm4.5,0v2.25h2.25v-2.25ZM203.625,49.5h2.25v1.125h-2.25Zm4.5,2.25h2.25v1.125h-2.25Zm2.25,1.125H211.5V54h-1.125ZM217.8,36Zm3.375,0H222.3v2.25h1.125V36h1.125v2.25h2.25V36h1.125v2.25h1.125V36h1.125v2.25h3.375v1.125h-3.375v2.25H229.05v-2.25h-1.125V42.75h-4.5V39.375H222.3v2.25h-1.125V42.75H220.05v1.125h14.625V45H233.55v1.125h-1.125V47.25H231.3v4.5h-1.125v1.125H229.05V51.75h1.125V48.375H226.8V54h-1.125V48.375H222.3v4.5h-1.125V47.25h4.5V45H220.05v2.25h-1.125v1.125H217.8v-2.25h1.125V42.75h1.125V41.625h1.125v-2.25h-2.25V38.25h2.25Zm3.375,3.375v2.25h2.25v-2.25Zm9,1.125h1.125v2.25h-4.5V41.625h3.375ZM226.8,45v2.25h4.5V46.125h1.125V45Zm1.125,5.625h1.125V51.75h-1.125ZM237.6,36Zm4.5,0h1.125v1.125h5.625V36h1.125v1.125h4.5V38.25h-4.5v1.125H248.85V38.25h-5.625v1.125H242.1V38.25h-4.5V37.125h4.5Zm3.375,3.375H246.6V40.5h4.5V39.375h1.125V40.5H251.1v1.125h-1.125V42.75H248.85v1.125h5.625V45H246.6v1.125h-2.25V47.25h6.75V54h-1.125V52.875h-6.75V54H242.1V48.375h-2.25V49.5H237.6V48.375h2.25V47.25h2.25V46.125h2.25V45H237.6V43.875h7.875v-2.25H239.85V40.5h5.625Zm1.125,2.25v2.25h1.125V42.75h1.125V41.625Zm-3.375,6.75V49.5h6.75V48.375Zm0,2.25V51.75h6.75V50.625ZM257.4,36Zm3.375,0H261.9v2.25h2.25V37.125h1.125V38.25H266.4v1.125h-2.25V40.5h2.25V39.375h1.125V38.25h1.125V36h1.125v2.25H270.9V37.125h1.125V38.25h2.25v1.125h-2.25V40.5h2.25v1.125h-2.25V42.75h2.25v1.125h-2.25V45h2.25v1.125H268.65V47.25h3.375v1.125H270.9V49.5h-1.125v1.125h-2.25V51.75H264.15v1.125h-3.375V54H257.4V52.875h3.375V51.75h3.375V50.625h3.375V49.5h2.25V48.375H261.9V49.5h-1.125V48.375h-2.25V47.25h1.125V40.5h-1.125v1.125H257.4V40.5h1.125V39.375h1.125V38.25h1.125Zm2.25,0h1.125v1.125h-1.125Zm-2.25,3.375V40.5h2.25V39.375Zm7.875,0V40.5h2.25V39.375ZM266.4,40.5v1.125h-2.25V42.75h2.25v1.125h-2.25V45h3.375V40.5Zm-5.625,1.125V42.75h2.25V41.625Zm7.875,0V42.75h2.25V41.625Zm-7.875,2.25V45h2.25V43.875Zm7.875,0V45h2.25V43.875Zm-7.875,2.25V47.25h6.75V46.125ZM261.9,49.5h2.25v1.125H261.9Zm5.625,2.25H270.9v1.125h-3.375Zm3.375,1.125h3.375V54H270.9ZM277.2,36Zm2.25,0h1.125v1.125H279.45Zm1.125,1.125H281.7V38.25h-1.125Zm4.5,0h3.375V40.5h-1.125v1.125H286.2V42.75h-1.125v1.125H283.95V42.75h1.125V41.625H286.2V40.5h1.125V38.25h-2.25Zm4.5,0H290.7V38.25h1.125V37.125h1.125V38.25h-1.125V40.5h1.125V39.375h1.125V40.5H292.95v2.25h-1.125v1.125H286.2V42.75h5.625V41.625H290.7v-2.25h-1.125ZM277.2,39.375h6.75V40.5H277.2Zm7.875,0H286.2V40.5h-1.125Zm-6.75,2.25h4.5V42.75h-4.5ZM292.95,42.75h1.125v1.125H292.95Zm-14.625,1.125h4.5V45h-4.5ZM286.2,45h5.625v5.625H290.7V51.75h3.375v1.125H283.95V51.75h3.375V50.625h1.125V51.75h1.125V50.625H290.7V49.5h-3.375v1.125H286.2Zm-7.875,1.125h4.5v6.75H281.7V51.75h-2.25v1.125h-1.125Zm9,0v2.25H290.7v-2.25ZM279.45,47.25v3.375h2.25V47.25ZM297,36Zm3.375,0H301.5v3.375h-1.125V54H299.25V42.75h-1.125v1.125H297V42.75h1.125V41.625h1.125v-2.25h1.125Zm6.75,0h1.125v4.5h4.5v1.125h-4.5v4.5h5.625V47.25H308.25V54h-1.125V47.25H301.5V46.125h5.625v-4.5H303.75v2.25h-1.125V45H301.5V43.875h1.125v-2.25h1.125V38.25h1.125V40.5h2.25Zm9.675,0Zm1.125,1.125h5.625v6.75H321.3v2.25h2.25V47.25H321.3v3.375h2.25V51.75h-3.375v1.125H319.05V54h-1.125V52.875H316.8V51.75h1.125V45h1.125v6.75h1.125V43.875h-2.25Zm6.75,0h6.75V45H328.05v2.25h-1.125V45H325.8v6.75h1.125V50.625h1.125V51.75h-1.125v1.125H325.8V54h-1.125ZM319.05,38.25v4.5h3.375v-4.5Zm6.75,0V40.5h4.5V38.25Zm0,3.375v2.25h4.5v-2.25ZM331.425,45h1.125v1.125h-1.125V47.25H330.3v1.125h-1.125V49.5H328.05V47.25h2.25V46.125h1.125Zm-2.25,4.5H330.3v1.125h-1.125Zm1.125,1.125h3.375V51.75H332.55v1.125h-1.125V51.75H330.3ZM336.6,36Zm5.625,0h2.25v1.125h-2.25V38.25H338.85v4.5h5.625v1.125H338.85V49.5h2.25V48.375h3.375V49.5H341.1v1.125h-3.375v-13.5h4.5Zm3.375,1.125h6.75v11.25h-1.125V49.5H350.1v1.125h-1.125V49.5H350.1V48.375h1.125V38.25h-4.5V54H345.6Zm2.25,11.25h1.125V49.5H347.85ZM356.4,36Zm7.875,0H365.4v1.125h5.625V38.25h-2.25v1.125H367.65V40.5h5.625v1.125H356.4V40.5h5.625V39.375h1.125V40.5h3.375V39.375h1.125V38.25h-5.625v1.125H360.9V38.25h-2.25V37.125h5.625Zm-4.5,6.75H369.9v5.625h-4.5V49.5h7.875v1.125H365.4V54h-1.125V50.625H356.4V49.5h7.875V48.375h-4.5Zm1.125,1.125V45h7.875V43.875Zm0,2.25V47.25h7.875V46.125ZM376.2,36Zm14.625,0h1.125V52.875h-1.125V54H389.7V52.875h1.125Zm-13.5,1.125h9V38.25h-4.5v1.125H380.7V40.5h-1.125v1.125H378.45V42.75h5.625V41.625H385.2V42.75h1.125V45H385.2V43.875h-3.375V47.25H385.2v1.125h-3.375v2.25h4.5V51.75h-4.5v1.125H378.45V54h-1.125V52.875H376.2V51.75h4.5V48.375h-3.375V47.25H380.7V43.875h-2.25V45h-1.125V43.875H376.2V42.75h1.125V41.625h1.125V40.5h1.125V39.375H380.7V38.25h-3.375Zm10.125,2.25h1.125V49.5H387.45Zm-4.5,1.125h1.125v1.125H382.95Zm5.625,11.25H389.7v1.125h-1.125ZM396,36Zm3.375,0H400.5v3.375h-1.125V54H398.25V42.75h-1.125v1.125H396V42.75h1.125V41.625h1.125v-2.25h1.125Zm4.5,0H405v3.375h6.75v2.25h-1.125V42.75H409.5V41.625h1.125V40.5h-6.75v1.125H402.75V42.75h-1.125v1.125H400.5V42.75h1.125V41.625h1.125v-2.25h1.125Zm2.25,6.75h1.125V52.875h-1.125V54H405V52.875h1.125ZM403.875,45H405v2.25h-1.125v1.125H402.75V49.5h-1.125V48.375h1.125V47.25h1.125Zm4.5,0H409.5v1.125h-1.125Zm1.125,1.125h1.125V47.25H409.5Zm1.125,1.125h1.125V49.5h-1.125Zm-6.75,4.5H405v1.125h-1.125ZM415.8,36Zm7.875,0H424.8v1.125h6.75V38.25H424.8v1.125h5.625V40.5H418.05V39.375h5.625V38.25h-6.75V37.125h6.75Zm-4.5,5.625H429.3V45h-2.25v1.125h5.625V47.25H415.8V46.125h5.625V45h-2.25ZM420.3,42.75v1.125h7.875V42.75ZM422.55,45v1.125h3.375V45Zm-3.375,3.375H429.3V54h-1.125V52.875H420.3V54h-1.125ZM420.3,49.5v2.25h7.875V49.5ZM435.6,36Zm3.375,0H440.1v1.125h2.25V36h1.125v1.125h2.25V38.25h-2.25v1.125h2.25V42.75H442.35v1.125h-1.125V42.75h1.125v-4.5H440.1v5.625h-1.125V45h3.375V43.875h1.125V45H444.6V43.875h1.125V42.75h1.125V40.5h1.125V36H449.1v4.5h3.375v2.25H451.35v1.125h-1.125V42.75h1.125V41.625h-3.375V42.75H446.85v1.125h-1.125V45H444.6v1.125h-2.25V47.25h2.25v1.125h-2.25V49.5h2.25v1.125h-2.25V51.75h2.25v1.125h-5.625V54H437.85V46.125h-1.125V47.25H435.6V46.125h1.125V45h1.125V43.875h1.125V42.75h-2.25V39.375h2.25V38.25h-2.25V37.125h2.25Zm-1.125,4.5v1.125h1.125V40.5Zm5.625,0v1.125H444.6V40.5Zm4.5,3.375H449.1v4.5h-1.125v2.25H446.85v2.25h-1.125V54H444.6V52.875h1.125v-2.25h1.125v-2.25h1.125Zm-9,2.25V47.25h2.25V46.125Zm0,2.25V49.5h2.25V48.375Zm10.125,0h1.125v2.25H449.1Zm-10.125,2.25V51.75h2.25V50.625Zm11.25,0h1.125v2.25h-1.125Zm1.125,2.25h1.125V54H451.35ZM455.4,36Zm3.375,0H459.9v2.25h-1.125v1.125h4.5V42.75H464.4V40.5h1.125V36h1.125v3.375h4.5V51.75h-1.125v1.125H468.9V54h-1.125V52.875H468.9V51.75h1.125V40.5h-4.5v2.25H464.4v1.125h-1.125v9H462.15V51.75h-4.5v1.125h-1.125v-13.5h1.125V38.25h1.125Zm-1.125,4.5V45h4.5V40.5Zm7.875,3.375h1.125V45h-1.125ZM466.65,45h1.125v2.25H466.65Zm-9,1.125v4.5h4.5v-4.5Zm9,5.625h1.125v1.125H466.65ZM475.2,36Zm7.875,0H484.2v3.375h1.125V38.25h1.125V37.125h1.125V38.25H486.45v1.125h4.5V40.5h-7.875v2.25h9v1.125h-4.5V45H486.45V43.875h-4.5V45h-1.125v1.125H479.7V47.25h-2.25v1.125H475.2V47.25h2.25V46.125h2.25V45h1.125V43.875H475.2V42.75h6.75V40.5h-5.625V39.375h4.5V38.25h1.125v1.125h1.125ZM479.7,37.125h1.125V38.25H479.7ZM487.575,45H488.7v1.125h-1.125v6.75H486.45V54h-1.125V52.875h1.125V47.25h-3.375V49.5H481.95v2.25h-1.125v1.125H479.7V54h-1.125V52.875H479.7V51.75h1.125V49.5h1.125V47.25h-1.125V46.125h6.75Zm1.125,1.125h3.375V47.25H490.95v1.125h-1.125V47.25H488.7Zm-4.5,5.625h1.125v1.125H484.2ZM495,36Zm6.75,0h1.125v1.125H501.75Zm1.125,1.125H504V38.25h6.75v1.125h-3.375V40.5H506.25v1.125h3.375v11.25H508.5V54h-1.125V52.875H508.5V47.25h-1.125V46.125H508.5V42.75H498.375v3.375H499.5V45h1.125V43.875h1.125V45h-1.125v1.125H499.5V47.25h-1.125V54H497.25V41.625h3.375V40.5h1.125v1.125h3.375V40.5h1.125V39.375h-5.625V40.5H499.5V39.375h-3.375V38.25h6.75Zm2.25,6.75h1.125V45h-1.125ZM506.25,45h1.125v1.125H506.25v4.5h-5.625v-4.5h5.625Zm-4.5,2.25V49.5h3.375V47.25Zm4.5,4.5h1.125v1.125H506.25ZM514.8,36Zm1.125,1.125h5.625V42.75h-4.5V54h-1.125Zm7.875,0h5.625v15.75H528.3V54h-1.125V52.875H528.3V42.75h-4.5Zm-6.75,1.125v1.125h3.375V38.25Zm7.875,0v1.125H528.3V38.25ZM517.05,40.5v1.125h3.375V40.5Zm7.875,0v1.125H528.3V40.5Zm-6.75,3.375h9V45h-2.25v2.25h2.25v1.125h-2.25v4.5H523.8v-4.5h-2.25v2.25h-1.125V51.75H519.3v1.125h-1.125V51.75H519.3V50.625h1.125v-2.25h-2.25V47.25h2.25V45h-2.25ZM521.55,45v2.25h2.25V45Zm4.5,6.75h1.125v1.125H526.05ZM534.6,36Zm6.75,0h1.125v1.125H541.35Zm1.125,1.125H543.6v2.25h-1.125Zm-6.75,3.375H550.35v1.125H535.725Zm11.25,2.25H548.1V45h-1.125v2.25H545.85V49.5h-1.125v1.125H543.6V49.5h1.125V47.25h1.125V45h1.125Zm-9,1.125H539.1V45h-1.125ZM539.1,45h1.125v2.25H539.1Zm1.125,2.25h1.125v3.375h-1.125Zm-5.625,4.5h16.875v1.125H534.6ZM554.4,36Zm2.25,0h1.125v1.125H556.65Zm1.125,1.125H558.9V38.25h-1.125Zm4.5,0h3.375V40.5h-1.125v1.125H563.4V42.75h-1.125v1.125H561.15V42.75h1.125V41.625H563.4V40.5h1.125V38.25h-2.25Zm4.5,0H567.9V38.25h1.125V37.125h1.125V38.25h-1.125V40.5h1.125V39.375h1.125V40.5H570.15v2.25h-1.125v1.125H563.4V42.75h5.625V41.625H567.9v-2.25h-1.125ZM554.4,39.375h6.75V40.5H554.4Zm7.875,0H563.4V40.5h-1.125Zm-6.75,2.25h4.5V42.75h-4.5ZM570.15,42.75h1.125v1.125H570.15Zm-14.625,1.125h4.5V45h-4.5ZM563.4,45h5.625v5.625H567.9V51.75h3.375v1.125H561.15V51.75h3.375V50.625h1.125V51.75h1.125V50.625H567.9V49.5h-3.375v1.125H563.4Zm-7.875,1.125h4.5v6.75H558.9V51.75h-2.25v1.125h-1.125Zm9,0v2.25H567.9v-2.25ZM556.65,47.25v3.375h2.25V47.25ZM574.2,36Zm7.875,0H583.2v3.375h1.125V38.25h1.125V37.125h1.125V38.25H585.45v1.125h4.5V40.5h-7.875v2.25h9v1.125h-4.5V45H585.45V43.875h-4.5V45h-1.125v1.125H578.7V47.25h-2.25v1.125H574.2V47.25h2.25V46.125h2.25V45h1.125V43.875H574.2V42.75h6.75V40.5h-5.625V39.375h4.5V38.25h1.125v1.125h1.125ZM578.7,37.125h1.125V38.25H578.7ZM586.575,45H587.7v1.125h-1.125v6.75H585.45V54h-1.125V52.875h1.125V47.25h-3.375V49.5H580.95v2.25h-1.125v1.125H578.7V54h-1.125V52.875H578.7V51.75h1.125V49.5h1.125V47.25h-1.125V46.125h6.75Zm1.125,1.125h3.375V47.25H589.95v1.125h-1.125V47.25H587.7Zm-4.5,5.625h1.125v1.125H583.2ZM594,36Zm12.375,0H607.5v1.125h1.125V38.25H603v1.125h-4.5V40.5h10.125v6.75H607.5V46.125h-9V49.5h-1.125v2.25H596.25v1.125h-1.125V54H594V52.875h1.125V51.75h1.125V49.5h1.125V38.25H603V37.125h3.375ZM598.5,41.625V45h9V41.625ZM613.8,36Zm1.125,1.125h6.75V45H616.05v5.625h1.125V49.5H618.3V48.375h1.125V47.25h1.125v1.125h-1.125V49.5H618.3v1.125h-1.125V51.75h-2.25Zm9,0h5.625v11.25h-1.125V49.5H627.3V48.375h1.125V38.25H625.05V54h-1.125ZM616.05,38.25V40.5h4.5V38.25Zm0,3.375v2.25h4.5v-2.25Zm2.25,4.5h1.125V47.25H618.3Zm7.875,1.125H627.3v1.125h-1.125Zm-5.625,1.125h1.125v2.25H620.55ZM633.6,36Zm1.125,1.125h15.75V38.25H647.1V52.875h-1.125V54H644.85V52.875h1.125V38.25h-11.25ZM638.1,40.5h5.625v9H642.6V48.375h-3.375V49.5H638.1Zm1.125,1.125V47.25H642.6V41.625Zm4.5,10.125h1.125v1.125h-1.125ZM653.4,36Zm10.125,0h1.125v1.125h-1.125Zm1.125,1.125h1.125V38.25h4.5v1.125h-6.75V40.5H662.4v1.125h4.5V40.5h1.125v1.125h1.125v2.25h-1.125v9H666.9V54h-1.125V52.875H666.9V49.5h-4.5V54h-1.125V43.875h6.75V42.75H660.15V41.625h1.125V40.5H662.4V39.375h-2.25V38.25h4.5ZM654.525,38.25h4.5V49.5H657.9V48.375h-2.25V49.5h-1.125Zm1.125,1.125V47.25h2.25V39.375ZM662.4,45v1.125h4.5V45Zm0,2.25v1.125h4.5V47.25Zm2.25,4.5h1.125v1.125H664.65Zm14.4-6.084c-1.368,0-2.628.828-3.8,2.5l.972.774c.954-1.332,1.89-2,2.826-2a4.236,4.236,0,0,1,1.926.558c.54.306,1.116.648,1.71,1.008a5.946,5.946,0,0,0,2.808.864c1.278,0,2.5-.864,3.654-2.556l-.954-.792c-.972,1.386-1.872,2.088-2.7,2.088a5.478,5.478,0,0,1-2.538-.882c-.594-.36-1.17-.684-1.71-.99A4.934,4.934,0,0,0,679.05,45.666ZM0,62Zm3.375,0H4.5v4.5H6.75V65.375H9V64.25H6.75V63.125H9V62h1.125v1.125H13.5V62h1.125v1.125h2.25V64.25h-2.25v1.125h2.25V68.75h-4.5v1.125H11.25V68.75h1.125V65.375H13.5V64.25H10.125v1.125H11.25V68.75H10.125v1.125H9V71h3.375V69.875H13.5V71h3.375v1.125h-4.5V73.25H15.75v1.125H12.375V75.5H15.75v1.125H12.375V77.75h4.5v1.125H9V80H7.875V72.125H6.75V73.25H5.625V72.125H6.75V71H7.875V69.875H9V68.75H6.75V67.625H4.5V68.75H5.625v1.125H4.5V80H3.375V71H2.25v2.25H1.125v1.125H0V73.25H1.125V71H2.25V68.75H3.375V67.625H0V66.5H3.375Zm4.5,4.5v1.125h2.25V66.5Zm5.625,0v1.125h2.25V66.5ZM5.625,69.875H6.75V71H5.625ZM9,72.125V73.25h2.25V72.125Zm0,2.25V75.5h2.25V74.375Zm0,2.25V77.75h2.25V76.625ZM19.8,62Zm2.25,0h1.125v1.125H22.05Zm1.125,1.125H24.3V64.25H23.175Zm4.5,0H31.05V66.5H29.925v1.125H28.8V68.75H27.675v1.125H26.55V68.75h1.125V67.625H28.8V66.5h1.125V64.25h-2.25Zm4.5,0H33.3V64.25h1.125V63.125H35.55V64.25H34.425V66.5H35.55V65.375h1.125V66.5H35.55v2.25H34.425v1.125H28.8V68.75h5.625V67.625H33.3v-2.25H32.175ZM19.8,65.375h6.75V66.5H19.8Zm7.875,0H28.8V66.5H27.675Zm-6.75,2.25h4.5V68.75h-4.5ZM35.55,68.75h1.125v1.125H35.55ZM20.925,69.875h4.5V71h-4.5ZM28.8,71h5.625v5.625H33.3V77.75h3.375v1.125H26.55V77.75h3.375V76.625H31.05V77.75h1.125V76.625H33.3V75.5H29.925v1.125H28.8Zm-7.875,1.125h4.5v6.75H24.3V77.75H22.05v1.125H20.925Zm9,0v2.25H33.3v-2.25ZM22.05,73.25v3.375H24.3V73.25ZM39.6,62Zm3.375,0H44.1v4.5h2.25v1.125H44.1v2.25h1.125V71H44.1v7.875H42.975V80H41.85V78.875h1.125v-6.75H41.85V73.25H39.6V72.125h2.25V71h1.125V67.625H39.6V66.5h3.375Zm4.5,1.125H53.1V68.75H51.975v-4.5H48.6v4.5H47.475v1.125H46.35V68.75h1.125ZM53.1,68.75h2.25v1.125H53.1ZM46.35,71h7.875v2.25H53.1v1.125H51.975V75.5H50.85v1.125H49.725V77.75H48.6v1.125H46.35V80H44.1V78.875h2.25V77.75H48.6V76.625h1.125V75.5H50.85V74.375h1.125V73.25H53.1V72.125H48.6v2.25H47.475v-2.25H46.35Zm2.25,3.375h1.125V75.5H48.6Zm2.25,2.25H53.1V77.75H50.85ZM40.725,77.75H41.85v1.125H40.725Zm12.375,0h3.375v1.125H55.35V80H54.225V78.875H53.1ZM59.4,62Zm1.125,0H61.65v1.125H60.525Zm6.75,0H68.4v1.125h6.75v2.25H74.025V66.5H72.9V65.375h1.125V64.25H70.65V66.5H69.525v1.125H68.4V68.75H67.275v1.125H72.9V68.75h3.375v1.125H75.15V71H74.025V69.875H72.9V77.75H71.775v1.125H70.65V77.75H65.025v1.125H63.9V80H62.775V78.875H63.9V77.75H62.775V71H61.65V68.75H59.4V67.625h2.25V66.5h1.125V65.375H63.9V64.25h1.125v1.125H63.9V66.5H62.775v3.375h2.25V68.75h2.25V67.625H68.4V66.5h1.125V64.25h-2.25v1.125H66.15V66.5H65.025V65.375H66.15V64.25h1.125ZM61.65,63.125h1.125v2.25H61.65Zm9,3.375h1.125v1.125H70.65Zm1.125,1.125H72.9V68.75H71.775ZM63.9,71v1.125h7.875V71Zm0,2.25v1.125h7.875V73.25Zm0,2.25v1.125h7.875V75.5Zm7.875,3.375H72.9V80H71.775ZM79.2,62Zm1.125,1.125H81.45V77.75H80.325v1.125H79.2V77.75h1.125Zm4.5,0H85.95v15.75H84.825Zm2.25,0h9V64.25h-4.5v1.125H90.45V66.5h4.5v9H93.825V74.375H88.2V75.5H87.075v-9h2.25V65.375H90.45V64.25H87.075Zm-4.5,1.125H83.7V76.625H82.575ZM88.2,67.625V68.75h5.625V67.625Zm0,2.25V71h5.625V69.875Zm0,2.25V73.25h5.625V72.125ZM89.325,75.5H90.45v1.125H89.325V77.75H88.2v1.125H87.075V80H85.95V78.875h1.125V77.75H88.2V76.625h1.125Zm2.25,0H92.7v1.125H91.575ZM92.7,76.625h1.125V77.75H92.7Zm1.125,1.125h2.25V80H94.95V78.875H93.825ZM99,62Zm7.875,0H108v1.125h-1.125ZM108,63.125h1.125V64.25h5.625v1.125H102.375V75.5H101.25v2.25h-1.125v1.125H99V77.75h1.125V75.5h1.125V64.25H108ZM104.625,66.5H112.5v1.125h-1.125V68.75H110.25v1.125h-1.125V71h5.625v1.125h-1.125V73.25H112.5v1.125h-1.125V73.25H112.5V72.125h-3.375v6.75H108V80h-1.125V78.875H108v-6.75h-4.5V71H108V69.875h1.125V68.75h1.125V67.625h-5.625Zm2.25,2.25H108v1.125h-1.125Zm-1.125,9h1.125v1.125H105.75Zm22.05-8.712a1.011,1.011,0,0,0-.792.342.979.979,0,0,0-.306.774,1.031,1.031,0,0,0,.306.774,1.059,1.059,0,0,0,.792.324,1.087,1.087,0,0,0,.792-.324,1.047,1.047,0,0,0,.324-.774.992.992,0,0,0-.324-.774A1.037,1.037,0,0,0,127.8,69.038Zm0,6.588a1.011,1.011,0,0,0-.792.342.979.979,0,0,0-.306.774,1.031,1.031,0,0,0,.306.774,1.058,1.058,0,0,0,.792.324,1.087,1.087,0,0,0,.792-.324,1.047,1.047,0,0,0,.324-.774.992.992,0,0,0-.324-.774A1.037,1.037,0,0,0,127.8,75.626ZM4.992,104.638V94.108a12.852,12.852,0,0,1-1.433,1,11.1,11.1,0,0,1-1.907.844V94.478a11.56,11.56,0,0,0,3.34-2.118H6.627v12.278H9.905V106H1.652v-1.362ZM18,106.413a1.44,1.44,0,1,1,1.011-.422A1.379,1.379,0,0,1,18,106.413ZM25.2,88Zm1.125,1.125h5.625V94.75h-4.5V106H26.329Zm7.875,0h5.625v15.75H38.7V106H37.579v-1.125H38.7V94.75H34.2Zm-6.75,1.125v1.125h3.375V90.25Zm7.875,0v1.125H38.7V90.25ZM27.454,92.5v1.125h3.375V92.5Zm7.875,0v1.125H38.7V92.5Zm-6.75,3.375h9V97h-2.25v2.25h2.25v1.125h-2.25v4.5H34.2v-4.5h-2.25v2.25H30.829v1.125H29.7v1.125H28.579V103.75H29.7v-1.125h1.125v-2.25h-2.25V99.25h2.25V97h-2.25ZM31.954,97v2.25H34.2V97Zm4.5,6.75h1.125v1.125H36.454ZM45,88Zm6.75,0h1.125v1.125H51.754Zm1.125,1.125H54v2.25H52.879ZM46.129,92.5H60.754v1.125H46.129Zm11.25,2.25H58.5V97H57.379v2.25H56.254v2.25H55.129v1.125H54V101.5h1.125V99.25h1.125V97h1.125Zm-9,1.125H49.5V97H48.379ZM49.5,97h1.125v2.25H49.5Zm1.125,2.25h1.125v3.375H50.629ZM45,103.75H61.879v1.125H45ZM64.8,88Zm2.25,0h1.125v1.125H67.054Zm1.125,1.125H69.3V90.25H68.179Zm4.5,0h3.375V92.5H74.929v1.125H73.8V94.75H72.679v1.125H71.554V94.75h1.125V93.625H73.8V92.5h1.125V90.25h-2.25Zm4.5,0H78.3V90.25h1.125V89.125h1.125V90.25H79.429V92.5h1.125V91.375h1.125V92.5H80.554v2.25H79.429v1.125H73.8V94.75h5.625V93.625H78.3v-2.25H77.179ZM64.8,91.375h6.75V92.5H64.8Zm7.875,0H73.8V92.5H72.679Zm-6.75,2.25h4.5V94.75h-4.5ZM80.554,94.75h1.125v1.125H80.554ZM65.929,95.875h4.5V97h-4.5ZM73.8,97h5.625v5.625H78.3v1.125h3.375v1.125H71.554V103.75h3.375v-1.125h1.125v1.125h1.125v-1.125H78.3V101.5H74.929v1.125H73.8Zm-7.875,1.125h4.5v6.75H69.3V103.75h-2.25v1.125H65.929Zm9,0v2.25H78.3v-2.25ZM67.054,99.25v3.375H69.3V99.25ZM84.6,88Zm7.875,0H93.6v3.375h1.125V90.25h1.125V89.125h1.125V90.25H95.854v1.125h4.5V92.5H92.479v2.25h9v1.125h-4.5V97H95.854V95.875h-4.5V97H90.229v1.125H89.1V99.25h-2.25v1.125H84.6V99.25h2.25V98.125H89.1V97h1.125V95.875H84.6V94.75h6.75V92.5H85.729V91.375h4.5V90.25h1.125v1.125h1.125ZM89.1,89.125h1.125V90.25H89.1ZM96.979,97H98.1v1.125H96.979v6.75H95.854V106H94.729v-1.125h1.125V99.25H92.479v2.25H91.354v2.25H90.229v1.125H89.1V106H87.979v-1.125H89.1V103.75h1.125V101.5h1.125V99.25H90.229V98.125h6.75ZM98.1,98.125h3.375V99.25h-1.125v1.125H99.229V99.25H98.1Zm-4.5,5.625h1.125v1.125H93.6ZM104.4,88Zm12.375,0H117.9v1.125h1.125V90.25H113.4v1.125h-4.5V92.5h10.125v6.75H117.9V98.125h-9V101.5h-1.125v2.25h-1.125v1.125h-1.125V106H104.4v-1.125h1.125V103.75h1.125V101.5h1.125V90.25H113.4V89.125h3.375ZM108.9,93.625V97h9V93.625Zm24.3,1.413a1.011,1.011,0,0,0-.792.342.979.979,0,0,0-.306.774,1.031,1.031,0,0,0,.306.774,1.059,1.059,0,0,0,.792.324,1.087,1.087,0,0,0,.792-.324,1.047,1.047,0,0,0,.324-.774A.992.992,0,0,0,134,95.38,1.037,1.037,0,0,0,133.2,95.038Zm0,6.588a1.011,1.011,0,0,0-.792.342.979.979,0,0,0-.306.774,1.031,1.031,0,0,0,.306.774,1.058,1.058,0,0,0,.792.324,1.087,1.087,0,0,0,.792-.324,1.047,1.047,0,0,0,.324-.774.992.992,0,0,0-.324-.774A1.037,1.037,0,0,0,133.2,101.626ZM144,88Zm2.25,0h12.375v1.125H153V90.25h7.875V92.5h-1.125v1.125h-1.125V92.5h1.125V91.375H153v4.5h-1.125v-4.5h-5.625V92.5h-1.125v1.125H144V92.5h1.125V90.25h6.75V89.125h-5.625Zm1.125,4.5h3.375v1.125h-3.375Zm6.75,0H157.5v1.125h-3.375Zm-6.75,2.25h3.375v1.125h-3.375Zm6.75,0H157.5v1.125h-3.375ZM144,97h16.875v1.125h-9V99.25h6.75v5.625H157.5V106h-1.125v-1.125H157.5v-4.5h-3.375v4.5H153v-4.5h-2.25v4.5h-1.125v-4.5h-2.25V106h-1.125V99.25h4.5V98.125H144Zm11.25,6.75h1.125v1.125h-1.125ZM163.8,88Zm1.125,1.125H177.3V97h-1.125V95.875h-9v7.875h-1.125V92.5h1.125v2.25h9v-4.5h-11.25Zm13.5,11.25h1.125v4.5H167.179V103.75h11.25ZM183.6,88Zm3.375,0H188.1v1.125h4.5V90.25h-3.375v1.125H188.1V90.25h-1.125v1.125h-1.125V92.5h-1.125v1.125H183.6V92.5h1.125V91.375h1.125V90.25h1.125Zm6.75,0h1.125v1.125h5.625V90.25H197.1v1.125h-1.125V90.25h-2.25v1.125H192.6V92.5h-1.125v1.125h-1.125V94.75H188.1v1.125h7.875V94.75h4.5v1.125h-1.125V97h-1.125V95.875H197.1V97H186.979V95.875h-1.125V97H183.6V95.875h2.25V94.75h2.25V93.625h2.25V92.5h1.125V91.375H192.6V90.25h1.125Zm-4.5,3.375h1.125V92.5h-1.125Zm7.875,0h1.125V92.5H197.1ZM192.6,92.5h1.125v1.125H192.6Zm1.125,1.125h2.25V94.75h-2.25Zm-7.875,4.5h5.625v4.5h-2.25v1.125H188.1v1.125h-1.125V106h-1.125v-1.125h1.125V103.75H188.1v-1.125h-2.25Zm6.75,0h5.625v4.5h-2.25v1.125h-1.125v1.125h-1.125V106H192.6v-1.125h1.125V103.75h1.125v-1.125H192.6Zm-5.625,1.125v2.25h3.375V99.25Zm6.75,0v2.25H197.1V99.25Zm-4.5,4.5h1.125v1.125h-1.125Zm6.75,0H197.1v1.125h-1.125Zm-5.625,1.125h1.125V106h-1.125Zm6.75,0h1.125V106H197.1ZM203.4,88Zm2.25,0h13.5v3.375H216.9V92.5h-1.125v1.125h-1.125V92.5h1.125V91.375h-2.25V94.75h2.25V93.625H216.9V94.75h1.125V97h1.125v7.875h-1.125V106H216.9v-1.125h1.125v-6.75h-4.5V99.25H216.9v5.625h-9V103.75h4.5v-1.125h-3.375v-2.25H207.9V101.5h-1.125v1.125h-1.125v2.25h-1.125V106H203.4v-1.125h1.125v-2.25h1.125Zm1.125,1.125V90.25h11.25V89.125Zm0,2.25v9H207.9V99.25h1.125V98.125H207.9V94.75h1.125V93.625h1.125V92.5h1.125v1.125h-1.125V94.75h2.25V91.375h-2.25V92.5h-1.125V91.375Zm2.25,4.5V97h2.25V95.875Zm3.375,0V97h1.125V95.875Zm2.25,0V97h2.25V95.875Zm-4.5,2.25V99.25h2.25V98.125Zm0,2.25V101.5h2.25v-1.125Zm3.375,0V101.5h2.25v-1.125Zm0,2.25v1.125h2.25v-1.125ZM234.9,91.114v11.034h1.314V92.32h4.446V91.114ZM243,88Zm3.375,0H247.5v4.5h2.25V91.375H252V90.25h-2.25V89.125H252V88h1.125v1.125H256.5V88h1.125v1.125h2.25V90.25h-2.25v1.125h2.25V94.75h-4.5v1.125h-1.125V94.75h1.125V91.375H256.5V90.25h-3.375v1.125h1.125V94.75h-1.125v1.125H252V97h3.375V95.875H256.5V97h3.375v1.125h-4.5V99.25h3.375v1.125h-3.375V101.5h3.375v1.125h-3.375v1.125h4.5v1.125H252V106h-1.125V98.125h-1.125V99.25h-1.125V98.125h1.125V97h1.125V95.875H252V94.75h-2.25V93.625H247.5V94.75h1.125v1.125H247.5V106h-1.125V97h-1.125v2.25h-1.125v1.125H243V99.25h1.125V97h1.125V94.75h1.125V93.625H243V92.5h3.375Zm4.5,4.5v1.125h2.25V92.5Zm5.625,0v1.125h2.25V92.5Zm-7.875,3.375h1.125V97h-1.125ZM252,98.125V99.25h2.25V98.125Zm0,2.25V101.5h2.25v-1.125Zm0,2.25v1.125h2.25v-1.125ZM262.8,88Zm2.25,0h1.125v1.125h-1.125Zm1.125,1.125H267.3V90.25h-1.125Zm4.5,0h3.375V92.5h-1.125v1.125H271.8V94.75h-1.125v1.125h-1.125V94.75h1.125V93.625H271.8V92.5h1.125V90.25h-2.25Zm4.5,0H276.3V90.25h1.125V89.125h1.125V90.25h-1.125V92.5h1.125V91.375h1.125V92.5h-1.125v2.25h-1.125v1.125H271.8V94.75h5.625V93.625H276.3v-2.25h-1.125ZM262.8,91.375h6.75V92.5H262.8Zm7.875,0H271.8V92.5h-1.125Zm-6.75,2.25h4.5V94.75h-4.5Zm14.625,1.125h1.125v1.125h-1.125Zm-14.625,1.125h4.5V97h-4.5ZM271.8,97h5.625v5.625H276.3v1.125h3.375v1.125H269.554V103.75h3.375v-1.125h1.125v1.125h1.125v-1.125H276.3V101.5h-3.375v1.125H271.8Zm-7.875,1.125h4.5v6.75H267.3V103.75h-2.25v1.125h-1.125Zm9,0v2.25H276.3v-2.25Zm-7.875,1.125v3.375h2.25V99.25ZM282.6,88Zm2.25,1.125H296.1V103.75h-1.125V90.25h-9v12.375h-1.125v2.25h-1.125V106H282.6v-1.125h1.125v-2.25h1.125Zm4.5,2.25h4.5V92.5h-3.375v2.25h3.375v4.5h-3.375v2.25H291.6v-1.125h1.125V101.5h1.125v2.25h-1.125v-1.125h-2.25v1.125h-1.125v1.125h-1.125V103.75H287.1v-1.125h2.25V99.25H287.1v-4.5h2.25V93.625H287.1V92.5h2.25Zm-1.125,4.5v2.25h1.125v-2.25Zm2.25,0v2.25h2.25v-2.25Zm7.875,6.75h1.125V106h-2.25v-1.125h1.125Zm-2.25,1.125h1.125v1.125H296.1ZM302.4,88Zm11.25,0h1.125v2.25h-1.125v1.125h-1.125V92.5H311.4v1.125h-1.125V94.75h-1.125V93.625h1.125V92.5H311.4V91.375h1.125V90.25h1.125Zm-10.125,1.125h5.625v2.25h-1.125v2.25H306.9V94.75h-1.125V93.625H306.9v-2.25h1.125V90.25h-3.375v10.125h1.125V101.5h-1.125V106h-1.125Zm11.25,1.125H315.9v1.125h-1.125Zm1.125,1.125h1.125V92.5H315.9Zm1.125,1.125h1.125v1.125h-1.125V94.75H311.4V93.625h5.625Zm1.125,1.125h1.125V94.75h-1.125ZM306.9,94.75h1.125V97H306.9Zm3.375,1.125h3.375v4.5h-1.125v3.375H311.4v1.125h-1.125V106h-1.125v-1.125h1.125V103.75H311.4v-3.375h-1.125Zm4.5,0h3.375v4.5h-1.125v3.375H315.9v1.125h-1.125V106h-1.125v-1.125h1.125V103.75H315.9v-3.375h-1.125ZM308.029,97h1.125v3.375h-1.125V101.5H306.9v1.125h-1.125V101.5H306.9v-1.125h1.125Zm3.375,0v2.25h1.125V97Zm4.5,0v2.25h1.125V97Zm-3.375,6.75h1.125v1.125h-1.125Zm4.5,0h1.125v1.125h-1.125Zm1.125,1.125h1.125V106h-1.125ZM322.2,88Zm1.125,1.125h5.625v2.25h-1.125V92.5H326.7v2.25h3.375V92.5h2.25V91.375h1.125V90.25h-3.375V89.125h7.875V90.25h-3.375v1.125h-1.125V92.5h4.5v9h-1.125v-1.125H331.2V101.5h-1.125V97h-1.125v1.125h-1.125V97h1.125V95.875H326.7v9h-1.125V106h-1.125v-1.125h1.125v-9H322.2V94.75h3.375V92.5H326.7V91.375h1.125V90.25h-4.5Zm1.125,2.25h1.125V92.5h-1.125Zm6.75,2.25V94.75h5.625V93.625Zm0,2.25V97h5.625V95.875Zm0,2.25V99.25h5.625V98.125Zm1.125,3.375h1.125v1.125h-1.125v1.125H331.2v1.125h-1.125V106h-1.125v-1.125h1.125V103.75H331.2v-1.125h1.125Zm2.25,0H335.7v1.125h-1.125Zm1.125,1.125h1.125v1.125h1.125V106h-1.125v-1.125H335.7Zm-12.375,1.125h1.125v1.125h-1.125ZM342,88Zm7.875,0H351v3.375h5.625V92.5H351v3.375h7.875V97H342V95.875h7.875V92.5h-4.5v1.125h-1.125V94.75h-1.125V93.625h1.125V92.5h1.125V89.125H346.5v2.25h3.375Zm-4.5,11.25H355.5V106h-1.125v-1.125H346.5V106h-1.125Zm1.125,1.125v3.375h7.875v-3.375ZM361.8,88Zm7.875,0H370.8v1.125h4.5v2.25h3.375V92.5H375.3v2.25h-4.5v1.125h5.625V97H370.8v1.125h7.875V99.25H361.8V98.125h7.875V97h-5.625V95.875h5.625V94.75h-5.625V93.625h5.625V92.5H361.8V91.375h7.875V90.25h-5.625V89.125h5.625Zm1.125,2.25v1.125h3.375V90.25Zm0,2.25v1.125h3.375V92.5Zm-5.625,7.875H375.3V106H365.179ZM366.3,101.5v1.125h7.875V101.5Zm0,2.25v1.125h7.875V103.75Zm20.286-6.858v9.828h-4.446v1.206h5.76V96.892ZM9.563,134H1.31v-1.5a3.7,3.7,0,0,1,.237-1.244,5.336,5.336,0,0,1,.905-1.49q.668-.826,1.415-1.591l.932-.949q.281-.29,1.23-1.345a9.652,9.652,0,0,0,1.252-1.617,2.322,2.322,0,0,0,.3-1.107,1.547,1.547,0,0,0-.7-1.358,2.745,2.745,0,0,0-1.582-.479,6.234,6.234,0,0,0-1.121.114,8.28,8.28,0,0,0-1.085.268q-.466.154-1.512.628v-1.45a8.7,8.7,0,0,1,2.219-.725,10.868,10.868,0,0,1,1.833-.2,5.348,5.348,0,0,1,1.956.347,2.567,2.567,0,0,1,1.327,1.077,2.987,2.987,0,0,1,.435,1.556,3.769,3.769,0,0,1-.558,1.89,13.068,13.068,0,0,1-2.1,2.487l-1,.993-.844.826A10.1,10.1,0,0,0,3.551,130.7a3.569,3.569,0,0,0-.545,1.8H9.563Zm8.436.413a1.44,1.44,0,1,1,1.011-.422A1.379,1.379,0,0,1,18,134.413ZM25.2,116Zm2.25,1.125h1.125v1.125H27.454Zm3.375,0h4.5V120.5H31.954v2.25H30.829Zm5.625,0h4.5V120.5H37.579v2.25H36.454Zm-7.875,1.125H29.7v2.25H28.579Zm3.375,0v1.125H34.2V118.25Zm5.625,0v1.125h2.25V118.25ZM34.2,121.625h1.125v2.25H34.2V125h3.375v-2.25h2.25v-1.125h1.125v2.25H38.7V125h2.25v1.125H38.7v1.125h3.375v1.125H38.7V129.5H37.579v-1.125H34.2V129.5H33.079v1.125H31.954V129.5h1.125v-1.125H29.7v2.25H28.579v1.125H27.454v1.125H26.329V131.75h1.125v-1.125h1.125v-6.75H25.2V122.75h4.5v4.5h3.375v-1.125h-2.25V125h2.25v-1.125H31.954V122.75H34.2Zm0,4.5v1.125h3.375v-1.125Zm4.5,3.375h1.125v1.125H38.7Zm-9,1.125h1.125v1.125H29.7Zm1.125,1.125h11.25v1.125H30.829ZM45,116Zm3.375,0H49.5v4.5h2.25v-1.125H54V118.25H50.629v-1.125h11.25v1.125H58.5v1.125h2.25v4.5h-9v-2.25H49.5v2.25h1.125V125H49.5v9H48.379v-9H47.254v2.25H46.129v1.125H45V127.25h1.125V125h1.125v-2.25h1.125v-1.125H45V120.5h3.375Zm6.75,2.25v1.125h2.25V118.25Zm-2.25,2.25v2.25H54V120.5Zm2.25,0v2.25h2.25V120.5Zm3.375,0v2.25h1.125V120.5ZM50.629,125h1.125v1.125H50.629Zm2.25,0h6.75v1.125h-6.75Zm-2.25,2.25h11.25v1.125h-4.5v4.5H56.254V134H55.129v-1.125h1.125v-4.5H50.629Zm2.25,2.25H54v1.125H52.879v1.125H51.754v1.125H50.629V131.75h1.125v-1.125h1.125Zm5.625,0h1.125v1.125H58.5Zm1.125,1.125h2.25v2.25H60.754V131.75H59.629ZM54,131.75h1.125v1.125H54ZM64.8,116Zm3.375,0H69.3v2.25H68.179v1.125h4.5v3.375H73.8V120.5h1.125V116h1.125v3.375h4.5V131.75H79.429v1.125H78.3V134H77.179v-1.125H78.3V131.75h1.125V120.5h-4.5v2.25H73.8v1.125H72.679v9H71.554V131.75h-4.5v1.125H65.929v-13.5h1.125V118.25h1.125Zm-1.125,4.5V125h4.5v-4.5Zm7.875,3.375h1.125V125H74.929ZM76.054,125h1.125v2.25H76.054Zm-9,1.125v4.5h4.5v-4.5Zm9,5.625h1.125v1.125H76.054Zm17.55-8.712a1.011,1.011,0,0,0-.792.342.979.979,0,0,0-.306.774,1.031,1.031,0,0,0,.306.774,1.059,1.059,0,0,0,.792.324,1.087,1.087,0,0,0,.792-.324,1.047,1.047,0,0,0,.324-.774.992.992,0,0,0-.324-.774A1.037,1.037,0,0,0,93.6,123.038Zm0,6.588a1.011,1.011,0,0,0-.792.342.979.979,0,0,0-.306.774,1.031,1.031,0,0,0,.306.774,1.059,1.059,0,0,0,.792.324,1.087,1.087,0,0,0,.792-.324,1.047,1.047,0,0,0,.324-.774.992.992,0,0,0-.324-.774A1.037,1.037,0,0,0,93.6,129.626ZM104.4,116Zm1.125,1.125h15.75v1.125H117.9v14.625h-1.125V134h-1.125v-1.125h1.125V118.25h-11.25ZM108.9,120.5h5.625v9H113.4v-1.125h-3.375V129.5H108.9Zm1.125,1.125v5.625H113.4v-5.625Zm4.5,10.125h1.125v1.125h-1.125ZM124.2,116Zm2.25,1.125h1.125v1.125h-1.125Zm3.375,0h4.5V120.5h-3.375v2.25h-1.125Zm5.625,0h4.5V120.5h-3.375v2.25h-1.125Zm-7.875,1.125H128.7v2.25h-1.125Zm3.375,0v1.125h2.25V118.25Zm5.625,0v1.125h2.25V118.25Zm-3.375,3.375h1.125v2.25H133.2V125h3.375v-2.25h2.25v-1.125h1.125v2.25H137.7V125h2.25v1.125H137.7v1.125h3.375v1.125H137.7V129.5h-1.125v-1.125H133.2V129.5h-1.125v1.125h-1.125V129.5h1.125v-1.125H128.7v2.25h-1.125v1.125h-1.125v1.125h-1.125V131.75h1.125v-1.125h1.125v-6.75H124.2V122.75h4.5v4.5h3.375v-1.125h-2.25V125h2.25v-1.125h-1.125V122.75h2.25Zm0,4.5v1.125h3.375v-1.125Zm4.5,3.375h1.125v1.125H137.7Zm-9,1.125h1.125v1.125H128.7Zm1.125,1.125h11.25v1.125h-11.25ZM144,116Zm3.375,0H148.5v4.5h2.25v-3.375h10.125V120.5h-4.5v1.125h3.375v1.125h-3.375v1.125h4.5V125h-2.25v1.125H157.5v1.125h2.25v1.125h-3.375V129.5h4.5v1.125h-4.5V134h-1.125v-3.375h-4.5V129.5h4.5v-1.125h-3.375V127.25h2.25v-1.125h1.125v1.125h1.125v-1.125H157.5V125h-3.375v1.125H153V125h-2.25v-1.125h4.5V122.75h-3.375v-1.125h3.375V120.5h-4.5v1.125H148.5v2.25h1.125V122.75h1.125v1.125h-1.125V125H148.5v7.875h-1.125V134h-1.125v-1.125h1.125v-6.75h-1.125v1.125H144v-1.125h2.25V125h1.125v-3.375H144V120.5h3.375Zm4.5,2.25v1.125h2.25V118.25Zm3.375,0v1.125h1.125V118.25Zm2.25,0v1.125h2.25V118.25Zm-12.375,13.5h1.125v1.125h-1.125ZM163.8,116Zm10.125,0h4.5v1.125h-4.5v1.125H172.8v1.125h4.5V120.5h-5.625v1.125h7.875v1.125h-9v1.125h-1.125V125H177.3v9h-1.125v-1.125h-6.75V134H168.3v-7.875h-1.125v1.125h-1.125v1.125h-1.125V127.25h1.125v-1.125h1.125V125H168.3v-1.125h1.125V122.75h-4.5v-1.125h5.625V120.5h-3.375v-1.125h4.5V118.25h-5.625v-1.125h7.875Zm-4.5,10.125v1.125h6.75v-1.125Zm0,2.25V129.5h6.75v-1.125Zm0,2.25v1.125h6.75v-1.125ZM183.6,116Zm3.375,0H188.1v4.5h3.375v3.375h3.375v-2.25h1.125V120.5H197.1v-1.125h1.125V118.25h-6.75v-1.125h7.875v2.25h-1.125V120.5H197.1v1.125h-1.125v2.25h4.5V125h-4.5v7.875h-1.125V134h-1.125v-1.125h1.125V125h-3.375v1.125h-1.125v2.25h-1.125V129.5H188.1v1.125h-1.125v1.125h-1.125v1.125h-1.125V134H183.6v-1.125h1.125V131.75h1.125v-1.125h1.125V129.5H188.1v-1.125h1.125v-2.25h1.125v-4.5h-3.375V125h-1.125v1.125h-1.125V125h1.125v-3.375H183.6V120.5h3.375Zm-1.125,10.125h1.125v1.125h-1.125Zm1.125,1.125H188.1v1.125h-1.125Zm2.25,2.25h1.125v1.125h-1.125Zm1.125,1.125h1.125v1.125h-1.125Zm2.25,1.125h1.125v1.125H192.6ZM203.4,116Zm9,0h1.125v3.375h5.625V120.5h-5.625V125H212.4v-4.5h-7.875v-1.125H212.4Zm3.375,0H216.9v1.125h-1.125Zm1.125,1.125h1.125v1.125H216.9Zm-11.25,5.625h5.625v5.625h-5.625Zm11.25,0h1.125v3.375H216.9v2.25h-1.125v2.25h-1.125v1.125h-1.125v1.125H212.4V134h-2.25v-1.125h2.25V131.75h1.125v-1.125h1.125v-2.25h1.125v-2.25H216.9Zm-10.125,1.125v3.375h3.375v-3.375Zm6.75,1.125h1.125v3.375h-1.125Zm4.5,3.375h1.125V134h-1.125v-1.125H216.9V131.75h1.125Zm-9,1.125H212.4v1.125h-3.375v1.125h-4.5v-1.125h4.5Zm6.75,1.125H216.9v1.125h-1.125ZM223.2,116Zm10.125,0h4.5v1.125h-4.5v1.125H232.2v1.125h4.5V120.5h-5.625v1.125h7.875v1.125h-9v1.125h-1.125V125H236.7v9h-1.125v-1.125h-6.75V134H227.7v-7.875h-1.125v1.125h-1.125v1.125h-1.125V127.25h1.125v-1.125h1.125V125H227.7v-1.125h1.125V122.75h-4.5v-1.125h5.625V120.5h-3.375v-1.125h4.5V118.25h-5.625v-1.125h7.875Zm-4.5,10.125v1.125h6.75v-1.125Zm0,2.25V129.5h6.75v-1.125Zm0,2.25v1.125h6.75v-1.125ZM243,116Zm10.125,0h1.125v1.125h4.5v1.125H248.629v-1.125h4.5Zm-7.875,1.125h1.125v5.625H247.5v1.125h-1.125v4.5h2.25V129.5h-2.25v1.125h-1.125v1.125h-1.125v-1.125H243V129.5h2.25v-5.625H243V122.75h2.25Zm3.375,2.25h10.125v4.5h-1.125V125H256.5v1.125h-1.125V125H256.5v-1.125h-2.25v3.375h-1.125v1.125H252v3.375h1.125v-1.125h1.125v1.125h-1.125v1.125H252V134h-1.125v-3.375h-1.125v1.125H247.5v-1.125h2.25V129.5h1.125v-1.125H252V127.25h1.125v-3.375h-2.25V125h-1.125v-1.125h-1.125Zm1.125,1.125v2.25H252V120.5Zm3.375,0v2.25h1.125V120.5Zm2.25,0v2.25h2.25V120.5Zm-4.5,4.5H252v1.125h-1.125v1.125h-1.125v-1.125h1.125Zm5.625,1.125h1.125v1.125H256.5Zm-2.25,1.125h1.125v2.25h-1.125Zm3.375,0h1.125v1.125h-1.125V129.5H256.5v1.125h-1.125V129.5H256.5v-1.125h1.125Zm-1.125,3.375h1.125v1.125H256.5Zm1.125,1.125h2.25v1.125h-1.125V134h-1.125ZM262.8,116Zm3.375,0H267.3v2.25h-1.125v1.125h4.5v3.375H271.8V120.5h1.125V116h1.125v3.375h4.5V131.75h-1.125v1.125H276.3V134h-1.125v-1.125H276.3V131.75h1.125V120.5h-4.5v2.25H271.8v1.125h-1.125v9h-1.125V131.75h-4.5v1.125h-1.125v-13.5h1.125V118.25h1.125Zm-1.125,4.5V125h4.5v-4.5Zm7.875,3.375h1.125V125h-1.125ZM274.054,125h1.125v2.25h-1.125Zm-9,1.125v4.5h4.5v-4.5Zm9,5.625h1.125v1.125h-1.125ZM282.6,116Zm3.375,0H287.1v3.375h-1.125V134h-1.125V122.75h-1.125v1.125H282.6V122.75h1.125v-1.125h1.125v-2.25h1.125Zm2.25,1.125h10.125v15.75h-1.125V131.75h-7.875v1.125h-1.125Zm1.125,1.125v2.25h3.375v-2.25Zm4.5,0v2.25h3.375v-2.25Zm-4.5,3.375v9h7.875v-9h-3.375v2.25h2.25V129.5h-1.125v-1.125H291.6V129.5h-1.125v-5.625h2.25v-2.25ZM291.6,125v2.25h3.375V125Zm10.8-9Zm2.25,1.125h4.5v5.625h1.125v-1.125H311.4v-4.5h5.625v4.5H315.9V118.25h-3.375v3.375H311.4v1.125h-1.125v1.125h-1.125v9h-1.125V134H306.9v-1.125h1.125V127.25h-2.25v3.375h-1.125v2.25h-1.125V134H302.4v-1.125h1.125v-2.25h1.125Zm1.125,1.125v3.375h2.25V118.25Zm11.25,3.375h2.25v1.125h-2.25Zm-11.25,1.125v3.375h2.25V122.75Zm4.5,1.125h7.875v2.25h-1.125v2.25H315.9V129.5h-1.125v1.125h-1.125v1.125h-1.125v1.125H311.4V134h-2.25v-1.125h2.25V131.75h1.125v-1.125h1.125V129.5h1.125v-1.125H315.9v-2.25h1.125V125h-4.5v2.25H311.4V125h-1.125Zm2.25,3.375h1.125v2.25h-1.125Zm2.25,3.375H315.9v1.125h-1.125Zm-9,1.125H306.9v1.125h-1.125Zm10.125,0h3.375v1.125h-1.125V134h-1.125v-1.125H315.9Zm13.9-6.444-.81.756a16.393,16.393,0,0,1,2,1.8,17.351,17.351,0,0,1,1.53,1.854l.9-.756a15.639,15.639,0,0,0-1.548-1.854A14.064,14.064,0,0,0,329.8,125.306Zm13.5-4.158V134h9.414v-1.278h-7.938v-4.716h7.2v-1.278h-7.2v-4.3h7.632v-1.278Zm12.276,0v1.278h4.536V134h1.458V122.426h4.536v-1.278Zm13.932,0V134h1.476v-5.976h6.75v-1.278h-6.75v-4.32h7.128v-1.278ZM380.4,116Zm9,0h1.125v3.375h5.625V120.5h-5.625V125H389.4v-4.5h-7.875v-1.125H389.4Zm3.375,0H393.9v1.125h-1.125Zm1.125,1.125h1.125v1.125H393.9Zm-11.25,5.625h5.625v5.625h-5.625Zm11.25,0h1.125v3.375H393.9v2.25h-1.125v2.25h-1.125v1.125h-1.125v1.125H389.4V134h-2.25v-1.125h2.25V131.75h1.125v-1.125h1.125v-2.25h1.125v-2.25H393.9Zm-10.125,1.125v3.375h3.375v-3.375Zm6.75,1.125h1.125v3.375h-1.125Zm4.5,3.375h1.125V134h-1.125v-1.125H393.9V131.75h1.125Zm-9,1.125H389.4v1.125h-3.375v1.125h-4.5v-1.125h4.5Zm6.75,1.125H393.9v1.125h-1.125ZM400.2,116Zm3.375,0H404.7v4.5h2.25v1.125H404.7v2.25h1.125V122.75h1.125v1.125h-1.125V125H404.7v7.875h-1.125V134h-1.125v-1.125h1.125v-6.75h-1.125v1.125H400.2v-1.125h2.25V125h1.125v-3.375H400.2V120.5h3.375Zm4.5,0H409.2v3.375h3.375V118.25H413.7v-1.125h1.125v1.125h1.125v1.125h-3.375V120.5H409.2v2.25h-1.125Zm7.875,4.5h1.125v3.375H409.2V122.75h6.75Zm-7.875,4.5h7.875v9h-1.125v-1.125H409.2V134h-1.125Zm1.125,1.125v2.25h5.625v-2.25Zm0,3.375v2.25h5.625V129.5Zm-7.875,2.25h1.125v1.125h-1.125ZM420,116Zm4.5,0h1.125v1.125H429v2.25h1.125V120.5H429v2.25h-3.375v1.125H429V122.75h1.125v-1.125h1.125v-2.25h1.125V116H433.5v3.375h-1.125V120.5h4.5v1.125h-1.125v4.5h-1.125v2.25H433.5V129.5h-1.125v1.125h-1.125v1.125h-1.125v1.125H429V134h-1.125v-1.125H429V131.75h1.125v-1.125h1.125V129.5h1.125v-2.25H433.5v-1.125h1.125v-4.5h-3.375v1.125h-1.125v1.125H429v3.375h-4.5v1.125H429V129.5h-1.125v1.125h-1.125v1.125h-1.125v1.125h-2.25V134h-2.25v-1.125h2.25V131.75h2.25v-1.125h1.125V129.5h-3.375v2.25h-2.25v-1.125h1.125V129.5H420v-1.125h3.375V127.25h-2.25v-3.375H424.5V122.75h-3.375V120.5H420v-1.125h1.125v-2.25H424.5Zm-2.25,2.25v1.125h2.25V118.25Zm3.375,0v1.125h2.25V118.25Zm-3.375,2.25v1.125h2.25V120.5Zm3.375,0v1.125h2.25V120.5Zm5.625,2.25h1.125v4.5h-1.125Zm-9,2.25v1.125h2.25V125Zm3.375,0v1.125h2.25V125Zm7.875,4.5h1.125v2.25H433.5Zm1.125,2.25h1.125v1.125h-1.125Zm-9,1.125h1.125V134h-1.125Zm10.125,0h1.125V134h-1.125ZM1.274,161.754v-1.723a7.987,7.987,0,0,0,3.489,1.02A3.155,3.155,0,0,0,7,160.229a2.757,2.757,0,0,0,.883-2.114A2.639,2.639,0,0,0,6.913,156a5.169,5.169,0,0,0-3.3-.817H2.707v-1.362H3.964a3.389,3.389,0,0,0,2.479-.769,2.376,2.376,0,0,0,.765-1.709,1.892,1.892,0,0,0-.624-1.437,2.722,2.722,0,0,0-1.916-.584,7.14,7.14,0,0,0-3.12.817v-1.556a8.809,8.809,0,0,1,3.059-.624,4.709,4.709,0,0,1,3.432.98,3.135,3.135,0,0,1,.945,2.237,3.29,3.29,0,0,1-.5,1.749,4.213,4.213,0,0,1-1.846,1.459,5.009,5.009,0,0,1,1.793.861,3.357,3.357,0,0,1,.918,1.2A3.754,3.754,0,0,1,9.659,158a4.03,4.03,0,0,1-1.419,3.164,5.353,5.353,0,0,1-3.669,1.248,11.439,11.439,0,0,1-1.419-.1A7.425,7.425,0,0,1,1.274,161.754ZM18,162.413a1.44,1.44,0,1,1,1.011-.422A1.379,1.379,0,0,1,18,162.413ZM25.2,144Zm3.375,0H29.7v4.5h2.25v1.125H29.7v2.25h1.125V153H29.7v2.25h2.25v-1.125h1.125V150.75H31.954v-1.125h1.125v-4.5H34.2V157.5H33.079v2.25H31.954v1.125H30.829V162H29.7v-1.125h1.125V159.75h1.125V157.5h1.125v-2.25H31.954v1.125H29.7v4.5H28.579V162H27.454v-1.125h1.125v-6.75H27.454v1.125H25.2v-1.125h2.25V153h1.125v-3.375H25.2V148.5h3.375Zm7.875,0h1.125v6.75H38.7v-1.125h1.125V148.5h1.125v2.25H38.7v1.125H37.579V153H38.7v1.125H37.579v5.625H36.454Zm2.25,10.125h1.125v1.125H38.7Zm1.125,1.125h1.125v1.125H39.829Zm1.125,2.25h1.125v3.375h-4.5V159.75h3.375Zm-14.625,2.25h1.125v1.125H26.329ZM45,144Zm3.375,0H49.5v4.5h2.25v-1.125H54V146.25h-2.25v-1.125H54V144h1.125v1.125H58.5V144h1.125v1.125h2.25v1.125h-2.25v1.125h2.25v3.375h-4.5v1.125H56.254V150.75h1.125v-3.375H58.5V146.25H55.129v1.125h1.125v3.375H55.129v1.125H54V153h3.375v-1.125H58.5V153h3.375v1.125h-4.5v1.125h3.375v1.125H57.379V157.5h3.375v1.125H57.379v1.125h4.5v1.125H54V162H52.879v-7.875H51.754v1.125H50.629v-1.125h1.125V153h1.125v-1.125H54V150.75h-2.25v-1.125H49.5v1.125h1.125v1.125H49.5V162H48.379v-9H47.254v2.25H46.129v1.125H45V155.25h1.125V153h1.125v-2.25h1.125v-1.125H45V148.5h3.375Zm4.5,4.5v1.125h2.25V148.5Zm5.625,0v1.125h2.25V148.5Zm-7.875,3.375h1.125V153H50.629ZM54,154.125v1.125h2.25v-1.125Zm0,2.25V157.5h2.25v-1.125Zm0,2.25v1.125h2.25v-1.125ZM64.8,144Zm2.25,0h1.125v1.125H67.054Zm1.125,1.125H69.3v1.125H68.179Zm4.5,0h3.375V148.5H74.929v1.125H73.8v1.125H72.679v1.125H71.554V150.75h1.125v-1.125H73.8V148.5h1.125v-2.25h-2.25Zm4.5,0H78.3v1.125h1.125v-1.125h1.125v1.125H79.429v2.25h1.125v-1.125h1.125V148.5H80.554v2.25H79.429v1.125H73.8V150.75h5.625v-1.125H78.3v-2.25H77.179ZM64.8,147.375h6.75V148.5H64.8Zm7.875,0H73.8V148.5H72.679Zm-6.75,2.25h4.5v1.125h-4.5Zm14.625,1.125h1.125v1.125H80.554Zm-14.625,1.125h4.5V153h-4.5ZM73.8,153h5.625v5.625H78.3v1.125h3.375v1.125H71.554V159.75h3.375v-1.125h1.125v1.125h1.125v-1.125H78.3V157.5H74.929v1.125H73.8Zm-7.875,1.125h4.5v6.75H69.3V159.75h-2.25v1.125H65.929Zm9,0v2.25H78.3v-2.25Zm-7.875,1.125v3.375H69.3V155.25Zm26.55-4.212a1.011,1.011,0,0,0-.792.342.979.979,0,0,0-.306.774,1.031,1.031,0,0,0,.306.774,1.058,1.058,0,0,0,.792.324,1.087,1.087,0,0,0,.792-.324,1.047,1.047,0,0,0,.324-.774.992.992,0,0,0-.324-.774A1.037,1.037,0,0,0,93.6,151.038Zm0,6.588a1.011,1.011,0,0,0-.792.342.979.979,0,0,0-.306.774,1.031,1.031,0,0,0,.306.774,1.059,1.059,0,0,0,.792.324,1.087,1.087,0,0,0,.792-.324,1.047,1.047,0,0,0,.324-.774.992.992,0,0,0-.324-.774A1.037,1.037,0,0,0,93.6,157.626ZM104.4,144Zm12.375,0h2.25v1.125h-2.25v1.125h-1.125v1.125h4.5V148.5h-3.375v1.125h-1.125v2.25h2.25V150.75h3.375v1.125h-1.125V153h-1.125v-1.125H117.9v2.25h1.125V157.5H117.9v1.125h-1.125V157.5H117.9v-2.25h-2.25v-1.125h1.125V153H113.4v3.375h-1.125V157.5h-1.125v1.125h-1.125v1.125H108.9v-1.125h1.125V157.5h1.125v-1.125h1.125V153h-2.25v-1.125h1.125V150.75h1.125v-1.125H113.4V148.5h-3.375v-1.125h4.5V146.25h-3.375v-1.125h5.625Zm-10.125,1.125h1.125v1.125h-1.125Zm1.125,1.125H108.9v2.25h-1.125Zm5.625,3.375v1.125h-1.125v1.125h2.25v-2.25Zm3.375,0H117.9v1.125h-1.125ZM104.4,150.75h4.5v7.875h-1.125v1.125h-1.125v1.125h-1.125V159.75h1.125v-1.125h1.125v-6.75H104.4Zm11.25,5.625h1.125V157.5h-1.125Zm-5.625,3.375h11.25v1.125h-11.25ZM124.2,144Zm2.25,1.125h1.125v1.125h-1.125Zm5.625,0h6.75v4.5h1.125V157.5h-1.125v1.125H137.7V157.5h1.125v-6.75h-6.75v7.875h-1.125v-9h1.125Zm-4.5,1.125H128.7v2.25h-1.125Zm5.625,0v1.125h3.375v2.25H137.7V146.25Zm0,2.25v1.125h2.25V148.5Zm-9,2.25h4.5v7.875h-1.125v1.125h-1.125v1.125h-1.125V159.75h1.125v-1.125h1.125v-6.75H124.2Zm9,1.125h4.5V157.5h-1.125v-1.125h-2.25V157.5H133.2ZM134.329,153v2.25h2.25V153Zm-5.625,5.625h1.125v1.125H128.7Zm1.125,1.125h11.25v1.125h-11.25ZM144,144Zm7.875,0H153v3.375h1.125V146.25h1.125v-1.125h1.125v1.125h-1.125v1.125h4.5V148.5h-7.875v2.25h9v1.125h-4.5V153h-1.125v-1.125h-4.5V153h-1.125v1.125H148.5v1.125h-2.25v1.125H144V155.25h2.25v-1.125h2.25V153h1.125v-1.125H144V150.75h6.75V148.5h-5.625v-1.125h4.5V146.25h1.125v1.125h1.125Zm-3.375,1.125h1.125v1.125H148.5ZM156.379,153H157.5v1.125h-1.125v6.75h-1.125V162h-1.125v-1.125h1.125V155.25h-3.375v2.25h-1.125v2.25h-1.125v1.125H148.5V162h-1.125v-1.125H148.5V159.75h1.125V157.5h1.125v-2.25h-1.125v-1.125h6.75Zm1.125,1.125h3.375v1.125h-1.125v1.125h-1.125V155.25H157.5ZM153,159.75h1.125v1.125H153ZM163.8,144Zm6.75,0h1.125v1.125h-1.125Zm1.125,1.125H172.8v1.125h6.75v1.125h-3.375V148.5h-1.125v1.125h3.375v11.25H177.3V162h-1.125v-1.125H177.3V155.25h-1.125v-1.125H177.3V150.75H167.179v3.375H168.3V153h1.125v-1.125h1.125V153h-1.125v1.125H168.3v1.125h-1.125V162h-1.125V149.625h3.375V148.5h1.125v1.125h3.375V148.5h1.125v-1.125h-5.625V148.5H168.3v-1.125h-3.375V146.25h6.75Zm2.25,6.75h1.125V153h-1.125ZM175.054,153h1.125v1.125h-1.125v4.5h-5.625v-4.5h5.625Zm-4.5,2.25v2.25h3.375v-2.25Zm4.5,4.5h1.125v1.125h-1.125Zm20.25-12.636v11.034h1.314V148.32h4.446v-1.206ZM203.4,144Zm3.375,0H207.9v4.5h2.25v-1.125h2.25V146.25h-2.25v-1.125h2.25V144h1.125v1.125H216.9V144h1.125v1.125h2.25v1.125h-2.25v1.125h2.25v3.375h-4.5v1.125h-1.125V150.75h1.125v-3.375H216.9V146.25h-3.375v1.125h1.125v3.375h-1.125v1.125H212.4V153h3.375v-1.125H216.9V153h3.375v1.125h-4.5v1.125h3.375v1.125h-3.375V157.5h3.375v1.125h-3.375v1.125h4.5v1.125H212.4V162h-1.125v-7.875h-1.125v1.125h-1.125v-1.125h1.125V153h1.125v-1.125H212.4V150.75h-2.25v-1.125H207.9v1.125h1.125v1.125H207.9V162h-1.125v-9h-1.125v2.25h-1.125v1.125H203.4V155.25h1.125V153h1.125v-2.25h1.125v-1.125H203.4V148.5h3.375Zm4.5,4.5v1.125h2.25V148.5Zm5.625,0v1.125h2.25V148.5Zm-7.875,3.375h1.125V153h-1.125Zm3.375,2.25v1.125h2.25v-1.125Zm0,2.25V157.5h2.25v-1.125Zm0,2.25v1.125h2.25v-1.125ZM223.2,144Zm2.25,0h1.125v1.125h-1.125Zm1.125,1.125H227.7v1.125h-1.125Zm4.5,0h3.375V148.5h-1.125v1.125H232.2v1.125h-1.125v1.125h-1.125V150.75h1.125v-1.125H232.2V148.5h1.125v-2.25h-2.25Zm4.5,0H236.7v1.125h1.125v-1.125h1.125v1.125h-1.125v2.25h1.125v-1.125h1.125V148.5h-1.125v2.25h-1.125v1.125H232.2V150.75h5.625v-1.125H236.7v-2.25h-1.125Zm-12.375,2.25h6.75V148.5H223.2Zm7.875,0H232.2V148.5h-1.125Zm-6.75,2.25h4.5v1.125h-4.5Zm14.625,1.125h1.125v1.125h-1.125Zm-14.625,1.125h4.5V153h-4.5ZM232.2,153h5.625v5.625H236.7v1.125h3.375v1.125H229.954V159.75h3.375v-1.125h1.125v1.125h1.125v-1.125H236.7V157.5h-3.375v1.125H232.2Zm-7.875,1.125h4.5v6.75H227.7V159.75h-2.25v1.125h-1.125Zm9,0v2.25H236.7v-2.25Zm-7.875,1.125v3.375h2.25V155.25ZM243,144Zm3.375,0H247.5v2.25h-1.125v2.25h-1.125v1.125h3.375v-2.25h1.125v2.25h-1.125v1.125H247.5v1.125h-1.125V153h-1.125v1.125h2.25V153h1.125v1.125h1.125v2.25h-1.125V155.25h-3.375v1.125h-1.125V155.25H243v-1.125h1.125V153h1.125v-1.125h1.125V150.75H243v-1.125h1.125V148.5h1.125v-2.25h1.125Zm4.5,1.125h9v15.75h-1.125V162h-1.125v-1.125h1.125v-6.75h-4.5v2.25h3.375V157.5h-4.5v-3.375H252V162h-1.125ZM252,146.25v3.375h2.25V148.5h2.25v-1.125h1.125V148.5H256.5v1.125h2.25V146.25Zm1.125,1.125h1.125V148.5h-1.125ZM252,150.75V153h3.375v-1.125H256.5V153h2.25v-2.25h-3.375v1.125h-1.125V150.75Zm-7.875,6.75h1.125v2.25h-1.125v1.125H243V159.75h1.125Zm2.25,0H247.5v3.375h-1.125Zm2.25,0h1.125v3.375h-1.125Zm7.875,2.25h1.125v1.125H256.5Zm11.286-6.858v9.828h-4.446v1.206h5.76V152.892ZM282.6,144Zm3.375,0H287.1v1.125h4.5v1.125h-3.375v1.125H287.1V146.25h-1.125v1.125h-1.125V148.5h-1.125v-1.125h1.125V146.25h1.125Zm6.75,0h1.125v1.125h5.625v1.125H296.1v1.125h-1.125V146.25h-2.25v1.125H291.6V148.5h-1.125v-1.125H291.6V146.25h1.125Zm-4.5,3.375h1.125V148.5h-1.125Zm7.875,0h1.125V148.5H296.1ZM285.979,148.5H287.1v1.125h-1.125v1.125h3.375v-1.125h10.125v1.125h-4.5V153h3.375v5.625h-1.125v1.125H296.1v-1.125h1.125v-4.5h-2.25V157.5H296.1v1.125h-1.125V162h-1.125v-7.875H291.6v5.625h-1.125V153h3.375v-2.25h-4.5v4.5h-4.5v1.125h4.5v4.5h-4.5V162h-1.125V150.75h1.125v-1.125h1.125Zm-1.125,3.375v2.25h3.375v-2.25Zm0,5.625v2.25h3.375V157.5ZM302.4,144Zm2.25,1.125h1.125v1.125h-1.125Zm3.375,0h4.5V148.5h-3.375v2.25h-1.125Zm5.625,0h4.5V148.5h-3.375v2.25h-1.125Zm-7.875,1.125H306.9v2.25h-1.125Zm3.375,0v1.125h2.25V146.25Zm5.625,0v1.125h2.25V146.25Zm-3.375,3.375h1.125v2.25H311.4V153h3.375v-2.25h2.25v-1.125h1.125v2.25H315.9V153h2.25v1.125H315.9v1.125h3.375v1.125H315.9V157.5h-1.125v-1.125H311.4V157.5h-1.125v1.125h-1.125V157.5h1.125v-1.125H306.9v2.25h-1.125v1.125h-1.125v1.125h-1.125V159.75h1.125v-1.125h1.125v-6.75H302.4V150.75h4.5v4.5h3.375v-1.125h-2.25V153h2.25v-1.125h-1.125V150.75h2.25Zm0,4.5v1.125h3.375v-1.125Zm4.5,3.375h1.125v1.125H315.9Zm-9,1.125h1.125v1.125H306.9Zm1.125,1.125h11.25v1.125h-11.25ZM322.2,144Zm2.25,1.125h5.625v4.5h-5.625Zm7.875,0h5.625v4.5h-3.375v1.125h-1.125v-1.125h-1.125Zm-6.75,1.125v2.25h3.375v-2.25Zm7.875,0v2.25h3.375v-2.25Zm-3.375,3.375H331.2v2.25h3.375V150.75H335.7v1.125h2.25V153h-5.625v1.125H331.2V153h-1.125v1.125h-1.125v1.125H326.7v1.125h3.375V162h-4.5v-5.625h-1.125V157.5H322.2v-1.125h2.25V155.25h2.25v-1.125h2.25V153h-5.625v-1.125h6.75Zm2.25,4.5h2.25v1.125h-2.25Zm2.25,1.125h2.25v1.125H335.7V162h-4.5v-5.625h3.375Zm2.25,1.125h2.25V157.5h-2.25ZM326.7,157.5v3.375h2.25V157.5Zm5.625,0v3.375h2.25V157.5ZM342,144Zm10.125,0h1.125v2.25h4.5v1.125h-4.5V148.5h3.375V153h-2.25v1.125h-1.125v4.5h-1.125v-4.5H351v1.125h-1.125v1.125h-1.125V157.5h-1.125v-1.125h1.125V155.25h1.125v-1.125H351V153h-2.25v-4.5h3.375v-1.125h-4.5V146.25h4.5Zm-7.875,1.125h1.125v1.125h-1.125Zm1.125,1.125H346.5v2.25h-1.125Zm4.5,3.375v2.25h2.25v-2.25Zm3.375,0v2.25h2.25v-2.25ZM342,150.75h4.5v7.875h-1.125v1.125h-1.125v1.125h-1.125V159.75h1.125v-1.125h1.125v-6.75H342Zm12.375,3.375H355.5v1.125h-1.125Zm1.125,1.125h1.125v1.125H355.5Zm1.125,1.125h1.125V157.5h-1.125Zm-10.125,2.25h1.125v1.125H346.5Zm1.125,1.125h11.25v1.125h-11.25ZM361.8,144Zm3.375,0H366.3v4.5h2.25v1.125H366.3v2.25h1.125V150.75h1.125v1.125h-1.125V153H366.3v7.875h-1.125V162h-1.125v-1.125h1.125v-6.75h-1.125v1.125H361.8v-1.125h2.25V153h1.125v-3.375H361.8V148.5h3.375Zm7.875,0h1.125v7.875h2.25v-2.25H375.3V148.5h1.125v-2.25H375.3v-1.125h2.25V153h-3.375v1.125h3.375v1.125h-1.125v1.125H375.3V157.5h-1.125v1.125h-1.125v1.125h-1.125v1.125h-2.25V162h-2.25v-1.125h2.25V159.75h2.25v-1.125h1.125V157.5h1.125v-1.125H375.3V155.25h-3.375v1.125H370.8V155.25h-2.25v-1.125h4.5V153h-3.375v-6.75H370.8v-1.125h1.125v1.125H370.8v2.25h1.125v1.125H370.8v2.25h2.25Zm-1.125,12.375h1.125V157.5h-1.125Zm2.25,2.25H375.3v1.125h-1.125Zm-11.25,1.125h1.125v1.125h-1.125Zm12.375,0h3.375v1.125h-1.125V162h-1.125v-1.125H375.3Z" transform="translate(1928 6803)" fill="#fff"/>
        <path id="Path_54387" data-name="Path 54387" d="M0-24Zm4.5,0H6v6H9v-1.5h3V-21H9v-1.5h3V-24h1.5v1.5H18V-24h1.5v1.5h3V-21h-3v1.5h3V-15h-6v1.5H15V-15h1.5v-4.5H18V-21H13.5v1.5H15V-15H13.5v1.5H12V-12h4.5v-1.5H18V-12h4.5v1.5h-6V-9H21v1.5H16.5V-6H21v1.5H16.5V-3h6v1.5H12V0H10.5V-10.5H9V-9H7.5v-1.5H9V-12h1.5v-1.5H12V-15H9v-1.5H6V-15H7.5v1.5H6V0H4.5V-12H3v3H1.5v1.5H0V-9H1.5v-3H3v-3H4.5v-1.5H0V-18H4.5Zm6,6v1.5h3V-18ZM18-18v1.5h3V-18ZM7.5-13.5H9V-12H7.5Zm4.5,3V-9h3v-1.5Zm0,3V-6h3V-7.5Zm0,3V-3h3V-4.5ZM26.4-24Zm3,0h1.5v1.5H29.4Zm1.5,1.5h1.5V-21H30.9Zm6,0h4.5V-18H39.9v1.5H38.4V-15H36.9v1.5H35.4V-15h1.5v-1.5h1.5V-18h1.5v-3h-3Zm6,0h1.5V-21h1.5v-1.5h1.5V-21H45.9v3h1.5v-1.5h1.5V-18H47.4v3H45.9v1.5H38.4V-15h7.5v-1.5H44.4v-3H42.9Zm-16.5,3h9V-18h-9Zm10.5,0h1.5V-18H36.9Zm-9,3h6V-15h-6ZM47.4-15h1.5v1.5H47.4ZM27.9-13.5h6V-12h-6ZM38.4-12h7.5v7.5H44.4V-3h4.5v1.5H35.4V-3h4.5V-4.5h1.5V-3h1.5V-4.5h1.5V-6H39.9v1.5H38.4ZM27.9-10.5h6v9H32.4V-3h-3v1.5H27.9Zm12,0v3h4.5v-3ZM29.4-9v4.5h3V-9ZM52.8-24Zm10.5,0h1.5V-1.5H63.3V0H61.8V-1.5h1.5Zm-4.5,7.5h1.5v3H58.8v3H57.3V-9H55.8v1.5H54.3V-9h1.5v-1.5h1.5v-3h1.5Zm9,0h1.5V-15H67.8ZM69.3-15h1.5v1.5H69.3Zm1.5,1.5h1.5v3H70.8Zm1.5,3h1.5v3H72.3ZM60.3-3h1.5v1.5H60.3ZM79.2-24Zm6,0h1.5v3h4.5v-1.5h1.5V-21H91.2v3H89.7v1.5h1.5V-15H86.7v1.5h4.5V-15h1.5v-4.5h1.5V-24h1.5v4.5H94.2V-18h7.5v1.5h-3v6H97.2v3H95.7V-6H94.2v1.5H92.7V-3H91.2v1.5H89.7V0H88.2V-1.5h1.5V-3h1.5V-4.5h1.5V-6h1.5V-7.5h1.5v-3h1.5v-6h-3v9H92.7v-6H91.2V-12H89.7v1.5H88.2V-9H86.7v1.5h3V-6h-3v4.5H85.2V0H83.7V-1.5h1.5v-3H80.7V-6h4.5v-4.5h3V-12H83.7v1.5H82.2V-9H80.7v1.5H79.2V-9h1.5v-1.5h1.5V-12H80.7v-1.5h4.5V-15h-6v-1.5h6v-3H80.7V-21h4.5Zm1.5,4.5v3h1.5V-18h1.5v-1.5ZM95.7-6h1.5v1.5H95.7Zm1.5,1.5h1.5V-3H97.2ZM82.2-3h1.5v1.5H82.2ZM98.7-3h3v1.5h-1.5V0H98.7Zm6.9-21Zm9,0h1.5v1.5h-1.5Zm1.5,1.5h1.5V-21h10.5v3h-1.5v1.5h-1.5V-15H114.6v1.5h-1.5V-12h7.5v-1.5h1.5V-12h1.5v3h-1.5v-1.5h-4.5v3h6V-6h-6v3h9v1.5H107.1V-3h9V-6h-6V-7.5h6v-3h-6V-12h1.5v-1.5h1.5V-15h-4.5v-1.5h16.5V-18h1.5v-1.5h-18V-18h-1.5v1.5h-1.5V-18h1.5v-3h9ZM144-14.616a1.348,1.348,0,0,0-1.056.456,1.306,1.306,0,0,0-.408,1.032,1.374,1.374,0,0,0,.408,1.032,1.411,1.411,0,0,0,1.056.432,1.449,1.449,0,0,0,1.056-.432,1.4,1.4,0,0,0,.432-1.032,1.323,1.323,0,0,0-.432-1.032A1.383,1.383,0,0,0,144-14.616Zm0,8.784a1.348,1.348,0,0,0-1.056.456,1.306,1.306,0,0,0-.408,1.032,1.374,1.374,0,0,0,.408,1.032A1.411,1.411,0,0,0,144-2.88a1.449,1.449,0,0,0,1.056-.432,1.4,1.4,0,0,0,.432-1.032,1.323,1.323,0,0,0-.432-1.032A1.383,1.383,0,0,0,144-5.832Z" transform="translate(1928 6803)" fill="#ffda2d"/>
      </g>
      <g id="Group_41334" data-name="Group 41334" transform="translate(-92 -2633.961)">
        <g id="Group_38556" data-name="Group 38556" transform="translate(875.598 3116.961)">
          <g id="Group_38548" data-name="Group 38548" transform="translate(0 17.762)">
            <path id="Path_51911" data-name="Path 51911" d="M-1425.986,3443.537v46.271h4.826v6.4h19.334v6.671h14.046v-6.671h18.571v-6.4h6.23v-6.155l-4.287-.971V3436.21h-8.107v7.326Z" transform="translate(1458.446 -3403.534)" fill="#edd5c2"/>
            <path id="Path_51912" data-name="Path 51912" d="M-1407.577,3498.462v5.379H-1420.4v5.659h-6.734v5.162h6.734v7.9h6.189v17.95h39.195v-24.678h9.427V3509.5h-3.435v-7.038h-11.392v-4h-7.273v5.526h-13.922v-5.526Z" transform="translate(1458.479 -3405.317)" fill="#6055b1"/>
            <path id="Path_51908" data-name="Path 51908" d="M-1434.184,3473.416V3417.4h7.669v-7.251h11.167v-7.577h40.531v7.577h13.072v7.251h6.921v12.184h6.613v52.992h-20.626v-46.6h-5.98v6.876h-51.7v30.564Z" transform="translate(1458.68 -3402.571)" fill="#e28100"/>
            <path id="Path_51909" data-name="Path 51909" d="M-1419.687,3450.8v12.233h5.957V3450.8Z" transform="translate(1458.265 -3403.952)" fill="#26222e"/>
            <path id="Path_51910" data-name="Path 51910" d="M-1419.687,3450.8v12.233h5.957V3450.8Z" transform="translate(1489.349 -3403.952)" fill="#26222e"/>
            <rect id="Rectangle_26818" data-name="Rectangle 26818" width="6.8" height="6.8" transform="translate(44.102 66.47)" fill="#eb8e6e"/>
            <rect id="Rectangle_26820" data-name="Rectangle 26820" width="6.8" height="6.8" transform="translate(62.558 66.47)" fill="#eb8e6e"/>
            <rect id="Rectangle_26819" data-name="Rectangle 26819" width="12.628" height="6.8" transform="translate(50.902 73.27)" fill="#eb8e6e"/>
            <path id="Path_51913" data-name="Path 51913" d="M-1420.295,3514.545h-15.061v-3.671h-5.51v-6.331h-6.727v6.331h-11.81v5.614h6.135v6.669h12.4v6.27h5.51v6.378h13.118v-6.378h9v-7.241h-7.059Z" transform="translate(1459.403 -3405.49)" fill="#edd5c2"/>
            <path id="Path_51914" data-name="Path 51914" d="M-1407,3516.7v12.515h7.143v7.4h31.213v-7.4h6.109V3516.7h-12.886v5.836h-17.714V3516.7Z" transform="translate(1457.902 -3405.839)" fill="#edd5c2"/>
            <path id="Path_51915" data-name="Path 51915" d="M-1414.062,3541.021v8.207h-6.387v12.148h51.143v-12.148h-5.778v-8.207Z" transform="translate(1458.287 -3406.535)" fill="#45134c"/>
            <path id="Path_51916" data-name="Path 51916" d="M-1413.555,3561.668v20.045h6.1v5.72s6.4.583,6.558,0,0-25.765,0-25.765Z" transform="translate(1458.09 -3407.127)" fill="#edd5c2"/>
            <path id="Path_51917" data-name="Path 51917" d="M-1387.688,3561.668v6.554h7.287v12.91h4.838v5.965h7.025v-17.9h-5.638v-7.526Z" transform="translate(1457.349 -3407.127)" fill="#edd5c2"/>
            <path id="Path_51918" data-name="Path 51918" d="M-1414.071,3582.581v5.807h-6.656v6.86h20.011v-6.86h-7.163v-5.807Z" transform="translate(1458.295 -3407.726)" fill="#a52c2a"/>
            <path id="Path_51919" data-name="Path 51919" d="M-1380.055,3581.459v13.357h12.588v-6.8h-7.946v-6.557" transform="translate(1457.13 -3407.693)" fill="#a62722"/>
          </g>
          <g id="Group_38549" data-name="Group 38549" transform="translate(23.223 0)">
            <rect id="Rectangle_20960" data-name="Rectangle 20960" width="36.735" height="4.592" transform="translate(4.592 36.735)" fill="#d99a36"/>
            <rect id="Rectangle_20961" data-name="Rectangle 20961" width="36.735" height="4.592" transform="translate(4.592 27.552)" fill="#d99a36"/>
            <rect id="Rectangle_20962" data-name="Rectangle 20962" width="4.592" height="9.184" transform="translate(0 41.327)" fill="#e8bc48"/>
            <rect id="Rectangle_20963" data-name="Rectangle 20963" width="27.552" height="9.184" transform="translate(13.776 41.327)" fill="#e8bc48"/>
            <rect id="Rectangle_20964" data-name="Rectangle 20964" width="41.327" height="4.592" transform="translate(41.327 36.735)" fill="#e8bc48"/>
            <rect id="Rectangle_20965" data-name="Rectangle 20965" width="27.552" height="4.592" transform="translate(13.776 32.144)" fill="#e8bc48"/>
            <rect id="Rectangle_20966" data-name="Rectangle 20966" width="4.592" height="4.592" transform="translate(0 32.144)" fill="#e8bc48"/>
            <rect id="Rectangle_20967" data-name="Rectangle 20967" width="41.327" height="4.592" transform="translate(41.327 27.552)" fill="#e8bc48"/>
            <rect id="Rectangle_20968" data-name="Rectangle 20968" width="4.592" height="27.552" transform="translate(0)" fill="#e8bc48"/>
            <path id="Path_50173" data-name="Path 50173" d="M365.129,206.859h-4.592v4.592h-4.592v4.592h-4.592v9.184h-9.184v-9.184h-4.592v13.776h27.552Z" transform="translate(-323.801 -202.267)" fill="#e8bc48"/>
            <rect id="Rectangle_20969" data-name="Rectangle 20969" width="18.368" height="9.184" transform="translate(68.879 41.327)" fill="#fff268"/>
            <rect id="Rectangle_20970" data-name="Rectangle 20970" width="22.96" height="9.184" transform="translate(41.327 41.327)" fill="#fff268"/>
            <rect id="Rectangle_20971" data-name="Rectangle 20971" width="9.184" height="9.184" transform="translate(4.592 41.327)" fill="#fff268"/>
            <rect id="Rectangle_20972" data-name="Rectangle 20972" width="18.368" height="4.592" transform="translate(68.879 32.144)" fill="#fff268"/>
            <rect id="Rectangle_20973" data-name="Rectangle 20973" width="22.96" height="4.592" transform="translate(41.327 32.144)" fill="#fff268"/>
            <rect id="Rectangle_20974" data-name="Rectangle 20974" width="9.184" height="4.592" transform="translate(4.592 32.144)" fill="#fff268"/>
            <path id="Path_50174" data-name="Path 50174" d="M426.253,228.552V201h-4.592v4.592h-4.592v4.592h-4.592v4.592h-4.592v13.776Z" transform="translate(-339.006 -201)" fill="#fff268"/>
            <path id="Path_50175" data-name="Path 50175" d="M395.691,228.552V223.96H391.1v-9.184h-4.592v-4.592h-4.592v-4.592h-4.592V201h-4.592v27.552Z" transform="translate(-331.404 -201)" fill="#fff268"/>
            <path id="Path_50176" data-name="Path 50176" d="M335.043,229.819V211.451h-4.592v-4.592h-4.592v22.96Z" transform="translate(-321.267 -202.267)" fill="#fff268"/>
            <rect id="Rectangle_20975" data-name="Rectangle 20975" width="4.592" height="9.184" transform="translate(64.287 41.327)" fill="#caff94"/>
            <rect id="Rectangle_20976" data-name="Rectangle 20976" width="4.592" height="4.592" transform="translate(64.287 32.144)" fill="#caff94"/>
            <rect id="Rectangle_20977" data-name="Rectangle 20977" width="4.592" height="4.592" transform="translate(64.287 22.96)" fill="#caff94"/>
          </g>
        </g>
        <g id="Group_41423" data-name="Group 41423" transform="translate(1058.738 2785.774) rotate(45)">
          <rect id="Rectangle_33719" data-name="Rectangle 33719" width="4.01" height="12.03" transform="translate(203.793 434.309)" fill="#f6757a"/>
          <rect id="Rectangle_33720" data-name="Rectangle 33720" width="4.01" height="8.02" transform="translate(203.793 446.338)" fill="#b86f50"/>
          <rect id="Rectangle_33721" data-name="Rectangle 33721" width="12.03" height="4.01" transform="translate(191.763 438.319)" fill="#ecf0f1"/>
          <rect id="Rectangle_33722" data-name="Rectangle 33722" width="8.02" height="4.01" transform="translate(147.654 442.329)" fill="#262b44"/>
          <rect id="Rectangle_33723" data-name="Rectangle 33723" width="12.03" height="4.01" transform="translate(191.763 446.338)" fill="#8b9bb4"/>
          <rect id="Rectangle_33724" data-name="Rectangle 33724" width="28.069" height="4.01" transform="translate(163.694 450.348)" fill="#be4a2f"/>
          <rect id="Rectangle_33725" data-name="Rectangle 33725" width="12.03" height="4.01" transform="translate(191.763 450.348)" fill="#c0cbdc"/>
          <rect id="Rectangle_33726" data-name="Rectangle 33726" width="12.03" height="4.01" transform="translate(191.763 442.329)" fill="#c0cbdc"/>
          <rect id="Rectangle_33727" data-name="Rectangle 33727" width="12.03" height="4.01" transform="translate(191.763 434.309)" fill="#c0cbdc"/>
          <rect id="Rectangle_33729" data-name="Rectangle 33729" width="28.069" height="8.02" transform="translate(163.694 442.329)" fill="#f77622"/>
          <path id="Path_53371" data-name="Path 53371" d="M91.02,313.03V301H87.01v4.01H83v8.02Z" transform="translate(72.674 133.309)" fill="#e4a672"/>
          <path id="Path_53372" data-name="Path 53372" d="M91.02,312.02V304H83v4.01h4.01v4.01Z" transform="translate(72.674 142.338)" fill="#d77643"/>
          <rect id="Rectangle_33730" data-name="Rectangle 33730" width="28.069" height="4.01" transform="translate(163.694 434.309)" fill="#feae34"/>
          <rect id="Rectangle_33731" data-name="Rectangle 33731" width="28.069" height="4.01" transform="translate(163.694 438.319)" fill="#fee761"/>
        </g>
      </g>
    </g>
  </g>
</svg>
