<svg xmlns="http://www.w3.org/2000/svg" width="486" height="60" viewBox="0 0 486 60">
  <g id="g6-q2" transform="translate(-2274 -5888.999)">
    <g id="Path_54322" data-name="Path 54322" transform="translate(2274 5888.999)" fill="azure">
      <path d="M 481.3456115722656 59 L 4.654500007629395 59 L 4.654500007629395 58.52781295776367 L 4.654500007629395 57.52781295776367 L 3.654500007629395 57.52781295776367 L 1 57.52781295776367 L 1 2.472312450408936 L 3.654500007629395 2.472312450408936 L 4.654500007629395 2.472312450408936 L 4.654500007629395 1.472312450408936 L 4.654500007629395 1 L 481.3456115722656 1 L 481.3456115722656 1.472312450408936 L 481.3456115722656 2.472312450408936 L 482.3456115722656 2.472312450408936 L 485 2.472312450408936 L 485 57.52781295776367 L 482.3456115722656 57.52781295776367 L 481.3456115722656 57.52781295776367 L 481.3456115722656 58.52781295776367 L 481.3456115722656 59 Z" stroke="none"/>
      <path d="M 480.3456115722656 58 L 480.3456115722656 56.52781295776367 L 482.3456115722656 56.52781295776367 L 484 56.52781295776367 L 484 3.472312450408936 L 482.3456115722656 3.472312450408936 L 480.3456115722656 3.472312450408936 L 480.3456115722656 2 L 5.654500007629395 2 L 5.654500007629395 3.472312450408936 L 3.654500007629395 3.472312450408936 L 2 3.472312450408936 L 2 56.52781295776367 L 3.654500007629395 56.52781295776367 L 5.654500007629395 56.52781295776367 L 5.654500007629395 58 L 480.3456115722656 58 M 482.3456115722656 60 L 3.654500007629395 60 L 3.654500007629395 58.52781295776367 L 0 58.52781295776367 L 0 1.472312450408936 L 3.654500007629395 1.472312450408936 L 3.654500007629395 0 L 482.3456115722656 0 L 482.3456115722656 1.472312450408936 L 486 1.472312450408936 L 486 58.52781295776367 L 482.3456115722656 58.52781295776367 L 482.3456115722656 59.9995002746582 L 482.3456115722656 60 Z" stroke="none" fill="#2e817f"/>
    </g>
    <path id="Path_54323" data-name="Path 54323" d="M2.874-7.611a5.369,5.369,0,0,1,1.8-1.854A3.817,3.817,0,0,1,6.6-10.09,2.961,2.961,0,0,1,8.815-9.026,4.609,4.609,0,0,1,9.8-5.8a6.85,6.85,0,0,1-.655,3.045A5.512,5.512,0,0,1,7.4-.637,4.526,4.526,0,0,1,4.7.141q-.457,0-1.406-.1Q3.155.026,2.874,0H1.239V-14.186H2.874Zm0,1.942v4.21a6.6,6.6,0,0,0,1.635.229A3.19,3.19,0,0,0,7.009-2.4,4.684,4.684,0,0,0,8.024-5.581a3.654,3.654,0,0,0-.554-2.206,1.571,1.571,0,0,0-1.257-.738,2.727,2.727,0,0,0-1.683.773A7.5,7.5,0,0,0,2.874-5.669ZM18,.413a1.379,1.379,0,0,1-1.011-.422,1.379,1.379,0,0,1-.422-1.011,1.368,1.368,0,0,1,.426-1.015A1.391,1.391,0,0,1,18-2.452,1.391,1.391,0,0,1,19-2.035a1.368,1.368,0,0,1,.426,1.015,1.379,1.379,0,0,1-.422,1.011A1.379,1.379,0,0,1,18,.413ZM45-18Zm12.375,0h2.25v1.125h-2.25v1.125H56.254v1.125h4.5V-13.5H57.379v1.125H56.254v2.25H58.5V-11.25h3.375v1.125H60.754V-9H59.629v-1.125H58.5v2.25h1.125V-4.5H58.5v1.125H57.379V-4.5H58.5V-6.75h-2.25V-7.875h1.125V-9H54v3.375H52.879V-4.5H51.754v1.125H50.629V-2.25H49.5V-3.375h1.125V-4.5h1.125V-5.625h1.125V-9h-2.25v-1.125h1.125V-11.25h1.125v-1.125H54V-13.5H50.629v-1.125h4.5V-15.75H51.754v-1.125h5.625ZM47.254-16.875h1.125v1.125H47.254Zm1.125,1.125H49.5v2.25H48.379ZM54-12.375v1.125H52.879v1.125h2.25v-2.25Zm3.375,0H58.5v1.125H57.379ZM45-11.25h4.5v7.875H48.379V-2.25H47.254v1.125H46.129V-2.25h1.125V-3.375h1.125v-6.75H45Zm11.25,5.625h1.125V-4.5H56.254ZM50.629-2.25h11.25v1.125H50.629ZM64.8-18Zm2.25,1.125h1.125v1.125H67.054Zm5.625,0h6.75v4.5h1.125V-4.5H79.429v1.125H78.3V-4.5h1.125v-6.75h-6.75v7.875H71.554v-9h1.125Zm-4.5,1.125H69.3v2.25H68.179Zm5.625,0v1.125h3.375v2.25H78.3V-15.75Zm0,2.25v1.125h2.25V-13.5Zm-9,2.25h4.5v7.875H68.179V-2.25H67.054v1.125H65.929V-2.25h1.125V-3.375h1.125v-6.75H64.8Zm9,1.125h4.5V-4.5H77.179V-5.625h-2.25V-4.5H73.8ZM74.929-9v2.25h2.25V-9ZM69.3-3.375h1.125V-2.25H69.3ZM70.429-2.25h11.25v1.125H70.429ZM84.6-18Zm3.375,0H89.1v2.25H87.979v2.25H86.854v1.125h3.375v-2.25h1.125v2.25H90.229v1.125H89.1v1.125H87.979V-9H86.854v1.125H89.1V-9h1.125v1.125h1.125v2.25H90.229V-6.75H86.854v1.125H85.729V-6.75H84.6V-7.875h1.125V-9h1.125v-1.125h1.125V-11.25H84.6v-1.125h1.125V-13.5h1.125v-2.25h1.125Zm4.5,1.125h9v15.75h-1.125V0H99.229V-1.125h1.125v-6.75h-4.5v2.25h3.375V-4.5h-4.5V-7.875H93.6V0H92.479ZM93.6-15.75v3.375h2.25V-13.5H98.1v-1.125h1.125V-13.5H98.1v1.125h2.25V-15.75Zm1.125,1.125h1.125V-13.5H94.729ZM93.6-11.25V-9h3.375v-1.125H98.1V-9h2.25v-2.25H96.979v1.125H95.854V-11.25ZM85.729-4.5h1.125v2.25H85.729v1.125H84.6V-2.25h1.125Zm2.25,0H89.1v3.375H87.979Zm2.25,0h1.125v3.375H90.229ZM98.1-2.25h1.125v1.125H98.1ZM104.4-18Zm10.125,0h1.125v2.25h4.5v1.125h-1.125V-13.5H117.9v1.125h-1.125v1.125h-1.125v1.125h-1.125V-9H113.4v1.125h-2.25V-6.75H108.9v3.375h2.25V-2.25h-3.375v1.125H104.4V-2.25h1.125V-7.875h1.125V-2.25h1.125v-9h-1.125v1.125h-1.125v-6.75h5.625V-13.5h1.125v-1.125H113.4V-15.75h1.125Zm-7.875,2.25v3.375h3.375V-15.75Zm7.875,1.125V-13.5h-2.25v1.125h-1.125v1.125H108.9v3.375h2.25V-9h2.25v-1.125h1.125V-11.25h1.125v-1.125h1.125V-13.5H117.9v-1.125Zm0,1.125h1.125v1.125h-1.125Zm2.25,2.25H117.9v1.125h-1.125Zm1.125,1.125h1.125V-9H117.9ZM119.029-9h2.25v1.125h-2.25V0H117.9V-1.125h-3.375V0H113.4V-7.875h5.625Zm-4.5,2.25v4.5H117.9v-4.5ZM131.8-8.694l-.81.756a16.393,16.393,0,0,1,2,1.8,17.351,17.351,0,0,1,1.53,1.854l.9-.756a15.643,15.643,0,0,0-1.548-1.854A14.063,14.063,0,0,0,131.8-8.694ZM144-18Zm3.375,0H157.5v1.125H153v1.125h7.875v2.25h-1.125v1.125h-1.125V-13.5h1.125v-1.125H153v4.5h-1.125v-4.5h-5.625V-13.5h-1.125v1.125H144V-13.5h1.125v-2.25h6.75v-1.125h-4.5Zm0,4.5h3.375v1.125h-3.375Zm6.75,0H157.5v1.125h-3.375Zm-6.75,2.25h3.375v1.125h-3.375Zm6.75,0H157.5v1.125h-3.375ZM146.254-9h12.375v5.625H153v2.25h-1.125v-2.25h-5.625Zm1.125,1.125V-6.75h4.5V-7.875Zm5.625,0V-6.75h4.5V-7.875Zm-5.625,2.25V-4.5h4.5V-5.625Zm5.625,0V-4.5h4.5V-5.625Zm6.75,2.25h1.125V0H153V-1.125h6.75ZM163.8-18Zm2.25,0h1.125v1.125h-1.125Zm11.25,0h1.125v1.125h1.125v1.125h-3.375v3.375h3.375v1.125h-3.375v3.375h3.375V0h-1.125V-1.125H172.8V0h-1.125V-7.875h3.375V-11.25h-3.375v-1.125h3.375v-2.25h-3.375V-13.5H163.8v-1.125h7.875V-15.75h3.375v-1.125h2.25Zm-10.125,1.125H168.3v1.125h-1.125Zm-2.25,4.5h5.625v1.125h-5.625Zm0,2.25h5.625V-9h-5.625Zm0,2.25h5.625v6.75h-1.125V-2.25h-3.375v1.125h-1.125Zm1.125,1.125v3.375h3.375V-6.75Zm6.75,0v4.5h5.625v-4.5Zm18.4-1.944-.81.756a16.393,16.393,0,0,1,2,1.8,17.347,17.347,0,0,1,1.53,1.854l.9-.756a15.646,15.646,0,0,0-1.548-1.854A14.063,14.063,0,0,0,191.2-8.694ZM203.4-18Zm2.25,0h1.125v1.125h-1.125Zm1.125,1.125H207.9v1.125h-1.125Zm3.375,0h9v1.125h-4.5v2.25h3.375V-9h2.25v1.125H210.154V-9h2.25v-3.375h-2.25V-13.5h3.375v-2.25h-3.375Zm-6.75,2.25h6.75V-13.5H203.4Zm1.125,2.25h4.5v1.125h-4.5Zm9,0V-9H216.9v-3.375Zm-9,2.25h4.5V-9h-4.5Zm0,2.25h4.5v6.75H207.9V-2.25h-2.25v1.125h-1.125Zm1.125,1.125v3.375h2.25V-6.75Zm5.625,0h6.75V0H216.9V-1.125h-4.5V0h-1.125ZM212.4-5.625V-2.25h4.5V-5.625ZM223.2-18Zm6.75,0h1.125v1.125h-1.125Zm1.125,1.125H232.2v1.125h5.625v1.125h-2.25v2.25h-1.125v1.125h5.625v1.125H223.2V-11.25h5.625V-13.5h1.125v2.25h3.375v-1.125h1.125v-2.25h-5.625V-13.5H227.7v-1.125h-2.25V-15.75h5.625ZM226.579-9H236.7V0h-1.125V-1.125H227.7V0h-1.125ZM227.7-7.875v2.25h7.875v-2.25Zm0,3.375v2.25h7.875V-4.5ZM243-18Zm9,0h1.125v3.375h5.625V-13.5h-5.625V-9H252v-4.5h-7.875v-1.125H252Zm3.375,0H256.5v1.125h-1.125Zm1.125,1.125h1.125v1.125H256.5Zm-11.25,5.625h5.625v5.625h-5.625Zm11.25,0h1.125v3.375H256.5v2.25h-1.125v2.25h-1.125V-2.25h-1.125v1.125H252V0h-2.25V-1.125H252V-2.25h1.125V-3.375h1.125v-2.25h1.125v-2.25H256.5Zm-10.125,1.125V-6.75h3.375v-3.375ZM253.129-9h1.125v3.375h-1.125Zm4.5,3.375h1.125V0h-1.125V-1.125H256.5V-2.25h1.125Zm-9,1.125H252v1.125h-3.375V-2.25h-4.5V-3.375h4.5Zm6.75,1.125H256.5V-2.25h-1.125ZM262.8-18Zm7.875,0H271.8v2.25h6.75v1.125H271.8v2.25h4.5V-2.25h3.375v1.125H262.8V-2.25h3.375V-12.375h4.5v-2.25h-6.75V-15.75h6.75ZM267.3-11.25v1.125h7.875V-11.25Zm0,2.25v1.125h7.875V-9Zm0,2.25v1.125h7.875V-6.75Zm0,2.25v2.25h7.875V-4.5ZM282.6-18Zm3.375,0H287.1v4.5h2.25v1.125H287.1v2.25h1.125V-11.25H291.6v-1.125h1.125v1.125h2.25v-1.125H296.1V-13.5h1.125v1.125H296.1v1.125h3.375v1.125h-5.625v2.25h5.625V-6.75h-2.25V-4.5H296.1v1.125h-1.125V-2.25h-2.25v1.125h-2.25V0h-2.25V-1.125h2.25V-2.25h2.25V-3.375h2.25V-4.5H296.1V-6.75h-3.375v1.125H291.6V-4.5h-1.125V-5.625H291.6V-6.75h-3.375V-7.875h4.5v-2.25h-4.5V-9H287.1v7.875h-1.125V0h-1.125V-1.125h1.125v-6.75h-1.125V-6.75H282.6V-7.875h2.25V-9h1.125v-3.375H282.6V-13.5h3.375Zm6.75,0h1.125v1.125h-1.125Zm1.125,1.125h1.125v1.125h3.375v1.125h-9V-15.75h4.5ZM290.479-13.5H291.6v1.125h-1.125Zm1.125,9h1.125v1.125H291.6Zm-7.875,2.25h1.125v1.125h-1.125Zm11.25,0h2.25v1.125h-2.25Zm2.25,1.125h1.125V0h-1.125ZM302.4-18Zm0,2.25h16.875v1.125h-9V0h-1.125V-14.625H302.4Zm9,4.5h1.125v1.125H311.4Zm1.125,1.125h1.125V-9h-1.125ZM313.654-9h2.25v2.25h-1.125V-7.875h-1.125Zm8.55-9Zm2.25,1.125h5.625V-13.5h-5.625Zm6.75,0h5.625V-13.5H331.2Zm-5.625,1.125v1.125h3.375V-15.75Zm6.75,0v1.125H335.7V-15.75Zm-6.75,3.375H335.7V-6.75h-4.5v1.125h7.875V-4.5H331.2V0h-1.125V-4.5H322.2V-5.625h7.875V-6.75h-4.5ZM326.7-11.25v1.125h3.375V-11.25Zm4.5,0v1.125h3.375V-11.25ZM326.7-9v1.125h3.375V-9Zm4.5,0v1.125h3.375V-9ZM342-18Zm3.375,0H346.5v2.25h-1.125v2.25h-1.125v1.125h3.375v-2.25h1.125v2.25h-1.125v1.125H346.5v1.125h-1.125V-9h-1.125v1.125h3.375V-9h1.125v1.125h1.125v2.25h-1.125V-6.75h-4.5v1.125h-1.125V-6.75H342V-7.875h1.125V-9h1.125v-1.125h1.125V-11.25H342v-1.125h1.125V-13.5h1.125v-2.25h1.125Zm7.875,0h1.125v2.25h-1.125v1.125h-1.125V-13.5H351v1.125h-1.125v1.125h-1.125v-1.125h1.125V-13.5H351v-1.125h1.125V-15.75h1.125Zm1.125,2.25H355.5v1.125h-1.125Zm1.125,1.125h1.125V-13.5H355.5Zm1.125,1.125h1.125v1.125h-1.125Zm1.125,1.125h1.125v1.125h-1.125v1.125h-7.875V-11.25h7.875Zm-11.25,2.25h1.125V-9H346.5Zm4.5,2.25h5.625V0H355.5V-1.125h-3.375V0H351Zm1.125,1.125v4.5H355.5v-4.5Zm-9,2.25h1.125v2.25h-1.125v1.125H342V-2.25h1.125Zm2.25,0H346.5v1.125h-1.125Zm2.25,0h1.125v1.125h-1.125v2.25H346.5v-2.25h1.125Zm1.125,1.125h1.125v2.25h-1.125ZM361.8-18Zm4.5,0h1.125v2.25h1.125v-1.125h1.125v1.125h-1.125v2.25h-1.125v-1.125H366.3V-13.5h-1.125v1.125h3.375V-13.5h1.125v1.125H370.8V-13.5h1.125v-1.125h1.125V-18h1.125v3.375h-1.125V-13.5h-1.125v1.125H375.3V-13.5h1.125v1.125h2.25v2.25h-1.125V-9h-1.125v-1.125h1.125V-11.25h-13.5v1.125h-1.125V-9H361.8v-1.125h1.125v-2.25h1.125V-13.5h1.125v-1.125H366.3Zm-2.25,1.125h1.125v1.125h-1.125v1.125h-1.125V-15.75h1.125Zm6.75,0h1.125v1.125H370.8v1.125h-1.125V-15.75H370.8Zm5.625,0h1.125v1.125h-1.125v1.125H375.3V-13.5h-1.125v-1.125H375.3V-15.75h1.125ZM366.3-10.125h7.875V-6.75H366.3ZM367.429-9v1.125h5.625V-9Zm-2.25,3.375H375.3V0h-1.125V-1.125H366.3V0h-1.125ZM366.3-4.5v2.25h7.875V-4.5ZM381.6-18Zm5.625,0h1.125v3.375h3.375V-18h1.125v3.375h1.125V-15.75H395.1v-1.125h1.125v1.125H395.1v1.125h3.375V-13.5h-4.5v1.125h-1.125v1.125h3.375v1.125H390.6V-9h5.625v1.125H390.6V-6.75h6.75v1.125h-4.5V-4.5h-1.125V-5.625H390.6V0h-1.125V-5.625h-1.125V-4.5h-1.125v1.125H386.1V-2.25h-2.25v1.125H381.6V-2.25h2.25V-3.375h2.25V-4.5h1.125V-5.625h-4.5V-6.75h6.75V-7.875h-5.625V-9h5.625v-1.125h-5.625V-11.25h3.375v-1.125h1.125v1.125h3.375v-1.125h1.125V-13.5h-5.625v1.125H386.1V-13.5h-4.5v-1.125h3.375V-15.75H386.1v1.125h1.125Zm-3.375,1.125h1.125v1.125h-1.125Zm9,12.375h2.25v1.125h-2.25Zm2.25,1.125h3.375V-2.25h-1.125v1.125h-1.125V-2.25H395.1ZM401.4-18Zm3.375,1.125H414.9v4.5H404.779ZM405.9-15.75v2.25h7.875v-2.25Zm-2.25,4.5h12.375v7.875h-2.25V-2.25h-1.125V-3.375h-4.5V-2.25h-1.125v1.125h-2.25V0h-2.25V-1.125h2.25V-2.25h2.25V-3.375h-3.375Zm1.125,1.125V-9H414.9v-1.125Zm0,2.25V-6.75H414.9V-7.875Zm0,2.25V-4.5H414.9V-5.625Zm9,3.375h2.25v1.125h-2.25Zm2.25,1.125h1.125V0h-1.125Z" transform="translate(2292 5926)" fill="#2e817f"/>
  </g>
</svg>
