<svg xmlns="http://www.w3.org/2000/svg" width="270" height="60" viewBox="0 0 270 60">
  <g id="g6-q3" transform="translate(-2776 -5888.999)">
    <g id="Path_54320" data-name="Path 54320" transform="translate(2776 5888.999)" fill="azure">
      <path d="M 265.3460083007812 59.00034713745117 L 3.03039288520813 59.00034713745117 L 3.03039288520813 58.52791595458984 L 3.03039288520813 57.52791595458984 L 2.03039288520813 57.52791595458984 L 1 57.52791595458984 L 1 2.47329306602478 L 2.03039288520813 2.473274946212769 L 3.03039288520813 2.473274946212769 L 3.03039288520813 1.473274946212769 L 3.03039288520813 1.000024795532227 L 265.3460083007812 0.99998939037323 L 265.3460083007812 1.472453594207764 L 265.3460083007812 2.472453594207764 L 266.3460083007812 2.472453594207764 L 269 2.472453594207764 L 269 57.52791595458984 L 266.3460083007812 57.52791595458984 L 265.3460083007812 57.52791595458984 L 265.3460083007812 58.52791595458984 L 265.3460083007812 59.00034713745117 Z" stroke="none"/>
      <path d="M 264.3460083007812 58.00034713745117 L 264.3460083007812 56.52791595458984 L 266.3460083007812 56.52791595458984 L 268 56.52791595458984 L 268 3.472453594207764 L 266.3460083007812 3.472453594207764 L 264.3460083007812 3.472453594207764 L 264.3460083007812 1.99998950958252 L 4.030392646789551 2.000024795532227 L 4.030392646789551 3.473239183425903 L 2.030428647994995 3.473274946212769 L 2 3.473275423049927 L 2 56.52791595458984 L 2.03039288520813 56.52791595458984 L 4.030392646789551 56.52791595458984 L 4.030392646789551 58.00034713745117 L 264.3460083007812 58.00034713745117 M 266.3460083007812 60.00034713745117 L 2.03039288520813 60.00034713745117 L 2.03039288520813 58.52791595458984 L 2.842170943040401e-14 58.52791595458984 L 2.842170943040401e-14 1.473310708999634 L 2.03039288520813 1.473274946212769 L 2.03039288520813 2.498953654139768e-05 L 266.3460083007812 -1.072474879038054e-05 L 266.3460083007812 1.472453594207764 L 270 1.472453594207764 L 270 58.52791595458984 L 266.3460083007812 58.52791595458984 L 266.3460083007812 59.99934768676758 L 266.3460083007812 60.00034713745117 Z" stroke="none" fill="#2e817f"/>
    </g>
    <path id="Path_54321" data-name="Path 54321" d="M9.624-.281A9.8,9.8,0,0,1,6.5.272,5.039,5.039,0,0,1,3.872-.409,4.81,4.81,0,0,1,2.083-2.254,5.4,5.4,0,0,1,1.441-4.9,5.07,5.07,0,0,1,2.9-8.613,4.749,4.749,0,0,1,6.407-10.09a10.086,10.086,0,0,1,3.217.571v1.573a7.52,7.52,0,0,0-3.067-.782,3.4,3.4,0,0,0-1.687.444A2.918,2.918,0,0,0,3.647-6.9a4.6,4.6,0,0,0-.431,1.934,4.389,4.389,0,0,0,.831,2.531,2.944,2.944,0,0,0,2.606,1.2,7.387,7.387,0,0,0,1.055-.075,13.188,13.188,0,0,0,1.916-.549ZM18,.413a1.379,1.379,0,0,1-1.011-.422,1.379,1.379,0,0,1-.422-1.011,1.368,1.368,0,0,1,.426-1.015A1.391,1.391,0,0,1,18-2.452,1.391,1.391,0,0,1,19-2.035a1.368,1.368,0,0,1,.426,1.015,1.379,1.379,0,0,1-.422,1.011A1.379,1.379,0,0,1,18,.413ZM28-18Zm3.375,0H32.5v4.5h2.25v1.125H32.5v2.25h1.125V-9H32.5v7.875H31.375V0H30.25V-1.125h1.125v-6.75H30.25V-6.75H28V-7.875h2.25V-9h1.125v-3.375H28V-13.5h3.375Zm4.5,1.125H41.5v5.625H40.375v-4.5H37v4.5H35.875v1.125H34.75V-11.25h1.125ZM41.5-11.25h2.25v1.125H41.5ZM34.75-9h7.875v2.25H41.5v1.125H40.375V-4.5H39.25v1.125H38.125V-2.25H37v1.125H34.75V0H32.5V-1.125h2.25V-2.25H37V-3.375h1.125V-4.5H39.25V-5.625h1.125V-6.75H41.5V-7.875H37v2.25H35.875v-2.25H34.75ZM37-5.625h1.125V-4.5H37Zm2.25,2.25H41.5V-2.25H39.25ZM29.125-2.25H30.25v1.125H29.125Zm12.375,0h3.375v1.125H43.75V0H42.625V-1.125H41.5ZM47.8-18Zm1.125,0H50.05v1.125H48.925Zm6.75,0H56.8v1.125h6.75v2.25H62.425V-13.5H61.3v-1.125h1.125V-15.75H59.05v2.25H57.925v1.125H56.8v1.125H55.675v1.125H61.3V-11.25h3.375v1.125H63.55V-9H62.425v-1.125H61.3V-2.25H60.175v1.125H59.05V-2.25H53.425v1.125H52.3V0H51.175V-1.125H52.3V-2.25H51.175V-9H50.05v-2.25H47.8v-1.125h2.25V-13.5h1.125v-1.125H52.3V-15.75h1.125v1.125H52.3V-13.5H51.175v3.375h2.25V-11.25h2.25v-1.125H56.8V-13.5h1.125v-2.25h-2.25v1.125H54.55V-13.5H53.425v-1.125H54.55V-15.75h1.125ZM50.05-16.875h1.125v2.25H50.05Zm9,3.375h1.125v1.125H59.05Zm1.125,1.125H61.3v1.125H60.175ZM52.3-9v1.125h7.875V-9Zm0,2.25v1.125h7.875V-6.75Zm0,2.25v1.125h7.875V-4.5Zm7.875,3.375H61.3V0H60.175ZM67.6-18Zm7.875,0H76.6v7.875H75.475V-6.75H74.35V-4.5H73.225v1.125H72.1V-2.25H70.975v1.125H69.85V0H68.725V-1.125H69.85V-2.25h1.125V-3.375H72.1V-4.5h1.125V-6.75H74.35v-3.375h1.125ZM76.6-10.125h1.125V-6.75H76.6ZM77.725-6.75H78.85V-4.5H77.725ZM78.85-4.5h1.125v1.125H78.85Zm1.125,1.125H81.1V-2.25H79.975ZM81.1-2.25h3.375v1.125H83.35V0H82.225V-1.125H81.1ZM87.4-18Zm3.375,0H91.9v4.5h2.25v1.125H91.9v2.25h1.125V-9H91.9v2.25h2.25V-7.875h1.125V-11.25H94.15v-1.125h1.125v-4.5H96.4V-4.5H95.275v2.25H94.15v1.125H93.025V0H91.9V-1.125h1.125V-2.25H94.15V-4.5h1.125V-6.75H94.15v1.125H91.9v4.5H90.775V0H89.65V-1.125h1.125v-6.75H89.65V-6.75H87.4V-7.875h2.25V-9h1.125v-3.375H87.4V-13.5h3.375Zm7.875,0h1.125v6.75H100.9v-1.125h1.125V-13.5h1.125v2.25H100.9v1.125H99.775V-9H100.9v1.125H99.775V-2.25H98.65ZM100.9-7.875h1.125V-6.75H100.9Zm1.125,1.125h1.125v1.125h-1.125ZM103.15-4.5h1.125v3.375h-4.5V-2.25h3.375ZM88.525-2.25H89.65v1.125H88.525ZM107.2-18Zm2.25,1.125h1.125v1.125H109.45Zm3.375,0h4.5V-13.5H113.95v2.25h-1.125Zm5.625,0h4.5V-13.5h-3.375v2.25H118.45Zm-7.875,1.125H111.7v2.25h-1.125Zm3.375,0v1.125h2.25V-15.75Zm5.625,0v1.125h2.25V-15.75ZM116.2-12.375h1.125v2.25H116.2V-9h3.375v-2.25h2.25v-1.125h1.125v2.25H120.7V-9h2.25v1.125H120.7V-6.75h3.375v1.125H120.7V-4.5h-1.125V-5.625H116.2V-4.5h-1.125v1.125H113.95V-4.5h1.125V-5.625H111.7v2.25h-1.125V-2.25H109.45v1.125h-1.125V-2.25h1.125V-3.375h1.125v-6.75H107.2V-11.25h4.5v4.5h3.375V-7.875h-2.25V-9h2.25v-1.125H113.95V-11.25h2.25Zm0,4.5V-6.75h3.375V-7.875ZM120.7-4.5h1.125v1.125H120.7Zm-9,1.125h1.125V-2.25H111.7Zm1.125,1.125h11.25v1.125h-11.25ZM127-18Zm10.125,0h1.125v1.125h4.5v1.125H140.5v1.125h-1.125V-13.5h3.375V-3.375h-1.125V-2.25h2.25v1.125h-11.25V-2.25H140.5V-3.375h1.125v-9H138.25v1.125h2.25v1.125h-2.25V-9h1.125v4.5H136V-9h1.125v-1.125h-2.25V-11.25h2.25v-1.125H133.75v9h-1.125V-2.25H131.5V-3.375h1.125V-13.5H136v-1.125h1.125V-13.5h1.125v-1.125h1.125V-15.75H136v1.125h-1.125V-15.75h-2.25v-1.125h4.5Zm-7.875,1.125h1.125v1.125H129.25Zm1.125,1.125H131.5v2.25h-1.125ZM127-11.25h4.5v7.875h-1.125V-2.25H129.25v1.125h-1.125V-2.25h1.125V-3.375h1.125v-6.75H127Zm10.125,3.375v2.25h1.125v-2.25Zm2.25,3.375H140.5v1.125h-1.125ZM146.8-18Zm7.875,0H155.8v2.25h-1.125v1.125H153.55V-13.5h-1.125v1.125H151.3v1.125h7.875v-1.125h2.25v1.125H160.3v1.125H150.175V-11.25H149.05v1.125H146.8V-11.25h2.25v-1.125h2.25V-13.5h1.125v-1.125h1.125V-15.75h1.125Zm1.125,2.25h1.125v1.125H155.8Zm1.125,1.125h1.125V-13.5h-1.125ZM158.05-13.5h1.125v1.125H158.05Zm3.375,2.25h2.25v1.125h-2.25Zm-11.25,3.375H160.3V0h-1.125V-1.125H151.3V0h-1.125ZM151.3-6.75v4.5h7.875v-4.5ZM166.6-18Zm3.375,0H171.1v2.25h-1.125v1.125h4.5v3.375H175.6V-13.5h1.125V-18h1.125v3.375h4.5V-2.25h-1.125v1.125H180.1V0h-1.125V-1.125H180.1V-2.25h1.125V-13.5h-4.5v2.25H175.6v1.125h-1.125v9H173.35V-2.25h-4.5v1.125h-1.125v-13.5h1.125V-15.75h1.125Zm-1.125,4.5V-9h4.5v-4.5Zm7.875,3.375h1.125V-9h-1.125ZM177.85-9h1.125v2.25H177.85Zm-9,1.125v4.5h4.5v-4.5Zm9,5.625h1.125v1.125H177.85ZM186.4-18Zm3.375,0H190.9v4.5h2.25v-1.125h2.25V-15.75h-2.25v-1.125h2.25V-18h1.125v1.125H199.9V-18h1.125v1.125h2.25v1.125h-2.25v1.125h2.25v3.375h-4.5v1.125H197.65V-11.25h1.125v-3.375H199.9V-15.75h-3.375v1.125h1.125v3.375h-1.125v1.125H195.4V-9h3.375v-1.125H199.9V-9h3.375v1.125h-4.5V-6.75h3.375v1.125h-3.375V-4.5h3.375v1.125h-3.375V-2.25h4.5v1.125H195.4V0h-1.125V-7.875H193.15V-6.75h-1.125V-7.875h1.125V-9h1.125v-1.125H195.4V-11.25h-2.25v-1.125H190.9v1.125h1.125v1.125H190.9V0h-1.125V-9H188.65v2.25h-1.125v1.125H186.4V-6.75h1.125V-9h1.125v-2.25h1.125v-1.125H186.4V-13.5h3.375Zm4.5,4.5v1.125h2.25V-13.5Zm5.625,0v1.125h2.25V-13.5Zm-7.875,3.375h1.125V-9h-1.125Zm3.375,2.25V-6.75h2.25V-7.875Zm0,2.25V-4.5h2.25V-5.625Zm0,2.25V-2.25h2.25V-3.375ZM206.2-18Zm2.25,0h1.125v1.125H208.45Zm1.125,1.125H210.7v1.125h-1.125Zm4.5,0h3.375V-13.5h-1.125v1.125H215.2v1.125h-1.125v1.125H212.95V-11.25h1.125v-1.125H215.2V-13.5h1.125v-2.25h-2.25Zm4.5,0H219.7v1.125h1.125v-1.125h1.125v1.125h-1.125v2.25h1.125v-1.125h1.125V-13.5H221.95v2.25h-1.125v1.125H215.2V-11.25h5.625v-1.125H219.7v-2.25h-1.125ZM206.2-14.625h6.75V-13.5H206.2Zm7.875,0H215.2V-13.5h-1.125Zm-6.75,2.25h4.5v1.125h-4.5ZM221.95-11.25h1.125v1.125H221.95Zm-14.625,1.125h4.5V-9h-4.5ZM215.2-9h5.625v5.625H219.7V-2.25h3.375v1.125H212.95V-2.25h3.375V-3.375h1.125V-2.25h1.125V-3.375H219.7V-4.5h-3.375v1.125H215.2Zm-7.875,1.125h4.5v6.75H210.7V-2.25h-2.25v1.125h-1.125Zm9,0v2.25H219.7v-2.25ZM208.45-6.75v3.375h2.25V-6.75Z" transform="translate(2794 5926)" fill="#2e817f"/>
  </g>
</svg>
