<svg xmlns="http://www.w3.org/2000/svg" width="829.834" height="122" viewBox="0 0 829.834 122">
  <g id="g6-q" transform="translate(-268 -82)">
    <g id="Exclusion_15" data-name="Exclusion 15" transform="translate(752 4211.001)" fill="#2e817f">
      <path d="M 293.4356079101562 -4009.00048828125 L -431.4355773925781 -4009.00048828125 L -431.4355773925781 -4009.405029296875 L -431.4355773925781 -4011.405029296875 L -433.4355773925781 -4011.405029296875 L -437.0000915527344 -4011.405029296875 L -437.0000915527344 -4100.59521484375 L -433.4355773925781 -4100.59521484375 L -431.4355773925781 -4100.59521484375 L -431.4355773925781 -4102.59521484375 L -431.4355773925781 -4103.00048828125 L 293.4356079101562 -4103.00048828125 L 293.4356079101562 -4102.59521484375 L 293.4356079101562 -4100.59521484375 L 295.4356079101562 -4100.59521484375 L 298.9999084472656 -4100.59521484375 L 298.9998168945312 -4011.405029296875 L 295.4356079101562 -4011.405029296875 L 293.4356079101562 -4011.405029296875 L 293.4356079101562 -4009.405029296875 L 293.4356079101562 -4009.00048828125 Z" stroke="none"/>
      <path d="M 291.4356079101562 -4011.00048828125 L 291.4356079101562 -4013.405029296875 L 295.4356079101562 -4013.405029296875 L 296.9998168945312 -4013.405029296875 L 296.9999084472656 -4098.59521484375 L 295.4356079101562 -4098.59521484375 L 291.4356079101562 -4098.59521484375 L 291.4356079101562 -4101.00048828125 L -429.4355773925781 -4101.00048828125 L -429.4355773925781 -4098.59521484375 L -433.4355773925781 -4098.59521484375 L -435.0000915527344 -4098.59521484375 L -435.0000915527344 -4013.405029296875 L -433.4355773925781 -4013.405029296875 L -429.4355773925781 -4013.405029296875 L -429.4355773925781 -4011.00048828125 L 291.4356079101562 -4011.00048828125 M 295.4356079101562 -4007.00048828125 L -433.4355773925781 -4007.00048828125 L -433.4355773925781 -4009.405029296875 L -439.0000915527344 -4009.405029296875 L -439.0000915527344 -4102.59521484375 L -433.4355773925781 -4102.59521484375 L -433.4355773925781 -4105.00048828125 L 295.4356079101562 -4105.00048828125 L 295.4356079101562 -4102.59521484375 L 300.9999084472656 -4102.59521484375 L 300.9998168945312 -4009.405029296875 L 295.4356079101562 -4009.405029296875 L 295.4356079101562 -4007.0009765625 L 295.4356079101562 -4007.00048828125 Z" stroke="none" fill="#2f211e"/>
    </g>
    <path id="Path_54293" data-name="Path 54293" d="M-163.218-.383v-2.68a12.424,12.424,0,0,0,5.428,1.586,4.908,4.908,0,0,0,3.479-1.278,4.289,4.289,0,0,0,1.374-3.288,4.106,4.106,0,0,0-1.511-3.295q-1.511-1.271-5.134-1.271h-1.408v-2.119h1.955a5.272,5.272,0,0,0,3.855-1.2,3.7,3.7,0,0,0,1.189-2.659,2.943,2.943,0,0,0-.971-2.235,4.234,4.234,0,0,0-2.98-.909,11.106,11.106,0,0,0-4.854,1.271v-2.42a13.7,13.7,0,0,1,4.758-.971q3.869,0,5.339,1.524a4.876,4.876,0,0,1,1.47,3.479,5.117,5.117,0,0,1-.779,2.721,6.554,6.554,0,0,1-2.871,2.27,7.791,7.791,0,0,1,2.789,1.34,5.221,5.221,0,0,1,1.429,1.873,5.84,5.84,0,0,1,.485,2.42A6.268,6.268,0,0,1-152.383-1.3,8.327,8.327,0,0,1-158.091.643,17.793,17.793,0,0,1-160.3.492,11.55,11.55,0,0,1-163.218-.383ZM-137.2.643a2.145,2.145,0,0,1-1.572-.656,2.145,2.145,0,0,1-.656-1.572,2.127,2.127,0,0,1,.663-1.579,2.163,2.163,0,0,1,1.565-.649,2.163,2.163,0,0,1,1.565.649,2.127,2.127,0,0,1,.663,1.579,2.145,2.145,0,0,1-.656,1.572A2.145,2.145,0,0,1-137.2.643ZM-109.2-28Zm5.25,0h1.75v7h3.5v1.75h-3.5v3.5h1.75V-14h-1.75V-1.75h-1.75V0h-1.75V-1.75h1.75v-10.5h-1.75v1.75h-3.5v-1.75h3.5V-14h1.75v-5.25h-5.25V-21h5.25Zm7,1.75h8.75v8.75h-1.75v-7H-95.2v7h-1.75v1.75H-98.7V-17.5h1.75Zm8.75,8.75h3.5v1.75h-3.5ZM-98.7-14h12.25v3.5H-88.2v1.75h-1.75V-7H-91.7v1.75h-1.75V-3.5H-95.2v1.75h-3.5V0h-3.5V-1.75h3.5V-3.5h3.5V-5.25h1.75V-7h1.75V-8.75h1.75V-10.5h1.75v-1.75h-7v3.5h-1.75v-3.5H-98.7Zm3.5,5.25h1.75V-7H-95.2Zm3.5,3.5h3.5V-3.5h-3.5ZM-107.45-3.5h1.75v1.75h-1.75Zm19.25,0h5.25v1.75H-84.7V0h-1.75V-1.75H-88.2ZM-78.4-28Zm1.75,0h1.75v1.75h-1.75Zm10.5,0h1.75v1.75h10.5v3.5h-1.75V-21H-57.4v-1.75h1.75V-24.5H-60.9V-21h-1.75v1.75H-64.4v1.75h-1.75v1.75h8.75V-17.5h5.25v1.75H-53.9V-14h-1.75v-1.75H-57.4V-3.5h-1.75v1.75H-60.9V-3.5h-8.75v1.75H-71.4V0h-1.75V-1.75h1.75V-3.5h-1.75V-14H-74.9v-3.5h-3.5v-1.75h3.5V-21h1.75v-1.75h1.75V-24.5h1.75v1.75H-71.4V-21h-1.75v5.25h3.5V-17.5h3.5v-1.75h1.75V-21h1.75v-3.5h-3.5v1.75H-67.9V-21h-1.75v-1.75h1.75V-24.5h1.75Zm-8.75,1.75h1.75v3.5H-74.9Zm14,5.25h1.75v1.75H-60.9Zm1.75,1.75h1.75v1.75h-1.75ZM-71.4-14v1.75h12.25V-14Zm0,3.5v1.75h12.25V-10.5Zm0,3.5v1.75h12.25V-7Zm12.25,5.25h1.75V0h-1.75ZM-47.6-28Zm5.25,0h1.75v7h3.5v-1.75h3.5V-24.5h-3.5v-1.75h3.5V-28h1.75v1.75h5.25V-28h1.75v1.75h3.5v1.75h-3.5v1.75h3.5v5.25h-7v1.75H-30.1V-17.5h1.75v-5.25h1.75V-24.5h-5.25v1.75h1.75v5.25h-1.75v1.75H-33.6V-14h5.25v-1.75h1.75V-14h5.25v1.75h-7v1.75h5.25v1.75h-5.25V-7h5.25v1.75h-5.25V-3.5h7v1.75H-33.6V0h-1.75V-12.25H-37.1v1.75h-1.75v-1.75h1.75V-14h1.75v-1.75h1.75V-17.5h-3.5v-1.75h-3.5v1.75h1.75v1.75H-40.6V0h-1.75V-14H-44.1v3.5h-1.75v1.75H-47.6V-10.5h1.75V-14h1.75v-3.5h1.75v-1.75H-47.6V-21h5.25Zm7,7v1.75h3.5V-21Zm8.75,0v1.75h3.5V-21Zm-12.25,5.25h1.75V-14h-1.75Zm5.25,3.5v1.75h3.5v-1.75Zm0,3.5V-7h3.5V-8.75Zm0,3.5V-3.5h3.5V-5.25ZM-16.8-28Zm3.5,0h1.75v1.75H-13.3Zm1.75,1.75H-9.8v1.75h-1.75Zm7,0H.7V-21H-1.05v1.75H-2.8v1.75H-4.55v1.75H-6.3V-17.5h1.75v-1.75H-2.8V-21h1.75v-3.5h-3.5Zm7,0H4.2v1.75H5.95v-1.75H7.7v1.75H5.95V-21H7.7v-1.75H9.45V-21H7.7v3.5H5.95v1.75H-2.8V-17.5H5.95v-1.75H4.2v-3.5H2.45Zm-19.25,3.5H-6.3V-21H-16.8Zm12.25,0H-2.8V-21H-4.55Zm-10.5,3.5h7v1.75h-7ZM7.7-17.5H9.45v1.75H7.7Zm-22.75,1.75h7V-14h-7ZM-2.8-14H5.95v8.75H4.2V-3.5H9.45v1.75H-6.3V-3.5h5.25V-5.25H.7V-3.5H2.45V-5.25H4.2V-7H-1.05v1.75H-2.8Zm-12.25,1.75h7v10.5H-9.8V-3.5h-3.5v1.75h-1.75Zm14,0v3.5H4.2v-3.5ZM-13.3-10.5v5.25h3.5V-10.5ZM14-28Zm5.25,0H21v3.5H19.25v1.75h7v5.25H28V-21h1.75v-7H31.5v5.25h7V-3.5H36.75v1.75H35V0H33.25V-1.75H35V-3.5h1.75V-21h-7v3.5H28v1.75H26.25v14H24.5V-3.5h-7v1.75H15.75v-21H17.5V-24.5h1.75ZM17.5-21v7h7v-7Zm12.25,5.25H31.5V-14H29.75ZM31.5-14h1.75v3.5H31.5Zm-14,1.75v7h7v-7Zm14,8.75h1.75v1.75H31.5ZM44.8-28Zm1.75,1.75H48.3V-3.5H46.55v1.75H44.8V-3.5h1.75Zm7,0H55.3v24.5H53.55Zm3.5,0h14v1.75h-7v1.75H62.3V-21h7V-7H67.55V-8.75H58.8V-7H57.05V-21h3.5v-1.75H62.3V-24.5H57.05Zm-7,1.75H51.8V-5.25H50.05Zm8.75,5.25v1.75h8.75v-1.75Zm0,3.5V-14h8.75v-1.75Zm0,3.5v1.75h8.75v-1.75ZM60.55-7H62.3v1.75H60.55V-3.5H58.8v1.75H57.05V0H55.3V-1.75h1.75V-3.5H58.8V-5.25h1.75Zm3.5,0H65.8v1.75H64.05ZM65.8-5.25h1.75V-3.5H65.8ZM67.55-3.5h3.5V0H69.3V-1.75H67.55ZM75.6-28Zm12.25,0H89.6v1.75H87.85Zm1.75,1.75h1.75v1.75h8.75v1.75H80.85V-7H79.1v3.5H77.35v1.75H75.6V-3.5h1.75V-7H79.1V-24.5H89.6ZM84.35-21H96.6v1.75H94.85v1.75H93.1v1.75H91.35V-14h8.75v1.75H98.35v1.75H96.6v1.75H94.85V-10.5H96.6v-1.75H91.35v10.5H89.6V0H87.85V-1.75H89.6v-10.5h-7V-14h7v-1.75h1.75V-17.5H93.1v-1.75H84.35Zm3.5,3.5H89.6v1.75H87.85ZM86.1-3.5h1.75v1.75H86.1ZM106.4-28Zm3.5,0h1.75v1.75H109.9Zm7,0h1.75v5.25h8.75V-21h-1.75v1.75H123.9v1.75h5.25V-14H127.4v1.75h3.5V-3.5h-1.75v1.75H127.4V0h-1.75V-1.75h1.75V-3.5h1.75v-7h-3.5v1.75H123.9V-10.5H111.65V-7H109.9v1.75h-1.75V-3.5H106.4V-5.25h1.75V-7h1.75v-3.5h1.75V-14h1.75v-3.5h1.75V-21h-7v-1.75h3.5v-3.5h1.75v3.5h3.5Zm0,7v3.5h5.25v-1.75h1.75V-21Zm-1.75,5.25V-14H113.4v1.75h12.25V-14h1.75v-1.75Zm-1.75,7h1.75v3.5H113.4V-3.5h-1.75V-5.25h1.75Zm3.5,0h1.75V-7H116.9Zm3.5,0h1.75V-7H120.4v1.75h-1.75V-7h1.75Zm5.25,0h1.75v3.5h-1.75ZM122.15-7h1.75v1.75h-1.75Zm1.75,3.5h1.75v1.75H123.9Zm27.72-16.884a6.035,6.035,0,0,0-4.7,1.848,6.788,6.788,0,0,0-1.68,4.7h2.24a5.064,5.064,0,0,1,.924-3.22,3.578,3.578,0,0,1,3.108-1.372,3.664,3.664,0,0,1,2.744.98,3.534,3.534,0,0,1,.952,2.6,3.6,3.6,0,0,1-.812,2.212,19.032,19.032,0,0,1-1.82,1.764A8.717,8.717,0,0,0,150.7-8.6a5.486,5.486,0,0,0-.616,2.66v.644h2.24v-.644a4.009,4.009,0,0,1,.532-2.072,5.3,5.3,0,0,1,1.316-1.512c1.232-1.092,1.988-1.82,2.3-2.156a5.439,5.439,0,0,0,1.036-3.276,5.026,5.026,0,0,0-1.6-3.948A5.959,5.959,0,0,0,151.62-20.384ZM151.2-3.332a1.6,1.6,0,0,0-1.2.476,1.5,1.5,0,0,0-.476,1.176A1.6,1.6,0,0,0,150-.476,1.717,1.717,0,0,0,151.2,0a1.785,1.785,0,0,0,1.232-.476,1.624,1.624,0,0,0,.476-1.2,1.6,1.6,0,0,0-.476-1.176A1.666,1.666,0,0,0,151.2-3.332Z" transform="translate(683 166)" fill="#fff"/>
    <g id="Group_41327" data-name="Group 41327" transform="translate(123 -426)">
      <path id="Path_53380" data-name="Path 53380" d="M214.334,509H153.083v4.083H149v24.5h4.083v4.083h61.251v-4.083h4.083v-24.5h-4.083Zm-4.083,20.417H198v-4.083h12.25Zm-40.834,0h-12.25v-4.083h12.25Zm8.167,8.167V533.5H173.5V517.167h4.083v-4.083h12.25v4.083h4.083V533.5h-4.083v4.083Z" transform="translate(12.333 3.083)" fill="#ecf0f1"/>
      <rect id="Rectangle_33779" data-name="Rectangle 33779" width="12.25" height="4.083" transform="translate(210.334 528.417)" fill="#8b9bb4"/>
      <rect id="Rectangle_33780" data-name="Rectangle 33780" width="12.25" height="4.083" transform="translate(169.5 528.417)" fill="#8b9bb4"/>
      <path id="Path_53381" data-name="Path 53381" d="M160.083,511v4.083H156v12.25h12.25v-12.25h-4.083V511Z" transform="translate(33.917 9.25)" fill="#8b9bb4"/>
      <rect id="Rectangle_33781" data-name="Rectangle 33781" width="12.25" height="4.083" transform="translate(189.917 536.584)" fill="#5a6988"/>
      <path id="Path_53382" data-name="Path 53382" d="M171.333,510h-12.25v4.083H155v16.334h4.083v-12.25h4.083v-4.083h4.083v4.083h4.083v12.25h4.083V514.083h-4.083Z" transform="translate(30.834 6.167)" fill="#5a6988"/>
      <path id="Path_53383" data-name="Path 53383" d="M157.25,508v8.167H145V557h77.584v-8.167h12.25V508Zm-4.083,44.917v-4.083h-4.083v-24.5h4.083V520.25h4.083v28.584h53.084v4.083Zm77.584-12.25h-4.083v4.083H165.417v-4.083h-4.083v-24.5h4.083v-4.083h61.251v4.083h4.083Z" fill="#5a6988"/>
      <path id="Path_53384" data-name="Path 53384" d="M154.167,539.584V511h-4.083v4.083H146v24.5h4.083v4.083h57.167v-4.083Z" transform="translate(3.083 9.25)" fill="#c0cbdc"/>
    </g>
    <g id="Group_41335" data-name="Group 41335" transform="translate(863 -426)">
      <path id="Path_53380-2" data-name="Path 53380" d="M214.334,509H153.083v4.083H149v24.5h4.083v4.083h61.251v-4.083h4.083v-24.5h-4.083Zm-4.083,20.417H198v-4.083h12.25Zm-40.834,0h-12.25v-4.083h12.25Zm8.167,8.167V533.5H173.5V517.167h4.083v-4.083h12.25v4.083h4.083V533.5h-4.083v4.083Z" transform="translate(12.333 3.083)" fill="#ecf0f1"/>
      <rect id="Rectangle_33779-2" data-name="Rectangle 33779" width="12.25" height="4.083" transform="translate(210.334 528.417)" fill="#8b9bb4"/>
      <rect id="Rectangle_33780-2" data-name="Rectangle 33780" width="12.25" height="4.083" transform="translate(169.5 528.417)" fill="#8b9bb4"/>
      <path id="Path_53381-2" data-name="Path 53381" d="M160.083,511v4.083H156v12.25h12.25v-12.25h-4.083V511Z" transform="translate(33.917 9.25)" fill="#8b9bb4"/>
      <rect id="Rectangle_33781-2" data-name="Rectangle 33781" width="12.25" height="4.083" transform="translate(189.917 536.584)" fill="#5a6988"/>
      <path id="Path_53382-2" data-name="Path 53382" d="M171.333,510h-12.25v4.083H155v16.334h4.083v-12.25h4.083v-4.083h4.083v4.083h4.083v12.25h4.083V514.083h-4.083Z" transform="translate(30.834 6.167)" fill="#5a6988"/>
      <path id="Path_53383-2" data-name="Path 53383" d="M157.25,508v8.167H145V557h77.584v-8.167h12.25V508Zm-4.083,44.917v-4.083h-4.083v-24.5h4.083V520.25h4.083v28.584h53.084v4.083Zm77.584-12.25h-4.083v4.083H165.417v-4.083h-4.083v-24.5h4.083v-4.083h61.251v4.083h4.083Z" fill="#5a6988"/>
      <path id="Path_53384-2" data-name="Path 53384" d="M154.167,539.584V511h-4.083v4.083H146v24.5h4.083v4.083h57.167v-4.083Z" transform="translate(3.083 9.25)" fill="#c0cbdc"/>
    </g>
  </g>
</svg>
