<svg xmlns="http://www.w3.org/2000/svg" width="196" height="60" viewBox="0 0 196 60">
  <g id="g6-q1" transform="translate(-2062 -5889)">
    <g id="Path_54324" data-name="Path 54324" transform="translate(2062 5889)" fill="azure">
      <path d="M 193.5262603759766 59 L 2.473974943161011 59 L 2.473974943161011 58.52699661254883 L 2.473974943161011 57.52699661254883 L 1.473974943161011 57.52699661254883 L 1.000024557113647 57.52699661254883 L 1.000000476837158 2.472223043441772 L 1.473974943161011 2.472223043441772 L 2.473974943161011 2.472223043441772 L 2.473974943161011 1.472223043441772 L 2.473974943161011 0.9999980926513672 L 193.5262451171875 0.9999980926513672 L 193.5262298583984 1.472198128700256 L 193.5261993408203 2.472223043441772 L 194.5262298583984 2.472223043441772 L 195 2.472223043441772 L 194.9999694824219 57.52777481079102 L 194.5262756347656 57.52777481079102 L 193.5263061523438 57.52777481079102 L 193.5262756347656 58.52774810791016 L 193.5262603759766 59 Z" stroke="none"/>
      <path d="M 192.5262908935547 58 L 192.5263366699219 56.52778625488281 L 193.9999694824219 56.52778625488281 L 194 3.472234964370728 L 192.5261383056641 3.472234964370728 L 192.5261840820312 1.999998092651367 L 3.473966836929321 1.999998092651367 L 3.473947286605835 3.472234964370728 L 2.000000953674316 3.472234964370728 L 2.000025510787964 56.52699661254883 L 3.474026203155518 56.52699661254883 L 3.47400689125061 58 L 192.5262908935547 58 M 194.5262603759766 60 L 194.5262145996094 60 L 194.5259399414062 60 L 194.5262145996094 60 L 194.5262603759766 60 Z M 194.5262603759766 60 L 1.473973631858826 60 L 1.473999977111816 58.52699661254883 L 2.631578900036402e-05 58.52699661254883 L 0 1.472234964370728 L 1.473973631858826 1.472234964370728 L 1.473999977111816 -1.9073486328125e-06 L 194.5262603759766 -1.9073486328125e-06 L 194.5262145996094 1.472234964370728 L 196 1.472234964370728 L 195.9999694824219 58.52778625488281 L 194.5262603759766 58.52778625488281 L 194.5262145996094 59.9991569519043 L 194.5262145996094 60 Z" stroke="none" fill="#2e817f"/>
    </g>
    <path id="Path_54325" data-name="Path 54325" d="M7.813-2.206a5.283,5.283,0,0,1-1.8,1.854A3.839,3.839,0,0,1,4.087.272,2.947,2.947,0,0,1,1.876-.791,4.623,4.623,0,0,1,.9-4.017a6.889,6.889,0,0,1,.65-3.045A5.477,5.477,0,0,1,3.287-9.18a4.526,4.526,0,0,1,2.7-.778q.466,0,1.406.1.141.018.422.044H9.457v6.935A9.317,9.317,0,0,0,9.826,0H8.121A15.3,15.3,0,0,1,7.813-2.206Zm0-1.942v-4.21A6.392,6.392,0,0,0,6.2-8.587,3.186,3.186,0,0,0,3.678-7.418,4.714,4.714,0,0,0,2.672-4.236a3.68,3.68,0,0,0,.549,2.2,1.558,1.558,0,0,0,1.252.743,2.743,2.743,0,0,0,1.688-.773A7.33,7.33,0,0,0,7.813-4.148ZM18,.413a1.379,1.379,0,0,1-1.011-.422,1.379,1.379,0,0,1-.422-1.011,1.368,1.368,0,0,1,.426-1.015A1.391,1.391,0,0,1,18-2.452,1.391,1.391,0,0,1,19-2.035a1.368,1.368,0,0,1,.426,1.015,1.379,1.379,0,0,1-.422,1.011A1.379,1.379,0,0,1,18,.413ZM45-18Zm1.125,1.125h5.625v5.625h-4.5V0H46.129Zm7.875,0h5.625v15.75H58.5V0H57.379V-1.125H58.5V-11.25H54Zm-6.75,1.125v1.125h3.375V-15.75Zm7.875,0v1.125H58.5V-15.75ZM47.254-13.5v1.125h3.375V-13.5Zm7.875,0v1.125H58.5V-13.5Zm-6.75,3.375h9V-9h-2.25v2.25h2.25v1.125h-2.25v4.5H54v-4.5h-2.25v2.25H50.629V-2.25H49.5v1.125H48.379V-2.25H49.5V-3.375h1.125v-2.25h-2.25V-6.75h2.25V-9h-2.25ZM51.754-9v2.25H54V-9Zm4.5,6.75h1.125v1.125H56.254ZM64.8-18Zm6.75,0h1.125v1.125H71.554Zm1.125,1.125H73.8v2.25H72.679ZM65.929-13.5H80.554v1.125H65.929Zm11.25,2.25H78.3V-9H77.179v2.25H76.054V-4.5H74.929v1.125H73.8V-4.5h1.125V-6.75h1.125V-9h1.125Zm-9,1.125H69.3V-9H68.179ZM69.3-9h1.125v2.25H69.3Zm1.125,2.25h1.125v3.375H70.429ZM64.8-2.25H81.679v1.125H64.8ZM84.6-18Zm2.25,0h1.125v1.125H86.854Zm1.125,1.125H89.1v1.125H87.979Zm4.5,0h3.375V-13.5H94.729v1.125H93.6v1.125H92.479v1.125H91.354V-11.25h1.125v-1.125H93.6V-13.5h1.125v-2.25h-2.25Zm4.5,0H98.1v1.125h1.125v-1.125h1.125v1.125H99.229v2.25h1.125v-1.125h1.125V-13.5h-1.125v2.25H99.229v1.125H93.6V-11.25h5.625v-1.125H98.1v-2.25H96.979ZM84.6-14.625h6.75V-13.5H84.6Zm7.875,0H93.6V-13.5H92.479Zm-6.75,2.25h4.5v1.125h-4.5Zm14.625,1.125h1.125v1.125h-1.125ZM85.729-10.125h4.5V-9h-4.5ZM93.6-9h5.625v5.625H98.1V-2.25h3.375v1.125H91.354V-2.25h3.375V-3.375h1.125V-2.25h1.125V-3.375H98.1V-4.5H94.729v1.125H93.6ZM85.729-7.875h4.5v6.75H89.1V-2.25h-2.25v1.125H85.729Zm9,0v2.25H98.1v-2.25ZM86.854-6.75v3.375H89.1V-6.75ZM104.4-18Zm7.875,0H113.4v3.375h1.125V-15.75h1.125v-1.125h1.125v1.125h-1.125v1.125h4.5V-13.5h-7.875v2.25h9v1.125h-4.5V-9h-1.125v-1.125h-4.5V-9h-1.125v1.125H108.9V-6.75h-2.25v1.125H104.4V-6.75h2.25V-7.875h2.25V-9h1.125v-1.125H104.4V-11.25h6.75V-13.5h-5.625v-1.125h4.5V-15.75h1.125v1.125h1.125ZM108.9-16.875h1.125v1.125H108.9ZM116.779-9H117.9v1.125h-1.125v6.75h-1.125V0h-1.125V-1.125h1.125V-6.75h-3.375V-4.5h-1.125v2.25h-1.125v1.125H108.9V0h-1.125V-1.125H108.9V-2.25h1.125V-4.5h1.125V-6.75h-1.125V-7.875h6.75ZM117.9-7.875h3.375V-6.75h-1.125v1.125h-1.125V-6.75H117.9ZM113.4-2.25h1.125v1.125H113.4ZM124.2-18Zm12.375,0H137.7v1.125h1.125v1.125H133.2v1.125h-4.5V-13.5h10.125v6.75H137.7V-7.875h-9V-4.5h-1.125v2.25h-1.125v1.125h-1.125V0H124.2V-1.125h1.125V-2.25h1.125V-4.5h1.125V-15.75H133.2v-1.125h3.375ZM128.7-12.375V-9h9v-3.375Z" transform="translate(2079 5926)" fill="#2e817f"/>
  </g>
</svg>
