<svg xmlns="http://www.w3.org/2000/svg" width="571.333" height="61.75" viewBox="0 0 571.333 61.75">
  <g id="g7-a1" transform="translate(-3516 -6234)">
    <g id="Path_54344" data-name="Path 54344" transform="translate(3516 6235)" fill="#4e332d">
      <path d="M 553.789306640625 58 L 6.211447238922119 58 L 6.21150016784668 56.52699661254883 L 4.211428642272949 56.52699661254883 L 2.00006890296936 56.52699661254883 L 2.00000262260437 3.472212314605713 L 4.211357116699219 3.472212314605713 L 6.211285591125488 3.472212314605713 L 6.211338520050049 1.999998092651367 L 553.789306640625 1.999998092651367 L 553.789306640625 3.472212314605713 L 555.789306640625 3.472212314605713 L 558 3.472212314605713 L 557.9998779296875 56.52778244018555 L 555.789306640625 56.52778244018555 L 553.789306640625 56.52778244018555 L 553.789306640625 58 Z" stroke="none"/>
      <path d="M 551.789306640625 56 L 551.789306640625 54.52778244018555 L 555.789306640625 54.52778244018555 L 555.9998779296875 54.52778244018555 L 556 5.472212314605713 L 555.789306640625 5.472212314605713 L 551.789306640625 5.472212314605713 L 551.789306640625 3.999998092651367 L 8.211221694946289 3.999998092651367 L 8.211142539978027 5.472212314605713 L 4.211357116699219 5.472212314605713 L 4.00000524520874 5.472212314605713 L 4.00006628036499 54.52699661254883 L 4.211428642272949 54.52699661254883 L 8.211643218994141 54.52699661254883 L 8.211564064025879 56 L 551.789306640625 56 M 555.789306640625 60 L 555.7884521484375 60 L 555.789306640625 60 Z M 555.789306640625 60 L 4.211357116699219 60 L 4.211428642272949 58.52699661254883 L 7.142857066355646e-05 58.52699661254883 L 5.684341886080801e-14 1.472212433815002 L 4.211357116699219 1.472212433815002 L 4.211428642272949 -1.9073486328125e-06 L 555.789306640625 -1.9073486328125e-06 L 555.789306640625 1.472212433815002 L 560 1.472212433815002 L 559.9998779296875 58.52778244018555 L 555.789306640625 58.52778244018555 L 555.789306640625 59.99914169311523 L 555.789306640625 60 Z" stroke="none" fill="#232323"/>
    </g>
    <path id="Path_54345" data-name="Path 54345" d="M2,0H.29l4.2-13.641h1.8L10.521,0H8.648L7.717-3h-4.8ZM3.34-4.359H7.321L5.678-9.536l-.387-1.371L4.948-9.536ZM18,.413a1.379,1.379,0,0,1-1.011-.422,1.379,1.379,0,0,1-.422-1.011,1.368,1.368,0,0,1,.426-1.015A1.391,1.391,0,0,1,18-2.452,1.391,1.391,0,0,1,19-2.035a1.368,1.368,0,0,1,.426,1.015,1.379,1.379,0,0,1-.422,1.011A1.379,1.379,0,0,1,18,.413ZM28-18Zm3.375,0H32.5v4.5h2.25v1.125H32.5v2.25h1.125V-9H32.5v7.875H31.375V0H30.25V-1.125h1.125v-6.75H30.25V-6.75H28V-7.875h2.25V-9h1.125v-3.375H28V-13.5h3.375Zm4.5,1.125H41.5v5.625H40.375v-4.5H37v4.5H35.875v1.125H34.75V-11.25h1.125ZM41.5-11.25h2.25v1.125H41.5ZM34.75-9h7.875v2.25H41.5v1.125H40.375V-4.5H39.25v1.125H38.125V-2.25H37v1.125H34.75V0H32.5V-1.125h2.25V-2.25H37V-3.375h1.125V-4.5H39.25V-5.625h1.125V-6.75H41.5V-7.875H37v2.25H35.875v-2.25H34.75ZM37-5.625h1.125V-4.5H37Zm2.25,2.25H41.5V-2.25H39.25ZM29.125-2.25H30.25v1.125H29.125Zm12.375,0h3.375v1.125H43.75V0H42.625V-1.125H41.5ZM47.8-18Zm1.125,0H50.05v1.125H48.925Zm6.75,0H56.8v1.125h6.75v2.25H62.425V-13.5H61.3v-1.125h1.125V-15.75H59.05v2.25H57.925v1.125H56.8v1.125H55.675v1.125H61.3V-11.25h3.375v1.125H63.55V-9H62.425v-1.125H61.3V-2.25H60.175v1.125H59.05V-2.25H53.425v1.125H52.3V0H51.175V-1.125H52.3V-2.25H51.175V-9H50.05v-2.25H47.8v-1.125h2.25V-13.5h1.125v-1.125H52.3V-15.75h1.125v1.125H52.3V-13.5H51.175v3.375h2.25V-11.25h2.25v-1.125H56.8V-13.5h1.125v-2.25h-2.25v1.125H54.55V-13.5H53.425v-1.125H54.55V-15.75h1.125ZM50.05-16.875h1.125v2.25H50.05Zm9,3.375h1.125v1.125H59.05Zm1.125,1.125H61.3v1.125H60.175ZM52.3-9v1.125h7.875V-9Zm0,2.25v1.125h7.875V-6.75Zm0,2.25v1.125h7.875V-4.5Zm7.875,3.375H61.3V0H60.175ZM67.6-18Zm3.375,0H72.1v4.5h2.25v-1.125H76.6V-15.75H74.35v-1.125H76.6V-18h1.125v1.125H81.1V-18h1.125v1.125h2.25v1.125h-2.25v1.125h2.25v3.375h-4.5v1.125H78.85V-11.25h1.125v-3.375H81.1V-15.75H77.725v1.125H78.85v3.375H77.725v1.125H76.6V-9h3.375v-1.125H81.1V-9h3.375v1.125h-4.5V-6.75H83.35v1.125H79.975V-4.5H83.35v1.125H79.975V-2.25h4.5v1.125H76.6V0H75.475V-7.875H74.35V-6.75H73.225V-7.875H74.35V-9h1.125v-1.125H76.6V-11.25H74.35v-1.125H72.1v1.125h1.125v1.125H72.1V0H70.975V-9H69.85v2.25H68.725v1.125H67.6V-6.75h1.125V-9H69.85v-2.25h1.125v-1.125H67.6V-13.5h3.375Zm4.5,4.5v1.125h2.25V-13.5Zm5.625,0v1.125h2.25V-13.5Zm-7.875,3.375H74.35V-9H73.225ZM76.6-7.875V-6.75h2.25V-7.875Zm0,2.25V-4.5h2.25V-5.625Zm0,2.25V-2.25h2.25V-3.375ZM87.4-18Zm2.25,0h1.125v1.125H89.65Zm1.125,1.125H91.9v1.125H90.775Zm4.5,0H98.65V-13.5H97.525v1.125H96.4v1.125H95.275v1.125H94.15V-11.25h1.125v-1.125H96.4V-13.5h1.125v-2.25h-2.25Zm4.5,0H100.9v1.125h1.125v-1.125h1.125v1.125h-1.125v2.25h1.125v-1.125h1.125V-13.5H103.15v2.25h-1.125v1.125H96.4V-11.25h5.625v-1.125H100.9v-2.25H99.775ZM87.4-14.625h6.75V-13.5H87.4Zm7.875,0H96.4V-13.5H95.275Zm-6.75,2.25h4.5v1.125h-4.5ZM103.15-11.25h1.125v1.125H103.15ZM88.525-10.125h4.5V-9h-4.5ZM96.4-9h5.625v5.625H100.9V-2.25h3.375v1.125H94.15V-2.25h3.375V-3.375H98.65V-2.25h1.125V-3.375H100.9V-4.5H97.525v1.125H96.4ZM88.525-7.875h4.5v6.75H91.9V-2.25H89.65v1.125H88.525Zm9,0v2.25H100.9v-2.25ZM89.65-6.75v3.375H91.9V-6.75ZM107.2-18Zm3.375,0H111.7v2.25h-1.125v1.125h4.5v3.375H116.2V-13.5h1.125V-18h1.125v3.375h4.5V-2.25h-1.125v1.125H120.7V0h-1.125V-1.125H120.7V-2.25h1.125V-13.5h-4.5v2.25H116.2v1.125h-1.125v9H113.95V-2.25h-4.5v1.125h-1.125v-13.5h1.125V-15.75h1.125Zm-1.125,4.5V-9h4.5v-4.5Zm7.875,3.375h1.125V-9h-1.125ZM118.45-9h1.125v2.25H118.45Zm-9,1.125v4.5h4.5v-4.5Zm9,5.625h1.125v1.125H118.45ZM127-18Zm6.75,0h1.125v1.125H133.75Zm1.125,1.125H136v2.25h7.875V-13.5h-4.5v1.125H138.25V-13.5h-5.625v2.25H131.5v1.125h-1.125V-9H129.25v1.125h-1.125V-9h1.125v-1.125h1.125V-11.25H131.5V-13.5H127v-1.125h7.875Zm4.5,4.5H140.5v1.125h-1.125ZM140.5-11.25h2.25V-9h-1.125v-1.125H140.5Zm-9,1.125h1.125V-9H131.5Zm6.75,0h1.125V-9H138.25v1.125h-1.125V-6.75H136v1.125h-1.125V-4.5H133.75v1.125h-1.125V-2.25H131.5v1.125h-2.25V0H127V-1.125h2.25V-2.25h2.25V-3.375h1.125V-4.5h1.125V-5.625h1.125V-6.75H136V-7.875h1.125V-9h1.125ZM132.625-9h1.125v1.125h-1.125Zm1.125,1.125h1.125V-6.75H133.75ZM136-5.625h1.125V-4.5H136ZM137.125-4.5h1.125v1.125h-1.125Zm1.125,1.125h2.25V-2.25h-2.25ZM140.5-2.25h3.375v1.125H142.75V0h-1.125V-1.125H140.5ZM146.8-18Zm4.5,0h9v7.875h-6.75V-9h-1.125v1.125H162.55V-2.25h-1.125v1.125H160.3V0h-1.125V-1.125H160.3V-2.25h1.125v-4.5H158.05V-4.5h-1.125v2.25H155.8v1.125h-1.125V0H153.55V-1.125h1.125V-2.25H155.8V-4.5h1.125V-6.75h-2.25V-4.5H153.55v1.125h-1.125V-2.25H151.3v1.125h-1.125V-2.25H151.3V-3.375h1.125V-4.5h1.125V-6.75h-3.375v1.125H149.05V-4.5h-1.125V-5.625h1.125V-6.75h1.125V-7.875H151.3V-9h1.125v-1.125H151.3Zm1.125,1.125v2.25h6.75v-2.25Zm0,3.375v2.25h6.75V-13.5ZM158.05-2.25h1.125v1.125H158.05ZM166.6-18Zm9,0h1.125v3.375H180.1v-2.25h1.125v2.25h2.25V-13.5h-6.75v3.375H175.6V-13.5h-5.625v3.375h4.5V-4.5H173.35v1.125h-1.125V-4.5h1.125V-9h-3.375v5.625H168.85V-2.25h-1.125v1.125H166.6V-2.25h1.125V-3.375h1.125v-11.25h6.75Zm3.375,0H180.1v1.125h-1.125Zm2.25,6.75h1.125V-9h-1.125v2.25H180.1v1.125h-1.125v2.25h-2.25V-2.25H175.6v1.125h-1.125V0H173.35V-1.125h1.125V-2.25H175.6V-3.375h1.125V-4.5h1.125V-6.75h2.25V-9h1.125Zm-4.5,1.125h1.125V-6.75h-1.125Zm-5.625,4.5h1.125V-4.5H171.1ZM182.35-4.5h1.125V0h-2.25V-1.125h1.125Zm-3.375,1.125H180.1V-2.25h-1.125ZM180.1-2.25h1.125v1.125H180.1ZM186.4-18Zm7.875,0H195.4v4.5h6.75v1.125h-5.625v1.125H195.4v5.625h3.375V-6.75H199.9v1.125h-1.125V-4.5H195.4V0h-1.125V-4.5H190.9V-5.625h3.375V-11.25H193.15V-9h-1.125v2.25H190.9v1.125h-1.125V-4.5H188.65v1.125H186.4V-4.5h2.25V-5.625h1.125V-6.75H190.9V-9h1.125v-2.25h1.125v-1.125h-5.625V-13.5h6.75Zm2.25,6.75h1.125V-9h-1.125ZM197.65-9h1.125v2.25H197.65Zm2.25,3.375h3.375V-4.5H202.15v1.125h-1.125V-4.5H199.9ZM206.2-18Zm3.375,0H210.7v3.375h2.25V-13.5H210.7v1.125h2.25v2.25h1.125V-11.25H215.2v-1.125h1.125v1.125H215.2v1.125h-1.125V-9H212.95v2.25H210.7v1.125h3.375V-4.5H210.7V0h-1.125V-4.5H206.2V-5.625h3.375V-6.75h-2.25v-5.625h2.25V-13.5H206.2v-1.125h3.375Zm6.75,0h1.125v1.125h-1.125Zm1.125,1.125h1.125v2.25h4.5V-13.5h-9v-1.125h3.375Zm2.25,4.5h1.125v1.125H219.7ZM208.45-11.25v1.125h1.125V-11.25Zm2.25,0v1.125h1.125V-11.25Zm10.125,0h1.125v1.125h-1.125Zm1.125,1.125h1.125V-9H221.95ZM208.45-9v1.125h1.125V-9Zm2.25,0v1.125h1.125V-9Zm4.5,0h1.125v2.25H215.2Zm4.5,0h1.125v2.25H219.7V-4.5h-1.125v1.125H217.45V-2.25h-1.125v1.125h-2.25V0h-2.25V-1.125h2.25V-2.25h2.25V-3.375h1.125V-4.5h1.125V-6.75H219.7Zm-3.375,2.25h1.125V-4.5h-1.125Zm2.25,3.375H219.7V-2.25h-1.125ZM219.7-2.25h3.375v1.125H221.95V0h-1.125V-1.125H219.7ZM226-18Zm2.25,1.125h4.5v5.625h1.125v-1.125H235v-4.5h5.625v4.5H239.5V-15.75h-3.375v3.375H235v1.125h-1.125v1.125H232.75v9h-1.125V0H230.5V-1.125h1.125V-6.75h-2.25v3.375H228.25v2.25h-1.125V0H226V-1.125h1.125v-2.25h1.125Zm1.125,1.125v3.375h2.25V-15.75Zm11.25,3.375h2.25v1.125h-2.25Zm-11.25,1.125v3.375h2.25V-11.25Zm4.5,1.125h7.875v2.25h-1.125v2.25H239.5V-4.5h-1.125v1.125H237.25V-2.25h-1.125v1.125H235V0h-2.25V-1.125H235V-2.25h1.125V-3.375h1.125V-4.5h1.125V-5.625H239.5v-2.25h1.125V-9h-4.5v2.25H235V-9h-1.125Zm2.25,3.375h1.125V-4.5h-1.125Zm2.25,3.375H239.5V-2.25h-1.125Zm-9,1.125H230.5v1.125h-1.125Zm10.125,0h3.375v1.125H241.75V0h-1.125V-1.125H239.5ZM245.8-18Zm1.125,1.125H261.55v1.125h-4.5v1.125h3.375v4.5H248.05v-4.5h3.375V-15.75h-4.5Zm5.625,1.125v1.125h3.375V-15.75Zm-3.375,2.25v2.25h2.25V-13.5Zm3.375,0v2.25h3.375V-13.5Zm4.5,0v2.25h2.25V-13.5ZM249.175-9H259.3v1.125H249.175ZM245.8-6.75h16.875v1.125H254.8v4.5h-1.125V0H252.55V-1.125h1.125v-4.5H245.8Zm3.375,2.25H250.3v1.125h-1.125V-2.25H248.05v1.125h-1.125V-2.25h1.125V-3.375h1.125Zm9,0H259.3v1.125h-1.125ZM259.3-3.375h1.125v2.25H259.3ZM251.425-2.25h1.125v1.125h-1.125ZM265.6-18Zm6.75,0h1.125v1.125H272.35Zm1.125,1.125H274.6v1.125h7.875v1.125H265.6V-15.75h7.875ZM270.1-13.5h7.875V-9H270.1Zm1.125,1.125v2.25h5.625v-2.25Zm-4.5,4.5H281.35V0H279.1V-1.125h1.125V-6.75H267.85V0h-1.125Zm3.375,2.25h7.875v4.5H270.1ZM271.225-4.5v2.25h5.625V-4.5Z" transform="translate(3534 6274)" fill="#fff"/>
    <g id="Group_41404" data-name="Group 41404" transform="translate(3621 6299.75) rotate(-90)">
      <rect id="Rectangle_33782" data-name="Rectangle 33782" width="3.431" height="6.861" transform="translate(52.028 459.472)" fill="#f77622"/>
      <rect id="Rectangle_33783" data-name="Rectangle 33783" width="3.431" height="10.292" transform="translate(10.861 456.042)" fill="#f77622"/>
      <rect id="Rectangle_33784" data-name="Rectangle 33784" width="3.431" height="3.431" transform="translate(55.458 456.042)" fill="#f77622"/>
      <rect id="Rectangle_33785" data-name="Rectangle 33785" width="3.431" height="3.431" transform="translate(58.889 452.611)" fill="#f77622"/>
      <rect id="Rectangle_33786" data-name="Rectangle 33786" width="3.431" height="3.431" transform="translate(7.431 452.611)" fill="#f77622"/>
      <rect id="Rectangle_33787" data-name="Rectangle 33787" width="3.431" height="6.861" transform="translate(24.583 421.736)" fill="#f77622"/>
      <rect id="Rectangle_33788" data-name="Rectangle 33788" width="3.431" height="3.431" transform="translate(14.292 425.167)" fill="#f77622"/>
      <rect id="Rectangle_33789" data-name="Rectangle 33789" width="3.431" height="6.861" transform="translate(38.306 418.306)" fill="#f77622"/>
      <rect id="Rectangle_33790" data-name="Rectangle 33790" width="3.431" height="6.861" transform="translate(52.028 414.875)" fill="#f77622"/>
      <path id="Path_53385" data-name="Path 53385" d="M30.722,387.43H27.292V384H17v3.43h3.431v3.431h6.861v3.431H20.431v3.43h6.861v6.861H20.431v3.43h6.861v13.722h3.431v30.875h3.431V418.305H30.722Z" transform="translate(31.597)" fill="#f77622"/>
      <rect id="Rectangle_33791" data-name="Rectangle 33791" width="3.431" height="37.736" transform="translate(4 414.875)" fill="#f77622"/>
      <path id="Path_53386" data-name="Path 53386" d="M5,392v3.431H15.292v6.861h3.431V392Z" transform="translate(2.431 19.445)" fill="#f77622"/>
      <path id="Path_53387" data-name="Path 53387" d="M9,391v3.431H19.292v6.861h3.431V391Z" transform="translate(12.153 17.014)" fill="#f77622"/>
      <path id="Path_53388" data-name="Path 53388" d="M23.292,402.153H13v3.43H23.292v6.861h3.431V385H23.292Z" transform="translate(21.875 2.431)" fill="#f77622"/>
      <path id="Path_53389" data-name="Path 53389" d="M49.6,463.9v-6.861h3.431v-3.43h3.431V450.18h3.431V419.305H56.458V405.583H49.6v-3.43h6.861v-6.861H49.6v-3.43h6.861V388.43H49.6V385H46.167v27.445H42.736v-6.861H32.444v10.292H29.014v-6.861H18.722v10.292H15.292v-6.861H5V450.18H8.431v3.431h3.431V463.9Zm3.431-51.458v6.861H49.6v-6.861Zm-13.722,3.43v6.861H35.875v-6.861Zm-13.722,3.431v6.861H22.153v-6.861Zm-10.292,6.861H11.861v-3.43h3.431Z" transform="translate(2.431 2.431)" fill="#feae34"/>
    </g>
  </g>
</svg>
