<svg xmlns="http://www.w3.org/2000/svg" width="560" height="60" viewBox="0 0 560 60">
  <g id="g7-b" transform="translate(-3516 -5987)">
    <g id="Path_54340" data-name="Path 54340" transform="translate(3516 5987)" fill="#fff">
      <path d="M 553.7891235351562 58 L 6.210928440093994 58 L 6.210928440093994 56.52785873413086 L 4.210928440093994 56.52785873413086 L 2 56.52785873413086 L 2 3.472357034683228 L 4.210928440093994 3.472357034683228 L 6.210928440093994 3.472357034683228 L 6.210928440093994 2 L 553.7891235351562 2 L 553.7891235351562 3.472357034683228 L 555.7891235351562 3.472357034683228 L 558 3.472357034683228 L 557.9999389648438 56.52785873413086 L 555.7891235351562 56.52785873413086 L 553.7891235351562 56.52785873413086 L 553.7891235351562 58 Z" stroke="none"/>
      <path d="M 551.7891235351562 56 L 551.7891235351562 54.52785873413086 L 555.7891235351562 54.52785873413086 L 555.9999389648438 54.52785873413086 L 556 5.472357273101807 L 555.7891235351562 5.472357273101807 L 551.7891235351562 5.472357273101807 L 551.7891235351562 4 L 8.210928916931152 4 L 8.210928916931152 5.472357273101807 L 4.210928440093994 5.472357273101807 L 4 5.472357273101807 L 4 54.52785873413086 L 4.210928440093994 54.52785873413086 L 8.210928916931152 54.52785873413086 L 8.210928916931152 56 L 551.7891235351562 56 M 555.7891235351562 60 L 4.210928440093994 60 L 4.210928440093994 58.52785873413086 L 5.684341886080801e-14 58.52785873413086 L 5.684341886080801e-14 1.472357153892517 L 4.210928440093994 1.472357153892517 L 4.210928440093994 3.552713678800501e-15 L 555.7891235351562 3.552713678800501e-15 L 555.7891235351562 1.472357153892517 L 560 1.472357153892517 L 559.9999389648438 58.52785873413086 L 555.7891235351562 58.52785873413086 L 555.7891235351562 59.9995002746582 L 555.7891235351562 60 Z" stroke="none" fill="#232323"/>
    </g>
    <path id="Path_54341" data-name="Path 54341" d="M1.512,0V-13.641H4.175a9.185,9.185,0,0,1,3.212.365A2.553,2.553,0,0,1,8.6-12.2a3.234,3.234,0,0,1,.4,1.626,3.932,3.932,0,0,1-.237,1.367,3.724,3.724,0,0,1-.7,1.178A4.779,4.779,0,0,1,6.715-7.022a4.355,4.355,0,0,1,2.2,1.6,3.635,3.635,0,0,1,.576,1.9A3.5,3.5,0,0,1,9-1.767,3.291,3.291,0,0,1,7.638-.457,6.438,6.438,0,0,1,4.825,0ZM3.287-7.5H5.15a4.143,4.143,0,0,0,1.323-.8A2.773,2.773,0,0,0,7.1-9.224,3,3,0,0,0,7.3-10.354a1.773,1.773,0,0,0-.567-1.441,3.633,3.633,0,0,0-2.21-.475H3.287Zm0,6.135H4.966a2.857,2.857,0,0,0,2.079-.664,2.161,2.161,0,0,0,.672-1.6,2.29,2.29,0,0,0-.369-1.261A2.492,2.492,0,0,0,6.205-5.8a6.444,6.444,0,0,0-2.426-.338H3.287ZM18,.413a1.379,1.379,0,0,1-1.011-.422,1.379,1.379,0,0,1-.422-1.011,1.368,1.368,0,0,1,.426-1.015A1.391,1.391,0,0,1,18-2.452,1.391,1.391,0,0,1,19-2.035a1.368,1.368,0,0,1,.426,1.015,1.379,1.379,0,0,1-.422,1.011A1.379,1.379,0,0,1,18,.413ZM28-18Zm3.375,0H32.5v4.5h2.25v1.125H32.5v2.25h1.125V-9H32.5V0H31.375V-9H30.25v2.25H29.125v1.125H28V-6.75h1.125V-9H30.25v-2.25h1.125v-1.125H28V-13.5h3.375Zm4.5,1.125H43.75v1.125H40.375v2.25h4.5v1.125h-9V-13.5H39.25v-2.25H35.875Zm0,5.625H43.75v7.875H41.5V-2.25H40.375V-3.375H39.25V-2.25H38.125v1.125H37V0H35.875V-1.125H37V-2.25h1.125V-3.375h-2.25ZM37-10.125V-9h5.625v-1.125ZM33.625-9H34.75v2.25H33.625ZM37-7.875V-6.75h5.625V-7.875Zm0,2.25V-4.5h5.625V-5.625ZM41.5-2.25h1.125v1.125H41.5Zm1.125,1.125H43.75V0H42.625ZM47.8-18Zm4.5,0h1.125v4.5h2.25v-3.375H63.55v5.625H55.675v-1.125h-2.25v2.25H54.55V-9H53.425V0H52.3V-9H51.175v2.25H50.05v1.125H48.925V-4.5H47.8V-5.625h1.125V-6.75H50.05V-9h1.125v-2.25H52.3v-1.125H48.925V-13.5H52.3Zm4.5,2.25v1.125h5.625V-15.75Zm0,2.25v1.125h5.625V-13.5Zm-1.125,3.375H63.55V-9H60.175v2.25h4.5v1.125h-4.5V0H59.05V-5.625h-4.5V-6.75h4.5V-9H55.675v1.125H54.55V-9h1.125ZM67.6-18Zm3.375,0H72.1v1.125H70.975Zm7.875,0h1.125v4.5h4.5v1.125H83.35V-9H82.225v3.375H81.1V-4.5H79.975v2.25H78.85v1.125H77.725V0h-2.25V-1.125h2.25V-2.25H78.85V-4.5h1.125V-5.625H81.1V-9h1.125v-3.375h-4.5v1.125H76.6v1.125H75.475V-11.25H76.6v-1.125h1.125V-13.5H78.85ZM72.1-16.875h1.125v1.125H72.1Zm-4.5,2.25h9V-13.5H74.35v1.125H73.225V-13.5h-2.25v2.25H69.85v1.125H68.725V-9H67.6v-1.125h1.125V-11.25H69.85V-13.5H67.6Zm6.75,2.25h1.125v1.125H74.35Zm3.375,1.125H78.85v3.375H77.725ZM69.85-10.125h1.125V-9H69.85Zm3.375,0H74.35v2.25H73.225V-6.75H72.1V-4.5H70.975v1.125H69.85V-2.25H68.725v1.125H67.6V-2.25h1.125V-3.375H69.85V-4.5h1.125V-6.75H72.1V-7.875h1.125ZM70.975-9H72.1v1.125H70.975ZM78.85-7.875h1.125v2.25H78.85ZM73.225-6.75H74.35V-4.5H73.225ZM74.35-4.5h1.125v2.25H74.35Zm6.75,0h1.125v2.25H81.1Zm1.125,2.25h2.25v1.125H83.35V0H82.225ZM87.4-18Zm3.375,1.125H100.9v9H99.775V-9H96.4v2.25h7.875v1.125H98.65V-4.5H97.525V-5.625H96.4V0H95.275V-5.625H94.15V-4.5H93.025v1.125H91.9V-2.25H89.65v1.125H87.4V-2.25h2.25V-3.375H91.9V-4.5h1.125V-5.625H87.4V-6.75h7.875V-9H91.9v1.125H90.775ZM91.9-15.75v2.25h3.375v-2.25Zm4.5,0v2.25h3.375v-2.25Zm-4.5,3.375v2.25h3.375v-2.25Zm4.5,0v2.25h3.375v-2.25ZM98.65-4.5h2.25v1.125H98.65Zm2.25,1.125h3.375V-2.25H103.15v1.125h-1.125V-2.25H100.9ZM107.2-18Zm4.5,0h1.125v3.375H111.7v3.375h5.625V-13.5h-4.5v-1.125h4.5V-18h1.125v3.375h4.5V-13.5h-4.5v2.25h5.625v1.125H111.7V-2.25h5.625V-5.625h-4.5V-6.75h4.5V-9h1.125v2.25h4.5v1.125h-4.5V-2.25h5.625v1.125H111.7V0h-1.125V-11.25H109.45v1.125h-1.125V-9H107.2v-1.125h1.125V-11.25h1.125v-1.125h1.125v-2.25H111.7ZM127-18Zm4.5,1.125h7.875V-2.25h4.5v1.125H127V-2.25h4.5Zm1.125,1.125v3.375h5.625V-15.75Zm0,4.5v3.375h5.625V-11.25Zm0,4.5v4.5h5.625v-4.5ZM146.8-18Zm3.375,0H151.3v4.5h2.25v1.125H151.3v2.25h1.125V-11.25H162.55v7.875H160.3V-2.25h-1.125V-3.375h-2.25V-2.25H155.8v1.125h-1.125V0H153.55V-1.125h1.125V-2.25H155.8V-3.375h-2.25v-6.75h-1.125V-9H151.3v7.875h-1.125V0H149.05V-1.125h1.125v-6.75H149.05V-6.75H146.8V-7.875h2.25V-9h1.125v-3.375H146.8V-13.5h3.375Zm4.5,1.125h6.75v4.5h-6.75ZM155.8-15.75v2.25h4.5v-2.25Zm-1.125,5.625V-9h6.75v-1.125Zm0,2.25V-6.75h6.75V-7.875Zm0,2.25V-4.5h6.75V-5.625Zm-6.75,3.375h1.125v1.125h-1.125Zm12.375,0h1.125v1.125H160.3Zm1.125,1.125h1.125V0h-1.125ZM166.6-18Zm7.875,0H175.6v4.5h5.625v1.125H175.6V-9h7.875v1.125H175.6V-6.75h-1.125V-4.5H173.35v1.125h-1.125V-2.25H171.1v1.125h-2.25V0H166.6V-1.125h2.25V-2.25h2.25V-3.375h1.125V-4.5h1.125V-6.75h1.125V-7.875H166.6V-9h7.875v-3.375h-4.5v1.125H168.85v1.125h-1.125V-11.25h1.125v-1.125h1.125v-4.5H171.1V-13.5h3.375ZM175.6-6.75h1.125v1.125H175.6Zm1.125,1.125h1.125V-4.5h-1.125ZM177.85-4.5h1.125v1.125H177.85Zm1.125,1.125H180.1V-2.25h-1.125ZM180.1-2.25h3.375v1.125H182.35V0h-1.125V-1.125H180.1ZM186.4-18Zm6.75,0h1.125v2.25h9v1.125H193.15v2.25h6.75v11.25h-1.125V0H197.65V-1.125h1.125V-4.5h-6.75V0H190.9V-9h-1.125v1.125H188.65V-6.75h-1.125v1.125H186.4V-6.75h1.125V-7.875h1.125V-9h1.125v-1.125H190.9v-2.25h1.125v-2.25H186.4V-15.75h6.75Zm-1.125,6.75V-9h6.75v-2.25Zm0,3.375v2.25h6.75v-2.25Zm4.5,5.625h1.125v1.125h-1.125ZM206.2-18Zm1.125,1.125h5.625v2.25h-1.125v2.25H210.7v1.125h-1.125v-1.125H210.7v-2.25h1.125V-15.75H208.45V-5.625h1.125V-4.5H208.45V0h-1.125Zm6.75,0h6.75V-9h-2.25v2.25H217.45V-9H215.2v6.75h1.125V-3.375h1.125V-2.25h-1.125v1.125H215.2V0h-1.125ZM215.2-15.75v2.25h4.5v-2.25Zm0,3.375v2.25h4.5v-2.25Zm-4.5,1.125h1.125V-9H210.7ZM211.825-9h1.125v3.375h-1.125V-4.5H210.7v1.125h-1.125V-4.5H210.7V-5.625h1.125ZM221.95-9h1.125v1.125H221.95V-6.75h-1.125v1.125H219.7V-4.5h-1.125V-6.75h2.25V-7.875h1.125ZM219.7-4.5h1.125v1.125H219.7Zm1.125,1.125h2.25V-2.25H221.95v1.125h-1.125Z" transform="translate(3534 6026)" fill="#15172a"/>
  </g>
</svg>
