<svg xmlns="http://www.w3.org/2000/svg" width="714.789" height="272.112" viewBox="0 0 714.789 272.112">
  <g id="g7-img" transform="translate(-213 -419)">
    <g id="Exclusion_16" data-name="Exclusion 16" transform="translate(213 419.001)" fill="#232323">
      <path d="M 646 119.9983978271484 L 6.872583389282227 119.9983978271484 L 6.872583389282227 119.0042266845703 L 6.872583389282227 117.0042266845703 L 4.872583389282227 117.0042266845703 L 2 117.0042266845703 L 2 4.993895053863525 L 4.872583389282227 4.993895053863525 L 6.872583389282227 4.993895053863525 L 6.872583389282227 2.993894815444946 L 6.872583389282227 2.000311613082886 L 641.99951171875 2.000311613082886 L 641.99951171875 2.740394830703735 L 641.99951171875 4.740395069122314 L 643.99951171875 4.740395069122314 L 646 4.740395069122314 L 646 119.9983978271484 Z" stroke="none"/>
      <path d="M 644 117.9983978271484 L 644 6.740395069122314 L 643.99951171875 6.740395069122314 L 639.99951171875 6.740395069122314 L 639.99951171875 4.000311374664307 L 8.872583389282227 4.000311374664307 L 8.872583389282227 6.993895053863525 L 4.872583389282227 6.993895053863525 L 4 6.993895053863525 L 4 115.0042266845703 L 4.872583389282227 115.0042266845703 L 8.872583389282227 115.0042266845703 L 8.872583389282227 117.9983978271484 L 644 117.9983978271484 M 648 121.9990615844727 L 648 121.9983978271484 L 4.872583389282227 121.9983978271484 L 4.872583389282227 119.0042266845703 L 5.684341886080801e-14 119.0042266845703 L 5.684341886080801e-14 2.993894815444946 L 4.872583389282227 2.993894815444946 L 4.872583389282227 0.0003115844738204032 L 643.99951171875 0.0003115844738204032 L 643.99951171875 2.740394830703735 L 648 2.740394830703735 L 648 121.9983978271484 L 648 121.9990615844727 Z M 648 0.0009782511042430997 L 643.99951171875 0.0003115844738204032 L 648 -0.00093841552734375 L 648 -0.0002717488678172231 L 648 0.0009782511042430997 Z" stroke="none" fill="#fff"/>
    </g>
    <path id="Path_54297" data-name="Path 54297" d="M0-18Zm3.375,0H4.5v4.5H6.75v-1.125H9V-15.75H6.75v-1.125H9V-18h1.125v1.125H13.5V-18h1.125v1.125h2.25v1.125h-2.25v1.125h2.25v3.375h-4.5v1.125H11.25V-11.25h1.125v-3.375H13.5V-15.75H10.125v1.125H11.25v3.375H10.125v1.125H9V-9h3.375v-1.125H13.5V-9h3.375v1.125h-4.5V-6.75H15.75v1.125H12.375V-4.5H15.75v1.125H12.375V-2.25h4.5v1.125H9V0H7.875V-7.875H6.75V-6.75H5.625V-7.875H6.75V-9H7.875v-1.125H9V-11.25H6.75v-1.125H4.5v1.125H5.625v1.125H4.5V0H3.375V-9H2.25v2.25H1.125v1.125H0V-6.75H1.125V-9H2.25v-2.25H3.375v-1.125H0V-13.5H3.375Zm4.5,4.5v1.125h2.25V-13.5Zm5.625,0v1.125h2.25V-13.5ZM5.625-10.125H6.75V-9H5.625ZM9-7.875V-6.75h2.25V-7.875Zm0,2.25V-4.5h2.25V-5.625Zm0,2.25V-2.25h2.25V-3.375ZM19.8-18Zm2.25,0h1.125v1.125H22.05Zm1.125,1.125H24.3v1.125H23.175Zm4.5,0H31.05V-13.5H29.925v1.125H28.8v1.125H27.675v1.125H26.55V-11.25h1.125v-1.125H28.8V-13.5h1.125v-2.25h-2.25Zm4.5,0H33.3v1.125h1.125v-1.125H35.55v1.125H34.425v2.25H35.55v-1.125h1.125V-13.5H35.55v2.25H34.425v1.125H28.8V-11.25h5.625v-1.125H33.3v-2.25H32.175ZM19.8-14.625h6.75V-13.5H19.8Zm7.875,0H28.8V-13.5H27.675Zm-6.75,2.25h4.5v1.125h-4.5ZM35.55-11.25h1.125v1.125H35.55ZM20.925-10.125h4.5V-9h-4.5ZM28.8-9h5.625v5.625H33.3V-2.25h3.375v1.125H26.55V-2.25h3.375V-3.375H31.05V-2.25h1.125V-3.375H33.3V-4.5H29.925v1.125H28.8ZM20.925-7.875h4.5v6.75H24.3V-2.25H22.05v1.125H20.925Zm9,0v2.25H33.3v-2.25ZM22.05-6.75v3.375H24.3V-6.75ZM39.6-18Zm3.375,0H44.1v2.25H42.975v1.125h4.5v3.375H48.6V-13.5h1.125V-18H50.85v3.375h4.5V-2.25H54.225v1.125H53.1V0H51.975V-1.125H53.1V-2.25h1.125V-13.5h-4.5v2.25H48.6v1.125H47.475v9H46.35V-2.25h-4.5v1.125H40.725v-13.5H41.85V-15.75h1.125ZM41.85-13.5V-9h4.5v-4.5Zm7.875,3.375H50.85V-9H49.725ZM50.85-9h1.125v2.25H50.85Zm-9,1.125v4.5h4.5v-4.5Zm9,5.625h1.125v1.125H50.85ZM59.4-18Zm6.75,0h1.125v1.125H66.15Zm1.125,1.125H68.4v2.25h7.875V-13.5h-4.5v1.125H70.65V-13.5H65.025v2.25H63.9v1.125H62.775V-9H61.65v1.125H60.525V-9H61.65v-1.125h1.125V-11.25H63.9V-13.5H59.4v-1.125h7.875Zm4.5,4.5H72.9v1.125H71.775ZM72.9-11.25h2.25V-9H74.025v-1.125H72.9Zm-9,1.125h1.125V-9H63.9Zm6.75,0h1.125V-9H70.65v1.125H69.525V-6.75H68.4v1.125H67.275V-4.5H66.15v1.125H65.025V-2.25H63.9v1.125H61.65V0H59.4V-1.125h2.25V-2.25H63.9V-3.375h1.125V-4.5H66.15V-5.625h1.125V-6.75H68.4V-7.875h1.125V-9H70.65ZM65.025-9H66.15v1.125H65.025ZM66.15-7.875h1.125V-6.75H66.15Zm2.25,2.25h1.125V-4.5H68.4ZM69.525-4.5H70.65v1.125H69.525ZM70.65-3.375H72.9V-2.25H70.65ZM72.9-2.25h3.375v1.125H75.15V0H74.025V-1.125H72.9ZM79.2-18Zm4.5,0h9v7.875H85.95V-9H84.825v1.125H94.95V-2.25H93.825v1.125H92.7V0H91.575V-1.125H92.7V-2.25h1.125v-4.5H90.45V-4.5H89.325v2.25H88.2v1.125H87.075V0H85.95V-1.125h1.125V-2.25H88.2V-4.5h1.125V-6.75h-2.25V-4.5H85.95v1.125H84.825V-2.25H83.7v1.125H82.575V-2.25H83.7V-3.375h1.125V-4.5H85.95V-6.75H82.575v1.125H81.45V-4.5H80.325V-5.625H81.45V-6.75h1.125V-7.875H83.7V-9h1.125v-1.125H83.7Zm1.125,1.125v2.25h6.75v-2.25Zm0,3.375v2.25h6.75V-13.5ZM90.45-2.25h1.125v1.125H90.45ZM99-18Zm4.5,0h1.125v1.125h1.125v1.125H103.5v3.375h2.25V-13.5h1.125v-1.125H108v-2.25h1.125v2.25H108V-13.5h6.75v-1.125h1.125V-13.5H114.75v5.625H112.5V-2.25h-1.125V-7.875H110.25V-4.5h-1.125v2.25H108v1.125h-1.125V0H105.75V-1.125h1.125V-2.25H108V-4.5h1.125V-7.875h-2.25v-4.5H105.75v1.125H103.5V-9h1.125v1.125H103.5V0h-1.125V-7.875H101.25v2.25h-1.125V-4.5H99V-5.625h1.125v-2.25h1.125v-2.25h1.125V-11.25H99v-1.125h3.375v-2.25H99V-15.75h3.375v-1.125H103.5Zm9,1.125h1.125v1.125H112.5Zm1.125,1.125h1.125v1.125h-1.125ZM108-12.375V-9h5.625v-3.375Zm-3.375,4.5h1.125v2.25h-1.125ZM114.75-4.5h1.125v3.375H112.5V-2.25h2.25ZM118.8-18Zm2.25,0h1.125v1.125H121.05Zm4.5,0h1.125v3.375H132.3V-13.5h-1.125v1.125H130.05v1.125h3.375V-9H132.3v1.125h2.25V-2.25h-1.125v1.125H132.3V0h-1.125V-1.125H132.3V-2.25h1.125v-4.5h-2.25v1.125H130.05V-6.75h-7.875V-4.5H121.05v1.125h-1.125V-2.25H118.8V-3.375h1.125V-4.5h1.125V-6.75h1.125V-9H123.3v-2.25h1.125V-13.5h-4.5v-1.125h2.25v-2.25H123.3v2.25h2.25Zm0,4.5v2.25h3.375v-1.125h1.125V-13.5Zm-1.125,3.375V-9H123.3v1.125h7.875V-9H132.3v-1.125Zm-1.125,4.5h1.125v2.25H123.3V-2.25h-1.125V-3.375H123.3Zm2.25,0h1.125V-4.5H125.55Zm2.25,0h1.125V-4.5H127.8v1.125h-1.125V-4.5H127.8Zm3.375,0H132.3v2.25h-1.125ZM128.925-4.5h1.125v1.125h-1.125Zm1.125,2.25h1.125v1.125H130.05ZM138.6-18Zm11.25,0h1.125v1.125H152.1v1.125h-4.5v5.625h7.875V-9H147.6V0h-1.125V-9H138.6v-1.125h7.875v-4.5H140.85V-15.75h6.75v-1.125h2.25Zm8.55,0Zm9,0h1.125v2.25H167.4Zm-3.375,1.125h1.125v2.25h-1.125v2.25H162.9v1.125h-1.125v1.125H160.65V-9h-1.125v1.125H158.4V-9h1.125v-1.125h1.125V-11.25h1.125v-1.125H162.9v-2.25h1.125Zm4.5,1.125h1.125v2.25h-1.125Zm1.125,2.25h1.125v1.125H169.65Zm1.125,1.125H171.9v1.125h-1.125ZM171.9-11.25h1.125v1.125h2.25V-9H174.15v1.125h-1.125V-9H171.9Zm-10.125,1.125h9V-2.25H169.65v1.125h-1.125V0H167.4V-1.125h1.125V-2.25h1.125V-9h-4.5v4.5h-1.125v2.25H162.9v1.125h-1.125V0H160.65V-1.125h1.125V-2.25H162.9V-4.5h1.125V-9h-2.25Zm4.5,7.875H167.4v1.125h-1.125ZM178.2-18Zm6.75,0h1.125v1.125H184.95Zm1.125,1.125H187.2v2.25h-1.125Zm-6.75,3.375h13.5v1.125H191.7v1.125h-1.125v1.125H189.45V-9h-1.125v1.125H187.2V-6.75h-1.125v1.125H184.95V-4.5h-1.125v1.125h-2.25V-2.25H180.45v1.125h-1.125V-2.25h1.125V-3.375h1.125V-4.5h2.25V-5.625h1.125V-6.75h1.125V-7.875H187.2V-9h1.125v-1.125h1.125V-11.25h1.125v-1.125h-11.25Zm4.5,10.125h2.25V-2.25h-2.25Zm2.25,1.125h9v1.125h-9ZM198-18Zm0,7.875h16.875V-9H198Zm28.8-.837a1.031,1.031,0,0,0-.792.324,1.019,1.019,0,0,0-.306.792,1.044,1.044,0,0,0,.306.792,1.086,1.086,0,0,0,.792.306,1.116,1.116,0,0,0,.792-.306,1.059,1.059,0,0,0,.324-.792,1.031,1.031,0,0,0-.324-.792A1.059,1.059,0,0,0,226.8-10.962Zm.018,6.642a1.157,1.157,0,0,0-.864.306,1.033,1.033,0,0,0-.306.81,1.087,1.087,0,0,0,.324.792,1.031,1.031,0,0,0,.756.306,1.031,1.031,0,0,0,.4-.054,2.045,2.045,0,0,1-.4,1.188,2.218,2.218,0,0,1-1.134.792v.9a3.61,3.61,0,0,0,1.854-1.188,3.287,3.287,0,0,0,.7-2.088,2.017,2.017,0,0,0-.36-1.26A1.149,1.149,0,0,0,226.818-4.32ZM237.6-18Zm2.25,1.125h4.5v5.625h1.125v-1.125H246.6v-4.5h5.625v4.5H251.1V-15.75h-3.375v3.375H246.6v1.125h-1.125v1.125H244.35v9h-1.125V0H242.1V-1.125h1.125V-6.75h-2.25v3.375H239.85v2.25h-1.125V0H237.6V-1.125h1.125v-2.25h1.125Zm1.125,1.125v3.375h2.25V-15.75Zm11.25,3.375h2.25v1.125h-2.25Zm-11.25,1.125v3.375h2.25V-11.25Zm4.5,1.125h7.875v2.25h-1.125v2.25H251.1V-4.5h-1.125v1.125H248.85V-2.25h-1.125v1.125H246.6V0h-2.25V-1.125h2.25V-2.25h1.125V-3.375h1.125V-4.5h1.125V-5.625H251.1v-2.25h1.125V-9h-4.5v2.25H246.6V-9h-1.125Zm2.25,3.375h1.125V-4.5h-1.125Zm2.25,3.375H251.1V-2.25h-1.125Zm-9,1.125H242.1v1.125h-1.125Zm10.125,0h3.375v1.125H253.35V0h-1.125V-1.125H251.1ZM257.4-18Zm1.125,1.125H273.15v1.125h-4.5v1.125h3.375v4.5H259.65v-4.5h3.375V-15.75h-4.5Zm5.625,1.125v1.125h3.375V-15.75Zm-3.375,2.25v2.25h2.25V-13.5Zm3.375,0v2.25h3.375V-13.5Zm4.5,0v2.25h2.25V-13.5ZM260.775-9H270.9v1.125H260.775ZM257.4-6.75h16.875v1.125H266.4v4.5h-1.125V0H264.15V-1.125h1.125v-4.5H257.4Zm3.375,2.25H261.9v1.125h-1.125V-2.25H259.65v1.125h-1.125V-2.25h1.125V-3.375h1.125Zm9,0H270.9v1.125h-1.125ZM270.9-3.375h1.125v2.25H270.9ZM263.025-2.25h1.125v1.125h-1.125ZM277.2-18Zm3.375,0H281.7v2.25h-1.125v1.125h4.5v3.375H286.2V-13.5h1.125V-18h1.125v3.375h4.5V-2.25h-1.125v1.125H290.7V0h-1.125V-1.125H290.7V-2.25h1.125V-13.5h-4.5v2.25H286.2v1.125h-1.125v9H283.95V-2.25h-4.5v1.125h-1.125v-13.5h1.125V-15.75h1.125Zm-1.125,4.5V-9h4.5v-4.5Zm7.875,3.375h1.125V-9h-1.125ZM288.45-9h1.125v2.25H288.45Zm-9,1.125v4.5h4.5v-4.5Zm9,5.625h1.125v1.125H288.45ZM297-18Zm6.75,0h1.125v1.125H303.75Zm1.125,1.125H306v2.25h7.875V-13.5h-4.5v1.125H308.25V-13.5h-5.625v2.25H301.5v1.125h-1.125V-9H299.25v1.125h-1.125V-9h1.125v-1.125h1.125V-11.25H301.5V-13.5H297v-1.125h7.875Zm4.5,4.5H310.5v1.125h-1.125ZM310.5-11.25h2.25V-9h-1.125v-1.125H310.5Zm-9,1.125h1.125V-9H301.5Zm6.75,0h1.125V-9H308.25v1.125h-1.125V-6.75H306v1.125h-1.125V-4.5H303.75v1.125h-1.125V-2.25H301.5v1.125h-2.25V0H297V-1.125h2.25V-2.25h2.25V-3.375h1.125V-4.5h1.125V-5.625h1.125V-6.75H306V-7.875h1.125V-9h1.125ZM302.625-9h1.125v1.125h-1.125Zm1.125,1.125h1.125V-6.75H303.75ZM306-5.625h1.125V-4.5H306ZM307.125-4.5h1.125v1.125h-1.125Zm1.125,1.125h2.25V-2.25h-2.25ZM310.5-2.25h3.375v1.125H312.75V0h-1.125V-1.125H310.5ZM316.8-18Zm4.5,0h9v7.875h-6.75V-9h-1.125v1.125H332.55V-2.25h-1.125v1.125H330.3V0h-1.125V-1.125H330.3V-2.25h1.125v-4.5H328.05V-4.5h-1.125v2.25H325.8v1.125h-1.125V0H323.55V-1.125h1.125V-2.25H325.8V-4.5h1.125V-6.75h-2.25V-4.5H323.55v1.125h-1.125V-2.25H321.3v1.125h-1.125V-2.25H321.3V-3.375h1.125V-4.5h1.125V-6.75h-3.375v1.125H319.05V-4.5h-1.125V-5.625h1.125V-6.75h1.125V-7.875H321.3V-9h1.125v-1.125H321.3Zm1.125,1.125v2.25h6.75v-2.25Zm0,3.375v2.25h6.75V-13.5ZM328.05-2.25h1.125v1.125H328.05ZM336.6-18Zm4.5,0h1.125v1.125h1.125v1.125H341.1v3.375h2.25V-13.5h1.125v-1.125H345.6v-2.25h1.125v2.25H345.6V-13.5h6.75v-1.125h1.125V-13.5H352.35v5.625H350.1V-2.25h-1.125V-7.875H347.85V-4.5h-1.125v2.25H345.6v1.125h-1.125V0H343.35V-1.125h1.125V-2.25H345.6V-4.5h1.125V-7.875h-2.25v-4.5H343.35v1.125H341.1V-9h1.125v1.125H341.1V0h-1.125V-7.875H338.85v2.25h-1.125V-4.5H336.6V-5.625h1.125v-2.25h1.125v-2.25h1.125V-11.25H336.6v-1.125h3.375v-2.25H336.6V-15.75h3.375v-1.125H341.1Zm9,1.125h1.125v1.125H350.1Zm1.125,1.125h1.125v1.125h-1.125ZM345.6-12.375V-9h5.625v-3.375Zm-3.375,4.5h1.125v2.25h-1.125ZM352.35-4.5h1.125v3.375H350.1V-2.25h2.25ZM356.4-18Zm2.25,0h1.125v1.125H358.65Zm4.5,0h1.125v3.375H369.9V-13.5h-1.125v1.125H367.65v1.125h3.375V-9H369.9v1.125h2.25V-2.25h-1.125v1.125H369.9V0h-1.125V-1.125H369.9V-2.25h1.125v-4.5h-2.25v1.125H367.65V-6.75h-7.875V-4.5H358.65v1.125h-1.125V-2.25H356.4V-3.375h1.125V-4.5h1.125V-6.75h1.125V-9H360.9v-2.25h1.125V-13.5h-4.5v-1.125h2.25v-2.25H360.9v2.25h2.25Zm0,4.5v2.25h3.375v-1.125h1.125V-13.5Zm-1.125,3.375V-9H360.9v1.125h7.875V-9H369.9v-1.125Zm-1.125,4.5h1.125v2.25H360.9V-2.25h-1.125V-3.375H360.9Zm2.25,0h1.125V-4.5H363.15Zm2.25,0h1.125V-4.5H365.4v1.125h-1.125V-4.5H365.4Zm3.375,0H369.9v2.25h-1.125ZM366.525-4.5h1.125v1.125h-1.125Zm1.125,2.25h1.125v1.125H367.65ZM376.2-18Zm11.25,0h1.125v1.125H389.7v1.125h-4.5v5.625h7.875V-9H385.2V0h-1.125V-9H376.2v-1.125h7.875v-4.5H378.45V-15.75h6.75v-1.125h2.25ZM396-18Zm9,0h1.125v2.25H405Zm-3.375,1.125h1.125v2.25h-1.125v2.25H400.5v1.125h-1.125v1.125H398.25V-9h-1.125v1.125H396V-9h1.125v-1.125h1.125V-11.25h1.125v-1.125H400.5v-2.25h1.125Zm4.5,1.125h1.125v2.25h-1.125Zm1.125,2.25h1.125v1.125H407.25Zm1.125,1.125H409.5v1.125h-1.125ZM409.5-11.25h1.125v1.125h2.25V-9H411.75v1.125h-1.125V-9H409.5Zm-10.125,1.125h9V-2.25H407.25v1.125h-1.125V0H405V-1.125h1.125V-2.25h1.125V-9h-4.5v4.5h-1.125v2.25H400.5v1.125h-1.125V0H398.25V-1.125h1.125V-2.25H400.5V-4.5h1.125V-9h-2.25Zm4.5,7.875H405v1.125h-1.125ZM415.8-18Zm6.75,0h1.125v1.125H422.55Zm1.125,1.125H424.8v2.25h-1.125Zm-6.75,3.375h13.5v1.125H429.3v1.125h-1.125v1.125H427.05V-9h-1.125v1.125H424.8V-6.75h-1.125v1.125H422.55V-4.5h-1.125v1.125h-2.25V-2.25H418.05v1.125h-1.125V-2.25h1.125V-3.375h1.125V-4.5h2.25V-5.625h1.125V-6.75h1.125V-7.875H424.8V-9h1.125v-1.125h1.125V-11.25h1.125v-1.125h-11.25Zm4.5,10.125h2.25V-2.25h-2.25Zm2.25,1.125h9v1.125h-9ZM435.6-18Zm1.125,2.25H451.35v1.125H436.725Zm1.125,5.625h12.375V-9H437.85Zm-2.25,6.75h16.875V-2.25H435.6Zm28.8-5.373a2.31,2.31,0,0,0-1.656.648,2.1,2.1,0,0,0-.684,1.62,2.06,2.06,0,0,0,.684,1.6,2.326,2.326,0,0,0,1.656.666,2.357,2.357,0,0,0,1.656-.666,2.15,2.15,0,0,0,.684-1.6,2.161,2.161,0,0,0-.684-1.62A2.341,2.341,0,0,0,464.4-8.748Zm0,.954a1.363,1.363,0,0,1,.954.378,1.256,1.256,0,0,1,.414.936,1.285,1.285,0,0,1-.414.936,1.363,1.363,0,0,1-.954.378,1.3,1.3,0,0,1-.954-.378,1.194,1.194,0,0,1-.414-.936,1.17,1.17,0,0,1,.414-.936A1.3,1.3,0,0,1,464.4-7.794Z" transform="translate(236 507)" fill="#fff8dd"/>
    <path id="Path_54296" data-name="Path 54296" d="M0-24Zm4.5,0H6v6H9v-1.5h3V-21H9v-1.5h3V-24h1.5v1.5H18V-24h1.5v1.5h3V-21h-3v1.5h3V-15h-6v1.5H15V-15h1.5v-4.5H18V-21H13.5v1.5H15V-15H13.5v1.5H12V-12h4.5v-1.5H18V-12h4.5v1.5h-6V-9H21v1.5H16.5V-6H21v1.5H16.5V-3h6v1.5H12V0H10.5V-10.5H9V-9H7.5v-1.5H9V-12h1.5v-1.5H12V-15H9v-1.5H6V-15H7.5v1.5H6V0H4.5V-12H3v3H1.5v1.5H0V-9H1.5v-3H3v-3H4.5v-1.5H0V-18H4.5Zm6,6v1.5h3V-18ZM18-18v1.5h3V-18ZM7.5-13.5H9V-12H7.5Zm4.5,3V-9h3v-1.5Zm0,3V-6h3V-7.5Zm0,3V-3h3V-4.5ZM26.4-24Zm3,0h1.5v1.5H29.4Zm1.5,1.5h1.5V-21H30.9Zm6,0h4.5V-18H39.9v1.5H38.4V-15H36.9v1.5H35.4V-15h1.5v-1.5h1.5V-18h1.5v-3h-3Zm6,0h1.5V-21h1.5v-1.5h1.5V-21H45.9v3h1.5v-1.5h1.5V-18H47.4v3H45.9v1.5H38.4V-15h7.5v-1.5H44.4v-3H42.9Zm-16.5,3h9V-18h-9Zm10.5,0h1.5V-18H36.9Zm-9,3h6V-15h-6ZM47.4-15h1.5v1.5H47.4ZM27.9-13.5h6V-12h-6ZM38.4-12h7.5v7.5H44.4V-3h4.5v1.5H35.4V-3h4.5V-4.5h1.5V-3h1.5V-4.5h1.5V-6H39.9v1.5H38.4ZM27.9-10.5h6v9H32.4V-3h-3v1.5H27.9Zm12,0v3h4.5v-3ZM29.4-9v4.5h3V-9ZM52.8-24Zm10.5,0h1.5V-1.5H63.3V0H61.8V-1.5h1.5Zm-4.5,7.5h1.5v3H58.8v3H57.3V-9H55.8v1.5H54.3V-9h1.5v-1.5h1.5v-3h1.5Zm9,0h1.5V-15H67.8ZM69.3-15h1.5v1.5H69.3Zm1.5,1.5h1.5v3H70.8Zm1.5,3h1.5v3H72.3ZM60.3-3h1.5v1.5H60.3ZM79.2-24Zm6,0h1.5v3h4.5v-1.5h1.5V-21H91.2v3H89.7v1.5h1.5V-15H86.7v1.5h4.5V-15h1.5v-4.5h1.5V-24h1.5v4.5H94.2V-18h7.5v1.5h-3v6H97.2v3H95.7V-6H94.2v1.5H92.7V-3H91.2v1.5H89.7V0H88.2V-1.5h1.5V-3h1.5V-4.5h1.5V-6h1.5V-7.5h1.5v-3h1.5v-6h-3v9H92.7v-6H91.2V-12H89.7v1.5H88.2V-9H86.7v1.5h3V-6h-3v4.5H85.2V0H83.7V-1.5h1.5v-3H80.7V-6h4.5v-4.5h3V-12H83.7v1.5H82.2V-9H80.7v1.5H79.2V-9h1.5v-1.5h1.5V-12H80.7v-1.5h4.5V-15h-6v-1.5h6v-3H80.7V-21h4.5Zm1.5,4.5v3h1.5V-18h1.5v-1.5ZM95.7-6h1.5v1.5H95.7Zm1.5,1.5h1.5V-3H97.2ZM82.2-3h1.5v1.5H82.2ZM98.7-3h3v1.5h-1.5V0H98.7Zm6.9-21Zm9,0h1.5v1.5h-1.5Zm1.5,1.5h1.5V-21h10.5v3h-1.5v1.5h-1.5V-15H114.6v1.5h-1.5V-12h7.5v-1.5h1.5V-12h1.5v3h-1.5v-1.5h-4.5v3h6V-6h-6v3h9v1.5H107.1V-3h9V-6h-6V-7.5h6v-3h-6V-12h1.5v-1.5h1.5V-15h-4.5v-1.5h16.5V-18h1.5v-1.5h-18V-18h-1.5v1.5h-1.5V-18h1.5v-3h9ZM144-14.616a1.348,1.348,0,0,0-1.056.456,1.306,1.306,0,0,0-.408,1.032,1.374,1.374,0,0,0,.408,1.032,1.411,1.411,0,0,0,1.056.432,1.449,1.449,0,0,0,1.056-.432,1.4,1.4,0,0,0,.432-1.032,1.323,1.323,0,0,0-.432-1.032A1.383,1.383,0,0,0,144-14.616Zm0,8.784a1.348,1.348,0,0,0-1.056.456,1.306,1.306,0,0,0-.408,1.032,1.374,1.374,0,0,0,.408,1.032A1.411,1.411,0,0,0,144-2.88a1.449,1.449,0,0,0,1.056-.432,1.4,1.4,0,0,0,.432-1.032,1.323,1.323,0,0,0-.432-1.032A1.383,1.383,0,0,0,144-5.832Z" transform="translate(236 475)" fill="#ffda2d"/>
    <g id="Group_41006" data-name="Group 41006" transform="translate(730.246 467.417)">
      <g id="Group_38393" data-name="Group 38393" transform="translate(52.827 0)">
        <g id="Group_38338" data-name="Group 38338" transform="translate(0 25.198)">
          <path id="Path_50190" data-name="Path 50190" d="M27.005-230.164v-45.06H18.38v-5.633H14.546v-5.633H.17V-294H-31.456v7.51H-44.874v7.51h-5.75v7.51h-6.709v3.755H-65v41.305h5.75v7.51h6.709Z" transform="translate(65 294)" fill="#2c2c2c"/>
          <path id="Path_50191" data-name="Path 50191" d="M14.837-254.49H-5.289V-262H-32.124v7.51H-45.541v11.265h-5.75v-3.755H-58v11.265h6.709v26.285h6.709v7.51h12.459v5.633H-5.289l-.958-5.633H14.837v-5.633h6.709V-246.98H14.837Z" transform="translate(63.75 292.04)" fill="#f5e0d1"/>
          <rect id="Rectangle_25383" data-name="Rectangle 25383" width="6.709" height="11.265" transform="translate(65.17 45.999)" fill="#171420"/>
          <rect id="Rectangle_25384" data-name="Rectangle 25384" width="6.709" height="11.265" transform="translate(32.585 45.999)" fill="#171420"/>
          <path id="Union_83" data-name="Union 83" d="M6.709,0V6.571H32.586V0ZM32.586,6.571v6.572h6.708V6.571ZM0,6.571v6.572H6.709V6.571Z" transform="translate(71.879 77.917) rotate(180)" fill="#d8a788" stroke="rgba(0,0,0,0)" stroke-width="1"/>
          <path id="Union_82" data-name="Union 82" d="M0,0V5.633H27.793V0ZM34.5,5.633v12.2h5.75v29.1H46.96V11.265H40.252V5.633Zm0,41.306V58.2h6.709V46.938ZM.958,58.2v7.51H27.793V58.2Z" transform="translate(59.42 95.753) rotate(180)" fill="#ebd2c6" stroke="rgba(0,0,0,0)" stroke-width="1"/>
          <path id="Path_50193" data-name="Path 50193" d="M-10.583-192v26.285h-6.709v-20.653H-24V-192Z" transform="translate(63.294 287.753)" fill="#2a68af"/>
          <rect id="Rectangle_25393" data-name="Rectangle 25393" width="5.75" height="13.143" transform="translate(52.711 95.753)" fill="#e9e6e7"/>
          <rect id="Rectangle_25394" data-name="Rectangle 25394" width="6.709" height="15.02" transform="translate(39.294 101.386)" fill="#e9e6e7"/>
          <rect id="Rectangle_25395" data-name="Rectangle 25395" width="6.709" height="6.571" transform="translate(32.585 95.753)" fill="#e9e6e7"/>
        </g>
        <g id="Group_38305" data-name="Group 38305" transform="translate(0 0)">
          <rect id="Rectangle_20960" data-name="Rectangle 20960" width="38.739" height="4.743" transform="translate(48.424 37.946)" fill="#d99a36"/>
          <rect id="Rectangle_20961" data-name="Rectangle 20961" width="38.739" height="4.743" transform="translate(48.424 28.459)" fill="#d99a36"/>
          <rect id="Rectangle_20962" data-name="Rectangle 20962" width="4.842" height="9.486" transform="translate(87.163 42.689)" fill="#e8bc48"/>
          <rect id="Rectangle_20963" data-name="Rectangle 20963" width="29.054" height="9.486" transform="translate(48.424 42.689)" fill="#e8bc48"/>
          <rect id="Rectangle_20964" data-name="Rectangle 20964" width="43.581" height="4.743" transform="translate(4.842 37.946)" fill="#e8bc48"/>
          <rect id="Rectangle_20965" data-name="Rectangle 20965" width="29.054" height="4.743" transform="translate(48.424 33.202)" fill="#e8bc48"/>
          <rect id="Rectangle_20966" data-name="Rectangle 20966" width="4.842" height="4.743" transform="translate(87.163 33.202)" fill="#e8bc48"/>
          <rect id="Rectangle_20967" data-name="Rectangle 20967" width="43.581" height="4.743" transform="translate(4.842 28.459)" fill="#e8bc48"/>
          <rect id="Rectangle_20968" data-name="Rectangle 20968" width="4.842" height="28.459" transform="translate(87.163)" fill="#e8bc48"/>
          <path id="Path_50173" data-name="Path 50173" d="M337.577,206.859h4.842V211.6h4.842v4.743H352.1v9.486h9.685v-9.486h4.842v14.23H337.577Z" transform="translate(-289.153 -202.116)" fill="#e8bc48"/>
          <rect id="Rectangle_20969" data-name="Rectangle 20969" width="19.369" height="9.486" transform="translate(0 42.689)" fill="#fff268"/>
          <rect id="Rectangle_20970" data-name="Rectangle 20970" width="24.212" height="9.486" transform="translate(24.212 42.689)" fill="#fff268"/>
          <rect id="Rectangle_20971" data-name="Rectangle 20971" width="9.685" height="9.486" transform="translate(77.478 42.689)" fill="#fff268"/>
          <rect id="Rectangle_20972" data-name="Rectangle 20972" width="19.369" height="4.743" transform="translate(0 33.202)" fill="#fff268"/>
          <rect id="Rectangle_20973" data-name="Rectangle 20973" width="24.212" height="4.743" transform="translate(24.212 33.202)" fill="#fff268"/>
          <rect id="Rectangle_20974" data-name="Rectangle 20974" width="9.685" height="4.743" transform="translate(77.478 33.202)" fill="#fff268"/>
          <path id="Path_50174" data-name="Path 50174" d="M407.885,229.459V201h4.842v4.743h4.842v4.743h4.842v4.743h4.842v14.23Z" transform="translate(-407.885 -201)" fill="#fff268"/>
          <path id="Path_50175" data-name="Path 50175" d="M372.731,229.459v-4.743h4.842V215.23h4.842v-4.743h4.842v-4.743H392.1V201h4.842v28.459Z" transform="translate(-348.519 -201)" fill="#fff268"/>
          <path id="Path_50176" data-name="Path 50176" d="M325.859,230.575V211.6H330.7v-4.743h4.842v23.716Z" transform="translate(-248.381 -202.116)" fill="#fff268"/>
          <rect id="Rectangle_20975" data-name="Rectangle 20975" width="4.842" height="9.486" transform="translate(19.369 42.689)" fill="#caff94"/>
          <rect id="Rectangle_20976" data-name="Rectangle 20976" width="4.842" height="4.743" transform="translate(19.369 33.202)" fill="#caff94"/>
          <rect id="Rectangle_20977" data-name="Rectangle 20977" width="4.842" height="4.743" transform="translate(19.369 23.716)" fill="#caff94"/>
        </g>
      </g>
      <g id="Group_38392" data-name="Group 38392" transform="translate(8.731 89.984)">
        <path id="Path_50267" data-name="Path 50267" d="M491.429,212.4h10.718v-5.349h10.717v-5.349h10.717v-5.349H534.3v-5.349H555.73v10.7H545.013v5.349H534.3V212.4H523.582v5.349H512.864V223.1H502.147v5.349H491.429V260.54h10.718V287.28H491.429v5.351H469.994v-10.7h10.718v-10.7H469.994v5.349H459.277v10.7H448.56v16.048H437.842v10.7H416.407V297.979h10.717v-10.7h10.717V260.54H427.125V223.1H416.407v-5.349H405.69V212.4H394.972v-5.349H384.255v-5.349H373.537v-5.349h10.718v-5.349h10.717v5.349H405.69v5.349h10.717v5.349h10.717V212.4h10.717v5.349H448.56V223.1h10.717v10.7h10.717V223.1h10.718v-5.349h10.717Z" transform="translate(-373.537 -191.009)" fill="#9dbbdd" fill-rule="evenodd"/>
        <path id="Path_50272" data-name="Path 50272" d="M188.489,147.144v16.044H177.772V147.144ZM134.9,168.536h10.717v10.7H134.9Z" transform="translate(-92.032 -45.522)" fill="#4e4e4e" fill-rule="evenodd"/>
        <rect id="Rectangle_25412" data-name="Rectangle 25412" width="10.718" height="5.349" transform="translate(96.456 101.621)" fill="#303030"/>
        <path id="Path_50271" data-name="Path 50271" d="M406.028,109.862H438.18v5.349H427.463v10.7H416.745v-10.7H406.028Z" transform="translate(-331.006 -83.119)" fill="#2a68af" fill-rule="evenodd"/>
      </g>
      <path id="Path_50275" data-name="Path 50275" d="M177.457,111.986h10.6V91.222h-21.2v20.764Z" transform="translate(-166.857 -14.787)" fill="#f5e0d1" fill-rule="evenodd"/>
      <path id="Path_50276" data-name="Path 50276" d="M177.457,111.986h10.6V91.222h-21.2v20.764Z" transform="translate(9.486 -17.604)" fill="#f5e0d1" fill-rule="evenodd"/>
    </g>
  </g>
</svg>
