<svg xmlns="http://www.w3.org/2000/svg" width="829.834" height="122" viewBox="0 0 829.834 122">
  <g id="g7-q" transform="translate(-268 -82)">
    <g id="Exclusion_15" data-name="Exclusion 15" transform="translate(752 4211.001)" fill="#2e817f">
      <path d="M 293.4356079101562 -4009.00048828125 L -431.4355773925781 -4009.00048828125 L -431.4355773925781 -4009.405029296875 L -431.4355773925781 -4011.405029296875 L -433.4355773925781 -4011.405029296875 L -437.0000915527344 -4011.405029296875 L -437.0000915527344 -4100.59521484375 L -433.4355773925781 -4100.59521484375 L -431.4355773925781 -4100.59521484375 L -431.4355773925781 -4102.59521484375 L -431.4355773925781 -4103.00048828125 L 293.4356079101562 -4103.00048828125 L 293.4356079101562 -4102.59521484375 L 293.4356079101562 -4100.59521484375 L 295.4356079101562 -4100.59521484375 L 298.9999084472656 -4100.59521484375 L 298.9998168945312 -4011.405029296875 L 295.4356079101562 -4011.405029296875 L 293.4356079101562 -4011.405029296875 L 293.4356079101562 -4009.405029296875 L 293.4356079101562 -4009.00048828125 Z" stroke="none"/>
      <path d="M 291.4356079101562 -4011.00048828125 L 291.4356079101562 -4013.405029296875 L 295.4356079101562 -4013.405029296875 L 296.9998168945312 -4013.405029296875 L 296.9999084472656 -4098.59521484375 L 295.4356079101562 -4098.59521484375 L 291.4356079101562 -4098.59521484375 L 291.4356079101562 -4101.00048828125 L -429.4355773925781 -4101.00048828125 L -429.4355773925781 -4098.59521484375 L -433.4355773925781 -4098.59521484375 L -435.0000915527344 -4098.59521484375 L -435.0000915527344 -4013.405029296875 L -433.4355773925781 -4013.405029296875 L -429.4355773925781 -4013.405029296875 L -429.4355773925781 -4011.00048828125 L 291.4356079101562 -4011.00048828125 M 295.4356079101562 -4007.00048828125 L -433.4355773925781 -4007.00048828125 L -433.4355773925781 -4009.405029296875 L -439.0000915527344 -4009.405029296875 L -439.0000915527344 -4102.59521484375 L -433.4355773925781 -4102.59521484375 L -433.4355773925781 -4105.00048828125 L 295.4356079101562 -4105.00048828125 L 295.4356079101562 -4102.59521484375 L 300.9999084472656 -4102.59521484375 L 300.9998168945312 -4009.405029296875 L 295.4356079101562 -4009.405029296875 L 295.4356079101562 -4007.0009765625 L 295.4356079101562 -4007.00048828125 Z" stroke="none" fill="#2f211e"/>
    </g>
    <path id="Path_54292" data-name="Path 54292" d="M9.666,0V-5.934H.656V-8.066l9.01-13.152h2.557V-8.066h3.924v2.133H12.223V0Zm0-8.066v-9.3l-6.3,9.3ZM28,.643a2.145,2.145,0,0,1-1.572-.656,2.145,2.145,0,0,1-.656-1.572,2.127,2.127,0,0,1,.663-1.579A2.163,2.163,0,0,1,28-3.814a2.163,2.163,0,0,1,1.565.649,2.127,2.127,0,0,1,.663,1.579A2.145,2.145,0,0,1,29.57-.014,2.145,2.145,0,0,1,28,.643ZM56-28Zm3.5,0h1.75v1.75H59.5Zm12.25,0H73.5v3.5h7v1.75h-7V-21h5.25v1.75H73.5v1.75h8.75v1.75H64.75V-14h-7v-1.75h7V-17.5h7v-1.75h-3.5V-21h3.5v-1.75H66.5V-21H56v-1.75H66.5V-24.5h5.25Zm-10.5,1.75H63v1.75H61.25Zm-3.5,7h7v1.75h-7ZM68.25-14h10.5V-1.75H77V0H75.25V-1.75H77v-3.5H70V0H68.25Zm-10.5,1.75h7v10.5H63V-3.5H59.5v1.75H57.75Zm12.25,0v1.75h7v-1.75ZM59.5-10.5v5.25H63V-10.5ZM70-8.75V-7h7V-8.75ZM73.5-3.5h1.75v1.75H73.5ZM86.8-28Zm3.5,1.75h8.75v8.75h-7V0H90.3Zm10.5,0h8.75v24.5H107.8V0h-1.75V-1.75h1.75V-17.5h-7ZM92.05-24.5v1.75H97.3V-24.5Zm10.5,0v1.75h5.25V-24.5ZM92.05-21v1.75H97.3V-21Zm10.5,0v1.75h5.25V-21Zm-7,7h8.75v8.75h-1.75V-7H97.3v1.75H95.55Zm1.75,1.75v3.5h5.25v-3.5Zm7,8.75h1.75v1.75H104.3ZM117.6-28Zm0,3.5h26.25v1.75h-14V0H128.1V-22.75H117.6Zm14,7h1.75v1.75H131.6Zm1.75,1.75h1.75V-14h-1.75ZM135.1-14h3.5v3.5h-1.75v-1.75H135.1Zm13.3-14Zm22.75,0h1.75V-1.75h-1.75V0H169.4V-1.75h1.75ZM148.4-24.5h15.75v1.75H155.4v3.5h7V-14h-1.75v3.5H158.9V-7h-1.75v1.75H155.4V-3.5h-1.75v1.75H151.9V0h-1.75V-1.75h1.75V-3.5h1.75V-5.25h1.75V-7h1.75v-3.5h1.75V-14h1.75v-3.5h-7V-14H151.9v1.75h-1.75v1.75H148.4v-1.75h1.75V-14h1.75v-3.5h1.75v-5.25H148.4Zm17.5,0h1.75V-7H165.9ZM153.65-14h1.75v1.75h-1.75Zm1.75,1.75h1.75v1.75H155.4ZM167.65-3.5h1.75v1.75h-1.75ZM179.2-28Zm7,1.75h10.5V-3.5h-1.75v1.75H193.2V-3.5h1.75v-8.75h-3.5v3.5H189.7v3.5h-1.75V-3.5H186.2v1.75h-1.75V-3.5h1.75V-5.25h1.75v-3.5h1.75v-3.5h-3.5V-14h3.5v-5.25h-3.5V-21h3.5v-3.5h-3.5Zm12.25,0h7v3.5H203.7v5.25h-1.75v1.75H200.2V-7h1.75v1.75H200.2V0h-1.75ZM179.2-24.5h5.25V-5.25H182.7V-7h-1.75v1.75H179.2Zm12.25,0V-21h3.5v-3.5Zm8.75,0v7h1.75v-5.25h1.75V-24.5Zm-19.25,1.75v14h1.75v-14Zm10.5,3.5V-14h3.5v-5.25Zm10.5,3.5h1.75V-14h-1.75ZM203.7-14h1.75v8.75H203.7V-3.5h-1.75V-5.25h1.75ZM191.45-5.25h1.75V-3.5h-1.75ZM210-28Zm0,12.25h26.25V-14H210ZM240.8-28Zm10.5,1.75h15.75v1.75h-7v1.75H258.3V-21h7V-7h-1.75V-8.75H254.8V-7h-1.75V-21h3.5v-1.75h1.75V-24.5h-7v1.75h-3.5V-10.5h3.5v1.75h-3.5V-7h-3.5v1.75h-1.75V-7H240.8V-8.75h5.25v-14H240.8V-24.5h10.5Zm3.5,7v1.75h8.75v-1.75Zm0,3.5V-14h8.75v-1.75Zm0,3.5v1.75h8.75v-1.75ZM256.55-7h1.75v1.75h-1.75V-3.5H254.8v1.75h-1.75V0H251.3V-1.75h1.75V-3.5h1.75V-5.25h1.75Zm3.5,0h1.75v1.75h-1.75Zm1.75,1.75h1.75V-3.5H261.8Zm1.75,1.75h3.5V0H265.3V-1.75h-1.75ZM271.6-28Zm1.75,0h8.75v8.75h-1.75v1.75H278.6v1.75h3.5V-17.5h1.75v1.75H282.1V-14h-1.75v1.75h1.75V-14h1.75V-3.5H282.1v1.75h-1.75V0H278.6V-1.75h1.75V-3.5h1.75V-5.25h-5.25v-3.5h1.75V-7h3.5v-3.5h-7V0h-1.75Zm14,0h8.75V-1.75h-1.75V0H292.6V-1.75h1.75V-10.5h-7V-7h3.5V-8.75h1.75v3.5h-5.25V0H285.6V-12.25h3.5V-14h-3.5v-1.75h1.75V-17.5h1.75v-1.75h-1.75ZM275.1-26.25v1.75h5.25v-1.75Zm14,0v1.75h5.25v-1.75Zm-14,3.5V-21h5.25v-1.75Zm14,0V-21h5.25v-1.75Zm-14,3.5v3.5h1.75V-17.5h1.75v-1.75Zm15.75,0v1.75H289.1v1.75h3.5V-17.5h1.75v-1.75Zm1.75,3.5V-14h-1.75v1.75h1.75V-14h1.75v-1.75ZM275.1-14v1.75h3.5V-14ZM290.85-3.5h1.75v1.75h-1.75ZM302.4-28Zm3.5,0h1.75v1.75H305.9Zm14,0h1.75v5.25H319.9v3.5h-1.75v1.75H316.4v1.75h-1.75V-14H312.9V-3.5h-1.75v1.75H309.4V-3.5h1.75V-15.75h-3.5V-7H305.9v3.5h-1.75v1.75H302.4V-3.5h1.75V-7h1.75V-21h-3.5v-1.75h12.25V-21h-7v3.5h5.25v1.75h1.75V-17.5h1.75v-1.75h1.75v-3.5h1.75Zm-12.25,1.75h1.75v1.75h-1.75Zm14,3.5h1.75v3.5h-1.75Zm1.75,3.5h1.75v1.75H323.4Zm1.75,1.75h3.5v1.75H326.9V-14h-1.75Zm-7,3.5h3.5v1.75h-3.5Zm3.5,1.75h1.75v1.75h-1.75ZM316.4-7h3.5v1.75h-3.5Zm-8.75,1.75h1.75V-3.5h-1.75Zm12.25,0h3.5v3.5h-1.75V-3.5H319.9ZM333.2-28Zm5.25,0h1.75v7h3.5v-1.75h3.5V-24.5h-3.5v-1.75h3.5V-28h1.75v1.75h5.25V-28h1.75v1.75h3.5v1.75h-3.5v1.75h3.5v5.25h-7v1.75H350.7V-17.5h1.75v-5.25h1.75V-24.5h-5.25v1.75h1.75v5.25h-1.75v1.75H347.2V-14h5.25v-1.75h1.75V-14h5.25v1.75h-7v1.75h5.25v1.75h-5.25V-7h5.25v1.75h-5.25V-3.5h7v1.75H347.2V0h-1.75V-12.25H343.7v1.75h-1.75v-1.75h1.75V-14h1.75v-1.75h1.75V-17.5h-3.5v-1.75h-3.5v1.75h1.75v1.75H340.2V0h-1.75V-14H336.7v3.5h-1.75v1.75H333.2V-10.5h1.75V-14h1.75v-3.5h1.75v-1.75H333.2V-21h5.25Zm7,7v1.75h3.5V-21Zm8.75,0v1.75h3.5V-21Zm-12.25,5.25h1.75V-14h-1.75Zm5.25,3.5v1.75h3.5v-1.75Zm0,3.5V-7h3.5V-8.75Zm0,3.5V-3.5h3.5V-5.25ZM364-28Zm3.5,0h1.75v1.75H367.5Zm1.75,1.75H371v1.75h-1.75Zm7,0h5.25V-21h-1.75v1.75H378v1.75h-1.75v1.75H374.5V-17.5h1.75v-1.75H378V-21h1.75v-3.5h-3.5Zm7,0H385v1.75h1.75v-1.75h1.75v1.75h-1.75V-21h1.75v-1.75h1.75V-21H388.5v3.5h-1.75v1.75H378V-17.5h8.75v-1.75H385v-3.5h-1.75ZM364-22.75h10.5V-21H364Zm12.25,0H378V-21h-1.75Zm-10.5,3.5h7v1.75h-7ZM388.5-17.5h1.75v1.75H388.5Zm-22.75,1.75h7V-14h-7ZM378-14h8.75v8.75H385V-3.5h5.25v1.75H374.5V-3.5h5.25V-5.25h1.75V-3.5h1.75V-5.25H385V-7h-5.25v1.75H378Zm-12.25,1.75h7v10.5H371V-3.5h-3.5v1.75h-1.75Zm14,0v3.5H385v-3.5ZM367.5-10.5v5.25H371V-10.5ZM394.8-28Zm5.25,0h1.75v3.5h-1.75v1.75h7v5.25h1.75V-21h1.75v-7h1.75v5.25h7V-3.5h-1.75v1.75H415.8V0h-1.75V-1.75h1.75V-3.5h1.75V-21h-7v3.5H408.8v1.75h-1.75v14H405.3V-3.5h-7v1.75h-1.75v-21h1.75V-24.5h1.75Zm-1.75,7v7h7v-7Zm12.25,5.25h1.75V-14h-1.75ZM412.3-14h1.75v3.5H412.3Zm-14,1.75v7h7v-7Zm14,8.75h1.75v1.75H412.3ZM425.6-28Zm3.5,0h1.75v1.75h5.25V-28h1.75v1.75H450.1v17.5h-1.75v7H446.6v-7h-1.75V-3.5H443.1v1.75h-1.75V0H439.6V-1.75h1.75V-3.5h1.75V-8.75h-1.75V-24.5h-3.5v1.75h1.75v5.25h-3.5v1.75h-1.75v-7h1.75V-24.5h-5.25v1.75h1.75V-14h3.5v-1.75h1.75V-14h1.75v1.75h-3.5v1.75h3.5v1.75h-3.5V-7h3.5v1.75h-3.5V-3.5h3.5v1.75h-8.75V0H429.1V-10.5h-1.75v1.75H425.6V-10.5h1.75v-1.75h1.75V-14h1.75v-3.5h-3.5v-5.25h1.75V-24.5h-3.5v-1.75h3.5Zm14,3.5V-21h5.25v-3.5Zm-14,3.5v1.75h1.75V-21Zm7,0v1.75h1.75V-21Zm7,1.75v3.5h5.25v-3.5Zm0,5.25v3.5h5.25V-14Zm-12.25,1.75v1.75h3.5v-1.75Zm0,3.5V-7h3.5V-8.75Zm0,3.5V-3.5h3.5V-5.25Zm19.25,0h1.75V0h-3.5V-1.75h1.75ZM456.4-28Zm12.25,0h1.75v3.5h-1.75v1.75H466.9V-21h-1.75v1.75H463.4v1.75h-3.5v1.75h-3.5V-17.5h3.5v-1.75h3.5V-21h1.75v-1.75h1.75V-24.5h1.75Zm1.75,3.5h1.75v1.75H470.4Zm1.75,1.75h1.75V-21h-1.75ZM466.9-21h1.75v1.75H466.9Zm7,0h3.5v1.75h-3.5Zm-5.25,1.75h1.75v3.5h7v3.5h-1.75v1.75H473.9v1.75h-1.75V-10.5h1.75v-1.75h1.75V-14h-14v-1.75h7Zm8.75,0h5.25v1.75H480.9v1.75h-1.75V-17.5H477.4ZM466.9-10.5h1.75v1.75H466.9Zm-3.5,1.75h1.75v7H463.4Zm5.25,0h1.75v3.5h-1.75ZM459.9-7h1.75v3.5H459.9v1.75h-1.75V-3.5h1.75Zm17.5,0h1.75v1.75H477.4Zm-3.5,1.75h1.75V0h-10.5V-1.75h8.75Zm5.25,0h1.75v3.5h-1.75ZM487.2-28Zm7,0h12.25v12.25H494.2Zm1.75,1.75v3.5h8.75v-3.5Zm0,5.25v3.5h8.75V-21Zm-7,7H511.7v1.75H501.2v3.5h8.75V-7H501.2v5.25h-3.5V-3.5h1.75v-8.75h-10.5Zm5.25,3.5h1.75v5.25H494.2V-3.5h-1.75v1.75H490.7V0h-1.75V-1.75h1.75V-3.5h1.75V-5.25h1.75Zm1.75,5.25h1.75V-3.5h-1.75Zm5.25,3.5h10.5V0H501.2ZM518-28Zm5.25,0H525v3.5h1.75v1.75h-3.5v3.5h5.25V-21h1.75v1.75H528.5v1.75H525V-14h5.25v1.75H525v3.5h1.75V-10.5h1.75v1.75h-1.75V-7H525v1.75h5.25V-3.5H525v1.75h-3.5V0h-1.75V-1.75H518V-3.5h5.25v-8.75H518V-14h5.25v-3.5h-3.5v1.75H518V-17.5h1.75v-1.75h1.75v-3.5h1.75Zm10.5,0h1.75v3.5H539V-28h1.75v3.5h3.5v1.75h-3.5v3.5h3.5v1.75h-14v-1.75h3.5v-3.5h-3.5V-24.5h3.5Zm-7,5.25h1.75V-21h-1.75Zm8.75,0v3.5H539v-3.5ZM532-14h10.5V0h-1.75V-1.75h-7V0H532Zm1.75,1.75v3.5h7v-3.5ZM518-10.5h1.75v1.75H518Zm1.75,1.75h1.75V-7h-1.75Zm14,1.75v3.5h7V-7ZM548.8-28Zm5.25,0h1.75v3.5h-1.75v1.75h7v5.25h1.75V-21h1.75v-7h1.75v5.25h7V-3.5h-1.75v1.75H569.8V0h-1.75V-1.75h1.75V-3.5h1.75V-21h-7v3.5H562.8v1.75h-1.75v14H559.3V-3.5h-7v1.75h-1.75v-21h1.75V-24.5h1.75Zm-1.75,7v7h7v-7Zm12.25,5.25h1.75V-14h-1.75ZM566.3-14h1.75v3.5H566.3Zm-14,1.75v7h7v-7Zm14,8.75h1.75v1.75H566.3Zm27.72-16.884a6.034,6.034,0,0,0-4.7,1.848,6.788,6.788,0,0,0-1.68,4.7h2.24a5.064,5.064,0,0,1,.924-3.22,3.578,3.578,0,0,1,3.108-1.372,3.664,3.664,0,0,1,2.744.98,3.535,3.535,0,0,1,.952,2.6,3.6,3.6,0,0,1-.812,2.212,19.042,19.042,0,0,1-1.82,1.764A8.718,8.718,0,0,0,593.1-8.6a5.486,5.486,0,0,0-.616,2.66v.644h2.24v-.644a4.01,4.01,0,0,1,.532-2.072,5.3,5.3,0,0,1,1.316-1.512c1.232-1.092,1.988-1.82,2.3-2.156a5.439,5.439,0,0,0,1.036-3.276,5.026,5.026,0,0,0-1.6-3.948A5.959,5.959,0,0,0,594.02-20.384ZM593.6-3.332a1.6,1.6,0,0,0-1.2.476,1.5,1.5,0,0,0-.476,1.176,1.6,1.6,0,0,0,.476,1.2A1.717,1.717,0,0,0,593.6,0a1.785,1.785,0,0,0,1.232-.476,1.624,1.624,0,0,0,.476-1.2,1.6,1.6,0,0,0-.476-1.176A1.666,1.666,0,0,0,593.6-3.332Z" transform="translate(379 166)" fill="#fff"/>
    <g id="Group_41327" data-name="Group 41327" transform="translate(123 -426)">
      <path id="Path_53380" data-name="Path 53380" d="M214.334,509H153.083v4.083H149v24.5h4.083v4.083h61.251v-4.083h4.083v-24.5h-4.083Zm-4.083,20.417H198v-4.083h12.25Zm-40.834,0h-12.25v-4.083h12.25Zm8.167,8.167V533.5H173.5V517.167h4.083v-4.083h12.25v4.083h4.083V533.5h-4.083v4.083Z" transform="translate(12.333 3.083)" fill="#ecf0f1"/>
      <rect id="Rectangle_33779" data-name="Rectangle 33779" width="12.25" height="4.083" transform="translate(210.334 528.417)" fill="#8b9bb4"/>
      <rect id="Rectangle_33780" data-name="Rectangle 33780" width="12.25" height="4.083" transform="translate(169.5 528.417)" fill="#8b9bb4"/>
      <path id="Path_53381" data-name="Path 53381" d="M160.083,511v4.083H156v12.25h12.25v-12.25h-4.083V511Z" transform="translate(33.917 9.25)" fill="#8b9bb4"/>
      <rect id="Rectangle_33781" data-name="Rectangle 33781" width="12.25" height="4.083" transform="translate(189.917 536.584)" fill="#5a6988"/>
      <path id="Path_53382" data-name="Path 53382" d="M171.333,510h-12.25v4.083H155v16.334h4.083v-12.25h4.083v-4.083h4.083v4.083h4.083v12.25h4.083V514.083h-4.083Z" transform="translate(30.834 6.167)" fill="#5a6988"/>
      <path id="Path_53383" data-name="Path 53383" d="M157.25,508v8.167H145V557h77.584v-8.167h12.25V508Zm-4.083,44.917v-4.083h-4.083v-24.5h4.083V520.25h4.083v28.584h53.084v4.083Zm77.584-12.25h-4.083v4.083H165.417v-4.083h-4.083v-24.5h4.083v-4.083h61.251v4.083h4.083Z" fill="#5a6988"/>
      <path id="Path_53384" data-name="Path 53384" d="M154.167,539.584V511h-4.083v4.083H146v24.5h4.083v4.083h57.167v-4.083Z" transform="translate(3.083 9.25)" fill="#c0cbdc"/>
    </g>
    <g id="Group_41335" data-name="Group 41335" transform="translate(863 -426)">
      <path id="Path_53380-2" data-name="Path 53380" d="M214.334,509H153.083v4.083H149v24.5h4.083v4.083h61.251v-4.083h4.083v-24.5h-4.083Zm-4.083,20.417H198v-4.083h12.25Zm-40.834,0h-12.25v-4.083h12.25Zm8.167,8.167V533.5H173.5V517.167h4.083v-4.083h12.25v4.083h4.083V533.5h-4.083v4.083Z" transform="translate(12.333 3.083)" fill="#ecf0f1"/>
      <rect id="Rectangle_33779-2" data-name="Rectangle 33779" width="12.25" height="4.083" transform="translate(210.334 528.417)" fill="#8b9bb4"/>
      <rect id="Rectangle_33780-2" data-name="Rectangle 33780" width="12.25" height="4.083" transform="translate(169.5 528.417)" fill="#8b9bb4"/>
      <path id="Path_53381-2" data-name="Path 53381" d="M160.083,511v4.083H156v12.25h12.25v-12.25h-4.083V511Z" transform="translate(33.917 9.25)" fill="#8b9bb4"/>
      <rect id="Rectangle_33781-2" data-name="Rectangle 33781" width="12.25" height="4.083" transform="translate(189.917 536.584)" fill="#5a6988"/>
      <path id="Path_53382-2" data-name="Path 53382" d="M171.333,510h-12.25v4.083H155v16.334h4.083v-12.25h4.083v-4.083h4.083v4.083h4.083v12.25h4.083V514.083h-4.083Z" transform="translate(30.834 6.167)" fill="#5a6988"/>
      <path id="Path_53383-2" data-name="Path 53383" d="M157.25,508v8.167H145V557h77.584v-8.167h12.25V508Zm-4.083,44.917v-4.083h-4.083v-24.5h4.083V520.25h4.083v28.584h53.084v4.083Zm77.584-12.25h-4.083v4.083H165.417v-4.083h-4.083v-24.5h4.083v-4.083h61.251v4.083h4.083Z" fill="#5a6988"/>
      <path id="Path_53384-2" data-name="Path 53384" d="M154.167,539.584V511h-4.083v4.083H146v24.5h4.083v4.083h57.167v-4.083Z" transform="translate(3.083 9.25)" fill="#c0cbdc"/>
    </g>
  </g>
</svg>
