<svg xmlns="http://www.w3.org/2000/svg" width="560" height="60" viewBox="0 0 560 60">
  <g id="g8-a" transform="translate(-4948 -5897)">
    <g id="Path_54350" data-name="Path 54350" transform="translate(4948 5897)" fill="#fff">
      <path d="M 553.789306640625 58 L 6.211447238922119 58 L 6.21150016784668 56.52699661254883 L 4.211428642272949 56.52699661254883 L 2.00006890296936 56.52699661254883 L 2.00000262260437 3.472212314605713 L 4.211357116699219 3.472212314605713 L 6.211285591125488 3.472212314605713 L 6.211338520050049 1.999998092651367 L 553.789306640625 1.999998092651367 L 553.789306640625 3.472212314605713 L 555.789306640625 3.472212314605713 L 558 3.472212314605713 L 557.9998779296875 56.52778244018555 L 555.789306640625 56.52778244018555 L 553.789306640625 56.52778244018555 L 553.789306640625 58 Z" stroke="none"/>
      <path d="M 551.789306640625 56 L 551.789306640625 54.52778244018555 L 555.789306640625 54.52778244018555 L 555.9998779296875 54.52778244018555 L 556 5.472212314605713 L 555.789306640625 5.472212314605713 L 551.789306640625 5.472212314605713 L 551.789306640625 3.999998092651367 L 8.211221694946289 3.999998092651367 L 8.211142539978027 5.472212314605713 L 4.211357116699219 5.472212314605713 L 4.00000524520874 5.472212314605713 L 4.00006628036499 54.52699661254883 L 4.211428642272949 54.52699661254883 L 8.211643218994141 54.52699661254883 L 8.211564064025879 56 L 551.789306640625 56 M 555.789306640625 60 L 555.7884521484375 60 L 555.789306640625 60 Z M 555.789306640625 60 L 4.211357116699219 60 L 4.211428642272949 58.52699661254883 L 7.142857066355646e-05 58.52699661254883 L 5.684341886080801e-14 1.472212433815002 L 4.211357116699219 1.472212433815002 L 4.211428642272949 -1.9073486328125e-06 L 555.789306640625 -1.9073486328125e-06 L 555.789306640625 1.472212433815002 L 560 1.472212433815002 L 559.9998779296875 58.52778244018555 L 555.789306640625 58.52778244018555 L 555.789306640625 59.99914169311523 L 555.789306640625 60 Z" stroke="none" fill="#232323"/>
    </g>
    <path id="Path_54356" data-name="Path 54356" d="M2,0H.29l4.2-13.641h1.8L10.521,0H8.648L7.717-3h-4.8ZM3.34-4.359H7.321L5.678-9.536l-.387-1.371L4.948-9.536ZM18,.413a1.379,1.379,0,0,1-1.011-.422,1.379,1.379,0,0,1-.422-1.011,1.368,1.368,0,0,1,.426-1.015A1.391,1.391,0,0,1,18-2.452,1.391,1.391,0,0,1,19-2.035a1.368,1.368,0,0,1,.426,1.015,1.379,1.379,0,0,1-.422,1.011A1.379,1.379,0,0,1,18,.413ZM28-18Zm10.125,0h4.5v1.125h-4.5v1.125H37v1.125h4.5V-13.5H35.875v1.125H43.75v1.125h-9v1.125H33.625V-9H41.5V0H40.375V-1.125h-6.75V0H32.5V-7.875H31.375V-6.75H30.25v1.125H29.125V-6.75H30.25V-7.875h1.125V-9H32.5v-1.125h1.125V-11.25h-4.5v-1.125H34.75V-13.5H31.375v-1.125h4.5V-15.75H30.25v-1.125h7.875Zm-4.5,10.125V-6.75h6.75V-7.875Zm0,2.25V-4.5h6.75V-5.625Zm0,2.25V-2.25h6.75V-3.375ZM47.8-18Zm6.75,0h1.125v2.25H61.3v1.125H60.175V-13.5H59.05v1.125H57.925v1.125h-2.25v1.125H54.55V-9H52.3v1.125H48.925V-9H52.3v-1.125h2.25V-11.25h1.125v-1.125h2.25V-13.5H59.05v-1.125H53.425v2.25h-2.25v1.125H50.05v-1.125h1.125V-13.5H52.3v-1.125h1.125V-15.75H54.55Zm-1.125,5.625H54.55v1.125H53.425Zm4.5,1.125H59.05v1.125H57.925V-9H63.55v1.125H62.425V-6.75H61.3v1.125H60.175V-4.5H59.05v1.125H57.925V-2.25h-2.25v1.125H52.3V0H48.925V-1.125H52.3V-2.25h3.375V-4.5H56.8v1.125h1.125V-4.5H59.05V-5.625h1.125V-6.75H61.3V-7.875H55.675V-6.75H54.55v1.125H52.3V-4.5H50.05V-5.625H52.3V-6.75h2.25V-7.875h1.125V-9H56.8v-1.125h1.125ZM54.55-5.625h1.125V-4.5H54.55ZM67.6-18Zm2.25,1.125H82.225v4.5H69.85Zm1.125,1.125v2.25h2.25v-2.25Zm3.375,0v2.25h3.375v-2.25Zm4.5,0v2.25H81.1v-2.25Zm-7.875,4.5H81.1v7.875H78.85V-2.25H77.725V-3.375H74.35V-2.25H73.225v1.125H72.1V0H70.975V-1.125H72.1V-2.25h1.125V-3.375h-2.25ZM72.1-10.125V-9h7.875v-1.125Zm0,2.25V-6.75h7.875V-7.875Zm0,2.25V-4.5h7.875V-5.625ZM78.85-2.25h1.125v1.125H78.85Zm1.125,1.125H81.1V0H79.975ZM87.4-18Zm2.25,0h1.125v1.125H89.65Zm1.125,1.125H91.9v1.125H90.775Zm4.5,0h7.875V-9h-1.125v1.125H100.9V-9h1.125v-6.75h-2.25v3.375H98.65v2.25H97.525V-9H96.4v1.125H95.275V-9H96.4v-1.125h1.125v-2.25H98.65V-15.75H95.275ZM87.4-14.625h6.75V-13.5H87.4Zm7.875,0H96.4v2.25H95.275v1.125H94.15v-1.125h1.125Zm-6.75,2.25h4.5v1.125h-4.5Zm0,2.25h4.5V-9h-4.5Zm11.25,0H100.9V-9H99.775Zm-11.25,2.25h4.5v4.5H94.15v-2.25h1.125v2.25H94.15V-2.25H93.025v1.125H91.9V-2.25H89.65v1.125H88.525Zm9,0H98.65V-6.75H97.525ZM89.65-6.75v3.375H91.9V-6.75Zm9,0h1.125V-4.5H98.65ZM96.4-5.625h1.125v4.5H96.4Zm5.625,0h1.125V-4.5h-1.125ZM103.15-4.5h1.125v2.25H103.15ZM100.9-3.375h1.125V0h-4.5V-1.125H100.9ZM107.2-18Zm4.5,0h1.125v2.25H116.2v-1.125h1.125v1.125h5.625v1.125h-5.625V-13.5h4.5v1.125h-4.5v1.125h4.5v1.125h-4.5V-9h5.625v1.125H111.7V-6.75h-1.125v-5.625H109.45v1.125h-1.125v1.125H107.2V-11.25h1.125v-1.125h1.125V-13.5h1.125v-2.25H111.7Zm3.375,0H116.2v1.125h-1.125ZM111.7-14.625V-13.5h4.5v-1.125Zm0,2.25v1.125h4.5v-1.125Zm0,2.25V-9h4.5v-1.125Zm0,3.375h10.125V0H120.7V-1.125h-7.875V0H111.7Zm1.125,1.125V-2.25H120.7V-5.625Zm23.157-2.1a1.089,1.089,0,0,0-.846.306,1.044,1.044,0,0,0-.324.81,1.071,1.071,0,0,0,.306.792,1.047,1.047,0,0,0,.774.324.963.963,0,0,0,.4-.072,2.123,2.123,0,0,1-.378,1.206,2.6,2.6,0,0,1-1.152.792v.882a3.472,3.472,0,0,0,1.854-1.17,3.373,3.373,0,0,0,.7-2.106,2.091,2.091,0,0,0-.36-1.26A1.149,1.149,0,0,0,135.982-7.722ZM146.8-18Zm10.125,0h4.5v1.125h-4.5v1.125H155.8v1.125h4.5V-13.5h-5.625v1.125h7.875v1.125h-9v1.125h-1.125V-9H160.3V0h-1.125V-1.125h-6.75V0H151.3V-7.875h-1.125V-6.75H149.05v1.125h-1.125V-6.75h1.125V-7.875h1.125V-9H151.3v-1.125h1.125V-11.25h-4.5v-1.125h5.625V-13.5h-3.375v-1.125h4.5V-15.75H149.05v-1.125h7.875Zm-4.5,10.125V-6.75h6.75V-7.875Zm0,2.25V-4.5h6.75V-5.625Zm0,2.25V-2.25h6.75V-3.375ZM166.6-18Zm6.75,0h1.125v1.125H173.35Zm1.125,1.125H175.6v1.125h7.875v2.25H182.35v1.125h-1.125V-13.5h1.125v-1.125h-13.5V-13.5h-1.125v1.125H166.6V-13.5h1.125v-2.25h6.75Zm-2.25,3.375h1.125v2.25H171.1v1.125h-1.125V-9H168.85v-1.125h1.125V-11.25H171.1v-1.125h1.125Zm4.5,0h1.125v1.125h-1.125Zm1.125,1.125h1.125v1.125H177.85Zm1.125,1.125h2.25V-9H180.1v-1.125h-1.125ZM168.85-7.875h12.375V-6.75H175.6v4.5h6.75v1.125H167.725V-2.25h6.75v-4.5H168.85ZM186.4-18Zm2.25,1.125h12.375v4.5H188.65Zm1.125,1.125v2.25h2.25v-2.25Zm3.375,0v2.25h3.375v-2.25Zm4.5,0v2.25h2.25v-2.25Zm-7.875,4.5H199.9v7.875h-2.25V-2.25h-1.125V-3.375H193.15V-2.25h-1.125v1.125H190.9V0h-1.125V-1.125H190.9V-2.25h1.125V-3.375h-2.25Zm1.125,1.125V-9h7.875v-1.125Zm0,2.25V-6.75h7.875V-7.875Zm0,2.25V-4.5h7.875V-5.625Zm6.75,3.375h1.125v1.125H197.65Zm1.125,1.125H199.9V0h-1.125ZM206.2-18Zm2.25,0h1.125v1.125H208.45Zm1.125,1.125H210.7v1.125h-1.125Zm4.5,0h7.875V-9h-1.125v1.125H219.7V-9h1.125v-6.75h-2.25v3.375H217.45v2.25h-1.125V-9H215.2v1.125h-1.125V-9H215.2v-1.125h1.125v-2.25h1.125V-15.75h-3.375Zm-7.875,2.25h6.75V-13.5H206.2Zm7.875,0H215.2v2.25h-1.125v1.125H212.95v-1.125h1.125Zm-6.75,2.25h4.5v1.125h-4.5Zm0,2.25h4.5V-9h-4.5Zm11.25,0H219.7V-9h-1.125Zm-11.25,2.25h4.5v4.5h1.125v-2.25h1.125v2.25H212.95V-2.25h-1.125v1.125H210.7V-2.25h-2.25v1.125h-1.125Zm9,0h1.125V-6.75h-1.125ZM208.45-6.75v3.375h2.25V-6.75Zm9,0h1.125V-4.5H217.45ZM215.2-5.625h1.125v4.5H215.2Zm5.625,0h1.125V-4.5h-1.125ZM221.95-4.5h1.125v2.25H221.95ZM219.7-3.375h1.125V0h-4.5V-1.125H219.7ZM226-18Zm9,0h1.125v2.25H239.5V-18h1.125v2.25h2.25v1.125h-2.25V-13.5h1.125v1.125h-1.125v1.125h2.25v1.125h-4.5V-9h3.375v4.5h1.125v1.125H241.75v2.25h-1.125V0H239.5V-1.125h1.125v-2.25H235V0h-1.125V-3.375H232.75V-4.5h1.125V-9h3.375v-1.125h-4.5V-11.25H235v-1.125h-1.125V-13.5H235v-1.125h-2.25V-15.75H235Zm-7.875,1.125h4.5v11.25h-4.5Zm1.125,1.125v2.25h2.25v-2.25Zm7.875,1.125V-13.5H239.5v-1.125Zm-7.875,2.25v2.25h2.25v-2.25Zm7.875,0v1.125H239.5v-1.125ZM228.25-9v2.25h2.25V-9ZM235-7.875V-6.75h2.25V-7.875Zm3.375,0V-6.75h2.25V-7.875ZM235-5.625V-4.5h2.25V-5.625Zm3.375,0V-4.5h2.25V-5.625ZM227.125-4.5h1.125v2.25h-1.125v1.125H226V-2.25h1.125Zm2.25,0H230.5v1.125h-1.125ZM230.5-3.375h1.125v2.25H230.5Zm7.875,1.125H239.5v1.125h-1.125Z" transform="translate(4966 5936)" fill="#15172a"/>
  </g>
</svg>
