<svg xmlns="http://www.w3.org/2000/svg" width="580.333" height="61.75" viewBox="0 0 580.333 61.75">
  <g id="g8-c1" transform="translate(-4948 -6362)">
    <g id="Path_54355" data-name="Path 54355" transform="translate(4948 6363)" fill="#4e332d">
      <path d="M 553.7891235351562 58 L 6.210928440093994 58 L 6.210928440093994 56.52785873413086 L 4.210928440093994 56.52785873413086 L 2 56.52785873413086 L 2 3.472357034683228 L 4.210928440093994 3.472357034683228 L 6.210928440093994 3.472357034683228 L 6.210928440093994 2 L 553.7891235351562 2 L 553.7891235351562 3.472357034683228 L 555.7891235351562 3.472357034683228 L 558 3.472357034683228 L 557.9999389648438 56.52785873413086 L 555.7891235351562 56.52785873413086 L 553.7891235351562 56.52785873413086 L 553.7891235351562 58 Z" stroke="none"/>
      <path d="M 551.7891235351562 56 L 551.7891235351562 54.52785873413086 L 555.7891235351562 54.52785873413086 L 555.9999389648438 54.52785873413086 L 556 5.472357273101807 L 555.7891235351562 5.472357273101807 L 551.7891235351562 5.472357273101807 L 551.7891235351562 4 L 8.210928916931152 4 L 8.210928916931152 5.472357273101807 L 4.210928440093994 5.472357273101807 L 4 5.472357273101807 L 4 54.52785873413086 L 4.210928440093994 54.52785873413086 L 8.210928916931152 54.52785873413086 L 8.210928916931152 56 L 551.7891235351562 56 M 555.7891235351562 60 L 4.210928440093994 60 L 4.210928440093994 58.52785873413086 L 5.684341886080801e-14 58.52785873413086 L 5.684341886080801e-14 1.472357153892517 L 4.210928440093994 1.472357153892517 L 4.210928440093994 3.552713678800501e-15 L 555.7891235351562 3.552713678800501e-15 L 555.7891235351562 1.472357153892517 L 560 1.472357153892517 L 559.9999389648438 58.52785873413086 L 555.7891235351562 58.52785873413086 L 555.7891235351562 59.9995002746582 L 555.7891235351562 60 Z" stroke="none" fill="#232323"/>
    </g>
    <path id="Path_54361" data-name="Path 54361" d="M9.563-.158A7.946,7.946,0,0,1,6.82.413,5.371,5.371,0,0,1,3.876-.444,5.6,5.6,0,0,1,1.784-2.993,9.383,9.383,0,0,1,1.037-6.82a9.4,9.4,0,0,1,.738-3.806,5.631,5.631,0,0,1,2.083-2.558,5.341,5.341,0,0,1,2.962-.87,7.946,7.946,0,0,1,2.742.571v1.617a5.587,5.587,0,0,0-2.812-.817,2.964,2.964,0,0,0-1.929.721A4.988,4.988,0,0,0,3.41-9.848,8.36,8.36,0,0,0,2.874-6.82a8.3,8.3,0,0,0,.554,3.067,5,5,0,0,0,1.415,2.1,2.956,2.956,0,0,0,1.907.7,5.62,5.62,0,0,0,2.813-.817ZM18,.413a1.379,1.379,0,0,1-1.011-.422,1.379,1.379,0,0,1-.422-1.011,1.368,1.368,0,0,1,.426-1.015A1.391,1.391,0,0,1,18-2.452,1.391,1.391,0,0,1,19-2.035a1.368,1.368,0,0,1,.426,1.015,1.379,1.379,0,0,1-.422,1.011A1.379,1.379,0,0,1,18,.413ZM28-18Zm3.375,0H32.5v4.5h2.25v-1.125H37V-15.75H34.75v-1.125H37V-18h1.125v1.125H41.5V-18h1.125v1.125h2.25v1.125h-2.25v1.125h2.25v3.375h-4.5v1.125H39.25V-11.25h1.125v-3.375H41.5V-15.75H38.125v1.125H39.25v3.375H38.125v1.125H37V-9h3.375v-1.125H41.5V-9h3.375v1.125h-4.5V-6.75H43.75v1.125H40.375V-4.5H43.75v1.125H40.375V-2.25h4.5v1.125H37V0H35.875V-7.875H34.75V-6.75H33.625V-7.875H34.75V-9h1.125v-1.125H37V-11.25H34.75v-1.125H32.5v1.125h1.125v1.125H32.5V0H31.375V-9H30.25v2.25H29.125v1.125H28V-6.75h1.125V-9H30.25v-2.25h1.125v-1.125H28V-13.5h3.375Zm4.5,4.5v1.125h2.25V-13.5Zm5.625,0v1.125h2.25V-13.5Zm-7.875,3.375H34.75V-9H33.625ZM37-7.875V-6.75h2.25V-7.875Zm0,2.25V-4.5h2.25V-5.625Zm0,2.25V-2.25h2.25V-3.375ZM47.8-18Zm2.25,0h1.125v1.125H50.05Zm1.125,1.125H52.3v1.125H51.175Zm4.5,0H59.05V-13.5H57.925v1.125H56.8v1.125H55.675v1.125H54.55V-11.25h1.125v-1.125H56.8V-13.5h1.125v-2.25h-2.25Zm4.5,0H61.3v1.125h1.125v-1.125H63.55v1.125H62.425v2.25H63.55v-1.125h1.125V-13.5H63.55v2.25H62.425v1.125H56.8V-11.25h5.625v-1.125H61.3v-2.25H60.175ZM47.8-14.625h6.75V-13.5H47.8Zm7.875,0H56.8V-13.5H55.675Zm-6.75,2.25h4.5v1.125h-4.5ZM63.55-11.25h1.125v1.125H63.55ZM48.925-10.125h4.5V-9h-4.5ZM56.8-9h5.625v5.625H61.3V-2.25h3.375v1.125H54.55V-2.25h3.375V-3.375H59.05V-2.25h1.125V-3.375H61.3V-4.5H57.925v1.125H56.8ZM48.925-7.875h4.5v6.75H52.3V-2.25H50.05v1.125H48.925Zm9,0v2.25H61.3v-2.25ZM50.05-6.75v3.375H52.3V-6.75ZM67.6-18Zm9,0h1.125v2.25H83.35v3.375H82.225v1.125h-2.25v-1.125h2.25v-2.25H76.6v2.25H75.475v1.125H74.35v-1.125h1.125v-2.25H76.6Zm-6.75,1.125h1.125v1.125H69.85Zm1.125,1.125H72.1v2.25H70.975ZM67.6-13.5h1.125v1.125H67.6Zm1.125,1.125H69.85v2.25H68.725ZM72.1-11.25h1.125V-9H72.1v2.25H70.975v5.625H69.85v-4.5H67.6V-6.75h3.375V-9H72.1Zm3.375,1.125H83.35v2.25H82.225v2.25H81.1V-4.5H79.975v1.125H78.85V-2.25H77.725v1.125h-2.25V0h-2.25V-1.125h2.25V-2.25h2.25V-3.375H78.85V-4.5h1.125V-5.625H81.1v-2.25h1.125V-9h-4.5v2.25H76.6V-9H75.475Zm2.25,3.375H78.85V-4.5H77.725Zm2.25,3.375H81.1V-2.25H79.975ZM81.1-2.25h3.375v1.125H83.35V0H82.225V-1.125H81.1ZM87.4-18Zm6.75,0h1.125v2.25h9v1.125H94.15v2.25h6.75v11.25H99.775V0H98.65V-1.125h1.125V-4.5h-6.75V0H91.9V-9H90.775v1.125H89.65V-6.75H88.525v1.125H87.4V-6.75h1.125V-7.875H89.65V-9h1.125v-1.125H91.9v-2.25h1.125v-2.25H87.4V-15.75h6.75Zm-1.125,6.75V-9h6.75v-2.25Zm0,3.375v2.25h6.75v-2.25Zm4.5,5.625H98.65v1.125H97.525ZM107.2-18Zm1.125,0h1.125v1.125h-1.125Zm1.125,1.125h1.125v2.25H109.45Zm2.25,0h4.5v5.625h-3.375v3.375H116.2V-2.25h-1.125v1.125H113.95V0h-1.125V-1.125h1.125V-2.25h1.125v-4.5H111.7V-7.875h-1.125v6.75H109.45v-4.5H107.2V-6.75h2.25V-7.875h1.125V-9H111.7v-3.375h3.375V-15.75H111.7Zm5.625,0h5.625v1.125h-4.5v1.125h3.375V-13.5H118.45v1.125h3.375v1.125H118.45v1.125h5.625V-9H120.7v3.375h-1.125V-9H118.45v6.75h1.125v1.125H118.45V0h-1.125V-9H116.2v-1.125h1.125ZM107.2-13.5h1.125v1.125H107.2Zm1.125,1.125h1.125v2.25h-1.125Zm14.625,4.5h1.125V-6.75H122.95v1.125h-1.125v2.25H120.7v-2.25h1.125V-6.75h1.125Zm-1.125,4.5h1.125V-2.25h-1.125ZM111.7-2.25h1.125v1.125H111.7Zm11.25,0h1.125v1.125H122.95ZM127-18Zm11.25,0h1.125v4.5h3.375v1.125h-3.375V-9h4.5v1.125h-4.5V-6.75H138.25V-4.5h-1.125v2.25H136v1.125h-1.125V0H133.75V-1.125h1.125V-2.25H136V-4.5h1.125V-6.75h1.125V-7.875h-4.5V-6.75H131.5V-4.5h3.375v1.125H131.5V-2.25h-2.25v1.125h-1.125V-2.25H127V-3.375h1.125v-4.5h1.125v4.5h1.125V-11.25h-2.25v-5.625h5.625v5.625H131.5v3.375h2.25V-9h4.5v-3.375H136v1.125h-1.125v-1.125H136V-15.75h1.125v2.25h1.125Zm-9,2.25v3.375h3.375V-15.75Zm10.125,9H140.5V-4.5h-1.125ZM140.5-4.5h1.125v2.25H140.5Zm1.125,2.25h2.25v1.125H142.75V0h-1.125ZM146.8-18Zm3.375,0H151.3v3.375h-1.125V-6.75H151.3V-9h12.375v2.25H162.55v1.125h-1.125V-6.75h1.125V-7.875H152.425V-6.75H151.3v1.125h-1.125V0H149.05V-11.25h-1.125v1.125H146.8V-11.25h1.125v-1.125h1.125v-2.25h1.125Zm5.625,0h1.125v1.125H155.8Zm1.125,1.125h1.125v1.125h4.5v1.125H152.425V-15.75h4.5ZM153.55-13.5h7.875v3.375H153.55Zm1.125,1.125v1.125H160.3v-1.125ZM153.55-6.75h6.75v1.125h-2.25v4.5h-1.125V0H155.8V-1.125h1.125v-4.5H153.55Zm1.125,4.5H155.8v1.125h-1.125Z" transform="translate(4966 6402)" fill="#fff"/>
    <g id="Group_41411" data-name="Group 41411" transform="translate(5062 6427.75) rotate(-90)">
      <rect id="Rectangle_33782" data-name="Rectangle 33782" width="3.431" height="6.861" transform="translate(52.028 459.472)" fill="#f77622"/>
      <rect id="Rectangle_33783" data-name="Rectangle 33783" width="3.431" height="10.292" transform="translate(10.861 456.042)" fill="#f77622"/>
      <rect id="Rectangle_33784" data-name="Rectangle 33784" width="3.431" height="3.431" transform="translate(55.458 456.042)" fill="#f77622"/>
      <rect id="Rectangle_33785" data-name="Rectangle 33785" width="3.431" height="3.431" transform="translate(58.889 452.611)" fill="#f77622"/>
      <rect id="Rectangle_33786" data-name="Rectangle 33786" width="3.431" height="3.431" transform="translate(7.431 452.611)" fill="#f77622"/>
      <rect id="Rectangle_33787" data-name="Rectangle 33787" width="3.431" height="6.861" transform="translate(24.583 421.736)" fill="#f77622"/>
      <rect id="Rectangle_33788" data-name="Rectangle 33788" width="3.431" height="3.431" transform="translate(14.292 425.167)" fill="#f77622"/>
      <rect id="Rectangle_33789" data-name="Rectangle 33789" width="3.431" height="6.861" transform="translate(38.306 418.306)" fill="#f77622"/>
      <rect id="Rectangle_33790" data-name="Rectangle 33790" width="3.431" height="6.861" transform="translate(52.028 414.875)" fill="#f77622"/>
      <path id="Path_53385" data-name="Path 53385" d="M30.722,387.43H27.292V384H17v3.43h3.431v3.431h6.861v3.431H20.431v3.43h6.861v6.861H20.431v3.43h6.861v13.722h3.431v30.875h3.431V418.305H30.722Z" transform="translate(31.597)" fill="#f77622"/>
      <rect id="Rectangle_33791" data-name="Rectangle 33791" width="3.431" height="37.736" transform="translate(4 414.875)" fill="#f77622"/>
      <path id="Path_53386" data-name="Path 53386" d="M5,392v3.431H15.292v6.861h3.431V392Z" transform="translate(2.431 19.445)" fill="#f77622"/>
      <path id="Path_53387" data-name="Path 53387" d="M9,391v3.431H19.292v6.861h3.431V391Z" transform="translate(12.153 17.014)" fill="#f77622"/>
      <path id="Path_53388" data-name="Path 53388" d="M23.292,402.153H13v3.43H23.292v6.861h3.431V385H23.292Z" transform="translate(21.875 2.431)" fill="#f77622"/>
      <path id="Path_53389" data-name="Path 53389" d="M49.6,463.9v-6.861h3.431v-3.43h3.431V450.18h3.431V419.305H56.458V405.583H49.6v-3.43h6.861v-6.861H49.6v-3.43h6.861V388.43H49.6V385H46.167v27.445H42.736v-6.861H32.444v10.292H29.014v-6.861H18.722v10.292H15.292v-6.861H5V450.18H8.431v3.431h3.431V463.9Zm3.431-51.458v6.861H49.6v-6.861Zm-13.722,3.43v6.861H35.875v-6.861Zm-13.722,3.431v6.861H22.153v-6.861Zm-10.292,6.861H11.861v-3.43h3.431Z" transform="translate(2.431 2.431)" fill="#feae34"/>
    </g>
  </g>
</svg>
