<svg xmlns="http://www.w3.org/2000/svg" width="740.549" height="270.308" viewBox="0 0 740.549 270.308">
  <g id="g8-img" transform="translate(-213 -419)">
    <g id="Exclusion_16" data-name="Exclusion 16" transform="translate(213 419.001)" fill="#232323">
      <path d="M 646 223.997802734375 L 6.872583389282227 223.997802734375 L 6.872583389282227 220.4512176513672 L 6.872583389282227 218.4512176513672 L 4.872583389282227 218.4512176513672 L 2 218.4512176513672 L 2 7.546796321868896 L 4.872583389282227 7.546796321868896 L 6.872583389282227 7.546796321868896 L 6.872583389282227 5.546796321868896 L 6.872583389282227 2.001379728317261 L 641.99951171875 2.001379728317261 L 641.99951171875 5.077212810516357 L 641.99951171875 7.077212810516357 L 643.99951171875 7.077212810516357 L 646 7.077212810516357 L 646 223.997802734375 Z" stroke="none"/>
      <path d="M 644 221.997802734375 L 644 9.077213287353516 L 643.99951171875 9.077213287353516 L 639.99951171875 9.077213287353516 L 639.99951171875 5.077212810516357 L 639.99951171875 4.001379489898682 L 8.872583389282227 4.001379489898682 L 8.872583389282227 5.546796321868896 L 8.872583389282227 9.546796798706055 L 4.872583389282227 9.546796798706055 L 4 9.546796798706055 L 4 216.4512176513672 L 4.872583389282227 216.4512176513672 L 8.872583389282227 216.4512176513672 L 8.872583389282227 220.4512176513672 L 8.872583389282227 221.997802734375 L 644 221.997802734375 M 648 225.9990386962891 L 648 225.997802734375 L 4.872583389282227 225.997802734375 L 4.872583389282227 220.4512176513672 L 5.684341886080801e-14 220.4512176513672 L 5.684341886080801e-14 5.546796321868896 L 4.872583389282227 5.546796321868896 L 4.872583389282227 0.001379659050144255 L 643.99951171875 0.001379659050144255 L 643.99951171875 5.077212810516357 L 648 5.077212810516357 L 648 225.997802734375 L 648 225.9990386962891 Z M 648 0.002629658905789256 L 643.99951171875 0.001379659050144255 L 648 -0.00095367431640625 L 648 0.0002963256847579032 L 648 0.002629658905789256 Z" stroke="none" fill="#fff"/>
    </g>
    <path id="Path_54298" data-name="Path 54298" d="M11.7-14.886V-3.852h1.314V-13.68H17.46v-1.206ZM19.8-18Zm10.125,0h4.5v1.125h-4.5v1.125H28.8v1.125h4.5V-13.5H27.675v1.125H35.55v1.125h-9v1.125H25.425V-9H33.3V0H32.175V-1.125h-6.75V0H24.3V-7.875H23.175V-6.75H22.05v1.125H20.925V-6.75H22.05V-7.875h1.125V-9H24.3v-1.125h1.125V-11.25h-4.5v-1.125H26.55V-13.5H23.175v-1.125h4.5V-15.75H22.05v-1.125h7.875Zm-4.5,10.125V-6.75h6.75V-7.875Zm0,2.25V-4.5h6.75V-5.625Zm0,2.25V-2.25h6.75V-3.375ZM39.6-18Zm6.75,0h1.125v2.25H53.1v1.125H51.975V-13.5H50.85v1.125H49.725v1.125h-2.25v1.125H46.35V-9H44.1v1.125H40.725V-9H44.1v-1.125h2.25V-11.25h1.125v-1.125h2.25V-13.5H50.85v-1.125H45.225v2.25h-2.25v1.125H41.85v-1.125h1.125V-13.5H44.1v-1.125h1.125V-15.75H46.35Zm-1.125,5.625H46.35v1.125H45.225Zm4.5,1.125H50.85v1.125H49.725V-9H55.35v1.125H54.225V-6.75H53.1v1.125H51.975V-4.5H50.85v1.125H49.725V-2.25h-2.25v1.125H44.1V0H40.725V-1.125H44.1V-2.25h3.375V-4.5H48.6v1.125h1.125V-4.5H50.85V-5.625h1.125V-6.75H53.1V-7.875H47.475V-6.75H46.35v1.125H44.1V-4.5H41.85V-5.625H44.1V-6.75h2.25V-7.875h1.125V-9H48.6v-1.125h1.125ZM46.35-5.625h1.125V-4.5H46.35ZM59.4-18Zm2.25,1.125H74.025v4.5H61.65Zm1.125,1.125v2.25h2.25v-2.25Zm3.375,0v2.25h3.375v-2.25Zm4.5,0v2.25H72.9v-2.25Zm-7.875,4.5H72.9v7.875H70.65V-2.25H69.525V-3.375H66.15V-2.25H65.025v1.125H63.9V0H62.775V-1.125H63.9V-2.25h1.125V-3.375h-2.25ZM63.9-10.125V-9h7.875v-1.125Zm0,2.25V-6.75h7.875V-7.875Zm0,2.25V-4.5h7.875V-5.625ZM70.65-2.25h1.125v1.125H70.65Zm1.125,1.125H72.9V0H71.775ZM79.2-18Zm2.25,0h1.125v1.125H81.45Zm1.125,1.125H83.7v1.125H82.575Zm4.5,0H94.95V-9H93.825v1.125H92.7V-9h1.125v-6.75h-2.25v3.375H90.45v2.25H89.325V-9H88.2v1.125H87.075V-9H88.2v-1.125h1.125v-2.25H90.45V-15.75H87.075ZM79.2-14.625h6.75V-13.5H79.2Zm7.875,0H88.2v2.25H87.075v1.125H85.95v-1.125h1.125Zm-6.75,2.25h4.5v1.125h-4.5Zm0,2.25h4.5V-9h-4.5Zm11.25,0H92.7V-9H91.575Zm-11.25,2.25h4.5v4.5H85.95v-2.25h1.125v2.25H85.95V-2.25H84.825v1.125H83.7V-2.25H81.45v1.125H80.325Zm9,0H90.45V-6.75H89.325ZM81.45-6.75v3.375H83.7V-6.75Zm9,0h1.125V-4.5H90.45ZM88.2-5.625h1.125v4.5H88.2Zm5.625,0H94.95V-4.5H93.825ZM94.95-4.5h1.125v2.25H94.95ZM92.7-3.375h1.125V0h-4.5V-1.125H92.7ZM99-18Zm9,0h1.125v2.25H112.5V-18h1.125v2.25h2.25v1.125h-2.25V-13.5h1.125v1.125h-1.125v1.125h2.25v1.125h-4.5V-9h3.375v4.5h1.125v1.125H114.75v2.25h-1.125V0H112.5V-1.125h1.125v-2.25H108V0h-1.125V-3.375H105.75V-4.5h1.125V-9h3.375v-1.125h-4.5V-11.25H108v-1.125h-1.125V-13.5H108v-1.125h-2.25V-15.75H108Zm-7.875,1.125h4.5v11.25h-4.5Zm1.125,1.125v2.25h2.25v-2.25Zm7.875,1.125V-13.5H112.5v-1.125Zm-7.875,2.25v2.25h2.25v-2.25Zm7.875,0v1.125H112.5v-1.125ZM101.25-9v2.25h2.25V-9ZM108-7.875V-6.75h2.25V-7.875Zm3.375,0V-6.75h2.25V-7.875ZM108-5.625V-4.5h2.25V-5.625Zm3.375,0V-4.5h2.25V-5.625ZM100.125-4.5h1.125v2.25h-1.125v1.125H99V-2.25h1.125Zm2.25,0H103.5v1.125h-1.125ZM103.5-3.375h1.125v2.25H103.5Zm7.875,1.125H112.5v1.125h-1.125Zm16.407-5.472a1.089,1.089,0,0,0-.846.306,1.044,1.044,0,0,0-.324.81,1.071,1.071,0,0,0,.306.792,1.047,1.047,0,0,0,.774.324.963.963,0,0,0,.4-.072,2.123,2.123,0,0,1-.378,1.206,2.6,2.6,0,0,1-1.152.792v.882a3.473,3.473,0,0,0,1.854-1.17,3.373,3.373,0,0,0,.7-2.106,2.091,2.091,0,0,0-.36-1.26A1.149,1.149,0,0,0,127.782-7.722ZM138.6-18Zm10.125,0h4.5v1.125h-4.5v1.125H147.6v1.125h4.5V-13.5h-5.625v1.125h7.875v1.125h-9v1.125h-1.125V-9H152.1V0h-1.125V-1.125h-6.75V0H143.1V-7.875h-1.125V-6.75H140.85v1.125h-1.125V-6.75h1.125V-7.875h1.125V-9H143.1v-1.125h1.125V-11.25h-4.5v-1.125h5.625V-13.5h-3.375v-1.125h4.5V-15.75H140.85v-1.125h7.875Zm-4.5,10.125V-6.75h6.75V-7.875Zm0,2.25V-4.5h6.75V-5.625Zm0,2.25V-2.25h6.75V-3.375ZM158.4-18Zm6.75,0h1.125v1.125H165.15Zm1.125,1.125H167.4v1.125h7.875v2.25H174.15v1.125h-1.125V-13.5h1.125v-1.125h-13.5V-13.5h-1.125v1.125H158.4V-13.5h1.125v-2.25h6.75Zm-2.25,3.375h1.125v2.25H162.9v1.125h-1.125V-9H160.65v-1.125h1.125V-11.25H162.9v-1.125h1.125Zm4.5,0h1.125v1.125h-1.125Zm1.125,1.125h1.125v1.125H169.65Zm1.125,1.125h2.25V-9H171.9v-1.125h-1.125ZM160.65-7.875h12.375V-6.75H167.4v4.5h6.75v1.125H159.525V-2.25h6.75v-4.5H160.65ZM178.2-18Zm2.25,1.125h12.375v4.5H180.45Zm1.125,1.125v2.25h2.25v-2.25Zm3.375,0v2.25h3.375v-2.25Zm4.5,0v2.25h2.25v-2.25Zm-7.875,4.5H191.7v7.875h-2.25V-2.25h-1.125V-3.375H184.95V-2.25h-1.125v1.125H182.7V0h-1.125V-1.125H182.7V-2.25h1.125V-3.375h-2.25Zm1.125,1.125V-9h7.875v-1.125Zm0,2.25V-6.75h7.875V-7.875Zm0,2.25V-4.5h7.875V-5.625Zm6.75,3.375h1.125v1.125H189.45Zm1.125,1.125H191.7V0h-1.125ZM198-18Zm2.25,0h1.125v1.125H200.25Zm1.125,1.125H202.5v1.125h-1.125Zm4.5,0h7.875V-9h-1.125v1.125H211.5V-9h1.125v-6.75h-2.25v3.375H209.25v2.25h-1.125V-9H207v1.125h-1.125V-9H207v-1.125h1.125v-2.25h1.125V-15.75h-3.375ZM198-14.625h6.75V-13.5H198Zm7.875,0H207v2.25h-1.125v1.125H204.75v-1.125h1.125Zm-6.75,2.25h4.5v1.125h-4.5Zm0,2.25h4.5V-9h-4.5Zm11.25,0H211.5V-9h-1.125Zm-11.25,2.25h4.5v4.5h1.125v-2.25h1.125v2.25H204.75V-2.25h-1.125v1.125H202.5V-2.25h-2.25v1.125h-1.125Zm9,0h1.125V-6.75h-1.125ZM200.25-6.75v3.375h2.25V-6.75Zm9,0h1.125V-4.5H209.25ZM207-5.625h1.125v4.5H207Zm5.625,0h1.125V-4.5h-1.125ZM213.75-4.5h1.125v2.25H213.75ZM211.5-3.375h1.125V0h-4.5V-1.125H211.5ZM217.8-18Zm4.5,0h1.125v2.25H226.8v-1.125h1.125v1.125h5.625v1.125h-5.625V-13.5h4.5v1.125h-4.5v1.125h4.5v1.125h-4.5V-9h5.625v1.125H222.3V-6.75h-1.125v-5.625H220.05v1.125h-1.125v1.125H217.8V-11.25h1.125v-1.125h1.125V-13.5h1.125v-2.25H222.3Zm3.375,0H226.8v1.125h-1.125ZM222.3-14.625V-13.5h4.5v-1.125Zm0,2.25v1.125h4.5v-1.125Zm0,2.25V-9h4.5v-1.125Zm0,3.375h10.125V0H231.3V-1.125h-7.875V0H222.3Zm1.125,1.125V-2.25H231.3V-5.625Zm19.161-3.483V.72H238.14V1.926h5.76V-9.108Zm23.814.36a2.31,2.31,0,0,0-1.656.648,2.1,2.1,0,0,0-.684,1.62,2.06,2.06,0,0,0,.684,1.6,2.326,2.326,0,0,0,1.656.666,2.357,2.357,0,0,0,1.656-.666,2.15,2.15,0,0,0,.684-1.6,2.161,2.161,0,0,0-.684-1.62A2.341,2.341,0,0,0,266.4-8.748Zm0,.954a1.363,1.363,0,0,1,.954.378,1.256,1.256,0,0,1,.414.936,1.285,1.285,0,0,1-.414.936,1.363,1.363,0,0,1-.954.378,1.3,1.3,0,0,1-.954-.378,1.194,1.194,0,0,1-.414-.936,1.17,1.17,0,0,1,.414-.936A1.3,1.3,0,0,1,266.4-7.794ZM0,8ZM2.25,8H3.375V9.125H2.25ZM3.375,9.125H4.5V10.25H3.375Zm4.5,0H15.75V17H14.625v1.125H13.5V17h1.125V10.25h-2.25v3.375H11.25v2.25H10.125V17H9v1.125H7.875V17H9V15.875h1.125v-2.25H11.25V10.25H7.875ZM0,11.375H6.75V12.5H0Zm7.875,0H9v2.25H7.875V14.75H6.75V13.625H7.875Zm-6.75,2.25h4.5V14.75h-4.5Zm0,2.25h4.5V17h-4.5Zm11.25,0H13.5V17H12.375Zm-11.25,2.25h4.5v4.5H6.75v-2.25H7.875v2.25H6.75V23.75H5.625v1.125H4.5V23.75H2.25v1.125H1.125Zm9,0H11.25V19.25H10.125ZM2.25,19.25v3.375H4.5V19.25Zm9,0h1.125V21.5H11.25ZM9,20.375h1.125v4.5H9Zm5.625,0H15.75V21.5H14.625ZM15.75,21.5h1.125v2.25H15.75ZM13.5,22.625h1.125V26h-4.5V24.875H13.5ZM19.8,8Zm9,0h1.125v2.25H33.3V8h1.125v2.25h2.25v1.125h-2.25V12.5H35.55v1.125H34.425V14.75h2.25v1.125h-4.5V17H35.55v4.5h1.125v1.125H35.55v2.25H34.425V26H33.3V24.875h1.125v-2.25H28.8V26H27.675V22.625H26.55V21.5h1.125V17H31.05V15.875h-4.5V14.75H28.8V13.625H27.675V12.5H28.8V11.375H26.55V10.25H28.8ZM20.925,9.125h4.5v11.25h-4.5ZM22.05,10.25V12.5H24.3V10.25Zm7.875,1.125V12.5H33.3V11.375Zm-7.875,2.25v2.25H24.3v-2.25Zm7.875,0V14.75H33.3V13.625ZM22.05,17v2.25H24.3V17Zm6.75,1.125V19.25h2.25V18.125Zm3.375,0V19.25h2.25V18.125ZM28.8,20.375V21.5h2.25V20.375Zm3.375,0V21.5h2.25V20.375ZM20.925,21.5H22.05v2.25H20.925v1.125H19.8V23.75h1.125Zm2.25,0H24.3v1.125H23.175ZM24.3,22.625h1.125v2.25H24.3Zm7.875,1.125H33.3v1.125H32.175ZM39.6,8Zm3.375,0H44.1v4.5h2.25V11.375H48.6V10.25H46.35V9.125H48.6V8h1.125V9.125H53.1V8h1.125V9.125h2.25V10.25h-2.25v1.125h2.25V14.75h-4.5v1.125H50.85V14.75h1.125V11.375H53.1V10.25H49.725v1.125H50.85V14.75H49.725v1.125H48.6V17h3.375V15.875H53.1V17h3.375v1.125h-4.5V19.25H55.35v1.125H51.975V21.5H55.35v1.125H51.975V23.75h4.5v1.125H48.6V26H47.475V18.125H46.35V19.25H45.225V18.125H46.35V17h1.125V15.875H48.6V14.75H46.35V13.625H44.1V14.75h1.125v1.125H44.1V26H42.975V17H41.85v2.25H40.725v1.125H39.6V19.25h1.125V17H41.85V14.75h1.125V13.625H39.6V12.5h3.375Zm4.5,4.5v1.125h2.25V12.5Zm5.625,0v1.125h2.25V12.5Zm-7.875,3.375H46.35V17H45.225Zm3.375,2.25V19.25h2.25V18.125Zm0,2.25V21.5h2.25V20.375Zm0,2.25V23.75h2.25V22.625ZM59.4,8Zm2.25,0h1.125V9.125H61.65Zm1.125,1.125H63.9V10.25H62.775Zm4.5,0H70.65V12.5H69.525v1.125H68.4V14.75H67.275v1.125H66.15V14.75h1.125V13.625H68.4V12.5h1.125V10.25h-2.25Zm4.5,0H72.9V10.25h1.125V9.125H75.15V10.25H74.025V12.5H75.15V11.375h1.125V12.5H75.15v2.25H74.025v1.125H68.4V14.75h5.625V13.625H72.9v-2.25H71.775ZM59.4,11.375h6.75V12.5H59.4Zm7.875,0H68.4V12.5H67.275Zm-6.75,2.25h4.5V14.75h-4.5ZM75.15,14.75h1.125v1.125H75.15ZM60.525,15.875h4.5V17h-4.5ZM68.4,17h5.625v5.625H72.9V23.75h3.375v1.125H66.15V23.75h3.375V22.625H70.65V23.75h1.125V22.625H72.9V21.5H69.525v1.125H68.4Zm-7.875,1.125h4.5v6.75H63.9V23.75H61.65v1.125H60.525Zm9,0v2.25H72.9v-2.25ZM61.65,19.25v3.375H63.9V19.25ZM88.2,15.038a1.011,1.011,0,0,0-.792.342.979.979,0,0,0-.306.774,1.031,1.031,0,0,0,.306.774,1.058,1.058,0,0,0,.792.324,1.087,1.087,0,0,0,.792-.324,1.047,1.047,0,0,0,.324-.774.992.992,0,0,0-.324-.774A1.037,1.037,0,0,0,88.2,15.038Zm0,6.588a1.011,1.011,0,0,0-.792.342.979.979,0,0,0-.306.774,1.031,1.031,0,0,0,.306.774,1.058,1.058,0,0,0,.792.324,1.087,1.087,0,0,0,.792-.324,1.047,1.047,0,0,0,.324-.774.992.992,0,0,0-.324-.774A1.037,1.037,0,0,0,88.2,21.626ZM99,8Zm7.875,0H108v3.375h2.25V10.25h1.125V9.125H112.5V10.25h-1.125v1.125h4.5v2.25H114.75V14.75h-1.125V13.625h1.125V12.5h-13.5v1.125h-1.125V14.75H99V13.625h1.125v-2.25H103.5V10.25h1.125v1.125h2.25Zm-4.5,1.125H103.5V10.25h-1.125Zm1.125,4.5h7.875v4.5H103.5Zm1.125,1.125V17h5.625V14.75Zm-3.375,4.5h12.375V26H112.5V24.875H102.375V26H101.25Zm1.125,1.125V21.5h4.5V20.375Zm5.625,0V21.5h4.5V20.375Zm-5.625,2.25V23.75h4.5V22.625Zm5.625,0V23.75h4.5V22.625ZM118.8,8Zm2.25,1.125h4.5V14.75h1.125V13.625H127.8v-4.5h5.625v4.5H132.3V10.25h-3.375v3.375H127.8V14.75h-1.125v1.125H125.55v9h-1.125V26H123.3V24.875h1.125V19.25h-2.25v3.375H121.05v2.25h-1.125V26H118.8V24.875h1.125v-2.25h1.125Zm1.125,1.125v3.375h2.25V10.25Zm11.25,3.375h2.25V14.75h-2.25Zm-11.25,1.125v3.375h2.25V14.75Zm4.5,1.125h7.875v2.25h-1.125v2.25H132.3V21.5h-1.125v1.125H130.05V23.75h-1.125v1.125H127.8V26h-2.25V24.875h2.25V23.75h1.125V22.625h1.125V21.5h1.125V20.375H132.3v-2.25h1.125V17h-4.5v2.25H127.8V17h-1.125Zm2.25,3.375h1.125V21.5h-1.125Zm2.25,3.375H132.3V23.75h-1.125Zm-9,1.125H123.3v1.125h-1.125Zm10.125,0h3.375v1.125H134.55V26h-1.125V24.875H132.3ZM138.6,8Zm3.375,0H143.1V9.125h12.375V10.25h-4.5v1.125h3.375V14.75H143.1V11.375h3.375V10.25H143.1v1.125h-1.125V26H140.85V14.75h-1.125v1.125H138.6V14.75h1.125V13.625h1.125v-2.25h1.125Zm5.625,2.25v1.125h2.25V10.25Zm-3.375,2.25v1.125h2.25V12.5Zm3.375,0v1.125h2.25V12.5Zm3.375,0v1.125h2.25V12.5Zm-6.75,3.375h9V23.75H152.1v1.125h-1.125V23.75h-4.5v1.125H145.35V26h-1.125V24.875h1.125V23.75h-1.125ZM145.35,17v1.125h6.75V17Zm0,2.25v1.125h6.75V19.25Zm0,2.25v1.125h6.75V21.5Zm6.75,3.375h1.125V26H152.1ZM158.4,8Zm7.875,0H167.4v5.625h6.75V14.75H167.4v7.875h7.875V23.75h-15.75V22.625h6.75ZM178.2,8Zm1.125,0h1.125V9.125h-1.125Zm1.125,1.125h1.125v2.25H180.45Zm2.25,0h4.5V14.75h-3.375v3.375H187.2V23.75h-1.125v1.125H184.95V26h-1.125V24.875h1.125V23.75h1.125v-4.5H182.7V18.125h-1.125v6.75H180.45v-4.5H178.2V19.25h2.25V18.125h1.125V17H182.7V13.625h3.375V10.25H182.7Zm5.625,0h5.625V10.25h-4.5v1.125h3.375V12.5H189.45v1.125h3.375V14.75H189.45v1.125h5.625V17H191.7v3.375h-1.125V17H189.45v6.75h1.125v1.125H189.45V26h-1.125V17H187.2V15.875h1.125ZM178.2,12.5h1.125v1.125H178.2Zm1.125,1.125h1.125v2.25h-1.125Zm14.625,4.5h1.125V19.25H193.95v1.125h-1.125v2.25H191.7v-2.25h1.125V19.25h1.125Zm-1.125,4.5h1.125V23.75h-1.125ZM182.7,23.75h1.125v1.125H182.7Zm11.25,0h1.125v1.125H193.95ZM198,8Zm11.25,0h1.125v2.25h3.375v1.125h-3.375v2.25h4.5V14.75h-2.25V17h2.25v1.125h-2.25v6.75H211.5V26h-1.125V24.875H211.5v-6.75h-6.75v4.5h-1.125V21.5H200.25v1.125h-1.125V10.25h5.625V17h6.75V14.75h-5.625V13.625h3.375v-2.25H207V10.25h2.25Zm-9,3.375V14.75h3.375V11.375Zm0,4.5v4.5h3.375v-4.5ZM207,19.25h1.125v1.125H207Zm1.125,1.125h1.125v2.25h-1.125Zm1.125,3.375h1.125v1.125H209.25Zm17.532-5.472a1.089,1.089,0,0,0-.846.306,1.044,1.044,0,0,0-.324.81,1.071,1.071,0,0,0,.306.792,1.047,1.047,0,0,0,.774.324.963.963,0,0,0,.4-.072,2.123,2.123,0,0,1-.378,1.206,2.6,2.6,0,0,1-1.152.792v.882a3.473,3.473,0,0,0,1.854-1.17,3.373,3.373,0,0,0,.7-2.106,2.091,2.091,0,0,0-.36-1.26A1.149,1.149,0,0,0,226.782,18.278ZM237.6,8Zm2.25,0h1.125V9.125H239.85Zm1.125,1.125H242.1V10.25h-1.125Zm4.5,0h7.875V17h-1.125v1.125H251.1V17h1.125V10.25h-2.25v3.375H248.85v2.25h-1.125V17H246.6v1.125h-1.125V17H246.6V15.875h1.125v-2.25h1.125V10.25h-3.375Zm-7.875,2.25h6.75V12.5H237.6Zm7.875,0H246.6v2.25h-1.125V14.75H244.35V13.625h1.125Zm-6.75,2.25h4.5V14.75h-4.5Zm0,2.25h4.5V17h-4.5Zm11.25,0H251.1V17h-1.125Zm-11.25,2.25h4.5v4.5h1.125v-2.25h1.125v2.25H244.35V23.75h-1.125v1.125H242.1V23.75h-2.25v1.125h-1.125Zm9,0h1.125V19.25h-1.125ZM239.85,19.25v3.375h2.25V19.25Zm9,0h1.125V21.5H248.85Zm-2.25,1.125h1.125v4.5H246.6Zm5.625,0h1.125V21.5h-1.125ZM253.35,21.5h1.125v2.25H253.35Zm-2.25,1.125h1.125V26h-4.5V24.875H251.1ZM257.4,8Zm9,0h1.125v2.25H270.9V8h1.125v2.25h2.25v1.125h-2.25V12.5h1.125v1.125h-1.125V14.75h2.25v1.125h-4.5V17h3.375v4.5h1.125v1.125H273.15v2.25h-1.125V26H270.9V24.875h1.125v-2.25H266.4V26h-1.125V22.625H264.15V21.5h1.125V17h3.375V15.875h-4.5V14.75h2.25V13.625h-1.125V12.5H266.4V11.375h-2.25V10.25h2.25Zm-7.875,1.125h4.5v11.25h-4.5Zm1.125,1.125V12.5h2.25V10.25Zm7.875,1.125V12.5H270.9V11.375Zm-7.875,2.25v2.25h2.25v-2.25Zm7.875,0V14.75H270.9V13.625ZM259.65,17v2.25h2.25V17Zm6.75,1.125V19.25h2.25V18.125Zm3.375,0V19.25h2.25V18.125Zm-3.375,2.25V21.5h2.25V20.375Zm3.375,0V21.5h2.25V20.375ZM258.525,21.5h1.125v2.25h-1.125v1.125H257.4V23.75h1.125Zm2.25,0H261.9v1.125h-1.125Zm1.125,1.125h1.125v2.25H261.9Zm7.875,1.125H270.9v1.125h-1.125ZM277.2,8Zm3.375,0H281.7v4.5h2.25V11.375h2.25V10.25h-2.25V9.125h2.25V8h1.125V9.125H290.7V8h1.125V9.125h2.25V10.25h-2.25v1.125h2.25V14.75h-4.5v1.125H288.45V14.75h1.125V11.375H290.7V10.25h-3.375v1.125h1.125V14.75h-1.125v1.125H286.2V17h3.375V15.875H290.7V17h3.375v1.125h-4.5V19.25h3.375v1.125h-3.375V21.5h3.375v1.125h-3.375V23.75h4.5v1.125H286.2V26h-1.125V18.125H283.95V19.25h-1.125V18.125h1.125V17h1.125V15.875H286.2V14.75h-2.25V13.625H281.7V14.75h1.125v1.125H281.7V26h-1.125V17H279.45v2.25h-1.125v1.125H277.2V19.25h1.125V17h1.125V14.75h1.125V13.625H277.2V12.5h3.375Zm4.5,4.5v1.125h2.25V12.5Zm5.625,0v1.125h2.25V12.5Zm-7.875,3.375h1.125V17h-1.125Zm3.375,2.25V19.25h2.25V18.125Zm0,2.25V21.5h2.25V20.375Zm0,2.25V23.75h2.25V22.625ZM297,8Zm2.25,0h1.125V9.125H299.25Zm1.125,1.125H301.5V10.25h-1.125Zm4.5,0h3.375V12.5h-1.125v1.125H306V14.75h-1.125v1.125H303.75V14.75h1.125V13.625H306V12.5h1.125V10.25h-2.25Zm4.5,0H310.5V10.25h1.125V9.125h1.125V10.25h-1.125V12.5h1.125V11.375h1.125V12.5H312.75v2.25h-1.125v1.125H306V14.75h5.625V13.625H310.5v-2.25h-1.125ZM297,11.375h6.75V12.5H297Zm7.875,0H306V12.5h-1.125Zm-6.75,2.25h4.5V14.75h-4.5ZM312.75,14.75h1.125v1.125H312.75Zm-14.625,1.125h4.5V17h-4.5ZM306,17h5.625v5.625H310.5V23.75h3.375v1.125H303.75V23.75h3.375V22.625h1.125V23.75h1.125V22.625H310.5V21.5h-3.375v1.125H306Zm-7.875,1.125h4.5v6.75H301.5V23.75h-2.25v1.125h-1.125Zm9,0v2.25H310.5v-2.25ZM299.25,19.25v3.375h2.25V19.25ZM316.8,8Zm7.875,0H325.8V9.125h-1.125V10.25H323.55v1.125h3.375V10.25h2.25v1.125H328.05V12.5h-5.625V11.375H321.3V12.5h-2.25v1.125H316.8V12.5h2.25V11.375h2.25V10.25h2.25V9.125h1.125ZM325.8,9.125h1.125V10.25H325.8Zm3.375,2.25h2.25V12.5h-2.25Zm2.25,1.125h2.25v1.125h-2.25v4.5H319.05v-4.5h12.375Zm-11.25,2.25V17h2.25V15.875h1.125V17h1.125V14.75h-2.25v1.125H321.3V14.75Zm5.625,0V17h1.125V15.875h1.125V14.75Zm3.375,0v1.125H328.05V17h2.25V14.75Zm-9,4.5H330.3V26h-1.125V24.875H321.3V26h-1.125Zm1.125,1.125V21.5h7.875V20.375Zm0,2.25V23.75h7.875V22.625ZM336.6,8Zm7.875,0H345.6v5.625h6.75V14.75H345.6v7.875h7.875V23.75h-15.75V22.625h6.75ZM356.4,8Zm1.125,0h1.125V9.125h-1.125Zm1.125,1.125h1.125v2.25H358.65Zm2.25,0h4.5V14.75h-3.375v3.375H365.4V23.75h-1.125v1.125H363.15V26h-1.125V24.875h1.125V23.75h1.125v-4.5H360.9V18.125h-1.125v6.75H358.65v-4.5H356.4V19.25h2.25V18.125h1.125V17H360.9V13.625h3.375V10.25H360.9Zm5.625,0h5.625V10.25h-4.5v1.125h3.375V12.5H367.65v1.125h3.375V14.75H367.65v1.125h5.625V17H369.9v3.375h-1.125V17H367.65v6.75h1.125v1.125H367.65V26h-1.125V17H365.4V15.875h1.125ZM356.4,12.5h1.125v1.125H356.4Zm1.125,1.125h1.125v2.25h-1.125Zm14.625,4.5h1.125V19.25H372.15v1.125h-1.125v2.25H369.9v-2.25h1.125V19.25h1.125Zm-1.125,4.5h1.125V23.75h-1.125ZM360.9,23.75h1.125v1.125H360.9Zm11.25,0h1.125v1.125H372.15ZM0,34Zm2.25,0H3.375v1.125H2.25Zm1.125,1.125H4.5V36.25H3.375Zm4.5,0H15.75V43H14.625v1.125H13.5V43h1.125V36.25h-2.25v3.375H11.25v2.25H10.125V43H9v1.125H7.875V43H9V41.875h1.125v-2.25H11.25V36.25H7.875ZM0,37.375H6.75V38.5H0Zm7.875,0H9v2.25H7.875V40.75H6.75V39.625H7.875Zm-6.75,2.25h4.5V40.75h-4.5Zm0,2.25h4.5V43h-4.5Zm11.25,0H13.5V43H12.375Zm-11.25,2.25h4.5v4.5H6.75v-2.25H7.875v2.25H6.75V49.75H5.625v1.125H4.5V49.75H2.25v1.125H1.125Zm9,0H11.25V45.25H10.125ZM2.25,45.25v3.375H4.5V45.25Zm9,0h1.125V47.5H11.25ZM9,46.375h1.125v4.5H9Zm5.625,0H15.75V47.5H14.625ZM15.75,47.5h1.125v2.25H15.75ZM13.5,48.625h1.125V52h-4.5V50.875H13.5ZM19.8,34Zm4.5,0h1.125v2.25H28.8V35.125h1.125V36.25H35.55v1.125H29.925V38.5h4.5v1.125h-4.5V40.75h4.5v1.125h-4.5V43H35.55v1.125H24.3V45.25H23.175V39.625H22.05V40.75H20.925v1.125H19.8V40.75h1.125V39.625H22.05V38.5h1.125V36.25H24.3Zm3.375,0H28.8v1.125H27.675ZM24.3,37.375V38.5h4.5V37.375Zm0,2.25V40.75h4.5V39.625Zm0,2.25V43h4.5V41.875Zm0,3.375H34.425V52H33.3V50.875H25.425V52H24.3Zm1.125,1.125V49.75H33.3V46.375ZM39.6,34Zm3.375,0H44.1v4.5h2.25V37.375H48.6V36.25H46.35V35.125H48.6V34h1.125v1.125H53.1V34h1.125v1.125h2.25V36.25h-2.25v1.125h2.25V40.75h-4.5v1.125H50.85V40.75h1.125V37.375H53.1V36.25H49.725v1.125H50.85V40.75H49.725v1.125H48.6V43h3.375V41.875H53.1V43h3.375v1.125h-4.5V45.25H55.35v1.125H51.975V47.5H55.35v1.125H51.975V49.75h4.5v1.125H48.6V52H47.475V44.125H46.35V45.25H45.225V44.125H46.35V43h1.125V41.875H48.6V40.75H46.35V39.625H44.1V40.75h1.125v1.125H44.1V52H42.975V43H41.85v2.25H40.725v1.125H39.6V45.25h1.125V43H41.85V40.75h1.125V39.625H39.6V38.5h3.375Zm4.5,4.5v1.125h2.25V38.5Zm5.625,0v1.125h2.25V38.5Zm-7.875,3.375H46.35V43H45.225Zm3.375,2.25V45.25h2.25V44.125Zm0,2.25V47.5h2.25V46.375Zm0,2.25V49.75h2.25V48.625ZM59.4,34Zm2.25,0h1.125v1.125H61.65Zm1.125,1.125H63.9V36.25H62.775Zm4.5,0H70.65V38.5H69.525v1.125H68.4V40.75H67.275v1.125H66.15V40.75h1.125V39.625H68.4V38.5h1.125V36.25h-2.25Zm4.5,0H72.9V36.25h1.125V35.125H75.15V36.25H74.025V38.5H75.15V37.375h1.125V38.5H75.15v2.25H74.025v1.125H68.4V40.75h5.625V39.625H72.9v-2.25H71.775ZM59.4,37.375h6.75V38.5H59.4Zm7.875,0H68.4V38.5H67.275Zm-6.75,2.25h4.5V40.75h-4.5ZM75.15,40.75h1.125v1.125H75.15ZM60.525,41.875h4.5V43h-4.5ZM68.4,43h5.625v5.625H72.9V49.75h3.375v1.125H66.15V49.75h3.375V48.625H70.65V49.75h1.125V48.625H72.9V47.5H69.525v1.125H68.4Zm-7.875,1.125h4.5v6.75H63.9V49.75H61.65v1.125H60.525Zm9,0v2.25H72.9v-2.25ZM61.65,45.25v3.375H63.9V45.25ZM88.2,41.038a1.011,1.011,0,0,0-.792.342.979.979,0,0,0-.306.774,1.031,1.031,0,0,0,.306.774,1.058,1.058,0,0,0,.792.324,1.087,1.087,0,0,0,.792-.324,1.047,1.047,0,0,0,.324-.774.992.992,0,0,0-.324-.774A1.037,1.037,0,0,0,88.2,41.038Zm0,6.588a1.011,1.011,0,0,0-.792.342.979.979,0,0,0-.306.774,1.031,1.031,0,0,0,.306.774,1.058,1.058,0,0,0,.792.324,1.087,1.087,0,0,0,.792-.324,1.047,1.047,0,0,0,.324-.774.992.992,0,0,0-.324-.774A1.037,1.037,0,0,0,88.2,47.626ZM99,34Zm7.875,0H108v3.375h2.25V36.25h1.125V35.125H112.5V36.25h-1.125v1.125h4.5v2.25H114.75V40.75h-1.125V39.625h1.125V38.5h-13.5v1.125h-1.125V40.75H99V39.625h1.125v-2.25H103.5V36.25h1.125v1.125h2.25Zm-4.5,1.125H103.5V36.25h-1.125Zm1.125,4.5h7.875v4.5H103.5Zm1.125,1.125V43h5.625V40.75Zm-3.375,4.5h12.375V52H112.5V50.875H102.375V52H101.25Zm1.125,1.125V47.5h4.5V46.375Zm5.625,0V47.5h4.5V46.375Zm-5.625,2.25V49.75h4.5V48.625Zm5.625,0V49.75h4.5V48.625ZM118.8,34Zm2.25,1.125h4.5V40.75h1.125V39.625H127.8v-4.5h5.625v4.5H132.3V36.25h-3.375v3.375H127.8V40.75h-1.125v1.125H125.55v9h-1.125V52H123.3V50.875h1.125V45.25h-2.25v3.375H121.05v2.25h-1.125V52H118.8V50.875h1.125v-2.25h1.125Zm1.125,1.125v3.375h2.25V36.25Zm11.25,3.375h2.25V40.75h-2.25Zm-11.25,1.125v3.375h2.25V40.75Zm4.5,1.125h7.875v2.25h-1.125v2.25H132.3V47.5h-1.125v1.125H130.05V49.75h-1.125v1.125H127.8V52h-2.25V50.875h2.25V49.75h1.125V48.625h1.125V47.5h1.125V46.375H132.3v-2.25h1.125V43h-4.5v2.25H127.8V43h-1.125Zm2.25,3.375h1.125V47.5h-1.125Zm2.25,3.375H132.3V49.75h-1.125Zm-9,1.125H123.3v1.125h-1.125Zm10.125,0h3.375v1.125H134.55V52h-1.125V50.875H132.3ZM138.6,34Zm3.375,0H143.1v1.125h12.375V36.25h-4.5v1.125h3.375V40.75H143.1V37.375h3.375V36.25H143.1v1.125h-1.125V52H140.85V40.75h-1.125v1.125H138.6V40.75h1.125V39.625h1.125v-2.25h1.125Zm5.625,2.25v1.125h2.25V36.25Zm-3.375,2.25v1.125h2.25V38.5Zm3.375,0v1.125h2.25V38.5Zm3.375,0v1.125h2.25V38.5Zm-6.75,3.375h9V49.75H152.1v1.125h-1.125V49.75h-4.5v1.125H145.35V52h-1.125V50.875h1.125V49.75h-1.125ZM145.35,43v1.125h6.75V43Zm0,2.25v1.125h6.75V45.25Zm0,2.25v1.125h6.75V47.5Zm6.75,3.375h1.125V52H152.1ZM158.4,34Zm0,2.25h16.875v1.125h-9V52H165.15V37.375H158.4Zm9,4.5h1.125v1.125H167.4Zm1.125,1.125h1.125V43h-1.125ZM169.65,43h2.25v2.25h-1.125V44.125H169.65Zm8.55-9Zm11.25,0h1.125v4.5h3.375v1.125h-3.375V43h4.5v1.125h-4.5V45.25H189.45V47.5h-1.125v2.25H187.2v1.125h-1.125V52H184.95V50.875h1.125V49.75H187.2V47.5h1.125V45.25h1.125V44.125h-4.5V45.25H182.7V47.5h3.375v1.125H182.7V49.75h-2.25v1.125h-1.125V49.75H178.2V48.625h1.125v-4.5h1.125v4.5h1.125V40.75h-2.25V35.125h5.625V40.75H182.7v3.375h2.25V43h4.5V39.625H187.2V40.75h-1.125V39.625H187.2V36.25h1.125V38.5h1.125Zm-9,2.25v3.375h3.375V36.25Zm10.125,9H191.7V47.5h-1.125ZM191.7,47.5h1.125v2.25H191.7Zm1.125,2.25h2.25v1.125H193.95V52h-1.125ZM198,34Zm11.25,0h1.125v2.25h3.375v1.125h-3.375v2.25h4.5V40.75h-2.25V43h2.25v1.125h-2.25v6.75H211.5V52h-1.125V50.875H211.5v-6.75h-6.75v4.5h-1.125V47.5H200.25v1.125h-1.125V36.25h5.625V43h6.75V40.75h-5.625V39.625h3.375v-2.25H207V36.25h2.25Zm-9,3.375V40.75h3.375V37.375Zm0,4.5v4.5h3.375v-4.5ZM207,45.25h1.125v1.125H207Zm1.125,1.125h1.125v2.25h-1.125Zm1.125,3.375h1.125v1.125H209.25Zm17.532-5.472a1.089,1.089,0,0,0-.846.306,1.044,1.044,0,0,0-.324.81,1.071,1.071,0,0,0,.306.792,1.047,1.047,0,0,0,.774.324.963.963,0,0,0,.4-.072,2.123,2.123,0,0,1-.378,1.206,2.6,2.6,0,0,1-1.152.792v.882a3.473,3.473,0,0,0,1.854-1.17,3.373,3.373,0,0,0,.7-2.106,2.091,2.091,0,0,0-.36-1.26A1.149,1.149,0,0,0,226.782,44.278ZM237.6,34Zm2.25,0h1.125v1.125H239.85Zm1.125,1.125H242.1V36.25h-1.125Zm4.5,0h7.875V43h-1.125v1.125H251.1V43h1.125V36.25h-2.25v3.375H248.85v2.25h-1.125V43H246.6v1.125h-1.125V43H246.6V41.875h1.125v-2.25h1.125V36.25h-3.375Zm-7.875,2.25h6.75V38.5H237.6Zm7.875,0H246.6v2.25h-1.125V40.75H244.35V39.625h1.125Zm-6.75,2.25h4.5V40.75h-4.5Zm0,2.25h4.5V43h-4.5Zm11.25,0H251.1V43h-1.125Zm-11.25,2.25h4.5v4.5h1.125v-2.25h1.125v2.25H244.35V49.75h-1.125v1.125H242.1V49.75h-2.25v1.125h-1.125Zm9,0h1.125V45.25h-1.125ZM239.85,45.25v3.375h2.25V45.25Zm9,0h1.125V47.5H248.85Zm-2.25,1.125h1.125v4.5H246.6Zm5.625,0h1.125V47.5h-1.125ZM253.35,47.5h1.125v2.25H253.35Zm-2.25,1.125h1.125V52h-4.5V50.875H251.1ZM257.4,34Zm4.5,0h1.125v2.25H266.4V35.125h1.125V36.25h5.625v1.125h-5.625V38.5h4.5v1.125h-4.5V40.75h4.5v1.125h-4.5V43h5.625v1.125H261.9V45.25h-1.125V39.625H259.65V40.75h-1.125v1.125H257.4V40.75h1.125V39.625h1.125V38.5h1.125V36.25H261.9Zm3.375,0H266.4v1.125h-1.125ZM261.9,37.375V38.5h4.5V37.375Zm0,2.25V40.75h4.5V39.625Zm0,2.25V43h4.5V41.875Zm0,3.375h10.125V52H270.9V50.875h-7.875V52H261.9Zm1.125,1.125V49.75H270.9V46.375ZM277.2,34Zm3.375,0H281.7v4.5h2.25V37.375h2.25V36.25h-2.25V35.125h2.25V34h1.125v1.125H290.7V34h1.125v1.125h2.25V36.25h-2.25v1.125h2.25V40.75h-4.5v1.125H288.45V40.75h1.125V37.375H290.7V36.25h-3.375v1.125h1.125V40.75h-1.125v1.125H286.2V43h3.375V41.875H290.7V43h3.375v1.125h-4.5V45.25h3.375v1.125h-3.375V47.5h3.375v1.125h-3.375V49.75h4.5v1.125H286.2V52h-1.125V44.125H283.95V45.25h-1.125V44.125h1.125V43h1.125V41.875H286.2V40.75h-2.25V39.625H281.7V40.75h1.125v1.125H281.7V52h-1.125V43H279.45v2.25h-1.125v1.125H277.2V45.25h1.125V43h1.125V40.75h1.125V39.625H277.2V38.5h3.375Zm4.5,4.5v1.125h2.25V38.5Zm5.625,0v1.125h2.25V38.5Zm-7.875,3.375h1.125V43h-1.125Zm3.375,2.25V45.25h2.25V44.125Zm0,2.25V47.5h2.25V46.375Zm0,2.25V49.75h2.25V48.625ZM297,34Zm2.25,0h1.125v1.125H299.25Zm1.125,1.125H301.5V36.25h-1.125Zm4.5,0h3.375V38.5h-1.125v1.125H306V40.75h-1.125v1.125H303.75V40.75h1.125V39.625H306V38.5h1.125V36.25h-2.25Zm4.5,0H310.5V36.25h1.125V35.125h1.125V36.25h-1.125V38.5h1.125V37.375h1.125V38.5H312.75v2.25h-1.125v1.125H306V40.75h5.625V39.625H310.5v-2.25h-1.125ZM297,37.375h6.75V38.5H297Zm7.875,0H306V38.5h-1.125Zm-6.75,2.25h4.5V40.75h-4.5ZM312.75,40.75h1.125v1.125H312.75Zm-14.625,1.125h4.5V43h-4.5ZM306,43h5.625v5.625H310.5V49.75h3.375v1.125H303.75V49.75h3.375V48.625h1.125V49.75h1.125V48.625H310.5V47.5h-3.375v1.125H306Zm-7.875,1.125h4.5v6.75H301.5V49.75h-2.25v1.125h-1.125Zm9,0v2.25H310.5v-2.25ZM299.25,45.25v3.375h2.25V45.25ZM316.8,34Zm7.875,0H325.8v1.125h-1.125V36.25H323.55v1.125h3.375V36.25h2.25v1.125H328.05V38.5h-5.625V37.375H321.3V38.5h-2.25v1.125H316.8V38.5h2.25V37.375h2.25V36.25h2.25V35.125h1.125Zm1.125,1.125h1.125V36.25H325.8Zm3.375,2.25h2.25V38.5h-2.25Zm2.25,1.125h2.25v1.125h-2.25v4.5H319.05v-4.5h12.375Zm-11.25,2.25V43h2.25V41.875h1.125V43h1.125V40.75h-2.25v1.125H321.3V40.75Zm5.625,0V43h1.125V41.875h1.125V40.75Zm3.375,0v1.125H328.05V43h2.25V40.75Zm-9,4.5H330.3V52h-1.125V50.875H321.3V52h-1.125Zm1.125,1.125V47.5h7.875V46.375Zm0,2.25V49.75h7.875V48.625ZM336.6,34Zm7.875,0H345.6v5.625h6.75V40.75H345.6v7.875h7.875V49.75h-15.75V48.625h6.75ZM356.4,34Zm1.125,0h1.125v1.125h-1.125Zm1.125,1.125h1.125v2.25H358.65Zm2.25,0h4.5V40.75h-3.375v3.375H365.4V49.75h-1.125v1.125H363.15V52h-1.125V50.875h1.125V49.75h1.125v-4.5H360.9V44.125h-1.125v6.75H358.65v-4.5H356.4V45.25h2.25V44.125h1.125V43H360.9V39.625h3.375V36.25H360.9Zm5.625,0h5.625V36.25h-4.5v1.125h3.375V38.5H367.65v1.125h3.375V40.75H367.65v1.125h5.625V43H369.9v3.375h-1.125V43H367.65v6.75h1.125v1.125H367.65V52h-1.125V43H365.4V41.875h1.125ZM356.4,38.5h1.125v1.125H356.4Zm1.125,1.125h1.125v2.25h-1.125Zm14.625,4.5h1.125V45.25H372.15v1.125h-1.125v2.25H369.9v-2.25h1.125V45.25h1.125Zm-1.125,4.5h1.125V49.75h-1.125ZM360.9,49.75h1.125v1.125H360.9Zm11.25,0h1.125v1.125H372.15ZM0,60Zm3.375,1.125H13.5V66.75H7.875V69h6.75v6.75H13.5v1.125H12.375V78H11.25V76.875h1.125V75.75H13.5V70.125H7.875v2.25H6.75v2.25H5.625V75.75H4.5v1.125H3.375V78H1.125V76.875h2.25V75.75H4.5V74.625H5.625v-2.25H6.75v-2.25H1.125V69H6.75V66.75H3.375ZM4.5,62.25v3.375h7.875V62.25ZM9,74.625h1.125V75.75H9Zm1.125,1.125H11.25v1.125H10.125ZM19.8,60Zm4.5,0h1.125v3.375H24.3V64.5h4.5V69H27.675v2.25H26.55v1.125H25.425V73.5H24.3v1.125H23.175V75.75H22.05v1.125H20.925V78H19.8V76.875h1.125V75.75H22.05V74.625h1.125V73.5H24.3V72.375h1.125V71.25H26.55V69h1.125V65.625h-4.5V69H22.05v1.125H20.925V71.25H19.8V70.125h1.125V69H22.05V65.625h1.125v-2.25H24.3Zm5.625,0H31.05v5.625h1.125V66.75H31.05V78H29.925Zm2.25,6.75H33.3v1.125H32.175ZM33.3,67.875h1.125V69H35.55v2.25H34.425V70.125H33.3ZM23.175,69H24.3v1.125H23.175ZM24.3,70.125h1.125V71.25H24.3Zm24.282.153a1.089,1.089,0,0,0-.846.306,1.044,1.044,0,0,0-.324.81,1.071,1.071,0,0,0,.306.792,1.047,1.047,0,0,0,.774.324.963.963,0,0,0,.4-.072,2.123,2.123,0,0,1-.378,1.206,2.6,2.6,0,0,1-1.152.792v.882a3.472,3.472,0,0,0,1.854-1.17,3.373,3.373,0,0,0,.7-2.106,2.091,2.091,0,0,0-.36-1.26A1.149,1.149,0,0,0,48.582,70.278ZM59.4,60Zm3.375,0H63.9v4.5h2.25V63.375H68.4V62.25H66.15V61.125H68.4V60h1.125v1.125H72.9V60h1.125v1.125h2.25V62.25h-2.25v1.125h2.25V66.75h-4.5v1.125H70.65V66.75h1.125V63.375H72.9V62.25H69.525v1.125H70.65V66.75H69.525v1.125H68.4V69h3.375V67.875H72.9V69h3.375v1.125h-4.5V71.25H75.15v1.125H71.775V73.5H75.15v1.125H71.775V75.75h4.5v1.125H68.4V78H67.275V70.125H66.15V71.25H65.025V70.125H66.15V69h1.125V67.875H68.4V66.75H66.15V65.625H63.9V66.75h1.125v1.125H63.9V78H62.775V69H61.65v2.25H60.525v1.125H59.4V71.25h1.125V69H61.65V66.75h1.125V65.625H59.4V64.5h3.375Zm4.5,4.5v1.125h2.25V64.5Zm5.625,0v1.125h2.25V64.5Zm-7.875,3.375H66.15V69H65.025Zm3.375,2.25V71.25h2.25V70.125Zm0,2.25V73.5h2.25V72.375Zm0,2.25V75.75h2.25V74.625ZM79.2,60Zm2.25,0h1.125v1.125H81.45Zm1.125,1.125H83.7V62.25H82.575Zm4.5,0H90.45V64.5H89.325v1.125H88.2V66.75H87.075v1.125H85.95V66.75h1.125V65.625H88.2V64.5h1.125V62.25h-2.25Zm4.5,0H92.7V62.25h1.125V61.125H94.95V62.25H93.825V64.5H94.95V63.375h1.125V64.5H94.95v2.25H93.825v1.125H88.2V66.75h5.625V65.625H92.7v-2.25H91.575ZM79.2,63.375h6.75V64.5H79.2Zm7.875,0H88.2V64.5H87.075Zm-6.75,2.25h4.5V66.75h-4.5ZM94.95,66.75h1.125v1.125H94.95ZM80.325,67.875h4.5V69h-4.5ZM88.2,69h5.625v5.625H92.7V75.75h3.375v1.125H85.95V75.75h3.375V74.625H90.45V75.75h1.125V74.625H92.7V73.5H89.325v1.125H88.2Zm-7.875,1.125h4.5v6.75H83.7V75.75H81.45v1.125H80.325Zm9,0v2.25H92.7v-2.25ZM81.45,71.25v3.375H83.7V71.25ZM99,60Zm7.875,0H108v4.5h2.25V63.375h1.125V62.25H112.5v9h-1.125v1.125H110.25V71.25h1.125V64.5H110.25v1.125H108v9h-1.125V66.75h-2.25v1.125H103.5V75.75h-1.125V67.875H101.25V69H99V67.875h2.25V66.75h1.125v-4.5H103.5v4.5h1.125V65.625h2.25Zm2.25,10.125h1.125V71.25h-1.125Zm5.625,2.25h1.125v4.5H103.5V75.75h11.25ZM118.8,60Zm6.75,0h1.125v2.25h9v1.125H125.55v2.25h6.75v11.25h-1.125V78H130.05V76.875h1.125V73.5h-6.75V78H123.3V69h-1.125v1.125H121.05V71.25h-1.125v1.125H118.8V71.25h1.125V70.125h1.125V69h1.125V67.875H123.3v-2.25h1.125v-2.25H118.8V62.25h6.75Zm-1.125,6.75V69h6.75V66.75Zm0,3.375v2.25h6.75v-2.25Zm4.5,5.625h1.125v1.125h-1.125ZM138.6,60Zm1.125,0h1.125v1.125h-1.125Zm1.125,1.125h1.125v2.25H140.85Zm2.25,0h4.5V66.75h-3.375v3.375H147.6V75.75h-1.125v1.125H145.35V78h-1.125V76.875h1.125V75.75h1.125v-4.5H143.1V70.125h-1.125v6.75H140.85v-4.5H138.6V71.25h2.25V70.125h1.125V69H143.1V65.625h3.375V62.25H143.1Zm5.625,0h5.625V62.25h-4.5v1.125h3.375V64.5H149.85v1.125h3.375V66.75H149.85v1.125h5.625V69H152.1v3.375h-1.125V69H149.85v6.75h1.125v1.125H149.85V78h-1.125V69H147.6V67.875h1.125ZM138.6,64.5h1.125v1.125H138.6Zm1.125,1.125h1.125v2.25h-1.125Zm14.625,4.5h1.125V71.25H154.35v1.125h-1.125v2.25H152.1v-2.25h1.125V71.25h1.125Zm-1.125,4.5h1.125V75.75h-1.125ZM143.1,75.75h1.125v1.125H143.1Zm11.25,0h1.125v1.125H154.35ZM158.4,60Zm11.25,0h1.125v4.5h3.375v1.125h-3.375V69h4.5v1.125h-4.5V71.25H169.65V73.5h-1.125v2.25H167.4v1.125h-1.125V78H165.15V76.875h1.125V75.75H167.4V73.5h1.125V71.25h1.125V70.125h-4.5V71.25H162.9V73.5h3.375v1.125H162.9V75.75h-2.25v1.125h-1.125V75.75H158.4V74.625h1.125v-4.5h1.125v4.5h1.125V66.75h-2.25V61.125h5.625V66.75H162.9v3.375h2.25V69h4.5V65.625H167.4V66.75h-1.125V65.625H167.4V62.25h1.125V64.5h1.125Zm-9,2.25v3.375h3.375V62.25Zm10.125,9H171.9V73.5h-1.125ZM171.9,73.5h1.125v2.25H171.9Zm1.125,2.25h2.25v1.125H174.15V78h-1.125ZM178.2,60Zm3.375,0H182.7v3.375h-1.125V71.25H182.7V69h12.375v2.25H193.95v1.125h-1.125V71.25h1.125V70.125H183.825V71.25H182.7v1.125h-1.125V78H180.45V66.75h-1.125v1.125H178.2V66.75h1.125V65.625h1.125v-2.25h1.125Zm5.625,0h1.125v1.125H187.2Zm1.125,1.125h1.125V62.25h4.5v1.125H183.825V62.25h4.5ZM184.95,64.5h7.875v3.375H184.95Zm1.125,1.125V66.75H191.7V65.625ZM184.95,71.25h6.75v1.125h-2.25v4.5h-1.125V78H187.2V76.875h1.125v-4.5H184.95Zm1.125,4.5H187.2v1.125h-1.125ZM198,60Zm6.75,1.125h9v4.5h-7.875V66.75h7.875v1.125h-4.5V69h-1.125v1.125H211.5V69h1.125v1.125h1.125v2.25h-1.125V73.5h-2.25v2.25h4.5v1.125H204.75V75.75h4.5V73.5H207V72.375h2.25V71.25h-3.375V73.5H204.75v2.25h-1.125v1.125H202.5V78h-1.125V76.875H202.5V75.75h1.125V73.5h1.125Zm-5.625,1.125h4.5V73.5H202.5V72.375h-2.25V73.5h-1.125Zm6.75,0V64.5h6.75V62.25Zm-5.625,1.125V71.25h2.25V63.375Zm5.625,4.5v2.25H207V69h1.125V67.875Zm4.5,3.375v1.125h2.25V71.25Zm15.6-6.1.27,9.4h1.116l.288-9.4Zm.828,10.71a1.031,1.031,0,0,0-.774.306.966.966,0,0,0-.306.756,1.031,1.031,0,0,0,.306.774A1.1,1.1,0,0,0,226.8,78a1.147,1.147,0,0,0,.792-.306,1.044,1.044,0,0,0,.306-.774,1.031,1.031,0,0,0-.306-.756A1.071,1.071,0,0,0,226.8,75.858ZM0,86Zm3.375,0H4.5v3.375H3.375V104H2.25V92.75H1.125v1.125H0V92.75H1.125V91.625H2.25v-2.25H3.375Zm2.25,2.25h9V98.375h-9ZM6.75,89.375V92.75H13.5V89.375Zm0,4.5V97.25H13.5V93.875Zm-2.25,6.75H15.75v1.125H4.5ZM19.8,86Zm3.375,0H24.3v4.5h2.25V89.375H28.8V88.25H26.55V87.125H28.8V86h1.125v1.125H33.3V86h1.125v1.125h2.25V88.25h-2.25v1.125h2.25V92.75h-4.5v1.125H31.05V92.75h1.125V89.375H33.3V88.25H29.925v1.125H31.05V92.75H29.925v1.125H28.8V95h3.375V93.875H33.3V95h3.375v1.125h-4.5V97.25H35.55v1.125H32.175V99.5H35.55v1.125H32.175v1.125h4.5v1.125H28.8V104H27.675V96.125H26.55V97.25H25.425V96.125H26.55V95h1.125V93.875H28.8V92.75H26.55V91.625H24.3V92.75h1.125v1.125H24.3V104H23.175V95H22.05v2.25H20.925v1.125H19.8V97.25h1.125V95H22.05V92.75h1.125V91.625H19.8V90.5h3.375Zm4.5,4.5v1.125h2.25V90.5Zm5.625,0v1.125h2.25V90.5Zm-7.875,3.375H26.55V95H25.425Zm3.375,2.25V97.25h2.25V96.125Zm0,2.25V99.5h2.25V98.375Zm0,2.25v1.125h2.25v-1.125ZM39.6,86Zm2.25,0h1.125v1.125H41.85Zm1.125,1.125H44.1V88.25H42.975Zm4.5,0H50.85V90.5H49.725v1.125H48.6V92.75H47.475v1.125H46.35V92.75h1.125V91.625H48.6V90.5h1.125V88.25h-2.25Zm4.5,0H53.1V88.25h1.125V87.125H55.35V88.25H54.225V90.5H55.35V89.375h1.125V90.5H55.35v2.25H54.225v1.125H48.6V92.75h5.625V91.625H53.1v-2.25H51.975ZM39.6,89.375h6.75V90.5H39.6Zm7.875,0H48.6V90.5H47.475Zm-6.75,2.25h4.5V92.75h-4.5ZM55.35,92.75h1.125v1.125H55.35ZM40.725,93.875h4.5V95h-4.5ZM48.6,95h5.625v5.625H53.1v1.125h3.375v1.125H46.35V101.75h3.375v-1.125H50.85v1.125h1.125v-1.125H53.1V99.5H49.725v1.125H48.6Zm-7.875,1.125h4.5v6.75H44.1V101.75H41.85v1.125H40.725Zm9,0v2.25H53.1v-2.25ZM41.85,97.25v3.375H44.1V97.25ZM59.4,86Zm3.375,0H63.9v2.25H62.775v1.125h4.5V92.75H68.4V90.5h1.125V86H70.65v3.375h4.5V101.75H74.025v1.125H72.9V104H71.775v-1.125H72.9V101.75h1.125V90.5h-4.5v2.25H68.4v1.125H67.275v9H66.15V101.75h-4.5v1.125H60.525v-13.5H61.65V88.25h1.125ZM61.65,90.5V95h4.5V90.5Zm7.875,3.375H70.65V95H69.525ZM70.65,95h1.125v2.25H70.65Zm-9,1.125v4.5h4.5v-4.5Zm9,5.625h1.125v1.125H70.65ZM79.2,86Zm1.125,0H81.45v1.125H80.325Zm1.125,1.125h1.125v2.25H81.45Zm2.25,0h4.5V92.75H84.825v3.375H88.2v5.625H87.075v1.125H85.95V104H84.825v-1.125H85.95V101.75h1.125v-4.5H83.7V96.125H82.575v6.75H81.45v-4.5H79.2V97.25h2.25V96.125h1.125V95H83.7V91.625h3.375V88.25H83.7Zm5.625,0H94.95V88.25h-4.5v1.125h3.375V90.5H90.45v1.125h3.375V92.75H90.45v1.125h5.625V95H92.7v3.375H91.575V95H90.45v6.75h1.125v1.125H90.45V104H89.325V95H88.2V93.875h1.125ZM79.2,90.5h1.125v1.125H79.2Zm1.125,1.125H81.45v2.25H80.325Zm14.625,4.5h1.125V97.25H94.95v1.125H93.825v2.25H92.7v-2.25h1.125V97.25H94.95Zm-1.125,4.5H94.95v1.125H93.825ZM83.7,101.75h1.125v1.125H83.7Zm11.25,0h1.125v1.125H94.95ZM99,86Zm11.25,0h1.125v4.5h3.375v1.125h-3.375V95h4.5v1.125h-4.5V97.25H110.25V99.5h-1.125v2.25H108v1.125h-1.125V104H105.75v-1.125h1.125V101.75H108V99.5h1.125V97.25h1.125V96.125h-4.5V97.25H103.5V99.5h3.375v1.125H103.5v1.125h-2.25v1.125h-1.125V101.75H99v-1.125h1.125v-4.5h1.125v4.5h1.125V92.75h-2.25V87.125h5.625V92.75H103.5v3.375h2.25V95h4.5V91.625H108V92.75h-1.125V91.625H108V88.25h1.125V90.5h1.125Zm-9,2.25v3.375h3.375V88.25Zm10.125,9H112.5V99.5h-1.125ZM112.5,99.5h1.125v2.25H112.5Zm1.125,2.25h2.25v1.125H114.75V104h-1.125ZM118.8,86Zm3.375,0H123.3v3.375h-1.125V97.25H123.3V95h12.375v2.25H134.55v1.125h-1.125V97.25h1.125V96.125H124.425V97.25H123.3v1.125h-1.125V104H121.05V92.75h-1.125v1.125H118.8V92.75h1.125V91.625h1.125v-2.25h1.125Zm5.625,0h1.125v1.125H127.8Zm1.125,1.125h1.125V88.25h4.5v1.125H124.425V88.25h4.5ZM125.55,90.5h7.875v3.375H125.55Zm1.125,1.125V92.75H132.3V91.625ZM125.55,97.25h6.75v1.125h-2.25v4.5h-1.125V104H127.8v-1.125h1.125v-4.5H125.55Zm1.125,4.5H127.8v1.125h-1.125ZM138.6,86Zm4.5,0h7.875v7.875H143.1Zm1.125,1.125v2.25h5.625v-2.25Zm0,3.375v2.25h5.625V90.5Zm-4.5,4.5H154.35v1.125H147.6v2.25h5.625V99.5H147.6v3.375h-2.25V101.75h1.125V96.125h-6.75Zm3.375,2.25h1.125v3.375H143.1v1.125h-1.125v1.125H140.85V104h-1.125v-1.125h1.125V101.75h1.125v-1.125H143.1Zm1.125,3.375h1.125v1.125h-1.125Zm3.375,2.25h6.75V104H147.6ZM158.4,86Zm3.375,0H162.9v4.5h2.25v1.125H162.9V92.75h1.125v1.125H162.9V104h-1.125V95H160.65v2.25h-1.125v1.125H158.4V97.25h1.125V95h1.125V92.75h1.125V91.625H158.4V90.5h3.375Zm4.5,1.125h6.75V95H169.65v2.25h-1.125V95H167.4v6.75h1.125v-1.125h1.125v1.125h-1.125v1.125H167.4V104h-1.125ZM167.4,88.25V90.5h4.5V88.25Zm0,3.375v2.25h4.5v-2.25Zm-3.375,2.25h1.125v2.25h-1.125Zm9,1.125h1.125v1.125h-1.125V97.25H171.9v1.125h-1.125V99.5H169.65V97.25h2.25V96.125h1.125Zm-2.25,4.5H171.9v1.125h-1.125Zm1.125,1.125h3.375v1.125H174.15v1.125h-1.125V101.75H171.9ZM178.2,86Zm3.375,0H182.7v4.5h2.25V89.375h4.5V86h1.125v1.125h4.5V88.25h-4.5v1.125h4.5v2.25H193.95V90.5h-3.375v1.125h2.25V92.75h-2.25v1.125H189.45V92.75H187.2V91.625h2.25V90.5h-3.375v5.625h9V97.25H189.45v1.125h-1.125V99.5H187.2v1.125h-1.125V99.5H187.2V98.375h1.125V97.25h-2.25V99.5H184.95v2.25h-1.125v1.125h-2.25V104H180.45v-1.125h1.125v-6.75H180.45V97.25H178.2V96.125h2.25V95h1.125V91.625H178.2V90.5h3.375Zm1.125,5.625v2.25h1.125V92.75h1.125V91.625Zm11.25,1.125h1.125V95h-4.5V93.875h3.375Zm-10.125,1.125V95H182.7v6.75h1.125V99.5h1.125V93.875Zm5.625,4.5h1.125V99.5H189.45v1.125h-1.125v1.125H187.2v1.125h-1.125V101.75H187.2v-1.125h1.125V99.5h1.125Zm3.375,0h1.125V99.5h-1.125v1.125H191.7V104h-2.25v-1.125h1.125V101.75H189.45v1.125h-1.125V104H187.2v-1.125h1.125V101.75h1.125v-1.125h1.125V99.5h2.25Zm0,2.25h1.125v1.125h-1.125Zm-13.5,1.125h1.125v1.125h-1.125Zm14.625,0h1.125v1.125H193.95ZM198,86Zm4.5,0h1.125v2.25h5.625V86h1.125v2.25h3.375v1.125h-3.375v9h4.5V99.5H198V98.375h4.5v-9h-3.375V88.25H202.5Zm1.125,3.375v2.25h5.625v-2.25Zm0,3.375V95h5.625V92.75Zm0,3.375v2.25h5.625v-2.25Zm-1.125,4.5h1.125v1.125H202.5v1.125h-1.125V104H200.25v-1.125h1.125V101.75H202.5Zm6.75,0h1.125v1.125H209.25Zm1.125,1.125H211.5v1.125h-1.125Zm1.125,1.125h1.125V104H211.5ZM217.8,86Zm3.375,0H222.3v4.5h2.25V89.375h2.25V88.25h-3.375V87.125h11.25V88.25H231.3v1.125h2.25v4.5h-9v-2.25H222.3v2.25h1.125V95H222.3v9h-1.125V95H220.05v2.25h-1.125v1.125H217.8V97.25h1.125V95h1.125V92.75h1.125V91.625H217.8V90.5h3.375Zm6.75,2.25v1.125h2.25V88.25Zm-2.25,2.25v2.25H226.8V90.5Zm2.25,0v2.25h2.25V90.5Zm3.375,0v2.25h1.125V90.5ZM223.425,95h1.125v1.125h-1.125Zm2.25,0h6.75v1.125h-6.75Zm-2.25,2.25h11.25v1.125h-4.5v4.5H229.05V104h-1.125v-1.125h1.125v-4.5h-5.625Zm2.25,2.25H226.8v1.125h-1.125v1.125H224.55v1.125h-1.125V101.75h1.125v-1.125h1.125Zm5.625,0h1.125v1.125H231.3Zm1.125,1.125h2.25v2.25H233.55V101.75h-1.125ZM226.8,101.75h1.125v1.125H226.8ZM237.6,86Zm3.375,0H242.1v2.25h-1.125v1.125h4.5V92.75H246.6V90.5h1.125V86h1.125v3.375h4.5V101.75h-1.125v1.125H251.1V104h-1.125v-1.125H251.1V101.75h1.125V90.5h-4.5v2.25H246.6v1.125h-1.125v9H244.35V101.75h-4.5v1.125h-1.125v-13.5h1.125V88.25h1.125Zm-1.125,4.5V95h4.5V90.5Zm7.875,3.375h1.125V95h-1.125ZM248.85,95h1.125v2.25H248.85Zm-9,1.125v4.5h4.5v-4.5Zm9,5.625h1.125v1.125H248.85ZM257.4,86Zm2.25,1.125h4.5V92.75h1.125V91.625H266.4v-4.5h5.625v4.5H270.9V88.25h-3.375v3.375H266.4V92.75h-1.125v1.125H264.15v9h-1.125V104H261.9v-1.125h1.125V97.25h-2.25v3.375H259.65v2.25h-1.125V104H257.4v-1.125h1.125v-2.25h1.125Zm1.125,1.125v3.375h2.25V88.25Zm11.25,3.375h2.25V92.75h-2.25Zm-11.25,1.125v3.375h2.25V92.75Zm4.5,1.125h7.875v2.25h-1.125v2.25H270.9V99.5h-1.125v1.125H268.65v1.125h-1.125v1.125H266.4V104h-2.25v-1.125h2.25V101.75h1.125v-1.125h1.125V99.5h1.125V98.375H270.9v-2.25h1.125V95h-4.5v2.25H266.4V95h-1.125Zm2.25,3.375h1.125V99.5h-1.125Zm2.25,3.375H270.9v1.125h-1.125Zm-9,1.125H261.9v1.125h-1.125Zm10.125,0h3.375v1.125H273.15V104h-1.125v-1.125H270.9ZM277.2,86Zm7.875,0H286.2v3.375h2.25V88.25h1.125V87.125H290.7V88.25h-1.125v1.125h4.5v2.25H292.95V92.75h-1.125V91.625h1.125V90.5h-13.5v1.125h-1.125V92.75H277.2V91.625h1.125v-2.25H281.7V88.25h1.125v1.125h2.25Zm-4.5,1.125H281.7V88.25h-1.125Zm1.125,4.5h7.875v4.5H281.7Zm1.125,1.125V95h5.625V92.75Zm-3.375,4.5h12.375V104H290.7v-1.125H280.575V104H279.45Zm1.125,1.125V99.5h4.5V98.375Zm5.625,0V99.5h4.5V98.375Zm-5.625,2.25v1.125h4.5v-1.125Zm5.625,0v1.125h4.5v-1.125ZM297,86Zm2.25,1.125h12.375V88.25H306v4.5h6.75v1.125H306V95h-1.125v2.25H303.75V99.5h-1.125v1.125H301.5v1.125h-1.125v1.125H299.25V104h-1.125v-1.125h1.125V101.75h1.125v-1.125H301.5V99.5h1.125V97.25h1.125V95h1.125V93.875h-6.75V92.75h6.75v-4.5H299.25ZM306,95h1.125v2.25H306Zm1.125,2.25h1.125v1.125h-1.125Zm1.125,1.125h1.125V99.5H308.25Zm1.125,1.125H310.5v1.125h-1.125Zm1.125,1.125h3.375v1.125H312.75v1.125h-1.125V101.75H310.5ZM316.8,86Zm1.125,0h1.125v1.125h-1.125Zm1.125,1.125h1.125v2.25H319.05Zm2.25,0h4.5V92.75h-3.375v3.375H325.8v5.625h-1.125v1.125H323.55V104h-1.125v-1.125h1.125V101.75h1.125v-4.5H321.3V96.125h-1.125v6.75H319.05v-4.5H316.8V97.25h2.25V96.125h1.125V95H321.3V91.625h3.375V88.25H321.3Zm5.625,0h5.625V88.25h-4.5v1.125h3.375V90.5H328.05v1.125h3.375V92.75H328.05v1.125h5.625V95H330.3v3.375h-1.125V95H328.05v6.75h1.125v1.125H328.05V104h-1.125V95H325.8V93.875h1.125ZM316.8,90.5h1.125v1.125H316.8Zm1.125,1.125h1.125v2.25h-1.125Zm14.625,4.5h1.125V97.25H332.55v1.125h-1.125v2.25H330.3v-2.25h1.125V97.25h1.125Zm-1.125,4.5h1.125v1.125h-1.125ZM321.3,101.75h1.125v1.125H321.3Zm11.25,0h1.125v1.125H332.55ZM336.6,86Zm11.25,0h1.125v4.5h3.375v1.125h-3.375V95h4.5v1.125h-4.5V97.25H347.85V99.5h-1.125v2.25H345.6v1.125h-1.125V104H343.35v-1.125h1.125V101.75H345.6V99.5h1.125V97.25h1.125V96.125h-4.5V97.25H341.1V99.5h3.375v1.125H341.1v1.125h-2.25v1.125h-1.125V101.75H336.6v-1.125h1.125v-4.5h1.125v4.5h1.125V92.75h-2.25V87.125h5.625V92.75H341.1v3.375h2.25V95h4.5V91.625H345.6V92.75h-1.125V91.625H345.6V88.25h1.125V90.5h1.125Zm-9,2.25v3.375h3.375V88.25Zm10.125,9H350.1V99.5h-1.125ZM350.1,99.5h1.125v2.25H350.1Zm1.125,2.25h2.25v1.125H352.35V104h-1.125ZM356.4,86Zm3.375,0H360.9v2.25h-1.125v1.125h4.5V92.75H365.4V90.5h1.125V86h1.125v3.375h4.5V101.75h-1.125v1.125H369.9V104h-1.125v-1.125H369.9V101.75h1.125V90.5h-4.5v2.25H365.4v1.125h-1.125v9H363.15V101.75h-4.5v1.125h-1.125v-13.5h1.125V88.25h1.125Zm-1.125,4.5V95h4.5V90.5Zm7.875,3.375h1.125V95h-1.125ZM367.65,95h1.125v2.25H367.65Zm-9,1.125v4.5h4.5v-4.5Zm9,5.625h1.125v1.125H367.65ZM376.2,86Zm3.375,0H380.7v2.25h-1.125V90.5H378.45v1.125h3.375v-2.25h1.125v2.25h-1.125V92.75H380.7v1.125h-1.125V95H378.45v1.125h2.25V95h1.125v1.125h1.125v2.25h-1.125V97.25H378.45v1.125h-1.125V97.25H376.2V96.125h1.125V95h1.125V93.875h1.125V92.75H376.2V91.625h1.125V90.5h1.125V88.25h1.125Zm4.5,1.125h7.875v4.5h-1.125V92.75h1.125v5.625h-1.125V97.25H385.2v4.5h-1.125V91.625H385.2V90.5h1.125V88.25h-2.25Zm3.375,1.125V90.5h-1.125v1.125H385.2V92.75h4.5V91.625h1.125V88.25Zm1.125,2.25H389.7v1.125h-1.125ZM385.2,93.875v2.25h2.25v-2.25Zm3.375,0v2.25h2.25v-2.25ZM377.325,99.5h1.125v2.25h-1.125v1.125H376.2V101.75h1.125Zm2.25,0H380.7v3.375h-1.125Zm2.25,0h1.125v3.375h-1.125Zm10.125,0h1.125v3.375H385.2V101.75h6.75ZM396,86Zm3.375,0H400.5v5.625h1.125V86h1.125v3.375h1.125V88.25H405v1.125h-1.125V90.5H402.75v1.125H405V90.5h4.5V86h1.125v4.5h2.25v1.125h-2.25v11.25H409.5V104h-1.125v-1.125H409.5V91.625H405V92.75h-9V91.625h3.375V90.5H398.25V89.375h1.125Zm-2.25,2.25h1.125v1.125h-1.125Zm1.125,5.625h1.125V95H398.25Zm4.5,0h1.125V95H402.75v1.125H405V97.25h-3.375v1.125h2.25V99.5h-2.25v1.125H405v1.125h-3.375v1.125h-2.25V104H398.25v-1.125h-1.125V101.75H400.5V99.5h-2.25V98.375h2.25V97.25h-3.375V96.125h2.25V95H400.5v1.125h1.125V95h1.125Zm3.375,0h1.125V95h-1.125ZM407.25,95h1.125v2.25H407.25Zm0,6.75h1.125v1.125H407.25ZM415.8,86Zm7.875,0H424.8v2.25h-1.125v1.125H422.55V90.5h-1.125v1.125H420.3V92.75h-1.125v1.125H418.05V95H415.8V93.875h2.25V92.75h1.125V91.625H420.3V90.5h1.125V89.375h1.125V88.25h1.125Zm1.125,2.25h1.125v1.125H424.8Zm1.125,1.125h1.125V90.5h-1.125ZM427.05,90.5h1.125v1.125H427.05Zm1.125,1.125H429.3V92.75h-1.125v1.125H424.8v2.25h4.5V97.25h-4.5v4.5h1.125v-1.125h1.125V99.5h1.125V98.375H429.3V99.5h-1.125v1.125H427.05v1.125h4.5v1.125H416.925V101.75h4.5v-1.125h1.125v1.125h1.125v-4.5h-4.5V96.125h4.5v-2.25H420.3V92.75h7.875ZM429.3,92.75h3.375v1.125H431.55V95h-1.125V93.875H429.3Zm-10.125,5.625H420.3V99.5h-1.125ZM420.3,99.5h1.125v1.125H420.3ZM435.6,86Zm3.375,0H440.1v1.125h-1.125Zm1.125,1.125h1.125V88.25H444.6V87.125h7.875V88.25H449.1v1.125h-1.125V90.5h3.375v7.875H444.6V99.5h-1.125v3.375h-4.5V104H437.85V99.5h-1.125v1.125H435.6V99.5h1.125V98.375h1.125V97.25h1.125V96.125H440.1V95h1.125V93.875h1.125V92.75h-3.375v1.125H437.85V95h-1.125V93.875h1.125V92.75h1.125V90.5H440.1v1.125h3.375v2.25H442.35V95h-1.125v1.125H440.1V97.25h-1.125v1.125h3.375V97.25h1.125v1.125H444.6V90.5h2.25V89.375h1.125V88.25H444.6V90.5h-1.125V89.375H437.85V90.5h-1.125v1.125H435.6V90.5h1.125V88.25H440.1Zm5.625,4.5V92.75h4.5V91.625Zm-6.75,2.25H440.1V95h-1.125Zm6.75,0V95h4.5V93.875Zm-4.5,2.25h1.125V97.25h-1.125Zm4.5,0V97.25h4.5V96.125Zm-6.75,3.375v2.25h3.375V99.5Zm7.875,0h1.125v1.125H446.85v1.125h-1.125v1.125H444.6V104h-1.125v-1.125H444.6V101.75h1.125v-1.125h1.125Zm2.25,0h1.125v1.125H449.1Zm1.125,1.125h1.125v1.125h-1.125Zm1.125,1.125h1.125V104H451.35ZM455.4,86Zm1.125,2.25h15.75v1.125H464.4v2.25h-1.125V92.75h7.875v10.125h-1.125V104H468.9v-1.125h1.125v-9H466.65v9h-1.125v-9h-2.25v9H462.15v-9h-3.375V104H457.65V92.75h4.5V91.625h1.125v-2.25h-6.75Zm11.25,13.5H468.9v1.125h-1.125ZM475.2,86Zm6.75,0h1.125v1.125H481.95Zm1.125,1.125H484.2V88.25h7.875v1.125H490.95V90.5h-1.125v1.125H488.7V90.5h1.125V89.375H477.45V90.5h-1.125v1.125H475.2V90.5h1.125V88.25h6.75ZM477.45,92.75h12.375v1.125H484.2V97.25h4.5v1.125h-4.5v3.375h7.875v1.125h-11.25V101.75h2.25V93.875H477.45Zm1.125,3.375H479.7v4.5h-1.125v1.125H477.45v1.125h-1.125V104H475.2v-1.125h1.125V101.75h1.125v-1.125h1.125Zm1.125,4.5h1.125v1.125H479.7ZM495,86Zm3.375,0H499.5v2.25h-1.125v1.125h4.5V92.75H504V90.5h1.125V86h1.125v3.375h4.5V101.75h-1.125v1.125H508.5V104h-1.125v-1.125H508.5V101.75h1.125V90.5h-4.5v2.25H504v1.125h-1.125v9H501.75V101.75h-4.5v1.125h-1.125v-13.5h1.125V88.25h1.125Zm-1.125,4.5V95h4.5V90.5Zm7.875,3.375h1.125V95h-1.125ZM506.25,95h1.125v2.25H506.25Zm-9,1.125v4.5h4.5v-4.5Zm9,5.625h1.125v1.125H506.25Zm17.55-6.5a2.31,2.31,0,0,0-1.656.648,2.1,2.1,0,0,0-.684,1.62,2.06,2.06,0,0,0,.684,1.6,2.326,2.326,0,0,0,1.656.666,2.357,2.357,0,0,0,1.656-.666,2.239,2.239,0,0,0,0-3.222A2.341,2.341,0,0,0,523.8,95.252Zm0,.954a1.362,1.362,0,0,1,.954.378,1.256,1.256,0,0,1,.414.936,1.285,1.285,0,0,1-.414.936,1.362,1.362,0,0,1-.954.378,1.3,1.3,0,0,1-.954-.378,1.194,1.194,0,0,1-.414-.936,1.17,1.17,0,0,1,.414-.936A1.3,1.3,0,0,1,523.8,96.206Z" transform="translate(236 507)" fill="#fff8dd"/>
    <path id="Path_54299" data-name="Path 54299" d="M0-24Zm4.5,0H6v6H9v-1.5h3V-21H9v-1.5h3V-24h1.5v1.5H18V-24h1.5v1.5h3V-21h-3v1.5h3V-15h-6v1.5H15V-15h1.5v-4.5H18V-21H13.5v1.5H15V-15H13.5v1.5H12V-12h4.5v-1.5H18V-12h4.5v1.5h-6V-9H21v1.5H16.5V-6H21v1.5H16.5V-3h6v1.5H12V0H10.5V-10.5H9V-9H7.5v-1.5H9V-12h1.5v-1.5H12V-15H9v-1.5H6V-15H7.5v1.5H6V0H4.5V-12H3v3H1.5v1.5H0V-9H1.5v-3H3v-3H4.5v-1.5H0V-18H4.5Zm6,6v1.5h3V-18ZM18-18v1.5h3V-18ZM7.5-13.5H9V-12H7.5Zm4.5,3V-9h3v-1.5Zm0,3V-6h3V-7.5Zm0,3V-3h3V-4.5ZM26.4-24Zm3,0h1.5v1.5H29.4Zm1.5,1.5h1.5V-21H30.9Zm6,0h4.5V-18H39.9v1.5H38.4V-15H36.9v1.5H35.4V-15h1.5v-1.5h1.5V-18h1.5v-3h-3Zm6,0h1.5V-21h1.5v-1.5h1.5V-21H45.9v3h1.5v-1.5h1.5V-18H47.4v3H45.9v1.5H38.4V-15h7.5v-1.5H44.4v-3H42.9Zm-16.5,3h9V-18h-9Zm10.5,0h1.5V-18H36.9Zm-9,3h6V-15h-6ZM47.4-15h1.5v1.5H47.4ZM27.9-13.5h6V-12h-6ZM38.4-12h7.5v7.5H44.4V-3h4.5v1.5H35.4V-3h4.5V-4.5h1.5V-3h1.5V-4.5h1.5V-6H39.9v1.5H38.4ZM27.9-10.5h6v9H32.4V-3h-3v1.5H27.9Zm12,0v3h4.5v-3ZM29.4-9v4.5h3V-9ZM52.8-24Zm10.5,0h1.5V-1.5H63.3V0H61.8V-1.5h1.5Zm-4.5,7.5h1.5v3H58.8v3H57.3V-9H55.8v1.5H54.3V-9h1.5v-1.5h1.5v-3h1.5Zm9,0h1.5V-15H67.8ZM69.3-15h1.5v1.5H69.3Zm1.5,1.5h1.5v3H70.8Zm1.5,3h1.5v3H72.3ZM60.3-3h1.5v1.5H60.3ZM79.2-24Zm6,0h1.5v3h4.5v-1.5h1.5V-21H91.2v3H89.7v1.5h1.5V-15H86.7v1.5h4.5V-15h1.5v-4.5h1.5V-24h1.5v4.5H94.2V-18h7.5v1.5h-3v6H97.2v3H95.7V-6H94.2v1.5H92.7V-3H91.2v1.5H89.7V0H88.2V-1.5h1.5V-3h1.5V-4.5h1.5V-6h1.5V-7.5h1.5v-3h1.5v-6h-3v9H92.7v-6H91.2V-12H89.7v1.5H88.2V-9H86.7v1.5h3V-6h-3v4.5H85.2V0H83.7V-1.5h1.5v-3H80.7V-6h4.5v-4.5h3V-12H83.7v1.5H82.2V-9H80.7v1.5H79.2V-9h1.5v-1.5h1.5V-12H80.7v-1.5h4.5V-15h-6v-1.5h6v-3H80.7V-21h4.5Zm1.5,4.5v3h1.5V-18h1.5v-1.5ZM95.7-6h1.5v1.5H95.7Zm1.5,1.5h1.5V-3H97.2ZM82.2-3h1.5v1.5H82.2ZM98.7-3h3v1.5h-1.5V0H98.7Zm6.9-21Zm9,0h1.5v1.5h-1.5Zm1.5,1.5h1.5V-21h10.5v3h-1.5v1.5h-1.5V-15H114.6v1.5h-1.5V-12h7.5v-1.5h1.5V-12h1.5v3h-1.5v-1.5h-4.5v3h6V-6h-6v3h9v1.5H107.1V-3h9V-6h-6V-7.5h6v-3h-6V-12h1.5v-1.5h1.5V-15h-4.5v-1.5h16.5V-18h1.5v-1.5h-18V-18h-1.5v1.5h-1.5V-18h1.5v-3h9ZM144-14.616a1.348,1.348,0,0,0-1.056.456,1.306,1.306,0,0,0-.408,1.032,1.374,1.374,0,0,0,.408,1.032,1.411,1.411,0,0,0,1.056.432,1.449,1.449,0,0,0,1.056-.432,1.4,1.4,0,0,0,.432-1.032,1.323,1.323,0,0,0-.432-1.032A1.383,1.383,0,0,0,144-14.616Zm0,8.784a1.348,1.348,0,0,0-1.056.456,1.306,1.306,0,0,0-.408,1.032,1.374,1.374,0,0,0,.408,1.032A1.411,1.411,0,0,0,144-2.88a1.449,1.449,0,0,0,1.056-.432,1.4,1.4,0,0,0,.432-1.032,1.323,1.323,0,0,0-.432-1.032A1.383,1.383,0,0,0,144-5.832Z" transform="translate(236 475)" fill="#ffda2d"/>
    <g id="rank-2" transform="translate(-237.343 -1104.5)">
      <g id="Rectangle_26814" data-name="Rectangle 26814" transform="translate(991 1575)" fill="#fff" stroke="#707070" stroke-width="1" opacity="0">
        <rect width="199.892" height="167.583" stroke="none"/>
        <rect x="0.5" y="0.5" width="198.892" height="166.583" fill="none"/>
      </g>
      <g id="Group_38541" data-name="Group 38541" transform="translate(1040.467 1575)">
        <g id="Group_38420" data-name="Group 38420" transform="translate(0)">
          <g id="Group_38418" data-name="Group 38418" transform="translate(0.997 24.015)">
            <path id="Path_50301" data-name="Path 50301" d="M-1681.55,2618.654v19.854H-1695v-13.523h-14.1v-6.331h-42.449v6.331h-8.679v-19.233h6.685v-6.79h5.531v-7.26h40.908v7.26h12.1v6.79h7.31v12.9Z" transform="translate(1760.743 -2591.702)" fill="#582726"/>
            <path id="Path_50302" data-name="Path 50302" d="M-1687.122,2651.861h6.5v-13.6h-13.653v-12.646h-12.794v-6.475H-1752.5v6.475h-7.479v53.007h7.479v6.432h58.225v-6.432h7.15Z" transform="translate(1760.56 -2592.771)" fill="#edd5c2"/>
            <path id="Path_50303" data-name="Path 50303" d="M-1726.577,2638.769v12.854h-8.046v-12.854Z" transform="translate(1781.23 -2592.821)" fill="#221e2a"/>
            <path id="Path_50304" data-name="Path 50304" d="M-1726.577,2638.769v12.854h-8.046v-12.854Z" transform="translate(1748.315 -2592.821)" fill="#221e2a"/>
            <path id="Path_50305" data-name="Path 50305" d="M-1721.533,2658.62v6.358h-6.5v-6.358Z" transform="translate(1769.614 -2589.88)" fill="#e2c2ab"/>
            <path id="Path_50306" data-name="Path 50306" d="M-1721.589,2665h13.84v7.094h-13.84Z" transform="translate(1749.401 -2589.897)" fill="#e2c2ab"/>
            <path id="Path_50307" data-name="Path 50307" d="M-1701.358,2658.62v5.986h-6.356v-5.986Z" transform="translate(1729.171 -2589.88)" fill="#e2c2ab"/>
            <path id="Path_50308" data-name="Path 50308" d="M-1680.034,2541.214v6.581h-6.733v26.226h-7.384v6.41h-58v-6.41h-7.823v-6.684h7.823v6.684h52.751v-13.516h6.9v-19.292Z" transform="translate(1759.976 -2488.838)" fill="#e2c2ab"/>
            <path id="Path_50310" data-name="Path 50310" d="M-1708.929,2581.228v4.883h13.789v5.377h5.562v19.74h6.947v21.143h-12.509v-14.36h-7.726v14.36h-38.748v-14.36h-7.349v14.36h-12.025v-21.143h5.761v-19.74h6.265v-5.377h12.625v-4.883Z" transform="translate(1761.588 -2488.941)" fill="#b9dedd"/>
            <path id="Path_50309" data-name="Path 50309" d="M-1713.93,2684.743v6.7h-14.1v-6.7Z" transform="translate(1762.01 -2592.939)" fill="#e2c2ab"/>
            <path id="Path_50311" data-name="Path 50311" d="M-1713.742,2587.458v6.692h-6.687V2619.4h-7.6v-31.939Z" transform="translate(1761.823 -2488.957)" fill="#00bcd1"/>
            <path id="Path_50312" data-name="Path 50312" d="M-1708.5,2632.5v7.673h8.344v16.639h6.119v26.727H-1708.5v-26.727h-5.071v-11.525h-18.963v38.252h-21.112v-6.37h7.434V2632.5Z" transform="translate(1767.658 -2489.073)" fill="#37303b"/>
            <path id="Path_50314" data-name="Path 50314" d="M-1747.1,2632.5v5.8h-5.407v6.236h-6.716V2632.5Z" transform="translate(1760.462 -2489.073)" fill="#edd5c2"/>
            <rect id="Rectangle_25440" data-name="Rectangle 25440" width="14.962" height="6.982" transform="translate(59.02 187.811)" fill="#221f24"/>
            <rect id="Rectangle_25441" data-name="Rectangle 25441" width="20.947" height="6.982" transform="translate(14.135 187.811)" fill="#221f24"/>
            <rect id="Rectangle_33857" data-name="Rectangle 33857" width="18" height="9" transform="translate(64.878 143.485)" fill="#edd5c2"/>
          </g>
          <g id="Group_38419" data-name="Group 38419" transform="translate(0)">
            <rect id="Rectangle_20960" data-name="Rectangle 20960" width="33.67" height="4.209" transform="translate(42.088 33.669)" fill="#d99a36"/>
            <rect id="Rectangle_20961" data-name="Rectangle 20961" width="33.67" height="4.209" transform="translate(42.088 25.252)" fill="#d99a36"/>
            <rect id="Rectangle_20962" data-name="Rectangle 20962" width="4.209" height="8.417" transform="translate(75.758 37.877)" fill="#e8bc48"/>
            <rect id="Rectangle_20963" data-name="Rectangle 20963" width="25.253" height="8.417" transform="translate(42.088 37.877)" fill="#e8bc48"/>
            <rect id="Rectangle_20964" data-name="Rectangle 20964" width="37.879" height="4.209" transform="translate(4.209 33.669)" fill="#e8bc48"/>
            <rect id="Rectangle_20965" data-name="Rectangle 20965" width="25.253" height="4.209" transform="translate(42.088 29.46)" fill="#e8bc48"/>
            <rect id="Rectangle_20966" data-name="Rectangle 20966" width="4.209" height="4.209" transform="translate(75.758 29.46)" fill="#e8bc48"/>
            <rect id="Rectangle_20967" data-name="Rectangle 20967" width="37.879" height="4.209" transform="translate(4.209 25.252)" fill="#e8bc48"/>
            <rect id="Rectangle_20968" data-name="Rectangle 20968" width="4.209" height="25.252" transform="translate(75.758 0)" fill="#e8bc48"/>
            <path id="Path_50173" data-name="Path 50173" d="M337.577,206.859h4.209v4.209h4.209v4.209H350.2v8.417h8.418v-8.417h4.209V227.9H337.577Z" transform="translate(-295.49 -202.65)" fill="#e8bc48"/>
            <rect id="Rectangle_20969" data-name="Rectangle 20969" width="16.835" height="8.417" transform="translate(0 37.877)" fill="#fff268"/>
            <rect id="Rectangle_20970" data-name="Rectangle 20970" width="21.044" height="8.417" transform="translate(21.044 37.877)" fill="#fff268"/>
            <rect id="Rectangle_20971" data-name="Rectangle 20971" width="8.418" height="8.417" transform="translate(67.34 37.877)" fill="#fff268"/>
            <rect id="Rectangle_20972" data-name="Rectangle 20972" width="16.835" height="4.209" transform="translate(0 29.46)" fill="#fff268"/>
            <rect id="Rectangle_20973" data-name="Rectangle 20973" width="21.044" height="4.209" transform="translate(21.044 29.46)" fill="#fff268"/>
            <rect id="Rectangle_20974" data-name="Rectangle 20974" width="8.418" height="4.209" transform="translate(67.34 29.46)" fill="#fff268"/>
            <path id="Path_50174" data-name="Path 50174" d="M407.885,226.252V201h4.209v4.209H416.3v4.209h4.209v4.209h4.209v12.626Z" transform="translate(-407.885 -201)" fill="#fff268"/>
            <path id="Path_50175" data-name="Path 50175" d="M372.731,226.252v-4.209h4.209v-8.417h4.209v-4.209h4.209v-4.209h4.209V201h4.209v25.251Z" transform="translate(-351.687 -201)" fill="#fff268"/>
            <path id="Path_50176" data-name="Path 50176" d="M325.859,227.9V211.068h4.209v-4.209h4.209V227.9Z" transform="translate(-258.519 -202.65)" fill="#fff268"/>
            <rect id="Rectangle_20975" data-name="Rectangle 20975" width="4.209" height="8.417" transform="translate(16.835 37.877)" fill="#caff94"/>
            <rect id="Rectangle_20976" data-name="Rectangle 20976" width="4.209" height="4.209" transform="translate(16.835 29.46)" fill="#caff94"/>
            <rect id="Rectangle_20977" data-name="Rectangle 20977" width="4.209" height="4.209" transform="translate(16.835 21.043)" fill="#caff94"/>
          </g>
        </g>
      </g>
    </g>
    <g id="Group_41325" data-name="Group 41325" transform="translate(1248.086 1519.404) rotate(-150)">
      <g id="Group_41324" data-name="Group 41324" transform="translate(741.041 549.324) rotate(45)">
        <rect id="Rectangle_33719" data-name="Rectangle 33719" width="2.595" height="7.786" transform="translate(36.334)" fill="#f6757a"/>
        <rect id="Rectangle_33720" data-name="Rectangle 33720" width="2.595" height="5.191" transform="translate(36.334 7.786)" fill="#b86f50"/>
        <rect id="Rectangle_33721" data-name="Rectangle 33721" width="7.786" height="2.595" transform="translate(28.548 2.595)" fill="#ecf0f1"/>
        <rect id="Rectangle_33722" data-name="Rectangle 33722" width="5.191" height="2.595" transform="translate(0 5.191)" fill="#262b44"/>
        <rect id="Rectangle_33723" data-name="Rectangle 33723" width="7.786" height="2.595" transform="translate(28.548 7.786)" fill="#8b9bb4"/>
        <rect id="Rectangle_33724" data-name="Rectangle 33724" width="18.167" height="2.595" transform="translate(10.381 10.381)" fill="#be4a2f"/>
        <rect id="Rectangle_33725" data-name="Rectangle 33725" width="7.786" height="2.595" transform="translate(28.548 10.381)" fill="#c0cbdc"/>
        <rect id="Rectangle_33726" data-name="Rectangle 33726" width="7.786" height="2.595" transform="translate(28.548 5.191)" fill="#c0cbdc"/>
        <rect id="Rectangle_33727" data-name="Rectangle 33727" width="7.786" height="2.595" transform="translate(28.548)" fill="#c0cbdc"/>
        <rect id="Rectangle_33729" data-name="Rectangle 33729" width="18.167" height="5.191" transform="translate(10.381 5.191)" fill="#f77622"/>
        <path id="Path_53371" data-name="Path 53371" d="M5.191,7.786V0H2.6V2.6H0V7.786Z" transform="translate(5.191 0)" fill="#e4a672"/>
        <path id="Path_53372" data-name="Path 53372" d="M5.191,5.191V0H0V2.6H2.6v2.6Z" transform="translate(5.191 7.786)" fill="#d77643"/>
        <rect id="Rectangle_33730" data-name="Rectangle 33730" width="18.167" height="2.595" transform="translate(10.381)" fill="#feae34"/>
        <rect id="Rectangle_33731" data-name="Rectangle 33731" width="18.167" height="2.595" transform="translate(10.381 2.595)" fill="#fee761"/>
      </g>
    </g>
  </g>
</svg>
