<svg xmlns="http://www.w3.org/2000/svg" width="740" height="98" viewBox="0 0 740 98">
  <g id="g9" transform="translate(-313 -56)">
    <g id="Exclusion_19" data-name="Exclusion 19" transform="translate(6480 5067.999)" fill="#15172a">
      <path d="M -5433.0009765625 -4915.99951171875 L -6159.43603515625 -4915.99951171875 L -6159.43603515625 -4916.40478515625 L -6159.43603515625 -4918.40478515625 L -6161.43603515625 -4918.40478515625 L -6165 -4918.40478515625 L -6165 -5007.59423828125 L -6161.43603515625 -5007.59423828125 L -6159.43603515625 -5007.59423828125 L -6159.43603515625 -5009.59423828125 L -6159.43603515625 -5009.9990234375 L -5433.0009765625 -5009.9990234375 L -5433.0009765625 -5008 L -5433.0009765625 -5006 L -5431.0009765625 -5006 L -5429 -5006 L -5429 -4920.00048828125 L -5431.0009765625 -4920.00048828125 L -5433.0009765625 -4920.00048828125 L -5433.0009765625 -4918.00048828125 L -5433.0009765625 -4915.99951171875 Z" stroke="none"/>
      <path d="M -5435.0009765625 -4917.99951171875 L -5435.0009765625 -4918.00048828125 L -5435.0009765625 -4922.00048828125 L -5431.0009765625 -4922.00048828125 L -5431 -4922.00048828125 L -5431 -5004 L -5431.0009765625 -5004 L -5435.0009765625 -5004 L -5435.0009765625 -5007.9990234375 L -6157.43603515625 -5007.9990234375 L -6157.43603515625 -5005.59423828125 L -6161.43603515625 -5005.59423828125 L -6163 -5005.59423828125 L -6163 -4920.40478515625 L -6161.43603515625 -4920.40478515625 L -6157.43603515625 -4920.40478515625 L -6157.43603515625 -4917.99951171875 L -5435.0009765625 -4917.99951171875 M -5431.0009765625 -4913.99951171875 L -6161.43603515625 -4913.99951171875 L -6161.43603515625 -4916.40478515625 L -6167 -4916.40478515625 L -6167 -5009.59423828125 L -6161.43603515625 -5009.59423828125 L -6161.43603515625 -5011.9990234375 L -5431.0009765625 -5011.9990234375 L -5431.0009765625 -5008 L -5427 -5008 L -5427 -4918.00048828125 L -5431.0009765625 -4918.00048828125 L -5431.0009765625 -4914.00048828125 L -5431.0009765625 -4913.99951171875 Z" stroke="none" fill="#fff"/>
    </g>
    <path id="Path_54300" data-name="Path 54300" d="M0-48Zm15,0h3v6h9v-6h3v6H42v3H30v6H45v3H30v3H27v-3H18v3H15v3H12v3H9v3H6v3H0v-3H6v-3H9v-3h3v-3h3v-3H0v-3H15v-6H3v-3H15Zm3,9v6h9v-6Zm3,12h3v12h3v3H24v9H21V0H18V-3h3Zm9,0h3v3H30Zm3,3h3v3H33Zm3,3h9v3H42v3H39v-3H36ZM12-18h3v6H12v3H9v3H6V-9H9v-3h3Zm18,0h3v3H30Zm3,3h3v3H33Zm-6,3h3v6H27Zm9,0h3v6H36ZM15-6h3v3H15ZM52.8-48Zm21,0h3v3h18v3h-18v3h15v3h-33v-3h15v-3h-18v-3h18Zm-12,15h27v9h-6v3h15v3h-45v-3h15v-3h-6Zm3,3v3h21v-3Zm6,6v3h9v-3Zm-9,9h27V0h-3V-3h-21V0h-3Zm3,3v6h21v-6Zm40.8-36Zm9,0h3v9h-3V0h-3V-30h-3v3h-3v-3h3v-3h3v-6h3Zm12,0h3v9h18v6h-3v3h-3v-3h3v-3h-18v3h-3v3h-3v3h-3v-3h3v-3h3v-6h3Zm6,18h3V-3h-3V0h-3V-3h3Zm-6,6h3v6h-3v3h-3v3h-3v-3h3v-3h3Zm12,0h3v3h-3Zm3,3h3v3h-3Zm3,3h3v6h-3Zm-18,12h3v3h-3Zm31.8-42Zm18,0h3v3h-3Zm3,3h3v3h18v6h-3v3h-3v-3h3v-3h-33v3h-3v3h-3v-3h3v-6h18Zm-12,12h24v3h-24Zm-6,9h39v3h-15V-6h-3V-21h-6v9h-3v6h-3v3h-3V0h-6V-3h6V-6h3v-6h3v-9h-12Zm36,9h3V-3h-15V-6h12Zm13.8-33Zm24,0h3v9h9v-6h3v6h6v3h-18v9h-3v-9h-15v9h12v15h-3v3h-3v-3h3V-24h-9V-9h-3v3h-3v3h-3V-6h3V-9h3V-39h18Zm9,0h3v3h-3Zm6,18h3v6h-3v6h-3v3h-3v6h-6v3h-3v3h-3V0h-3V-3h3V-6h3V-9h3v-3h3v-6h6v-6h3Zm-12,3h3v9h-3Zm-15,12h3v3h-3Zm30,3h3V0h-6V-3h3Zm-9,3h3v3h-3Zm3,3h3v3h-3ZM264-48Zm39,0h3V-3h-3V0h-3V-3h3Zm-33,3h3v3h-3Zm3,3h3v6h-3Zm6,0h15v30h-3v3h-3v-3h-3v3h-3v3h-3v3h-3V-6h3V-9h3v-3h-3Zm3,3v6h9v-6Zm15,0h3v24h-3Zm-33,3h3v3h-3Zm3,3h3v6h-3Zm15,3v6h9v-6Zm-9,3h3v6h-3V-3h-3V-15h-6v-3h6v-3h3Zm9,6v6h9v-6Zm9,12h3v6h-3Zm6,3h3v3h-3Zm19.8-42Zm30,0h3v6h-3v6h-3v3h9v-3h3v3h3v3h-21v3h-3v-3h3v-3h3v-3h3v-6h3Zm-27,3h15v3h-6v3h6v3h-6v3h6v3h-6v6h6V-3h-3V0h-3V-3h3V-21h-12Zm3,3v3h3v-3Zm27,0h3v6h-3Zm-27,6v3h3v-3Zm0,6v6h3v-6Zm36,0h3v3h-3Zm-21,6h9v12h-3v6h-3v3h-3V0h-3V-3h3V-6h3v-6h-3Zm12,0h9v12h-3v6h-3v3h-3V0h-3V-3h3V-6h3v-6h-3Zm-9,3v6h3v-6Zm12,0v6h3v-6Zm-33,3h3v9h-3v3h-3V-9h3Zm6,0h3v9h-3Zm0,12h3v3h-3Zm18,0h3v3h-3Zm12,0h3v3h-3Zm3,3h3V0h-3Zm32.592-31.272.72,25.056h2.976l.768-25.056ZM393.6-5.712a2.749,2.749,0,0,0-2.064.816,2.576,2.576,0,0,0-.816,2.016,2.749,2.749,0,0,0,.816,2.064A2.943,2.943,0,0,0,393.6,0a3.059,3.059,0,0,0,2.112-.816,2.783,2.783,0,0,0,.816-2.064,2.75,2.75,0,0,0-.816-2.016A2.856,2.856,0,0,0,393.6-5.712Z" transform="translate(474 129)" fill="#fff"/>
  </g>
</svg>
