<svg xmlns="http://www.w3.org/2000/svg" width="458.047" height="29" viewBox="0 0 458.047 29">
  <path id="Path_53727" data-name="Path 53727" d="M0-29Zm19.938,0H21.75v7.25h5.438v1.813H21.75V-14.5h5.438V0H25.375V-1.812h-7.25V0H16.313V-14.5h3.625ZM1.813-27.187H14.5v10.875H9.063V-14.5H14.5v1.813H9.063v1.813H14.5v1.813H7.25V-7.25H0V-9.062H7.25v-3.625H1.813V-14.5H7.25v-1.812H1.813Zm1.813,1.813v1.813H5.438v1.813H3.625v3.625H7.25v-1.812H5.438V-21.75H7.25v-3.625Zm5.438,0v3.625h1.813v-1.812h1.813v-1.812Zm1.813,3.625v1.813H9.063v1.813h3.625V-21.75Zm7.25,9.063v9.063h7.25v-9.062ZM1.813-5.437H3.625v3.625H1.813V0H0V-1.812H1.813Zm3.625,0H7.25v3.625H5.438Zm3.625,0h1.813v3.625H9.063Zm3.625,0H14.5v3.625H12.688ZM29-29Zm7.25,0h1.813v1.813H43.5v1.813H41.688v5.438h3.625v1.813H43.5V-14.5H30.813v-3.625H29v-1.812h3.625v-5.437H30.813v-1.812H36.25Zm10.875,0h7.25v3.625h1.813v1.813H52.563v-3.625H48.938v3.625H47.125v1.813H45.313v-1.812h1.813ZM34.438-25.375v1.813H36.25v-1.812Zm3.625,0v1.813h1.813v-1.812ZM34.438-21.75v1.813H36.25V-21.75Zm3.625,0v1.813h1.813V-21.75Zm9.063,0h7.25v3.625H52.563v1.813H48.938V-14.5H47.125v1.813h5.438v1.813H43.5v1.813h9.063V-7.25H43.5v1.813H56.188v1.813H43.5V0H39.875V-1.812h1.813V-3.625H29V-5.437H41.688V-7.25H32.625V-9.062h9.063v-1.812H32.625v-1.812H45.313V-14.5h1.813v-1.812h1.813v-1.812h3.625v-1.812H48.938v1.813H47.125Zm-14.5,3.625v1.813H36.25v-1.812Zm5.438,0v1.813h3.625v-1.812Zm14.5,1.813h1.813V-14.5H52.563ZM54.375-14.5h1.813v1.813H54.375ZM58-29Zm5.438,0H65.25v5.438H63.438V0H61.625V-18.125H59.813v1.813H58v-1.812h1.813v-1.812h1.813v-3.625h1.813Zm7.25,0H72.5v5.438H83.375v3.625H81.563v1.813H79.75v-1.812h1.813V-21.75H70.688v1.813H68.875v1.813H67.063v1.813H65.25v-1.812h1.813v-1.812h1.813v-3.625h1.813Zm3.625,10.875h1.813V-1.812H74.313V0H72.5V-1.812h1.813ZM70.688-14.5H72.5v3.625H70.688v1.813H68.875V-7.25H67.063V-9.062h1.813v-1.812h1.813Zm7.25,0H79.75v1.813H77.938Zm1.813,1.813h1.813v1.813H79.75Zm1.813,1.813h1.813V-7.25H81.563ZM70.688-3.625H72.5v1.813H70.688ZM87-29Zm5.438,0H94.25v3.625H92.438v1.813h7.25v5.438H101.5V-21.75h1.813V-29h1.813v5.438h7.25V-3.625h-1.812v1.813H108.75V0h-1.812V-1.812h1.813V-3.625h1.813V-21.75h-7.25v3.625H101.5v1.813H99.688v14.5H97.875V-3.625h-7.25v1.813H88.813v-21.75h1.813v-1.812h1.813Zm-1.812,7.25v7.25h7.25v-7.25Zm12.688,5.438h1.813V-14.5h-1.812Zm1.813,1.813h1.813v3.625h-1.812Zm-14.5,1.813v7.25h7.25v-7.25Zm14.5,9.063h1.813v1.813h-1.812ZM116-29Zm12.688,0H130.5v1.813h-1.812Zm1.813,1.813h1.813v3.625H130.5Zm1.813,3.625h1.813v3.625h-1.812ZM123.25-21.75h1.813V-3.625H123.25Zm-3.625,3.625h1.813v5.438h-1.812v3.625h-1.812V-7.25H116V-9.062h1.813v-3.625h1.813Zm18.125,0h1.813v1.813H137.75Zm1.813,1.813h1.813v3.625h-1.812Zm1.813,3.625h1.813v3.625h-1.812Zm-5.437,3.625h1.813v7.25H125.063V-3.625h10.875Zm23.534-3.378a1.755,1.755,0,0,0-1.363.493,1.683,1.683,0,0,0-.522,1.3,1.726,1.726,0,0,0,.493,1.276,1.687,1.687,0,0,0,1.247.522,1.552,1.552,0,0,0,.638-.116,3.42,3.42,0,0,1-.609,1.943A4.193,4.193,0,0,1,157.5-5.742v1.421a5.6,5.6,0,0,0,2.987-1.885A5.434,5.434,0,0,0,161.617-9.6a3.369,3.369,0,0,0-.58-2.03A1.852,1.852,0,0,0,159.471-12.441ZM174-29Zm5.438,0h1.813v7.25h3.625v1.813H181.25v3.625h3.625V-14.5H181.25V-1.812h-1.812V0h-1.812V-1.812h1.813V-12.687h-1.812v1.813H174v-1.812h3.625V-14.5h1.813v-5.437H174V-21.75h5.438Zm9.063,0h1.813v9.063h3.625V-21.75h5.438v1.813h-5.437v1.813h-3.625v5.438H188.5v-5.437h-3.625v-1.812H188.5Zm5.438,0h1.813v1.813h-1.812Zm1.813,1.813h1.813v3.625H195.75Zm0,10.875h1.813V-14.5H195.75v1.813h-1.812v1.813h-1.812v1.813h-1.812V-7.25H188.5v1.813h-1.812v1.813h-1.812v1.813h-1.812V-3.625h1.813V-5.437h1.813V-7.25H188.5V-9.062h1.813v-3.625h3.625V-14.5h1.813Zm-3.625,7.25h1.813v3.625h-1.812Zm5.438,0h1.813V0h-1.812V-1.812H195.75V-3.625h1.813Zm-3.625,3.625h1.813v1.813h-1.812ZM175.813-3.625h1.813v1.813h-1.812ZM203-29Zm12.688,0H217.5v10.875h5.438v-7.25h1.813V-14.5h-1.812v-1.812H217.5V-3.625h7.25v-7.25h1.813V0H224.75V-1.812H206.625v-9.062h1.813v7.25h7.25V-16.312h-7.25v-9.062h1.813v7.25h5.438ZM232-29Zm5.438,0H253.75v1.813h-1.812v1.813h-1.812v3.625h5.438v10.875H253.75v-1.812H246.5v1.813h-1.812v1.813h10.875v5.438H253.75v1.813h-1.812V0h-1.812V-1.812h1.813V-3.625h1.813V-7.25h-9.062v1.813h-1.812v1.813h-1.812v1.813H239.25V0h-3.625V-1.812h3.625V-3.625h1.813V-5.437h1.813V-7.25h-9.062V-9.062h9.063v-1.812h1.813v-1.812h-7.25v1.813h-1.812V-21.75H246.5v-1.812h1.813v-1.812h1.813v-1.812H237.438Zm3.625,3.625H246.5v1.813h-5.437Zm-3.625,5.438v1.813h7.25v-1.812Zm9.063,0v1.813h7.25v-1.812Zm-9.062,3.625V-14.5h7.25v-1.812Zm9.063,0V-14.5h7.25v-1.812Zm1.813,12.688h1.813v1.813h-1.812ZM261-29Zm16.313,0h1.813v7.25h9.063v1.813h-3.625v7.25H282.75v3.625h-1.812V-7.25h1.813v1.813h-3.625v1.813h-1.812v1.813H275.5V0h-1.812V-1.812H275.5V-3.625h1.813V-5.437h1.813V-9.062h1.813v-3.625h1.813v-7.25h-5.437v3.625H275.5V-14.5h-1.812v1.813h-1.812v3.625h1.813V-7.25h-1.812V0h-1.812V-7.25H268.25v1.813h-3.625v1.813h-1.812V-5.437H261V-7.25h3.625V-19.937H261V-21.75h7.25v-1.812h1.813v-1.812h-7.25v-1.812h9.063v3.625h-1.812v1.813H275.5v1.813h-3.625V-14.5h1.813v-1.812H275.5v-3.625h1.813Zm-10.875,9.063v3.625h3.625v-3.625Zm10.875,3.625h1.813v7.25h-1.812ZM266.438-14.5v1.813h3.625V-14.5Zm0,3.625V-7.25h1.813V-9.062h1.813v-1.812ZM282.75-5.437h1.813v1.813H282.75Zm1.813,1.813h3.625v1.813h-1.812V0h-1.812ZM290-29Zm16.313,0h1.813v1.813h-1.812v1.813h7.25v7.25H302.688V-14.5h10.875v9.063H311.75V-7.25h-9.062v1.813h-1.812V-25.375H304.5v-1.812h1.813Zm-12.687,1.813h1.813v1.813h-1.812Zm1.813,1.813h1.813v3.625h-1.812Zm7.25,1.813v3.625h9.063v-3.625ZM290-18.125h7.25V-5.437h-1.812v1.813h-1.812v1.813h-1.812V-3.625h1.813V-5.437h1.813V-16.312H290Zm12.688,5.438v3.625h9.063v-3.625Zm-5.437,7.25h1.813v1.813H297.25Zm1.813,1.813h18.125v1.813H299.063ZM319-29Zm7.25,0h1.813v3.625h9.063V-29h1.813v3.625h7.25v1.813h-7.25v1.813h3.625v5.438H322.625V-21.75h3.625v-1.812H319v-1.812h7.25Zm1.813,5.438v1.813h9.063v-1.812Zm-3.625,3.625v1.813h3.625v-1.812Zm5.438,0v1.813h5.438v-1.812Zm7.25,0v1.813h3.625v-1.812ZM320.813-14.5h25.375v3.625h-1.812v1.813h-1.812v-1.812h1.813v-1.812H331.688v1.813h9.063V-7.25h-1.812v1.813h-3.625v1.813h-3.625v1.813h-3.625V0h-7.25V-1.812h7.25V-3.625h3.625V-5.437h3.625V-7.25h3.625V-9.062h-9.062V-7.25H326.25v1.813h-3.625V-7.25h3.625V-9.062h1.813v-1.812h1.813v-1.812h-7.25v1.813h-1.812v1.813H319v-1.812h1.813Zm9.063,7.25h1.813v1.813h-1.812ZM348-29Zm5.438,0h1.813v3.625h-1.812v1.813h7.25v5.438H362.5V-21.75h1.813V-29h1.813v5.438h7.25V-3.625h-1.812v1.813H369.75V0h-1.812V-1.812h1.813V-3.625h1.813V-21.75h-7.25v3.625H362.5v1.813h-1.812v14.5h-1.812V-3.625h-7.25v1.813h-1.812v-21.75h1.813v-1.812h1.813Zm-1.812,7.25v7.25h7.25v-7.25Zm12.688,5.438h1.813V-14.5h-1.812Zm1.813,1.813h1.813v3.625h-1.812Zm-14.5,1.813v7.25h7.25v-7.25Zm14.5,9.063h1.813v1.813h-1.812ZM377-9.961v-3.32h3.32V-26.562h9.961v3.32h-6.641v9.961h3.32v3.32h-3.32V-3.32h6.641V0H380.32V-9.961Zm13.281-9.961v-3.32h3.32v3.32Zm0,13.281h3.32v3.32h-3.32Zm6.641-13.281V-6.641H393.6V-19.922ZM410.883,0V-26.562h3.32v6.641h3.32v3.32H414.2V0Zm6.641-9.961V-16.6h3.32v6.641Zm3.32,3.32v-3.32h3.32v-16.6h3.32V0h-3.32V-6.641ZM441.445,0V-16.6h3.32v3.32h9.961V-16.6h3.32V0h-3.32V-9.961h-9.961V0Zm9.961-16.6v-6.641h3.32V-16.6Zm-6.641-6.641h3.32V-16.6h-3.32Zm3.32-3.32h3.32v3.32h-3.32Z" transform="translate(0 29)" fill="#fff"/>
</svg>
