<svg xmlns="http://www.w3.org/2000/svg" width="608" height="163" viewBox="0 0 608 163">
  <g id="game-2-1" transform="translate(-379 -50.999)">
    <g id="Exclusion_7" data-name="Exclusion 7" transform="translate(818 4156)" fill="#e3f0fd">
      <path d="M 162.4281768798828 -3944 L -432.42822265625 -3944 L -432.42822265625 -3945.999267578125 L -432.42822265625 -3947.999267578125 L -434.42822265625 -3947.999267578125 L -437.0000610351562 -3947.999267578125 L -437.0000610351562 -4099 L -434.42822265625 -4099 L -432.42822265625 -4099 L -432.42822265625 -4101 L -432.42822265625 -4103.00048828125 L 162.4281768798828 -4103.00048828125 L 162.4281768798828 -4101 L 162.4281768798828 -4099 L 164.4281768798828 -4099 L 166.9999389648438 -4099 L 166.9998626708984 -3947.999267578125 L 164.4281768798828 -3947.999267578125 L 162.4281768798828 -3947.999267578125 L 162.4281768798828 -3945.999267578125 L 162.4281768798828 -3944 Z" stroke="none"/>
      <path d="M 160.4281005859375 -3946 L 160.4281005859375 -3949.999267578125 L 164.4281005859375 -3949.999267578125 L 164.9998626708984 -3949.999267578125 L 164.9999389648438 -4097 L 164.4281005859375 -4097 L 160.4281005859375 -4097 L 160.4281005859375 -4101 L 160.4281005859375 -4101.00048828125 L -430.4281311035156 -4101.00048828125 L -430.4281311035156 -4101 L -430.4281311035156 -4097 L -434.4281311035156 -4097 L -435.0000610351562 -4097 L -435.0000610351562 -3949.999267578125 L -434.4281311035156 -3949.999267578125 L -430.4281311035156 -3949.999267578125 L -430.4281311035156 -3946 L 160.4281005859375 -3946 M 164.4281005859375 -3942 L -434.4281311035156 -3942 L -434.4281311035156 -3945.999267578125 L -439.0000610351562 -3945.999267578125 L -439.0000610351562 -4101 L -434.4281311035156 -4101 L -434.4281311035156 -4105.00048828125 L 164.4281005859375 -4105.00048828125 L 164.4281005859375 -4101 L 168.9999389648438 -4101 L 168.9998626708984 -3945.999267578125 L 164.4281005859375 -3945.999267578125 L 164.4281005859375 -3942.0009765625 L 164.4281005859375 -3942 Z" stroke="none" fill="#15172a"/>
    </g>
    <path id="Path_54226" data-name="Path 54226" d="M0-24Zm10.5,0H12v4.5H22.5V-18h-12v1.5H9v3H7.5V-3h6v-7.5H9V-12h4.5v-4.5H15V-12h4.5v1.5H15V-3h7.5v1.5H7.5V0H6V-9H4.5v1.5H3V-6H1.5v1.5H0V-6H1.5V-7.5H3V-9H4.5v-1.5H6v-3H7.5v-3H9V-18H1.5v-1.5h9Zm15.9,0Zm6,0h1.5v3h3v-3h1.5v3h4.5v-3h1.5v3h4.5v1.5H44.4v3H42.9v-3H38.4v3H36.9v-3H32.4V-15h7.5v-3h1.5v3h7.5v1.5h-9V-12H38.4v1.5h7.5V0H44.4V-1.5h-6V0H36.9V-7.5H35.4V-6H33.9v1.5H32.4V0H30.9V-15H29.4v1.5H27.9V-12H26.4v-1.5h1.5V-15h1.5v-1.5h1.5v-3h1.5Zm0,10.5V-6h1.5V-7.5h1.5V-9h1.5v-3h1.5v-1.5Zm6,4.5v6h6V-9ZM52.8-24Zm10.5,0h1.5v7.5H75.3V-15H64.8v1.5H63.3V-9H61.8v3H60.3v1.5H58.8V-3H57.3v1.5H55.8V0H54.3V-1.5h1.5V-3h1.5V-4.5h1.5V-6h1.5V-9h1.5v-4.5h1.5V-15H52.8v-1.5H63.3Zm1.5,10.5h1.5v3H64.8Zm1.5,3h1.5v3H66.3Zm1.5,3h1.5V-6H67.8ZM69.3-6h1.5v1.5H69.3Zm1.5,1.5h4.5V-3H73.8v1.5H72.3V-3H70.8ZM79.2-24Zm1.5,1.5H91.2V-21h-3v3h3v6h-3v3h3v1.5H80.7Zm12,0h7.5V-15h-6v6H92.7ZM82.2-21V-9h4.5v-3h-3v-6h3v-3Zm12,0v4.5h4.5V-21Zm-9,4.5v3h4.5v-3Zm15,4.5h1.5v4.5H94.2V-9h6Zm-18,6h1.5v3H82.2v1.5H80.7V0H79.2V-1.5h1.5V-3h1.5Zm4.5,0h1.5v1.5H86.7Zm4.5,0h1.5v1.5H91.2Zm6,0h1.5v1.5H97.2Zm-9,1.5h1.5v3H88.2Zm4.5,0h1.5v3H92.7Zm6,0h1.5V-3H98.7ZM100.2-3h1.5V0h-1.5Zm5.4-21Zm4.5,0h1.5v6h3v-1.5h6V-15h-1.5v1.5h4.5V-15h-1.5v-4.5h6V-15h-3v1.5h3V-12h-3v1.5h3V-9h-3v1.5h3V-6h-1.5v1.5h-1.5v3h-1.5V-3h-1.5v1.5h-1.5V0h-3V-4.5h-1.5V-3h-1.5v1.5h-1.5V-3h1.5V-4.5h1.5V-6h-1.5V-7.5h3V-9h-3v-1.5h3V-12h-3v-1.5h3V-15h-3v1.5h-1.5V-12h-1.5V-1.5h-1.5V0h-1.5V-1.5h1.5v-9h-1.5V-9h-3v-1.5h3V-12h1.5v-4.5h-4.5V-18h4.5Zm10.5,0h1.5v1.5h6V-21H114.6v-1.5h6Zm-4.5,6v1.5h3V-18Zm7.5,0v1.5h3V-18Zm-12,1.5v3h1.5V-15h1.5v-1.5Zm7.5,4.5v1.5h4.5V-12Zm0,3v1.5h4.5V-9Zm0,3v4.5h1.5V-3h1.5V-4.5h3V-6h-3v1.5h-1.5V-6Zm-12,3h1.5v1.5h-1.5Zm18,1.5h3V0h-3ZM132-24Zm4.5,0H138v3h-1.5v1.5h6V-15H144v-3h1.5v-6H147v4.5h6V-3h-1.5v1.5H150V0h-1.5V-1.5H150V-3h1.5V-18h-6v3H144v1.5h-1.5v12H141V-3h-6v1.5h-1.5v-18H135V-21h1.5ZM135-18v6h6v-6Zm10.5,4.5H147V-12h-1.5ZM147-12h1.5v3H147Zm-12,1.5v6h6v-6ZM147-3h1.5v1.5H147Zm11.4-21Zm3,0h1.5v6h3v-1.5h7.5V-24h1.5v4.5h3V-21h1.5v1.5h1.5V-18h-6v9h-1.5v-9h-6v4.5h4.5V-6h-1.5v1.5h-1.5V-6h1.5v-6h-3v4.5h1.5V-6h-1.5v1.5h-1.5v3h-1.5V0h-1.5V-1.5h1.5v-3h1.5v-3h-3V-6h-1.5v1.5h-1.5V-6h-1.5V-7.5h3v-9h-3V-18h3Zm15,1.5h1.5V-21h-1.5Zm-13.5,6V-9h3v-7.5Zm15,1.5h1.5v3h-1.5v3h-1.5v6h-1.5V-4.5h-1.5V-3h-1.5v1.5h-1.5V0h-1.5V-1.5h1.5V-3h1.5V-4.5h1.5V-6h1.5V-9h1.5v-3h1.5Zm1.5,10.5h1.5V0h-3V-1.5h1.5Zm-3,1.5h1.5v1.5h-1.5Zm8.4-21Zm9,0h1.5v1.5h-1.5Zm1.5,1.5h1.5V-21h-1.5Zm-10.5,3h22.5V-18H196.8v3h7.5V-4.5h-1.5V-3h-1.5V-4.5h1.5v-9h-6V0h-1.5V-13.5h-6V-3h-1.5V-15h7.5v-3H184.8ZM199.8-6h1.5v1.5h-1.5Zm11.4-18Zm3,0h1.5v1.5h-1.5Zm1.5,1.5h1.5v3h-1.5Zm6,1.5h10.5v10.5h-4.5v3h4.5V-6h-4.5v3h6v1.5h-15V-3h7.5V-6h-4.5V-7.5h4.5v-3h-4.5v-3h-1.5V-12h-1.5v1.5h-1.5V0h-1.5V-12h-1.5v1.5h-1.5V-9h-1.5v-1.5h1.5V-12h1.5v-1.5h1.5V-15h1.5v-1.5h-6V-18h9v1.5h-1.5V-15h-1.5v3h1.5v-1.5h1.5V-15h1.5Zm1.5,1.5v3h3v-3Zm4.5,0v3h3v-3ZM223.2-15v3h3v-3Zm4.5,0v3h3v-3Zm-9,4.5h1.5V-9h-1.5ZM220.2-9h1.5v1.5h-1.5Zm29.376-1.3a1.452,1.452,0,0,0-1.128.408,1.393,1.393,0,0,0-.432,1.08,1.428,1.428,0,0,0,.408,1.056,1.4,1.4,0,0,0,1.032.432,1.285,1.285,0,0,0,.528-.1,2.83,2.83,0,0,1-.5,1.608,3.47,3.47,0,0,1-1.536,1.056v1.176a4.63,4.63,0,0,0,2.472-1.56,4.5,4.5,0,0,0,.936-2.808,2.788,2.788,0,0,0-.48-1.68A1.532,1.532,0,0,0,249.576-10.3ZM0,11Zm4.5,0H6v4.5H4.5V35H3V20H1.5v1.5H0V20H1.5V18.5H3v-3H4.5Zm6,0H12v4.5h9v3H19.5V20H18V18.5h1.5V17h-9v1.5H9V20H7.5v1.5H6V20H7.5V18.5H9v-3h1.5Zm3,9H15V33.5H13.5V35H12V33.5h1.5Zm-3,3H12v3H10.5v1.5H9V29H7.5V27.5H9V26h1.5Zm6,0H18v1.5H16.5ZM18,24.5h1.5V26H18ZM19.5,26H21v3H19.5Zm-9,6H12v1.5H10.5ZM26.4,11Zm4.5,1.5H44.4v21H42.9V32H32.4v1.5H30.9ZM32.4,14v7.5H42.9V14Zm0,9v7.5H42.9V23ZM52.8,11Zm6,0h1.5v3H58.8v1.5H57.3V17H55.8v1.5H54.3V17h1.5V15.5h1.5V14h1.5Zm3,0h1.5v1.5h12V14H61.8v1.5H60.3V17H58.8V15.5h1.5V14h1.5Zm0,4.5H72.3V23H64.8v1.5h9V26H72.3v1.5H70.8V29H69.3v1.5h1.5V32h-3V30.5H66.3V32H64.8v1.5h-3V35h-3V33.5h3V32h3V30.5h1.5V29h3V27.5h1.5V26h-6v1.5h-3V29H60.3v1.5H58.8V29h1.5V27.5h1.5V26h1.5V23H61.8ZM63.3,17v1.5h7.5V17Zm-4.5,1.5h1.5V20H58.8v1.5H57.3V35H55.8V24.5H54.3V26H52.8V24.5h1.5V23h1.5V21.5h1.5V20h1.5ZM63.3,20v1.5h7.5V20Zm1.5,7.5h1.5V29H64.8Zm6,4.5h4.5v1.5H73.8V35H72.3V33.5H70.8Zm8.4-21Zm0,10.5h22.5V23H79.2ZM105.6,11Zm4.5,1.5h13.5v21h-1.5V32H111.6v1.5h-1.5Zm1.5,1.5v7.5h10.5V14Zm0,9v7.5h10.5V23ZM132,11Zm4.5,0H138v3h-1.5v1.5h6V20H144V17h1.5V11H147v4.5h6V32h-1.5v1.5H150V35h-1.5V33.5H150V32h1.5V17h-6v3H144v1.5h-1.5v12H141V32h-6v1.5h-1.5v-18H135V14h1.5ZM135,17v6h6V17Zm10.5,4.5H147V23h-1.5ZM147,23h1.5v3H147Zm-12,1.5v6h6v-6ZM147,32h1.5v1.5H147Zm11.4-21Zm9,0h1.5v1.5h-1.5Zm1.5,1.5h1.5V14h10.5v3h-1.5v1.5h-1.5V17h1.5V15.5h-6V17h-1.5V15.5h-4.5V17h-1.5v1.5h-1.5V17h1.5V15.5h-4.5V17h-1.5v1.5h-1.5V17h1.5V14h9Zm4.5,4.5h1.5v1.5h-1.5Zm-12,3h16.5v1.5h-4.5v3h6V26h-6v7.5h-1.5V35h-1.5V33.5h1.5v-6h-1.5V29h-1.5v1.5h-3V32h-3v1.5h-3V32h3V30.5h3V29h3V27.5h1.5V26h-7.5V24.5h1.5V23h1.5v1.5h6v-3H161.4Zm7.5,12h1.5v1.5h-1.5Zm15.9-21Zm4.5,0h1.5v6h3V15.5h1.5V14h1.5V12.5h1.5V11h1.5v1.5h-1.5V14h-1.5v1.5h6V14h1.5v1.5h1.5v3h-1.5V20h-1.5V18.5h1.5V17H193.8v1.5h-3v3h1.5V23h-1.5V35h-1.5V23h-1.5v3h-1.5v1.5h-1.5V26h1.5V23h1.5V20h1.5V18.5h-4.5V17h4.5Zm12,1.5h1.5V14h-1.5Zm-4.5,6h1.5V20h-1.5v1.5h-1.5V23h-1.5v1.5h-1.5V23h1.5V21.5h1.5V20h1.5Zm7.5,1.5h1.5v1.5h-1.5Zm-7.5,1.5h1.5V23h6v3h-1.5v3h-1.5v1.5h-1.5V32h-1.5v1.5h-3V35h-3V33.5h3V32h3V30.5h1.5V29h1.5V26h1.5V24.5h-6V26h-1.5v1.5h-1.5V29h-1.5V27.5h1.5V26h1.5V24.5h1.5Zm9,0h1.5V23h-1.5Zm-9,4.5h1.5v1.5h-1.5Zm1.5,1.5h1.5V29h-1.5Zm3,3h1.5V32h-1.5Zm1.5,1.5h4.5v1.5h-1.5V35h-1.5V33.5h-1.5Zm8.4-21Zm6,0h1.5v3h7.5V11h1.5v3h4.5v1.5h-4.5v12h6V29H211.2V27.5h6v-12h-4.5V14h4.5Zm1.5,4.5v3h7.5v-3Zm0,4.5v3h7.5V20Zm0,4.5v3h7.5v-3Zm-1.5,6h1.5V32h-1.5v1.5h-1.5V35h-1.5V33.5h1.5V32h1.5Zm9,0h1.5V32h-1.5Zm1.5,1.5h1.5v1.5h-1.5Zm1.5,1.5h1.5V35h-1.5ZM237.6,11Zm10.5,0h1.5v6h7.5V27.5h-1.5V26h-6v9h-1.5V26h-6v1.5h-1.5V17h7.5Zm-6,7.5v6h6v-6Zm7.5,0v6h6v-6Zm26.376,6.2a1.452,1.452,0,0,0-1.128.408,1.393,1.393,0,0,0-.432,1.08,1.428,1.428,0,0,0,.408,1.056,1.4,1.4,0,0,0,1.032.432,1.285,1.285,0,0,0,.528-.1,2.83,2.83,0,0,1-.5,1.608,3.471,3.471,0,0,1-1.536,1.056v1.176a4.63,4.63,0,0,0,2.472-1.56,4.5,4.5,0,0,0,.936-2.808,2.788,2.788,0,0,0-.48-1.68A1.532,1.532,0,0,0,275.976,24.7ZM290.4,11Zm10.5,0h1.5v6h9v1.5h-9v6h7.5V26h-7.5v6h10.5v1.5H290.4V32h10.5V26h-7.5V24.5h7.5v-6h-6v3h-1.5V23h-1.5v1.5h-1.5V23h1.5V21.5h1.5v-3h1.5v-6h1.5V17h4.5Zm15.9,0Zm16.5,0h1.5v1.5h1.5V14h-4.5v4.5h6V20h-6v4.5h4.5v9h-1.5V32h-7.5v1.5h-1.5v-9h4.5V20h-6V18.5h6v-3h-4.5V14h4.5V12.5h3Zm-13.5,1.5h1.5V14h-1.5Zm1.5,1.5h1.5v3h-1.5Zm-4.5,3h1.5v1.5h-1.5Zm1.5,1.5h1.5v3h-1.5Zm4.5,3h1.5V23h-1.5v1.5h-1.5v9h-1.5v-6h-3V26h3V24.5h1.5V23h1.5Zm4.5,4.5v4.5h7.5V26Zm15.9-15Zm9,0h1.5v3h3v1.5h-3v3h3V26h4.5V23h-3V21.5h3V20h-3V18.5h3v-3h-3V14h4.5V26h3v1.5H343.2V26h3V14h3V12.5h1.5V14h-1.5v1.5h-1.5v3h3V20h-3v1.5h3V23h-3v3h4.5V21.5h1.5V26h1.5V20h-3Zm-1.5,18h1.5v1.5h-1.5V32h-1.5v1.5h-1.5V35h-1.5V33.5h1.5V32h1.5V30.5h1.5Zm6,0h1.5v1.5h-1.5Zm1.5,1.5h1.5V32h-1.5Zm1.5,1.5h3v3h-1.5V33.5h-1.5Zm9.9-21Zm1.5,3h19.5v1.5h-9v15h10.5V32H369.6V30.5h10.5v-15h-9ZM396,11Zm6,0h1.5v4.5H402v6h1.5V20H405V17h1.5V11H408v4.5h10.5V17h-9v4.5h6V23h-6v4.5H417V29h-7.5v6H408V17h-1.5v3H405v1.5h-1.5V23H402V35h-1.5V20H399v1.5h-1.5V23H396V21.5h1.5V20H399V18.5h1.5v-3H402Zm20.4,0Zm4.5,0h1.5v3h3V12.5h1.5V14h1.5v1.5h-3V17h3V15.5h1.5V14h1.5V11h1.5v3h1.5V12.5h1.5V14h3v1.5h-3V17h3v1.5h-3V20h3v1.5h-3V23h3v1.5h-7.5V26h4.5v1.5h-1.5V29h-1.5v1.5h-3V32h-4.5v1.5h-4.5V35h-4.5V33.5h4.5V32h4.5V30.5h4.5V29h3V27.5H428.4V29h-1.5V27.5h-3V26h1.5V17h-1.5v1.5h-1.5V17h1.5V15.5h1.5V14h1.5Zm3,0h1.5v1.5h-1.5Zm-3,4.5V17h3V15.5Zm10.5,0V17h3V15.5Zm-3,1.5v1.5h-3V20h3v1.5h-3V23h4.5V17Zm-7.5,1.5V20h3V18.5Zm10.5,0V20h3V18.5Zm-10.5,3V23h3V21.5Zm10.5,0V23h3V21.5Zm-10.5,3V26h9V24.5Zm1.5,4.5h3v1.5h-3Zm7.5,3h4.5v1.5h-4.5Zm4.5,1.5h4.5V35h-4.5ZM448.8,11Zm1.5,1.5h19.5V14H459.3v3h-1.5v1.5h10.5V35h-1.5V33.5H453.3V35h-1.5V18.5h4.5V17h1.5V14h-7.5Zm3,7.5V32h3V20Zm4.5,0v3h4.5V20Zm6,0V32h3V20Zm-6,4.5v3h4.5v-3Zm0,4.5v3h4.5V29Zm17.4-18Zm10.5,0h1.5v4.5h9V17h-9v9h-1.5v3h-1.5v1.5h-1.5V32h-1.5v1.5h-3V35h-3V33.5h3V32h3V30.5h1.5V29h1.5V26h1.5V17h-9V15.5h9Zm-6,7.5h1.5V23h-1.5v1.5h-1.5V26h-1.5v1.5h-1.5V26h1.5V24.5h1.5V23h1.5Zm12,0h1.5V23h-1.5v1.5h-1.5V26h-1.5v3h-1.5V26h1.5V24.5h1.5V23h1.5ZM481.2,23h1.5v1.5h-1.5Zm12,0h1.5v1.5h-1.5Zm-10.5,1.5h1.5V26h-1.5Zm12,0h1.5V26h-1.5Zm1.5,1.5h1.5v1.5h-1.5Zm-7.5,3h1.5v1.5h-1.5Zm1.5,1.5h3V32h-3Zm3,1.5h4.5v1.5h-1.5V35h-1.5V33.5h-1.5Zm8.4-21Zm6,0h1.5v1.5h4.5V14h-1.5v4.5h3V20h-1.5v3H503.1V20h-1.5V18.5h3V14h-1.5V12.5h4.5Zm9,0h6v3h1.5v1.5h-3v-3h-3v3h-1.5V17h-1.5V15.5h1.5Zm-10.5,3v1.5h1.5V14Zm3,0v1.5h1.5V14Zm-3,3v1.5h1.5V17Zm3,0v1.5h1.5V17Zm7.5,0h6v3h-1.5v1.5h-3V23h-1.5v1.5h4.5V26h-7.5v1.5h7.5V29h-7.5v1.5h10.5V32H513.6v3h-3V33.5h1.5V32H501.6V30.5h10.5V29h-7.5V27.5h7.5V26h-7.5V24.5h10.5V23h1.5V21.5h1.5V20h3V18.5h-3V20h-1.5Zm-12,3v1.5h3V20Zm4.5,0v1.5h3V20Zm12,1.5h1.5V23h-1.5Zm1.5,1.5h1.5v1.5h-1.5Zm17.376,1.7a1.452,1.452,0,0,0-1.128.408,1.392,1.392,0,0,0-.432,1.08,1.428,1.428,0,0,0,.408,1.056,1.4,1.4,0,0,0,1.032.432,1.284,1.284,0,0,0,.528-.1,2.83,2.83,0,0,1-.5,1.608,3.47,3.47,0,0,1-1.536,1.056v1.176a4.63,4.63,0,0,0,2.472-1.56,4.5,4.5,0,0,0,.936-2.808,2.788,2.788,0,0,0-.48-1.68A1.532,1.532,0,0,0,539.976,24.7ZM0,46Zm6,0H7.5v1.5H6Zm1.5,1.5H9v3H7.5Zm1.5,3h1.5V52h9V68.5H18V70H16.5V68.5H18V64H15V62.5h3v-9H10.5V55H9V53.5H4.5V70H3V52H9ZM10.5,55H12v3H10.5v3H9v1.5H7.5V64H6V62.5H7.5V61H9V58h1.5ZM12,58h1.5v3H12Zm1.5,3H15v1.5H13.5ZM15,67h1.5v1.5H15ZM26.4,46Zm10.5,0h1.5v1.5H36.9Zm1.5,1.5h1.5v3H38.4Zm1.5,3h1.5v3H39.9ZM32.4,52h1.5V67H32.4Zm-3,3h1.5v4.5H29.4v3H27.9V64H26.4V62.5h1.5v-3h1.5Zm15,0h1.5v1.5H44.4Zm1.5,1.5h1.5v3H45.9Zm1.5,3h1.5v3H47.4Zm-4.5,3h1.5v6H33.9V67h9ZM52.8,46Zm4.5,0h1.5v3H57.3v1.5h6V55h1.5V52h1.5V46h1.5v4.5h6V67H72.3v1.5H70.8V70H69.3V68.5h1.5V67h1.5V52h-6v3H64.8v1.5H63.3v12H61.8V67h-6v1.5H54.3v-18h1.5V49h1.5Zm-1.5,6v6h6V52Zm10.5,4.5h1.5V58H66.3ZM67.8,58h1.5v3H67.8Zm-12,1.5v6h6v-6Zm12,7.5h1.5v1.5H67.8ZM79.2,46Zm6,0h1.5v3h7.5V46h1.5v3h6v1.5h-6V52h3v4.5H82.2V52h3V50.5h-6V49h6Zm1.5,4.5V52h7.5V50.5Zm-3,3V55h3V53.5Zm4.5,0V55h4.5V53.5Zm6,0V55h3V53.5ZM80.7,58h21v3h-1.5v1.5H98.7V61h1.5V59.5H89.7V61h7.5v3H95.7v1.5h-3V67h-3v1.5h-3V70h-6V68.5h6V67h3V65.5h3V64h3V62.5H88.2V64h-3v1.5h-3V64h3V62.5h1.5V61h1.5V59.5h-6V61H80.7v1.5H79.2V61h1.5Zm7.5,6h1.5v1.5H88.2Zm17.4-18Zm6,0h1.5v4.5h3V52h-3v1.5h1.5V55h-1.5v7.5h-1.5V55h-1.5v1.5h-1.5V58h-1.5V56.5h1.5V55h1.5V53.5h1.5V52h-4.5V50.5h4.5Zm6,1.5h7.5V61h-7.5Zm1.5,1.5v3h4.5V49Zm0,4.5V55h4.5V53.5ZM114.6,55h1.5v1.5h-1.5Zm4.5,1.5v3h4.5v-3ZM114.6,61h1.5v1.5h-1.5Zm1.5,1.5h1.5v3h-1.5ZM108.6,64h1.5v3h-1.5v1.5h-1.5V67h1.5Zm3,0h1.5v4.5h-1.5Zm12,0h1.5v1.5h-1.5Zm-3,1.5h1.5V70h-9V68.5h7.5Zm4.5,0h1.5v3h-1.5ZM132,46Zm4.5,0H138v4.5h-1.5V70H135V55h-1.5v1.5H132V55h1.5V53.5H135v-3h1.5Zm6,0H144v4.5h9v3h-1.5V55H150V53.5h1.5V52h-9v1.5H141V55h-1.5v1.5H138V55h1.5V53.5H141v-3h1.5Zm3,9H147V68.5h-1.5V70H144V68.5h1.5Zm-3,3H144v3h-1.5v1.5H141V64h-1.5V62.5H141V61h1.5Zm6,0H150v1.5h-1.5Zm1.5,1.5h1.5V61H150Zm1.5,1.5H153v3h-1.5Zm-9,6H144v1.5h-1.5Zm15.9-21Zm6,0h1.5v1.5h4.5V46h1.5v1.5h9V49h-3v1.5h-1.5V49h-1.5v3h3V50.5h1.5V52h1.5v1.5h-6V64h-1.5V53.5h-9v12h-1.5V67h-1.5v1.5h-1.5V70h-1.5V68.5h1.5V67h1.5V65.5h1.5V61h-1.5v3h-1.5v1.5h-1.5V64h1.5V61h-1.5V59.5h4.5V58h-3V52h1.5v4.5h1.5V52h10.5V49h-1.5v1.5h-1.5V49h-4.5v1.5h-1.5V49h-6V47.5h6Zm1.5,9h6v1.5h-1.5V58h1.5v4.5h-1.5v3h1.5V67h-6Zm1.5,1.5V58h1.5V56.5Zm10.5,0h1.5V61h-1.5v3h-1.5v3h-3v1.5h-1.5V70h-1.5V68.5h1.5V67h1.5V65.5h1.5V64h1.5V61h1.5Zm-10.5,3V61h3V59.5Zm0,3v3h1.5v-3Zm12,3h1.5V70h-3V68.5h1.5Zm-3,1.5h1.5v1.5h-1.5Zm8.4-21Zm3,1.5h16.5v3h-1.5V52h-1.5v1.5h-1.5V55h-1.5v1.5h-1.5v12h-1.5V70h-1.5V68.5h1.5V55h3V53.5h1.5V52h1.5V50.5h1.5V49h-15ZM192.3,67h1.5v1.5h-1.5Zm18.9-21Zm4.5,0h1.5v6h4.5v4.5h4.5v-3h1.5V52h1.5V50.5h1.5V49h-9V47.5h10.5v3h-1.5V52h-1.5v1.5h-1.5v3h6V58h-6V68.5h-1.5V70h-1.5V68.5h1.5V58h-4.5v1.5h-1.5v3h-1.5V64h-1.5v1.5h-1.5V67h-1.5v1.5h-1.5V70h-1.5V68.5h1.5V67h1.5V65.5h1.5V64h1.5V62.5h1.5v-3h1.5v-6h-4.5V58h-1.5v1.5h-1.5V58h1.5V53.5h-3V52h4.5Zm-1.5,13.5h1.5V61h-1.5Zm1.5,1.5h1.5v1.5h-1.5Zm3,3h1.5v1.5h-1.5Zm1.5,1.5h1.5V67h-1.5Zm3,1.5h1.5v1.5h-1.5Zm14.4-21Zm7.5,0h1.5v3h7.5v3h-1.5v3h-1.5v3h-1.5v3h-1.5v1.5h-1.5V64h-1.5v1.5h-1.5V67h-3v1.5h-3V67h3V65.5h3V64h1.5V62.5h1.5V61h1.5V58h1.5V55h1.5V52h1.5V50.5h-7.5v3h-1.5V55h-1.5v1.5h-1.5V55h1.5V53.5h1.5v-3h1.5Zm6,12h1.5v3h-1.5Zm1.5,3h1.5v3h-1.5Zm1.5,3h1.5v1.5h-1.5Zm1.5,1.5h4.5V67h-1.5v1.5h-1.5V67h-1.5Zm10.8,5.051a1.732,1.732,0,0,1-1.687-1.687,1.592,1.592,0,0,1,.51-1.178,1.628,1.628,0,0,1,2.344,0,1.592,1.592,0,0,1,.51,1.178,1.733,1.733,0,0,1-1.676,1.688Zm4.793,0a1.682,1.682,0,0,1,0-3.363,1.636,1.636,0,0,1,1.178.5,1.592,1.592,0,0,1,.51,1.178,1.732,1.732,0,0,1-1.687,1.688Zm4.8,0a1.732,1.732,0,0,1-1.687-1.687,1.592,1.592,0,0,1,.51-1.178,1.636,1.636,0,0,1,1.178-.5,1.682,1.682,0,0,1,0,3.363Zm12,0a1.921,1.921,0,1,1,1.348-.562A1.838,1.838,0,0,1,288,70.551Z" transform="translate(394 108)" fill="#132941"/>
  </g>
</svg>
