<svg xmlns="http://www.w3.org/2000/svg" xmlns:xlink="http://www.w3.org/1999/xlink" width="106.695" height="85.2" viewBox="0 0 106.695 85.2">
  <defs>
    <clipPath id="clip-path">
      <rect id="Rectangle_25442" data-name="Rectangle 25442" width="106.695" height="85.2" transform="translate(0)" fill="#fff" stroke="#707070" stroke-width="1"/>
    </clipPath>
  </defs>
  <g id="game-2" transform="translate(-680.797 -57.634)">
    <g id="hero-1" transform="translate(2960.797 1211.634)">
      <g id="nav-1" transform="translate(-2280 -1154)" clip-path="url(#clip-path)">
        <g id="Group_38421" data-name="Group 38421" transform="translate(34.23)">
          <path id="Path_50301" data-name="Path 50301" d="M-1707.456,2607.513v11.647h-9.019v-7.934h-9.456v-3.713H-1754.4v3.713h-5.821v-11.282h4.483v-3.983h3.71V2591.7h27.438v4.259h8.118v3.983h4.9v7.569Z" transform="translate(1774.722 -2577.615)" fill="#582726"/>
          <path id="Path_50302" data-name="Path 50302" d="M-1711.11,2638.335h4.361v-7.977h-9.157v-7.417h-8.582v-3.8h-30.471v3.8h-5.017v31.095h5.017v3.774h39.052v-3.774h4.8Z" transform="translate(1774.517 -2589.584)" fill="#edd5c2"/>
          <path id="Path_50303" data-name="Path 50303" d="M-1729.225,2638.77v7.541h-5.4v-7.541Z" transform="translate(1780.032 -2597.728)" fill="#221e2a"/>
          <path id="Path_50304" data-name="Path 50304" d="M-1729.225,2638.77v7.541h-5.4v-7.541Z" transform="translate(1757.955 -2597.728)" fill="#221e2a"/>
          <path id="Path_50305" data-name="Path 50305" d="M-1723.674,2658.621v3.729h-4.359v-3.729Z" transform="translate(1770.073 -2604.209)" fill="#e2c2ab"/>
          <path id="Path_50306" data-name="Path 50306" d="M-1721.589,2665h9.283v4.162h-9.283Z" transform="translate(1754.393 -2606.854)" fill="#e2c2ab"/>
          <path id="Path_50307" data-name="Path 50307" d="M-1703.449,2658.621v3.511h-4.264v-3.511Z" transform="translate(1736.254 -2604.209)" fill="#e2c2ab"/>
          <path id="Path_50308" data-name="Path 50308" d="M-1706.357,2541.213v3.861h-4.516v15.385h-4.952v3.76h-38.9v-3.76h-5.248v-3.922h5.248v3.922h35.381v-7.929h4.629v-11.317Z" transform="translate(1774.125 -2496.401)" fill="#e2c2ab"/>
          <path id="Path_50310" data-name="Path 50310" d="M-1739.065,2581.229v2.864h9.249v3.153h3.73v11.581h4.659v12.4h-8.39v-8.423H-1735v8.423h-25.989v-27.136h3.538v-2.864Z" transform="translate(1788.535 -2513.004)" fill="#b9dedd"/>
          <path id="Path_50309" data-name="Path 50309" d="M-1718.573,2684.744v3.928h-9.459v-3.928Z" transform="translate(1764.972 -2616.802)" fill="#e2c2ab"/>
          <path id="Path_50311" data-name="Path 50311" d="M-1718.447,2587.458v3.925h-4.485v14.811h-5.1v-18.736Z" transform="translate(1764.846 -2515.588)" fill="#00bcd1"/>
          <path id="Path_50314" data-name="Path 50314" d="M0,0V3.891H3V8.074H6.72V0Z" transform="translate(8.074 77.421) rotate(90)" fill="#edd5c2"/>
          <g id="Group_38419" data-name="Group 38419" transform="translate(13.482)">
            <rect id="Rectangle_20960" data-name="Rectangle 20960" width="22.583" height="2.469" transform="translate(28.229 19.751)" fill="#d99a36"/>
            <rect id="Rectangle_20961" data-name="Rectangle 20961" width="22.583" height="2.469" transform="translate(28.229 14.813)" fill="#d99a36"/>
            <rect id="Rectangle_20962" data-name="Rectangle 20962" width="2.823" height="4.938" transform="translate(50.812 22.22)" fill="#e8bc48"/>
            <rect id="Rectangle_20963" data-name="Rectangle 20963" width="16.937" height="4.938" transform="translate(28.229 22.22)" fill="#e8bc48"/>
            <rect id="Rectangle_20964" data-name="Rectangle 20964" width="25.406" height="2.469" transform="translate(2.823 19.751)" fill="#e8bc48"/>
            <rect id="Rectangle_20965" data-name="Rectangle 20965" width="16.937" height="2.469" transform="translate(28.229 17.282)" fill="#e8bc48"/>
            <rect id="Rectangle_20966" data-name="Rectangle 20966" width="2.823" height="2.469" transform="translate(50.812 17.282)" fill="#e8bc48"/>
            <rect id="Rectangle_20967" data-name="Rectangle 20967" width="25.406" height="2.469" transform="translate(2.823 14.813)" fill="#e8bc48"/>
            <rect id="Rectangle_20968" data-name="Rectangle 20968" width="2.823" height="14.813" transform="translate(50.812 0)" fill="#e8bc48"/>
            <path id="Path_50173" data-name="Path 50173" d="M337.577,206.859H340.4v2.469h2.823V211.8h2.823v4.938h5.646V211.8h2.823V219.2H337.577Z" transform="translate(-309.348 -204.39)" fill="#e8bc48"/>
            <rect id="Rectangle_20969" data-name="Rectangle 20969" width="11.292" height="4.938" transform="translate(0 22.22)" fill="#fff268"/>
            <rect id="Rectangle_20970" data-name="Rectangle 20970" width="14.114" height="4.938" transform="translate(14.114 22.22)" fill="#fff268"/>
            <rect id="Rectangle_20971" data-name="Rectangle 20971" width="5.646" height="4.938" transform="translate(45.166 22.22)" fill="#fff268"/>
            <rect id="Rectangle_20972" data-name="Rectangle 20972" width="11.292" height="2.469" transform="translate(0 17.282)" fill="#fff268"/>
            <rect id="Rectangle_20973" data-name="Rectangle 20973" width="14.114" height="2.469" transform="translate(14.114 17.282)" fill="#fff268"/>
            <rect id="Rectangle_20974" data-name="Rectangle 20974" width="5.646" height="2.469" transform="translate(45.166 17.282)" fill="#fff268"/>
            <path id="Path_50174" data-name="Path 50174" d="M407.885,215.813V201h2.823v2.469h2.823v2.469h2.823v2.469h2.823v7.407Z" transform="translate(-407.885 -201)" fill="#fff268"/>
            <path id="Path_50175" data-name="Path 50175" d="M372.731,215.813v-2.469h2.823v-4.938h2.823v-2.469H381.2v-2.469h2.823V201h2.823v14.813Z" transform="translate(-358.616 -201)" fill="#fff268"/>
            <path id="Path_50176" data-name="Path 50176" d="M325.859,219.2v-9.875h2.823v-2.469H331.5V219.2Z" transform="translate(-280.693 -204.39)" fill="#fff268"/>
            <rect id="Rectangle_20975" data-name="Rectangle 20975" width="2.823" height="4.938" transform="translate(11.292 22.22)" fill="#caff94"/>
            <rect id="Rectangle_20976" data-name="Rectangle 20976" width="2.823" height="2.469" transform="translate(11.292 17.282)" fill="#caff94"/>
            <rect id="Rectangle_20977" data-name="Rectangle 20977" width="2.823" height="2.469" transform="translate(11.292 12.344)" fill="#caff94"/>
          </g>
          <path id="Path_50316" data-name="Path 50316" d="M0,0H6.133V6.985h5.655v21.33H6.133V18.031H2.06V9.549H0Z" transform="translate(35.613 71.875) rotate(90)" fill="#b9dedd"/>
        </g>
      </g>
      <g id="Group_38422" data-name="Group 38422" transform="translate(-2277.973 -1099.953)">
        <rect id="Rectangle_11848" data-name="Rectangle 11848" width="6.638" height="2.213" transform="translate(15.49 6.639)" fill="#f6757a"/>
        <rect id="Rectangle_11849" data-name="Rectangle 11849" width="13.277" height="13.278" transform="translate(2.213 17.704)" fill="#ecf0f1"/>
        <rect id="Rectangle_11850" data-name="Rectangle 11850" width="6.638" height="13.278" transform="translate(22.128 17.704)" fill="#ecf0f1"/>
        <rect id="Rectangle_11851" data-name="Rectangle 11851" width="15.49" height="8.852" transform="translate(0 6.639)" fill="#ecf0f1"/>
        <rect id="Rectangle_11852" data-name="Rectangle 11852" width="8.851" height="8.852" transform="translate(22.128 6.639)" fill="#ecf0f1"/>
        <rect id="Rectangle_11853" data-name="Rectangle 11853" width="13.277" height="2.213" transform="translate(2.213 15.491)" fill="#c0cbdc"/>
        <path id="Path_49641" data-name="Path 49641" d="M178.851,567.852V559h11.064v8.852H187.7v15.491H176.638V570.065H170v-2.213Z" transform="translate(-147.872 -552.361)" fill="#c0cbdc"/>
        <rect id="Rectangle_11854" data-name="Rectangle 11854" width="6.638" height="22.13" transform="translate(15.49 8.852)" fill="#e43b44"/>
        <path id="Path_49642" data-name="Path 49642" d="M175,560.426h2.213v-2.213h2.213V556h4.426v6.639H175Z" transform="translate(-152.872 -556)" fill="#e43b44"/>
        <path id="Path_49643" data-name="Path 49643" d="M184.425,556v2.213h2.213v2.213h2.213v2.213H180V556Z" transform="translate(-168.936 -556)" fill="#e43b44"/>
      </g>
    </g>
  </g>
</svg>
