<svg xmlns="http://www.w3.org/2000/svg" width="152.478" height="118.218" viewBox="0 0 152.478 118.218">
  <g id="game-1" transform="translate(1066.035 -2096.503)">
    <path id="Path_50320" data-name="Path 50320" d="M-1089.24,2168.949v16.9h-5.824v6.247h-7.457v5.188h-38.441V2192.1h-6.212v-6.247h-5.181V2162.2h-5.725V2146h68.016Z" transform="translate(122.19 -8.739)" fill="#edd5c2"/>
    <path id="Path_50318" data-name="Path 50318" d="M-1104.018,2131.05h-5.122v5.775h-53.35v6.065h-10.483v8.722h10.483v-2.589h6.52v-5.309h29.141v5.309h17.69v17.25h5.122v5.986h5.967v-5.986h6.592v-17.25h-6.592v5.13h-5.967v-23.1Z" transform="translate(136.673 -6.099)" fill="#53140d"/>
    <rect id="Rectangle_25451" data-name="Rectangle 25451" width="5.765" height="11.528" transform="translate(-984.411 2143.026)" fill="#0b122f"/>
    <rect id="Rectangle_25452" data-name="Rectangle 25452" width="5.765" height="11.528" transform="translate(-1019 2143.026)" fill="#0b122f"/>
    <path id="Path_50319" data-name="Path 50319" d="M-1108.813,2167v12.207h-6v4.175h-15.112v-4.175H-1137V2167Z" transform="translate(124.402 -7.364)" fill="#fff"/>
    <path id="Path_50321" data-name="Path 50321" d="M-1066.57,2167v6.3h-14.409v6.375h6.944v7.767h13.612V2167Z" transform="translate(30.699 -14.093)" fill="#53140d"/>
    <path id="Path_50322" data-name="Path 50322" d="M-1172.122,2186.893v6.649h13.037v6.5h-7.219v6.112h-9.593v4.918h-12.955v5.469h-5.7v-10.387h5.7v-6.112h12.955v-13.146Z" transform="translate(222.07 -15.958)" fill="#edd5c2"/>
    <path id="Path_50323" data-name="Path 50323" d="M-1045.491,2210.566h-16.928v-5.738h-10.574v-5.742h-7.986v-6.106h12.612v-5.253h5.948v11.359h16.928Z" transform="translate(14.943 -10.341)" fill="#edd5c2"/>
    <path id="Path_50324" data-name="Path 50324" d="M-1092.007,2208.281v11.95h-11.377v14.223h-35.371v-14.223h-12.461v-11.95Z" transform="translate(119.302 -19.734)" fill="#2e7e9c"/>
    <path id="Path_50325" data-name="Path 50325" d="M-1117.353,2215.463v6.8h5.4v10.4h-5.4v-5.378h-5.21v-11.828Z" transform="translate(115.647 -21.002)" fill="#fefefe"/>
    <rect id="Rectangle_20960" data-name="Rectangle 20960" width="24.878" height="3.109" transform="translate(-995.038 2121.379)" fill="#d99a36"/>
    <rect id="Rectangle_20961" data-name="Rectangle 20961" width="24.878" height="3.109" transform="translate(-995.038 2115.159)" fill="#d99a36"/>
    <rect id="Rectangle_20962" data-name="Rectangle 20962" width="3.11" height="6.219" transform="translate(-970.16 2124.488)" fill="#e8bc48"/>
    <rect id="Rectangle_20963" data-name="Rectangle 20963" width="18.658" height="6.219" transform="translate(-995.038 2124.488)" fill="#e8bc48"/>
    <rect id="Rectangle_20964" data-name="Rectangle 20964" width="27.987" height="3.109" transform="translate(-1023.026 2121.379)" fill="#e8bc48"/>
    <rect id="Rectangle_20965" data-name="Rectangle 20965" width="18.658" height="3.109" transform="translate(-995.038 2118.269)" fill="#e8bc48"/>
    <rect id="Rectangle_20966" data-name="Rectangle 20966" width="3.11" height="3.109" transform="translate(-970.16 2118.269)" fill="#e8bc48"/>
    <rect id="Rectangle_20967" data-name="Rectangle 20967" width="27.987" height="3.109" transform="translate(-1023.026 2115.159)" fill="#e8bc48"/>
    <rect id="Rectangle_20968" data-name="Rectangle 20968" width="3.11" height="18.656" transform="translate(-970.16 2096.503)" fill="#e8bc48"/>
    <path id="Path_50173" data-name="Path 50173" d="M337.577,206.859h3.11v3.109h3.11v3.109h3.11V219.3h6.219v-6.219h3.11v9.328H337.577Z" transform="translate(-1332.615 1892.753)" fill="#e8bc48"/>
    <rect id="Rectangle_20969" data-name="Rectangle 20969" width="12.439" height="6.219" transform="translate(-1026.135 2124.488)" fill="#fff268"/>
    <rect id="Rectangle_20970" data-name="Rectangle 20970" width="15.549" height="6.219" transform="translate(-1010.587 2124.488)" fill="#fff268"/>
    <rect id="Rectangle_20971" data-name="Rectangle 20971" width="6.219" height="6.219" transform="translate(-976.38 2124.488)" fill="#fff268"/>
    <rect id="Rectangle_20972" data-name="Rectangle 20972" width="12.439" height="3.109" transform="translate(-1026.135 2118.269)" fill="#fff268"/>
    <rect id="Rectangle_20973" data-name="Rectangle 20973" width="15.549" height="3.109" transform="translate(-1010.587 2118.269)" fill="#fff268"/>
    <rect id="Rectangle_20974" data-name="Rectangle 20974" width="6.219" height="3.109" transform="translate(-976.38 2118.269)" fill="#fff268"/>
    <path id="Path_50174" data-name="Path 50174" d="M407.885,219.656V201h3.11v3.109h3.11v3.109h3.11v3.109h3.11v9.328Z" transform="translate(-1434.02 1895.503)" fill="#fff268"/>
    <path id="Path_50175" data-name="Path 50175" d="M372.731,219.656v-3.109h3.109v-6.219h3.11v-3.109h3.11v-3.109h3.11V201h3.11v18.656Z" transform="translate(-1383.318 1895.503)" fill="#fff268"/>
    <path id="Path_50176" data-name="Path 50176" d="M325.859,222.406V209.968h3.11v-3.109h3.11v15.547Z" transform="translate(-1302.239 1892.753)" fill="#fff268"/>
    <rect id="Rectangle_20975" data-name="Rectangle 20975" width="3.11" height="6.219" transform="translate(-1013.696 2124.488)" fill="#caff94"/>
    <rect id="Rectangle_20976" data-name="Rectangle 20976" width="3.11" height="3.109" transform="translate(-1013.696 2118.269)" fill="#caff94"/>
    <rect id="Rectangle_20977" data-name="Rectangle 20977" width="3.11" height="3.109" transform="translate(-1013.696 2112.051)" fill="#caff94"/>
    <rect id="Rectangle_11848" data-name="Rectangle 11848" width="6.108" height="2.036" transform="translate(-937.988 2155.753)" fill="#f6757a"/>
    <rect id="Rectangle_11849" data-name="Rectangle 11849" width="12.215" height="12.215" transform="translate(-950.204 2165.932)" fill="#ecf0f1"/>
    <rect id="Rectangle_11850" data-name="Rectangle 11850" width="6.108" height="12.215" transform="translate(-931.881 2165.932)" fill="#ecf0f1"/>
    <rect id="Rectangle_11851" data-name="Rectangle 11851" width="14.251" height="8.143" transform="translate(-952.24 2155.753)" fill="#ecf0f1"/>
    <rect id="Rectangle_11852" data-name="Rectangle 11852" width="8.144" height="8.143" transform="translate(-931.88 2155.753)" fill="#ecf0f1"/>
    <rect id="Rectangle_11853" data-name="Rectangle 11853" width="12.215" height="2.036" transform="translate(-950.204 2163.897)" fill="#c0cbdc"/>
    <path id="Path_49641" data-name="Path 49641" d="M178.144,567.143V559h10.18v8.143h-2.036v14.251h-10.18V569.179H170v-2.036Z" transform="translate(-1101.88 1596.753)" fill="#c0cbdc"/>
    <rect id="Rectangle_11854" data-name="Rectangle 11854" width="6.108" height="20.358" transform="translate(-937.988 2157.789)" fill="#e43b44"/>
    <path id="Path_49642" data-name="Path 49642" d="M175,560.072h2.036v-2.036h2.036V556h4.072v6.107H175Z" transform="translate(-1106.88 1593.646)" fill="#e43b44"/>
    <path id="Path_49643" data-name="Path 49643" d="M184.072,556v2.036h2.036v2.036h2.036v2.036H180V556Z" transform="translate(-1122.059 1593.646)" fill="#e43b44"/>
  </g>
</svg>
