<svg xmlns="http://www.w3.org/2000/svg" width="608" height="90" viewBox="0 0 608 90">
  <g id="game-2-2" transform="translate(-547 -248.999)">
    <g id="Exclusion_9" data-name="Exclusion 9" transform="translate(547 248.999)" fill="#5a5d79">
      <path d="M 601.42822265625 87.99978637695312 L 6.571846008300781 87.99978637695312 L 6.571846008300781 87.79148101806641 L 6.571846008300781 85.79148101806641 L 4.571846008300781 85.79148101806641 L 2 85.79148101806641 L 2 4.20801830291748 L 4.571846008300781 4.20801830291748 L 6.571846008300781 4.20801830291748 L 6.571846008300781 2.20801830291748 L 6.571846008300781 1.99947988986969 L 601.42822265625 1.99947988986969 L 601.42822265625 2.20801830291748 L 601.42822265625 4.20801830291748 L 603.42822265625 4.20801830291748 L 606 4.20801830291748 L 605.9999389648438 85.79148101806641 L 603.42822265625 85.79148101806641 L 601.42822265625 85.79148101806641 L 601.42822265625 87.79148101806641 L 601.42822265625 87.99978637695312 Z" stroke="none"/>
      <path d="M 599.42822265625 85.99971771240234 L 599.42822265625 83.79146575927734 L 603.42822265625 83.79146575927734 L 603.9999389648438 83.79146575927734 L 604 6.20805025100708 L 603.42822265625 6.20805025100708 L 599.42822265625 6.20805025100708 L 599.42822265625 3.999550342559814 L 8.571916580200195 3.999550342559814 L 8.571916580200195 6.20805025100708 L 4.571916580200195 6.20805025100708 L 4 6.20805025100708 L 4 83.79146575927734 L 4.571916580200195 83.79146575927734 L 8.571916580200195 83.79146575927734 L 8.571916580200195 85.99971771240234 L 599.42822265625 85.99971771240234 M 603.42822265625 89.99971771240234 L 4.571916580200195 89.99971771240234 L 4.571916580200195 87.79146575927734 L 5.684341886080801e-14 87.79146575927734 L 5.684341886080801e-14 2.208050489425659 L 4.571916580200195 2.208050489425659 L 4.571916580200195 -0.0004495442844927311 L 603.42822265625 -0.0004495442844927311 L 603.42822265625 2.208050489425659 L 608 2.208050489425659 L 607.9999389648438 87.79146575927734 L 603.42822265625 87.79146575927734 L 603.42822265625 89.99905395507812 L 603.42822265625 89.99971771240234 Z" stroke="none" fill="#fff"/>
    </g>
    <path id="Path_54227" data-name="Path 54227" d="M0-18Zm7.875,0H9v1.125h7.875v2.25H15.75V-13.5H14.625v-1.125H15.75V-15.75H2.25v1.125H1.125V-13.5H0v-1.125H1.125v-2.25h6.75Zm-4.5,3.375H13.5v2.25h3.375v1.125H13.5v9H12.375v1.125H11.25V-2.25H5.625v1.125H4.5V0H3.375V-1.125H4.5V-2.25H3.375V-9H2.25v-2.25H0v-1.125H3.375ZM4.5-13.5v1.125H7.875V-13.5Zm4.5,0v1.125h3.375V-13.5ZM3.375-11.25v1.125H6.75V-11.25Zm4.5,0v1.125h4.5V-11.25ZM4.5-9v1.125h7.875V-9Zm0,2.25v1.125h7.875V-6.75Zm0,2.25v1.125h7.875V-4.5Zm7.875,3.375H13.5V0H12.375ZM19.8-18Zm10.125,0H31.05v2.25H33.3v-1.125h1.125v1.125H35.55v1.125h-4.5v2.25H29.925v-2.25h-2.25V-15.75h2.25Zm2.25,0H33.3v1.125H32.175Zm-11.25,1.125H26.55v5.625H24.3v3.375h2.25V-6.75H24.3V-4.5h2.25v1.125H24.3V-2.25H22.05v1.125H20.925V-2.25H19.8V-3.375h1.125V-9H22.05v5.625h1.125V-11.25h-2.25ZM22.05-15.75v3.375h3.375V-15.75ZM33.3-13.5h1.125v1.125H33.3v2.25H32.175V-11.25H31.05v1.125H28.8V-9H26.55v-1.125H28.8V-11.25h2.25v-1.125H33.3Zm2.25,2.25h1.125v3.375h-2.25V-6.75H35.55v1.125H34.425V-4.5H33.3v2.25H31.05v1.125H28.8V0H26.55V-1.125H28.8V-2.25h2.25V-4.5H33.3V-5.625H31.05V-4.5H29.925V-5.625H26.55V-6.75h3.375V-9H31.05v2.25H33.3V-7.875h1.125V-9H35.55ZM33.3-10.125h1.125V-9H33.3v1.125H32.175V-9H33.3Zm2.25,6.75h1.125V0h-2.25V-1.125H35.55ZM33.3-2.25h1.125v1.125H33.3ZM39.6-18Zm4.5,0h1.125v2.25H50.85V-18h1.125v2.25h4.5v1.125h-4.5V-13.5h2.25v3.375H41.85V-13.5H44.1v-1.125H39.6V-15.75h4.5Zm1.125,3.375V-13.5H50.85v-1.125Zm-2.25,2.25v1.125h2.25v-1.125Zm3.375,0v1.125h3.375v-1.125Zm4.5,0v1.125H53.1v-1.125ZM40.725-9h15.75v2.25H55.35v1.125H54.225V-6.75H55.35V-7.875H47.475V-6.75H53.1V-4.5H51.975v1.125h-2.25V-2.25h-2.25v1.125h-2.25V0h-4.5V-1.125h4.5V-2.25h2.25V-3.375h2.25V-4.5h2.25V-5.625H46.35V-4.5H44.1v1.125H41.85V-4.5H44.1V-5.625h1.125V-6.75H46.35V-7.875h-4.5V-6.75H40.725v1.125H39.6V-6.75h1.125ZM46.35-4.5h1.125v1.125H46.35ZM59.4-18Zm4.5,0h1.125v3.375h2.25V-13.5h-2.25v1.125H66.15v1.125H65.025v5.625H63.9V-11.25H62.775v1.125H61.65V-9H60.525v-1.125H61.65V-11.25h1.125v-1.125H63.9V-13.5H60.525v-1.125H63.9Zm4.5,1.125h5.625V-6.75H68.4Zm1.125,1.125v2.25H72.9v-2.25Zm0,3.375v1.125H72.9v-1.125ZM66.15-11.25h1.125v1.125H66.15Zm3.375,1.125v2.25H72.9v-2.25ZM66.15-6.75h1.125v1.125H66.15Zm1.125,1.125H68.4v2.25H67.275ZM61.65-4.5h1.125v2.25H61.65v1.125H60.525V-2.25H61.65Zm2.25,0h1.125v3.375H63.9Zm9,0h1.125v1.125H72.9ZM70.65-3.375h1.125V0h-6.75V-1.125H70.65Zm3.375,0H75.15v2.25H74.025ZM79.2-18Zm3.375,0H83.7v2.25H82.575v1.125h4.5v3.375H88.2V-13.5h1.125V-18H90.45v3.375h4.5V-2.25H93.825v1.125H92.7V0H91.575V-1.125H92.7V-2.25h1.125V-13.5h-4.5v2.25H88.2v1.125H87.075v9H85.95V-2.25h-4.5v1.125H80.325v-13.5H81.45V-15.75h1.125ZM81.45-13.5V-9h4.5v-4.5Zm7.875,3.375H90.45V-9H89.325ZM90.45-9h1.125v2.25H90.45Zm-9,1.125v4.5h4.5v-4.5Zm9,5.625h1.125v1.125H90.45ZM99-18Zm10.125,0h1.125v2.25h4.5v1.125h-1.125V-13.5H112.5v1.125h-1.125v1.125H110.25v1.125h-1.125V-9H108v1.125h-2.25V-6.75H103.5v3.375h2.25V-2.25h-3.375v1.125H99V-2.25h1.125V-7.875h1.125V-2.25h1.125v-9H101.25v1.125h-1.125v-6.75h5.625V-13.5h1.125v-1.125H108V-15.75h1.125Zm-7.875,2.25v3.375h3.375V-15.75Zm7.875,1.125V-13.5h-2.25v1.125H105.75v1.125H103.5v3.375h2.25V-9H108v-1.125h1.125V-11.25h1.125v-1.125h1.125V-13.5H112.5v-1.125Zm0,1.125h1.125v1.125h-1.125Zm2.25,2.25H112.5v1.125h-1.125Zm1.125,1.125h1.125V-9H112.5ZM113.625-9h2.25v1.125h-2.25V0H112.5V-1.125h-3.375V0H108V-7.875h5.625Zm-4.5,2.25v4.5H112.5v-4.5ZM118.8-18Zm7.875,0H127.8v5.625h6.75v1.125H127.8v7.875h7.875V-2.25h-15.75V-3.375h6.75ZM147.582-7.722a1.089,1.089,0,0,0-.846.306,1.044,1.044,0,0,0-.324.81,1.071,1.071,0,0,0,.306.792,1.047,1.047,0,0,0,.774.324.963.963,0,0,0,.4-.072,2.123,2.123,0,0,1-.378,1.206,2.6,2.6,0,0,1-1.152.792v.882a3.472,3.472,0,0,0,1.854-1.17,3.373,3.373,0,0,0,.7-2.106,2.091,2.091,0,0,0-.36-1.26A1.149,1.149,0,0,0,147.582-7.722ZM158.4-18Zm7.875,0H167.4v1.125h-1.125v1.125H165.15v1.125h3.375V-15.75h2.25v1.125H169.65V-13.5h-5.625v-1.125H162.9V-13.5h-2.25v1.125H158.4V-13.5h2.25v-1.125h2.25V-15.75h2.25v-1.125h1.125Zm1.125,1.125h1.125v1.125H167.4Zm3.375,2.25h2.25V-13.5h-2.25Zm2.25,1.125h2.25v1.125h-2.25v4.5H160.65v-4.5h12.375Zm-11.25,2.25V-9h2.25v-1.125h1.125V-9h1.125v-2.25h-2.25v1.125H162.9V-11.25Zm5.625,0V-9h1.125v-1.125h1.125V-11.25Zm3.375,0v1.125H169.65V-9h2.25v-2.25Zm-9,4.5H171.9V0h-1.125V-1.125H162.9V0h-1.125ZM162.9-5.625V-4.5h7.875V-5.625Zm0,2.25V-2.25h7.875V-3.375ZM178.2-18Zm2.25,1.125h1.125v1.125H180.45Zm4.5,0h7.875v5.625H189.45v1.125h4.5v6.75H191.7V-4.5h1.125V-9H189.45v2.25h1.125V-7.875H191.7V-4.5h-1.125V-5.625h-4.5V-6.75h2.25V-9H184.95v5.625h-1.125V-2.25H182.7V-3.375h1.125v-6.75h4.5V-11.25H184.95Zm-3.375,1.125H182.7v2.25h-1.125Zm4.5,0v1.125h2.25V-15.75Zm3.375,0v1.125h2.25V-15.75Zm-3.375,2.25v1.125h2.25V-13.5Zm3.375,0v1.125h2.25V-13.5ZM178.2-11.25h4.5v7.875h-1.125V-2.25H180.45v1.125h-1.125V-2.25h1.125V-3.375h1.125v-6.75H178.2Zm5.625,9h11.25v1.125h-11.25ZM198-18Zm14.625,0h1.125V-1.125h-1.125V0H211.5V-1.125h1.125Zm-13.5,1.125h9v1.125h-4.5v1.125H202.5V-13.5h-1.125v1.125H200.25v1.125h5.625v-1.125H207v1.125h1.125V-9H207v-1.125h-3.375V-6.75H207v1.125h-3.375v2.25h4.5V-2.25h-4.5v1.125H200.25V0h-1.125V-1.125H198V-2.25h4.5V-5.625h-3.375V-6.75H202.5v-3.375h-2.25V-9h-1.125v-1.125H198V-11.25h1.125v-1.125h1.125V-13.5h1.125v-1.125H202.5V-15.75h-3.375Zm10.125,2.25h1.125V-4.5H209.25Zm-4.5,1.125h1.125v1.125H204.75Zm5.625,11.25H211.5v1.125h-1.125ZM217.8-18Zm4.5,0h1.125v2.25H222.3v2.25h-1.125v1.125H220.05v1.125h-1.125v1.125H217.8V-11.25h1.125v-1.125h1.125V-13.5h1.125v-2.25H222.3Zm2.25,1.125h7.875V-9h-4.5v2.25H226.8V-9h-1.125v6.75H226.8V-3.375h1.125V-2.25H226.8v1.125h-1.125V0H224.55Zm1.125,1.125v2.25H231.3v-2.25ZM222.3-12.375h1.125v2.25H222.3V0h-1.125V-7.875H220.05V-6.75h-1.125v1.125H217.8V-6.75h1.125V-7.875h1.125V-9h1.125v-1.125H222.3Zm3.375,0v2.25H231.3v-2.25Zm6.75,4.5h1.125V-6.75h-1.125v1.125H231.3V-4.5h-1.125v1.125H229.05V-4.5h1.125V-5.625H231.3V-6.75h1.125Zm-4.5,1.125h1.125V-4.5h-1.125Zm2.25,3.375h2.25V-2.25h-2.25Zm2.25,1.125h2.25v1.125h-2.25ZM237.6-18Zm6.75,0h1.125v2.25H251.1v1.125h-1.125V-13.5H248.85v1.125h-1.125v1.125h-2.25v1.125H244.35V-9H242.1v1.125h-3.375V-9H242.1v-1.125h2.25V-11.25h1.125v-1.125h2.25V-13.5h1.125v-1.125h-5.625v2.25h-2.25v1.125H239.85v-1.125h1.125V-13.5H242.1v-1.125h1.125V-15.75h1.125Zm-1.125,5.625h1.125v1.125h-1.125Zm4.5,1.125h1.125v1.125h-1.125V-9h5.625v1.125h-1.125V-6.75H251.1v1.125h-1.125V-4.5H248.85v1.125h-1.125V-2.25h-2.25v1.125H242.1V0h-3.375V-1.125H242.1V-2.25h3.375V-4.5H246.6v1.125h1.125V-4.5h1.125V-5.625h1.125V-6.75H251.1V-7.875h-5.625V-6.75H244.35v1.125H242.1V-4.5h-2.25V-5.625h2.25V-6.75h2.25V-7.875h1.125V-9H246.6v-1.125h1.125ZM244.35-5.625h1.125V-4.5H244.35ZM257.4-18Zm1.125,1.125H273.15V0h-1.125V-1.125H259.65V0h-1.125Zm1.125,1.125v13.5h5.625V-9H264.15v2.25h-1.125v1.125H261.9V-4.5h-1.125V-5.625H261.9V-6.75h1.125V-9h1.125v-1.125h1.125V-11.25h-4.5v-1.125h4.5V-15.75Zm6.75,0v3.375h4.5v1.125h-4.5v1.125h1.125V-9H266.4v6.75h5.625v-13.5ZM267.525-9h1.125v1.125h-1.125Zm1.125,1.125h1.125V-6.75H268.65Zm1.125,1.125H270.9V-4.5h-1.125ZM277.2-18Zm2.25,0h1.125v2.25h2.25V-18h1.125v2.25h1.125v1.125H283.95v2.25h-1.125v1.125h1.125v-1.125h1.125V-13.5H286.2v-2.25h1.125V-18h1.125v2.25h-1.125v1.125h6.75V-13.5H290.7v2.25h2.25v1.125H290.7v2.25h2.25V-6.75H290.7v3.375h3.375V-2.25h-6.75V0H286.2V-3.375h-2.25V-2.25h-1.125V-3.375H281.7V-2.25h-1.125v1.125H279.45V0h-1.125V-1.125h1.125V-2.25h1.125V-3.375H277.2V-4.5h4.5V-5.625h-3.375V-6.75H281.7V-7.875h-3.375V-11.25H281.7v-1.125h-2.25v-2.25H277.2V-15.75h2.25Zm10.125,0H290.7v1.125h-1.125Zm1.125,1.125h1.125v1.125H290.7Zm-10.125,2.25V-13.5h2.25v-1.125Zm6.75,1.125v2.25h2.25V-13.5Zm-2.25,1.125v4.5h-2.25V-6.75h2.25v1.125h-2.25V-4.5H286.2v-7.875Zm-5.625,2.25V-9h2.25v-1.125Zm3.375,0V-9h1.125v-1.125Zm4.5,0v2.25h2.25v-2.25Zm0,3.375v3.375h2.25V-6.75Zm-3.375,4.5h1.125v1.125H283.95Zm22.032-5.472a1.089,1.089,0,0,0-.846.306,1.044,1.044,0,0,0-.324.81,1.071,1.071,0,0,0,.306.792,1.047,1.047,0,0,0,.774.324.963.963,0,0,0,.4-.072,2.123,2.123,0,0,1-.378,1.206,2.6,2.6,0,0,1-1.152.792v.882a3.472,3.472,0,0,0,1.854-1.17,3.373,3.373,0,0,0,.7-2.106,2.091,2.091,0,0,0-.36-1.26A1.149,1.149,0,0,0,305.982-7.722ZM316.8-18Zm3.375,0H321.3v3.375h-1.125V0H319.05V-11.25h-1.125v1.125H316.8V-11.25h1.125v-1.125h1.125v-2.25h1.125Zm2.25,2.25h9V-5.625h-9Zm1.125,1.125v3.375h6.75v-3.375Zm0,4.5V-6.75h6.75v-3.375Zm-2.25,6.75h11.25V-2.25H321.3ZM336.6-18Zm3.375,0H350.1v5.625H339.975Zm1.125,1.125v1.125h7.875v-1.125Zm0,2.25V-13.5h7.875v-1.125Zm-4.5,3.375h16.875v1.125h-9V-9h6.75v2.25H350.1V-4.5h-1.125v1.125H347.85V-2.25h-1.125v1.125H345.6V0h-2.25V-3.375h-3.375V-2.25H336.6V-3.375h2.25v-6.75H336.6Zm3.375,1.125V-9h3.375v-1.125Zm0,2.25V-6.75h3.375V-7.875Zm4.5,0v6.75H345.6V-2.25h1.125V-3.375h1.125V-4.5h1.125V-6.75H350.1V-7.875h-3.375v2.25H345.6v-2.25Zm-4.5,2.25V-4.5h3.375V-5.625Zm6.75,0h1.125V-4.5h-1.125Zm2.25,2.25H350.1V-2.25h-1.125ZM350.1-2.25h3.375v1.125H352.35V0h-1.125V-1.125H350.1ZM356.4-18Zm11.25,0h3.375v1.125H367.65v1.125H365.4v1.125h7.875V-13.5H365.4v1.125h4.5V-6.75h-4.5v1.125h5.625V-4.5H365.4v2.25h7.875v1.125H356.4V-2.25h7.875V-4.5H358.65V-5.625h5.625V-6.75h-4.5v-5.625h4.5V-13.5H356.4v-1.125h7.875V-15.75H358.65v-1.125h9Zm-6.75,6.75v1.125h3.375V-11.25Zm4.5,0v1.125h3.375V-11.25ZM360.9-9v1.125h3.375V-9Zm4.5,0v1.125h3.375V-9Zm10.8-9Zm1.125,1.125H391.95v1.125h-4.5v2.25h3.375V-9h-6.75v1.125h9V-6.75h-4.5V-4.5H387.45v1.125h-1.125V-2.25h-2.25v1.125h-2.25V0H378.45V-1.125h3.375V-2.25h2.25V-3.375h2.25V-4.5h1.125V-6.75h-4.5v1.125h-1.125V-4.5H380.7V-5.625h1.125V-6.75H376.2V-7.875h6.75V-9h-4.5v-4.5h3.375v-2.25h-4.5Zm5.625,1.125v2.25h3.375v-2.25Zm-3.375,3.375v2.25h2.25v-2.25Zm3.375,0v2.25h3.375v-2.25Zm4.5,0v2.25h2.25v-2.25ZM381.825-4.5h2.25v1.125h-2.25Zm4.5,2.25h2.25v1.125h-2.25Zm2.25,1.125H389.7V0h-1.125ZM396-18Zm3.375,0H400.5v2.25h-1.125v1.125h4.5v3.375H405V-13.5h1.125V-18h1.125v3.375h4.5V-2.25h-1.125v1.125H409.5V0h-1.125V-1.125H409.5V-2.25h1.125V-13.5h-4.5v2.25H405v1.125h-1.125v9H402.75V-2.25h-4.5v1.125h-1.125v-13.5h1.125V-15.75h1.125Zm-1.125,4.5V-9h4.5v-4.5Zm7.875,3.375h1.125V-9h-1.125ZM407.25-9h1.125v2.25H407.25Zm-9,1.125v4.5h4.5v-4.5Zm9,5.625h1.125v1.125H407.25ZM415.8-18Zm4.5,0h7.875v7.875H420.3Zm1.125,1.125v2.25h5.625v-2.25Zm0,3.375v2.25h5.625V-13.5Zm-4.5,4.5H431.55v1.125H424.8v2.25h5.625V-4.5H424.8v3.375h-2.25V-2.25h1.125V-7.875h-6.75ZM420.3-6.75h1.125v3.375H420.3V-2.25h-1.125v1.125H418.05V0h-1.125V-1.125h1.125V-2.25h1.125V-3.375H420.3Zm1.125,3.375h1.125V-2.25h-1.125Zm3.375,2.25h6.75V0H424.8ZM435.6-18Zm0,1.125h16.875v1.125h-6.75v2.25H444.6V0h-1.125V-10.125H442.35V-9h-1.125v1.125H440.1V-6.75h-1.125v1.125H437.85V-4.5h-1.125V-5.625h1.125V-6.75h1.125V-7.875H440.1V-9h1.125v-1.125h1.125V-11.25h1.125V-13.5H444.6v-2.25h-9Zm10.125,5.625h1.125v1.125h-1.125Zm1.125,1.125h1.125V-9H446.85ZM447.975-9h2.25v1.125h1.125v2.25h-1.125V-6.75H449.1V-7.875h-1.125Zm7.425-9Zm3.375,0H459.9v2.25h-1.125v1.125H457.65V-13.5h3.375v-2.25h1.125v2.25h1.125v2.25H462.15V-1.125h-1.125V0H459.9V-1.125h1.125V-4.5H457.65V0h-1.125V-11.25h5.625v-1.125H455.4V-13.5h1.125v-1.125h1.125V-15.75h1.125Zm5.625,0h1.125v4.5h1.125v-1.125h1.125V-15.75H468.9v-1.125h1.125v2.25h-2.25V-13.5H466.65v1.125h-1.125v2.25H464.4Zm5.625,5.625h1.125V-9h-5.625v-1.125h4.5Zm-12.375,2.25v2.25h3.375v-2.25Zm6.75,2.25h1.125V-4.5h1.125V-5.625h1.125V-6.75H468.9V-7.875h1.125v2.25h-2.25V-4.5H466.65v1.125h-1.125v2.25H464.4ZM457.65-6.75v1.125h3.375V-6.75Zm13.5,3.375h1.125V0h-6.75V-1.125h5.625ZM458.775-2.25H459.9v1.125h-1.125ZM475.2-18Zm2.25,0h1.125v1.125H477.45Zm7.875,0h1.125v3.375h-1.125V-13.5h6.75v1.125h-2.25v4.5H488.7v2.25h-1.125V-4.5H486.45v1.125h-1.125V-2.25H484.2v1.125h-1.125V0H481.95V-1.125h1.125V-2.25H484.2V-3.375h1.125V-4.5h1.125V-5.625h1.125v-2.25H488.7v-4.5h-4.5v1.125h-1.125v1.125H481.95V-2.25h-1.125v1.125H479.7V-2.25h1.125V-9h-2.25v4.5H477.45v2.25h-1.125v1.125H475.2V-2.25h1.125V-4.5h1.125v-7.875H475.2V-13.5h7.875v1.125h-4.5v2.25h3.375V-11.25h1.125v-1.125H484.2v-2.25h1.125Zm-6.75,1.125H479.7v2.25h-1.125ZM484.2-11.25h1.125v3.375H484.2Zm1.125,3.375h1.125v2.25h-1.125Zm2.25,3.375H488.7v2.25h-1.125Zm-9,1.125H479.7V-2.25h-1.125ZM488.7-2.25h3.375v1.125H490.95V0h-1.125V-1.125H488.7ZM495-18Zm6.75,0h1.125v1.125H501.75Zm1.125,1.125H504v1.125h6.75v1.125H508.5V-13.5h1.125v2.25H508.5v1.125h2.25V-9H508.5v2.25H504v1.125h6.75V-4.5h-4.5v1.125h-1.125V-4.5H504V0h-1.125V-4.5H501.75v1.125h-1.125V-2.25h-2.25v1.125H495V-2.25h3.375V-3.375h2.25V-4.5h-4.5V-5.625h6.75V-6.75h-4.5V-9h-2.25v-1.125h2.25V-11.25H499.5v1.125h3.375v-2.25h-4.5V-13.5H499.5v-1.125h-3.375V-15.75h6.75Zm-2.25,2.25V-13.5h6.75v-1.125ZM504-12.375v2.25h3.375V-11.25H508.5v-1.125ZM499.5-9v1.125h3.375V-9ZM504-9v1.125h3.375V-9Zm2.25,5.625h2.25V-2.25h-2.25ZM508.5-2.25h3.375v1.125H508.5Zm14.472-10.6.27,9.4h1.116l.288-9.4Zm.828,10.71a1.031,1.031,0,0,0-.774.306.966.966,0,0,0-.306.756,1.031,1.031,0,0,0,.306.774A1.1,1.1,0,0,0,523.8,0a1.147,1.147,0,0,0,.792-.306,1.044,1.044,0,0,0,.306-.774,1.031,1.031,0,0,0-.306-.756A1.071,1.071,0,0,0,523.8-2.142ZM0,8ZM3.375,8H4.5v4.5H5.625v1.125H4.5v4.5H9v-4.5H6.75V14.75H5.625V13.625H6.75V12.5H9V8h1.125v4.5h4.5v5.625h2.25V19.25h-6.75v1.125H9v2.25H7.875V23.75H6.75v1.125H5.625V26H3.375Zm-2.25,4.5H2.25v3.375H1.125V17H0V15.875H1.125Zm9,1.125v4.5H13.5v-4.5ZM4.5,19.25v5.625H5.625V23.75H6.75V22.625H7.875v-2.25H9V19.25Zm5.625,1.125H11.25V21.5H10.125ZM11.25,21.5h1.125v1.125H11.25Zm1.125,1.125H13.5V23.75H12.375ZM13.5,23.75h3.375v1.125H15.75V26H14.625V24.875H13.5ZM19.8,8Zm7.875,0H28.8v2.25h6.75v1.125H28.8V17h1.125V15.875H31.05V12.5h1.125v3.375H31.05V17H29.925v2.25H28.8V26H27.675V19.25H26.55v1.125H25.425V21.5H24.3v1.125H22.05V23.75H19.8V22.625h2.25V21.5H24.3V20.375h1.125V19.25H26.55V17h1.125V11.375h-6.75V10.25h6.75ZM24.3,12.5h1.125v3.375H24.3V17H23.175v1.125H22.05V17h1.125V15.875H24.3Zm1.125,3.375H26.55V17H25.425Zm6.75,0H33.3V17H32.175ZM33.3,17h1.125v1.125H33.3Zm-3.375,2.25H31.05v1.125H29.925Zm1.125,1.125H33.3V21.5H31.05ZM33.3,21.5h3.375v1.125H35.55V23.75H34.425V22.625H33.3ZM39.6,8ZM49.725,8h4.5V9.125h-4.5V10.25H48.6v1.125h4.5V12.5H47.475v1.125H55.35V14.75h-9v1.125H45.225V17H53.1v9H51.975V24.875h-6.75V26H44.1V18.125H42.975V19.25H41.85v1.125H40.725V19.25H41.85V18.125h1.125V17H44.1V15.875h1.125V14.75h-4.5V13.625H46.35V12.5H42.975V11.375h4.5V10.25H41.85V9.125h7.875Zm-4.5,10.125V19.25h6.75V18.125Zm0,2.25V21.5h6.75V20.375Zm0,2.25V23.75h6.75V22.625ZM59.4,8ZM69.525,8h4.5V9.125h-4.5V10.25H68.4v1.125h4.5V12.5H67.275v1.125H75.15V14.75h-9v1.125H65.025V17H72.9v9H71.775V24.875h-6.75V26H63.9V18.125H62.775V19.25H61.65v1.125H60.525V19.25H61.65V18.125h1.125V17H63.9V15.875h1.125V14.75h-4.5V13.625H66.15V12.5H62.775V11.375h4.5V10.25H61.65V9.125h7.875Zm-4.5,10.125V19.25h6.75V18.125Zm0,2.25V21.5h6.75V20.375Zm0,2.25V23.75h6.75V22.625ZM79.2,8Zm2.25,0h1.125v4.5h2.25v1.125h-2.25v2.25H83.7V14.75h1.125v1.125H83.7V17H82.575v7.875H81.45V26H80.325V24.875H81.45v-6.75H80.325V19.25H79.2V18.125h1.125V17H81.45V13.625H79.2V12.5h2.25Zm7.875,0H90.45V9.125H89.325ZM90.45,9.125h1.125V10.25h4.5v1.125h-2.25V12.5H92.7V11.375H91.575v2.25h2.25V12.5H94.95v1.125h1.125V14.75h-2.25V17h2.25v1.125h-2.25v2.25h2.25V21.5h-2.25v2.25h2.25v1.125H90.45V26H89.325V20.375H88.2v2.25H87.075V23.75H85.95v1.125H84.825V26H83.7V24.875h1.125V23.75H85.95V22.625h1.125V21.5H83.7V20.375h1.125V19.25H85.95V18.125h1.125V17h-2.25V15.875H85.95v-2.25h1.125v-2.25h-2.25V10.25H90.45Zm-2.25,2.25v2.25H87.075v2.25H88.2V14.75h1.125V13.625H90.45v-2.25Zm2.25,3.375V17H92.7V14.75ZM88.2,15.875v2.25H87.075V19.25H85.95v1.125H88.2V19.25h1.125V15.875Zm2.25,2.25v2.25H92.7v-2.25Zm0,3.375v2.25H92.7V21.5ZM79.2,23.75h1.125v1.125H79.2ZM99,8Zm6.75,0h1.125v2.25h9v1.125H105.75v2.25h6.75v11.25h-1.125V26H110.25V24.875h1.125V21.5h-6.75V26H103.5V17h-1.125v1.125H101.25V19.25h-1.125v1.125H99V19.25h1.125V18.125h1.125V17h1.125V15.875H103.5v-2.25h1.125v-2.25H99V10.25h6.75Zm-1.125,6.75V17h6.75V14.75Zm0,3.375v2.25h6.75v-2.25Zm4.5,5.625h1.125v1.125h-1.125ZM118.8,8Zm4.5,1.125h6.75V23.75h-1.125v1.125H127.8V23.75h1.125V18.125h-2.25v2.25H125.55v2.25h-1.125V23.75H123.3v1.125h-1.125V23.75H123.3V22.625h1.125v-2.25h1.125v-2.25H123.3V17h2.25V13.625H123.3V12.5h2.25V10.25H123.3Zm7.875,0h4.5v2.25H134.55V14.75h-1.125v1.125H132.3V21.5h1.125v1.125H132.3V26h-1.125ZM118.8,10.25h3.375V22.625H121.05V21.5h-1.125v1.125H118.8Zm7.875,0V12.5h2.25V10.25Zm5.625,0v4.5h1.125V11.375h1.125V10.25Zm-12.375,1.125v9h1.125v-9Zm6.75,2.25V17h2.25V13.625Zm6.75,2.25h1.125V17h-1.125ZM134.55,17h1.125v5.625H134.55V23.75h-1.125V22.625h1.125Zm-7.875,5.625H127.8V23.75h-1.125ZM138.6,8Zm4.5,0h1.125v3.375H143.1v11.25h5.625V21.5h1.125V19.25h1.125V17H152.1V14.75h1.125V17H152.1v2.25h-1.125V21.5H149.85v1.125h5.625V23.75H143.1V26h-1.125V14.75H140.85v1.125h-1.125V17H138.6V15.875h1.125V14.75h1.125V13.625h1.125v-2.25H143.1Zm4.5,0h1.125V9.125H147.6Zm1.125,1.125h1.125v2.25h-1.125Zm-4.5,3.375H154.35v1.125H144.225Zm1.125,2.25h1.125V17H145.35ZM146.475,17H147.6v4.5h-1.125ZM158.4,8Zm6.75,0h1.125v2.25H171.9V12.5h-1.125v1.125H169.65V14.75h-1.125v1.125H167.4V17h-1.125v1.125h6.75V26H171.9V24.875h-6.75V26h-1.125V19.25h-2.25v1.125H158.4V19.25h3.375V18.125h2.25V17h2.25V15.875H167.4V14.75h1.125V13.625h1.125V12.5h1.125V11.375H165.15v2.25H162.9V14.75h-1.125v1.125H160.65V14.75h1.125V13.625H162.9V12.5h1.125V10.25h1.125Zm0,5.625h1.125v2.25H165.15Zm0,5.625v4.5h6.75v-4.5ZM178.2,8Zm7.875,0H187.2v7.875h-1.125V19.25H184.95V21.5h-1.125v1.125H182.7V23.75h-1.125v1.125H180.45V26h-1.125V24.875h1.125V23.75h1.125V22.625H182.7V21.5h1.125V19.25h1.125V15.875h1.125Zm1.125,7.875h1.125V19.25H187.2Zm1.125,3.375h1.125V21.5h-1.125Zm1.125,2.25h1.125v1.125H189.45Zm1.125,1.125H191.7V23.75h-1.125ZM191.7,23.75h3.375v1.125H193.95V26h-1.125V24.875H191.7ZM198,8Zm3.375,0H202.5v2.25h-1.125v1.125h4.5V14.75H207V12.5h1.125V8h1.125v3.375h4.5V23.75h-1.125v1.125H211.5V26h-1.125V24.875H211.5V23.75h1.125V12.5h-4.5v2.25H207v1.125h-1.125v9H204.75V23.75h-4.5v1.125h-1.125v-13.5h1.125V10.25h1.125Zm-1.125,4.5V17h4.5V12.5Zm7.875,3.375h1.125V17h-1.125ZM209.25,17h1.125v2.25H209.25Zm-9,1.125v4.5h4.5v-4.5Zm9,5.625h1.125v1.125H209.25ZM217.8,8Zm4.5,0h1.125v2.25h5.625V8h1.125v2.25h4.5v1.125h-4.5V12.5h2.25v3.375H220.05V12.5h2.25V11.375h-4.5V10.25h4.5Zm1.125,3.375V12.5h5.625V11.375Zm-2.25,2.25V14.75h2.25V13.625Zm3.375,0V14.75h3.375V13.625Zm4.5,0V14.75h2.25V13.625ZM218.925,17h15.75v2.25H233.55v1.125h-1.125V19.25h1.125V18.125h-7.875V19.25H231.3V21.5h-1.125v1.125h-2.25V23.75h-2.25v1.125h-2.25V26h-4.5V24.875h4.5V23.75h2.25V22.625h2.25V21.5h2.25V20.375H224.55V21.5H222.3v1.125h-2.25V21.5h2.25V20.375h1.125V19.25h1.125V18.125h-4.5V19.25h-1.125v1.125H217.8V19.25h1.125Zm5.625,4.5h1.125v1.125H224.55ZM237.6,8Zm4.5,0h1.125v3.375h2.25V12.5h-2.25v1.125h1.125V14.75h-1.125v5.625H242.1V14.75h-1.125v1.125H239.85V17h-1.125V15.875h1.125V14.75h1.125V13.625H242.1V12.5h-3.375V11.375H242.1Zm4.5,1.125h5.625V19.25H246.6Zm1.125,1.125V12.5H251.1V10.25Zm0,3.375V14.75H251.1V13.625ZM244.35,14.75h1.125v1.125H244.35Zm3.375,1.125v2.25H251.1v-2.25ZM244.35,19.25h1.125v1.125H244.35Zm1.125,1.125H246.6v2.25h-1.125ZM239.85,21.5h1.125v2.25H239.85v1.125h-1.125V23.75h1.125Zm2.25,0h1.125v3.375H242.1Zm9,0h1.125v1.125H251.1Zm-2.25,1.125h1.125V26h-6.75V24.875h5.625Zm3.375,0h1.125v2.25h-1.125ZM258.762,26V12.359H262a5.722,5.722,0,0,1,3.318.778,4.657,4.657,0,0,1,1.63,2.351,11.411,11.411,0,0,1,.545,3.727,10.217,10.217,0,0,1-.576,3.582,5.279,5.279,0,0,1-1.63,2.373A5.3,5.3,0,0,1,262,26Zm1.775-1.5h1.187a4.035,4.035,0,0,0,2.571-.642,3.518,3.518,0,0,0,1.1-1.78,11.786,11.786,0,0,0,.33-3.142,9.145,9.145,0,0,0-.387-3.015,3.558,3.558,0,0,0-1.107-1.622,3.861,3.861,0,0,0-2.364-.567h-1.327ZM272.744,26h-1.635V12.359h1.6l4.825,9.079.527,1.354h.044l-.044-1.354V12.359H279.7V26h-1.635l-4.693-8.93-.659-1.433.035,1.415ZM284.6,26h-1.705l4.2-13.641h1.8L293.124,26h-1.872l-.932-3h-4.8Zm1.345-4.359h3.981l-1.644-5.177-.387-1.371-.343,1.371ZM304.475,12.9a3.879,3.879,0,0,0-3.024,1.188,4.364,4.364,0,0,0-1.08,3.024h1.44a3.255,3.255,0,0,1,.594-2.07,2.3,2.3,0,0,1,2-.882,2.356,2.356,0,0,1,1.764.63,2.272,2.272,0,0,1,.612,1.674,2.313,2.313,0,0,1-.522,1.422,12.236,12.236,0,0,1-1.17,1.134,5.6,5.6,0,0,0-1.206,1.458,3.527,3.527,0,0,0-.4,1.71V22.6h1.44v-.414a2.577,2.577,0,0,1,.342-1.332,3.4,3.4,0,0,1,.846-.972c.792-.7,1.278-1.17,1.476-1.386a3.5,3.5,0,0,0,.666-2.106,3.231,3.231,0,0,0-1.026-2.538A3.83,3.83,0,0,0,304.475,12.9Zm-.27,10.962a1.031,1.031,0,0,0-.774.306.966.966,0,0,0-.306.756,1.031,1.031,0,0,0,.306.774,1.1,1.1,0,0,0,.774.306,1.147,1.147,0,0,0,.792-.306,1.044,1.044,0,0,0,.306-.774,1.031,1.031,0,0,0-.306-.756A1.071,1.071,0,0,0,304.205,23.858Z" transform="translate(574 288)" fill="#fff"/>
  </g>
</svg>
