<svg xmlns="http://www.w3.org/2000/svg" width="56.773" height="46.128" viewBox="0 0 56.773 46.128">
  <g id="heart" transform="translate(-1396.465 1091.636)">
    <rect id="Rectangle_18507" data-name="Rectangle 18507" width="3.548" height="3.548" transform="translate(1446.142 -1084.539)" fill="#f6757a"/>
    <rect id="Rectangle_18508" data-name="Rectangle 18508" width="3.548" height="3.548" transform="translate(1417.755 -1084.539)" fill="#f6757a"/>
    <rect id="Rectangle_18509" data-name="Rectangle 18509" width="3.548" height="3.548" transform="translate(1442.593 -1088.088)" fill="#f6757a"/>
    <rect id="Rectangle_18510" data-name="Rectangle 18510" width="3.548" height="3.548" transform="translate(1414.206 -1088.088)" fill="#f6757a"/>
    <rect id="Rectangle_18511" data-name="Rectangle 18511" width="3.548" height="3.548" transform="translate(1421.303 -1049.056)" fill="#a22633"/>
    <rect id="Rectangle_18512" data-name="Rectangle 18512" width="3.548" height="3.548" transform="translate(1417.755 -1052.604)" fill="#a22633"/>
    <rect id="Rectangle_18513" data-name="Rectangle 18513" width="3.548" height="3.548" transform="translate(1400.013 -1056.153)" fill="#a22633"/>
    <rect id="Rectangle_18514" data-name="Rectangle 18514" width="3.548" height="31.935" transform="translate(1396.465 -1088.088)" fill="#a22633"/>
    <rect id="Rectangle_18515" data-name="Rectangle 18515" width="3.548" height="3.548" transform="translate(1424.851 -1088.088)" fill="#a22633"/>
    <rect id="Rectangle_18516" data-name="Rectangle 18516" width="3.548" height="3.548" transform="translate(1428.4 -1091.636)" fill="#a22633"/>
    <rect id="Rectangle_18517" data-name="Rectangle 18517" width="3.548" height="3.548" transform="translate(1400.013 -1091.636)" fill="#a22633"/>
    <path id="Path_49922" data-name="Path 49922" d="M1456.343-1052.6v-3.548h3.548v-31.936h-3.548v-3.548H1438.6v3.548h-3.548v3.548H1431.5v-3.548h-3.548v-3.548h-17.74v3.548h-3.548v31.935h3.548v3.548h17.74v3.548h3.548v3.548h3.548v-3.548h3.548v-3.548Zm-3.548-35.484v3.548h3.548v3.548h-3.548v-3.548h-3.548v-3.548Zm-28.388,0v3.548h3.548v3.548h-3.548v-3.548h-3.548v-3.548Z" transform="translate(-6.653)" fill="#e43b44"/>
  </g>
</svg>
