<svg xmlns="http://www.w3.org/2000/svg" width="29.593" height="24.044" viewBox="0 0 29.593 24.044">
  <g id="heart-sm" transform="translate(-1396.465 1091.636)">
    <rect id="Rectangle_18507" data-name="Rectangle 18507" width="1.85" height="1.85" transform="translate(1422.359 -1087.937)" fill="#f6757a"/>
    <rect id="Rectangle_18508" data-name="Rectangle 18508" width="1.85" height="1.85" transform="translate(1407.562 -1087.937)" fill="#f6757a"/>
    <rect id="Rectangle_18509" data-name="Rectangle 18509" width="1.85" height="1.85" transform="translate(1420.51 -1089.786)" fill="#f6757a"/>
    <rect id="Rectangle_18510" data-name="Rectangle 18510" width="1.85" height="1.85" transform="translate(1405.713 -1089.786)" fill="#f6757a"/>
    <rect id="Rectangle_18511" data-name="Rectangle 18511" width="1.85" height="1.85" transform="translate(1409.412 -1069.441)" fill="#a22633"/>
    <rect id="Rectangle_18512" data-name="Rectangle 18512" width="1.85" height="1.85" transform="translate(1407.562 -1071.291)" fill="#a22633"/>
    <rect id="Rectangle_18513" data-name="Rectangle 18513" width="1.85" height="1.85" transform="translate(1398.315 -1073.14)" fill="#a22633"/>
    <rect id="Rectangle_18514" data-name="Rectangle 18514" width="1.85" height="16.646" transform="translate(1396.465 -1089.786)" fill="#a22633"/>
    <rect id="Rectangle_18515" data-name="Rectangle 18515" width="1.85" height="1.85" transform="translate(1411.261 -1089.786)" fill="#a22633"/>
    <rect id="Rectangle_18516" data-name="Rectangle 18516" width="1.85" height="1.85" transform="translate(1413.111 -1091.636)" fill="#a22633"/>
    <rect id="Rectangle_18517" data-name="Rectangle 18517" width="1.85" height="1.85" transform="translate(1398.315 -1091.636)" fill="#a22633"/>
    <path id="Path_49922" data-name="Path 49922" d="M1432.56-1071.291v-1.849h1.849v-16.647h-1.849v-1.849h-9.247v1.849h-1.849v1.85h-1.851v-1.85h-1.849v-1.849h-9.247v1.849h-1.849v16.646h1.849v1.849h9.247v1.85h1.849v1.849h1.849v-1.849h1.849v-1.85Zm-1.85-18.5v1.85h1.849v1.849h-1.849v-1.849h-1.85v-1.85Zm-14.8,0v1.85h1.849v1.849h-1.849v-1.849h-1.849v-1.85Z" transform="translate(-8.351)" fill="#e43b44"/>
  </g>
</svg>
