<svg xmlns="http://www.w3.org/2000/svg" width="77.811" height="96.435" viewBox="0 0 77.811 96.435">
  <g id="load-1" transform="translate(0 0)">
    <path id="Path_50317" data-name="Path 50317" d="M-1151.215,2112.419v-10.252h3.468v-3.9h3.783v-3.122h20.25v3.122h3.46v3.9h3.282v13.224h9.959v4.185h3.51v3.676h-13.469v-3.676h-3.282v-4.185h-30.961Z" transform="translate(1171.02 -2095.145)" fill="#ff7e76"/>
    <path id="Path_50320" data-name="Path 50320" d="M-1158.08,2159.775v10.144h3.513v3.75h4.5v3.113h23.184v-3.113h3.746v-3.75h3.125v-14.192h3.453V2146h-41.02Z" transform="translate(1176.194 -2122.449)" fill="#edd5c2"/>
    <path id="Path_50318" data-name="Path 50318" d="M-1165.4,2131.05h3.089v3.466h32.175v3.64h3.839v6.759h-3.839v-3.079h-3.932v-3.187h-17.574v3.187h-10.669v10.352h-3.089v3.592h-3.6v-3.592h-3.975v-10.352H-1169v3.079h3.6V2131.05Z" transform="translate(1183.69 -2114.885)" fill="#53140d"/>
    <rect id="Rectangle_25451" data-name="Rectangle 25451" width="3.477" height="6.919" transform="translate(25.107 27.013)" fill="#0b122f"/>
    <rect id="Rectangle_25452" data-name="Rectangle 25452" width="3.477" height="6.919" transform="translate(45.968 27.013)" fill="#0b122f"/>
    <path id="Path_50319" data-name="Path 50319" d="M-1137,2167v7.326h3.618v2.5H-1120V2167Z" transform="translate(1165.584 -2133.069)" fill="#fff"/>
    <path id="Path_50321" data-name="Path 50321" d="M-1077.271,2167v3.781h8.69v3.826h-4.188v4.661h-8.209V2167Z" transform="translate(1136.89 -2134.057)" fill="#53140d"/>
    <path id="Path_50322" data-name="Path 50322" d="M-1186.688,2186.892v3.99h-7.862v3.9h4.354v3.668h5.785v2.951h7.813v3.282h3.437v-6.233h-3.437v-3.668h-7.813v-7.89Z" transform="translate(1194.551 -2143.13)" fill="#edd5c2"/>
    <path id="Path_50323" data-name="Path 50323" d="M-1080.979,2201.433h10.209v-3.444h6.377v-3.446h4.816v-3.665h-7.606v-3.152h-3.587v6.817h-10.209Z" transform="translate(1137.387 -2140.093)" fill="#edd5c2"/>
    <path id="Path_50326" data-name="Path 50326" d="M-1140.748,2251.5v16.645h-3.7v4.1h10.491v-17.43h7.461v3.35h3.341v14.08h6.576v-14.08h-2.706V2251.5Z" transform="translate(1169.332 -2175.808)" fill="#28284c"/>
    <path id="Path_50324" data-name="Path 50324" d="M-1151.215,2208.281v7.172h6.861v14.186h21.332v-14.186h7.515v-7.172Z" transform="translate(1172.739 -2153.949)" fill="#d3e8ff"/>
    <path id="Path_50325" data-name="Path 50325" d="M-1119.3,2215.463v4.084h-3.259v6.242h3.259v-3.228h3.142v-7.1Z" transform="translate(1158.317 -2157.582)" fill="#00bcd1"/>
  </g>
</svg>
