<svg xmlns="http://www.w3.org/2000/svg" width="357.829" height="28.643" viewBox="0 0 357.829 28.643">
  <path id="load-2" d="M0-28Zm22.75,0H24.5V-1.75H22.75V0H21V-1.75h1.75ZM3.5-26.25H5.25v1.75H3.5ZM5.25-24.5H7V-21H5.25Zm3.5,0H17.5V-7H15.75v1.75H14V-7H12.25v1.75H10.5V-3.5H8.75v1.75H7V-3.5H8.75V-5.25H10.5V-7H8.75Zm1.75,1.75v3.5h5.25v-3.5Zm8.75,0H21v14H19.25ZM0-21H1.75v1.75H0Zm1.75,1.75H3.5v3.5H1.75ZM10.5-17.5V-14h5.25v-3.5ZM5.25-15.75H7v3.5H5.25v10.5H3.5v-7H0V-10.5H3.5v-1.75H5.25Zm5.25,3.5v3.5h5.25v-3.5Zm5.25,7H17.5v3.5H15.75Zm3.5,1.75H21v1.75H19.25ZM30.8-28Zm17.5,0h1.75v3.5H48.3V-21H46.55v1.75H51.8V-21h1.75v1.75H55.3v1.75H43.05v1.75H41.3V-17.5h1.75v-1.75H44.8V-21h1.75v-3.5H48.3ZM32.55-26.25H41.3v1.75H37.8v1.75h3.5V-21H37.8v1.75h3.5v1.75H37.8V-14h3.5V-1.75H39.55V0H37.8V-1.75h1.75v-10.5h-7ZM34.3-24.5v1.75h1.75V-24.5Zm15.75,0H51.8V-21H50.05ZM34.3-21v1.75h1.75V-21Zm0,3.5V-14h1.75v-3.5Zm21,0h1.75v1.75H55.3ZM43.05-14H48.3v7H46.55v3.5H44.8v1.75H43.05V0H41.3V-1.75h1.75V-3.5H44.8V-7H43.05Zm7,0H55.3v7H53.55v3.5H51.8v1.75H50.05V0H48.3V-1.75h1.75V-3.5H51.8V-7H50.05ZM44.8-12.25v3.5h1.75v-3.5Zm7,0v3.5h1.75v-3.5ZM32.55-10.5H34.3v5.25H32.55V-3.5H30.8V-5.25h1.75Zm3.5,0H37.8v5.25H36.05Zm0,7H37.8v1.75H36.05Zm10.5,0H48.3v1.75H46.55Zm7,0H55.3v1.75H53.55ZM55.3-1.75h1.75V0H55.3ZM61.6-28Zm3.5,0h1.75v1.75H65.1Zm14,0h1.75v1.75h7v1.75h-7v1.75H86.1V-21H73.85v-1.75H79.1V-24.5h-7v-1.75h7ZM66.85-26.25H68.6v1.75H66.85Zm-5.25,3.5H72.1V-21H61.6Zm1.75,3.5h7v1.75h-7Zm8.75,0H87.85V-14H86.1V-3.5H84.35v1.75H82.6V-3.5H77.35v1.75H75.6V0H73.85V-1.75H75.6V-3.5H73.85V-14H72.1Zm1.75,1.75v1.75h3.5V-17.5Zm5.25,0v1.75h1.75V-17.5Zm3.5,0v1.75h3.5V-17.5ZM63.35-15.75h7V-14h-7ZM75.6-14v1.75h8.75V-14ZM63.35-12.25h7v10.5H68.6V-3.5H65.1v1.75H63.35ZM65.1-10.5v5.25h3.5V-10.5Zm10.5,0v1.75h8.75V-10.5Zm0,3.5v1.75h8.75V-7Zm8.75,5.25H86.1V0H84.35ZM92.4-28Zm0,1.75h15.75v1.75h-3.5v1.75H116.9v7h-1.75v3.5H113.4v1.75h-1.75v1.75H109.9v3.5h-1.75V-3.5H106.4v1.75h-1.75V0H102.9V-7H97.65v1.75H95.9V-3.5H94.15V-5.25H92.4V-7h3.5V-24.5H92.4Zm5.25,1.75V-21h5.25v-3.5Zm7,3.5v10.5h1.75v1.75h-1.75V-3.5h1.75V-5.25h1.75v-3.5h1.75V-10.5h1.75v-1.75h1.75v-3.5h1.75V-21h-7v5.25H106.4V-21Zm-7,1.75v3.5h5.25v-3.5Zm10.5,3.5h1.75v5.25h-1.75ZM97.65-14v5.25h5.25V-14Zm14,5.25h1.75V-7h-1.75ZM113.4-7h1.75v1.75H113.4Zm1.75,1.75h3.5V-3.5H116.9v1.75h-1.75ZM123.2-28Zm12.25,0h1.75v7h8.75V-8.75H144.2V-10.5h-7V0h-1.75V-10.5h-7v1.75H126.7V-21h8.75Zm-7,8.75v7h7v-7Zm8.75,0v7h7v-7Zm30.772,7.238a1.694,1.694,0,0,0-1.316.476,1.625,1.625,0,0,0-.5,1.26,1.666,1.666,0,0,0,.476,1.232,1.628,1.628,0,0,0,1.2.5,1.5,1.5,0,0,0,.616-.112,3.3,3.3,0,0,1-.588,1.876,4.049,4.049,0,0,1-1.792,1.232v1.372a5.4,5.4,0,0,0,2.884-1.82,5.247,5.247,0,0,0,1.092-3.276,3.253,3.253,0,0,0-.56-1.96A1.788,1.788,0,0,0,167.972-12.012ZM184.8-28Zm3.5,0h1.75v1.75H188.3Zm12.25,0h1.75v3.5h7v1.75h-7V-21h5.25v1.75H202.3v1.75h8.75v1.75h-17.5V-14h-7v-1.75h7V-17.5h7v-1.75h-3.5V-21h3.5v-1.75H195.3V-21H184.8v-1.75h10.5V-24.5h5.25Zm-10.5,1.75h1.75v1.75h-1.75Zm-3.5,7h7v1.75h-7ZM197.05-14h10.5V-1.75H205.8V0h-1.75V-1.75h1.75v-3.5h-7V0h-1.75Zm-10.5,1.75h7v10.5H191.8V-3.5h-3.5v1.75h-1.75Zm12.25,0v1.75h7v-1.75ZM188.3-10.5v5.25h3.5V-10.5Zm10.5,1.75V-7h7V-8.75Zm3.5,5.25h1.75v1.75H202.3ZM215.6-28Zm7,0h1.75v1.75h1.75v1.75h-3.5v5.25h3.5v1.75h-3.5v1.75h1.75V-14H222.6V0h-1.75V-12.25H219.1v3.5h-1.75V-7H215.6V-8.75h1.75v-3.5h1.75v-3.5h1.75V-17.5H215.6v-1.75h5.25v-3.5H215.6V-24.5h5.25v-1.75h1.75Zm10.5,0h1.75v8.75h5.25v17.5h-1.75V0H236.6V-1.75h1.75V-7H229.6V0h-1.75V-19.25h5.25Zm-5.25,1.75h1.75v1.75h-1.75Zm10.5,0h1.75v3.5h-1.75V-21H236.6v-1.75h1.75ZM229.6-24.5h1.75V-21H229.6Zm0,7V-14h8.75v-3.5ZM224.35-14h1.75v3.5h-1.75Zm5.25,1.75v3.5h8.75v-3.5Zm5.25,8.75h1.75v1.75h-1.75ZM246.4-28Zm5.25,0h1.75v3.5h-1.75V0H249.9V-19.25h-1.75v1.75H246.4v-1.75h1.75V-21h1.75v-3.5h1.75Zm5.25,1.75h10.5V-21h5.25v1.75H260.4v3.5h8.75V-14H263.9v3.5h8.75v1.75H263.9V-7h-1.75v1.75H260.4V-3.5h-1.75v1.75H256.9V0h-1.75V-1.75h1.75V-3.5h1.75V-5.25h1.75V-7h1.75V-8.75h-7v3.5H253.4V-21h12.25v-3.5H256.9Zm-1.75,7V-14h1.75v-1.75h1.75v-3.5ZM256.9-14v1.75h-1.75v1.75h7V-14Zm7,7h1.75v1.75H263.9Zm1.75,1.75h1.75V-3.5h-1.75ZM267.4-3.5h5.25v1.75H270.9V0h-1.75V-1.75H267.4ZM316.395.643a2.145,2.145,0,0,1-1.572-.656,2.145,2.145,0,0,1-.656-1.572,2.127,2.127,0,0,1,.663-1.579,2.163,2.163,0,0,1,1.565-.649,2.163,2.163,0,0,1,1.565.649,2.127,2.127,0,0,1,.663,1.579,2.145,2.145,0,0,1-.656,1.572A2.145,2.145,0,0,1,316.395.643Zm19.6,0a2.145,2.145,0,0,1-1.572-.656,2.145,2.145,0,0,1-.656-1.572,2.127,2.127,0,0,1,.663-1.579A2.163,2.163,0,0,1,336-3.814a2.163,2.163,0,0,1,1.565.649,2.127,2.127,0,0,1,.663,1.579,2.145,2.145,0,0,1-.656,1.572A2.145,2.145,0,0,1,336,.643Zm19.6,0a2.145,2.145,0,0,1-1.572-.656,2.145,2.145,0,0,1-.656-1.572,2.127,2.127,0,0,1,.663-1.579,2.163,2.163,0,0,1,1.565-.649,2.163,2.163,0,0,1,1.565.649,2.127,2.127,0,0,1,.663,1.579,2.145,2.145,0,0,1-.656,1.572A2.145,2.145,0,0,1,355.6.643Z" transform="translate(0 28)" fill="#fff"/>
</svg>
