<svg xmlns="http://www.w3.org/2000/svg" xmlns:xlink="http://www.w3.org/1999/xlink" width="132.845" height="52.263" viewBox="0 0 132.845 52.263">
  <defs>
    <linearGradient id="linear-gradient" x1="-6.358" y1="0.74" x2="-3.872" y2="0.74" gradientUnits="objectBoundingBox">
      <stop offset="0.036" stop-color="#a58000"/>
      <stop offset="0.046" stop-color="#a88400"/>
      <stop offset="0.126" stop-color="#c6a705"/>
      <stop offset="0.201" stop-color="#dbc009"/>
      <stop offset="0.27" stop-color="#e8cf0b"/>
      <stop offset="0.325" stop-color="#edd50c"/>
      <stop offset="0.471" stop-color="#d7bc12"/>
      <stop offset="0.798" stop-color="#aa8921"/>
      <stop offset="0.994" stop-color="#a07d17"/>
    </linearGradient>
    <linearGradient id="linear-gradient-2" x1="63.404" y1="0.902" x2="64.379" y2="0.033" gradientUnits="objectBoundingBox">
      <stop offset="0.036" stop-color="#98660e"/>
      <stop offset="0.053" stop-color="#9e6e16"/>
      <stop offset="0.131" stop-color="#b68f39"/>
      <stop offset="0.204" stop-color="#c7a852"/>
      <stop offset="0.271" stop-color="#d2b661"/>
      <stop offset="0.325" stop-color="#d6bc67"/>
      <stop offset="0.474" stop-color="#c09f51"/>
      <stop offset="0.761" stop-color="#9a6c2a"/>
      <stop offset="0.994" stop-color="#9a6f28"/>
    </linearGradient>
    <linearGradient id="linear-gradient-3" x1="63.421" y1="0.883" x2="64.372" y2="0.034" gradientUnits="objectBoundingBox">
      <stop offset="0.036" stop-color="#d9aa29"/>
      <stop offset="0.122" stop-color="#e2bb1d"/>
      <stop offset="0.273" stop-color="#f0d40d"/>
      <stop offset="0.41" stop-color="#f9e303"/>
      <stop offset="0.521" stop-color="#fce900"/>
      <stop offset="0.616" stop-color="#edcd12"/>
      <stop offset="0.707" stop-color="#e3ba1f"/>
      <stop offset="0.77" stop-color="#e0b424"/>
      <stop offset="0.994" stop-color="#e8c544"/>
    </linearGradient>
    <linearGradient id="linear-gradient-4" x1="-9.124" y1="-6.013" x2="-6.769" y2="-6.013" xlink:href="#linear-gradient"/>
    <radialGradient id="radial-gradient" cx="-722.444" cy="280.851" r="5.348" gradientTransform="matrix(0.559, 0.526, -0.527, 0.56, -427.751, 420.481)" gradientUnits="userSpaceOnUse">
      <stop offset="0" stop-color="#545252"/>
      <stop offset="1" stop-color="#231815"/>
    </radialGradient>
    <radialGradient id="radial-gradient-2" cx="-750.883" cy="477.319" r="4.872" gradientTransform="matrix(0.642, 0.605, -0.605, 0.643, -283.375, 630.873)" gradientUnits="userSpaceOnUse">
      <stop offset="0" stop-color="#666"/>
      <stop offset="1" stop-color="#262626"/>
    </radialGradient>
    <radialGradient id="radial-gradient-3" cx="-705.915" cy="166.966" r="7.038" gradientTransform="matrix(0.49, 0.461, -0.462, 0.49, -548.166, 329.558)" gradientUnits="userSpaceOnUse">
      <stop offset="0" stop-color="#4f4f4f"/>
      <stop offset="0.441" stop-color="#343434"/>
      <stop offset="0.706" stop-color="#2b2b2b"/>
    </radialGradient>
    <radialGradient id="radial-gradient-4" cx="-777.685" cy="581.058" r="1.584" gradientTransform="matrix(0.702, 0.661, -0.662, 0.702, -161.918, 686.219)" gradientUnits="userSpaceOnUse">
      <stop offset="0" stop-color="#747373"/>
      <stop offset="1" stop-color="#383231"/>
    </radialGradient>
    <radialGradient id="radial-gradient-5" cx="-2391.823" cy="-621.682" r="2.423" gradientTransform="matrix(-0.934, -1.038, -0.892, 0.803, -5482.042, -2639.025)" gradientUnits="userSpaceOnUse">
      <stop offset="0" stop-color="#707070"/>
      <stop offset="1" stop-color="#363636"/>
    </radialGradient>
    <radialGradient id="radial-gradient-6" cx="-2311.234" cy="-707.876" r="6.616" gradientTransform="matrix(-0.71, -0.81, -0.808, 0.709, -5089.456, -2308.579)" gradientUnits="userSpaceOnUse">
      <stop offset="0" stop-color="#4f4f4f"/>
      <stop offset="0.027" stop-color="#4c4c4c"/>
      <stop offset="0.368" stop-color="#2c2c2c"/>
      <stop offset="0.656" stop-color="#181818"/>
      <stop offset="0.853" stop-color="#121212"/>
    </radialGradient>
  </defs>
  <g id="logo" transform="translate(-127.338 -354.01)">
    <g id="Group_38375" data-name="Group 38375" transform="translate(127.338 364.957)">
      <g id="Group_38359" data-name="Group 38359" transform="translate(7.333 1.763)">
        <path id="Path_50199" data-name="Path 50199" d="M172.131,394.167q-.739-1.906-1.37-3.813h-4.648q.557,1.532,1.193,3.065c.079.278-.321.735-.848.735H154.04q5.523-3.519,10.688-7.039H159.9q-5.5,3.6-11.383,7.194-.84,1.283-1.671,2.568h22.22C170.977,396.879,172.555,395.416,172.131,394.167Z" transform="translate(-146.613 -386.992)" fill="#fff"/>
        <path id="Path_50200" data-name="Path 50200" d="M168.7,396.807H146.254l.124-.191q.831-1.284,1.671-2.569l.039-.038c4.024-2.465,7.853-4.884,11.38-7.192l.031-.021h5.271l-.331.226c-3.229,2.2-6.7,4.5-10.333,6.812H166.1a.83.83,0,0,0,.642-.315.337.337,0,0,0,.086-.263c-.419-1.009-.821-2.042-1.19-3.056l-.06-.166h4.914l.028.085c.415,1.254.875,2.535,1.368,3.807l0,.005a1.66,1.66,0,0,1-.3,1.515A3.616,3.616,0,0,1,168.7,396.807Zm-21.992-.248H168.7a3.362,3.362,0,0,0,2.691-1.256,1.42,1.42,0,0,0,.262-1.289c-.483-1.247-.935-2.5-1.343-3.731h-4.381c.351.958.731,1.93,1.13,2.894a.562.562,0,0,1-.123.493,1.07,1.07,0,0,1-.84.413H153.255l.359-.228c3.632-2.314,7.114-4.6,10.353-6.81h-4.394c-3.513,2.3-7.326,4.708-11.332,7.161Q147.472,395.381,146.71,396.559Z" transform="translate(-146.254 -386.796)" fill="#fff"/>
      </g>
      <g id="Group_38360" data-name="Group 38360" transform="translate(51.578 10.258)">
        <path id="Path_50201" data-name="Path 50201" d="M265.2,410.674c-.3-.063-.951-.391-1.488-.549a2.586,2.586,0,0,0-2.39.357q-.252.84-.506,1.683a2.849,2.849,0,0,1,2.183-.392,4.985,4.985,0,0,0,2.434.493,3.552,3.552,0,0,0,1.21-.466q.237-.922.472-1.845s-.494.411-.689.528A1.88,1.88,0,0,1,265.2,410.674Z" transform="translate(-260.644 -409.471)" fill="#fff"/>
        <path id="Path_50202" data-name="Path 50202" d="M264.831,411.645a5.867,5.867,0,0,1-2.147-.52,2.722,2.722,0,0,0-2.068.379l-.029.018-.207,0,.048-.159q.226-.745.449-1.49l.067-.224.024-.023a2.72,2.72,0,0,1,2.511-.387c.278.082.584.208.855.318a4.742,4.742,0,0,0,.623.228,1.764,1.764,0,0,0,1.137-.177c.154-.092.528-.4.642-.491l.105-.414.124.45a.088.088,0,0,1-.01.061l.011,0q-.234.924-.472,1.846l-.013.048-.042.026a3.645,3.645,0,0,1-1.262.484A3.175,3.175,0,0,1,264.831,411.645Zm-2.693-.866a1.707,1.707,0,0,1,.639.116,4.928,4.928,0,0,0,2.374.485,3.3,3.3,0,0,0,1.117-.423q.182-.708.362-1.416c-.2.15-.4.282-.408.285a2.012,2.012,0,0,1-1.316.207h0a4.723,4.723,0,0,1-.666-.242c-.265-.109-.566-.231-.831-.31a2.477,2.477,0,0,0-2.246.306l-.048.16q-.18.6-.361,1.2A3.266,3.266,0,0,1,262.138,410.778Z" transform="translate(-260.38 -408.708)" fill="#fff"/>
      </g>
      <g id="Group_38361" data-name="Group 38361" transform="translate(42.378 1.765)">
        <path id="Path_50203" data-name="Path 50203" d="M255.57,388.14h-7.8q.154-.509.306-1.019h-2.82q-.167.509-.334,1.019h-7.077q-.362.921-.723,1.84h18.026Q255.358,389.06,255.57,388.14Z" transform="translate(-236.936 -386.997)" fill="#fff"/>
        <path id="Path_50204" data-name="Path 50204" d="M254.955,389.908H236.648l.821-2.088h7.072l.334-1.019h3.076l-.306,1.019h7.792l-.035.152q-.212.92-.425,1.84Zm-17.943-.248h17.746q.185-.8.368-1.592h-7.815l.307-1.019h-2.564l-.334,1.019h-7.082Z" transform="translate(-236.648 -386.801)" fill="#fff"/>
      </g>
      <g id="Group_38362" data-name="Group 38362" transform="translate(40.492 5.304)">
        <path id="Path_50205" data-name="Path 50205" d="M235.771,400.065q1.575-1.042,3.108-2.082h-2.226q1.2-.868,2.363-1.734h-2.544q-1.806,1.425-3.678,2.849h2.01q-1.03.484-2.074.967-.24.608-.477,1.217h4.8q.645-.609,1.28-1.217Z" transform="translate(-232.071 -396.125)" fill="#fff"/>
        <path id="Path_50206" data-name="Path 50206" d="M236.816,401.21h-5.032l.561-1.433.045-.021q.789-.365,1.57-.73H232.14l.292-.223c1.269-.966,2.505-1.924,3.676-2.848l.034-.027H239.1l-.3.223q-1.017.755-2.056,1.51h2.248l-.333.226c-.9.612-1.83,1.236-2.765,1.855h2.459l-.223.214q-.636.609-1.281,1.218Zm-4.669-.248h4.57q.513-.485,1.02-.97h-2.665l.344-.228c.935-.618,1.866-1.241,2.772-1.855h-2.2l.309-.224q1.041-.755,2.061-1.51h-2.125c-1.072.846-2.2,1.719-3.353,2.6h2.2l-.5.236q-1.008.474-2.03.946Z" transform="translate(-231.784 -395.929)" fill="#fff"/>
      </g>
      <g id="Group_38363" data-name="Group 38363" transform="translate(52.808 5.304)">
        <path id="Path_50207" data-name="Path 50207" d="M267.378,400.065q1.471-1.042,2.9-2.082H268.05q1.107-.868,2.186-1.734h-2.544q-1.659,1.425-3.387,2.849h2.01q-.982.484-1.978.967-.178.608-.357,1.217h4.8q.585-.609,1.16-1.217Z" transform="translate(-263.813 -396.125)" fill="#fff"/>
        <path id="Path_50208" data-name="Path 50208" d="M268.572,401.21h-5.02l.419-1.429.05-.024q.754-.365,1.5-.731H263.7l.266-.219c1.164-.96,2.3-1.918,3.385-2.847l.035-.03h2.942l-.274.221q-.941.757-1.9,1.513h2.248l-.307.224c-.835.609-1.7,1.233-2.582,1.858h2.46l-.2.209q-.575.609-1.16,1.219Zm-4.689-.248h4.583q.466-.485.925-.97h-2.664l.318-.225c.88-.623,1.75-1.246,2.589-1.857h-2.205l.283-.221q.965-.757,1.91-1.512h-2.146c-.991.851-2.028,1.724-3.088,2.6h2.2l-.477.235q-.959.472-1.93.943Z" transform="translate(-263.552 -395.929)" fill="#fff"/>
      </g>
      <g id="Group_38364" data-name="Group 38364" transform="translate(39.417 10.39)">
        <path id="Path_50209" data-name="Path 50209" d="M234,410.674c-.292-.063-.914-.391-1.435-.549a2.7,2.7,0,0,0-2.425.357q-.332.84-.663,1.683a3.006,3.006,0,0,1,2.219-.392,4.743,4.743,0,0,0,2.389.493,3.906,3.906,0,0,0,1.253-.466q.324-.922.645-1.845s-.535.411-.74.528A1.966,1.966,0,0,1,234,410.674Z" transform="translate(-229.298 -409.602)" fill="#fff"/>
        <path id="Path_50210" data-name="Path 50210" d="M233.466,411.852a5.519,5.519,0,0,1-2.1-.521,2.859,2.859,0,0,0-2.106.382l-.029.016-.22,0,.763-1.9a2.83,2.83,0,0,1,2.543-.383,8.618,8.618,0,0,1,.823.318,4.383,4.383,0,0,0,.6.228,1.842,1.842,0,0,0,1.157-.178c.2-.111.72-.514.725-.518l.33-.254-.783,2.239-.007,0a2.734,2.734,0,0,1-1.7.57Zm-2.637-.867a1.64,1.64,0,0,1,.632.117,4.675,4.675,0,0,0,2.327.485,3.625,3.625,0,0,0,1.165-.428l.5-1.417c-.154.113-.326.235-.427.292a2.067,2.067,0,0,1-1.331.205h0a4.346,4.346,0,0,1-.647-.243,8.305,8.305,0,0,0-.8-.309,2.572,2.572,0,0,0-2.285.312l-.531,1.346A3.462,3.462,0,0,1,230.828,410.985Z" transform="translate(-229.011 -409.047)" fill="#fff"/>
      </g>
      <g id="Group_38365" data-name="Group 38365" transform="translate(47.257 7.287)">
        <path id="Path_50211" data-name="Path 50211" d="M249.679,402.549h5.091c.119-.395.237-.791.355-1.186h-5.041Z" transform="translate(-249.506 -401.239)" fill="#fff"/>
        <path id="Path_50212" data-name="Path 50212" d="M254.588,402.477h-5.356l.49-1.433h5.3Zm-5.01-.248H254.4l.281-.938H249.9Z" transform="translate(-249.232 -401.044)" fill="#fff"/>
      </g>
      <g id="Group_38366" data-name="Group 38366" transform="translate(47.868 5.498)">
        <path id="Path_50213" data-name="Path 50213" d="M256.623,396.749H251.66l-.4,1.187h5.014Q256.447,397.342,256.623,396.749Z" transform="translate(-251.083 -396.625)" fill="#fff"/>
        <path id="Path_50214" data-name="Path 50214" d="M256.089,397.864h-5.28l.488-1.434h5.217Zm-4.934-.248H255.9l.278-.939h-4.708Z" transform="translate(-250.809 -396.43)" fill="#fff"/>
      </g>
      <g id="Group_38367" data-name="Group 38367" transform="translate(45.704 9.144)">
        <path id="Path_50215" data-name="Path 50215" d="M245.677,409.975h4.187a1.72,1.72,0,0,0,.866-.3,1.859,1.859,0,0,0,.578-.827q.41-1.345.816-2.69h-5.13Q246.338,408.065,245.677,409.975Zm2.714-2.662h1.645q-.222.7-.444,1.4h-1.664Q248.16,408.014,248.391,407.313Z" transform="translate(-245.503 -406.031)" fill="#fff"/>
        <path id="Path_50216" data-name="Path 50216" d="M245.4,409.9h-.174l.057-.164q.661-1.91,1.316-3.82l.029-.084h5.385l-.048.16q-.405,1.345-.815,2.691a1.972,1.972,0,0,1-.624.892,1.852,1.852,0,0,1-.935.326Zm.174-.248h4.013a1.615,1.615,0,0,0,.794-.28,1.745,1.745,0,0,0,.532-.766q.384-1.261.767-2.528h-4.875Q246.194,407.87,245.576,409.656Zm3.831-1.013h-1.926l.545-1.649h1.9l-.051.161q-.185.589-.372,1.174Zm-1.583-.248h1.4l.045-.142q.16-.506.321-1.012h-1.386Z" transform="translate(-245.228 -405.835)" fill="#fff"/>
      </g>
      <g id="Group_38368" data-name="Group 38368" transform="translate(0 13.07)">
        <path id="Path_50217" data-name="Path 50217" d="M158.811,425.082c-.217.4-.443.6-.648.6h-4.947q2.155-4.7,4.353-9.4H135.5q-3.467,5.469-6.765,10.938c-.279.463-.557.87-.834,1.333h21.4c.112,0,.216,0,.323,0,0,0,0-.005-.007,0h8.238a4.3,4.3,0,0,0,3.372-2q2.189-4.812,4.363-9.625h-3.082Q160.66,421.008,158.811,425.082Zm-9.594-.031a.905.905,0,0,1-.9.5H134.041q1.817-3.13,3.684-6.262H152.04Q150.618,422.173,149.217,425.052Z" transform="translate(-127.682 -416.156)" fill="#fff"/>
        <path id="Path_50218" data-name="Path 50218" d="M149.233,428.49l-.008-.009H127.338l.112-.187c.143-.24.286-.464.431-.689.134-.21.269-.421.4-.644,2.125-3.528,4.4-7.208,6.767-10.94l.036-.057H157.42l-.083.176c-1.559,3.34-2.958,6.36-4.272,9.224h4.753c.158,0,.353-.193.537-.53l3.728-8.22h3.353l-.079.175Q163.19,421.6,161,426.412a4.39,4.39,0,0,1-3.485,2.067Zm-21.456-.259h21.293c.061,0,.119,0,.179,0l.071-.012.008.009.147-.006,0,.009h8.039a4.177,4.177,0,0,0,3.263-1.928q2.144-4.715,4.281-9.443h-2.81l-3.668,8.086c-.239.44-.494.663-.757.663h-5.14l.081-.175c1.314-2.867,2.712-5.886,4.27-9.225H135.224c-2.351,3.711-4.614,7.37-6.727,10.878-.136.226-.271.438-.407.65C127.985,427.9,127.881,428.063,127.776,428.232Zm20.192-2.747H133.482l.108-.186c1.178-2.03,2.418-4.137,3.685-6.263l.036-.06H151.9l-.088.179q-1.421,2.879-2.822,5.757A1.032,1.032,0,0,1,147.968,425.484Zm-14.056-.248h14.056a.782.782,0,0,0,.793-.435h0q1.357-2.79,2.735-5.579H137.452C136.236,421.263,135.046,423.284,133.912,425.237Z" transform="translate(-127.338 -415.961)" fill="#fff"/>
      </g>
      <g id="Group_38369" data-name="Group 38369" transform="translate(37.417 2.305)">
        <path id="Path_50219" data-name="Path 50219" d="M224.258,388.513q.673,2.776,1.54,5.55,1.28-.766,2.535-1.532-.609-2.009-1.122-4.018Z" transform="translate(-224.101 -388.389)" fill="#fff"/>
        <path id="Path_50220" data-name="Path 50220" d="M225.478,394.054l-.047-.15c-.582-1.867-1.1-3.737-1.542-5.557l-.037-.154h3.206l.024.093c.343,1.342.721,2.692,1.122,4.013l.028.092-.082.05q-1.254.768-2.536,1.533Zm-1.311-5.613c.42,1.718.909,3.479,1.454,5.239q1.169-.7,2.317-1.4c-.382-1.265-.743-2.555-1.073-3.839Z" transform="translate(-223.852 -388.193)" fill="#fff"/>
      </g>
      <g id="Group_38370" data-name="Group 38370" transform="translate(34.315 6.99)">
        <path id="Path_50221" data-name="Path 50221" d="M216.264,400.6q.752,2.914,1.71,5.828,1.376-.73,2.729-1.459-.76-2.186-1.409-4.369Z" transform="translate(-216.104 -400.473)" fill="#fff"/>
        <path id="Path_50222" data-name="Path 50222" d="M217.649,406.407l-.046-.14c-.643-1.964-1.22-3.927-1.712-5.835l-.04-.155h3.283l.026.089c.419,1.414.892,2.882,1.407,4.363l.034.1-.093.05q-1.353.729-2.73,1.459Zm-1.478-5.882c.471,1.809,1.016,3.666,1.622,5.526q1.262-.671,2.5-1.339c-.492-1.42-.946-2.827-1.35-4.186Z" transform="translate(-215.851 -400.277)" fill="#fff"/>
      </g>
      <g id="Group_38371" data-name="Group 38371" transform="translate(107.116 3.475)">
        <path id="Path_50223" data-name="Path 50223" d="M419.383,410.171q-.477-3.164-1.092-6.328h7.564q-.371-1.484-.774-2.968h-7.4q-.69-3.189-1.527-6.376h7.768q-.49-1.483-1.016-2.968H404.018q.272,1.485.514,2.968h7.6q.728,3.188,1.313,6.376h-7.676q.187,1.483.347,2.968h7.846q.518,3.164.9,6.328h-9.223c.069,1.094.129,2.131.18,3.226h23.633c-.2-1.095-.421-2.131-.651-3.226Z" transform="translate(-403.869 -391.407)" fill="#fff"/>
        <path id="Path_50224" data-name="Path 50224" d="M429.363,413.325h-23.9l-.006-.118c-.046-1-.1-2.021-.179-3.224l-.009-.132h9.216c-.253-2.051-.545-4.1-.869-6.08h-7.851l-.012-.111c-.109-1-.225-2-.346-2.965l-.017-.14h7.667c-.381-2.057-.805-4.118-1.263-6.128h-7.6l-.017-.1c-.164-1.006-.337-2-.513-2.966l-.027-.146h19.125l.029.082c.335.945.678,1.944,1.017,2.97l.054.163h-7.779c.525,2,1.018,4.063,1.466,6.128h7.4l.024.091c.262.96.522,1.959.775,2.97l.039.154h-7.572c.386,1.987.738,4.031,1.048,6.08h9.408l.021.1c.247,1.176.452,2.16.652,3.229Zm-23.664-.248h23.366c-.185-.98-.376-1.9-.6-2.978h-9.42l-.016-.105c-.321-2.132-.689-4.259-1.091-6.323l-.029-.148h7.555c-.232-.925-.471-1.838-.71-2.72h-7.405l-.021-.1c-.464-2.147-.978-4.291-1.526-6.371l-.041-.155h7.758c-.311-.938-.625-1.852-.932-2.72H403.931c.161.885.319,1.8.47,2.72h7.589l.022.1c.478,2.092.92,4.239,1.314,6.381l.026.147H405.67c.111.886.217,1.8.318,2.72h7.84l.017.1c.338,2.066.643,4.2.9,6.333l.017.139h-9.231C405.6,411.2,405.656,412.154,405.7,413.077Z" transform="translate(-403.634 -391.212)" fill="#fff"/>
      </g>
      <g id="Group_38372" data-name="Group 38372" transform="translate(98.405 6.478)">
        <path id="Path_50225" data-name="Path 50225" d="M381.664,404.8h4.03l.05,0a2.442,2.442,0,0,0,2.453-2.2c-.137-1.262-.059-2.059-.227-3.321h-6.459C381.674,401.275,381.569,402.8,381.664,404.8Zm2.2-3.64h1.917c.061.587-.111.707-.055,1.293a.343.343,0,0,1-.283.286H383.8C383.749,402.061,383.922,401.845,383.863,401.163Z" transform="translate(-381.377 -399.153)" fill="#fff"/>
        <path id="Path_50226" data-name="Path 50226" d="M385.481,404.732h-4.149l-.006-.118c-.041-.857-.045-1.633-.049-2.384-.005-1.028-.011-2-.1-3.138l-.011-.134h6.7l.014.108a17.378,17.378,0,0,1,.13,1.781c.017.473.034.961.1,1.544a2.579,2.579,0,0,1-2.568,2.339Zm-3.912-.248h3.912l.05.121-.008-.124a2.307,2.307,0,0,0,2.338-2.084c-.064-.572-.081-1.065-.1-1.542-.019-.529-.037-1.03-.114-1.65h-6.216c.083,1.091.088,2.031.093,3.023C381.53,402.941,381.533,403.678,381.569,404.483Zm2.018-1.813h-.115l-.009-.115a3.5,3.5,0,0,1,.033-.806,3.169,3.169,0,0,0,.028-.772l-.011-.135h2.164l.012.111a2.293,2.293,0,0,1-.028.684,2.091,2.091,0,0,0-.028.61l0,.019,0,.019a.46.46,0,0,1-.385.383Zm.117-.248h1.524a.208.208,0,0,0,.158-.171,2.376,2.376,0,0,1,.032-.653,2.065,2.065,0,0,0,.035-.508h-1.671a3.548,3.548,0,0,1-.039.691A3.414,3.414,0,0,0,383.7,402.422Z" transform="translate(-381.164 -398.957)" fill="#fff"/>
      </g>
      <g id="Group_38373" data-name="Group 38373" transform="translate(36.089 1.123)">
        <path id="Path_50227" data-name="Path 50227" d="M285.062,405.781h5.113q-.044-.935-.1-1.871h-5.051q-.013-.616-.032-1.231h5.009q-.06-.936-.129-1.87h-4.944c-.016-.411-.034-.821-.052-1.23h5.159q-.077-.936-.165-1.87h-5.088c-.017-.3-.033-.594-.052-.89h-3c.011.3.021.594.031.89h-3.033c.231-.608.38-1.1.453-1.364h.632l.047,0a2.643,2.643,0,0,0,2.577-2.261c-.076-1.295.067-2.123-.036-3.419h-6.367c.048,2.05-.164,3.633-.174,5.683h.664a11.717,11.717,0,0,1-1.541,3.041c-.29.36-.588.7-.876,1.016-.413-3-.82-5.8-1.283-8.794h2.123c-.008-.736-.019-1.474-.034-2.211h-2.9q.011-1.967-.017-3.933h-2.163q-.012,1.966-.062,3.933H266.44q-.059,1.1-.13,2.211H267.9s-2.119,8.119-3.164,12.278l-1.045,3.609H239.644s.754-2.728,1.124-4.121H225.32l.383-1.036H239.6a2.532,2.532,0,0,0,1.067-.294,1.761,1.761,0,0,0,.678-.849q.42-1.6.833-3.2H223.613l-.67,1.691h14.151q-.152.519-.306,1.039H222.531q-.841,2.123-1.681,4.246h14.675q-.355,1.186-.713,2.371H220.819c.014.75.032,1.592.053,2.343h15.641c0,.01-.007-.011-.01,0H265.5l1.03-4.54,3.155-12.781-1.3,17.321h2.606s.637-8.118.8-12.177q.377,3.551.7,7.1c0,.095.007.189.009.284,0,0,1.193-.842,2.541-2.012q-.132,3.4-.364,6.8h16.55c-.028-.863-.059-1.726-.1-2.589h-6.058Q285.071,406.438,285.062,405.781ZM278.2,392.6h1.916c.029.6-.175.737-.151,1.339a.374.374,0,0,1-.3.294h-1.641C278.013,393.529,278.223,393.3,278.2,392.6Zm3.648,14.5h-4c.017-.437.031-.875.046-1.312h3.968Q281.858,406.437,281.849,407.093Zm.018-3.183h-3.919c.01-.411.018-.821.027-1.231h3.887Q281.866,403.295,281.867,403.91Zm-.029-3.1H278q0-.616.007-1.23h3.8C281.822,399.988,281.831,400.4,281.837,400.809Z" transform="translate(-220.667 -385.34)" fill="#fff"/>
        <path id="Path_50228" data-name="Path 50228" d="M236.207,409.619l-.006-.01H220.512l0-.121c-.021-.751-.04-1.593-.053-2.344l0-.126h14.027l.639-2.123H220.427l1.779-4.494h14.248l.233-.792H222.52l.769-1.939H242.1l-.04.155q-.412,1.6-.834,3.2a1.867,1.867,0,0,1-.729.921,2.649,2.649,0,0,1-1.13.314H225.55l-.292.789H240.69l-.041.156c-.318,1.194-.916,3.366-1.082,3.965h23.79c.359-1.239,1-3.444,1.018-3.516.954-3.8,2.825-10.977,3.124-12.123h-1.561l.009-.132q.069-1.1.129-2.21l.006-.117h3.329c.031-1.281.051-2.562.059-3.81v-.123h2.409v.122c.018,1.312.024,2.593.018,3.811h2.894l0,.121q.023,1.106.034,2.212l0,.125h-2.1c.431,2.793.821,5.471,1.225,8.391.242-.27.474-.543.693-.815a11.233,11.233,0,0,0,1.462-2.839h-.613v-.124c.005-.91.049-1.735.093-2.533.056-1.032.109-2.008.081-3.146l0-.127h6.608l.009.114a16.2,16.2,0,0,1,.026,1.812c-.012.494-.026,1,.01,1.61a2.775,2.775,0,0,1-2.692,2.391l-.044,0h-.55c-.07.241-.192.638-.368,1.117h2.726l-.032-.891h3.249l.007.116q.024.388.046.775h5.083l.01.112q.088.936.165,1.871l.011.135h-5.164l0,.074q.02.455.039.909h4.94l.008.115q.069.937.129,1.871l.009.132h-5.013q.015.492.026.984h5.047l.007.117q.052.937.1,1.872l.006.13h-5.117q.007.532.012,1.064h6.054l.005.118q.059,1.3.1,2.591l0,.128h-16.81l.009-.132c.15-2.221.268-4.411.353-6.513-1.072.915-2,1.6-2.281,1.795l.021.8-.212-.664-.046.033-.01-.21-.022-.071.02-.014-.007-.217c-.169-1.826-.348-3.666-.536-5.487-.231,4.24-.72,10.495-.726,10.566l-.009.114h-2.854l.01-.133,1.189-15.845-2.8,11.344-1.052,4.634Zm38.369-.257h16.289q-.038-1.17-.09-2.341h-6.063V406.9q-.005-.655-.014-1.311l0-.126h5.109q-.039-.811-.084-1.623h-5.056l0-.121q-.013-.615-.032-1.23l0-.128h5q-.053-.811-.112-1.622h-4.948l0-.119c-.013-.343-.028-.685-.043-1.027l-.015-.333h5.154q-.067-.811-.143-1.622h-5.092l-.007-.117q-.021-.387-.045-.773h-2.76l.031.89h-3.341l.064-.168c.232-.613.381-1.111.45-1.354l.025-.09.76,0a2.534,2.534,0,0,0,2.466-2.149c-.036-.6-.023-1.113-.01-1.612a16.373,16.373,0,0,0-.017-1.671H275.92c.021,1.094-.031,2.04-.085,3.039-.041.758-.083,1.541-.091,2.4h.713l-.057.165a11.964,11.964,0,0,1-1.562,3.078c-.276.342-.572.686-.882,1.023l-.178.193-.036-.26c-.423-3.071-.83-5.865-1.282-8.792l-.022-.143h2.142q-.011-.98-.03-1.963h-2.9V389.2c.007-1.217,0-2.5-.016-3.809h-1.918c-.007,1.25-.028,2.532-.06,3.813l0,.121h-3.336q-.054.982-.115,1.963h1.617l-.04.155c-.021.081-2.131,8.166-3.164,12.277l-.019,0c-.04.211-.248.928-1.027,3.617l-.026.09h-24.3l.043-.157s.7-2.534,1.083-3.964H224.9l.475-1.284h13.981a2.427,2.427,0,0,0,1-.274,1.65,1.65,0,0,0,.628-.782c.266-1.01.53-2.026.792-3.042h-18.32l-.572,1.444h14.134l-.379,1.287H222.375l-1.583,4h14.66l-.787,2.619H220.705c.013.677.029,1.419.048,2.1h44.406l1.008-4.444,3.155-12.783.244.039-1.289,17.188h2.358c.078-1,.641-8.309.8-12.058l.247-.008c.249,2.34.486,4.731.7,7.105l0,.058c.406-.3,1.328-.987,2.344-1.869l.216-.188-.011.286C274.848,404.84,274.729,407.084,274.576,409.362Zm7.155-2.341H277.48l0-.129c.017-.434.031-.868.046-1.3l0-.12.12-.009h4.093v.125q0,.656-.014,1.312Zm-3.994-.248h3.749q.007-.532.012-1.064h-3.723C277.763,406.067,277.751,406.421,277.737,406.773Zm4.013-2.934h-4.17l0-.127c.009-.328.015-.656.022-.985l.008-.368h4.131v.123q0,.616.005,1.232Zm-3.917-.248H281.5q0-.492,0-.984h-3.642l0,.125Q277.844,403.161,277.834,403.591Zm3.889-2.854h-4.086v-.125q0-.615.007-1.23v-.124h4.047l0,.121c.01.411.019.821.025,1.232Zm-3.837-.248h3.585q-.008-.491-.02-.982h-3.558Q277.891,400,277.886,400.489Zm-.1-6.331h-.122l0-.121a3.383,3.383,0,0,1,.09-.835,3.082,3.082,0,0,0,.083-.8l0-.128H280l.006.118a2.253,2.253,0,0,1-.078.708,2.021,2.021,0,0,0-.073.632v.019l0,.018a.492.492,0,0,1-.4.385Zm.123-.248h1.517a.243.243,0,0,0,.174-.185,2.263,2.263,0,0,1,.08-.68,2.084,2.084,0,0,0,.074-.521h-1.67a3.425,3.425,0,0,1-.09.727A3.312,3.312,0,0,0,277.911,393.91Z" transform="translate(-220.427 -385.144)" fill="#fff"/>
      </g>
      <g id="Group_38374" data-name="Group 38374" transform="translate(90.349)">
        <path id="Path_50229" data-name="Path 50229" d="M361.319,383.59c.017,0,.029-.007.043-.008q.962,2.323,1.92,4.646h10.483q.5-2.163.871-4.327c.024,0,.05.012.074.012a.439.439,0,0,0,.486-.51.7.7,0,0,0-.68-.512.442.442,0,0,0-.482.512.619.619,0,0,0,.316.4q-1.081,1.2-2.249,2.4-.3-1.155-.615-2.311a.431.431,0,0,0,.383-.489.672.672,0,0,0-.663-.512.459.459,0,0,0-.5.512.61.61,0,0,0,.376.442q-.69,1.15-1.44,2.3-.683-1.147-1.367-2.294a.429.429,0,0,0,.268-.451.646.646,0,0,0-.649-.512.476.476,0,0,0-.516.512.6.6,0,0,0,.455.478q-.4,1.135-.836,2.267-.991-1.177-1.965-2.355a.428.428,0,0,0,.183-.39.621.621,0,0,0-.632-.512.5.5,0,0,0-.532.512.611.611,0,0,0,.626.51h0q-.051,1.146-.129,2.29-1.56-1.321-3.074-2.64a.478.478,0,0,0,.388-.482.6.6,0,0,0-.611-.512.51.51,0,0,0-.549.512A.587.587,0,0,0,361.319,383.59Z" transform="translate(-360.58 -382.444)" fill="#fff"/>
        <path id="Path_50230" data-name="Path 50230" d="M373.667,388.157H363l-.032-.077q-.94-2.281-1.885-4.562a.7.7,0,0,1-.7-.627.574.574,0,0,1,.158-.431.705.705,0,0,1,.514-.212.724.724,0,0,1,.735.627.568.568,0,0,1-.281.528c.853.743,1.752,1.515,2.738,2.351.041-.624.077-1.269.107-1.921a.715.715,0,0,1-.625-.614.57.57,0,0,1,.151-.437.684.684,0,0,1,.5-.21.747.747,0,0,1,.755.624.531.531,0,0,1-.136.413q.87,1.053,1.755,2.1c.246-.639.487-1.3.719-1.953a.7.7,0,0,1-.421-.537.551.551,0,0,1,.136-.438.669.669,0,0,1,.5-.212.774.774,0,0,1,.771.62.538.538,0,0,1-.221.511l1.2,2.016c.439-.678.863-1.357,1.263-2.021a.7.7,0,0,1-.326-.471.543.543,0,0,1,.124-.442.653.653,0,0,1,.5-.213.8.8,0,0,1,.785.616.539.539,0,0,1-.354.593q.269.99.528,1.982c.728-.753,1.385-1.453,2-2.131a.7.7,0,0,1-.251-.4.536.536,0,0,1,.114-.446.63.63,0,0,1,.49-.212.816.816,0,0,1,.8.612.522.522,0,0,1-.107.441.631.631,0,0,1-.472.216c-.238,1.39-.525,2.809-.854,4.221Zm-10.5-.248h10.3c.327-1.414.612-2.834.848-4.225l.015-.088-.087.1c-.684.759-1.421,1.545-2.251,2.4l-.154.158-.055-.214q-.3-1.154-.614-2.309l-.036-.129.131-.026a.311.311,0,0,0,.284-.347.552.552,0,0,0-.54-.407.4.4,0,0,0-.31.126.294.294,0,0,0-.067.243.491.491,0,0,0,.3.347l.128.057-.072.12c-.454.756-.939,1.532-1.443,2.306l-.109.167L367.9,383.6l.126-.057a.3.3,0,0,0,.2-.321.527.527,0,0,0-.526-.4.419.419,0,0,0-.318.129.3.3,0,0,0-.076.244.483.483,0,0,0,.366.373l.126.036-.043.124c-.269.766-.55,1.531-.838,2.271l-.076.195-.135-.16q-.991-1.178-1.966-2.356l-.082-.1.1-.078a.31.31,0,0,0,.135-.278.5.5,0,0,0-.508-.4.435.435,0,0,0-.323.13.323.323,0,0,0-.086.247.484.484,0,0,0,.484.4h.153l-.006.129c-.035.782-.079,1.553-.13,2.293l-.016.245-.187-.159c-1.039-.88-1.982-1.688-2.873-2.464Q362.288,385.773,363.168,387.909Zm11.169-4.339.159.019a.386.386,0,0,0,.327-.123.277.277,0,0,0,.055-.236.578.578,0,0,0-.558-.412.387.387,0,0,0-.3.123.289.289,0,0,0-.06.243.5.5,0,0,0,.256.318l.121.07ZM361.058,382.5a.457.457,0,0,0-.334.134.328.328,0,0,0-.091.246.465.465,0,0,0,.483.395l.134-.024a.356.356,0,0,0,.3-.354A.472.472,0,0,0,361.058,382.5Z" transform="translate(-360.384 -382.248)" fill="#fff"/>
      </g>
    </g>
    <g id="Group_38376" data-name="Group 38376" transform="translate(150.781 394.346)">
      <path id="Path_50231" data-name="Path 50231" d="M189.965,458.558H203.8q-.879,1.427-1.672,2.849h-4.8a56.691,56.691,0,0,0-4.348,8.686h-5.022a52.248,52.248,0,0,1,4.66-8.686h-4.8Q188.821,459.985,189.965,458.558Z" transform="translate(-187.808 -458.362)" fill="#fff"/>
      <path id="Path_50232" data-name="Path 50232" d="M245.6,458.558h4.322c-.388,2.154-.66,4.306-.832,6.458,1.54-2.151,3.111-4.3,4.667-6.458h4.305c.091,2.15.273,4.3.521,6.45,1.122-2.15,2.24-4.3,3.319-6.45h4.3c-1.863,3.845-3.952,7.691-6.022,11.535h-4.926c-.345-2.421-.607-4.841-.747-7.261-1.665,2.419-3.331,4.84-4.941,7.261h-4.926A54.832,54.832,0,0,1,245.6,458.558Z" transform="translate(-222.603 -458.362)" fill="#fff"/>
      <path id="Path_50233" data-name="Path 50233" d="M316.431,458.558h4.551q.038,2.182-.057,4.361c1.73-1.452,3.353-2.906,4.823-4.361H331.8c-1.555,1.453-3.29,2.9-5.154,4.354,2,2.394,3.987,4.788,5.9,7.181h-6.184q-1.5-2.372-3.049-4.743-1.308.964-2.677,1.928c-.085.937-.185,1.878-.3,2.815h-5.023C315.852,466.249,316.262,462.4,316.431,458.558Z" transform="translate(-265.881 -458.362)" fill="#fff"/>
      <path id="Path_50234" data-name="Path 50234" d="M386.246,465.062q2.232.473,4.479.946a3.854,3.854,0,0,1-1.04,2.195,5.35,5.35,0,0,1-2.245,1.331,11.938,11.938,0,0,1-3.574.446,14.41,14.41,0,0,1-4.343-.546,6.9,6.9,0,0,1-2.963-1.922,6.193,6.193,0,0,1-1.539-3.523,4.919,4.919,0,0,1,1.1-4.4c1.027-1.024,2.645-1.537,5.008-1.537a11.7,11.7,0,0,1,4.762.882,9.285,9.285,0,0,1,3.5,2.706q-1.968.349-3.976.7a3.77,3.77,0,0,0-.691-.771,4.058,4.058,0,0,0-1.167-.628,4.144,4.144,0,0,0-1.346-.221,2.339,2.339,0,0,0-2.176.975,3.247,3.247,0,0,0-.162,2.272,4.217,4.217,0,0,0,1.182,2.628,3.632,3.632,0,0,0,2.349.711,3.1,3.1,0,0,0,2.078-.575A2.448,2.448,0,0,0,386.246,465.062Z" transform="translate(-302.388 -458.053)" fill="#fff"/>
    </g>
    <g id="Group_38377" data-name="Group 38377" transform="translate(186.772 354.01)">
      <path id="Path_50235" data-name="Path 50235" d="M301.611,374.434a5.466,5.466,0,0,0-2.342-1.878,1.273,1.273,0,0,1,.21-.5,3.04,3.04,0,0,0,.641-.848c.278-.442.706-2.133.8-2.28s-.563-.913-.553-1.212a2.955,2.955,0,0,1,.682-1.326c.3-.32.278-.5.079-.745a4.368,4.368,0,0,0-1.3-.754c-.291-.1-.757-.233-.757-.233s-.6-.643-.741-.828a.637.637,0,0,0-.435-.192,8.361,8.361,0,0,0-1.376-.066.978.978,0,0,0-.124-.019,4.826,4.826,0,0,0-.956.63,4.181,4.181,0,0,1-.543.521,18.74,18.74,0,0,1-2.176,1.194,3.889,3.889,0,0,0-1.664,1.716c-.186.354-.948,1.35-1.254,1.818-.042.064-.086.144-.131.233l-1.1-3.313.2-1.679c.135-.055.224-.123.227-.2.011-.272.036-.8.057-1.218a1.864,1.864,0,0,0,.672-.134l.008-.005c.49-.1,1.027-.7,1.25-1.8.384-1.882-.274-3.347-2.911-3.459-.092,0-.175,0-.262,0l-.044,0c-3.045-.128-3.243,1.511-3.283,2.459a1.42,1.42,0,0,0,.613,1.158,1.612,1.612,0,0,0,1.065,1.45c-.022.447-.057,1.169-.07,1.427a.265.265,0,0,0,.122.223l.017,2.554,2.608,4.377c-.021.039-.043.083-.064.117-.307.5-2.185,3.614-2.395,3.816a3.347,3.347,0,0,0-.571,1.509c-.074.565-.017,2.688-.052,2.957a1.734,1.734,0,0,1-.345.8c-.174.223.276.637.475.851s.589,1.032.9,1.462a2.463,2.463,0,0,1,.409,1.118,6.148,6.148,0,0,0,.841,1.457,2.547,2.547,0,0,1,.612.168,27.32,27.32,0,0,1,2.017,2.133,2.143,2.143,0,0,1,.373,1.267c.049.419.644,1.357.734,1.128s.262.038.433.281c.089.132.19.17.27.139a.916.916,0,0,0,.8-.334c.094-.235.261.036.431.281s.378.19.414-.107.084-.926.089-1.105a12.922,12.922,0,0,0-.187-1.74,15.074,15.074,0,0,1,.922-3.244c.184-.232,1.478-1.6,1.516-1.775a1.4,1.4,0,0,1,.379-.635,2.083,2.083,0,0,0-.03.436c.046,1.05,2.166,2.128,3.49,1.691a1.933,1.933,0,0,0,1.121-2.741c.1-.2.2-.406.3-.614l0,0c0,.01.105-.227.215-.478.072-.166.142-.33.2-.487-.052-.034-.111-.069-.168-.1a8.561,8.561,0,0,0,.48-2.169A4,4,0,0,0,301.611,374.434Zm-2.133,4.087c-.263.513-.51.9-.766,1.394a.446.446,0,0,0-.06-.057,1.2,1.2,0,0,0-.859-.17c.117-.51.229-1.011.276-1.214.09-.4.545-3.254.737-4.155a2.835,2.835,0,0,1,1.279.939,2.325,2.325,0,0,1,.464,2.266l-.549,1.2C299.788,378.637,299.608,378.564,299.478,378.522Z" transform="translate(-282.991 -356.359)"/>
      <path id="Path_50236" data-name="Path 50236" d="M291.563,389.941a1.64,1.64,0,0,1-.739-.178,2.352,2.352,0,0,1-.644.083,1.692,1.692,0,0,1-1.277-.466c-1.113-.361-1.644-1.946-1.7-2.4l-.018-.173c-.01-.1-.025-.249-.042-.334l-.326-.364c-.274-.308-.942-1.057-1.263-1.376a2.712,2.712,0,0,1-.3-.066c-1.185-.327-1.89-2.659-1.893-2.681a.976.976,0,0,0-.137-.444,10.192,10.192,0,0,1-.567-.925c-.08-.141-.2-.348-.255-.437l-.023-.024c-1.2-1.241-.932-2.161-.5-2.715a.314.314,0,0,0,.041-.076c.006-.162,0-.477,0-.835a20.14,20.14,0,0,1,.053-2.124,4.818,4.818,0,0,1,.93-2.3c.267-.368,1.349-2.141,1.841-2.951l-2.153-3.613a1.483,1.483,0,0,1-.21-.751l-.014-2.135a1.7,1.7,0,0,1-.122-.727l.028-.57a3.014,3.014,0,0,1-.9-1.482,2.79,2.79,0,0,1-.732-1.968,4,4,0,0,1,.867-2.536,4.676,4.676,0,0,1,3.964-1.349l.033,0h.019c.083,0,.166,0,.257,0a4.633,4.633,0,0,1,3.65,1.577,4.3,4.3,0,0,1,.652,3.664,3.692,3.692,0,0,1-1.954,2.815c0,.037,0,.071,0,.1a1.655,1.655,0,0,1-.3.871l-.094.8.031.093a5.48,5.48,0,0,1,1.872-1.685c.506-.287.936-.5,1.281-.667a6.427,6.427,0,0,0,.624-.328.813.813,0,0,1,.07-.061,3.5,3.5,0,0,0,.3-.277,3.84,3.84,0,0,1,1.436-1.033,1.578,1.578,0,0,1,.8-.168s.031,0,.083.008a10.011,10.011,0,0,1,1.456.08,2.07,2.07,0,0,1,1.473.768c.044.056.2.232.377.424.141.043.294.091.419.134a5.636,5.636,0,0,1,1.977,1.225,1.927,1.927,0,0,1-.152,2.7,1.506,1.506,0,0,0-.161.238,1.954,1.954,0,0,1,.3,1.914c-.033.1-.08.257-.135.439a9.233,9.233,0,0,1-.75,2l-.036.058a8.918,8.918,0,0,1,1.431,1.45h0a5.425,5.425,0,0,1,1.153,4.187,9.443,9.443,0,0,1-.339,1.852,1.482,1.482,0,0,1-.066.833c-.067.178-.147.366-.229.555-.09.207-.182.406-.214.476h0l-.021.045a3.329,3.329,0,0,1,.009,1.514,3.485,3.485,0,0,1-2.308,2.613,4.778,4.778,0,0,1-3.987-.74l-.114-.081-.186.205-.275.3a22.576,22.576,0,0,0-.681,2.335,15.6,15.6,0,0,1,.174,1.869c-.007.233-.057.915-.1,1.259a1.711,1.711,0,0,1-1.276,1.508A1.66,1.66,0,0,1,291.563,389.941Zm.735-1.37-.014.035Zm-2.01-.568v0Zm-2.245-.638-.008.018Zm3.014-.022.011.016Zm-.911-.854a1.657,1.657,0,0,1,.185.1c-.029-.325-.071-.719-.1-.855a.67.67,0,0,0,.024.085c-.331-.99.885-4.272,1.151-4.619.083-.1.275-.321.511-.581.218-.24.635-.7.829-.937a3.055,3.055,0,0,1,.626-.978.944.944,0,0,0,.622-1.7l.275-1.211c.031-.14.155-.869.255-1.455.17-1,.362-2.139.479-2.681a1.656,1.656,0,0,0,.49-1.87,2.287,2.287,0,0,1,.708-1.244c.075-.1.214-.323.311-.477.089-.175.323-.947.422-1.276.013-.043.026-.085.038-.124a2.45,2.45,0,0,1-.442-1.346,3.273,3.273,0,0,1,.443-1.38c-.267-.089-.658-.2-.664-.2a1.49,1.49,0,0,1-.677-.416c-.119-.128-.343-.369-.536-.586a5.936,5.936,0,0,0-.676-.038c-.1.058-.186.113-.243.152a5.615,5.615,0,0,1-.655.626,5.388,5.388,0,0,1-1.3.782c-.326.16-.7.341-1.123.583a2.429,2.429,0,0,0-1.07,1.093,12.463,12.463,0,0,1-.858,1.28c-.186.259-.367.509-.48.682-.016.024-.034.06-.053.1a1.53,1.53,0,0,0-.851,1.864c-.041.078-.071.131-.1.176l-.29.475a38.676,38.676,0,0,1-2.252,3.548,2.8,2.8,0,0,0-.223.727c-.031.238-.028,1.207-.027,1.728a11.189,11.189,0,0,1-.026,1.232,3.06,3.06,0,0,1-.138.575,6.79,6.79,0,0,1,.514.824c.126.224.283.5.385.642a3.76,3.76,0,0,1,.651,1.607c.065.133.178.34.284.521a2.787,2.787,0,0,1,.378.152c.366.178.651.439,2.092,2.056.159.178.287.323.357.4A3.206,3.206,0,0,1,290.146,386.489Zm2.929-1.617c.011.033.021.069.032.109C293.1,384.946,293.088,384.909,293.075,384.871Zm-6.828-3.56Zm9.311-.677,0,.007Zm.393-.711a2.058,2.058,0,0,0,1.524.485.562.562,0,0,0,.345-.511,1.488,1.488,0,0,1-.086-1.489c.1-.188.192-.386.286-.584l0,0c-.039.01-.078.019-.118.026-.074.131-.148.265-.222.408a1.214,1.214,0,0,0-1.731,1.668Zm2.1.247h0Zm-12.989-6.018-.007.006Zm-2.068-2.138c-.017.017-.038.036-.06.061C282.953,372.054,282.973,372.034,282.993,372.014Zm14.989-1.086-.046.03Zm-.673-5.138q-.021.033-.04.066C297.283,365.833,297.3,365.811,297.31,365.789Zm-3.027-3.068-.012.016Zm-.427-.043h0Zm.948-.286.007.009Zm-8.95-1.445h0Zm1.526-.183h0Zm-3.117-1.624a1.018,1.018,0,0,0,.112.055,1.487,1.487,0,0,1,.914,1.238,1.489,1.489,0,0,1,1.375-1.016.537.537,0,0,0,.119-.014c.042-.019.085-.035.129-.049a1.738,1.738,0,0,0,.261-.682,1.663,1.663,0,0,0-.08-1.239,2.057,2.057,0,0,0-1.436-.437c-.043,0-.08,0-.117,0h-.09c-.029,0-.059,0-.088,0l-.029,0c-.93-.031-1.41.134-1.554.3a1.172,1.172,0,0,0-.157.625c.009.008.019.017.033.028a1.49,1.49,0,0,1,.566,1,.628.628,0,0,0,.042.19Zm-.669-1.253Z" transform="translate(-280.642 -354.01)"/>
    </g>
    <g id="Group_38388" data-name="Group 38388" transform="translate(188.259 355.497)">
      <path id="Path_50237" data-name="Path 50237" d="M292.593,376.707l-3.672-6.161-.039-5.717s2.313-2.264,3.084-1.024l-.7,5.97,2.138,6.42Z" transform="translate(-287.175 -361.267)" fill="url(#linear-gradient)"/>
      <g id="Group_38378" data-name="Group 38378" transform="translate(0.888 5.709)">
        <path id="Path_50238" data-name="Path 50238" d="M300.167,373.82s-.283-.932-.131-1.139,1.63-.016,1.63-.016a.637.637,0,0,1,.435.192c.142.185.741.828.741.828s.466.134.757.233a4.368,4.368,0,0,1,1.3.754c.2.246.223.425-.079.745a2.955,2.955,0,0,0-.682,1.326c-.009.3.646,1.066.553,1.212s-.52,1.838-.8,2.28a3.04,3.04,0,0,1-.641.848,12.3,12.3,0,0,0-.612,2.016c-.128.354-.7,3.954-.8,4.4s-.522,2.311-.6,2.582c-.222.782-.889,1.025-1.016,1.62-.038.178-1.332,1.543-1.516,1.775a15.071,15.071,0,0,0-.922,3.244,12.921,12.921,0,0,1,.187,1.74c-.005.179-.051.807-.089,1.105s-.246.35-.414.107-.337-.517-.431-.281-.917.567-.965.147.168-2.2-.146-2.541a18.818,18.818,0,0,0-2.036-1.761c-.259-.128-.473-.506-.592-.538a6.15,6.15,0,0,1-.84-1.46,2.448,2.448,0,0,0-.41-1.117c-.311-.427-.7-1.246-.9-1.461s-.651-.628-.475-.851a1.742,1.742,0,0,0,.343-.8c.037-.267-.021-2.391.052-2.956a3.4,3.4,0,0,1,.571-1.51c.211-.2,2.091-3.319,2.4-3.818s.722-1.712,1.028-2.181,1.069-1.464,1.255-1.818a3.871,3.871,0,0,1,1.663-1.716A20.014,20.014,0,0,0,300.167,373.82Z" transform="translate(-289.139 -372.581)" fill="url(#linear-gradient-2)"/>
        <path id="Path_50239" data-name="Path 50239" d="M296.3,373.723a4.18,4.18,0,0,0,.543-.521,4.826,4.826,0,0,1,.956-.63.634.634,0,0,1,.436.191c.142.183.74.828.74.828s.466.133.758.232a4.438,4.438,0,0,1,1.3.754c.2.246.222.426-.08.747a2.947,2.947,0,0,0-.682,1.325c-.01.3.644,1.065.552,1.213s-.522,1.84-.8,2.278a3.036,3.036,0,0,1-.639.85,12.27,12.27,0,0,0-.615,2.013c-.127.356-.7,3.957-.8,4.4s-.525,2.309-.6,2.582c-.22.782-.889,1.025-1.016,1.621-.04.176-1.334,1.542-1.516,1.774a15.012,15.012,0,0,0-.923,3.246,12.763,12.763,0,0,1,.188,1.738c-.005.179-.052.805-.09,1.1s-.245.351-.414.107-.338-.518-.433-.281-.685-.709-.734-1.128a2.143,2.143,0,0,0-.373-1.267,27.326,27.326,0,0,0-2.017-2.133,2.547,2.547,0,0,0-.612-.168,6.147,6.147,0,0,1-.841-1.457,2.463,2.463,0,0,0-.409-1.118c-.311-.43-.7-1.246-.9-1.462s-.649-.628-.475-.851a1.734,1.734,0,0,0,.345-.8c.036-.269-.022-2.392.052-2.957a3.347,3.347,0,0,1,.571-1.509c.21-.2,2.088-3.319,2.395-3.816s.724-1.715,1.031-2.184,1.068-1.464,1.254-1.818a3.889,3.889,0,0,1,1.664-1.716A18.74,18.74,0,0,0,296.3,373.723Z" transform="translate(-286.769 -372.572)" fill="url(#linear-gradient-3)"/>
      </g>
      <path id="Path_50240" data-name="Path 50240" d="M323.468,402.915a8.632,8.632,0,0,0,.485-2.187,4,4,0,0,0-.834-3.145,5.05,5.05,0,0,0-2.444-1.909.841.841,0,0,0-1.025.609.929.929,0,0,0,.339,1.035,3.567,3.567,0,0,1,1.6,1.09,2.325,2.325,0,0,1,.464,2.266l-.627,1.375S323.168,403.287,323.468,402.915Z" transform="translate(-305.986 -380.994)" fill="url(#linear-gradient-4)"/>
      <path id="Path_50241" data-name="Path 50241" d="M307.335,400.444a7.218,7.218,0,0,1-2.355.554,4.259,4.259,0,0,1-2.979-.864s.084.432.8.785a5.52,5.52,0,0,0,2.03.475,10.846,10.846,0,0,0,3.024-.24s.347-.811.124-.892C307.869,400.218,307.663,400.27,307.335,400.444Z" transform="translate(-295.208 -383.739)" fill="#3e3a39"/>
      <path id="Path_50242" data-name="Path 50242" d="M296.839,389.965a3.311,3.311,0,0,0,.438,1.725,9.989,9.989,0,0,0,1.106,1.769s-.019.5-.317.282a20.667,20.667,0,0,1-1.125-2.328,6.636,6.636,0,0,1-.269-1.079A1.1,1.1,0,0,1,296.839,389.965Z" transform="translate(-291.944 -377.513)" fill="#3e3a39"/>
      <g id="Group_38379" data-name="Group 38379" transform="translate(5.242 15.791)">
        <path id="Path_50243" data-name="Path 50243" d="M299.759,398.576s1.116.867,1.428,1.167a1.41,1.41,0,0,1-.668,1.062s-.957-.175-1.225-.784A1.8,1.8,0,0,1,299.759,398.576Z" transform="translate(-298.782 -398.576)" fill="#3e3a39"/>
        <path id="Path_50244" data-name="Path 50244" d="M298.732,402.389a8.2,8.2,0,0,0-.6,5.121l1.139,1.417.867-1.434s-1.013-3.189-.506-4.419Z" transform="translate(-298 -400.911)" fill="#3e3a39"/>
      </g>
      <g id="Group_38385" data-name="Group 38385">
        <g id="Group_38384" data-name="Group 38384">
          <path id="Path_50245" data-name="Path 50245" d="M288.713,369.971s-.069,1.417-.088,1.8c-.032.677,2.884.607,2.9.124s.086-1.8.086-1.8Z" transform="translate(-287.017 -365.27)" fill="url(#radial-gradient)"/>
          <g id="Group_38380" data-name="Group 38380" transform="translate(2.653 4.747)">
            <path id="Path_50246" data-name="Path 50246" d="M292.2,370.122l-.091,2.207a5.185,5.185,0,0,1-.787-.005l.091-2.234Z" transform="translate(-291.322 -370.089)" fill="#393433"/>
          </g>
          <g id="Group_38383" data-name="Group 38383">
            <g id="Group_38382" data-name="Group 38382">
              <path id="Path_50247" data-name="Path 50247" d="M291.9,361.326c.384-1.882-.274-3.347-2.911-3.459-2.667-.114-2.931,1.281-3,2.99-.047,1.152.281,1.783,1.181,2.111a14.379,14.379,0,0,0,3.294.174C291,363.165,291.651,362.566,291.9,361.326Z" transform="translate(-285.404 -357.855)" fill="url(#radial-gradient-2)"/>
              <path id="Path_50248" data-name="Path 50248" d="M290.744,360.578c-.194.822-1.2,1.634-3.441,1.54s-2.852-1.127-2.825-1.806c.04-.948.238-2.587,3.283-2.459C290.694,357.976,291.057,359.249,290.744,360.578Z" transform="translate(-284.478 -357.846)" fill="url(#radial-gradient-3)"/>
              <path id="Path_50249" data-name="Path 50249" d="M295.333,358.895c-.088.175.216.515.681.759s.911.3,1,.121-.214-.516-.68-.759S295.422,358.719,295.333,358.895Z" transform="translate(-291.115 -358.425)" fill="#bdbdbd"/>
              <g id="Group_38381" data-name="Group 38381" transform="translate(2.709 2.788)">
                <path id="Path_50250" data-name="Path 50250" d="M292.731,366.545c-.357-.047-1.251-.243-1.265-.684-.014-.466.69-.863,1.679-.822,1.206.051,1.423,1.83.7,2.5h-.028s-.961.043-1.878.007a.519.519,0,0,1-.071-.1C291.6,366.951,292.456,366.62,292.731,366.545Z" transform="translate(-291.465 -365.036)" fill="#7d7d7d"/>
              </g>
              <path id="Path_50251" data-name="Path 50251" d="M294.463,367.22c1.026-.431.9-2.616-.433-2.673-.992-.042-1.821.209-1.806.678.012.439,1.034.666,1.391.714-.276.075-1.135.519-.859,1.015C292.971,367.341,293.82,367.491,294.463,367.22Z" transform="translate(-289.221 -361.946)" fill="url(#radial-gradient-4)"/>
            </g>
          </g>
        </g>
      </g>
      <g id="Group_38387" data-name="Group 38387" transform="translate(12.18 20.676)">
        <path id="Path_50252" data-name="Path 50252" d="M317.888,414.319c.7.423-.063,3.262-.633,2.957-1.2-.642-1.618-1.291-1.208-2.164C316.655,413.812,317.508,414.091,317.888,414.319Z" transform="translate(-315.894 -412.982)" fill="url(#radial-gradient-5)"/>
        <path id="Path_50253" data-name="Path 50253" d="M318.938,411.177c-.275.536-.532.937-.8,1.46a2.825,2.825,0,0,0-1.876,2.5c.046,1.05,2.166,2.128,3.49,1.691a1.933,1.933,0,0,0,1.121-2.741c.256-.509.531-1.076.722-1.577A16.38,16.38,0,0,0,318.938,411.177Z" transform="translate(-316.117 -411.177)" fill="url(#radial-gradient-6)"/>
        <g id="Group_38386" data-name="Group 38386" transform="translate(3.953 1.17)">
          <path id="Path_50254" data-name="Path 50254" d="M326.369,414.2l1.074.572c-.119.277-.252.561-.247.552l-1.106-.588Z" transform="translate(-326.091 -414.195)" fill="#bfbfbf"/>
        </g>
      </g>
    </g>
  </g>
</svg>
