<svg id="Ma" xmlns="http://www.w3.org/2000/svg" width="290" height="290" viewBox="0 0 290 290">
  <rect id="Rectangle_40921" data-name="Rectangle 40921" width="290" height="290" fill="#f67200"/>
  <g id="Group_44388" data-name="Group 44388" transform="translate(31.34 57.004)">
    <path id="Path_60775" data-name="Path 60775" d="M461.1,377.846c-3.622-2.784-18.307-13.668-30.467-16.841-13.984-3.648-26.751-16.719-26.751-16.719a113.5,113.5,0,0,0-4.559-11.551c-2.128-4.256-80.252-28.575-81.772-28.575S298.4,317.231,298.4,317.231a43.3,43.3,0,0,1,0,6.384c-.3,1.52-20.063,21.887-22.191,23.71-1.71,1.466-31.106,22.371-42.579,30.52Z" transform="translate(-233.631 -144.849)" fill="#12151d"/>
    <path id="Path_60776" data-name="Path 60776" d="M347.917,327.255c2.256,3.383,27.55,43.661,27.55,43.661l2.633,6.916h62.2c.243-7.058,1.049-30.771.978-32.469-.083-2-4.75-14.08-6.524-14.241s-78.978-27.948-80.93-26.976-18.168,12.346-18.168,12.346S345.661,323.872,347.917,327.255Z" transform="translate(-269.909 -144.836)" fill="#2f3c67"/>
    <path id="Path_60777" data-name="Path 60777" d="M442.946,320.881a16.387,16.387,0,0,0-2.194,8.052c.1,4.35-2.478,23.2-2.478,23.2s-10.311,20.783-15.628,22.233-63.8-52.683-63.8-52.683-.779-12.857,1.221-16.337S443.59,314.763,442.946,320.881Z" transform="translate(-278.099 -145.063)" fill="#c6926f"/>
    <path id="Path_60778" data-name="Path 60778" d="M447.677,318.484s-8.176,8.947-10.87,9.789c-6.046,1.89-26.17,5.44-34.152,3.507-2.784-.674-6.635-1.407-10.47-2.076a37.146,37.146,0,0,1-25.325-17.048,18.165,18.165,0,0,1-1.349-2.535c-1.831-4.561-1.659-5.96-1.659-5.96S450.756,314.731,447.677,318.484Z" transform="translate(-279.93 -144.834)" fill="#a87756"/>
    <path id="Path_60779" data-name="Path 60779" d="M533.887,245.686s1.638.635,1.8-.82,3.867-15.634,4.994-18.534,4.672-7.25,4.672-9.506-.161-9.022,0-9.506-1.083-2.123-3.28-1.625S534.182,222.024,533.887,245.686Z" transform="translate(-340.389 -109.774)" fill="#fbd5b9"/>
    <path id="Path_60780" data-name="Path 60780" d="M347.388,180.313s-2.128,9.423-1.52,13.071,0,15.5,1.52,19.454,7.3,25.535,14.9,31.31,78.428,13.375,87.851,3.344,15.2-28.55,16.111-31.146,3.648-25.76,3.952-30.441,2.431-19.88,2.128-23.224,2.431-28.27-8.512-35.87-15.2-9.728-15.2-9.728-50.765-6.687-58.972-4.255-36.478,13.679-37.086,16.415S344.652,161.466,347.388,180.313Z" transform="translate(-273.499 -76.59)" fill="#fbd5b9"/>
    <path id="Path_60781" data-name="Path 60781" d="M412.038,277.41s1.2,2.724,2.466,2.712,43.279-.236,44.286-.224,4.337-.4,4.766-1.349c.193-.429,1.383-.83.6-1.018a8.575,8.575,0,0,0-3.462-.062l-7.366,1.338S414,276.83,412.848,276.7,412.038,277.41,412.038,277.41Z" transform="translate(-297.047 -135.056)" fill="#ce9874" opacity="0.25"/>
    <path id="Path_60782" data-name="Path 60782" d="M415.428,278.33s11.448,1.7,15.1,2.615,14.287,1.52,18.239,0a68.154,68.154,0,0,1,10.917-2.585s-11.221-2.583-13.045-3.191-4.179.836-6.611.836a8.961,8.961,0,0,1-4.616-1.162C433.9,274.2,415.428,278.33,415.428,278.33Z" transform="translate(-298.27 -134.377)" fill="#a76d56"/>
    <path id="Path_60783" data-name="Path 60783" d="M429.025,240.009s-6.384,2.432-4.864,5.168,2.736,5.168,6.687,4.864,6.688,3.039,8.512,3.648,4.256,2.736,7.3,0,5.471-3.648,6.992-3.04a22.392,22.392,0,0,1,3.343,1.824s-4.435.915-6.207,1.237-4.511,3.544-6.122,3.383a31.953,31.953,0,0,1-12.728-3.383s-5.639-.806-6.606-1.45-5.156-5.639-4.672-7.733S427.4,240.487,429.025,240.009Z" transform="translate(-300.115 -122.01)" fill="#a87756"/>
    <path id="Path_60784" data-name="Path 60784" d="M398.6,234.706s5.838-7.894,8.616-9.344,10.833-5.156,10.833-5.156,5.961-11.6,5.8-14.178-3.222-8.861-8.056-10.472-18.85-5.961-28.194,1.933l-4.672,5.961s8.056-1.611,9.989-3.544,4.994-4.833,4.994-4.833,13.694-1.128,17.722,2.578,5.317,6.283,5.478,8.7-.161,6.209-2.578,7.454-8.378,3.5-8.378,3.5l8.378-1.128s.483,2.9-3.383,4.028S403.642,223.267,398.6,234.706Z" transform="translate(-286.714 -105.256)" fill="#ddaa87"/>
    <path id="Path_60785" data-name="Path 60785" d="M472.178,214.069s4.833-1.933,7.25-2.739,8.539-1.289,10.794,0,7.411,3.706,7.411,3.706l-6.767-.806a3.965,3.965,0,0,0-2.739-2.256C486.2,211.652,484.745,210.041,472.178,214.069Z" transform="translate(-318.448 -111.522)" fill="#bc8364"/>
    <g id="Group_44369" data-name="Group 44369" transform="translate(153.73 94.83)">
      <g id="Group_44368" data-name="Group 44368">
        <path id="Path_60786" data-name="Path 60786" d="M472.178,208.861s.361-.251,1.01-.662,1.581-.993,2.742-1.622c.578-.318,1.212-.648,1.892-.983a22.531,22.531,0,0,1,2.192-.96,7.6,7.6,0,0,1,2.566-.591c.88.03,1.758.124,2.636.23a25,25,0,0,1,5.074,1.151,8.956,8.956,0,0,1,2.167,1.091c.622.429,1.2.851,1.732,1.241,1.063.779,1.911,1.478,2.513,1.953s.931.769.931.769l-3.653-2.424c-.548-.363-1.141-.75-1.781-1.145a9.726,9.726,0,0,0-2.1-.948,27.808,27.808,0,0,0-4.971-1.049c-.862-.111-1.729-.211-2.573-.247a7.554,7.554,0,0,0-2.355.5,38.635,38.635,0,0,0-4.109,1.732c-1.179.573-2.166,1.052-2.845,1.409Z" transform="translate(-472.178 -204.043)" fill="#6e482a"/>
      </g>
    </g>
    <path id="Path_60787" data-name="Path 60787" d="M466.283,196.939s8.861-3.061,9.989-3.222,12.567,0,12.567,0l8.217,2.417a59,59,0,0,0-4.028-5.391c-1.45-1.537-5.639-3.631-10.472-3.631s-9.022-.644-10.311,0c-.891.445-3.4,2.01-4.862,2.934a3.511,3.511,0,0,0-1.555,2.149,6.2,6.2,0,0,0,.455,4.744Z" transform="translate(-316.097 -103.088)" fill="#544c41"/>
    <path id="Path_60788" data-name="Path 60788" d="M384.85,187.434c.691-.413,7.411-4.511,9.828-4.672s11.761,1.289,15.95,2.336c2.419.6,5.266,2.578,7.242,4.139a4.443,4.443,0,0,1,1.468,4.906l-.25.744s-1.645-2.1-8.3-4.152c-5.554-1.711-15.027-2.743-21.45,1.248s-9.161,1.9-9.161,1.9S382.055,189.1,384.85,187.434Z" transform="translate(-285.737 -101.639)" fill="#544c41"/>
    <path id="Path_60789" data-name="Path 60789" d="M338.289,242.314s-6.928-.167-8.539-3.067-8.217-16.433-9.022-19.817-2.417-8.529-2.578-10.95,0-8.383,1.45-9.35,9.875-.657,9.875-.657l4.3,3.875,3.867,15.312Z" transform="translate(-263.664 -107.221)" fill="#e2b08f"/>
    <path id="Path_60790" data-name="Path 60790" d="M337.464,231.3s-3.113-9.344-2.469-12.083-.967-8.358-3.867-10.3c-1.406-.942-3.04-1.883-4.349-2.6a2.626,2.626,0,0,0-3.617,1.13l-.733,1.472,2.094-.815s2.147-.806,5.424,2.416,2.954,4.028,3.6,6.122S334.132,229.37,337.464,231.3Z" transform="translate(-265.203 -109.909)" fill="#a86d56"/>
    <g id="Group_44371" data-name="Group 44371" transform="translate(61.608 103.509)">
      <g id="Group_44370" data-name="Group 44370">
        <path id="Path_60791" data-name="Path 60791" d="M335.8,238.947a4.787,4.787,0,0,1-.762-.638,13.209,13.209,0,0,1-1.653-2.042c-.3-.453-.607-.958-.916-1.5s-.61-1.127-.894-1.746l-.423-.952-.388-.978-.348-1.032-.3-1.047c-.179-.706-.333-1.416-.463-2.12s-.212-1.4-.286-2.079-.1-1.333-.122-1.956-.014-1.212,0-1.754a21.093,21.093,0,0,1,.242-2.61c.046-.313.1-.556.139-.721l.056-.253s-.042.358-.07.987-.035,1.524-.005,2.6c.019.536.054,1.116.105,1.728s.135,1.253.217,1.917.21,1.342.335,2.032.293,1.381.474,2.069l.287,1.025.324,1,.366.986.383.937c.267.613.526,1.205.791,1.758s.539,1.064.809,1.526.524.882.769,1.241a11.164,11.164,0,0,0,.67.907,6.042,6.042,0,0,0,.663.715Z" transform="translate(-329.231 -217.519)" fill="#a87756"/>
      </g>
    </g>
    <g id="Group_44373" data-name="Group 44373" transform="translate(97.986 94.199)">
      <g id="Group_44372" data-name="Group 44372">
        <path id="Path_60792" data-name="Path 60792" d="M385.678,207.994c.967-.01,7.572-2.918,11.922-3.881,3.832-.847,9.4-1.686,15.861,2.085a7.058,7.058,0,0,1,3.292,4.538l.18.792a19.445,19.445,0,0,0-6.444-2.578c-1.837-.424-3.116-.847-4.286-1.176a14.072,14.072,0,0,0-4.9-.6c-3.706.16-13.372,2.49-13.372,2.49s10.089,2.987,15.6,2.826q.419-.013.838-.022c5.243-.124,10.47.022,10.47.022" transform="translate(-385.678 -203.181)" fill="#fcdfcd"/>
        <path id="Path_60793" data-name="Path 60793" d="M385.678,207.881a12.582,12.582,0,0,0,2.111-.676l2.075-.793c1.384-.528,2.772-1.052,4.177-1.531.7-.236,1.409-.468,2.125-.673s1.444-.382,2.165-.539,1.462-.289,2.2-.387,1.485-.169,2.232-.2a19.472,19.472,0,0,1,2.245.042c.374.023.747.059,1.117.116s.742.106,1.11.182.735.15,1.1.247.726.19,1.081.311.716.227,1.063.371.7.261,1.04.429c.688.3,1.348.657,2,1.02a7.213,7.213,0,0,1,1.8,1.438,7.447,7.447,0,0,1,1.255,1.93,10.7,10.7,0,0,1,.649,2.18l.162.722-.621-.417a13.3,13.3,0,0,0-1.592-.887c-.554-.266-1.123-.5-1.7-.718a26.8,26.8,0,0,0-3.563-1.029c-1.226-.291-2.433-.658-3.626-1a14.342,14.342,0,0,0-3.606-.646,14.9,14.9,0,0,0-1.84.036c-.621.046-1.219.124-1.839.211-1.23.178-2.457.4-3.681.631q-3.672.708-7.318,1.574l.014-.529c2.166.633,4.359,1.208,6.564,1.7,1.1.248,2.211.475,3.325.668q.834.15,1.673.264c.559.075,1.119.135,1.68.2.561.034,1.123.1,1.685.089.559.017,1.128,0,1.7,0q1.7-.016,3.4,0c2.268.019,4.536.07,6.8.168q-3.4-.021-6.8.028-1.7.027-3.4.084c-.566.017-1.13.05-1.7.046-.574.015-1.141-.038-1.712-.064-.567-.057-1.137-.1-1.7-.177s-1.128-.15-1.69-.24c-1.124-.177-2.241-.388-3.354-.62-2.225-.469-4.433-1-6.624-1.621l-1-.285,1.018-.244c2.435-.584,4.877-1.129,7.334-1.616,1.23-.241,2.462-.468,3.706-.654.617-.09,1.259-.176,1.884-.226a15.626,15.626,0,0,1,1.906-.046,15.013,15.013,0,0,1,3.758.651c1.208.351,2.391.72,3.6,1.012a27.443,27.443,0,0,1,3.63,1.068c.592.224,1.177.47,1.748.748a13.815,13.815,0,0,1,1.674.947l-.458.3a10.158,10.158,0,0,0-.6-2.075,6.875,6.875,0,0,0-1.148-1.786,6.605,6.605,0,0,0-1.652-1.336c-.639-.357-1.281-.708-1.949-1.005-.327-.166-.67-.291-1.008-.432s-.681-.264-1.029-.377a10.9,10.9,0,0,0-1.049-.318c-.352-.1-.706-.191-1.066-.257s-.717-.148-1.079-.193c-.362-.061-.725-.1-1.09-.13a19.054,19.054,0,0,0-2.2-.074,21.985,21.985,0,0,0-2.2.16c-.73.085-1.456.212-2.18.349s-1.442.3-2.156.494-1.422.4-2.128.616c-1.411.442-2.81.93-4.206,1.424l-2.1.735a12.557,12.557,0,0,1-2.142.61Z" transform="translate(-385.678 -203.067)" fill="#5b3c31"/>
      </g>
    </g>
    <path id="Path_60794" data-name="Path 60794" d="M417.679,212.652s-9.828,1.97-13.211,1.165-5.54-1.511-5.54-1.511a11.775,11.775,0,0,1,9.555-3.024C415.262,210.122,417.679,212.652,417.679,212.652Z" transform="translate(-292.403 -111.042)" fill="#fff"/>
    <path id="Path_60795" data-name="Path 60795" d="M406.733,209.107a2.168,2.168,0,0,0-1.6,3.077,5.738,5.738,0,0,0,1.464,1.554c2.073.954,5.537.791,6.343-.82a2.145,2.145,0,0,0,.282-1.623c-.14-2.343-1.432-2.128-2.256-2.189a16.038,16.038,0,0,0-4.233,0Z" transform="translate(-294.535 -110.964)" fill="#1e150d"/>
    <path id="Path_60796" data-name="Path 60796" d="M474.678,215.2s9.828,1.97,13.211,1.164,3.867-1.772,3.867-1.772-1.189-4.133-7.881-2.763S474.678,215.2,474.678,215.2Z" transform="translate(-319.337 -111.883)" fill="#fff"/>
    <path id="Path_60797" data-name="Path 60797" d="M491.234,213.011a2.2,2.2,0,0,1-.967,2.834c-1.794,1.136-6.606.949-8.056-1.35-1.767-2.8,6.715-3.808,7.544-3.035a18.982,18.982,0,0,1,1.479,1.551Z" transform="translate(-321.929 -111.762)" fill="#1e150d"/>
    <g id="Group_44375" data-name="Group 44375" transform="translate(147.67 99.01)">
      <g id="Group_44374" data-name="Group 44374">
        <path id="Path_60798" data-name="Path 60798" d="M463.035,210.534l.475,2.609c.081.382.168.8.261,1.233s.222.886.342,1.35.291.929.447,1.4l.267.7.313.682a11.222,11.222,0,0,0,.715,1.283c.305.44.561.837.855,1.205s.586.735.884,1.06.586.628.861.9a18.21,18.21,0,0,0,1.991,1.714,5.252,5.252,0,0,1-.708-.228,9.289,9.289,0,0,1-1.745-.908,11.489,11.489,0,0,1-2.145-1.8,12.044,12.044,0,0,1-1.006-1.219,11.92,11.92,0,0,1-.864-1.448l-.326-.769-.271-.777a13.38,13.38,0,0,1-.372-1.543,14.723,14.723,0,0,1-.233-2.769,14.435,14.435,0,0,1,.137-1.946C462.98,210.8,463.035,210.534,463.035,210.534Z" transform="translate(-462.775 -210.534)" fill="#ce9874"/>
      </g>
    </g>
    <g id="Group_44377" data-name="Group 44377" transform="translate(154.536 106.08)">
      <g id="Group_44376" data-name="Group 44376">
        <path id="Path_60799" data-name="Path 60799" d="M473.428,221.506s1.223.79,3,2.006c.894.6,1.931,1.31,3.05,2.036.557.367,1.147.72,1.739,1.077a17,17,0,0,0,1.824.958,5.527,5.527,0,0,0,.894.306l.213.053a1.985,1.985,0,0,0,.229.021,5.089,5.089,0,0,0,.516.026,19.326,19.326,0,0,0,1.971-.1c.656-.081,1.3-.149,1.9-.238l1.714-.258,3.566-.559a27.643,27.643,0,0,1-3.4,1.279,28.568,28.568,0,0,1-3.63.9c-.343.048-.688.113-1.048.148l-.543.058-.585.015c-.2.01-.368-.01-.55-.015a2.994,2.994,0,0,1-.3-.023l-.312-.063a6.51,6.51,0,0,1-1.152-.366,18.025,18.025,0,0,1-1.958-1.078c-.62-.38-1.188-.806-1.739-1.21a36.238,36.238,0,0,1-2.859-2.387,30.787,30.787,0,0,1-2.54-2.586Z" transform="translate(-473.428 -221.506)" fill="#ce9874"/>
      </g>
    </g>
    <g id="Group_44379" data-name="Group 44379" transform="translate(183.122 96.908)">
      <g id="Group_44378" data-name="Group 44378">
        <path id="Path_60800" data-name="Path 60800" d="M524.485,207.269a6.49,6.49,0,0,1-.476,1.106c-.186.355-.383.7-.59,1.046a19.818,19.818,0,0,1-1.375,1.973c-.246.321-.518.621-.792.922a11.024,11.024,0,0,1-.885.865,6.884,6.884,0,0,1-1.056.757,3.634,3.634,0,0,1-.663.292,2.089,2.089,0,0,1-.854.079l.175-1.262c.682.11,1.368.2,2.048.333s1.362.246,2.039.4,1.353.3,2.028.47,1.346.358,2.013.585c-.7.034-1.4.023-2.1.008s-1.389-.05-2.08-.106-1.381-.11-2.069-.18-1.373-.162-2.06-.244l.175-1.262a.981.981,0,0,0,.313-.051,2.329,2.329,0,0,0,.421-.173,5.634,5.634,0,0,0,.878-.6c.286-.233.579-.47.86-.728l.831-.8c.548-.545,1.09-1.107,1.626-1.678l.807-.862.4-.437a4.075,4.075,0,0,0,.386-.453Z" transform="translate(-517.788 -207.269)" fill="#ce9874"/>
      </g>
    </g>
    <g id="Group_44381" data-name="Group 44381" transform="translate(183.739 105.363)">
      <g id="Group_44380" data-name="Group 44380">
        <path id="Path_60801" data-name="Path 60801" d="M524.5,225.581a10.3,10.3,0,0,1-1.355-.857,15.456,15.456,0,0,1-1.226-.983,20.771,20.771,0,0,1-2.2-2.212l-.973-1.137,1.4.117c.3.024.591.038.886.072s.591.064.886.117a11.125,11.125,0,0,1,1.772.412,11.2,11.2,0,0,1-1.772.412c-.3.052-.59.077-.886.117s-.59.047-.886.072l.431-1.02a20.783,20.783,0,0,1,2.151,2.259,15.675,15.675,0,0,1,.948,1.253A10.275,10.275,0,0,1,524.5,225.581Z" transform="translate(-518.746 -220.392)" fill="#ce9874"/>
      </g>
    </g>
    <g id="Group_44383" data-name="Group 44383" transform="translate(154.536 104.465)">
      <g id="Group_44382" data-name="Group 44382">
        <path id="Path_60802" data-name="Path 60802" d="M473.428,219.206l.238.045.67.089,2.389.316,3.358.458,1.886.242c.641.087,1.291.157,1.94.213s1.3.121,1.924.138a12.07,12.07,0,0,0,1.821-.064c.612-.074,1.163-.158,1.719-.267s1.061-.231,1.536-.354A28.089,28.089,0,0,0,494.05,219a12.359,12.359,0,0,1-2.895,1.72,14.213,14.213,0,0,1-1.539.587,13.582,13.582,0,0,1-1.8.458,10,10,0,0,1-2,.186c-.678,0-1.357-.041-2.031-.1s-1.34-.161-1.993-.265-1.29-.237-1.9-.358c-1.229-.258-2.361-.56-3.321-.853s-1.75-.571-2.3-.789a6.9,6.9,0,0,1-.843-.38Z" transform="translate(-473.428 -219)" fill="#ce9874"/>
      </g>
    </g>
    <path id="Path_60803" data-name="Path 60803" d="M406.053,174.321s18.447-.806,20.7,0,20.461.161,22.717.644,13.211,2.094,13.211,2.094-16.272,5.227-19.817,5.191-13.694-1-17.4-1.324-14.691-2.819-14.691-2.819Z" transform="translate(-294.937 -98.513)" fill="#fcdfcd"/>
    <path id="Path_60804" data-name="Path 60804" d="M360.284,144.932s5.317,9.022,5.317,13.533,2.256,16.7,2.256,16.7a31.679,31.679,0,0,0-5.317,5.7c-2.417,3.383-3.222,11.643-3.222,11.643s9.667,7.851,9.989,8.012-3.061,9.506.322,10.956,11.6-.967,11.6-.967-7.824,8.876-8.861,8.545a4.857,4.857,0,0,0-6.283,2.733c-1.772,3.867,1.611,13.694,3.222,15.467S379.3,242.4,379.3,242.4l-4.672-17.676,3.222-4.074a56.278,56.278,0,0,0,2.578,8.217c1.289,2.739,6.867,10.311,8.831,12.728s6.153,7.733,10.825,9.344,20.139,4.787,24.972,2.048c1.493-.845,8.176-4.041,10.311-5.367,6.408-3.979,10.39-7.991,13.027-15.058l2.923-7.838,9.217-8.306-1-3.823s9.183,6.45,1.208,24.328c-5.609,12.572-8.53,18.662-13.605,20.366s-53.214,10.729-83.771-4.094c0,0-2.3-1.034-8.166-11.715a75.965,75.965,0,0,1-9.518-42.35c1.07-17.974,2.28-53.185,7.842-59.975s6.928-6.149,6.928-6.149S358.994,142.593,360.284,144.932Z" transform="translate(-273.415 -83.955)" fill="#ddaa87"/>
    <path id="Path_60805" data-name="Path 60805" d="M427.678,278.144s8.05.581,10.539.984,11.373.081,13.145,0a30.06,30.06,0,0,1,4.8.43l4.079-.416" transform="translate(-302.625 -135.574)" fill="#4c2718"/>
    <path id="Path_60806" data-name="Path 60806" d="M437.366,279.684c-.865-.2,3.43,1.822,7.354,2.144,2.5.2,6.015.169,8.242.115a3.966,3.966,0,0,0,3.254-1.843h0S442.059,280.76,437.366,279.684Z" transform="translate(-306.03 -136.117)" fill="#efb7a3"/>
    <path id="Path_60807" data-name="Path 60807" d="M437.254,305.557s6.4,4.833,11.39,4.028a16.324,16.324,0,0,0,8.217-4.028S446.647,299.6,437.254,305.557Z" transform="translate(-306.03 -144.384)" fill="#fcdfcd"/>
    <path id="Path_60808" data-name="Path 60808" d="M448.768,231.971c-.02.55-.86,4.189,2.015,4.35a6.9,6.9,0,0,0,4.97-2.175s-.967-7.008-1.128-9.425-.483-13.817-.483-15.286-2-3.832-2-3.832-1.545,13.343-1.867,17.358S448.865,229.358,448.768,231.971Z" transform="translate(-310.078 -109.772)" fill="#fcdfcd"/>
    <path id="Path_60809" data-name="Path 60809" d="M474.647,239.988c-1.364-.482,2.285,3.712,1.3,6.934a5.392,5.392,0,0,1-4.079,3.706l3.343,1.824s3.137-.857,3.3-3.918S479.641,241.754,474.647,239.988Z" transform="translate(-318.339 -121.988)" fill="#ddaa87"/>
    <g id="Group_44385" data-name="Group 44385" transform="translate(90.897 179.359)">
      <g id="Group_44384" data-name="Group 44384">
        <path id="Path_60810" data-name="Path 60810" d="M374.678,335.269l2.622,1.644c1.66,1.059,4.046,2.551,6.878,4.387s6.149,3.961,9.654,6.314l2.66,1.81,1.339.943c.444.287.912.554,1.4.808,1.948,1.016,4.008,1.919,6.08,2.774a109.263,109.263,0,0,0,12.424,4.384,50.328,50.328,0,0,0,5.9,1.315,11.94,11.94,0,0,0,5.323-.155,18.916,18.916,0,0,0,7.152-3.664,14.846,14.846,0,0,0,2.206-2.154s-.162.23-.508.63a16.593,16.593,0,0,1-1.617,1.621,18.585,18.585,0,0,1-7.145,3.919c-.417.1-.806.236-1.268.307a8.837,8.837,0,0,1-1.364.133,18.53,18.53,0,0,1-2.843-.17,44.143,44.143,0,0,1-5.984-1.242,109.245,109.245,0,0,1-12.523-4.329c-2.08-.875-4.142-1.793-6.116-2.839-.491-.259-.981-.542-1.456-.855l-1.333-.952-2.64-1.823-9.54-6.475Z" transform="translate(-374.678 -335.269)" fill="#a87756"/>
      </g>
    </g>
    <g id="Group_44387" data-name="Group 44387" transform="translate(122.716 208.359)">
      <g id="Group_44386" data-name="Group 44386">
        <path id="Path_60811" data-name="Path 60811" d="M424.053,380.269s.357.313.946.892a17.539,17.539,0,0,0,2.652,2.114,14.29,14.29,0,0,0,1.991,1.052,18.186,18.186,0,0,0,2.368.824c.421.108.856.2,1.293.3.444.065.891.145,1.345.2.454.036.924.087,1.371.112l1.413.031,1.389-.023,1.388-.086c.918-.085,1.819-.191,2.689-.326s1.708-.281,2.5-.438,1.539-.322,2.225-.49c2.747-.659,4.543-1.26,4.543-1.26s-.429.2-1.2.5-1.882.713-3.248,1.11a42.839,42.839,0,0,1-4.729,1.13c-.878.15-1.792.272-2.724.373l-1.413.11-1.438.044L436,386.383c-.49-.035-.952-.093-1.424-.139-.467-.064-.927-.154-1.383-.229-.451-.107-.9-.208-1.331-.327a14.305,14.305,0,0,1-2.416-.937,14.67,14.67,0,0,1-2-1.177,15.379,15.379,0,0,1-2.54-2.328l-.627-.727Z" transform="translate(-424.053 -380.269)" fill="#a87756"/>
      </g>
    </g>
    <path id="Path_60812" data-name="Path 60812" d="M391.431,235.789c-1.56,1.373,1.289,7.224,3.383,6.258s18.85-7.975,18.85-7.975S394.331,233.237,391.431,235.789Z" transform="translate(-289.578 -119.85)" fill="#fcdfcd"/>
    <path id="Path_60813" data-name="Path 60813" d="M484.928,239.882s10.15,8.261,12.728,8.583,7.572-4.243,7.572-4.243-2.094-4.062-6.444-4.34S484.928,239.882,484.928,239.882Z" transform="translate(-322.981 -121.919)" fill="#fcdfcd"/>
    <path id="Path_60814" data-name="Path 60814" d="M356.178,257.769l3.458,10.936a24.371,24.371,0,0,0,4.672,8.44l4.759,5.6,2.578,4.117-7.166-5.217a18.1,18.1,0,0,1-7.379-13.1Z" transform="translate(-277.203 -128.331)" fill="#a87756"/>
    <path id="Path_60815" data-name="Path 60815" d="M383.767,261.019c-.322.483-2.739,3.867-2.256,5.639s1.611,9.667,3.061,10.956,3.706,6.052,3.706,6.052-7.089-4.42-8.378-11.841-2.578-9.033-4.35-10.8-13.05-7.25-13.372-14.5c0,0,11.278,11.922,16.111,12.895,4.027.81,4.189.961,7.894-3.067Z" transform="translate(-279.337 -124.33)" fill="#ce9874"/>
    <path id="Path_60816" data-name="Path 60816" d="M482.178,243.019c.161.483,5.8,8.861,7.089,9.506s7.25,4.511,8.056,7.089c.739,2.363,2.154,7.569-3.2,16.486a21.926,21.926,0,0,0-2.484,5.864l-.117.457s8.217-16.524,8.539-17.491,1.289,1.45,1.289,1.45l-4.672,13.694s5.961-13.856,7.089-15.306,5.8-4.35,5.478-8.056-1.128-4.994-1.128-4.994-2.9,9.356-7.733,6.45-7.026-5.734-12.244-9.834S482.178,243.019,482.178,243.019Z" transform="translate(-322.003 -123.085)" fill="#ce9874"/>
    <path id="Path_60817" data-name="Path 60817" d="M381.607,224.724c-1.531.588,2.9-.647,5.156-1.13s9.022.644,11.2.322,8.458,0,10.553-1.371c0,0-8.056-.562-12.244-1.206s-7.089-1.311-7.089-1.311l1.933-3.2A43.67,43.67,0,0,0,399.3,218.6s-8.347-1.762-8.992-3.056-5.317,0-5.317,0a34.549,34.549,0,0,0,3.635.034.272.272,0,0,1,.283.349l-.535,1.868a22.445,22.445,0,0,1-7.733,2.053c-3.625.077,7.089.18,7.089.18l.644,1.634S383.137,224.137,381.607,224.724Z" transform="translate(-285.635 -113.101)" fill="#ce9874"/>
    <path id="Path_60818" data-name="Path 60818" d="M412.945,211.48c-1.164,0-1.171,1.124,0,1.124S414.117,211.48,412.945,211.48Z" transform="translate(-297.076 -111.859)" fill="#fff"/>
    <path id="Path_60819" data-name="Path 60819" d="M491.589,213.272c-1.219,0-1.226,1.177,0,1.177S492.815,213.272,491.589,213.272Z" transform="translate(-325.023 -112.496)" fill="#fff"/>
    <path id="Path_60820" data-name="Path 60820" d="M464.857,167.322c.088-1.13,3.52-4.7,3.52-4.7a62.274,62.274,0,0,1,2.094-11.9c1.772-6.283,4.672-17.561,3.867-27.067s-4.672-34.317-22.717-46.722c0,0-20.622-25.133-55.583-19.172S339.005,86.12,335.944,96.109s-6.122,35.122-4.511,43.661,4.994,12.24,4.994,12.24l4.98,12.246s1.727-16.918,1.143-19.9,1.145-16.852,1.435-18.523,5.493-12.807,10.488-17.157,18.78-11.551,25.662-14.153,44.989.667,44.989.667l-7.407,4.464,7.407-1.933-3.146,3.383L430.9,97.72l-1.189,3.222,4.994-2.256,1.289,1.611,5.393-3.182.576,3.182s5.391-.641,7.242.549,6.3,6.54,6.3,6.54,7.556,13.211,8.039,15.467,1.675,19.494,1.4,43.339Z" transform="translate(-268.247 -56.85)" fill="#484034"/>
    <path id="Path_60821" data-name="Path 60821" d="M343.428,122.541s12.728-10.15,19.333-12.728,28.42-11.922,28.42-11.922l38.365,5.364,3.164-23.721-23.6,3.149a57.793,57.793,0,0,0-30.545,5.631C365.047,94.929,347.638,106.337,343.428,122.541Z" transform="translate(-272.67 -64.915)" fill="#262425"/>
    <path id="Path_60822" data-name="Path 60822" d="M377.7,130.949c.871-.964,11.6-13.211,16.675-15.306l5.075-2.094L396,117.416l7.758-3.867-4.664,4.511s11.637-4.511,21.3-5.156a189.772,189.772,0,0,1,20.473,0l-37.109-5.192s-16.194.874-20.644,8.108-9.767,14.35-9.767,14.35l7.894-7.6-7.894,14.5S371.966,137.293,377.7,130.949Z" transform="translate(-283.256 -74.935)" fill="#282222"/>
    <path id="Path_60823" data-name="Path 60823" d="M492.5,83.023c1.484,1.589,5.618,11.152-3.557,11.779a77.86,77.86,0,0,1-19.216-1.629L480.7,88.968,467.053,87.7l7.093-5.478-12.92-1.289,5.618-4.833-11.61-2.256,5.992-4.028L451.3,68.523l5.617-3.867h-6.928S466.469,55.151,492.5,83.023Z" transform="translate(-310.559 -59.07)" fill="#7a7267"/>
    <path id="Path_60824" data-name="Path 60824" d="M533.047,211.525c-.116-1.339-10.619,28.981-10.619,28.981s6.082,9.526,3.245,18.861S535.535,240.176,533.047,211.525Z" transform="translate(-336.314 -111.867)" fill="#e2bda3"/>
  </g>
</svg>
