<svg xmlns="http://www.w3.org/2000/svg" width="734.65" height="260.996" viewBox="0 0 734.65 260.996">
  <path id="mark-d" d="M0,4ZM5.25,4H7V5.75H5.25Zm14,0H21V5.75H19.25V7.5H17.5V9.25h8.75V11H0V9.25H8.75V7.5H10.5V9.25h5.25V7.5H17.5V5.75h1.75ZM7,5.75H8.75V7.5H7Zm-3.5,7h8.75v17.5H10.5V32H8.75V30.25H10.5V25H5.25v7H3.5Zm17.5,0h1.75v17.5H21V32H19.25V30.25H21ZM5.25,14.5V18H10.5V14.5Zm10.5,0H17.5V25H15.75ZM5.25,19.75v3.5H10.5v-3.5ZM7,28.5H8.75v1.75H7Zm10.5,0h1.75v1.75H17.5ZM30.8,4ZM48.3,4h1.75V7.5H48.3V9.25H46.55V11H44.8v1.75H43.05V14.5H41.3V30.25H39.55V32H37.8V30.25h1.75V21.5h-3.5v5.25H34.3v3.5H32.55V32H30.8V30.25h1.75v-3.5H34.3v-21h7v7h1.75V11H44.8V9.25h1.75V7.5H48.3ZM36.05,7.5v5.25h3.5V7.5Zm14,0H51.8V9.25H50.05ZM51.8,9.25h1.75V11H51.8ZM53.55,11H55.3v1.75H53.55V14.5H44.8V12.75h8.75Zm1.75,1.75h1.75V14.5H55.3ZM36.05,14.5v5.25h3.5V14.5Zm7,3.5H48.3v7H46.55v3.5H44.8v1.75H43.05V32H41.3V30.25h1.75V28.5H44.8V25H43.05Zm7,0H55.3v7H53.55v3.5H51.8v1.75H50.05V32H48.3V30.25h1.75V28.5H51.8V25H50.05ZM44.8,19.75v3.5h1.75v-3.5Zm7,0v3.5h1.75v-3.5ZM36.05,28.5H37.8v1.75H36.05Zm10.5,0H48.3v1.75H46.55Zm7,0H55.3v1.75H53.55Zm1.75,1.75h1.75V32H55.3ZM61.6,4ZM73.85,4H75.6V5.75h7v3.5h5.25V11H82.6v3.5h-7v1.75h8.75V18H75.6v1.75H87.85V21.5H61.6V19.75H73.85V18H65.1V16.25h8.75V14.5H65.1V12.75h8.75V11H61.6V9.25H73.85V7.5H65.1V5.75h8.75ZM75.6,7.5V9.25h5.25V7.5Zm0,3.5v1.75h5.25V11ZM66.85,23.25H82.6V32H66.85ZM68.6,25v1.75H80.85V25Zm0,3.5v1.75H80.85V28.5ZM92.4,4Zm5.25,0H99.4v7h3.5V9.25h5.25V4h1.75V9.25h7V11h-7v5.25h5.25v3.5H113.4v3.5h-1.75V25H109.9v1.75h-1.75V28.5H106.4v1.75h-1.75V32h-3.5V30.25h3.5V28.5h1.75V26.75h1.75V25h1.75V23.25h1.75v-3.5h1.75V18h-8.75v1.75H102.9v-3.5h5.25V11H102.9v1.75H99.4V18h1.75v1.75H99.4v10.5H97.65V32H95.9V30.25h1.75V21.5H95.9v1.75H92.4V21.5h3.5V19.75h1.75v-7H92.4V11h5.25Zm7,15.75h1.75v3.5h-1.75Zm1.75,3.5h1.75V25H106.4Zm3.5,3.5h3.5V28.5h-3.5ZM94.15,28.5H95.9v1.75H94.15Zm19.25,0h5.25v1.75H116.9V32h-1.75V30.25H113.4ZM123.2,4Zm7,0h1.75V7.5H130.2V9.25h-1.75V11H126.7v1.75h-1.75V11h1.75V9.25h1.75V7.5h1.75Zm5.25,0h1.75V5.75h1.75V7.5H137.2V11h3.5v1.75h-3.5V18h1.75v1.75H137.2V32h-1.75V18H133.7v3.5h-1.75v1.75H130.2V32h-1.75V18H126.7v1.75h-1.75V21.5H123.2V19.75h1.75V18h1.75V16.25h1.75V14.5h1.75V11h5.25Zm3.5,3.5h1.75V9.25h-1.75Zm3.5,0h5.25V9.25h-5.25Zm-10.5,5.25V14.5H130.2v7h1.75V18h1.75V14.5h1.75V12.75Zm8.75,0h8.75V14.5h-3.5V30.25H144.2V32h-1.75V30.25h1.75V14.5h-3.5Zm-1.75,7h1.75v3.5h-1.75Zm1.75,8.75h1.75v1.75H140.7ZM154,4Zm7,1.75h15.75V7.5h-14V9.25H175V11H162.75v1.75H175V14.5H162.75V18h17.5v1.75h-3.5V21.5H175v1.75h-1.75V25H175v1.75h-3.5V25h-1.75V23.25h3.5V21.5H175V19.75h-7V21.5h-1.75V19.75h-3.5v10.5h1.75V28.5h1.75V26.75H168V28.5h-1.75v1.75H164.5V32H161V19.75h-7V18h7Zm7,15.75h1.75v1.75H168Zm7,5.25h5.25V28.5H178.5v1.75h-1.75V28.5H175ZM184.772,11.9h12.012v4.032H188.8v4.116h12.068V24.02H188.748v4.032h12.124v4h-16.1Zm8.064,4.032h3.948v4.116h-3.948Zm3.948,8.092h4.088v4.032h-4.088Zm11.032-12.264h12.152v4.032H211.9V19.82h3.976v4.032h4.088v8.092H215.88V23.852h-4.032v8.092h-4.032Zm8.12,4.032h4.032V19.82h-4.032Zm10.752-3.948h12.1V15.9h-8.092v4.032h4.088v4.06h-4.088v4.06h8.092v3.976h-12.1Zm18.928-.084h12.04v4.088H253.68v16.1H249.7V15.788h-4.088Zm29.792,0h12.04v4.088h-3.976v16.1H279.5V15.788h-4.088Zm18.928.028h12.1V31.972h-4.088v-16.1h-4.032v16.1h-3.976Zm3.976,8.12h4.032V23.88h-4.032Zm14.952-8.036h3.976v8.12h4.088v-8.12h4.032V23.992h-4.032V32H317.24V23.992h-3.976Zm18.928-.112h4.032V27.94h8.064v4h-12.1Zm18.928.028h4.06V31.916h-4.06Zm4.032,0h8.064V31.916h-8.064V27.968h4.088V15.816h-4.088Zm14.952-.028h12.152v4.032h-8.064V19.82h3.976v4.032h4.088v8.092h-4.088V23.852h-4.032v8.092H370.1Zm8.12,4.032h4.032V19.82h-4.032ZM388.976,4Zm7,0h1.75V5.75h-1.75Zm10.5,0h1.75V7.5h-1.75V9.25h5.25v10.5h-19.25V9.25h5.25V5.75h1.75v3.5h5.25V7.5h1.75Zm-12.25,7v7h7V11Zm8.75,0v7h7V11Zm-7,1.75h1.75V14.5h-1.75Zm10.5,0h1.75V14.5h-1.75v1.75h-1.75V14.5h1.75Zm-8.75,1.75h1.75v1.75h-1.75Zm-3.5,7h15.75V32h-1.75V30.25h-12.25V32h-1.75Zm1.75,1.75V25h12.25V23.25Zm0,3.5V28.5h12.25V26.75ZM419.776,4Zm1.75,1.75h15.75V7.5h-3.5v8.75h3.5V18h-3.5V32h-1.75V18h-5.25v7h-1.75v3.5h-1.75v1.75h-1.75V32h-1.75V30.25h1.75V28.5h1.75V25h1.75V18h-5.25V16.25h5.25V7.5h-3.5Zm19.25,0h1.75v3.5h-1.75V11h-1.75v1.75h-1.75V14.5h-1.75V12.75h1.75V11h1.75V9.25h1.75Zm-14,1.75v8.75h5.25V7.5Zm15.75,5.25h1.75v3.5h-1.75V18h-1.75v1.75h-1.75V21.5h-1.75v1.75h-1.75V21.5h1.75V19.75h1.75V18h1.75V16.25h1.75Zm1.75,7h1.75v3.5h-1.75V25h-1.75v1.75h-1.75V28.5h-1.75v1.75h-1.75V32h-1.75V30.25h1.75V28.5h1.75V26.75h1.75V25h1.75V23.25h1.75ZM450.576,4Zm10.5,0h1.75V5.75h-1.75Zm1.75,1.75h1.75V7.5h12.25V11h-1.75v1.75h-1.75V11h1.75V9.25h-21V11h-1.75v1.75h-1.75V11h1.75V7.5h10.5Zm-3.5,5.25h1.75v1.75h-1.75V14.5h-1.75v1.75h-1.75V14.5h1.75V12.75h1.75Zm7,0h1.75v1.75h-1.75Zm-3.5,1.75h1.75V14.5h-1.75v1.75h-1.75V18h-1.75v1.75h-1.75V21.5h-1.75v1.75h-1.75V25h-3.5V23.25h3.5V21.5h1.75V19.75h1.75V18h1.75V16.25h1.75V14.5h1.75Zm5.25,0h3.5v3.5h-1.75V14.5h-1.75Zm-3.5,1.75h1.75v1.75h-1.75Zm1.75,1.75h1.75V18h-1.75Zm1.75,1.75h1.75v1.75h-1.75Zm1.75,1.75h1.75V21.5h-1.75V32h-1.75V30.25h-8.75V32h-1.75V21.5h12.25Zm1.75,1.75h5.25v1.75h-1.75V25h-1.75V23.25h-1.75Zm-12.25,1.75V28.5h8.75V23.25ZM481.376,4Zm5.25,1.75h19.25V7.5h-8.75V9.25h7V11h-7v1.75h7V14.5h-7V18h8.75V28.5h-1.75v1.75h-1.75V32h-1.75V30.25h1.75V28.5h1.75V19.75h-17.5Zm1.75,1.75V9.25h7V7.5Zm0,3.5v1.75h7V11Zm0,3.5V18h7V14.5Zm-3.5,7h1.75v5.25h-1.75V28.5h-1.75V26.75h1.75Zm3.5,0h1.75v1.75h-1.75Zm5.25,0h1.75v1.75h-1.75Zm5.25,0h1.75v1.75h-1.75Zm-8.75,1.75h1.75v3.5h-1.75Zm5.25,0h1.75v3.5h-1.75Zm5.25,0h1.75v3.5h-1.75Zm-1.75,5.25h1.75v1.75h-1.75ZM512.176,4Zm12.25,0h1.75V7.5h12.25V9.25h-12.25v3.5h7V21.5h-3.5v8.75h-1.75V21.5h-5.25v5.25h-1.75V28.5h-1.75v1.75h-3.5V32h-3.5V30.25h3.5V28.5h3.5V26.75h1.75V21.5h-3.5V12.75h7V9.25h-12.25V7.5h12.25Zm-5.25,10.5v5.25h12.25V14.5Zm17.5,12.25h1.75V32h-8.75V30.25h7Zm20.3-6.566a1.646,1.646,0,0,0-1.232.5,1.624,1.624,0,0,0-.476,1.232,1.666,1.666,0,0,0,.476,1.232,1.736,1.736,0,0,0,1.232.476,1.785,1.785,0,0,0,1.232-.476,1.691,1.691,0,0,0,.5-1.232,1.647,1.647,0,0,0-.5-1.232A1.691,1.691,0,0,0,556.976,20.184ZM573.776,4Zm3.5,0h1.75V5.75h-1.75Zm1.75,1.75h1.75v3.5h3.5v3.5h-1.75V14.5h-1.75v1.75h1.75V18h-1.75V32h-1.75V18h-1.75v1.75h-1.75V21.5h-1.75V19.75h1.75V18h1.75V16.25h1.75V14.5h1.75V12.75h1.75V11h-8.75V9.25h5.25Zm7,1.75h10.5v21h3.5v1.75h-17.5V28.5h3.5Zm1.75,1.75V14.5h7V9.25Zm0,7V21.5h7V16.25ZM582.526,18h1.75v3.5h-1.75Zm5.25,5.25V28.5h7V23.25ZM604.576,4Zm12.25,0h1.75V7.5h12.25V9.25h-12.25v3.5h7V21.5h-3.5v8.75h-1.75V21.5h-5.25v5.25h-1.75V28.5h-1.75v1.75h-3.5V32h-3.5V30.25h3.5V28.5h3.5V26.75h1.75V21.5h-3.5V12.75h7V9.25h-12.25V7.5h12.25Zm-5.25,10.5v5.25h12.25V14.5Zm17.5,12.25h1.75V32h-8.75V30.25h7ZM635.376,4Zm7,0h1.75V9.25h-1.75V32h-1.75V14.5h-1.75v1.75h-1.75V18h-1.75V16.25h1.75V14.5h1.75V12.75h1.75V9.25h1.75Zm10.5,0h1.75V7.5h-1.75V9.25h7V32h-1.75V28.5h-8.75V32h-1.75V9.25h3.5V7.5h1.75Zm-3.5,7v7h8.75V11Zm0,8.75v7h8.75v-7Zm30.8-4.8a1.573,1.573,0,0,0-1.232.532,1.524,1.524,0,0,0-.476,1.2,1.6,1.6,0,0,0,.476,1.2,1.646,1.646,0,0,0,1.232.5,1.691,1.691,0,0,0,1.232-.5,1.628,1.628,0,0,0,.5-1.2,1.544,1.544,0,0,0-.5-1.2A1.613,1.613,0,0,0,680.176,14.948Zm0,10.248a1.573,1.573,0,0,0-1.232.532,1.524,1.524,0,0,0-.476,1.2,1.6,1.6,0,0,0,.476,1.2,1.646,1.646,0,0,0,1.232.5,1.691,1.691,0,0,0,1.232-.5,1.628,1.628,0,0,0,.5-1.2,1.544,1.544,0,0,0-.5-1.2A1.613,1.613,0,0,0,680.176,25.2ZM18.2,54.844V72.008h2.044V56.72H27.16V54.844ZM30.8,50Zm1.75,1.75h10.5V60.5H41.3V58.75H37.8V60.5H36.05v1.75H34.3V60.5H32.55V58.75H37.8V57h3.5V53.5H36.05v1.75H34.3V53.5H32.55Zm12.25,0H55.3v10.5H53.55v-3.5h-3.5V60.5h-3.5V58.75h3.5V57h3.5V53.5H48.3v1.75H46.55V53.5H44.8Zm-8.75,3.5H37.8V57H36.05Zm12.25,0h1.75V57H48.3ZM43.05,60.5H44.8v1.75H43.05V64h10.5V78H51.8V76.25h-14V78H36.05V64H41.3V62.25h1.75ZM37.8,65.75v3.5h14v-3.5Zm0,5.25v3.5h14V71ZM61.6,50Zm5.25,0H68.6v7h1.75v1.75H68.6V78H66.85Zm7,1.75H86.1v3.5h1.75V57H86.1v3.5H73.85V57H72.1V55.25h1.75ZM75.6,53.5v1.75h3.5V53.5Zm5.25,0v1.75h3.5V53.5ZM63.35,57H65.1v5.25H63.35V64H61.6V62.25h1.75ZM75.6,57v1.75h3.5V57Zm5.25,0v1.75h3.5V57Zm-10.5,1.75H72.1V60.5H70.35Zm3.5,3.5H86.1V74.5H84.35v1.75H82.6V74.5H77.35v1.75H75.6V78H73.85V76.25H75.6V74.5H73.85ZM75.6,64v1.75h8.75V64Zm0,3.5v1.75h8.75V67.5Zm0,3.5v1.75h8.75V71Zm8.75,5.25H86.1V78H84.35ZM92.4,50Zm5.25,0H99.4v7h3.5v1.75H99.4v3.5h1.75V60.5h1.75v1.75h-1.75V64H99.4V76.25H97.65V78H95.9V76.25h1.75V65.75H95.9V67.5H92.4V65.75h3.5V64h1.75V58.75H92.4V57h5.25Zm7,3.5H116.9V65.75h-1.75V64H106.4V74.5h-1.75Zm1.75,1.75v7h3.5v-7Zm5.25,0v7h3.5v-7ZM116.9,71h1.75v5.25H106.4V74.5h10.5ZM94.15,74.5H95.9v1.75H94.15ZM123.2,50Zm12.25,0h1.75v8.75h12.25V60.5H137.2v1.75h-1.75V67.5H133.7V71h-1.75v1.75H130.2V74.5h-1.75v1.75H126.7V78h-1.75V76.25h1.75V74.5h1.75V72.75h1.75V71h1.75V67.5h1.75V62.25h1.75V60.5H123.2V58.75h12.25Zm1.75,12.25h1.75v3.5H137.2Zm1.75,3.5h1.75v3.5h-1.75Zm1.75,3.5h1.75V71H140.7ZM142.45,71h1.75v1.75h-1.75Zm1.75,1.75h5.25V74.5H147.7v1.75h-1.75V74.5H144.2ZM154,50Zm12.25,0H168v3.5h12.25v1.75H168V57h8.75v5.25H168V64h8.75v3.5h3.5v1.75h-3.5v3.5H168v3.5h-1.75V78H164.5V76.25h1.75v-3.5H157.5V71h8.75V69.25H154V67.5h12.25V65.75H157.5V64h8.75V62.25H157.5V57h8.75V55.25H154V53.5h12.25Zm-7,8.75V60.5h7V58.75Zm8.75,0V60.5h7V58.75Zm0,7V67.5h7V65.75Zm0,3.5V71h7V69.25Zm-5.25,5.25h1.75v1.75h-1.75ZM184.8,50Zm5.25,0h1.75v8.75h5.25V60.5H191.8v8.75h1.75V67.5h1.75V65.75h1.75V67.5H195.3v1.75h-1.75V71H191.8v1.75h-1.75V62.25H184.8V60.5h5.25Zm7,3.5H209.3v21h-1.75v1.75H205.8V78h-1.75V76.25h1.75V74.5h1.75V55.25H202.3v14h-1.75v3.5H198.8V74.5h-1.75v1.75H195.3V78h-3.5V76.25h3.5V74.5h1.75V72.75h1.75v-3.5h1.75v-14h-3.5Zm5.25,21h1.75v1.75H202.3ZM215.6,50Zm14,0h1.75v3.5H229.6Zm-5.25,1.75h1.75v3.5h-1.75v3.5H222.6V60.5h-1.75v1.75H219.1V64h-1.75v1.75H215.6V64h1.75V62.25h1.75V60.5h1.75V58.75h1.75v-3.5h1.75Zm7,1.75h1.75V57h-1.75ZM233.1,57h1.75v1.75H233.1Zm1.75,1.75h1.75V60.5h-1.75Zm1.75,1.75h1.75v1.75h3.5V64H240.1v1.75h-1.75V64H236.6Zm-15.75,1.75h14V74.5H233.1v1.75h-1.75V78H229.6V76.25h1.75V74.5h1.75V64h-7v7h-1.75v3.5H222.6v1.75h-1.75V78H219.1V76.25h1.75V74.5h1.75V71h1.75V64h-3.5Zm7,12.25h1.75v1.75h-1.75ZM246.4,50Zm14,0h1.75v5.25h5.25v-3.5h1.75v3.5h3.5V57h-10.5v5.25H260.4V57h-8.75v5.25h7V71H256.9v1.75h-1.75V71h1.75V64h-5.25v8.75H249.9V74.5h-1.75v1.75H246.4V74.5h1.75V72.75h1.75V55.25h10.5Zm5.25,0h1.75v1.75h-1.75Zm3.5,10.5h1.75V64h-1.75v3.5H267.4v1.75h-1.75v3.5h-3.5V74.5H260.4v1.75h-1.75V78H256.9V76.25h1.75V74.5h1.75V72.75h1.75V71h1.75V67.5h3.5V64h1.75Zm-7,1.75h1.75V67.5h-1.75Zm-8.75,7h1.75V71H253.4ZM270.9,71h1.75v7h-3.5V76.25h1.75Zm-5.25,1.75h1.75V74.5h-1.75Zm1.75,1.75h1.75v1.75H267.4ZM277.2,50Zm12.25,0h1.75V76.25h-1.75V78H287.7V76.25h1.75Zm-5.25,8.75h1.75v3.5H284.2v3.5h-1.75V67.5H280.7v1.75h-1.75V67.5h1.75V65.75h1.75v-3.5h1.75Zm10.5,0h1.75V60.5H294.7Zm1.75,1.75h1.75v1.75h-1.75Zm1.75,1.75h1.75v3.5H298.2Zm1.75,3.5h1.75v3.5h-1.75Zm-14,8.75h1.75v1.75h-1.75ZM308,50Zm12.25,0H322v3.5h12.25v1.75H322V57h8.75v5.25H322V64h8.75v3.5h3.5v1.75h-3.5v3.5H322v3.5h-1.75V78H318.5V76.25h1.75v-3.5H311.5V71h8.75V69.25H308V67.5h12.25V65.75H311.5V64h8.75V62.25H311.5V57h8.75V55.25H308V53.5h12.25Zm-7,8.75V60.5h7V58.75Zm8.75,0V60.5h7V58.75Zm0,7V67.5h7V65.75Zm0,3.5V71h7V69.25Zm-5.25,5.25h1.75v1.75h-1.75Zm36.022-8.512a1.694,1.694,0,0,0-1.316.476,1.625,1.625,0,0,0-.5,1.26,1.666,1.666,0,0,0,.476,1.232,1.628,1.628,0,0,0,1.2.5,1.5,1.5,0,0,0,.616-.112,3.3,3.3,0,0,1-.588,1.876,4.049,4.049,0,0,1-1.792,1.232v1.372a5.4,5.4,0,0,0,2.884-1.82,5.247,5.247,0,0,0,1.092-3.276,3.253,3.253,0,0,0-.56-1.96A1.788,1.788,0,0,0,352.772,65.988ZM369.6,50Zm5.25,0h1.75v5.25h5.25v3.5h5.25V50h1.75v8.75h7V60.5h-7v1.75H387.1v3.5h-1.75V67.5H383.6v1.75h-1.75V71H380.1V69.25h1.75V67.5h1.75V65.75h1.75v-3.5h1.75V60.5h-5.25v1.75H380.1v3.5h-1.75V67.5H376.6v1.75h-1.75V71H373.1v1.75h-1.75V71h1.75V69.25h1.75V67.5h1.75V65.75h1.75v-3.5h1.75V57h-5.25v1.75h1.75V60.5h-3.5v1.75h-1.75V64H369.6V62.25h1.75V60.5h1.75V57h1.75Zm15.75,3.5h1.75v1.75H390.6Zm1.75,1.75h1.75V57h-1.75ZM376.6,60.5h1.75v1.75H376.6Zm-3.5,1.75h1.75V64H373.1Zm15.75,0h1.75v3.5h-1.75Zm-14,1.75h1.75v1.75h-1.75Zm15.75,1.75h1.75V67.5H390.6Zm1.75,1.75h3.5v1.75H394.1V71h-1.75ZM373.1,72.75h1.75v3.5H373.1V78h-1.75V76.25h1.75Zm5.25,0h1.75V74.5h-1.75Zm7,0h1.75V74.5h-1.75Zm7,0h1.75V74.5h-1.75ZM380.1,74.5h1.75V78H380.1Zm7,0h1.75V78H387.1Zm7,0h1.75V78H394.1ZM400.4,50Zm7,0h1.75v3.5H407.4v1.75h-1.75V57H403.9v1.75h-1.75V57h1.75V55.25h1.75V53.5h1.75Zm8.75,0h1.75v3.5h-1.75v1.75H414.4V57h5.25V55.25h1.75V53.5h1.75v1.75H421.4V57h-1.75v1.75H417.9V60.5h-1.75v1.75h5.25V60.5h1.75v1.75h1.75v3.5h-1.75v3.5H421.4V71h-1.75v1.75H417.9V74.5h-1.75v1.75h-3.5V78h-3.5V76.25h3.5V74.5h3.5V72.75h1.75V71h1.75V69.25h1.75V67.5h-8.75v1.75H410.9V71h-1.75V69.25h1.75V67.5h1.75V64H410.9V62.25h3.5V60.5h1.75V58.75H410.9V57h1.75V55.25h1.75V53.5h1.75Zm-8.75,7h1.75v3.5H407.4V78h-1.75V64H403.9v1.75h-1.75V67.5H400.4V65.75h1.75V64h1.75V62.25h1.75V60.5h1.75Zm7,7v1.75h8.75V64Zm-1.75,5.25h1.75V71h-1.75ZM414.4,71h1.75v1.75H414.4Zm3.5,3.5h3.5v1.75h-3.5Zm3.5,1.75h5.25V78H421.4ZM431.2,50Zm0,12.25h26.25V64H431.2ZM462,50Zm12.25,0H476v5.25h7V57h-7v3.5h12.25v1.75H476V71h-1.75V62.25H462V60.5h7V51.75h1.75V60.5h3.5ZM469,64h1.75v1.75h1.75V67.5H469v1.75h-1.75V71H465.5V69.25h1.75V67.5H469Zm12.25,0H483v1.75h1.75V67.5H483v1.75h-1.75V71H479.5v1.75h-1.75V74.5h-3.5v1.75H469V78h-5.25V76.25H469V74.5h5.25V72.75h3.5V71h1.75V69.25h1.75ZM492.8,50Zm12.25,0h1.75v5.25h7V57h-7v3.5h12.25v1.75H506.8V71h-1.75V62.25H492.8V60.5h7V51.75h1.75V60.5h3.5ZM499.8,64h1.75v1.75h1.75V67.5h-3.5v1.75h-1.75V71H496.3V69.25h1.75V67.5h1.75Zm12.25,0h1.75v1.75h1.75V67.5H513.8v1.75h-1.75V71H510.3v1.75h-1.75V74.5h-3.5v1.75H499.8V78h-5.25V76.25h5.25V74.5h5.25V72.75h3.5V71h1.75V69.25h1.75ZM523.6,50Zm0,1.75h15.75V53.5h-3.5v1.75H548.1v7h-1.75v3.5H544.6V67.5h-1.75v1.75H541.1v3.5h-1.75V74.5H537.6v1.75h-1.75V78H534.1V71h-5.25v1.75H527.1V74.5h-1.75V72.75H523.6V71h3.5V53.5h-3.5Zm5.25,1.75V57h5.25V53.5Zm7,3.5V67.5h1.75v1.75h-1.75V74.5h1.75V72.75h1.75v-3.5h1.75V67.5h1.75V65.75h1.75v-3.5h1.75V57h-7v5.25H537.6V57Zm-7,1.75v3.5h5.25v-3.5Zm10.5,3.5h1.75V67.5h-1.75ZM528.85,64v5.25h5.25V64Zm14,5.25h1.75V71h-1.75ZM544.6,71h1.75v1.75H544.6Zm1.75,1.75h3.5V74.5H548.1v1.75h-1.75ZM554.4,50Zm7,0h1.75v3.5H561.4v1.75h-1.75V57H557.9v1.75h-1.75V60.5H554.4V58.75h1.75V57h1.75V55.25h1.75V53.5h1.75Zm3.5,1.75h12.25V60.5H564.9Zm1.75,1.75v1.75h8.75V53.5Zm0,3.5v1.75h8.75V57Zm-5.25,1.75h1.75v3.5H561.4V67.5h12.25V64h-10.5V62.25H578.9V64h-3.5v3.5h5.25v1.75H575.4v7h-1.75V78H571.9V76.25h1.75v-7h-7V71H564.9V69.25h-3.5V78h-1.75V65.75H557.9V67.5h-1.75v1.75H554.4V67.5h1.75V65.75h1.75V64h1.75V62.25h1.75ZM566.65,71h1.75v3.5h-1.75Zm3.5,3.5h1.75v1.75h-1.75ZM585.2,50Zm14,0h1.75v5.25h5.25v-3.5h1.75v3.5h3.5V57h-10.5v5.25H599.2V57h-8.75v5.25h7V71H595.7v1.75h-1.75V71h1.75V64h-5.25v8.75H588.7V74.5h-1.75v1.75H585.2V74.5h1.75V72.75h1.75V55.25h10.5Zm5.25,0h1.75v1.75h-1.75Zm3.5,10.5h1.75V64h-1.75v3.5H606.2v1.75h-1.75v3.5h-3.5V74.5H599.2v1.75h-1.75V78H595.7V76.25h1.75V74.5h1.75V72.75h1.75V71h1.75V67.5h3.5V64h1.75Zm-7,1.75h1.75V67.5h-1.75Zm-8.75,7h1.75V71H592.2ZM609.7,71h1.75v7h-3.5V76.25h1.75Zm-5.25,1.75h1.75V74.5h-1.75Zm1.75,1.75h1.75v1.75H606.2ZM616,50Zm15.75,0h1.75v7h7V74.5h-1.75v1.75H637V78h-1.75V76.25H637V74.5h1.75V58.75H633.5V67.5h-1.75V71H630v1.75h-1.75V74.5H626.5v1.75h-1.75V78H623V76.25h1.75V74.5h1.75V72.75h1.75V71H630V67.5h1.75V58.75h-3.5V57h3.5ZM616,55.25h10.5V57H623V67.5h5.25v1.75H623V71h-3.5v1.75h-1.75V71H616V69.25h5.25V57H616Zm15.75,17.5h1.75V74.5h-1.75Zm1.75,1.75h1.75v1.75H633.5Zm27.3-10.108a3.594,3.594,0,0,0-2.576,1.008,3.262,3.262,0,0,0-1.064,2.52,3.2,3.2,0,0,0,1.064,2.492,3.618,3.618,0,0,0,2.576,1.036,3.666,3.666,0,0,0,2.576-1.036,3.483,3.483,0,0,0,0-5.012A3.641,3.641,0,0,0,660.8,64.392Zm0,1.484a2.12,2.12,0,0,1,1.484.588,1.954,1.954,0,0,1,.644,1.456,2,2,0,0,1-.644,1.456,2.12,2.12,0,0,1-1.484.588,2.027,2.027,0,0,1-1.484-.588,1.858,1.858,0,0,1-.644-1.456,1.819,1.819,0,0,1,.644-1.456A2.027,2.027,0,0,1,660.8,65.876Zm24.556-2.044V79.12H678.44V81h8.96V63.832ZM708.4,50Zm5.25,0h1.75v5.25h-1.75V78H711.9V60.5h-1.75v1.75H708.4V60.5h1.75V58.75h1.75v-3.5h1.75Zm7,0h1.75v5.25h10.5v3.5h-1.75V60.5H729.4V58.75h1.75V57h-10.5v1.75H718.9V60.5h-1.75v1.75H715.4V60.5h1.75V58.75h1.75v-3.5h1.75Zm3.5,10.5h1.75V76.25h-1.75V78H722.4V76.25h1.75Zm-3.5,3.5h1.75v3.5h-1.75v1.75H718.9V71h-1.75V69.25h1.75V67.5h1.75Zm7,0h1.75v1.75h-1.75Zm1.75,1.75h1.75V67.5H729.4Zm1.75,1.75h1.75V71h-1.75Zm-10.5,7h1.75v1.75h-1.75ZM0,96Zm1.75,1.75H10.5v10.5H7v3.5h3.5v1.75H7v5.25h3.5v1.75H5.25v1.75H3.5V124H1.75v-1.75H0V120.5H1.75V110H3.5v10.5H5.25V108.25H1.75Zm10.5,0h10.5V110H17.5v3.5H15.75V110H14v10.5h1.75v-1.75H17.5v1.75H15.75v1.75H14V124H12.25ZM3.5,99.5v7H8.75v-7Zm10.5,0V103h7V99.5Zm0,5.25v3.5h7v-3.5ZM22.75,110H24.5v1.75H22.75v1.75H21v1.75H19.25V117H17.5v-3.5H21v-1.75h1.75Zm-3.5,7H21v1.75H19.25ZM21,118.75h5.25v1.75H24.5v1.75H22.75V120.5H21ZM30.8,96Zm17.5,0h1.75v3.5H48.3v1.75H46.55V103H44.8v1.75H43.05v1.75H41.3v15.75H39.55V124H37.8v-1.75h1.75V113.5h-3.5v5.25H34.3v3.5H32.55V124H30.8v-1.75h1.75v-3.5H34.3v-21h7v7h1.75V103H44.8v-1.75h1.75V99.5H48.3ZM36.05,99.5v5.25h3.5V99.5Zm14,0H51.8v1.75H50.05Zm1.75,1.75h1.75V103H51.8ZM53.55,103H55.3v1.75H53.55v1.75H44.8v-1.75h8.75Zm1.75,1.75h1.75v1.75H55.3ZM36.05,106.5v5.25h3.5V106.5Zm7,3.5H48.3v7H46.55v3.5H44.8v1.75H43.05V124H41.3v-1.75h1.75V120.5H44.8V117H43.05Zm7,0H55.3v7H53.55v3.5H51.8v1.75H50.05V124H48.3v-1.75h1.75V120.5H51.8V117H50.05Zm-5.25,1.75v3.5h1.75v-3.5Zm7,0v3.5h1.75v-3.5ZM36.05,120.5H37.8v1.75H36.05Zm10.5,0H48.3v1.75H46.55Zm7,0H55.3v1.75H53.55Zm1.75,1.75h1.75V124H55.3ZM61.6,96Zm12.25,0H75.6v1.75h7v3.5h5.25V103H82.6v3.5h-7v1.75h8.75V110H75.6v1.75H87.85v1.75H61.6v-1.75H73.85V110H65.1v-1.75h8.75V106.5H65.1v-1.75h8.75V103H61.6v-1.75H73.85V99.5H65.1V97.75h8.75Zm1.75,3.5v1.75h5.25V99.5Zm0,3.5v1.75h5.25V103Zm-8.75,12.25H82.6V124H66.85ZM68.6,117v1.75H80.85V117Zm0,3.5v1.75H80.85V120.5ZM92.4,96Zm7,0h1.75v3.5H99.4V103H97.65v1.75H95.9v1.75H94.15v1.75H92.4V106.5h1.75v-1.75H95.9V103h1.75V99.5H99.4Zm15.75,0h1.75v26.25h-1.75V124H113.4v-1.75h1.75Zm-14,3.5h1.75v1.75h-1.75Zm1.75,1.75h1.75V103H102.9Zm7,0h1.75V117H109.9ZM99.4,103h1.75v1.75H99.4Zm5.25,0h3.5v3.5H106.4v8.75H97.65V117h8.75v7h-1.75v-1.75H99.4V124H97.65v-5.25H95.9v3.5H94.15V124H92.4v-1.75h1.75v-3.5H95.9V106.5h5.25v-1.75h1.75v1.75h3.5v-1.75h-1.75Zm-7,5.25V110h7v-1.75Zm0,3.5v1.75h7v-1.75Zm1.75,7v1.75h5.25v-1.75Zm12.25,1.75h1.75v1.75h-1.75ZM123.2,96Zm5.25,0h1.75v1.75h-1.75Zm7,0h1.75v7h3.5v5.25h3.5V106.5h1.75V103h1.75v3.5h-1.75v1.75h3.5V110h-3.5v3.5h3.5v1.75h-3.5V124H144.2v-8.75h-3.5v7h-1.75V124H137.2v-1.75h1.75v-17.5H137.2V117h-1.75v3.5H133.7v1.75h-1.75V124H130.2v-1.75h1.75V120.5h1.75V117h1.75v-7H130.2v3.5h3.5v1.75h-3.5v3.5h-1.75v1.75H126.7v1.75h-1.75V124H123.2v-1.75h1.75V120.5h1.75v-1.75h1.75v-3.5h-3.5V113.5h3.5V110H123.2v-1.75h5.25V106.5h1.75V103h1.75v3.5H130.2v1.75h5.25v-3.5H133.7V103h1.75Zm7,0h1.75v1.75h-1.75ZM130.2,97.75h1.75V99.5h1.75v1.75h-8.75V99.5h5.25Zm14,0h1.75V99.5h3.5v1.75H140.7V99.5h3.5ZM126.7,103h1.75v3.5H126.7Zm15.75,0h1.75v3.5h-1.75Zm-1.75,7v3.5h3.5V110Zm-5.25,10.5h1.75v1.75h-1.75ZM154,96Zm12.25,0H168v12.25h-1.75v5.25H164.5V117h-1.75v1.75H161v1.75h-1.75v1.75H157.5V124h-1.75v-1.75h1.75V120.5h1.75v-1.75H161V117h1.75v-3.5h1.75v-5.25h1.75ZM168,108.25h1.75v5.25H168Zm1.75,5.25h1.75V117h-1.75Zm1.75,3.5h1.75v1.75H171.5Zm1.75,1.75H175v1.75h-1.75ZM175,120.5h5.25v1.75H178.5V124h-1.75v-1.75H175ZM184.8,96Zm5.25,1.75H209.3V99.5h-8.75v1.75h7V103h-7v1.75h7v1.75h-7V110h8.75v10.5h-1.75v1.75H205.8V124h-1.75v-1.75h1.75V120.5h1.75v-8.75h-17.5Zm1.75,1.75v1.75h7V99.5Zm0,3.5v1.75h7V103Zm0,3.5V110h7v-3.5Zm-3.5,7h1.75v5.25H188.3v1.75h-1.75v-1.75h1.75Zm3.5,0h1.75v1.75H191.8Zm5.25,0h1.75v1.75h-1.75Zm5.25,0h1.75v1.75H202.3Zm-8.75,1.75h1.75v3.5h-1.75Zm5.25,0h1.75v3.5H198.8Zm5.25,0h1.75v3.5h-1.75Zm-1.75,5.25h1.75v1.75H202.3ZM215.6,96Zm12.25,0h1.75v3.5h12.25v1.75H229.6v3.5h7v8.75h-3.5v8.75h-1.75V113.5H226.1v5.25h-1.75v1.75H222.6v1.75h-3.5V124h-3.5v-1.75h3.5V120.5h3.5v-1.75h1.75V113.5h-3.5v-8.75h7v-3.5H215.6V99.5h12.25Zm-5.25,10.5v5.25h12.25V106.5Zm17.5,12.25h1.75V124H233.1v-1.75h7Zm20.3-6.566a1.647,1.647,0,0,0-1.232.5,1.624,1.624,0,0,0-.476,1.232,1.666,1.666,0,0,0,.476,1.232,1.736,1.736,0,0,0,1.232.476,1.785,1.785,0,0,0,1.232-.476,1.691,1.691,0,0,0,.5-1.232,1.647,1.647,0,0,0-.5-1.232A1.691,1.691,0,0,0,260.4,112.184ZM277.2,96Zm3.5,0h1.75v1.75H280.7Zm1.75,1.75h1.75v3.5h3.5v3.5h-1.75v1.75H284.2v1.75h1.75V110H284.2v14h-1.75V110H280.7v1.75h-1.75v1.75H277.2v-1.75h1.75V110h1.75v-1.75h1.75V106.5h1.75v-1.75h1.75V103H277.2v-1.75h5.25Zm7,1.75h10.5v21h3.5v1.75h-17.5V120.5h3.5Zm1.75,1.75v5.25h7v-5.25Zm0,7v5.25h7v-5.25ZM285.95,110h1.75v3.5h-1.75Zm5.25,5.25v5.25h7v-5.25ZM308,96Zm12.25,0H322v3.5h12.25v1.75H322v3.5h7v8.75h-3.5v8.75h-1.75V113.5H318.5v5.25h-1.75v1.75H315v1.75h-3.5V124H308v-1.75h3.5V120.5H315v-1.75h1.75V113.5h-3.5v-8.75h7v-3.5H308V99.5h12.25ZM315,106.5v5.25h12.25V106.5Zm17.5,12.25h1.75V124H325.5v-1.75h7ZM338.8,96Zm7,0h1.75v5.25H345.8V124h-1.75V106.5H342.3v1.75h-1.75V110H338.8v-1.75h1.75V106.5h1.75v-1.75h1.75v-3.5h1.75Zm10.5,0h1.75v3.5H356.3v1.75h7V124h-1.75v-3.5H352.8V124h-1.75V101.25h3.5V99.5h1.75Zm-3.5,7v7h8.75v-7Zm0,8.75v7h8.75v-7ZM369.6,96Zm0,12.25h26.25V110H369.6ZM400.4,96Zm5.25,0h1.75v7h3.5v1.75h-3.5v1.75h1.75v1.75H407.4V124h-1.75V110H403.9v3.5h-1.75v1.75H400.4V113.5h1.75V110h1.75v-3.5h1.75v-1.75H400.4V103h5.25Zm7,0h1.75v1.75h-1.75Zm8.75,0h1.75v1.75H421.4V99.5h3.5v1.75h-7V103h5.25v1.75H417.9v1.75h7v1.75h-8.75V110H414.4v-1.75h-3.5V110h-1.75v-1.75h1.75V106.5h5.25v-1.75h-3.5V103h3.5v-1.75H410.9V99.5h3.5V97.75h1.75V99.5h3.5V97.75h1.75Zm-5.25,14h1.75v5.25h1.75V113.5h1.75v-1.75h1.75v1.75H421.4v1.75h-1.75V117H417.9v5.25h-1.75V124H414.4v-1.75h1.75V113.5h-3.5v-1.75h3.5Zm-7,5.25h5.25v3.5h-1.75v1.75H410.9v1.75h-1.75V120.5h1.75v-1.75h1.75V117h-3.5Zm10.5,1.75h1.75v1.75h-1.75Zm1.75,1.75h5.25v1.75H424.9v1.75h-1.75V120.5H421.4Zm-8.75,1.75h1.75v1.75h-1.75Zm32.522-8.512a1.694,1.694,0,0,0-1.316.476,1.625,1.625,0,0,0-.5,1.26,1.666,1.666,0,0,0,.476,1.232,1.628,1.628,0,0,0,1.2.5,1.5,1.5,0,0,0,.616-.112,3.3,3.3,0,0,1-.588,1.876,4.049,4.049,0,0,1-1.792,1.232v1.372a5.4,5.4,0,0,0,2.884-1.82,5.247,5.247,0,0,0,1.092-3.276,3.253,3.253,0,0,0-.56-1.96A1.788,1.788,0,0,0,445.172,111.988ZM462,96Zm12.25,0H476v5.25h12.25V103h-14v1.75H472.5v3.5h-1.75V120.5h7v-8.75H472.5V110h5.25v-5.25h1.75V110h5.25v1.75H479.5v8.75h8.75v1.75h-17.5V124H469V113.5h-1.75v1.75H465.5V117h-1.75v1.75H462V117h1.75v-1.75h1.75V113.5h1.75v-1.75H469v-3.5h1.75v-3.5h1.75V103h-8.75v-1.75h10.5Zm18.55,0Zm3.5,1.75h1.75V99.5H496.3Zm7,0h12.25v8.75H510.3v1.75h7v10.5h-3.5V117h1.75v-7H510.3v3.5h1.75v-1.75h1.75V117h-1.75v-1.75h-7V113.5h3.5V110H503.3v8.75h-1.75v1.75H499.8v-1.75h1.75v-10.5h7V106.5H503.3Zm-5.25,1.75h1.75V103h-1.75Zm7,0v1.75h3.5V99.5Zm5.25,0v1.75h3.5V99.5Zm-5.25,3.5v1.75h3.5V103Zm5.25,0v1.75h3.5V103Zm-17.5,3.5h7v12.25h-1.75v1.75H496.3v1.75h-1.75V120.5h1.75v-1.75h1.75v-10.5H492.8Zm8.75,14h17.5v1.75h-17.5ZM523.6,96Zm22.75,0h1.75v26.25h-1.75V124H544.6v-1.75h1.75Zm-21,1.75h14V99.5h-7v1.75H530.6V103h-1.75v1.75H527.1v1.75h8.75v-1.75h1.75v1.75h1.75V110H537.6v-1.75h-5.25v5.25h5.25v1.75h-5.25v3.5h7v1.75h-7v1.75H527.1V124h-1.75v-1.75H523.6V120.5h7v-5.25h-5.25V113.5h5.25v-5.25h-3.5V110h-1.75v-1.75H523.6V106.5h1.75v-1.75h1.75V103h1.75v-1.75h1.75V99.5h-5.25Zm15.75,3.5h1.75V117H541.1Zm-7,1.75h1.75v1.75H534.1Zm8.75,17.5h1.75v1.75h-1.75ZM554.4,96Zm1.75,1.75H578.9V124h-1.75v-1.75H557.9V124h-1.75Zm1.75,1.75v21h8.75V110H564.9v3.5h-1.75v1.75H561.4V117h-1.75v-1.75h1.75V113.5h1.75V110h1.75v-1.75h1.75V106.5h-7v-1.75h7V99.5Zm10.5,0v5.25h7v1.75h-7v1.75h1.75V110H568.4v10.5h8.75v-21Zm1.75,10.5h1.75v1.75h-1.75Zm1.75,1.75h1.75v1.75H571.9Zm1.75,1.75h1.75V117h-1.75ZM585.2,96Zm3.5,0h1.75v3.5h3.5V96h1.75v3.5h1.75v1.75H595.7v3.5h-1.75v1.75h1.75v-1.75h1.75V103h1.75V99.5h1.75V96h1.75v3.5h-1.75v1.75h10.5V103H606.2v3.5h3.5v1.75h-3.5v3.5h3.5v1.75h-3.5v5.25h5.25v1.75h-10.5V124H599.2v-5.25h-3.5v1.75h-1.75v-1.75H592.2v1.75h-1.75v1.75H588.7V124h-1.75v-1.75h1.75V120.5h1.75v-1.75H585.2V117h7v-1.75h-5.25V113.5h5.25v-1.75h-5.25V106.5h5.25v-1.75h-3.5v-3.5h-3.5V99.5h3.5Zm15.75,0h1.75v1.75h-1.75Zm1.75,1.75h1.75V99.5H606.2Zm-15.75,3.5V103h3.5v-1.75Zm10.5,1.75v3.5h3.5V103Zm-3.5,1.75v7h-3.5v1.75h3.5v1.75h-3.5V117h5.25V104.75Zm-8.75,3.5V110h3.5v-1.75Zm5.25,0V110h1.75v-1.75Zm7,0v3.5h3.5v-3.5Zm0,5.25v5.25h3.5V113.5Zm-5.25,7h1.75v1.75H595.7ZM616,96Zm17.5,0h1.75v3.5h5.25v1.75h-5.25v3.5h7v1.75h-3.5V110h3.5v1.75h-3.5v10.5H637V124h-1.75v-1.75H637v-10.5H626.5v7h-1.75V117H619.5v1.75h-1.75V99.5h8.75V110H637v-3.5h-8.75v-1.75h5.25v-3.5H630V99.5h3.5Zm-14,5.25v5.25h5.25v-5.25Zm0,7v7h5.25v-7ZM630,113.5h1.75v1.75H630Zm1.75,1.75h1.75v3.5h-1.75Zm1.75,5.25h1.75v1.75H633.5Zm27.272-8.512a1.694,1.694,0,0,0-1.316.476,1.625,1.625,0,0,0-.5,1.26,1.666,1.666,0,0,0,.476,1.232,1.628,1.628,0,0,0,1.2.5,1.5,1.5,0,0,0,.616-.112,3.3,3.3,0,0,1-.588,1.876,4.049,4.049,0,0,1-1.792,1.232v1.372a5.4,5.4,0,0,0,2.884-1.82,5.247,5.247,0,0,0,1.092-3.276,3.253,3.253,0,0,0-.56-1.96A1.788,1.788,0,0,0,660.772,111.988ZM677.6,96Zm12.25,0h1.75v1.75h-1.75V99.5H688.1v1.75h5.25V99.5h3.5v1.75H695.1V103h-8.75v-1.75H684.6V103h-3.5v1.75h-3.5V103h3.5v-1.75h3.5V99.5h3.5V97.75h1.75Zm1.75,1.75h1.75V99.5H691.6Zm5.25,3.5h3.5V103h-3.5Zm3.5,1.75h3.5v1.75h-3.5v7H681.1v-7h19.25Zm-17.5,3.5V110h3.5v-1.75h1.75V110h1.75v-3.5h-3.5v1.75H684.6V106.5Zm8.75,0V110h1.75v-1.75h1.75V106.5Zm5.25,0v1.75H695.1V110h3.5v-3.5Zm-14,7H698.6V124h-1.75v-1.75H684.6V124h-1.75Zm1.75,1.75V117h12.25v-1.75Zm0,3.5v1.75h12.25v-1.75ZM708.4,96Zm1.75,1.75h10.5V99.5h-3.5v1.75h3.5v5.25h-3.5V110h3.5v1.75h-10.5Zm12.25,0h10.5V103h-1.75v3.5H729.4V110h-3.5v1.75h-1.75v1.75H722.4v1.75h8.75V117H722.4v3.5h12.25v1.75H708.4V120.5h12.25V117H711.9v-1.75h8.75v-3.5h3.5V110h1.75v-3.5h3.5V103h1.75V99.5H725.9v7h-1.75v-7H722.4ZM711.9,99.5v1.75h3.5V99.5Zm0,3.5v1.75h7V103Zm0,3.5V110h3.5v-3.5Zm17.5,3.5h5.25v1.75H732.9v1.75h-1.75v-1.75H729.4ZM0,142Zm5.25,0H7v7h3.5v-1.75h5.25V142H17.5v5.25h7V149h-7v3.5h8.75v1.75H21v3.5h5.25v1.75H21v8.75H19.25V170H17.5v-1.75h1.75V159.5h-7v1.75H10.5V159.5H8.75v-1.75h10.5v-3.5H8.75V156H7v12.25H5.25V170H3.5v-1.75H5.25v-10.5H3.5v1.75H0v-1.75H3.5V156H5.25v-5.25H0V149H5.25Zm5.25,7v1.75H7v3.5H8.75V152.5h7V149Zm1.75,12.25H14v3.5H12.25ZM1.75,166.5H3.5v1.75H1.75Zm14,0H17.5v1.75H15.75ZM30.8,142Zm0,3.5H57.05v1.75h-14V170H41.3V147.25H30.8Zm14,7h1.75v1.75H44.8Zm1.75,1.75H48.3V156H46.55ZM48.3,156h3.5v3.5H50.05v-1.75H48.3Zm13.3-14Zm12.25,0H75.6v5.25H86.1V149H75.6v7H87.85v1.75h-14v3.5H72.1V163H70.35v1.75H68.6v1.75h14v-1.75h1.75v1.75H86.1V170H84.35v-1.75H68.6V170H66.85v-1.75H65.1V166.5h1.75v-1.75H68.6V163h1.75v-1.75H72.1v-3.5H61.6V156H73.85v-7H63.35v-1.75h10.5Zm5.25,19.25h1.75V163H79.1ZM80.85,163H82.6v1.75H80.85Zm25.522-5.012a1.694,1.694,0,0,0-1.316.476,1.625,1.625,0,0,0-.5,1.26,1.666,1.666,0,0,0,.476,1.232,1.628,1.628,0,0,0,1.2.5,1.5,1.5,0,0,0,.616-.112,3.3,3.3,0,0,1-.588,1.876,4.049,4.049,0,0,1-1.792,1.232v1.372a5.4,5.4,0,0,0,2.884-1.82,5.247,5.247,0,0,0,1.092-3.276,3.253,3.253,0,0,0-.56-1.96A1.788,1.788,0,0,0,106.372,157.988ZM123.2,142Zm1.75,1.75h10.5v1.75h-3.5v1.75h3.5v5.25h-3.5V156h3.5v1.75h-10.5Zm12.25,0h10.5V149h-1.75v3.5H144.2V156h-3.5v1.75h-1.75v1.75H137.2v1.75h8.75V163H137.2v3.5h12.25v1.75H123.2V166.5h12.25V163H126.7v-1.75h8.75v-3.5h3.5V156h1.75v-3.5h3.5V149h1.75v-3.5H140.7v7h-1.75v-7H137.2Zm-10.5,1.75v1.75h3.5V145.5Zm0,3.5v1.75h7V149Zm0,3.5V156h3.5v-3.5Zm17.5,3.5h5.25v1.75H147.7v1.75h-1.75v-1.75H144.2Zm9.8-14Zm5.25,0H161v3.5h5.25V149H168v1.75H154V149h3.5v-1.75h-1.75V145.5h3.5Zm8.75,3.5h10.5v22.75h-1.75V170H175v-1.75h1.75v-21h-3.5V163H171.5v3.5h-1.75v1.75H168V170h-1.75v-1.75H168V166.5h1.75V163h1.75V147.25H168Zm-8.75,1.75V149h5.25v-1.75Zm-3.5,5.25h10.5v5.25h-3.5v1.75h3.5v-1.75H168V152.5h1.75v5.25H168v3.5h-5.25v3.5H168v1.75h-5.25V170H161v-3.5h-5.25V163h1.75v1.75H161v-3.5h-7V159.5h7v-1.75h-5.25Zm1.75,1.75V156h7v-1.75Zm15.75,12.25H175v1.75h-1.75ZM184.8,142Zm5.25,0h1.75v3.5h-1.75v1.75h7v5.25h1.75V149h1.75v-7h1.75v5.25h7V166.5h-1.75v1.75H205.8V170h-1.75v-1.75h1.75V166.5h1.75V149h-7v3.5H198.8v1.75h-1.75v14H195.3V166.5h-7v1.75h-1.75v-21h1.75V145.5h1.75Zm-1.75,7v7h7v-7Zm12.25,5.25h1.75V156h-1.75ZM202.3,156h1.75v3.5H202.3Zm-14,1.75v7h7v-7Zm14,8.75h1.75v1.75H202.3ZM215.6,142Zm5.25,0h1.75v7h1.75v1.75H222.6v3.5h1.75v-3.5h1.75V145.5h1.75V149h3.5v-7h1.75v7h7v1.75h-7v7h5.25v1.75H233.1v7h8.75v1.75H222.6V170h-1.75Zm-3.5,7h1.75v5.25h-1.75V156H215.6v-1.75h1.75Zm8.75,1.75v3.5h-1.75V156H222.6v10.5h8.75v-7H226.1v-1.75h5.25v-7ZM246.4,142Zm5.25,0h1.75v7h3.5v1.75h-3.5v1.75h1.75v1.75H253.4V170h-1.75V156H249.9v3.5h-1.75v1.75H246.4V159.5h1.75V156h1.75v-3.5h1.75v-1.75H246.4V149h5.25Zm8.75,0h1.75v3.5h8.75V149h-1.75v1.75H267.4v1.75h-1.75v1.75H263.9V156h-1.75v1.75h-3.5v1.75h-3.5v-1.75h3.5V156h3.5v-1.75h1.75V152.5h1.75v-1.75h1.75V149h1.75v-1.75H260.4V149h1.75v1.75h-3.5v1.75H256.9v-1.75h1.75v-3.5h1.75Zm1.75,8.75h1.75v1.75h-1.75Zm-7,3.5h1.75V156h-1.75Zm10.5,0h3.5V156h-3.5Zm3.5,1.75h3.5v1.75h-3.5Zm-10.5,3.5H270.9V170h-1.75v-1.75H260.4V170h-1.75Zm1.75,1.75v5.25h8.75v-5.25ZM277.2,142Zm12.25,0h1.75v1.75h-1.75v1.75H287.7v1.75h5.25V145.5h3.5v1.75H294.7V149h-8.75v-1.75H284.2V149h-3.5v1.75h-3.5V149h3.5v-1.75h3.5V145.5h3.5v-1.75h1.75Zm1.75,1.75h1.75v1.75H291.2Zm5.25,3.5h3.5V149h-3.5Zm3.5,1.75h3.5v1.75h-3.5v7H280.7v-7h19.25Zm-17.5,3.5V156h3.5v-1.75h1.75V156h1.75v-3.5h-3.5v1.75H284.2V152.5Zm8.75,0V156h1.75v-1.75h1.75V152.5Zm5.25,0v1.75H294.7V156h3.5v-3.5Zm-14,7H298.2V170h-1.75v-1.75H284.2V170h-1.75Zm1.75,1.75V163h12.25v-1.75Zm0,3.5v1.75h12.25v-1.75ZM308,142Zm7,0h1.75v5.25H315v10.5h8.75V152.5h-7v-1.75h7V142h1.75v8.75h7v1.75h-7v5.25h8.75v1.75H325.5V170h-1.75V159.5H315V170h-1.75V152.5H311.5v1.75h-1.75V156H308v-1.75h1.75V152.5h1.75v-1.75h1.75v-3.5H315Zm3.5,1.75h1.75v1.75H318.5Zm12.25,0h1.75v1.75h-1.75v1.75H329V149h-1.75v-1.75H329V145.5h1.75Zm-10.5,1.75H322V149h-1.75ZM338.8,142Zm5.25,0h1.75v5.25h-1.75V170H342.3V152.5h-1.75v1.75H338.8V152.5h1.75v-1.75h1.75v-3.5h1.75Zm7,0h1.75v5.25h10.5v3.5h-1.75v1.75H359.8v-1.75h1.75V149h-10.5v1.75H349.3v1.75h-1.75v1.75H345.8V152.5h1.75v-1.75h1.75v-3.5h1.75Zm3.5,10.5h1.75v15.75h-1.75V170H352.8v-1.75h1.75Zm-3.5,3.5h1.75v3.5h-1.75v1.75H349.3V163h-1.75v-1.75h1.75V159.5h1.75Zm7,0h1.75v1.75h-1.75Zm1.75,1.75h1.75v1.75H359.8Zm1.75,1.75h1.75V163h-1.75Zm-10.5,7h1.75v1.75h-1.75ZM369.6,142Zm3.5,1.75h1.75v1.75H373.1Zm8.75,0h3.5v1.75h-3.5v1.75H380.1v10.5h1.75V156h1.75v-1.75h1.75V145.5h8.75v14h-1.75v1.75H390.6V159.5h1.75V147.25H387.1V166.5h8.75v1.75h-17.5V166.5h7V156H383.6v1.75h-1.75v1.75H380.1v1.75h-1.75V145.5h3.5Zm-7,1.75h1.75V149h-1.75Zm-5.25,7h7v12.25h-1.75v1.75H373.1v1.75h-1.75V166.5h1.75v-1.75h1.75v-10.5H369.6Zm19.25,5.25h1.75v1.75h-1.75Zm-12.25,7h1.75v1.75H376.6ZM400.4,142Zm17.5,0h1.75v7h7v1.75h-7v8.75H417.9v-7h-3.5v8.75h-5.25V163h5.25v1.75h-5.25V170H407.4v-5.25h-7V163h7v-1.75h-5.25V152.5H414.4v-1.75h3.5Zm-15.75,1.75h5.25v7h-5.25Zm7,0h5.25v7h-5.25Zm12.25,0h1.75v1.75H421.4Zm-17.5,1.75V149h1.75v-3.5Zm7,0V149h1.75v-3.5Zm12.25,0h1.75v1.75h-1.75Zm0,7h1.75V156h-1.75v3.5H421.4V163h-1.75v1.75H417.9v1.75h-1.75v1.75H414.4V170h-1.75v-1.75h1.75V166.5h1.75v-1.75h1.75V163h1.75v-3.5h1.75V156h1.75Zm-19.25,1.75V156h3.5v-1.75Zm5.25,0V156h3.5v-1.75Zm-5.25,3.5v1.75h3.5v-1.75Zm5.25,0v1.75h3.5v-1.75ZM421.4,163h1.75v3.5H421.4Zm3.5,0h1.75v7H424.9v-1.75h-1.75V166.5h1.75Zm6.3-21Zm5.25,0h1.75v3.5h17.5v1.75H436.45V149H434.7v1.75h-1.75V149h1.75v-1.75h1.75Zm0,8.75H452.2v7h5.25v1.75H452.2v5.25h1.75v1.75h-3.5v1.75H448.7V170h-5.25v-1.75h5.25V166.5h-14V163h1.75v-3.5H431.2v-1.75h5.25Zm1.75,1.75v5.25h12.25V152.5h-7v1.75H441.7V152.5Zm5.25,1.75h1.75V156h-1.75Zm-5.25,5.25V163h-1.75v1.75h14V159.5h-7v1.75H441.7V159.5Zm5.25,1.75h1.75V163h-1.75ZM462,142Zm0,12.25h26.25V156H462ZM492.8,142Zm5.25,0h1.75v5.25h-1.75V170H496.3V152.5h-1.75v1.75H492.8V152.5h1.75v-1.75h1.75v-3.5h1.75Zm3.5,1.75H517.3v24.5h-1.75V166.5H503.3v1.75h-1.75Zm1.75,1.75V149h5.25v-3.5Zm7,0V149h5.25v-3.5Zm-7,5.25v14h12.25v-14H510.3v3.5h3.5V163h-1.75v-1.75H506.8V163h-1.75v-8.75h3.5v-3.5Zm3.5,5.25v3.5h5.25V156Zm16.8-14Zm1.75,1.75H548.1V170h-1.75v-1.75H527.1V170h-1.75Zm1.75,1.75v21h8.75V156H534.1v3.5h-1.75v1.75H530.6V163h-1.75v-1.75h1.75V159.5h1.75V156h1.75v-1.75h1.75V152.5h-7v-1.75h7V145.5Zm10.5,0v5.25h7v1.75h-7v1.75h1.75V156H537.6v10.5h8.75v-21Zm1.75,10.5h1.75v1.75h-1.75Zm1.75,1.75h1.75v1.75H541.1Zm1.75,1.75h1.75V163h-1.75ZM554.4,142Zm3.5,0h1.75v3.5h3.5V142h1.75v3.5h1.75v1.75H564.9v3.5h-1.75v1.75h1.75v-1.75h1.75V149h1.75v-3.5h1.75V142h1.75v3.5h-1.75v1.75h10.5V149H575.4v3.5h3.5v1.75h-3.5v3.5h3.5v1.75h-3.5v5.25h5.25v1.75h-10.5V170H568.4v-5.25h-3.5v1.75h-1.75v-1.75H561.4v1.75h-1.75v1.75H557.9V170h-1.75v-1.75h1.75V166.5h1.75v-1.75H554.4V163h7v-1.75h-5.25V159.5h5.25v-1.75h-5.25V152.5h5.25v-1.75h-3.5v-3.5h-3.5V145.5h3.5Zm15.75,0h1.75v1.75h-1.75Zm1.75,1.75h1.75v1.75H575.4Zm-15.75,3.5V149h3.5v-1.75Zm10.5,1.75v3.5h3.5V149Zm-3.5,1.75v7h-3.5v1.75h3.5v1.75h-3.5V163h5.25V150.75Zm-8.75,3.5V156h3.5v-1.75Zm5.25,0V156h1.75v-1.75Zm7,0v3.5h3.5v-3.5Zm0,5.25v5.25h3.5V159.5Zm-5.25,7h1.75v1.75H564.9ZM585.2,142Zm10.5,0h1.75v3.5h3.5v1.75h-3.5v3.5h3.5v8.75h5.25V156h-3.5v-1.75h3.5V152.5h-3.5v-1.75h3.5v-3.5h-3.5V145.5h5.25v14h3.5v1.75H585.2V159.5h3.5v-14h3.5v-1.75h1.75v1.75H592.2v1.75h-1.75v3.5h3.5v1.75h-3.5v1.75h3.5V156h-3.5v3.5h5.25v-5.25h1.75v5.25h1.75v-7h-3.5Zm-1.75,21h1.75v1.75h-1.75v1.75H592.2v1.75h-1.75V170H588.7v-1.75h1.75V166.5h1.75v-1.75h1.75Zm7,0h1.75v1.75h-1.75Zm1.75,1.75h1.75v1.75H602.7Zm1.75,1.75h3.5V170H606.2v-1.75h-1.75ZM616,142Zm5.25,0H623v7h1.75v1.75H623v3.5h1.75V152.5h1.75v-7h1.75v7H626.5v1.75h-1.75V156H623v10.5h8.75v-5.25h-7V159.5h7V156H630v-1.75h1.75V142h1.75v12.25h1.75V152.5H637v-7h1.75v7H637v1.75h-1.75V156H633.5v3.5h7v1.75h-7v5.25h8.75v1.75h-21V170H619.5v-1.75h1.75v-10.5H619.5v1.75H616v-1.75h3.5V156h1.75v-5.25H616V149h5.25Zm7,10.5H630v1.75h-1.75Zm10.5,0h1.75v1.75h-1.75Zm1.75,1.75h1.75V156H640.5ZM617.75,166.5h1.75v1.75h-1.75ZM646.8,142Zm5.25,0h1.75v7h3.5v1.75h-3.5v3.5h1.75V152.5h1.75v1.75h-1.75V156H653.8v12.25h-1.75V170H650.3v-1.75h1.75v-10.5H650.3v1.75h-3.5v-1.75h3.5V156h1.75v-5.25H646.8V149h5.25Zm15.75,0h1.75v1.75h1.75v1.75h-7v1.75h-3.5v5.25h12.25v1.75H667.8V170h-1.75V154.25H660.8V163h-1.75v3.5H657.3v1.75h-1.75V170H653.8v-1.75h1.75V166.5h1.75V163h1.75V145.5h5.25v-1.75h3.5Zm-19.25,24.5h1.75v1.75h-1.75Zm43.05-10.108a3.594,3.594,0,0,0-2.576,1.008,3.262,3.262,0,0,0-1.064,2.52,3.2,3.2,0,0,0,1.064,2.492,3.618,3.618,0,0,0,2.576,1.036,3.666,3.666,0,0,0,2.576-1.036,3.483,3.483,0,0,0,0-5.012A3.641,3.641,0,0,0,691.6,156.392Zm0,1.484a2.12,2.12,0,0,1,1.484.588,1.954,1.954,0,0,1,.644,1.456,2,2,0,0,1-.644,1.456,2.12,2.12,0,0,1-1.484.588,2.027,2.027,0,0,1-1.484-.588,1.858,1.858,0,0,1-.644-1.456,1.819,1.819,0,0,1,.644-1.456A2.027,2.027,0,0,1,691.6,157.876ZM0,188Zm5.25,1.75H24.5v1.75H15.75v1.75h7V195h-7v1.75h7v1.75h-7V202H24.5v10.5H22.75v1.75H21V216H19.25v-1.75H21V212.5h1.75v-8.75H5.25ZM7,191.5v1.75h7V191.5ZM7,195v1.75h7V195Zm0,3.5V202h7v-3.5Zm-3.5,7H5.25v5.25H3.5v1.75H1.75v-1.75H3.5Zm3.5,0H8.75v1.75H7Zm5.25,0H14v1.75H12.25Zm5.25,0h1.75v1.75H17.5Zm-8.75,1.75H10.5v3.5H8.75Zm5.25,0h1.75v3.5H14Zm5.25,0H21v3.5H19.25ZM17.5,212.5h1.75v1.75H17.5ZM30.8,188Zm12.25,0H44.8v3.5H57.05v1.75H44.8v3.5h7v8.75H48.3v8.75H46.55V205.5H41.3v5.25H39.55v1.75H37.8v1.75H34.3V216H30.8v-1.75h3.5V212.5h3.5v-1.75h1.75V205.5h-3.5v-8.75h7v-3.5H30.8V191.5H43.05ZM37.8,198.5v5.25H50.05V198.5Zm17.5,12.25h1.75V216H48.3v-1.75h7Zm20.3-6.566a1.647,1.647,0,0,0-1.232.5,1.624,1.624,0,0,0-.476,1.232,1.666,1.666,0,0,0,.476,1.232,1.736,1.736,0,0,0,1.232.476,1.785,1.785,0,0,0,1.232-.476,1.691,1.691,0,0,0,.5-1.232,1.647,1.647,0,0,0-.5-1.232A1.691,1.691,0,0,0,75.6,204.184ZM92.4,188Zm3.5,0h1.75v1.75H95.9Zm1.75,1.75H99.4v3.5h3.5v3.5h-1.75v1.75H99.4v1.75h1.75V202H99.4v14H97.65V202H95.9v1.75H94.15v1.75H92.4v-1.75h1.75V202H95.9v-1.75h1.75V198.5H99.4v-1.75h1.75V195H92.4v-1.75h5.25Zm7,1.75h10.5v21h3.5v1.75h-17.5V212.5h3.5Zm1.75,1.75v5.25h7v-5.25Zm0,7v5.25h7v-5.25ZM101.15,202h1.75v3.5h-1.75Zm5.25,5.25v5.25h7v-5.25ZM123.2,188Zm12.25,0h1.75v3.5h12.25v1.75H137.2v3.5h7v8.75h-3.5v8.75h-1.75V205.5H133.7v5.25h-1.75v1.75H130.2v1.75h-3.5V216h-3.5v-1.75h3.5V212.5h3.5v-1.75h1.75V205.5h-3.5v-8.75h7v-3.5H123.2V191.5h12.25Zm-5.25,10.5v5.25h12.25V198.5Zm17.5,12.25h1.75V216H140.7v-1.75h7ZM154,188Zm7,0h1.75v5.25H161V216h-1.75V198.5H157.5v1.75h-1.75V202H154v-1.75h1.75V198.5h1.75v-1.75h1.75v-3.5H161Zm10.5,0h1.75v3.5H171.5v1.75h7V216h-1.75v-3.5H168V216h-1.75V193.25h3.5V191.5h1.75Zm-3.5,7v7h8.75v-7Zm0,8.75v7h8.75v-7Zm30.8-4.8a1.573,1.573,0,0,0-1.232.532,1.524,1.524,0,0,0-.476,1.2,1.6,1.6,0,0,0,.476,1.2,1.647,1.647,0,0,0,1.232.5,1.691,1.691,0,0,0,1.232-.5,1.628,1.628,0,0,0,.5-1.2,1.544,1.544,0,0,0-.5-1.2A1.613,1.613,0,0,0,198.8,198.948Zm0,10.248a1.573,1.573,0,0,0-1.232.532,1.524,1.524,0,0,0-.476,1.2,1.6,1.6,0,0,0,.476,1.2,1.647,1.647,0,0,0,1.232.5,1.691,1.691,0,0,0,1.232-.5,1.628,1.628,0,0,0,.5-1.2,1.544,1.544,0,0,0-.5-1.2A1.613,1.613,0,0,0,198.8,209.2Zm35-16.352v17.164h2.044V194.72h6.916v-1.876ZM246.4,188Zm12.25,0h1.75v7h10.5v1.75H260.4v7h8.75v1.75H260.4v7h12.25v1.75H246.4V212.5h12.25v-7H249.9v-1.75h8.75v-7h-7v3.5H249.9V202h-1.75v1.75H246.4V202h1.75v-1.75h1.75v-3.5h1.75v-7h1.75V195h5.25Zm18.55,0Zm19.25,0h1.75v1.75h1.75v1.75H294.7v5.25h7v1.75h-7v5.25h5.25v10.5H298.2V212.5h-8.75v1.75H287.7v-10.5h5.25V198.5h-7v-1.75h7v-3.5H287.7V191.5h5.25v-1.75h3.5Zm-15.75,1.75h1.75v1.75H280.7Zm1.75,1.75h1.75V195h-1.75ZM277.2,195h1.75v1.75H277.2Zm1.75,1.75h1.75v3.5h-1.75Zm5.25,3.5h1.75V202H284.2v1.75h-1.75v10.5H280.7v-7h-3.5V205.5h3.5v-1.75h1.75V202h1.75Zm5.25,5.25v5.25h8.75V205.5ZM308,188Zm3.5,0h1.75v1.75H311.5Zm12.25,0h1.75v8.75h8.75v1.75H329v14h-1.75v-14H325.5V209h-1.75v3.5H322v1.75h-1.75V216H318.5v-1.75h1.75V212.5H322V209h1.75V198.5H318.5v7H315v8.75h-1.75V216H311.5v-1.75h1.75V205.5h-3.5v-7h8.75v-1.75h5.25Zm-10.5,1.75H315v1.75h-1.75Zm14,0H329v1.75h-1.75ZM329,191.5h1.75v1.75H329Zm-21,1.75h12.25V195H308Zm3.5,7v3.5h5.25v-3.5Zm-1.75,7h1.75V209h-1.75v1.75H308V209h1.75Zm7,0h1.75V209h-1.75ZM318.5,209h1.75v1.75H318.5Zm14,0h1.75v5.25H329V212.5h3.5Zm-22.75,3.5h1.75v1.75h-1.75ZM338.8,188Zm7,0h1.75v5.25H345.8V216h-1.75V198.5H342.3v1.75h-1.75V202H338.8v-1.75h1.75V198.5h1.75v-1.75h1.75v-3.5h1.75Zm5.25,0h1.75v1.75h7v1.75h-1.75v1.75h3.5v5.25h-7v1.75H352.8V202h-1.75v1.75h-3.5V202h3.5v-1.75h1.75V198.5h-3.5V195h-1.75v-1.75h1.75V191.5h1.75Zm0,3.5v1.75h5.25V191.5Zm0,3.5v1.75h3.5V195Zm5.25,0v1.75h3.5V195Zm-1.75,5.25h1.75V202h1.75v1.75h1.75V202h1.75v-1.75h1.75V202h-1.75v1.75H359.8v3.5h-1.75v7H356.3V216h-1.75v-1.75h1.75V209h-1.75v1.75h-3.5v1.75h-3.5v-1.75h3.5V209h3.5v-1.75h1.75v-3.5h-1.75v1.75H352.8v1.75h-3.5V205.5h3.5v-1.75h1.75Zm5.25,7h1.75V209H359.8Zm1.75,1.75h3.5v1.75H363.3v1.75h-1.75Zm-8.75,3.5h1.75v1.75H352.8ZM369.6,188Zm10.5,0h1.75v1.75h1.75v1.75h-5.25v1.75h-3.5v3.5h7v8.75h-7v5.25H373.1v1.75h-1.75v1.75H369.6V212.5h1.75v-1.75h1.75V191.5h5.25v-1.75h1.75Zm10.5,0h1.75v1.75h1.75v1.75h-5.25v1.75h-3.5v5.25h10.5v1.75h-3.5V216H390.6V200.25h-5.25V209H383.6v3.5h-1.75v1.75H380.1V216h-1.75v-1.75h1.75V212.5h1.75V209h1.75V191.5h5.25v-1.75h1.75Zm-15.75,10.5v5.25h5.25V198.5ZM400.4,188Zm10.5,0h1.75v3.5h14v1.75H410.9v3.5h10.5v17.5h-1.75V216H417.9v-1.75h1.75V209h-10.5v7H407.4V202h-1.75v1.75H403.9v1.75h-1.75v1.75H400.4V205.5h1.75v-1.75h1.75V202h1.75v-1.75h1.75v-3.5h1.75v-3.5H400.4V191.5h10.5Zm-1.75,10.5V202h10.5v-3.5Zm0,5.25v3.5h10.5v-3.5Zm7,8.75h1.75v1.75h-1.75ZM431.2,188Zm7,0h1.75v1.75H438.2Zm10.5,0h1.75v3.5H448.7v1.75h7V195H445.2v1.75h8.75v1.75H445.2v1.75h12.25V202H445.2v3.5h10.5v1.75H445.2V209h-1.75v1.75H441.7v1.75h-1.75v1.75h-3.5V216H431.2v-1.75h5.25V212.5h3.5v-1.75h1.75V209h1.75v-1.75h-10.5V205.5h10.5V202H431.2v-1.75h12.25V198.5H434.7v-1.75h8.75V195h-10.5v-1.75h7v-3.5h1.75v3.5h5.25V191.5h1.75Zm-3.5,21h1.75v1.75H445.2Zm1.75,1.75h3.5v1.75h-3.5Zm3.5,1.75h7v1.75H455.7V216h-1.75v-1.75h-3.5ZM462,188Zm5.25,0H469v7h5.25v5.25h5.25v-3.5h1.75V195H483v-1.75h1.75V191.5h-10.5v-1.75H486.5v3.5h-1.75V195H483v1.75h-1.75v3.5h7V202h-7v12.25H479.5V216h-1.75v-1.75h1.75V202h-5.25v1.75H472.5v3.5h-1.75V209H469v1.75h-1.75v1.75H465.5v1.75h-1.75V216H462v-1.75h1.75V212.5h1.75v-1.75h1.75V209H469v-1.75h1.75v-3.5h1.75v-7h-5.25V202H465.5v1.75h-1.75V202h1.75v-5.25H462V195h5.25Zm-1.75,15.75h1.75v1.75H465.5Zm1.75,1.75H469v1.75h-1.75Zm3.5,3.5h1.75v1.75h-1.75Zm1.75,1.75h1.75v1.75H472.5Zm3.5,1.75h1.75v1.75H476ZM492.8,188Zm5.25,0h1.75v3.5h-1.75v1.75h7v5.25h1.75V195h1.75v-7h1.75v5.25h7V212.5h-1.75v1.75H513.8V216h-1.75v-1.75h1.75V212.5h1.75V195h-7v3.5H506.8v1.75h-1.75v14H503.3V212.5h-7v1.75h-1.75v-21h1.75V191.5h1.75Zm-1.75,7v7h7v-7Zm12.25,5.25h1.75V202h-1.75ZM510.3,202h1.75v3.5H510.3Zm-14,1.75v7h7v-7Zm14,8.75h1.75v1.75H510.3ZM523.6,188Zm12.25,0h1.75v5.25h12.25V195H537.6v1.75h7v8.75h-7v1.75h1.75V209H537.6v7h-1.75v-7H534.1v1.75h-1.75v1.75h-3.5v1.75h-3.5V212.5h3.5v-1.75h3.5V209h1.75v-1.75h1.75V205.5h-7v-8.75h7V195H523.6v-1.75h12.25Zm-5.25,10.5v1.75h5.25V198.5Zm7,0v1.75h5.25V198.5Zm-7,3.5v1.75h5.25V202Zm7,0v1.75h5.25V202Zm1.75,7h3.5v1.75h-3.5Zm3.5,1.75h5.25v1.75h-1.75v1.75H544.6V212.5h-1.75ZM554.4,188Zm0,1.75h24.5v1.75h-8.75v5.25h7V216H575.4v-1.75H557.9V216h-1.75V196.75h7V191.5H554.4Zm10.5,1.75v5.25h3.5V191.5Zm-7,7v8.75h1.75V205.5h1.75v-1.75h1.75V198.5Zm7,0v5.25h-1.75v1.75H561.4v1.75h-1.75V209H557.9v3.5h17.5v-5.25h-5.25V205.5h5.25v-7h-5.25v7H568.4v-7ZM585.2,188Zm0,12.25h26.25V202H585.2ZM616,188Zm5.25,0H623v7h3.5v1.75H623v1.75h1.75v1.75H623V216h-1.75V202H619.5v3.5h-1.75v1.75H616V205.5h1.75V202h1.75v-3.5h1.75v-1.75H616V195h5.25Zm7,0H630v1.75h-1.75Zm8.75,0h1.75v1.75H637v1.75h3.5v1.75h-7V195h5.25v1.75H633.5v1.75h7v1.75h-8.75V202H630v-1.75h-3.5V202h-1.75v-1.75h1.75V198.5h5.25v-1.75h-3.5V195h3.5v-1.75H626.5V191.5H630v-1.75h1.75v1.75h3.5v-1.75H637Zm-5.25,14h1.75v5.25h1.75V205.5H637v-1.75h1.75v1.75H637v1.75h-1.75V209H633.5v5.25h-1.75V216H630v-1.75h1.75V205.5h-3.5v-1.75h3.5Zm-7,5.25H630v3.5h-1.75v1.75H626.5v1.75h-1.75V212.5h1.75v-1.75h1.75V209h-3.5Zm10.5,1.75H637v1.75h-1.75Zm1.75,1.75h5.25v1.75H640.5v1.75h-1.75V212.5H637Zm-8.75,1.75H630v1.75h-1.75Zm32.522-8.512a1.694,1.694,0,0,0-1.316.476,1.625,1.625,0,0,0-.5,1.26,1.666,1.666,0,0,0,.476,1.232,1.628,1.628,0,0,0,1.2.5,1.5,1.5,0,0,0,.616-.112,3.3,3.3,0,0,1-.588,1.876,4.049,4.049,0,0,1-1.792,1.232v1.372a5.4,5.4,0,0,0,2.884-1.82,5.247,5.247,0,0,0,1.092-3.276,3.253,3.253,0,0,0-.56-1.96A1.788,1.788,0,0,0,660.772,203.988ZM677.6,188Zm10.5,0h12.25v1.75H698.6v1.75h-1.75v1.75H695.1V195h5.25v15.75H698.6v1.75h-1.75v-1.75h1.75v-3.5h-3.5V209h1.75v1.75H695.1v1.75h-1.75v-5.25h-3.5v5.25H688.1v1.75h-1.75V212.5h1.75V195h5.25v-1.75h1.75V191.5h1.75v-1.75H688.1Zm-8.75,1.75h1.75v1.75h-1.75Zm1.75,1.75h3.5V195h-1.75v-1.75H681.1Zm10.5,0h1.75v1.75H691.6Zm-1.75,5.25v3.5h3.5v-3.5Zm5.25,0v3.5h3.5v-3.5Zm-17.5,1.75h7v12.25h-1.75v1.75H681.1v1.75h-1.75V212.5h1.75v-1.75h1.75v-10.5H677.6Zm12.25,3.5v3.5h3.5V202Zm5.25,0v3.5h3.5V202Zm-10.5,8.75h1.75v1.75H684.6Zm3.5,3.5h15.75V216H688.1ZM708.4,188Zm3.5,1.75h1.75v1.75H711.9Zm8.75,0h10.5v7h1.75V209h-1.75v1.75H729.4V209h1.75V198.5h-10.5v12.25H718.9v-14h1.75Zm-7,1.75h1.75V195h-1.75Zm8.75,0v1.75h5.25v3.5h1.75V191.5Zm0,3.5v1.75h3.5V195Zm-14,3.5h7v12.25h-1.75v1.75H711.9v1.75h-1.75V212.5h1.75v-1.75h1.75v-10.5H708.4Zm14,1.75h7V209h-1.75v-1.75h-3.5V209H722.4Zm1.75,1.75v3.5h3.5V202Zm-8.75,8.75h1.75v1.75H715.4Zm1.75,1.75h17.5v1.75h-17.5ZM0,234Zm0,1.75H26.25v1.75H15.75V241H14v21H12.25V246.25H10.5V248H8.75v1.75H7v1.75H5.25v1.75H3.5V255H1.75v-1.75H3.5V251.5H5.25v-1.75H7V248H8.75v-1.75H10.5V244.5h1.75V241H14v-3.5H0Zm15.75,8.75H17.5v1.75H15.75Zm1.75,1.75h1.75V248H17.5ZM19.25,248h3.5v1.75H24.5v3.5H22.75V251.5H21v-1.75H19.25ZM30.8,234Zm7,0h1.75v1.75H37.8v1.75h3.5v1.75H39.55V241H37.8v1.75h1.75V241H41.3v3.5H36.05V241H37.8v-1.75H36.05v-3.5H37.8Zm7,0h1.75v1.75H44.8v1.75h3.5v1.75H46.55V241H44.8v1.75h1.75V241H48.3v3.5H43.05V241H44.8v-1.75H43.05v-3.5H44.8Zm-12.25,1.75H34.3v10.5h14V248H46.55v1.75H44.8v1.75h3.5v1.75H46.55V255H44.8v1.75h1.75V255H48.3v3.5H43.05V255H44.8v-1.75H43.05v-3.5H44.8V248H39.55v1.75H37.8v1.75h3.5v1.75H39.55V255H37.8v1.75h1.75V255H41.3v3.5H36.05V255H37.8v-1.75H36.05v-3.5H37.8V248H34.3v12.25h14V258.5h1.75v-21h3.5v-1.75H55.3v1.75H53.55v1.75H51.8v5.25h5.25v1.75H55.3V262H53.55V246.25H51.8V258.5H50.05v1.75H48.3V262H32.55ZM61.6,234Zm5.25,0H68.6v3.5H66.85v1.75h7v5.25H75.6V241h1.75v-7H79.1v5.25h7V258.5H84.35v1.75H82.6V262H80.85v-1.75H82.6V258.5h1.75V241h-7v3.5H75.6v1.75H73.85v14H72.1V258.5h-7v1.75H63.35v-21H65.1V237.5h1.75Zm-1.75,7v7h7v-7Zm12.25,5.25H79.1V248H77.35ZM79.1,248h1.75v3.5H79.1Zm-14,1.75v7h7v-7Zm14,8.75h1.75v1.75H79.1ZM92.4,234Zm5.25,0H99.4v3.5h5.25V241H102.9v3.5h-1.75v1.75h-3.5V248H95.9v1.75H92.4V248h3.5v-1.75h1.75V244.5h3.5V241h1.75v-1.75H97.65V241H95.9v1.75H94.15V241H95.9v-1.75H92.4V237.5h5.25Zm8.75,3.5h10.5V241h-1.75v1.75H113.4v1.75h-1.75v1.75H109.9V248h-1.75v1.75H106.4V248h1.75v-1.75h1.75V244.5h1.75v-1.75h1.75V241h1.75v-1.75h-7v3.5H106.4Zm-10.5,5.25h1.75v1.75H95.9Zm12.25,0h1.75v1.75h-1.75Zm-7,3.5h1.75V248h-1.75Zm10.5,0h1.75V248h-1.75ZM102.9,248h1.75v3.5h8.75v8.75h-1.75V262H109.9v-1.75h1.75v-7h-7V255H102.9v3.5h-1.75v1.75h-3.5V262h-3.5v-1.75h3.5V258.5h3.5V255h1.75v-1.75h-7V251.5h7Zm10.5,0h5.25v1.75H116.9v1.75h-1.75v-1.75H113.4Zm-5.25,10.5h1.75v1.75h-1.75ZM123.2,234Zm10.5,0h1.75v7h10.5v17.5H144.2v1.75h-1.75V262H140.7v-1.75h1.75V258.5h1.75V242.75h-8.75v7H133.7v3.5h-1.75v3.5H130.2v1.75h-1.75v1.75H126.7V262h-1.75v-1.75h1.75V258.5h1.75v-1.75h1.75v-3.5h1.75v-3.5h1.75v-7h-8.75V241h8.75Zm3.5,22.75h1.75v1.75H137.2Zm1.75,1.75h1.75v1.75h-1.75Zm26.866-10.024-1.26,1.176a25.5,25.5,0,0,1,3.108,2.8,26.989,26.989,0,0,1,2.38,2.884l1.4-1.176a24.334,24.334,0,0,0-2.408-2.884A21.877,21.877,0,0,0,165.816,248.476ZM184.8,234Zm0,1.75h26.25v1.75h-10.5V241H198.8v21h-1.75V246.25H195.3V248h-1.75v1.75H191.8v1.75h-1.75v1.75H188.3V255h-1.75v-1.75h1.75V251.5h1.75v-1.75h1.75V248h1.75v-1.75h1.75V244.5h1.75V241h1.75v-3.5h-14Zm15.75,8.75h1.75v1.75h-1.75Zm1.75,1.75h1.75V248H202.3Zm1.75,1.75h3.5v1.75h1.75v3.5h-1.75V251.5H205.8v-1.75h-1.75Zm11.55-14Zm7,0h1.75v1.75H222.6v1.75h3.5v1.75h-1.75V241H222.6v1.75h1.75V241h1.75v3.5h-5.25V241h1.75v-1.75h-1.75v-3.5h1.75Zm7,0h1.75v1.75H229.6v1.75h3.5v1.75h-1.75V241H229.6v1.75h1.75V241h1.75v3.5h-5.25V241h1.75v-1.75h-1.75v-3.5h1.75Zm-12.25,1.75h1.75v10.5h14V248h-1.75v1.75H229.6v1.75h3.5v1.75h-1.75V255H229.6v1.75h1.75V255h1.75v3.5h-5.25V255h1.75v-1.75h-1.75v-3.5h1.75V248h-5.25v1.75H222.6v1.75h3.5v1.75h-1.75V255H222.6v1.75h1.75V255h1.75v3.5h-5.25V255h1.75v-1.75h-1.75v-3.5h1.75V248h-3.5v12.25h14V258.5h1.75v-21h3.5v-1.75h1.75v1.75h-1.75v1.75H236.6v5.25h5.25v1.75H240.1V262h-1.75V246.25H236.6V258.5h-1.75v1.75H233.1V262H217.35ZM246.4,234Zm5.25,0h1.75v3.5h-1.75v1.75h7v5.25h1.75V241h1.75v-7h1.75v5.25h7V258.5h-1.75v1.75H267.4V262h-1.75v-1.75h1.75V258.5h1.75V241h-7v3.5H260.4v1.75h-1.75v14H256.9V258.5h-7v1.75h-1.75v-21h1.75V237.5h1.75Zm-1.75,7v7h7v-7Zm12.25,5.25h1.75V248h-1.75ZM263.9,248h1.75v3.5H263.9Zm-14,1.75v7h7v-7Zm14,8.75h1.75v1.75H263.9ZM277.2,234Zm5.25,0h1.75v3.5h-1.75V241H280.7v1.75h3.5v-3.5h1.75v3.5H284.2v3.5h-1.75V248H280.7v1.75h3.5V248h1.75v1.75h1.75v3.5h-1.75V251.5H280.7v1.75h-1.75V251.5H277.2v-1.75h1.75V248h1.75v-1.75h1.75V244.5H277.2v-1.75h1.75V241h1.75v-3.5h1.75Zm12.25,0h1.75v3.5h7v1.75h-7V241h5.25v10.5h-3.5v1.75h-1.75V262H294.7v-8.75h-1.75V255H291.2v1.75h-1.75v1.75H287.7v1.75h-1.75V255h1.75v1.75h1.75V255h1.75v-1.75h1.75V251.5h-3.5V241h5.25v-1.75h-7V237.5h7Zm-3.5,8.75v1.75h1.75v1.75H291.2v3.5h3.5V248h-1.75v-1.75h1.75v-3.5Zm5.25,0v3.5h1.75V244.5h1.75v-1.75Zm1.75,3.5V248h-1.75v1.75h3.5v-3.5Zm0,7h1.75V255H298.2ZM278.95,255h1.75v3.5h-1.75v1.75H277.2V258.5h1.75Zm3.5,0h1.75v5.25h-1.75Zm17.5,0h1.75v1.75h-1.75Zm1.75,1.75h1.75v1.75H301.7ZM308,234Zm1.75,1.75h10.5v8.75H318.5v-1.75H315v1.75h-1.75v1.75H311.5V244.5h-1.75v-1.75H315V241h3.5v-3.5h-5.25v1.75H311.5V237.5h-1.75Zm12.25,0h10.5v10.5h-1.75v-3.5h-3.5v1.75h-3.5v-1.75h3.5V241h3.5v-3.5H325.5v1.75h-1.75V237.5H322Zm-8.75,3.5H315V241h-1.75Zm12.25,0h1.75V241H325.5Zm-5.25,5.25H322v1.75h-1.75V248h10.5v14H329v-1.75H315V262h-1.75V248h5.25v-1.75h1.75ZM315,249.75v3.5h14v-3.5Zm0,5.25v3.5h14V255Zm23.8-21Zm14,0h1.75v7h10.5v1.75h-10.5v17.5H352.8V262h-1.75v-1.75h1.75V244.5h-1.75V248H349.3v3.5h-1.75v1.75H345.8V255h-1.75v1.75H342.3v1.75h-1.75v-1.75h1.75V255h1.75v-1.75h1.75V251.5h1.75V248h1.75v-3.5h1.75v-1.75H338.8V241h14Zm-3.5,24.5h1.75v1.75H349.3ZM369.6,234Zm5.25,0h1.75v3.5h-1.75v1.75H373.1V241h5.25v-3.5h1.75V241h1.75v3.5H380.1v15.75h-1.75V262H376.6v-1.75h1.75V255H373.1v7h-1.75V244.5h8.75v-1.75H369.6V241h1.75v-1.75h1.75V237.5h1.75Zm8.75,0h1.75v7h1.75v-1.75h1.75V237.5h1.75v-1.75h1.75v3.5h-3.5V241H387.1v1.75h-1.75v3.5H383.6Zm8.75,8.75h1.75V248h-8.75v-1.75h7Zm-19.25,3.5v3.5h5.25v-3.5Zm10.5,3.5h1.75V255h1.75v-1.75h1.75V251.5h1.75v-1.75h1.75v3.5h-3.5V255H387.1v1.75h-1.75v3.5H383.6Zm-10.5,1.75v1.75h5.25V251.5Zm21,5.25h1.75V262h-10.5v-1.75h8.75Zm-19.25,1.75h1.75v1.75h-1.75ZM400.4,234Zm15.75,0h1.75v3.5h5.25v1.75H417.9V241h7v1.75h-3.5v1.75h-1.75v1.75h5.25V248h-7v1.75h5.25v1.75H417.9v1.75h7V255h-7v3.5h8.75v1.75h-17.5V258.5h7V255h-7v-1.75h7V251.5H410.9v-1.75h5.25V248h-7v-1.75h5.25V244.5h1.75v1.75h1.75V244.5h1.75v-1.75H414.4v1.75h-1.75v-1.75h-3.5V241h7v-1.75H410.9V237.5h5.25Zm-12.25,1.75h1.75v1.75H403.9Zm1.75,1.75h1.75V241h-1.75Zm-5.25,7h7v12.25h-1.75v1.75H403.9v1.75h-1.75V258.5h1.75v-1.75h1.75v-10.5H400.4Zm7,12.25h1.75v1.75H407.4ZM431.2,234Zm22.75,0h1.75v26.25h-1.75V262H452.2v-1.75h1.75Zm-21,1.75h14v1.75h-7v1.75H438.2V241h-1.75v1.75H434.7v1.75h8.75v-1.75h1.75v1.75h1.75V248H445.2v-1.75h-5.25v5.25h5.25v1.75h-5.25v3.5h7v1.75h-7v1.75H434.7V262h-1.75v-1.75H431.2V258.5h7v-5.25h-5.25V251.5h5.25v-5.25h-3.5V248h-1.75v-1.75H431.2V244.5h1.75v-1.75h1.75V241h1.75v-1.75h1.75V237.5h-5.25Zm15.75,3.5h1.75V255H448.7Zm-7,1.75h1.75v1.75H441.7Zm8.75,17.5h1.75v1.75h-1.75ZM462,234Zm5.25,0H469v5.25h-1.75V262H465.5V244.5h-1.75v1.75H462V244.5h1.75v-1.75h1.75v-3.5h1.75Zm7,0H476v5.25h10.5v3.5h-1.75v1.75H483v-1.75h1.75V241h-10.5v1.75H472.5v1.75h-1.75v1.75H469V244.5h1.75v-1.75h1.75v-3.5h1.75Zm3.5,10.5h1.75v15.75h-1.75V262H476v-1.75h1.75Zm-3.5,3.5H476v3.5h-1.75v1.75H472.5V255h-1.75v-1.75h1.75V251.5h1.75Zm7,0H483v1.75h-1.75Zm1.75,1.75h1.75v1.75H483Zm1.75,1.75h1.75V255h-1.75Zm-10.5,7H476v1.75h-1.75ZM492.8,234Zm5.25,0h1.75v8.75h1.75V234h1.75v5.25h1.75V237.5h1.75v1.75h-1.75V241H503.3v1.75h3.5V241h7v-7h1.75v7h3.5v1.75h-3.5v17.5H513.8V262h-1.75v-1.75h1.75v-17.5h-7v1.75h-14v-1.75h5.25V241H496.3v-1.75h1.75Zm-3.5,3.5h1.75v1.75h-1.75Zm1.75,8.75h1.75V248H496.3Zm7,0h1.75V248H503.3v1.75h3.5v1.75h-5.25v1.75h3.5V255h-3.5v1.75h5.25v1.75h-5.25v1.75h-3.5V262H496.3v-1.75h-1.75V258.5h5.25V255h-3.5v-1.75h3.5V251.5h-5.25v-1.75h3.5V248h1.75v1.75h1.75V248h1.75Zm5.25,0h1.75V248h-1.75ZM510.3,248h1.75v3.5H510.3Zm0,10.5h1.75v1.75H510.3ZM523.6,234Zm10.5,0h1.75v1.75H534.1Zm1.75,1.75h1.75v1.75h10.5V241h-1.75v1.75H544.6V241h1.75v-1.75H527.1V241h-1.75v1.75H523.6V241h1.75v-3.5h10.5Zm-5.25,7h1.75v7h3.5V248h3.5v-1.75h1.75V244.5h1.75v1.75h1.75V248h-5.25v1.75h-3.5v1.75h-3.5v7H530.6Zm14,10.5h1.75v7h-14V258.5H544.6ZM554.4,234Zm5.25,0h1.75v3.5h-1.75v1.75h7v5.25h1.75V241h1.75v-7h1.75v5.25h7V258.5h-1.75v1.75H575.4V262h-1.75v-1.75h1.75V258.5h1.75V241h-7v3.5H568.4v1.75h-1.75v14H564.9V258.5h-7v1.75h-1.75v-21h1.75V237.5h1.75Zm-1.75,7v7h7v-7Zm12.25,5.25h1.75V248h-1.75ZM571.9,248h1.75v3.5H571.9Zm-14,1.75v7h7v-7Zm14,8.75h1.75v1.75H571.9ZM585.2,234Zm3.5,0h1.75v5.25h5.25V234h1.75v5.25h1.75V241h-1.75v10.5h3.5V235.75h8.75v24.5h-1.75V262H606.2v-1.75h1.75V251.5H602.7v5.25h-1.75v1.75H599.2v1.75h-1.75V262H595.7v-1.75h1.75V258.5h1.75v-1.75h1.75v-3.5H585.2V251.5h3.5V241h-1.75v-1.75h1.75Zm14,3.5v5.25h5.25V237.5ZM590.45,241v1.75h5.25V241Zm0,3.5v1.75h5.25V244.5Zm12.25,0v5.25h5.25V244.5ZM590.45,248v3.5h5.25V248Zm-1.75,7h1.75v3.5H588.7v1.75h-1.75V262H585.2v-1.75h1.75V258.5h1.75Zm5.25,0h1.75v1.75h-1.75Zm1.75,1.75h1.75v1.75H595.7Zm8.75,1.75h1.75v1.75h-1.75ZM616,234Zm7,0h1.75v3.5H623v1.75h-1.75V241H619.5v1.75h-1.75V241h1.75v-1.75h1.75V237.5H623Zm8.75,0h1.75v3.5h7v1.75h-7v5.25h8.75v1.75H637v3.5h5.25v1.75H637v8.75h-1.75V262H633.5v-1.75h1.75V251.5H630v1.75h-1.75V251.5h-3.5v-1.75h10.5v-3.5h-10.5V244.5h7v-5.25H626.5V237.5h5.25ZM623,241h1.75v3.5H623V262h-1.75V248H619.5v1.75h-1.75v1.75H616v-1.75h1.75V248h1.75v-1.75h1.75V244.5H623Zm7,12.25h1.75v3.5H630Zm1.75,5.25h1.75v1.75h-1.75Zm29.05-10.108a3.594,3.594,0,0,0-2.576,1.008,3.262,3.262,0,0,0-1.064,2.52,3.2,3.2,0,0,0,1.064,2.492,3.618,3.618,0,0,0,2.576,1.036,3.666,3.666,0,0,0,2.576-1.036,3.483,3.483,0,0,0,0-5.012A3.641,3.641,0,0,0,660.8,248.392Zm0,1.484a2.12,2.12,0,0,1,1.484.588,1.954,1.954,0,0,1,.644,1.456,2,2,0,0,1-.644,1.456,2.12,2.12,0,0,1-1.484.588,2.027,2.027,0,0,1-1.484-.588,1.858,1.858,0,0,1-.644-1.456,1.819,1.819,0,0,1,.644-1.456A2.027,2.027,0,0,1,660.8,249.876Zm24.556-2.044V263.12H678.44V265h8.96V247.832Z" transform="translate(0 -4)" fill="#fff"/>
</svg>
