<svg xmlns="http://www.w3.org/2000/svg" width="290" height="290" viewBox="0 0 290 290">
  <g id="mark" transform="translate(0 -0.25)">
    <rect id="Rectangle_40923" data-name="Rectangle 40923" width="290" height="290" transform="translate(0 0.25)" fill="#3c599e"/>
    <g id="Group_44419" data-name="Group 44419" transform="translate(18.513 26.761)">
      <path id="Path_60881" data-name="Path 60881" d="M489.209,439.617a289.066,289.066,0,0,1-12.015-39.875c-5.006-22.44-18.3-51.958-25.375-58.428s-49.369-20.8-49.369-20.8-45.054-10.53-55.584-10.185-15.708,2.928-15.708,2.928l-7.768,5.012s-7.94,3.97-9.321,5.351-27.964,15.708-37.286,20.887-18.125,14.5-27.446,32.97c-8.987,17.807-12.357,59.194-12.588,62.143Z" transform="translate(-236.75 -176.258)" fill="#9294a4"/>
      <path id="Path_60882" data-name="Path 60882" d="M415.233,207.151c.733,0,10.5-10.26,11.481-12.7,0,0,1.472-32.006.954-33.214a6.22,6.22,0,0,1-3.107-.863c-1.208-.863-5.869-7.25-7.077-9.839s-1.566-4.661-2.251-6.041-2.41-3.28-2.755-5.869-1.208-7.077,0-8.458a13.161,13.161,0,0,1,3.107-2.417s1.9-.172,4.232,2.244,4.917,8.631,4.917,8.631,3.673-18.815,3.045-20.369-5.98-13.119-3.908-15.881S439.061,87.7,447,86.663s28.309-3.28,34.006-2.244,20.714,15.536,21.4,18.988,0,17.089,0,17.089l-.863,15.191s2.244-6.042,3.625-5.869,2.244-.518,2.417,3.625c.079,1.909.085,3.891.069,5.474a7.532,7.532,0,0,1-1.452,4.477,2.486,2.486,0,0,0-.517,1.1c-.113.79-.447,3.2-.665,4.78a7.915,7.915,0,0,1-.823,2.584,16.042,16.042,0,0,0-1.1,2.475c-.345,1.208-1.3,1.745-1.554,2.589-.647,2.19-1.208,4.143-1.726,4.661a7.141,7.141,0,0,1-1.9,1.036s-1.554,12.256-2.935,14.5-6.041,10.184-6.041,10.184-.345,1.727-1.209,5.179S483.6,210.6,483.079,213.71s.863,10.357-3.625,13.982-31.762,14.673-48.851-5.006Z" transform="translate(-321.176 -67.214)" fill="#eeded5"/>
      <path id="Path_60883" data-name="Path 60883" d="M577.671,200.8s-.214.974-.435,2.02c-.316,1.5-.841,2.705.227,2.123.621-.339,1.577-.387,2.206-1.492a17.291,17.291,0,0,0,1.131-3.231,9.564,9.564,0,0,1,.466-1.383,2.23,2.23,0,0,1,.33-.459,5.716,5.716,0,0,0,1.046-1.72,12.752,12.752,0,0,1,.728-1.745,11.621,11.621,0,0,0,.969-2.229,20.312,20.312,0,0,0,.455-2.7c.11-.879.327-2.384.492-3.41.058-.36.435-.708.754-1.192a7.361,7.361,0,0,0,.661-1.406,8.15,8.15,0,0,0,.5-2.732s.75-6.855-.406-8.045c-1.625-1.673-1.738-1.717-3.462.125a10.586,10.586,0,0,0-2.243,4.69A148.756,148.756,0,0,1,577.671,200.8Z" transform="translate(-400.715 -109.542)" fill="#af9195" opacity="0.55"/>
      <path id="Path_60884" data-name="Path 60884" d="M563.339,163.516c-.911-.859-4.657,3.613-3.364,4.575s2.978,1.534,3.171,3.477a8.772,8.772,0,0,0,1.358,3.626s1.813,6.758,1.036,10.888-6.251,17.858-6.251,17.858-.145,14.725-1.219,18.882c-.585,2.261,2.807-5.168,5.88-14.742.6-1.856,1.286-3.8,1.827-5.76,1.8-6.5,3.055-13.045,3.052-16.238C568.82,176.974,566.058,166.079,563.339,163.516Z" transform="translate(-391.64 -105.426)" fill="#c8a894" opacity="0.47"/>
      <path id="Path_60885" data-name="Path 60885" d="M454.163,196.665s-5.42-24-5.679-26.2-2.463-8.415-2.915-10.228a59.8,59.8,0,0,1-1.357-10.357c.129-2.071-.011-9.192-.011-9.192l1.368-2.848a16.527,16.527,0,0,0,1.938,2.719c.459.259,7.58-4.418,7.838-5.049s5.535-.379,7.679.777,3.714,2.071,3.714,2.071l1.583-2.51s-7.437-3.269-10.322-2.9S448.484,137,448.484,137l-1.684-1.49,2.589-5.7-2.763-1.307,2.245-1.883.518-6.261-2.33-9.58s-.337-11.393-.388-13.723.518-4.013.129-4.143-16.312,12.04-17.089,16.442,3.107,18.9,2.978,19.679,1.234,10.53.919,12.17,3.526,34.633,4.906,37.179S454.163,196.665,454.163,196.665Z" transform="translate(-329.735 -71.439)" fill="#c8a894" opacity="0.47"/>
      <path id="Path_60886" data-name="Path 60886" d="M527.624,168.357l3.072,2.719s9.839-6.085,11.652-7.509S527.659,164.991,527.624,168.357Z" transform="translate(-376.993 -105.322)" fill="#c8a894"/>
      <path id="Path_60887" data-name="Path 60887" d="M549.039,178.215c-.388.129-7.644,1.554-12.043,0l-1.939-.777s4.409-4.362,6.862-4.272,6.534,1.5,6.957,2.884A3.871,3.871,0,0,1,549.039,178.215Z" transform="translate(-380.577 -110.131)" fill="#fff"/>
      <path id="Path_60888" data-name="Path 60888" d="M470.557,177.155c.388-.388,4.143,2.589,9.063,1.683s6.862-2.071,6.862-2.071-8.334-5.91-10.694-3.691A42.808,42.808,0,0,1,470.557,177.155Z" transform="translate(-349.478 -109.847)" fill="#fff"/>
      <path id="Path_60889" data-name="Path 60889" d="M473.783,256.935c.385.772,6.473,15.363,14.2,16.744s12.73,2.5,17.478-2.632,12.614-15.726,12.392-16.731,0-7.219,0-7.219-35.959,4.833-45.8-2.762C472.057,244.333,472.3,253.963,473.783,256.935Z" transform="translate(-350.202 -144.444)" fill="#f7e8e3" opacity="0.7"/>
      <circle id="Ellipse_742" data-name="Ellipse 742" cx="3.254" cy="3.254" r="3.254" transform="translate(124.428 62.665)" fill="#6d6458"/>
      <path id="Path_60890" data-name="Path 60890" d="M549.688,175.841a2.958,2.958,0,1,1-2.958-2.959,2.958,2.958,0,0,1,2.958,2.959Z" transform="translate(-384.778 -109.995)" fill="#6d6458"/>
      <path id="Path_60891" data-name="Path 60891" d="M466.057,176.021s2.978-4.4,6.085-4.79,6.6-.777,8.8.906a13.606,13.606,0,0,0,3.366,2.071l.777-.647s-6.991-4.013-11-3.237S467.87,171.36,466.057,176.021Z" transform="translate(-347.309 -108.713)" fill="#88695b"/>
      <path id="Path_60892" data-name="Path 60892" d="M533.557,174.086s6.344-4.472,8.156-4.243,6.6.38,7.768,2.117a31.509,31.509,0,0,1,2.071,3.679s-.388-5.249-4.272-5.8S540.289,168.389,533.557,174.086Z" transform="translate(-379.853 -108.332)" fill="#88695b"/>
      <path id="Path_60893" data-name="Path 60893" d="M492.376,252.314s3.777,3.678,6.208,4.714,8.6,1.146,10.845.906c3.237-.345,5.717-3.5,7.08-5.178C516.51,252.757,493.371,252.509,492.376,252.314Z" transform="translate(-359.998 -148.292)" fill="#cb8a89"/>
      <path id="Path_60894" data-name="Path 60894" d="M490.96,249.27s9.631-1.517,10.925-1.388a19.05,19.05,0,0,1,4.013,1.388s2.589-1.663,3.754-1.4,5.73,2.89,6.784,2.728S499.066,253.636,490.96,249.27Z" transform="translate(-359.316 -146.137)" fill="#b2706c"/>
      <path id="Path_60895" data-name="Path 60895" d="M520.723,230.127a29.018,29.018,0,0,1-7.117,4.272c-1.295.259-3.235,1.036-4.919,0s-3.237-2.377-4.4-2.936-2.979-.559-2.979-2.5,1.584.777,1.584.777l2.689-.648,6.473,1.165,6.732-2.589S522.144,228.185,520.723,230.127Z" transform="translate(-364.303 -136.409)" fill="#49291e" opacity="0.59"/>
      <g id="Group_44412" data-name="Group 44412" transform="translate(155.257 69.767)">
        <g id="Group_44411" data-name="Group 44411" opacity="0.47">
          <path id="Path_60896" data-name="Path 60896" d="M536.557,186.167l.17.1.5.21c.432.184,1.068.408,1.818.7l5.522,2.115c.5.193,1,.387,1.5.563.241.083.507.183.71.231a1.346,1.346,0,0,0,.356.039,2.008,2.008,0,0,0,.342-.015,10.549,10.549,0,0,0,2.595-.715,19.243,19.243,0,0,0,1.773-.788,5.706,5.706,0,0,0,.641-.368,4.224,4.224,0,0,1-.589.454,13.625,13.625,0,0,1-1.708.969c-.367.177-.774.349-1.213.516a6.957,6.957,0,0,1-1.446.384,2.616,2.616,0,0,1-.831,0,5.943,5.943,0,0,1-.792-.234c-.506-.175-1.011-.362-1.516-.552-1.006-.391-2.005-.795-2.933-1.2s-1.785-.8-2.518-1.136-1.331-.657-1.747-.88c-.21-.107-.369-.216-.476-.279Z" transform="translate(-536.557 -186.167)" fill="#c8a894"/>
        </g>
      </g>
      <g id="Group_44414" data-name="Group 44414" transform="translate(122.503 70.673)">
        <g id="Group_44413" data-name="Group 44413" opacity="0.47">
          <path id="Path_60897" data-name="Path 60897" d="M473.307,191.207l.123-.073a1.7,1.7,0,0,1,.387-.134,11,11,0,0,1,1.432-.225c.594-.064,1.287-.113,2.024-.173a17.592,17.592,0,0,0,2.268-.291,5.606,5.606,0,0,0,.555-.149c.184-.062.357-.121.538-.191.357-.139.713-.276,1.05-.424.679-.29,1.309-.576,1.851-.819l1.812-.811s-.648.465-1.675,1.076c-.514.3-1.124.642-1.8.97-.338.162-.688.33-1.058.475-.182.075-.381.145-.57.212a5.851,5.851,0,0,1-.589.167,13.514,13.514,0,0,1-2.356.24c-.747.024-1.442.018-2.036.015s-1.087-.009-1.429.029a1.576,1.576,0,0,0-.527.106Z" transform="translate(-473.307 -187.917)" fill="#c8a894"/>
        </g>
      </g>
      <g id="Group_44416" data-name="Group 44416" transform="translate(119.655 69.767)">
        <g id="Group_44415" data-name="Group 44415" opacity="0.47">
          <path id="Path_60898" data-name="Path 60898" d="M467.807,186.167s.21.064.572.2l1.495.531c.615.223,1.343.454,2.122.684.389.115.8.213,1.208.313a9.828,9.828,0,0,0,1.253.2,4.494,4.494,0,0,0,.621.023c.1-.006.2,0,.3-.015l.286-.056c.395-.1.807-.236,1.187-.366.771-.264,1.493-.514,2.1-.75l2.054-.762s-.187.115-.525.3-.818.45-1.415.73-1.291.613-2.063.91a11.7,11.7,0,0,1-1.216.421l-.349.073c-.116.014-.231.016-.347.023a4.824,4.824,0,0,1-.688-.016,10.461,10.461,0,0,1-1.321-.231c-.426-.106-.837-.235-1.23-.366-.786-.266-1.491-.581-2.094-.848s-1.084-.535-1.426-.709Z" transform="translate(-467.807 -186.167)" fill="#c8a894"/>
        </g>
      </g>
      <path id="Path_60899" data-name="Path 60899" d="M446.806,241.267c-.1-.353,8.415,12.429,9.969,14.888s17.737,12.558,20.844,12.688,13.847-.518,16.827-3.107,8.677-8.8,8.677-8.8,4.531-9.192,5.179-11.134,3.884-12.17,3.884-12.17l1.3-5.143a67.658,67.658,0,0,1,.363,7.732c-.131,3-1.116,8.71-1.7,9.825s-5.75,9.823-5.75,9.823-6.9,10.387-8.714,11.552-10.746,8.415-19.29,5.826-22.138-11.652-25.893-19.031S447.2,242.691,446.806,241.267Z" transform="translate(-338.027 -136.804)" fill="#5b4a3c" opacity="0.57"/>
      <path id="Path_60900" data-name="Path 60900" d="M446.784,255.65s.13,5.418.648,6.581,14.5,20.268,17.607,23.468,16.918,12.392,19.723,12.392,6.041,3.107,6.041,3.5a44.668,44.668,0,0,1-2.46,7.379c-.647.906-2.532,4.794-2.532,4.794s10.585-3.168,11.942-6.16,2.2-12.728,2.412-13.773,5.49-24.456,5.49-24.456l-2.294.886s-8.286,13.335-19.549,12.17-28.271-11.06-31.33-18.254a67.537,67.537,0,0,0-5.7-11S446.734,254.245,446.784,255.65Z" transform="translate(-338.006 -148.703)" fill="#5d4436" opacity="0.49"/>
      <path id="Path_60901" data-name="Path 60901" d="M443.07,282.763v-29.6s-4.5,24.643-3.968,27.855,2.8,19.529,2.8,19.529Z" transform="translate(-334.292 -148.703)" fill="#5d4436" opacity="0.32"/>
      <path id="Path_60902" data-name="Path 60902" d="M506.307,256.667a11.006,11.006,0,0,0,6.085,2.2,26.948,26.948,0,0,0,6.344-1.1s.259-.278-1.683-.43a40.231,40.231,0,0,0-4.526,0Z" transform="translate(-366.715 -150.391)" fill="#f9dadc"/>
      <path id="Path_60903" data-name="Path 60903" d="M582.463,198.942c.259-.518,1.554-2.071,1.813,0a14.825,14.825,0,0,1-.415,4.17,3.943,3.943,0,0,1-2.3,2.821h0Z" transform="translate(-402.996 -122.055)" fill="#c3928c"/>
      <path id="Path_60904" data-name="Path 60904" d="M584.218,186.051s3.412-6.648,4.059-7.079a1.738,1.738,0,0,1,1.3-.265V180.1S587.409,179.966,584.218,186.051Z" transform="translate(-404.279 -112.788)" fill="#5e332d" opacity="0.62"/>
      <path id="Path_60905" data-name="Path 60905" d="M523.494,169.676c-.08-.506,2.552-11.657,2.953-14.745a67.071,67.071,0,0,0,0-13.392,51.332,51.332,0,0,1-.751-9.063c.129-1.768-5.179-6.17-6.344-6.559s-20.326-1.036-21.362-2.46.13-14.5,0-14.888S512.17,103,512.17,103l3.133-3.366s-31.035-5.049-36.861-3.5-1.36,5.567-1.36,5.567,7.963,3.237,8.351,4.92-.777,16.442-.777,16.442-17.219,5.272-17.866,4.966,15.406,2.284,15.406,2.284l6.732,1.942a18.851,18.851,0,0,1,3.124,9.394,118.163,118.163,0,0,1,0,13.91c-.016,2.33-1.743,5.653-.966,6.818s1.409,2.717,3.324,2.777,4.478.669,5.275-1.051-.659-5.308-1.177-7.379-1.651-14.759-1.732-17.089,1.6-7.768,3.544-8.8,13.687-2.432,13.687-2.432l8.581,4.071a18.12,18.12,0,0,1,1.554,4.446c.388,2.2,1.036,12.558,1.036,12.558Z" transform="translate(-347.653 -72.851)" fill="#f7e8e3" opacity="0.7"/>
      <path id="Path_60906" data-name="Path 60906" d="M502.786,266.414c-.36-.146,3.752,5.7,4.53,5.955s8.028,0,8.028,0,4.013-4.92,4.143-5.955C519.487,266.414,510.166,269.392,502.786,266.414Z" transform="translate(-365.007 -155.089)" fill="#c8a894" opacity="0.47"/>
      <path id="Path_60907" data-name="Path 60907" d="M340.449,515.552l6.353.69h1.619l.314-1.726s5.006-20.887,5.524-26.929-1.381-16.571-1.381-16.571l-1.381,10.7-1.036,8.608-4.488-10.161,2.071,13.81s-5.352-18.47-7.6-22.268-3.97-2.071-3.97-2.071l8.113,32.625.69,9.149s-9.2-8.731-9.666-9.149c-1.458-1.322-2.417.172-2.244,1.208S340.449,515.552,340.449,515.552Z" transform="translate(-283.326 -252.883)" fill="#55555f"/>
      <path id="Path_60908" data-name="Path 60908" d="M691.866,452.73a25.968,25.968,0,0,0-.281-2.836A15.973,15.973,0,0,0,691.866,452.73Z" transform="translate(-456.032 -243.537)" fill="#55555f"/>
      <path id="Path_60909" data-name="Path 60909" d="M630.689,475.3h32.618l.2-2.071s2.935-20.024,2.589-24.339c-.269-3.368-2.7-20.8-3.575-27.756.551,7.608,1.5,27.86,1.5,30,0,2.589-3.107,19.506-3.28,20.714s-8.113,1.727-8.113,1.727,1.381-2.762,2.589-5.524,2.935-18.3,2.935-18.3l-2.244,6.559s-4.833,11.048-8.8,16.227-6.559-4.316-6.559-4.316.345-5.351.69-5.869,4.488-9.494,8.113-15.881,4.488-27.791,4.833-32.452-1.9-13.292-1.9-13.292c.866,8.63-1.726,28.655-2.071,29.863s-6.559,16.226-6.559,16.226l1.036-10.357c2.762-7.25,1.9-23.3,1.9-23.3-.172,6.042-3.8,21.232-3.107,17.435s-1.554-20.542-1.726-21.232.863-.173,1.036-1.554,2.762-23.477,2.762-23.477l-3.616,22.786-2.253-1.726,2.253,10.53s-.181,25.375-.009,27.792-2.244,13.637-2.244,13.637-2.935-2.071-3.625-4.143-2.762,3.453-2.589,6.9C633.608,462.89,631.514,471.694,630.689,475.3Z" transform="translate(-426.685 -211.944)" fill="#55555f"/>
      <path id="Path_60910" data-name="Path 60910" d="M420.529,323.841s15.432,24.283,18.225,26.135c8.458,5.61,30.634,13.464,41.986,4.143s8.246-23.821,8.246-23.821l-2.153-5.049s-3.133,20.462-16.7,22.05c-15.334,1.8-23.624,6.647-51.755-25.632Z" transform="translate(-324.321 -181.73)" fill="#515361"/>
      <path id="Path_60911" data-name="Path 60911" d="M417.641,179.934s.863-2.968,2.762-1.462,3.453,3.145,2.935,4.052c-.065.113-.189.242-.145.371.367,1.056.835,1.1,1.828,2.207l1.775,1.392s.167-4.79-2.594-7.465-4.79-6.3-6.646-7.228c-1.72-.86-2.359-.535-2.5,1.665S417.3,178.855,417.641,179.934Z" transform="translate(-322.714 -109.261)" fill="#5e332d" opacity="0.62"/>
      <path id="Path_60912" data-name="Path 60912" d="M422.614,195.53c.185-1.207.341,5.351,1.9,7.422s3.109,4.661,3.109,4.661-1.212.044-3.109-1.7S422.268,197.774,422.614,195.53Z" transform="translate(-326.306 -120.843)" fill="#c3928c"/>
      <path id="Path_60913" data-name="Path 60913" d="M527.057,167.988a35.115,35.115,0,0,1,6.6-3.884c2.978-1.165,6.344-2.848,8.415-2.719s6.085.259,6.732,1.036a3.69,3.69,0,0,1,.518,2.262l2.2,2.4s1.424-3.237.906-4.661-2.719-3.754-6.732-3.754S534.3,158.8,531.455,161,527.186,165.14,527.057,167.988Z" transform="translate(-376.719 -103.141)" fill="#8e6546"/>
      <path id="Path_60914" data-name="Path 60914" d="M460.624,162.357c.292.255,7.509-1.036,8.933-1.165s9.71-.647,11.522,1.165,4.79,4.531,4.79,4.531v-4.661s-3.754-3.5-5.955-3.884-7.638-.518-9.58,0-5.826-.425-6.6-.342S459.589,161.451,460.624,162.357Z" transform="translate(-344.595 -102.818)" fill="#8e6546"/>
      <path id="Path_60915" data-name="Path 60915" d="M501.306,221.355c-.034-.659.965,1.942,1.583,1.813s2.948-.927,3.854-.529,4.143.288,5.437.538a3.143,3.143,0,0,0,1.2-.078c1.852-.4,3.318-.5,3.94-2.294a19.675,19.675,0,0,0,.69-4.243v-.644a31.783,31.783,0,0,1,1.424,3.64,10.034,10.034,0,0,0,1.292,2.315c.131.259.522,1.181.037,1.338s-1.846-.452-2.752-.013c-1.812.876-3.884,2.559-5.049,2.559s-2.729.259-3.7-.518a8.7,8.7,0,0,0-3.685-1.812C505.144,223.351,501.565,226.4,501.306,221.355Z" transform="translate(-364.303 -130.744)" fill="#c8a894"/>
      <g id="Group_44418" data-name="Group 44418" transform="translate(121.079 62.539)">
        <g id="Group_44417" data-name="Group 44417">
          <path id="Path_60916" data-name="Path 60916" d="M485.445,176.977c.328-.175.657-.349.99-.512l-.02.238q-1.043-.472-2.062-.983c-.341-.165-.675-.339-1.013-.491s-.678-.293-1.023-.429c-.687-.283-1.4-.514-2.1-.746s-1.428-.417-2.144-.594c-.358-.08-.718-.161-1.073-.21-.09-.016-.176-.023-.264-.034l-.065-.008H476.6a.623.623,0,1,1,.064,0l-.142.009a1.325,1.325,0,0,0-.428.079c-.139.048-.309.122-.463.189-.157.084-.317.161-.474.251-.314.183-.631.372-.941.576-1.239.83-2.438,1.759-3.664,2.673a20.643,20.643,0,0,1,1.508-1.731c.264-.278.543-.541.822-.806s.573-.515.871-.763a10.051,10.051,0,0,1,.94-.7,6.482,6.482,0,0,1,1.091-.588,2.7,2.7,0,0,1,.678-.164l.142-.013h.144l.076.007c.1.01.2.017.3.032.4.048.781.125,1.165.2a19.649,19.649,0,0,1,2.235.645c.367.122.728.263,1.084.414s.711.3,1.06.474.688.354,1.031.553.658.4.973.619q.946.637,1.871,1.311l.233.17-.253.067C486.169,176.808,485.808,176.894,485.445,176.977Z" transform="translate(-470.557 -172.209)" fill="#3c1d0f"/>
        </g>
      </g>
      <path id="Path_60917" data-name="Path 60917" d="M535.057,177.439s4.272-4.272,6.862-4.272,6.991.259,8.027,2.136a10.543,10.543,0,0,0,2.33,2.913l-2.978-.777a3.726,3.726,0,0,0-2.719-3.237C543.88,173.223,540.236,172.52,535.057,177.439Z" transform="translate(-380.577 -110.132)" fill="#3c1d0f"/>
      <path id="Path_60918" data-name="Path 60918" d="M483.471,175.833a2.372,2.372,0,1,1-2.372-2.373,2.372,2.372,0,0,1,2.372,2.373Z" transform="translate(-353.417 -110.273)" fill="#3c1d0f"/>
      <path id="Path_60919" data-name="Path 60919" d="M549.648,175.833a2.373,2.373,0,1,1-2.372-2.373A2.373,2.373,0,0,1,549.648,175.833Z" transform="translate(-385.324 -110.273)" fill="#3c1d0f"/>
      <circle id="Ellipse_743" data-name="Ellipse 743" cx="1.19" cy="1.19" r="1.19" transform="translate(125.261 63.722)" fill="#fff"/>
      <circle id="Ellipse_744" data-name="Ellipse 744" cx="1.19" cy="1.19" r="1.19" transform="translate(161.511 63.657)" fill="#fff"/>
      <path id="Path_60920" data-name="Path 60920" d="M486.307,250.445s9.71,1.942,11.911,2.2c2.164.254,4.2.634,4.271.647h0c.108-.013,5.316-.648,6.213-.776s4.454-.345,5.36-.6a20.818,20.818,0,0,0,3.575-1.374.037.037,0,0,0-.028-.067c-.9.149-5.451,1.325-6.965,1.442-1.683.129-5.885.266-7.892.4s-12.792-1.341-15.529-2.633a.028.028,0,0,0-.024,0C487.046,249.723,485.4,250.266,486.307,250.445Z" transform="translate(-356.942 -147.018)" fill="#5c331b"/>
      <path id="Path_60921" data-name="Path 60921" d="M417.966,317.59l4.659-4.379a21.64,21.64,0,0,0-4.308,1.438,2.1,2.1,0,0,0-.351,2.941Z" transform="translate(-323.909 -177.653)" fill="#515361"/>
      <path id="Path_60922" data-name="Path 60922" d="M417.939,112.322s.738-10.358.227-12.257,0,0,0-11.738c0-2.768,5.816-10.185,5.816-10.185s1.268-5.006,2.649-6.732a29.457,29.457,0,0,1,5.006-4.143s4.316-5.524,6.214-6.387a64.727,64.727,0,0,1,8.761-3.107c1.77-.345,11.954-4.834,12.817-5.869s3.266,0,3.266,0,9.5.173,10.538.691,13.9,5.7,15.93,6.559,3.236.518,5.135,2.417,8.372,8.976,8.372,8.976,4.229,10.7,5.265,13.464.69,18.3.69,20.714-1.9,10.5-1.9,10.5l-2.677,8.2s-3.639-9.243-3.069-14.575,2.3-13.79,1.691-16.379-7.352-12.256-10.02-13.982-7.03-4.052-7.03-4.052-3.751,2.325-6.254,2.671-11.132-2.969-12.947-2.671-7.378,1.937-9.45,1.117-6.516-1.716-6.6-1.117-5.7,3.706-6.6,3.188-3.456-.345-3.821-.345-1.918,4.143-3.127,4.488-1.554-1.208-2.244.69-5.495,5.524-4.9,8.459,3.425,9.666,3.215,12.6-.727,14.328-1.245,17.694-1.97,8.545-1.97,8.545L428.19,131.3s-.645-9.007-1.766-11.172-6.584-9-7.906-8.156" transform="translate(-324.109 -51.444)" fill="#4d3928"/>
      <path id="Path_60923" data-name="Path 60923" d="M517.488,85.637c-1.222.735-4.747-7.683-5.61-8.5s-7.9-4.538-7.9-4.538l-6.348-1.632s-.67,5.006-1.585,4.833-11,1.337-11,1.337h-5.621l-5.179-5.307-10.352.769-12.261,4.538-2.961,5.6,4-9.181-1.554.518,5.7-5.869-3.107,1.208,8.631-4.833,12.774-4.316a49.5,49.5,0,0,1,5.092,0,50.73,50.73,0,0,0,6.819,1.036,54.753,54.753,0,0,1,13.417,3.625c4.017,1.727,12.9,9.924,14.33,12.212S517.488,85.637,517.488,85.637Z" transform="translate(-338.927 -55.658)" fill="#ae836b" opacity="0.64"/>
    </g>
  </g>
</svg>
