<svg xmlns="http://www.w3.org/2000/svg" width="740" height="98" viewBox="0 0 740 98">
  <g id="mark-t" transform="translate(-475 -39.001)">
    <g id="Exclusion_19" data-name="Exclusion 19" transform="translate(6642 5051)" fill="#15172a">
      <path d="M -5433.0009765625 -4915.99951171875 L -6159.43603515625 -4915.99951171875 L -6159.43603515625 -4916.40478515625 L -6159.43603515625 -4918.40478515625 L -6161.43603515625 -4918.40478515625 L -6165 -4918.40478515625 L -6165 -5007.59423828125 L -6161.43603515625 -5007.59423828125 L -6159.43603515625 -5007.59423828125 L -6159.43603515625 -5009.59423828125 L -6159.43603515625 -5009.9990234375 L -5433.0009765625 -5009.9990234375 L -5433.0009765625 -5008 L -5433.0009765625 -5006 L -5431.0009765625 -5006 L -5429 -5006 L -5429 -4920.00048828125 L -5431.0009765625 -4920.00048828125 L -5433.0009765625 -4920.00048828125 L -5433.0009765625 -4918.00048828125 L -5433.0009765625 -4915.99951171875 Z" stroke="none"/>
      <path d="M -5435.0009765625 -4917.99951171875 L -5435.0009765625 -4918.00048828125 L -5435.0009765625 -4922.00048828125 L -5431.0009765625 -4922.00048828125 L -5431 -4922.00048828125 L -5431 -5004 L -5431.0009765625 -5004 L -5435.0009765625 -5004 L -5435.0009765625 -5007.9990234375 L -6157.43603515625 -5007.9990234375 L -6157.43603515625 -5005.59423828125 L -6161.43603515625 -5005.59423828125 L -6163 -5005.59423828125 L -6163 -4920.40478515625 L -6161.43603515625 -4920.40478515625 L -6157.43603515625 -4920.40478515625 L -6157.43603515625 -4917.99951171875 L -5435.0009765625 -4917.99951171875 M -5431.0009765625 -4913.99951171875 L -6161.43603515625 -4913.99951171875 L -6161.43603515625 -4916.40478515625 L -6167 -4916.40478515625 L -6167 -5009.59423828125 L -6161.43603515625 -5009.59423828125 L -6161.43603515625 -5011.9990234375 L -5431.0009765625 -5011.9990234375 L -5431.0009765625 -5008 L -5427 -5008 L -5427 -4918.00048828125 L -5431.0009765625 -4918.00048828125 L -5431.0009765625 -4914.00048828125 L -5431.0009765625 -4913.99951171875 Z" stroke="none" fill="#fff"/>
    </g>
    <path id="Path_54369" data-name="Path 54369" d="M0-24Zm4.5,0H6v4.5H4.5V0H3V-15H1.5v1.5H0V-15H1.5v-1.5H3v-3H4.5Zm6,0H12v4.5h9v3H19.5V-15H18v-1.5h1.5V-18h-9v1.5H9V-15H7.5v1.5H6V-15H7.5v-1.5H9v-3h1.5Zm3,9H15V-1.5H13.5V0H12V-1.5h1.5Zm-3,3H12v3H10.5v1.5H9V-6H7.5V-7.5H9V-9h1.5Zm6,0H18v1.5H16.5ZM18-10.5h1.5V-9H18ZM19.5-9H21v3H19.5Zm-9,6H12v1.5H10.5ZM26.4-24Zm6,1.5H42.9v15h6V-6H41.4v1.5H39.9V-6H35.4v1.5H33.9V-3H32.4v1.5H30.9V0H29.4V-1.5h1.5V-3h1.5V-4.5h1.5V-6H26.4V-7.5h6ZM33.9-21v3h7.5v-3Zm0,4.5V-15h7.5v-1.5Zm0,3V-12h7.5v-1.5Zm0,3v3h7.5v-3Zm7.5,6h1.5V-3H41.4ZM42.9-3h1.5V0H42.9Zm9.9-21Zm9,0h1.5v3h12v1.5H61.8v3h9v15H69.3V0H67.8V-1.5h1.5V-6h-9V0H58.8V-12H57.3v1.5H55.8V-9H54.3v1.5H52.8V-9h1.5v-1.5h1.5V-12h1.5v-1.5h1.5v-3h1.5v-3H52.8V-21h9Zm-1.5,9v3h9v-3Zm0,4.5v3h9v-3Zm6,7.5h1.5v1.5H66.3ZM79.2-24Zm4.5,1.5h16.5V-21H92.7v1.5h6V-18h-6v1.5h6V-15h-6v3h7.5v9H98.7v1.5H97.2V0H95.7V-1.5h1.5V-3h1.5v-7.5h-15ZM85.2-21v1.5h6V-21Zm0,3v1.5h6V-18Zm0,3v3h6v-3Zm-3,6h1.5v4.5H82.2V-3H80.7V-4.5h1.5Zm3,0h1.5v1.5H85.2Zm4.5,0h1.5v1.5H89.7Zm4.5,0h1.5v1.5H94.2ZM86.7-7.5h1.5v3H86.7Zm4.5,0h1.5v3H91.2Zm4.5,0h1.5v3H95.7ZM94.2-3h1.5v1.5H94.2Zm11.4-21Zm10.5,0h1.5v3h10.5v1.5H117.6v3h6V-9h-3v7.5h-1.5V-9h-4.5v4.5h-1.5V-3h-1.5v1.5h-3V0h-3V-1.5h3V-3h3V-4.5h1.5V-9h-3v-7.5h6v-3H105.6V-21h10.5Zm-4.5,9v4.5h10.5V-15Zm15,10.5h1.5V0h-7.5V-1.5h6ZM144-10.128a1.411,1.411,0,0,0-1.056.432,1.392,1.392,0,0,0-.408,1.056,1.428,1.428,0,0,0,.408,1.056A1.488,1.488,0,0,0,144-7.176a1.53,1.53,0,0,0,1.056-.408,1.449,1.449,0,0,0,.432-1.056,1.411,1.411,0,0,0-.432-1.056A1.449,1.449,0,0,0,144-10.128ZM158.4-24Zm3,0h1.5v1.5h-1.5Zm1.5,1.5h1.5v3h3v3h-1.5V-15h-1.5v1.5h1.5V-12h-1.5V0h-1.5V-12h-1.5v1.5h-1.5V-9h-1.5v-1.5h1.5V-12h1.5v-1.5h1.5V-15h1.5v-1.5h1.5V-18h-7.5v-1.5h4.5Zm6,1.5h9V-3h3v1.5h-15V-3h3Zm1.5,1.5V-15h6v-4.5Zm0,6V-9h6v-4.5ZM165.9-12h1.5v3h-1.5Zm4.5,4.5V-3h6V-7.5ZM184.8-24Zm10.5,0h1.5v3h10.5v1.5H196.8v3h6V-9h-3v7.5h-1.5V-9h-4.5v4.5h-1.5V-3h-1.5v1.5h-3V0h-3V-1.5h3V-3h3V-4.5h1.5V-9h-3v-7.5h6v-3H184.8V-21h10.5Zm-4.5,9v4.5h10.5V-15Zm15,10.5h1.5V0h-7.5V-1.5h6ZM211.2-24Zm6,0h1.5v4.5h-1.5V0h-1.5V-15h-1.5v1.5h-1.5V-12h-1.5v-1.5h1.5V-15h1.5v-1.5h1.5v-3h1.5Zm9,0h1.5v3h-1.5v1.5h6V0h-1.5V-3h-7.5V0h-1.5V-19.5h3V-21h1.5Zm-3,6v6h7.5v-6Zm0,7.5v6h7.5v-6Zm14.448-6.828h3.408v3.5h3.5v3.456h3.456v-3.456h3.456v-3.5h3.384v17.3h-3.384V-10.368h-3.456V-6.96H244.56v-3.408h-3.5V-.024h-3.408Zm23.088,0H271.1v17.3h-3.5v-13.8h-3.456v13.8h-3.408Zm3.408,6.96H267.6V-6.96h-3.456Zm12.864-6.984h10.416V-13.9h-6.912v3.456h3.408v3.456h3.5V-.048h-3.5V-6.984h-3.456V-.048h-3.456Zm6.96,3.456h3.456v3.456h-3.456Zm9.288-3.432h3.456v6.984h3.456v-6.984h3.48v6.984h-3.48v3.408h3.48V-.048h-3.48V-6.936h-3.456V-.048h-3.456Zm25.488.048h10.392V-10.3h-3.48v3.36h-3.408v3.5h6.888V0H318.744V-6.936h3.5V-10.3h3.408v-3.528h-6.912Zm16.2,0H338.4V-3.456h3.5V-17.28h3.408V-.024H334.944Zm16.224-.048h10.32V-13.9H354.6V-3.432h6.888V-.024h-10.32Zm16.3,0h3.456v6.984h3.456v-6.984h3.48v6.984h-3.48v3.408h3.48V-.048h-3.48V-6.936H370.92V-.048h-3.456Zm16.152.048h10.368v3.48h-6.936v3.456h3.5v3.48h-3.5v3.48h6.936V.024H383.616Zm16.272-.072H410.3V-13.9h-6.912v3.456H406.8v3.456h3.5V-.048h-3.5V-6.984h-3.456V-.048h-3.456Zm6.96,3.456H410.3v3.456h-3.456Zm9.192-3.336h10.3v3.456H419.5v3.528H429.84V-6.84H419.448v3.456H429.84V.048h-13.8Zm6.912,3.456h3.384v3.528h-3.384Zm3.384,6.936h3.5v3.456h-3.5Zm9.408-10.44h10.368v3.48h-6.936v3.456h3.5v3.48h-3.5v3.48h6.936V.024H435.744Zm16.272-.072h10.416V-13.9H455.52v3.456h3.408v3.456h3.5V-.048h-3.5V-6.984h-3.456V-.048h-3.456Zm6.96,3.456h3.456v3.456h-3.456Zm9.24-3.408h13.872v3.5H471.672V-3.48h6.912V-6.888h-3.456l-.024-3.456h6.984v10.3H468.216ZM487.872-24Zm4.5,0h1.5v3h-1.5v1.5h6V-15h1.5v-3h1.5v-6h1.5v4.5h6V-3h-1.5v1.5h-1.5V0h-1.5V-1.5h1.5V-3h1.5V-18h-6v3h-1.5v1.5h-1.5v12h-1.5V-3h-6v1.5h-1.5v-18h1.5V-21h1.5Zm-1.5,6v6h6v-6Zm10.5,4.5h1.5V-12h-1.5Zm1.5,1.5h1.5v3h-1.5Zm-12,1.5v6h6v-6Zm12,7.5h1.5v1.5h-1.5Zm11.4-21Zm6,0h1.5v3h7.5v-3h1.5v3h6v1.5h-6V-18h3v4.5h-16.5V-18h3v-1.5h-6V-21h6Zm1.5,4.5V-18h7.5v-1.5Zm-3,3V-15h3v-1.5Zm4.5,0V-15h4.5v-1.5Zm6,0V-15h3v-1.5Zm-13.5,4.5h21v3h-1.5v1.5h-1.5V-9h1.5v-1.5h-10.5V-9h7.5v3h-1.5v1.5h-3V-3h-3v1.5h-3V0h-6V-1.5h6V-3h3V-4.5h3V-6h3V-7.5h-7.5V-6h-3v1.5h-3V-6h3V-7.5h1.5V-9h1.5v-1.5h-6V-9h-1.5v1.5h-1.5V-9h1.5Zm7.5,6h1.5v1.5h-1.5Zm17.4-18Zm6,0h1.5v4.5h3V-18h-3v1.5h1.5V-15h-1.5v7.5h-1.5V-15h-1.5v1.5h-1.5V-12h-1.5v-1.5h1.5V-15h1.5v-1.5h1.5V-18h-4.5v-1.5h4.5Zm6,1.5h7.5V-9h-7.5Zm1.5,1.5v3h4.5v-3Zm0,4.5V-15h4.5v-1.5Zm-4.5,1.5h1.5v1.5h-1.5Zm4.5,1.5v3h4.5v-3Zm-4.5,4.5h1.5v1.5h-1.5Zm1.5,1.5h1.5v3h-1.5Zm-7.5,1.5h1.5v3h-1.5v1.5h-1.5V-3h1.5Zm3,0h1.5v4.5h-1.5Zm12,0h1.5v1.5h-1.5Zm-3,1.5h1.5V0h-9V-1.5h7.5Zm4.5,0h1.5v3h-1.5Zm6.948-12.828h6.864v3.5h-3.408V-3.456h3.408V-.072H567.12Zm6.864,3.5h3.408V-3.456h-3.408Zm9.312-3.528h3.5v3.5h3.456v3.456h3.408v-6.96h3.5v17.3h-3.456V-6.984h-3.456v-3.408H586.8V-.048h-3.5Zm19.68.024h10.368v17.3h-3.5v-13.8h-3.456v13.8h-3.408Zm3.408,6.96h3.456V-6.96h-3.456Z" transform="translate(537 98)" fill="#fff"/>
  </g>
</svg>
