<svg xmlns="http://www.w3.org/2000/svg" width="687.963" height="74.643" viewBox="0 0 687.963 74.643">
  <path id="mid-t" d="M-156.8-28Zm10.5,0h1.75v1.75h-1.75Zm1.75,1.75h1.75v1.75h10.5V-21h-1.75v1.75h-1.75V-21h1.75v-1.75H-153.3V-21h-1.75v1.75h-1.75V-21h1.75v-3.5h10.5Zm-7,7h14v1.75h-14Zm-3.5,5.25h22.75v1.75h-8.75V-3.5h-1.75v-8.75h-3.5V-7h-1.75v3.5h-1.75v1.75h-1.75V0h-3.5V-1.75h3.5V-3.5h1.75V-7h1.75v-5.25h-7Zm21,5.25h1.75v7h-8.75V-3.5h7ZM-126-28Zm14,0h1.75v5.25H-105v-3.5h1.75v3.5h3.5V-21h-10.5v5.25H-112V-21h-8.75v5.25h7V-7h-1.75v1.75h-1.75V-7h1.75v-7h-5.25v8.75h-1.75V-3.5h-1.75v1.75H-126V-3.5h1.75V-5.25h1.75v-17.5H-112Zm5.25,0H-105v1.75h-1.75Zm3.5,10.5h1.75V-14h-1.75v3.5H-105v1.75h-1.75v3.5h-3.5V-3.5H-112v1.75h-1.75V0h-1.75V-1.75h1.75V-3.5H-112V-5.25h1.75V-7h1.75v-3.5h3.5V-14h1.75Zm-7,1.75h1.75v5.25h-1.75Zm-8.75,7h1.75V-7H-119ZM-101.5-7h1.75V0h-3.5V-1.75h1.75Zm-5.25,1.75H-105V-3.5h-1.75ZM-105-3.5h1.75v1.75H-105ZM-95.2-28Zm7,0h1.75v3.5h8.75V-28h1.75v3.5h7v1.75h-7V-21h3.5v5.25H-91.7V-21h3.5v-1.75h-7V-24.5h7Zm1.75,5.25V-21h8.75v-1.75Zm-3.5,3.5v1.75h3.5v-1.75Zm5.25,0v1.75h5.25v-1.75Zm7,0v1.75h3.5v-1.75ZM-93.453-14h24.5v3.5H-70.7v1.75h-1.75V-10.5h1.75v-1.75h-12.25v1.75h8.75V-7h-1.75v1.75h-3.5V-3.5h-3.5v1.75h-3.5V0h-7V-1.75h7V-3.5h3.5V-5.25h3.5V-7h3.5V-8.75H-84.7V-7h-3.5v1.75h-3.5V-7h3.5V-8.75h1.75V-10.5h1.75v-1.75h-7v1.75h-1.75v1.75H-95.2V-10.5h1.75Zm8.75,7h1.75v1.75H-84.7Zm20.3-21Zm7,0h1.75v5.25h3.5V-21h-3.5v1.75h1.75v1.75h-1.75v8.75H-57.4V-17.5h-1.75v1.75H-60.9V-14h-1.75v-1.75h1.75V-17.5h1.75v-1.75h1.75V-21h-5.25v-1.75h5.25Zm7,1.75h8.75V-10.5H-50.4Zm1.75,1.75V-21h5.25v-3.5Zm0,5.25v1.75h5.25v-1.75ZM-53.9-17.5h1.75v1.75H-53.9Zm5.25,1.75v3.5h5.25v-3.5ZM-53.9-10.5h1.75v1.75H-53.9Zm1.75,1.75h1.75v3.5h-1.75ZM-60.9-7h1.75v3.5H-60.9v1.75h-1.75V-3.5h1.75Zm3.5,0h1.75v5.25H-57.4Zm14,0h1.75v1.75H-43.4Zm-3.5,1.75h1.75V0h-10.5V-1.75h8.75Zm5.25,0h1.75v3.5h-1.75ZM-33.6-28Zm10.5,0h1.75v3.5h14v1.75H-23.1v3.5h10.5v17.5h-1.75V0H-16.1V-1.75h1.75V-7h-10.5V0H-26.6V-14h-1.75v1.75H-30.1v1.75h-1.75v1.75H-33.6V-10.5h1.75v-1.75h1.75V-14h1.75v-1.75h1.75v-3.5h1.75v-3.5H-33.6V-24.5h10.5Zm-1.75,10.5V-14h10.5v-3.5Zm0,5.25v3.5h10.5v-3.5Zm7,8.75h1.75v1.75h-1.75ZM-2.8-28Zm7,0h1.75v3.5H4.2V-21H2.447v1.75H.7v1.75h-1.75v1.75H-2.8V-17.5h1.75v-1.75H.7V-21h1.75v-3.5H4.2Zm3.5,1.75h12.25V-14h-7v3.5H11.2V-14H9.447V-3.5H11.2V-5.25h1.75V-3.5H11.2v1.75H9.447V0H7.7Zm1.75,1.75V-21H18.2v-3.5ZM4.2-19.25h1.75v3.5H4.2V0H2.447V-12.25H.7v1.75h-1.75v1.75H-2.8V-10.5h1.75v-1.75H.7V-14h1.75v-1.75H4.2Zm5.25,0v3.5H18.2v-3.5Zm10.5,7H21.7v1.75h-1.75v1.75H18.2V-7h-1.75v1.75H14.7V-7h1.75V-8.75H18.2V-10.5h1.75Zm-7,1.75H14.7V-7h-1.75Zm3.5,5.25h3.5V-3.5h-3.5Zm3.5,1.75h3.5v1.75h-3.5ZM28-28Zm10.5,0h1.75v3.5H49v1.75h-1.75V-21H45.5v1.75h-1.75v1.75h-3.5v1.75H38.5V-14H35v1.75h-5.25V-14H35v-1.75h3.5V-17.5h1.75v-1.75h3.5V-21H45.5v-1.75h-8.75v3.5h-3.5v1.75H31.5v-1.75h1.75V-21H35v-1.75h1.75V-24.5H38.5Zm-1.75,8.75H38.5v1.75h-1.75Zm7,1.75H45.5v1.75h-1.75V-14H52.5v1.75h-1.75v1.75H49v1.75h-1.75V-7H45.5v1.75h-1.75V-3.5h-3.5v1.75H35V0h-5.25V-1.75H35V-3.5h5.25V-7H42v1.75h1.75V-7H45.5V-8.75h1.75V-10.5H49v-1.75h-8.75v1.75H38.5v1.75H35V-7H31.5V-8.75H35V-10.5h3.5v-1.75h1.75V-14H42v-1.75h1.75ZM38.5-8.75h1.75V-7H38.5ZM58.8-28Zm10.5,0h1.75v1.75H69.3Zm1.75,1.75H72.8v3.5h-1.75ZM58.8-21h26.25v1.75H69.3v3.5H79.8V-3.5h-1.75v1.75H76.3V0h-1.75V-1.75H76.3V-3.5h1.75V-14H69.3v5.25h-1.75v3.5H65.8V-3.5h-1.75v1.75H62.3V0h-1.75V-1.75H62.3V-3.5h1.75V-5.25H65.8v-3.5h1.75v-10.5H58.8Zm14,17.5h1.75v1.75H72.8ZM89.6-28Zm15.75,0h1.75v7h7v1.75h-7V-14h8.75v1.75h-10.5v3.5H103.6V-7h-1.75v1.75h8.75V-7h1.75v1.75h1.75v3.5h-1.75V-3.5h-10.5v1.75H100.1V-3.5h-1.75V-5.25h1.75V-7h1.75V-8.75h1.75v-3.5h-5.25V-14h7v-5.25H100.1V-21h5.25ZM93.1-26.25h1.75v1.75H93.1Zm1.75,1.75H96.6V-21h-1.75ZM89.6-21h1.75v1.75H89.6Zm1.75,1.75H93.1v3.5h-1.75ZM96.6-17.5h1.75v1.75H96.6v3.5h-1.75v10.5H93.1v-7H89.6V-10.5h3.5v-1.75h1.75v-3.5H96.6Zm12.25,8.75h1.75V-7h-1.75ZM123.2.643a1.9,1.9,0,0,1-1.374-.588,1.88,1.88,0,0,1-.595-1.381,1.858,1.858,0,0,1,.595-1.374,1.908,1.908,0,0,1,1.374-.581,1.893,1.893,0,0,1,1.36.581,1.858,1.858,0,0,1,.595,1.374A1.88,1.88,0,0,1,124.56.055,1.883,1.883,0,0,1,123.2.643Zm5.592,0a1.875,1.875,0,0,1-1.367-.588,1.89,1.89,0,0,1-.588-1.381,1.868,1.868,0,0,1,.588-1.374,1.886,1.886,0,0,1,1.367-.581,1.908,1.908,0,0,1,1.374.581,1.858,1.858,0,0,1,.595,1.374,1.88,1.88,0,0,1-.595,1.381A1.9,1.9,0,0,1,128.792.643Zm5.605,0a1.9,1.9,0,0,1-1.374-.588,1.88,1.88,0,0,1-.595-1.381,1.858,1.858,0,0,1,.595-1.374,1.908,1.908,0,0,1,1.374-.581,1.886,1.886,0,0,1,1.367.581,1.868,1.868,0,0,1,.588,1.374,1.89,1.89,0,0,1-.588,1.381A1.875,1.875,0,0,1,134.4.643Zm14,0a2.145,2.145,0,0,1-1.572-.656,2.145,2.145,0,0,1-.656-1.572,2.127,2.127,0,0,1,.663-1.579,2.163,2.163,0,0,1,1.565-.649,2.163,2.163,0,0,1,1.565.649,2.127,2.127,0,0,1,.663,1.579,2.145,2.145,0,0,1-.656,1.572A2.145,2.145,0,0,1,148.395.643ZM-347.2,18Zm5.25,0h1.75v5.25h-1.75V28.5h1.75V26.75h1.75V25h1.75V23.25h1.75V21.5h1.75V18h1.75v3.5h-1.75v1.75h-1.75V25h-1.75v1.75h-1.75V28.5h-1.75v1.75h-1.75V46h-1.75V28.5h-1.75v1.75h-1.75V28.5h1.75V26.75h1.75v-3.5h1.75Zm10.5,3.5h1.75v1.75h-1.75Zm1.75,1.75h1.75V25h-1.75Zm1.75,1.75h1.75v1.75h-1.75V28.5h-8.75V26.75h8.75Zm1.75,1.75h5.25V28.5h-1.75v1.75h-1.75v14h-1.75V46h-1.75V44.25h1.75v-14h1.75V28.5h-1.75Zm-12.25,3.5h7V46h-3.5V44.25h1.75v-3.5h-3.5V46h-1.75ZM-336.7,32v3.5h3.5V32Zm7,0h1.75v8.75h-1.75Zm-7,5.25V39h3.5V37.25Zm7,5.25h1.75v1.75h-1.75ZM-316.4,18Zm5.25,0h1.75v5.25h-1.75V28.5h1.75V26.75h1.75V25h1.75V23.25h1.75V21.5h1.75V18h1.75v3.5h-1.75v1.75h-1.75V25h-1.75v1.75h-1.75V28.5h-1.75v1.75h-1.75V46h-1.75V28.5h-1.75v1.75h-1.75V28.5h1.75V26.75h1.75v-3.5h1.75Zm10.5,3.5h1.75v1.75h-1.75Zm1.75,1.75h1.75V25h-1.75Zm1.75,1.75h1.75v1.75h-1.75V28.5h-8.75V26.75h8.75Zm1.75,1.75h5.25V28.5h-1.75v1.75h-1.75v14h-1.75V46h-1.75V44.25h1.75v-14h1.75V28.5h-1.75Zm-12.25,3.5h7V46h-3.5V44.25h1.75v-3.5h-3.5V46h-1.75ZM-305.9,32v3.5h3.5V32Zm7,0h1.75v8.75h-1.75Zm-7,5.25V39h3.5V37.25Zm7,5.25h1.75v1.75h-1.75ZM-285.6,18Zm12.25,0h1.75v5.25h8.75V25h-8.75v5.25h12.25V32H-285.6V30.25h12.25V25h-7v1.75h-1.75V28.5h-1.75V26.75h1.75V25h1.75V19.75h1.75v3.5h5.25Zm-7,17.5h15.75V46h-1.75V44.25H-278.6V46h-1.75Zm1.75,1.75V42.5h12.25V37.25ZM-254.8,18Zm3.5,0h1.75v1.75h-1.75Zm17.5,0h1.75v1.75h1.75V21.5h-5.25v1.75h-5.25V28.5h12.25v1.75h-5.25v7h3.5v3.5h-1.75V39h-1.75v7h-1.75V37.25h-1.75V35.5h1.75V30.25h-5.25v10.5h-1.75v3.5h-1.75V46h-1.75V44.25h1.75v-3.5h1.75V21.5h5.25V19.75h3.5Zm-15.75,1.75h1.75V21.5h-1.75Zm-5.25,3.5h10.5V25h-10.5Zm1.75,3.5h7V28.5h-7Zm0,3.5h7V32h-7Zm0,3.5h7V42.5h-5.25v1.75h-1.75Zm14,0h1.75V35.5h-1.75ZM-251.3,35.5v5.25h3.5V35.5ZM-224,18Zm5.25,0H-217v5.25h-1.75V46h-1.75V28.5h-1.75v1.75H-224V28.5h1.75V26.75h1.75v-3.5h1.75Zm7,0H-210v5.25h10.5v3.5h-1.75V28.5H-203V26.75h1.75V25h-10.5v1.75h-1.75V28.5h-1.75v1.75H-217V28.5h1.75V26.75h1.75v-3.5h1.75Zm3.5,10.5h1.75V44.25h-1.75V46H-210V44.25h1.75Zm-3.5,3.5H-210v3.5h-1.75v1.75h-1.75V39h-1.75V37.25h1.75V35.5h1.75Zm7,0H-203v1.75h-1.75Zm1.75,1.75h1.75V35.5H-203Zm1.75,1.75h1.75V39h-1.75Zm-10.5,7H-210v1.75h-1.75Zm32.522-8.512a1.694,1.694,0,0,0-1.316.476,1.625,1.625,0,0,0-.5,1.26,1.666,1.666,0,0,0,.476,1.232,1.628,1.628,0,0,0,1.2.5,1.5,1.5,0,0,0,.616-.112,3.3,3.3,0,0,1-.588,1.876,4.049,4.049,0,0,1-1.792,1.232v1.372a5.4,5.4,0,0,0,2.884-1.82,5.247,5.247,0,0,0,1.092-3.276,3.253,3.253,0,0,0-.56-1.96A1.788,1.788,0,0,0-179.229,33.988ZM-162.4,18Zm5.25,0h1.75v3.5h-1.75v1.75h-1.75V25h-1.75v1.75h-1.75V25h1.75V23.25h1.75V21.5h1.75Zm8.75,0h1.75v7h-1.75v1.75h-1.75V28.5h-1.75v1.75h-1.75V28.5h1.75V26.75h1.75V25h1.75Zm7,0h1.75v7h-1.75v1.75h-1.75V28.5h-1.75v1.75h-1.75V28.5h1.75V26.75h1.75V25h1.75Zm-14,7h1.75v3.5h-1.75V46h-1.75V32h-1.75v1.75h-1.75V35.5h-1.75V33.75h1.75V32h1.75V30.25h1.75V28.5h1.75Zm8.75,0h1.75v1.75h-1.75Zm7,0h1.75v1.75h-1.75Zm1.75,1.75h1.75v3.5h-1.75Zm-7,3.5h1.75V35.5h7v1.75h-7V42.5h7v1.75h-10.5V42.5h1.75Zm-5.25,3.5h1.75v7h-1.75v3.5h-1.75V46h-1.75V44.25h1.75v-3.5h1.75Zm1.75,7h1.75V42.5h-1.75ZM-131.6,18Zm5.25,0h1.75v7h3.5V23.25h3.5V21.5h-3.5V19.75h3.5V18h1.75v1.75h5.25V18h1.75v1.75h3.5V21.5h-3.5v1.75h3.5V28.5h-7v1.75h-1.75V28.5h1.75V23.25h1.75V21.5h-5.25v1.75h1.75V28.5h-1.75v1.75h-1.75V32h5.25V30.25h1.75V32h5.25v1.75h-7V35.5h5.25v1.75h-5.25V39h5.25v1.75h-5.25V42.5h7v1.75H-117.6V46h-1.75V33.75h-1.75V35.5h-1.75V33.75h1.75V32h1.75V30.25h1.75V28.5h-3.5V26.75h-3.5V28.5h1.75v1.75h-1.75V46h-1.75V32h-1.75v3.5h-1.75v1.75h-1.75V35.5h1.75V32h1.75V28.5h1.75V26.75h-5.25V25h5.25Zm7,7v1.75h3.5V25Zm8.75,0v1.75h3.5V25Zm-12.25,5.25h1.75V32h-1.75Zm5.25,3.5V35.5h3.5V33.75Zm0,3.5V39h3.5V37.25Zm0,3.5V42.5h3.5V40.75ZM-100.8,18Zm3.5,0h1.75v1.75H-97.3Zm1.75,1.75h1.75V21.5h-1.75Zm7,0h5.25V25h-1.75v1.75H-86.8V28.5h-1.75v1.75H-90.3V28.5h1.75V26.75h1.75V25h1.75V21.5h-3.5Zm7,0h1.75V21.5h1.75V19.75h1.75V21.5h-1.75V25h1.75V23.25h1.75V25H-76.3v3.5h-1.75v1.75H-86.8V28.5h8.75V26.75H-79.8v-3.5h-1.75Zm-19.25,3.5h10.5V25h-10.5Zm12.25,0h1.75V25h-1.75Zm-10.5,3.5h7V28.5h-7ZM-76.3,28.5h1.75v1.75H-76.3Zm-22.75,1.75h7V32h-7ZM-86.8,32h8.75v8.75H-79.8V42.5h5.25v1.75H-90.3V42.5h5.25V40.75h1.75V42.5h1.75V40.75h1.75V39h-5.25v1.75H-86.8Zm-12.25,1.75h7v10.5H-93.8V42.5h-3.5v1.75h-1.75Zm14,0v3.5h5.25v-3.5ZM-97.3,35.5v5.25h3.5V35.5ZM-70,18Zm1.75,1.75h8.75V28.5h-7V46h-1.75Zm12.25,0h8.75v24.5H-49V46h-1.75V44.25H-49V28.5h-7ZM-66.5,21.5v1.75h5.25V21.5Zm12.25,0v1.75H-49V21.5ZM-66.5,25v1.75h5.25V25Zm12.25,0v1.75H-49V25Zm-10.5,5.25h14V32h-3.5v3.5h3.5v1.75h-3.5v7H-56v-7h-3.5v3.5h-1.75V42.5H-63v1.75h-1.75V42.5H-63V40.75h1.75v-3.5h-3.5V35.5h3.5V32h-3.5ZM-59.5,32v3.5H-56V32Zm7,10.5h1.75v1.75H-52.5ZM-39.2,18Zm5.25,0h1.75v7h3.5v8.75h-1.75v3.5H-32.2V39h-1.75v1.75H-35.7V42.5h-1.75v1.75H-39.2V42.5h1.75V40.75h1.75V39h1.75V37.25h1.75v-3.5h1.75v-7h-3.5v7H-35.7V35.5h-1.75V33.75h1.75v-7h-3.5V25h5.25Zm10.5,0h1.75v5.25h-1.75v3.5H-25.2V28.5h10.5V26.75h1.75V32H-14.7V30.25h-12.25v-3.5h1.75v-3.5h1.75Zm5.25,5.25h1.75V25H-18.2Zm1.75,1.75h1.75v1.75h-1.75Zm-10.5,8.75H-14.7V46h-1.75V44.25H-25.2V46h-1.75ZM-35.7,35.5h1.75v1.75H-35.7Zm10.5,0v7h8.75v-7Zm-7,3.5h1.75v1.75H-32.2Zm1.75,1.75h1.75v3.5h-1.75ZM5.571,33.988a1.694,1.694,0,0,0-1.316.476,1.625,1.625,0,0,0-.5,1.26,1.666,1.666,0,0,0,.476,1.232,1.628,1.628,0,0,0,1.2.5,1.5,1.5,0,0,0,.616-.112,3.3,3.3,0,0,1-.588,1.876,4.049,4.049,0,0,1-1.792,1.232v1.372a5.4,5.4,0,0,0,2.884-1.82,5.247,5.247,0,0,0,1.092-3.276,3.253,3.253,0,0,0-.56-1.96A1.788,1.788,0,0,0,5.571,33.988ZM22.4,18Zm3.5,0h1.75v1.75H25.9Zm14,0h1.75v1.75h7V21.5H32.9V19.75h7Zm-12.25,1.75H29.4V21.5h-1.75Zm-5.25,3.5h8.75V25H22.4Zm10.5,0h7V28.5h-1.75v1.75h3.5v-7h7V28.5H43.4v1.75h5.25V32H43.4v1.75h3.5V35.5H43.4v1.75h5.25V39h-7v1.75H39.9V39h-1.75v3.5H39.9v1.75h-1.75V46H36.4V42.5h-1.75v1.75H29.4V42.5H25.9v1.75h-1.75V33.75h7v3.5H36.4V35.5H32.9V33.75h3.5V32H32.9V30.25h3.5V28.5H32.9ZM34.649,25v1.75h3.5V25Zm8.75,0v1.75h3.5V25Zm-19.25,1.75h7V28.5h-7Zm0,3.5h7V32h-7Zm14,1.75v1.75h3.5V32ZM25.9,35.5v5.25h3.5V35.5Zm12.25,0v1.75h3.5V35.5Zm-7,3.5v3.5h3.5V40.75H36.4V39Zm10.5,1.75H43.4V42.5h-1.75ZM43.4,42.5h5.25v1.75H46.9V46h-1.75V44.25H43.4ZM53.2,18Zm5.25,0H60.2v5.25h-1.75V46H56.7V28.5h-1.75v1.75H53.2V28.5h1.75V26.75H56.7v-3.5h1.75Zm7,0H67.2v5.25H77.7v3.5h-1.75V28.5H74.2V26.75h1.75V25h-10.5v1.75H63.7V28.5h-1.75v1.75H60.2V28.5h1.75V26.75H63.7v-3.5h1.75Zm3.5,10.5H70.7V44.25h-1.75V46H67.2V44.25h1.75Zm-3.5,3.5H67.2v3.5h-1.75v1.75H63.7V39h-1.75V37.25H63.7V35.5h1.75Zm7,0H74.2v1.75h-1.75Zm1.75,1.75h1.75V35.5H74.2Zm1.75,1.75H77.7V39h-1.75Zm-10.5,7H67.2v1.75h-1.75ZM84,18Zm5.25,0H91v3.5h-1.75v1.75h7V28.5H98V25h1.75V18h1.75v5.25h7V42.5h-1.75v1.75H105V46h-1.75V44.25H105V42.5h1.75V25h-7v3.5H98v1.75h-1.75v14H94.5V42.5h-7v1.75h-1.75v-21H87.5V21.5h1.75ZM87.5,25v7h7V25Zm12.25,5.25h1.75V32h-1.75ZM101.5,32h1.75v3.5H101.5Zm-14,1.75v7h7v-7Zm14,8.75h1.75v1.75H101.5ZM114.8,18Zm7,0h1.75v3.5h8.75V18h1.75v3.5h7v1.75h-7V25h3.5v5.25H118.3V25h3.5V23.25h-7V21.5h7Zm1.75,5.25V25h8.75V23.25Zm-3.5,3.5V28.5h3.5V26.75Zm5.25,0V28.5h5.25V26.75Zm7,0V28.5h3.5V26.75ZM116.549,32h24.5v3.5H139.3v1.75h-1.75V35.5h1.75V33.75h-12.25V35.5h8.75V39h-1.75v1.75h-3.5V42.5h-3.5v1.75h-3.5V46h-7V44.25h7V42.5h3.5V40.75h3.5V39h3.5V37.25H125.3V39h-3.5v1.75h-3.5V39h3.5V37.25h1.75V35.5h1.75V33.75h-7V35.5h-1.75v1.75H114.8V35.5h1.75Zm8.75,7h1.75v1.75H125.3Zm20.3-21Zm7,0h1.75v5.25h3.5V25h-3.5v1.75h1.75V28.5h-1.75v8.75H152.6V28.5h-1.75v1.75H149.1V32h-1.75V30.25h1.75V28.5h1.75V26.75h1.75V25h-5.25V23.25h5.25Zm7,1.75h8.75V35.5H159.6Zm1.75,1.75V25h5.25V21.5Zm0,5.25V28.5h5.25V26.75ZM156.1,28.5h1.75v1.75H156.1Zm5.25,1.75v3.5h5.25v-3.5ZM156.1,35.5h1.75v1.75H156.1Zm1.75,1.75h1.75v3.5h-1.75ZM149.1,39h1.75v3.5H149.1v1.75h-1.75V42.5h1.75Zm3.5,0h1.75v5.25H152.6Zm14,0h1.75v1.75H166.6Zm-3.5,1.75h1.75V46h-10.5V44.25h8.75Zm5.25,0h1.75v3.5h-1.75ZM176.4,18Zm7,0h1.75v5.25h3.5V25h-3.5v3.5h5.25V23.25h5.25V18h1.75v5.25h3.5V21.5h1.75V25H197.4v7h-1.75v1.75H193.9V35.5h-1.75v1.75H190.4v-7h-5.25v3.5h3.5V35.5h-3.5v7h17.5v1.75H183.4V42.5h-1.75V40.75h1.75V30.25h-5.25V28.5h5.25V25h-3.5V23.25h3.5Zm15.75,1.75h1.75V21.5h-1.75Zm-7,5.25v8.75h1.75V32h1.75V25Zm7,1.75h1.75V32h-1.75v5.25h-3.5V39H193.9v1.75h-1.75V39h1.75V37.25h1.75V35.5h1.75V32h1.75ZM179.9,32h1.75v8.75H179.9v3.5h-1.75V46H176.4V44.25h1.75v-3.5h1.75Zm21,1.75h1.75v7H200.9V39h-1.75V37.25h1.75ZM207.2,18Zm12.25,0h1.75v3.5h10.5v1.75H221.2V32h1.75V30.25h1.75V25h1.75v5.25H224.7V32h-1.75v3.5H221.2V46h-1.75V35.5H217.7v1.75h-1.75V39H214.2v1.75h-3.5V42.5h-3.5V40.75h3.5V39h3.5V37.25h1.75V35.5h1.75V32h1.75V23.25h-10.5V21.5h10.5Zm-5.25,7h1.75v5.25H214.2V32h-1.75v1.75H210.7V32h1.75V30.25h1.75Zm1.75,5.25h1.75V32h-1.75Zm10.5,0h1.75V32h-1.75ZM228.2,32h1.75v1.75H228.2Zm-5.25,3.5h1.75v1.75h-1.75Zm1.75,1.75h3.5V39h-3.5ZM228.2,39h5.25v1.75H231.7V42.5h-1.75V40.75H228.2ZM238,18Zm7,0h1.75v5.25h3.5V25h-3.5v3.5H252V23.25h5.25V18H259v5.25h3.5V21.5h1.75V25H259v7h-1.75v1.75H255.5V35.5h-1.75v1.75H252v-7h-5.25v3.5h3.5V35.5h-3.5v7h17.5v1.75H245V42.5h-1.75V40.75H245V30.25h-5.25V28.5H245V25h-3.5V23.25H245Zm15.75,1.75h1.75V21.5h-1.75Zm-7,5.25v8.75h1.75V32h1.75V25Zm7,1.75h1.75V32h-1.75v5.25h-3.5V39H255.5v1.75h-1.75V39h1.75V37.25h1.75V35.5H259V32h1.75ZM241.5,32h1.75v8.75H241.5v3.5h-1.75V46H238V44.25h1.75v-3.5h1.75Zm21,1.75h1.75v7H262.5V39h-1.75V37.25h1.75ZM268.8,18Zm5.25,0h1.75v1.75h5.25V18h1.75v1.75h7V21.5h-7v1.75h12.25V25H268.8V23.25h3.5V21.5h1.75Zm0,3.5v1.75h7V21.5Zm0,5.25H289.8V32h-3.5v1.75h7V35.5h-7v1.75h5.25V39H286.3v1.75h7V42.5h-7V46h-1.75V32H279.3V46h-1.75V42.5h-7V40.75h7V39H272.3V37.25h5.25V35.5h-7V33.75h7V32h-3.5Zm1.75,1.75v1.75h12.25V28.5ZM299.6,18Zm19.25,0h1.75v1.75h1.75V21.5h-7v1.75h-3.5v3.5H324.1V28.5h-5.25V40.75H317.1V28.5h-5.25V39H310.1v1.75h-1.75V42.5H306.6V40.75h1.75V39h1.75V21.5h5.25V19.75h3.5ZM303.1,19.75h1.75V21.5H303.1Zm1.75,1.75h1.75V25h-1.75Zm-5.25,7h7V40.75h-1.75V42.5H303.1v1.75h-1.75V42.5h1.75V40.75h1.75V30.25H299.6Zm8.75,14h17.5v1.75h-17.5Zm29.282-2.543L337,24.781h3.391l-.643,15.176Zm1.176,6.686a1.984,1.984,0,0,1-1.969-1.969,1.872,1.872,0,0,1,.581-1.381,1.956,1.956,0,0,1,2.762-.007,1.948,1.948,0,0,1-.007,2.782A1.9,1.9,0,0,1,338.807,46.643Z" transform="translate(347.201 28)" fill="#fff"/>
</svg>
