<svg xmlns="http://www.w3.org/2000/svg" width="69.751" height="169.969" viewBox="0 0 69.751 169.969">
  <g id="peo-1" transform="translate(0 0)">
    <g id="Group_38418" data-name="Group 38418" transform="translate(0 0)">
      <path id="Union_90" data-name="Union 90" d="M-648.826-4449.636v-.283h-.041V-4483.3h-16.547v10.057h-4.424v17.512h.124v6.092h-13.054v-6.092h.311v-17.512h5.34v-10.71H-682.6v-5.442h-4.719v-5.062h10.578v6.7h6.9v-6.7h32.905v38.727h6.382v.25h.1v5.559h-.1v.283Zm23.67-34.315v-5.442h-4.717v-5.062H-619.3v10.5Zm-4.075-10.5v-12.529h-6.412v12.529h-33.81v-12.529h-6.741v12.529h-10.914V-4512.9h6.061v-17.224h4.853v-4.692h12.032v-4.261h-11.893v-5.612h-6.239v-23.354h-5.674v-11.865h.653v-16.177h5.355v-11.259h6.379v-5.924h10.561v-6.335h35.692v6.335h4.826v5.924h5.833v16.783h-.058v39.453h.51v5.833h-.51v.585h-6.316v5.008h-.21v.6h-14.994v4.261h11.015v4.692h5.466v17.224h5.026v18.448Z" transform="translate(687.968 4619.604)" fill="#101010"/>
    </g>
  </g>
</svg>
