<svg xmlns="http://www.w3.org/2000/svg" width="198.46" height="217.361" viewBox="0 0 198.46 217.361">
  <g id="peo-5" transform="translate(-952 -3347)">
    <g id="Rectangle_26822" data-name="Rectangle 26822" transform="translate(952 3347)" fill="#101010" stroke="#707070" stroke-width="1" opacity="0">
      <rect width="198.46" height="217.361" stroke="none"/>
      <rect x="0.5" y="0.5" width="197.46" height="216.361" fill="none"/>
    </g>
    <g id="Group_38558" data-name="Group 38558" transform="translate(996.417 3347)">
      <g id="Group_38391" data-name="Group 38391" transform="translate(0 0)">
        <g id="Group_38338" data-name="Group 38338" transform="translate(0 23.476)">
          <path id="Path_50190" data-name="Path 50190" d="M-65-229.737V-275.1h8.505v-5.67h3.78v-5.67h14.176V-294H-7.352v7.56H5.879v7.56h5.67v7.56h6.615v3.78h7.56v41.582h-5.67v7.56H13.439Z" transform="translate(65 294)" fill="#101010"/>
          <path id="Path_50191" data-name="Path 50191" d="M-51.385-254.44h19.846V-262H-5.077v7.56H8.153V-243.1h5.67v-3.78h6.615v11.341H13.824v26.461H7.208v7.56H-5.077v5.67H-31.539l.945-5.67H-51.385v-5.67H-58v-39.692h6.615Z" transform="translate(64.615 292.242)" fill="#101010"/>
          <rect id="Rectangle_25383" data-name="Rectangle 25383" width="6.615" height="11.341" transform="translate(19.846 46.307)" fill="#101010"/>
          <rect id="Rectangle_25384" data-name="Rectangle 25384" width="6.615" height="11.341" transform="translate(51.978 46.307)" fill="#101010"/>
          <path id="Union_83" data-name="Union 83" d="M6.615,13.231V6.616H32.132v6.615ZM32.132,6.616V0h6.615V6.616ZM0,6.616V0H6.615V6.616Z" transform="translate(19.846 65.208)" fill="#101010" stroke="rgba(0,0,0,0)" stroke-width="1"/>
          <path id="Union_82" data-name="Union 82" d="M65.208,124.746V113.405H77.494v5.67H70.878v5.67ZM0,124.746V113.405H12.285v5.67H5.67v5.67ZM24.571,66.153v-5.67H51.978v5.67Zm34.022-5.67V48.2h5.67V18.9h6.615V54.813H64.263v5.67Zm0-41.582V7.56h6.615V18.9ZM25.516,7.56V0H51.978V7.56Z" transform="translate(7.561 30.242)" fill="#101010" stroke="rgba(0,0,0,0)" stroke-width="1"/>
          <path id="Path_50192" data-name="Path 50192" d="M-31.484-192H-43.769v7.56h-7.56v18.9H-57v20.791h12.286v-15.121h7.56v13.231H1.593v-13.231H8.208v15.121H21.439v-20.791H14.824v-18.9H9.153V-192H-31.484Z" transform="translate(64.56 288.395)" fill="#101010"/>
          <path id="Path_50193" data-name="Path 50193" d="M-24-192v26.461h6.615V-186.33h6.615V-192Z" transform="translate(62.747 288.395)" fill="#101010"/>
          <rect id="Rectangle_25393" data-name="Rectangle 25393" width="5.67" height="13.231" transform="translate(33.077 96.395)" fill="#101010"/>
          <rect id="Rectangle_25394" data-name="Rectangle 25394" width="6.615" height="15.121" transform="translate(45.362 102.065)" fill="#101010"/>
          <rect id="Rectangle_25395" data-name="Rectangle 25395" width="6.615" height="6.615" transform="translate(51.978 96.395)" fill="#101010"/>
          <path id="Path_50196" data-name="Path 50196" d="M-36-143.055v37.8h11.341v-25.516H-4.813v12.286H1.8v13.231H15.033v-13.231H9.362V-136.44H2.747V-144H-36Z" transform="translate(63.406 285.757)" fill="#101010"/>
          <path id="Path_50197" data-name="Path 50197" d="M-36.495-103v6.615H-45v6.615h19.846V-103Z" transform="translate(63.901 283.504)" fill="#101010"/>
          <rect id="Rectangle_25396" data-name="Rectangle 25396" width="13.231" height="13.231" transform="translate(65.208 180.504)" fill="#101010"/>
        </g>
        <g id="Group_38305" data-name="Group 38305" transform="translate(0)">
          <rect id="Rectangle_20960" data-name="Rectangle 20960" width="38.2" height="4.775" transform="translate(4.775 38.2)" fill="#101010"/>
          <rect id="Rectangle_20961" data-name="Rectangle 20961" width="38.2" height="4.775" transform="translate(4.775 28.65)" fill="#101010"/>
          <rect id="Rectangle_20962" data-name="Rectangle 20962" width="4.775" height="9.55" transform="translate(0 42.975)" fill="#101010"/>
          <rect id="Rectangle_20963" data-name="Rectangle 20963" width="28.65" height="9.55" transform="translate(14.325 42.975)" fill="#101010"/>
          <rect id="Rectangle_20964" data-name="Rectangle 20964" width="42.975" height="4.775" transform="translate(42.975 38.2)" fill="#101010"/>
          <rect id="Rectangle_20965" data-name="Rectangle 20965" width="28.65" height="4.775" transform="translate(14.325 33.425)" fill="#101010"/>
          <rect id="Rectangle_20966" data-name="Rectangle 20966" width="4.775" height="4.775" transform="translate(0 33.425)" fill="#101010"/>
          <rect id="Rectangle_20967" data-name="Rectangle 20967" width="42.975" height="4.775" transform="translate(42.975 28.65)" fill="#101010"/>
          <rect id="Rectangle_20968" data-name="Rectangle 20968" width="4.775" height="28.65" transform="translate(0 0)" fill="#101010"/>
          <path id="Path_50173" data-name="Path 50173" d="M366.227,206.859h-4.775v4.775h-4.775v4.775H351.9v9.55h-9.55v-9.55h-4.775v14.325h28.65Z" transform="translate(-323.252 -202.084)" fill="#101010"/>
          <rect id="Rectangle_20969" data-name="Rectangle 20969" width="19.1" height="9.55" transform="translate(71.625 42.975)" fill="#101010"/>
          <rect id="Rectangle_20970" data-name="Rectangle 20970" width="23.875" height="9.55" transform="translate(42.975 42.975)" fill="#101010"/>
          <rect id="Rectangle_20971" data-name="Rectangle 20971" width="9.55" height="9.55" transform="translate(4.775 42.975)" fill="#101010"/>
          <rect id="Rectangle_20972" data-name="Rectangle 20972" width="19.1" height="4.775" transform="translate(71.625 33.425)" fill="#101010"/>
          <rect id="Rectangle_20973" data-name="Rectangle 20973" width="23.875" height="4.775" transform="translate(42.975 33.425)" fill="#101010"/>
          <rect id="Rectangle_20974" data-name="Rectangle 20974" width="9.55" height="4.775" transform="translate(4.775 33.425)" fill="#101010"/>
          <path id="Path_50174" data-name="Path 50174" d="M426.985,229.65V201H422.21v4.775h-4.775v4.775H412.66v4.775h-4.775V229.65Z" transform="translate(-336.26 -201)" fill="#101010"/>
          <path id="Path_50175" data-name="Path 50175" d="M396.606,229.65v-4.775h-4.775v-9.55h-4.775V210.55h-4.775v-4.775h-4.775V201h-4.775v28.65Z" transform="translate(-329.756 -201)" fill="#101010"/>
          <path id="Path_50176" data-name="Path 50176" d="M335.409,230.734v-19.1h-4.775v-4.775h-4.775v23.875Z" transform="translate(-321.084 -202.084)" fill="#101010"/>
          <rect id="Rectangle_20975" data-name="Rectangle 20975" width="4.775" height="9.55" transform="translate(66.85 42.975)" fill="#101010"/>
          <rect id="Rectangle_20976" data-name="Rectangle 20976" width="4.775" height="4.775" transform="translate(66.85 33.425)" fill="#101010"/>
          <rect id="Rectangle_20977" data-name="Rectangle 20977" width="4.775" height="4.775" transform="translate(66.85 23.875)" fill="#101010"/>
        </g>
      </g>
    </g>
  </g>
</svg>
