<svg xmlns="http://www.w3.org/2000/svg" width="86.837" height="197.657" viewBox="0 0 86.837 197.657">
  <g id="peo-2" transform="translate(0)">
    <g id="Group_38550" data-name="Group 38550">
      <path id="Union_89" data-name="Union 89" d="M-754.191-4394.726v-13.29h14.2v6.5h7.2v6.793Zm-39.588-.3v-12.988h12.608v12.988Zm39.659-12.989v-27.592h-20.545v14.16h-6.78v13.432h-12.333v-13.432h5.773v-19.581h6.56v-6.137h41.223v39.149Zm-40.782-26.824v-6.724h-6.674v-5.6h12.78v12.325Zm61.945-.689v-6.793h-7.266v-4.843h11.878v11.636Zm-48.5-11.636v-13.278h-6.1v13.278h-14.021v-21.361h7.852v-19.6h6.168v-6.772h2.117v-.256H-773.8v-6.259h-15.719v-4.672H-795.1v-28.192h-6.684v-13.45h6.684v-6.778h-6.1v-23.831h3.633v-6.949h6.5v-7.1h57v7.1h11.312v6.949h7.812v23.831h-6.1v48.42h-8v4.672h-19.27v6.259h13.746v.256h1.451v6.772h4.078v40.958Zm4.85-108.355v-4.52h-.086v4.52Z" transform="translate(801.781 4592.383)" fill="#212736"/>
    </g>
  </g>
</svg>
