<svg xmlns="http://www.w3.org/2000/svg" width="106.296" height="180.436" viewBox="0 0 106.296 180.436">
  <g id="peo-3" transform="translate(0.001 0)">
    <g id="Group_38548" data-name="Group 38548" transform="translate(-0.001)">
      <path id="Union_87" data-name="Union 87" d="M36.149,180.436v-6.6h6.405v-5.589h5.958v5.589H55.4v6.6Zm38.014-.385V167.429h-.123V155.006H67.03V148.99H55.038c.016,2.733.138,23.977,0,24.5-.15.561-6.31,0-6.31,0v-5.5H42.853v-19H36.408V137.3h6.146v-7.9H42.6V119.254H35.761v6.138H23.139v-6.138h-5.3v-6.031H5.9V106.8H0v-5.4H11.365V95.31h6.473V101.4h5.3v3.533H30.16v-4.687h6.48V94.8H48.979V89.625h5.5v-.456h-18.6V83.013H31.233V38.759h-.282V68.167h-7.38v-53.9h7.38V7.292H41.7V0h39V7.292H93.273v6.976h6.659V25.992H106.3V76.98H91.375l.484.11v5.922H85.866v6.156H68v5.774h.119V89.625h7v3.85H86.074v6.772h3.3v6.1h-9.07v.329H91.762v12.042H85.885v7.118H80.309v4.257h-.25V137.3h5.559V148.99H80.031v6.953h5.425v17.226H78.7v-5.74h-.067v6.08h7.646v6.542Z" transform="translate(0)" fill="#101010"/>
    </g>
  </g>
</svg>
