<svg xmlns="http://www.w3.org/2000/svg" width="160.444" height="198.847" viewBox="0 0 160.444 198.847">
  <g id="peo-4" transform="translate(0)">
    <path id="Union_86" data-name="Union 86" d="M95.218,198.847V169.814H88.329v-6.909H72.945v35.941H51.312v-8.458H58.94v-34.32h-.411v-29.25H44.381V112.031H118.01v.245h19.354V98.219h7.4v6.5h15.684v7.558h-9.932v7.106H137.364v7.1H118.01v.336h-15.5v29.25h.684v13.745h5.578v29.033Zm-58.2-71.927v-6.766H20.906v-6.086H8.977V106.5H0v-8.04H16.212V90.236h4.694V106.5h16.11v7.563H44.1v12.852Zm16.85-14.888v-6.418H44.593V97.881H37.351V84.327H30.3V76.919H22.1V55.573h8.2v6.349h7.421V33.332h3.121V14.48h7.15V6.438h7.8V0H97.543V6.438h7.135V14.48h6.768V41.748H131.98v8.63h7.238v7.579h-16.26V68.618h-.026v7.1H140.85v7.89h-8.635v9.611H115.838v4.658h-6.443v7.732H101.67v6.418Z" transform="translate(0)" fill="#212736"/>
  </g>
</svg>
