<svg xmlns="http://www.w3.org/2000/svg" width="947" height="160" viewBox="0 0 947 160">
  <g id="q9-2" transform="translate(-210 -200)">
    <g id="Exclusion_21" data-name="Exclusion 21" transform="translate(6377 5211.999)" fill="#323941">
      <path d="M -5227.1201171875 -4853.9990234375 L -6157.88037109375 -4853.9990234375 L -6157.88037109375 -4855.92578125 L -6157.88037109375 -4857.92578125 L -6159.88037109375 -4857.92578125 L -6165.00048828125 -4857.92578125 L -6165.00048828125 -5006.0732421875 L -6159.88037109375 -5006.0732421875 L -6157.88037109375 -5006.0732421875 L -6157.88037109375 -5008.0732421875 L -6157.88037109375 -5009.9990234375 L -5227.1201171875 -5009.9990234375 L -5227.1201171875 -5005.470703125 L -5227.1201171875 -5003.470703125 L -5225.1201171875 -5003.470703125 L -5222.00048828125 -5003.470703125 L -5222.00048828125 -4860.53125 L -5225.1201171875 -4860.53125 L -5227.1201171875 -4860.53125 L -5227.1201171875 -4858.53125 L -5227.1201171875 -4853.9990234375 Z" stroke="none"/>
      <path d="M -5229.1201171875 -4855.9990234375 L -5229.1201171875 -4858.53125 L -5229.1201171875 -4862.53125 L -5225.1201171875 -4862.53125 L -5224.00048828125 -4862.53125 L -5224.00048828125 -5001.470703125 L -5225.1201171875 -5001.470703125 L -5229.1201171875 -5001.470703125 L -5229.1201171875 -5005.470703125 L -5229.1201171875 -5007.9990234375 L -6155.88037109375 -5007.9990234375 L -6155.88037109375 -5004.0732421875 L -6159.88037109375 -5004.0732421875 L -6163.00048828125 -5004.0732421875 L -6163.00048828125 -4859.92578125 L -6159.88037109375 -4859.92578125 L -6155.88037109375 -4859.92578125 L -6155.88037109375 -4855.9990234375 L -5229.1201171875 -4855.9990234375 M -5225.1201171875 -4851.9990234375 L -6159.88037109375 -4851.9990234375 L -6159.88037109375 -4855.92578125 L -6167.00048828125 -4855.92578125 L -6167.00048828125 -5008.0732421875 L -6159.88037109375 -5008.0732421875 L -6159.88037109375 -5011.9990234375 L -5225.1201171875 -5011.9990234375 L -5225.1201171875 -5005.470703125 L -5220.00048828125 -5005.470703125 L -5220.00048828125 -4858.53125 L -5225.1201171875 -4858.53125 L -5225.1201171875 -4852.0009765625 L -5225.1201171875 -4851.9990234375 Z" stroke="none" fill="#fff"/>
    </g>
    <path id="Path_54301" data-name="Path 54301" d="M-279-30Zm3.75,1.875h20.625v3.75H-256.5V-22.5h-1.875v1.875h-1.875v1.875h-1.875v1.875H-264v15h-1.875V0h-1.875V-1.875h1.875V-18.75h3.75v-1.875h1.875V-22.5h1.875v-1.875h1.875V-26.25h-18.75Zm5.625,24.375h1.875v1.875h-1.875ZM-246-30Zm5.625,0h1.875v3.75h5.625v1.875h-1.875V-22.5h-1.875v1.875h3.75v11.25h7.5v-3.75h-3.75v1.875H-231v-1.875h1.875v-3.75h1.875V-15h1.875v-3.75h1.875v-1.875h1.875V-26.25h-5.625v5.625h-1.875v1.875H-231v-1.875h1.875V-26.25H-231v-1.875h11.25v7.5h-1.875v1.875H-223.5V-15h3.75v1.875h-3.75v3.75h5.625V-7.5H-223.5V0h-1.875V-7.5h-7.5V0h-3.75V-1.875h1.875V-7.5h-1.875v3.75H-238.5V-7.5h-1.875v1.875h-1.875v3.75h-1.875V0H-246V-1.875h1.875v-3.75h1.875v-15h3.75V-22.5h1.875v-1.875h-3.75V-22.5h-1.875v1.875h-1.875v1.875H-246v-1.875h1.875V-22.5h1.875v-3.75h1.875Zm15,7.5h1.875v1.875h-1.875Zm-15,3.75V-15h1.875v-3.75Zm3.75,0V-15h1.875v-3.75Zm-3.75,5.625v3.75h1.875v-3.75Zm3.75,0v3.75h1.875v-3.75ZM-213-30Zm13.125,0H-198v1.875h-1.875v1.875h-1.875v1.875h11.25V0h-1.875V-1.875H-205.5V0h-1.875V-24.375h3.75V-26.25h1.875v-1.875h1.875Zm-5.625,7.5v5.625h13.125V-22.5Zm0,7.5v3.75h13.125V-15Zm0,5.625V-3.75h13.125V-9.375ZM-180-30Zm1.875,3.75H-157.5v13.125h-1.875V-15h-15V-3.75h-1.875V-16.875h16.875v-7.5h-18.75Zm22.5,18.75h1.875v5.625h-20.625V-3.75h18.75ZM-147-30Zm5.625,0h1.875v3.75h-1.875v1.875h7.5v5.625H-132V-22.5h1.875V-30h1.875v5.625h7.5V-3.75h-1.875v1.875H-124.5V0h-1.875V-1.875h1.875V-3.75h1.875V-22.5h-7.5v3.75H-132v1.875h-1.875v15h-1.875V-3.75h-7.5v1.875h-1.875v-22.5h1.875V-26.25h1.875Zm-1.875,7.5V-15h7.5v-7.5Zm13.125,5.625h1.875V-15h-1.875ZM-128.254-15h1.875v3.75h-1.875Zm-15,1.875v7.5h7.5v-7.5Zm15,9.375h1.875v1.875h-1.875ZM-114-30Zm7.5,0h1.875v3.75h9.375V-30h1.875v3.75h7.5v1.875h-7.5V-22.5h3.75v5.625h-20.625V-22.5h3.75v-1.875H-114V-26.25h7.5Zm1.875,5.625V-22.5h9.375v-1.875Zm-3.75,3.75v1.875h3.75v-1.875Zm5.625,0v1.875h5.625v-1.875Zm7.5,0v1.875h3.75v-1.875ZM-112.129-15h26.25v3.75h-1.875v1.875h-1.875V-11.25h1.875v-1.875h-13.125v1.875H-91.5V-7.5h-1.875v1.875h-3.75V-3.75h-3.75v1.875h-3.75V0h-7.5V-1.875h7.5V-3.75h3.75V-5.625h3.75V-7.5h3.75V-9.375h-9.375V-7.5h-3.75v1.875h-3.75V-7.5h3.75V-9.375h1.875V-11.25h1.875v-1.875h-7.5v1.875h-1.875v1.875H-114V-11.25h1.875Zm9.375,7.5h1.875v1.875h-1.875ZM-81-30Zm7.5,0h1.875v5.625h3.75V-22.5h-3.75v1.875h1.875v1.875h-1.875v9.375H-73.5V-18.75h-1.875v1.875h-1.875V-15h-1.875v-1.875h1.875V-18.75h1.875v-1.875H-73.5V-22.5h-5.625v-1.875H-73.5Zm7.5,1.875h9.375V-11.25H-66Zm1.875,1.875v3.75H-58.5v-3.75Zm0,5.625v1.875H-58.5v-1.875Zm-5.625,1.875h1.875v1.875h-1.875Zm5.625,1.875v3.75H-58.5v-3.75Zm-5.625,5.625h1.875v1.875h-1.875Zm1.875,1.875H-66v3.75h-1.875ZM-77.254-7.5h1.875v3.75h-1.875v1.875h-1.875V-3.75h1.875Zm3.75,0h1.875v5.625H-73.5Zm15,0h1.875v1.875H-58.5Zm-3.75,1.875h1.875V0h-11.25V-1.875h9.375Zm5.625,0h1.875v3.75h-1.875ZM-45.734,0V-22.734h5.391a9.536,9.536,0,0,1,5.53,1.3A7.761,7.761,0,0,1-32.1-17.52a19.018,19.018,0,0,1,.908,6.211,17.028,17.028,0,0,1-.959,5.969,8.8,8.8,0,0,1-2.717,3.955Q-36.623,0-40.343,0Zm2.959-2.5H-40.8a6.725,6.725,0,0,0,4.285-1.069,5.864,5.864,0,0,0,1.831-2.966,19.644,19.644,0,0,0,.549-5.237,15.242,15.242,0,0,0-.645-5.024,5.931,5.931,0,0,0-1.846-2.7,6.435,6.435,0,0,0-3.94-.945h-2.212ZM-22.431,0h-2.725V-22.734h2.666L-14.448-7.6l.879,2.256h.073L-13.569-7.6V-22.734h2.725V0h-2.725l-7.822-14.883-1.1-2.388.059,2.358ZM-2.673,0H-5.515l7-22.734h3L11.536,0H8.416L6.863-5h-8ZM-.432-7.266H6.2L3.464-15.894,2.82-18.179l-.571,2.285ZM15-30Zm7.5,0H35.629v13.125H22.5Zm1.875,1.875v3.75h9.375v-3.75Zm0,5.625v3.75h9.375V-22.5Zm-7.5,7.5H41.254v1.875H30v3.75h9.375V-7.5H30v5.625h-3.75V-3.75h1.875v-9.375H16.879ZM22.5-11.25h1.875v5.625H22.5V-3.75H20.629v1.875H18.754V0H16.879V-1.875h1.875V-3.75h1.875V-5.625H22.5Zm1.875,5.625h1.875V-3.75H24.379ZM30-1.875h11.25V0H30ZM48-30Zm16.875,0h1.875v1.875H64.879v1.875h7.5v7.5H61.129V-15h11.25v9.375H70.5V-7.5H61.129v1.875H59.254V-26.25H63v-1.875h1.875ZM51.754-28.125h1.875v1.875H51.754Zm1.875,1.875H55.5v3.75H53.629Zm7.5,1.875v3.75H70.5v-3.75ZM48-18.75h7.5V-5.625H53.629V-3.75H51.754v1.875H49.879V-3.75h1.875V-5.625h1.875v-11.25H48Zm13.125,5.625v3.75H70.5v-3.75ZM55.5-5.625h1.875V-3.75H55.5ZM57.379-3.75h18.75v1.875H57.379ZM81-30Zm7.5,0h1.875v3.75h9.375V-30h1.875v3.75h7.5v1.875h-7.5V-22.5h3.75v5.625H84.754V-22.5H88.5v-1.875H81V-26.25h7.5Zm1.875,5.625V-22.5h9.375v-1.875Zm-3.75,3.75v1.875h3.75v-1.875Zm5.625,0v1.875h5.625v-1.875Zm7.5,0v1.875h3.75v-1.875ZM82.879-15h26.25v3.75h-1.875v1.875h-1.875V-11.25h1.875v-1.875H94.129v1.875H103.5V-7.5h-1.875v1.875h-3.75V-3.75h-3.75v1.875h-3.75V0h-7.5V-1.875h7.5V-3.75h3.75V-5.625h3.75V-7.5h3.75V-9.375H92.254V-7.5H88.5v1.875h-3.75V-7.5H88.5V-9.375h1.875V-11.25h1.875v-1.875h-7.5v1.875H82.879v1.875H81V-11.25h1.875Zm9.375,7.5h1.875v1.875H92.254ZM114-30Zm5.625,0H121.5v3.75h-1.875v1.875h7.5v5.625H129V-22.5h1.875V-30h1.875v5.625h7.5V-3.75h-1.875v1.875H136.5V0h-1.875V-1.875H136.5V-3.75h1.875V-22.5h-7.5v3.75H129v1.875h-1.875v15h-1.875V-3.75h-7.5v1.875h-1.875v-22.5h1.875V-26.25h1.875Zm-1.875,7.5V-15h7.5v-7.5Zm13.125,5.625h1.875V-15h-1.875ZM132.754-15h1.875v3.75h-1.875Zm-15,1.875v7.5h7.5v-7.5Zm15,9.375h1.875v1.875h-1.875ZM147-30Zm3.75,0h1.875v3.75h7.5v1.875H154.5V-22.5h-1.875v-1.875h-1.875V-22.5h-1.875v1.875H147V-22.5h1.875v-1.875h1.875Zm13.125,0h1.875v3.75h9.375v1.875h-7.5V-22.5h-1.875v-1.875H162V-22.5h-1.875v-1.875H162V-26.25h1.875ZM154.5-22.5h1.875v1.875h11.25V-22.5H169.5v1.875h1.875v7.5H162v3.75h11.25V-3.75h-1.875v1.875H169.5V0h-1.875V-1.875H169.5V-3.75h1.875V-7.5H162V0h-1.875V-5.625h-1.875V-3.75H154.5v1.875h-3.75V0H147V-1.875h3.75V-3.75h3.75V-5.625h3.75V-7.5h-7.5V-15h9.375v-3.75h-9.375v-1.875h3.75Zm7.5,3.75V-15h7.5v-3.75Zm-9.375,5.625v3.75h7.5v-3.75ZM165.754-3.75h1.875v1.875h-1.875ZM180-30Zm0,13.125h28.125V-15H180ZM213-30Zm13.125,0H228v5.625h7.5V-22.5H228v3.75h13.125v1.875H228V-7.5h-1.875v-9.375H213V-18.75h7.5v-9.375h1.875v9.375h3.75ZM220.5-15h1.875v1.875h1.875v1.875H220.5v1.875h-1.875V-7.5h-1.875V-9.375h1.875V-11.25H220.5Zm13.125,0H235.5v1.875h1.875v1.875H235.5v1.875h-1.875V-7.5h-1.875v1.875h-1.875V-3.75h-3.75v1.875H220.5V0h-5.625V-1.875H220.5V-3.75h5.625V-5.625h3.75V-7.5h1.875V-9.375h1.875Zm27.345,2.13a1.815,1.815,0,0,0-1.41.51,1.741,1.741,0,0,0-.54,1.35,1.785,1.785,0,0,0,.51,1.32,1.745,1.745,0,0,0,1.29.54,1.606,1.606,0,0,0,.66-.12,3.538,3.538,0,0,1-.63,2.01,4.338,4.338,0,0,1-1.92,1.32v1.47a5.787,5.787,0,0,0,3.09-1.95,5.622,5.622,0,0,0,1.17-3.51,3.485,3.485,0,0,0-.6-2.1A1.915,1.915,0,0,0,260.974-12.87ZM-218.46,17Zm9.375,0h1.875v3.75h5.625V17h1.875v3.75h7.5v1.875h-7.5v3.75h9.375V28.25h-9.375v1.875h-1.875V28.25h-5.625v1.875h-1.875V32h-1.875v1.875h-1.875V35.75h-1.875v1.875h-3.75V35.75h3.75V33.875h1.875V32h1.875V30.125h1.875V28.25h-9.375V26.375h9.375v-3.75h-7.5V20.75h7.5Zm1.875,5.625v3.75h5.625v-3.75Zm1.875,7.5h1.875v7.5h1.875V39.5h-1.875v5.625h-1.875V47h-1.875V45.125h1.875Zm5.625,0h1.875V32h-1.875ZM-197.835,32h1.875v1.875h-1.875Zm1.875,1.875h5.625V35.75h-1.875v1.875h-1.875V35.75h-1.875Zm-15,1.875h1.875V39.5h-1.875v1.875h-1.875V43.25h-1.875V41.375h1.875V39.5h1.875Zm11.25,0h1.875v1.875h-1.875Zm1.875,1.875h1.875V39.5h-1.875Zm-3.75,1.875h1.875v3.75h-1.875Zm5.625,0h1.875v3.75h-1.875Zm-13.125,3.75h1.875v1.875h-1.875ZM-185.46,17Zm13.125,0h1.875v1.875h11.25V20.75h-11.25v1.875h9.375V24.5H-181.71V22.625h9.375V20.75h-11.25V18.875h11.25Zm-7.5,9.375h16.875V32h-3.75v1.875h9.375V35.75H-185.46V33.875h9.375V32h-3.75Zm1.875,1.875v1.875h13.125V28.25Zm3.75,3.75v1.875h5.625V32Zm-5.625,5.625h16.875V47h-1.875V45.125H-177.96V47h-1.875Zm1.875,1.875v3.75h13.125V39.5Zm25.5-22.5Zm5.625,0h1.875v5.625h-1.875V47h-1.875V28.25h-1.875v1.875h-1.875V28.25h1.875V26.375h1.875v-3.75h1.875Zm7.5,0h1.875v5.625h11.25v3.75h-1.875V28.25h-1.875V26.375h1.875V24.5h-11.25v1.875h-1.875V28.25h-1.875v1.875h-1.875V28.25h1.875V26.375h1.875v-3.75h1.875Zm3.75,11.25h1.875V45.125h-1.875V47h-1.875V45.125h1.875Zm-3.75,3.75h1.875v3.75h-1.875v1.875h-1.875V39.5h-1.875V37.625h1.875V35.75h1.875Zm7.5,0h1.875v1.875h-1.875Zm1.875,1.875h1.875V35.75h-1.875Zm1.875,1.875h1.875V39.5h-1.875Zm-11.25,7.5h1.875v1.875h-1.875ZM-119.46,17Zm5.625,0h1.875v1.875h-1.875Zm13.125,0h1.875v3.75h-1.875v1.875h9.375V24.5h-3.75v3.75h3.75v1.875h-3.75v3.75h3.75V35.75h-3.75v5.625h3.75V43.25h-9.375V47h-1.875V26.375h-1.875v3.75h-5.625V32h5.625V45.125h-1.875V47h-1.875V45.125h1.875V33.875h-3.75V35.75h-1.875v1.875h1.875V35.75h1.875v5.625h-1.875V39.5h-3.75V35.75h1.875V33.875h-3.75V47h-1.875V32h5.625V30.125h-5.625V24.5h1.875v3.75h1.875V26.375h1.875V24.5h1.875V22.625h-1.875V24.5h-1.875V22.625h-5.625V20.75h7.5V18.875h1.875V20.75h5.625v1.875h-3.75V24.5h-1.875v1.875h-1.875V28.25h1.875V26.375h1.875V28.25h1.875V24.5h3.75V20.75h1.875Zm3.75,0h1.875v1.875H-96.96Zm1.875,1.875h1.875V20.75h-1.875ZM-100.71,24.5v3.75h3.75V24.5Zm0,5.625v3.75h3.75v-3.75Zm0,5.625v5.625h3.75V35.75Zm-9.375,7.5h1.875v1.875h-1.875ZM-86.46,17Zm7.5,0h1.875v3.75h9.375V17h1.875v3.75h7.5v1.875h-7.5V24.5h3.75v5.625H-82.71V24.5h3.75V22.625h-7.5V20.75h7.5Zm1.875,5.625V24.5h9.375V22.625Zm-3.75,3.75V28.25h3.75V26.375Zm5.625,0V28.25h5.625V26.375Zm7.5,0V28.25h3.75V26.375ZM-84.585,32h26.25v3.75H-60.21v1.875h-1.875V35.75h1.875V33.875H-73.335V35.75h9.375V39.5h-1.875v1.875h-3.75V43.25h-3.75v1.875h-3.75V47h-7.5V45.125h7.5V43.25h3.75V41.375h3.75V39.5h3.75V37.625H-75.21V39.5h-3.75v1.875h-3.75V39.5h3.75V37.625h1.875V35.75h1.875V33.875h-7.5V35.75h-1.875v1.875H-86.46V35.75h1.875Zm9.375,7.5h1.875v1.875H-75.21ZM-53.46,17Zm7.5,0h1.875v5.625h3.75V24.5h-3.75v1.875h1.875V28.25h-1.875v9.375H-45.96V28.25h-1.875v1.875H-49.71V32h-1.875V30.125h1.875V28.25h1.875V26.375h1.875V24.5h-5.625V22.625h5.625Zm7.5,1.875h9.375V35.75H-38.46Zm1.875,1.875V24.5h5.625V20.75Zm0,5.625V28.25h5.625V26.375ZM-42.21,28.25h1.875v1.875H-42.21Zm5.625,1.875v3.75h5.625v-3.75ZM-42.21,35.75h1.875v1.875H-42.21Zm1.875,1.875h1.875v3.75h-1.875ZM-49.71,39.5h1.875v3.75H-49.71v1.875h-1.875V43.25h1.875Zm3.75,0h1.875v5.625H-45.96Zm15,0h1.875v1.875H-30.96Zm-3.75,1.875h1.875V47h-11.25V45.125h9.375Zm5.625,0h1.875v3.75h-1.875ZM-20.46,17Zm7.5,0h1.875v5.625h3.75V24.5h-3.75v3.75H-5.46V22.625H.165V17H2.04v5.625H5.79V20.75H7.665V24.5H2.04V32H.165v1.875H-1.71V35.75H-3.585v1.875H-5.46v-7.5h-5.625v3.75h3.75V35.75h-3.75v7.5H7.665v1.875H-12.96V43.25h-1.875V41.375h1.875V30.125h-5.625V28.25h5.625V24.5h-3.75V22.625h3.75ZM3.915,18.875H5.79V20.75H3.915Zm-7.5,5.625v9.375H-1.71V32H.165V24.5Zm7.5,1.875H5.79V32H3.915v5.625H.165V39.5H-1.71v1.875H-3.585V39.5H-1.71V37.625H.165V35.75H2.04V32H3.915ZM-16.71,32h1.875v9.375H-16.71v3.75h-1.875V47H-20.46V45.125h1.875v-3.75h1.875Zm22.5,1.875H7.665v7.5H5.79V39.5H3.915V37.625H5.79ZM12.54,17Zm13.125,0H27.54v3.75H38.79v1.875H27.54V32h1.875V30.125H31.29V24.5h1.875v5.625H31.29V32H29.415v3.75H27.54V47H25.665V35.75H23.79v1.875H21.915V39.5H20.04v1.875H16.29V43.25H12.54V41.375h3.75V39.5h3.75V37.625h1.875V35.75H23.79V32h1.875V22.625H14.415V20.75h11.25ZM20.04,24.5h1.875v5.625H20.04V32H18.165v1.875H16.29V32h1.875V30.125H20.04Zm1.875,5.625H23.79V32H21.915Zm11.25,0H35.04V32H33.165ZM35.04,32h1.875v1.875H35.04Zm-5.625,3.75H31.29v1.875H29.415Zm1.875,1.875h3.75V39.5H31.29ZM35.04,39.5h5.625v1.875H38.79V43.25H36.915V41.375H35.04ZM45.54,17Zm7.5,0h1.875v5.625h3.75V24.5h-3.75v3.75H60.54V22.625h5.625V17H68.04v5.625h3.75V20.75h1.875V24.5H68.04V32H66.165v1.875H64.29V35.75H62.415v1.875H60.54v-7.5H54.915v3.75h3.75V35.75h-3.75v7.5h18.75v1.875H53.04V43.25H51.165V41.375H53.04V30.125H47.415V28.25H53.04V24.5H49.29V22.625h3.75Zm16.875,1.875H71.79V20.75H69.915Zm-7.5,5.625v9.375H64.29V32h1.875V24.5Zm7.5,1.875H71.79V32H69.915v5.625h-3.75V39.5H64.29v1.875H62.415V39.5H64.29V37.625h1.875V35.75H68.04V32h1.875ZM49.29,32h1.875v9.375H49.29v3.75H47.415V47H45.54V45.125h1.875v-3.75H49.29Zm22.5,1.875h1.875v7.5H71.79V39.5H69.915V37.625H71.79ZM78.54,17Zm20.625,0h1.875v1.875h1.875V20.75h-7.5v1.875h-3.75v3.75H104.79V28.25H99.165V41.375H97.29V28.25H91.665V39.5H89.79v1.875H87.915V43.25H86.04V41.375h1.875V39.5H89.79V20.75h5.625V18.875h3.75ZM82.29,18.875h1.875V20.75H82.29Zm1.875,1.875H86.04V24.5H84.165Zm-5.625,7.5h7.5V41.375H84.165V43.25H82.29v1.875H80.415V43.25H82.29V41.375h1.875V30.125H78.54Zm9.375,15h18.75v1.875H87.915ZM111.54,17Zm3.75,1.875h20.625v3.75H134.04V24.5h-1.875v1.875H130.29V28.25h-1.875v1.875H126.54v15h-1.875V47H122.79V45.125h1.875V28.25h3.75V26.375h1.875V24.5h1.875V22.625h1.875V20.75H115.29Zm5.625,24.375h1.875v1.875h-1.875ZM158.16,25.58l.45,15.66h1.86l.48-15.66Zm1.38,17.85a1.718,1.718,0,0,0-1.29.51,1.61,1.61,0,0,0-.51,1.26,1.718,1.718,0,0,0,.51,1.29,1.839,1.839,0,0,0,1.29.51,1.912,1.912,0,0,0,1.32-.51,1.74,1.74,0,0,0,.51-1.29,1.719,1.719,0,0,0-.51-1.26A1.785,1.785,0,0,0,159.54,43.43Zm22.98,0a1.61,1.61,0,0,0-1.26.51,1.634,1.634,0,0,0-.54,1.26,1.745,1.745,0,0,0,.54,1.29,1.718,1.718,0,0,0,1.26.51,1.912,1.912,0,0,0,1.32-.51,1.739,1.739,0,0,0,.51-1.29,1.718,1.718,0,0,0-.51-1.26A1.74,1.74,0,0,0,182.52,43.43Zm10.02,0a1.718,1.718,0,0,0-1.29.51,1.61,1.61,0,0,0-.51,1.26,1.718,1.718,0,0,0,.51,1.29,1.839,1.839,0,0,0,1.29.51,1.912,1.912,0,0,0,1.32-.51,1.74,1.74,0,0,0,.51-1.29,1.719,1.719,0,0,0-.51-1.26A1.785,1.785,0,0,0,192.54,43.43Zm9.99,0a1.718,1.718,0,0,0-1.29.51,1.61,1.61,0,0,0-.51,1.26,1.718,1.718,0,0,0,.51,1.29,1.886,1.886,0,0,0,2.58,0,1.654,1.654,0,0,0,.54-1.29,1.634,1.634,0,0,0-.54-1.26A1.718,1.718,0,0,0,202.53,43.43Zm11.97,0a1.654,1.654,0,0,0-1.29.54,1.764,1.764,0,0,0-.54,1.32,1.745,1.745,0,0,0,.54,1.29,1.654,1.654,0,0,0,1.29.54,1.793,1.793,0,0,0,1.29-.54,1.745,1.745,0,0,0,.54-1.29,1.764,1.764,0,0,0-.54-1.32A1.793,1.793,0,0,0,214.5,43.43Z" transform="translate(668 271)" fill="#e4e4e4"/>
  </g>
</svg>
