<svg xmlns="http://www.w3.org/2000/svg" width="733.348" height="304" viewBox="0 0 733.348 304">
  <path id="steve-d" d="M0,4ZM1.75,5.75H24.5V7.5h-7V9.25h5.25V14.5H3.5V9.25H8.75V7.5h-7ZM10.5,7.5V9.25h5.25V7.5ZM5.25,11v1.75h3.5V11Zm5.25,0v1.75h5.25V11Zm7,0v1.75H21V11ZM5.25,16.25H21V28.5H19.25v1.75H17.5V28.5H8.75v1.75H7V32H5.25V30.25H7V28.5H5.25ZM7,18v1.75H19.25V18Zm0,3.5v1.75H19.25V21.5ZM7,25v1.75H19.25V25Zm12.25,5.25H21V32H19.25ZM30.8,4Zm7,0h1.75V9.25H37.8V32H36.05V14.5H34.3v1.75H32.55V18H30.8V16.25h1.75V14.5H34.3V12.75h1.75V9.25H37.8ZM48.3,4h1.75V7.5H48.3V9.25h7V32H53.55V28.5H44.8V32H43.05V9.25h3.5V7.5H48.3Zm-3.5,7v7h8.75V11Zm0,8.75v7h8.75v-7ZM61.6,4Zm3.5,0h1.75V9.25H72.1V4h1.75V9.25H75.6V11H73.85V23.25H75.6V25h-14V23.25h3.5V11H63.35V9.25H65.1ZM82.6,5.75h3.5V7.5H82.6V9.25H79.1V14.5h8.75v1.75h-3.5V32H82.6V16.25H79.1v10.5H77.35v3.5H75.6V32H73.85V30.25H75.6v-3.5h1.75V7.5H82.6ZM66.85,11v3.5H72.1V11Zm0,5.25V18H72.1V16.25Zm0,3.5v3.5H72.1v-3.5Zm0,7H68.6V28.5H66.85v1.75H65.1V32H63.35V30.25H65.1V28.5h1.75Zm3.5,0H72.1V28.5H70.35ZM72.1,28.5h1.75v1.75H72.1ZM92.456,11.784h12.1v4.032H96.544V19.9h8.008V31.972h-12.1v-4.06h8.12V23.88h-8.12Zm18.872-.028h12.04v4.088h-3.976v16.1h-3.976V15.788h-4.088Zm18.928.084h12.1V15.9H134.26v4.032h4.088v4.06H134.26v4.06h8.092v3.976h-12.1Zm18.984,0h3.976v12.1H157.3V11.84h4.032V28.024H157.3v3.948h-4.088v-4H149.24Zm18.872,0h12.1V15.9h-8.092v4.032H176.2v4.06h-4.088v4.06h8.092v3.976h-12.1Zm29.792-.056h12.068V32H197.9V23.908h4.032V27.94h3.976V15.816H197.9Zm18.928,0h4.06V31.916h-4.06Zm4.032,0h8.064V31.916h-8.064V27.968h4.088V15.816h-4.088Zm14.868.112h12.012v4.032h-7.98v4.116h12.068V24.02H239.708v4.032h12.124v4h-16.1Zm8.064,4.032h3.948v4.116H243.8Zm3.948,8.092h4.088v4.032h-4.088Zm11.032-12.236h12.1v4.032h-8.008V19.9h8.008V31.972h-12.1v-4.06h8.12V23.88h-8.12Zm32.872,3.164a1.573,1.573,0,0,0-1.232.532,1.524,1.524,0,0,0-.476,1.2,1.6,1.6,0,0,0,.476,1.2,1.647,1.647,0,0,0,1.232.5,1.691,1.691,0,0,0,1.232-.5,1.628,1.628,0,0,0,.5-1.2,1.544,1.544,0,0,0-.5-1.2A1.613,1.613,0,0,0,291.648,14.948Zm0,10.248a1.573,1.573,0,0,0-1.232.532,1.524,1.524,0,0,0-.476,1.2,1.6,1.6,0,0,0,.476,1.2,1.647,1.647,0,0,0,1.232.5,1.691,1.691,0,0,0,1.232-.5,1.628,1.628,0,0,0,.5-1.2,1.544,1.544,0,0,0-.5-1.2A1.613,1.613,0,0,0,291.648,25.2Zm35-16.352V26.008h2.044V10.72h6.916V8.844ZM339.248,4Zm14,0H355V9.25h5.25V5.75H362v3.5h3.5V11H355v5.25h-1.75V11H344.5v5.25h7V25h-1.75v1.75H348V25h1.75V18H344.5v8.75h-1.75V28.5H341v1.75h-1.75V28.5H341V26.75h1.75V9.25h10.5Zm5.25,0h1.75V5.75H358.5ZM362,14.5h1.75V18H362v3.5h-1.75v1.75H358.5v3.5H355V28.5h-1.75v1.75H351.5V32h-1.75V30.25h1.75V28.5h1.75V26.75H355V25h1.75V21.5h3.5V18H362Zm-7,1.75h1.75V21.5H355Zm-8.75,7H348V25h-1.75Zm17.5,1.75h1.75v7H362V30.25h1.75Zm-5.25,1.75h1.75V28.5H358.5Zm1.75,1.75H362v1.75h-1.75Zm9.8-24.5Zm3.5,0h1.75V5.75h-1.75ZM385.8,4h1.75v8.75h8.75V14.5h-5.25v14H389.3v-14h-1.75V25H385.8v3.5h-1.75v1.75H382.3V32h-1.75V30.25h1.75V28.5h1.75V25h1.75V14.5h-5.25v7h-3.5v8.75H375.3V32h-1.75V30.25h1.75V21.5h-3.5v-7h8.75V12.75h5.25ZM375.3,5.75h1.75V7.5H375.3Zm14,0h1.75V7.5H389.3Zm1.75,1.75h1.75V9.25h-1.75Zm-21,1.75H382.3V11h-12.25Zm3.5,7v3.5h5.25v-3.5Zm-1.75,7h1.75V25H371.8v1.75h-1.75V25h1.75Zm7,0h1.75V25H378.8Zm1.75,1.75h1.75v1.75h-1.75Zm14,0h1.75v5.25h-5.25V28.5h3.5ZM371.8,28.5h1.75v1.75H371.8ZM400.848,4Zm5.25,0h1.75V7.5H406.1V9.25h7V14.5h1.75V11h1.75V4h1.75V9.25h7V28.5H423.6v1.75h-1.75V32H420.1V30.25h1.75V28.5h1.75V11h-7v3.5h-1.75v1.75H413.1v14h-1.75V28.5h-7v1.75H402.6v-21h1.75V7.5h1.75Zm-1.75,7v7h7V11Zm12.25,5.25h1.75V18H416.6Zm1.75,1.75h1.75v3.5h-1.75Zm-14,1.75v7h7v-7Zm14,8.75h1.75v1.75h-1.75ZM431.648,4Zm17.5,0h1.75V5.75h-1.75Zm-3.5,1.75h1.75v3.5h10.5V11h-5.25v3.5h3.5v1.75h-3.5v3.5h3.5V21.5h-3.5v5.25h5.25V28.5h-12.25V32H443.9V14.5h-1.75v1.75H440.4v10.5h-1.75V25h-3.5v1.75H433.4V7.5h7v7h1.75V12.75h1.75V9.25h1.75Zm5.25,0h1.75V7.5H450.9Zm-15.75,3.5v14h3.5v-14Zm10.5,1.75v3.5h5.25V11Zm0,5.25v3.5h5.25v-3.5Zm0,5.25v5.25h5.25V21.5ZM462.448,4Zm0,12.25H488.7V18h-26.25ZM493.248,4ZM509,4h1.75V5.75H509V7.5h-1.75V9.25H505.5V11h-1.75v1.75H502V11h1.75V9.25h1.75V7.5h1.75V5.75H509Zm-12.25,1.75h1.75V7.5h-1.75Zm14,0h1.75V7.5h-1.75ZM498.5,7.5h1.75V11H498.5Zm14,0h1.75V9.25H512.5Zm1.75,1.75h5.25V11h-1.75v1.75H516V11h-1.75v1.75h-3.5v3.5h7V18h-7v8.75H509V28.5h10.5v1.75H502V28.5h5.25V26.75H509V18h-7V16.25h7v-3.5h-3.5V11h8.75Zm-21,5.25h7V26.75H498.5V28.5h-1.75v1.75H495V28.5h1.75V26.75h1.75V16.25h-5.25Zm10.5,5.25h1.75v3.5h-1.75V25H502V23.25h1.75Zm10.5,0H516V21.5h-1.75ZM516,21.5h1.75V25H516ZM505.5,25h1.75v1.75H505.5Zm-5.25,1.75H502V28.5h-1.75ZM524.048,4Zm7,0h1.75V7.5h-1.75V9.25H529.3V11h-1.75v1.75H525.8V11h1.75V9.25h1.75V7.5h1.75Zm3.5,1.75H550.3V7.5h-1.75V9.25H546.8V11h-1.75v1.75H543.3V11h1.75V9.25h1.75V7.5h-3.5V9.25h-1.75V11H539.8v1.75h-1.75V11h1.75V9.25h1.75V7.5h-3.5V9.25H536.3V11h-1.75v1.75H532.8V14.5h-1.75v14h8.75v-7h-7V19.75h15.75V21.5h-7v7h8.75v1.75h-19.25V32H529.3V18h-1.75v1.75H525.8V21.5h-1.75V19.75h1.75V18h1.75V16.25h1.75V14.5h1.75V11h3.5V9.25h1.75V7.5h-1.75Zm0,7h1.75V14.5h-1.75Zm5.25,0h1.75V14.5H539.8Zm5.25,0h1.75V14.5h-1.75ZM536.3,14.5h1.75v1.75H536.3Zm5.25,0h1.75v1.75h-1.75Zm5.25,0h1.75v1.75H546.8ZM554.848,4Zm7,0H574.1V16.25h-12.25Zm1.75,1.75v3.5h8.75V5.75Zm0,5.25v3.5h8.75V11Zm-7,7h22.75v1.75h-10.5v3.5h8.75V25h-8.75v5.25h-3.5V28.5h1.75V19.75H556.6Zm5.25,3.5h1.75v5.25h-1.75V28.5H560.1v1.75h-1.75V32H556.6V30.25h1.75V28.5h1.75V26.75h1.75Zm1.75,5.25h1.75V28.5H563.6Zm5.25,3.5h10.5V32h-10.5ZM585.648,4Zm5.25,0h1.75V7.5h3.5V9.25h-3.5v3.5h5.25V14.5h-3.5v1.75h-1.75v3.5h3.5V18h1.75v1.75h-1.75V21.5h-3.5v1.75h5.25V21.5h1.75V18h1.75V16.25h-1.75V14.5h1.75V11h-3.5V9.25h3.5V4h1.75V9.25h5.25V21.5h-1.75V11h-3.5v7H601.4v3.5h-1.75v1.75H597.9V25H587.4V23.25h3.5V21.5h-1.75V19.75h1.75v-3.5h1.75V14.5H590.9v1.75h-1.75v3.5H587.4V21.5h-1.75V19.75h1.75v-3.5h1.75V14.5h-3.5V12.75h5.25V9.25h-3.5V7.5h3.5Zm3.5,12.25h1.75V18H594.4Zm15.75,0h1.75V25h-1.75V23.25H608.4V21.5h1.75Zm-7,1.75h1.75v1.75h-1.75ZM587.4,26.75h1.75v3.5H587.4V32h-1.75V30.25h1.75Zm5.25,0h1.75V28.5h-1.75Zm7,0h1.75V28.5h-1.75Zm7,0h1.75V28.5h-1.75ZM594.4,28.5h1.75V32H594.4Zm7,0h1.75V32H601.4Zm7,0h3.5V32h-1.75V30.25H608.4ZM616.448,4Zm14,0h8.75V5.75h-8.75V7.5H628.7V9.25h-1.75V7.5h-3.5V9.25H621.7V7.5h-1.75V5.75h10.5Zm5.25,3.5h1.75V9.25H635.7V11h7v3.5h-1.75v1.75H639.2V18h-1.75V16.25h1.75V14.5h1.75V12.75H628.7V14.5h-1.75V12.75h-7V14.5H618.2v1.75h-1.75V14.5h1.75V11h5.25V9.25h1.75V11h3.5V9.25h1.75V11h3.5V9.25h1.75Zm-15.75,7h1.75V18h-1.75v1.75H618.2V18h1.75Zm3.5,0h1.75V18h-1.75Zm5.25,0h1.75v1.75H628.7Zm7,0h1.75v1.75H635.7v3.5H625.2V21.5h12.25v1.75H635.7V25h-1.75v1.75h-3.5V28.5h-3.5v1.75h-3.5V32H618.2V30.25h5.25V28.5h3.5V26.75h3.5V25h3.5V23.25h-10.5V25H621.7v1.75h-3.5V25h3.5V23.25h1.75v-3.5h1.75V18h8.75V16.25h1.75ZM623.448,25h3.5v1.75h-3.5Zm7,3.5h5.25v1.75h-5.25Zm5.25,1.75h5.25V32H635.7ZM647.248,4ZM659.5,4h1.75V5.75H659.5V7.5h-1.75V9.25h10.5V32H666.5V30.25h-12.25V32H652.5V9.25H656V7.5h1.75V5.75h1.75Zm-5.25,7v5.25H666.5V11Zm0,7v3.5H666.5V18Zm0,5.25V28.5H666.5V23.25ZM678.048,4Zm1.75,3.5h19.25V19.75H697.3V18h-14V28.5h-1.75V16.25H697.3v-7H679.8Zm21,17.5h1.75v5.25H683.3V28.5h17.5Zm8.05-21Zm5.25,0h1.75V7.5H714.1V9.25h7V14.5h1.75V11h1.75V4h1.75V9.25h7V28.5H731.6v1.75h-1.75V32H728.1V30.25h1.75V28.5h1.75V11h-7v3.5h-1.75v1.75H721.1v14h-1.75V28.5h-7v1.75H710.6v-21h1.75V7.5h1.75Zm-1.75,7v7h7V11Zm12.25,5.25h1.75V18H724.6Zm1.75,1.75h1.75v3.5h-1.75Zm-14,1.75v7h7v-7Zm14,8.75h1.75v1.75h-1.75ZM0,50Zm12.25,0H14v3.5H26.25v1.75H14V57h8.75v5.25H14V64h8.75v3.5h3.5v1.75h-3.5v3.5H14v3.5H12.25V78H10.5V76.25h1.75v-3.5H3.5V71h8.75V69.25H0V67.5H12.25V65.75H3.5V64h8.75V62.25H3.5V57h8.75V55.25H0V53.5H12.25Zm-7,8.75V60.5h7V58.75Zm8.75,0V60.5h7V58.75Zm0,7V67.5h7V65.75Zm0,3.5V71h7V69.25ZM8.75,74.5H10.5v1.75H8.75ZM30.8,50Zm8.75,0H41.3v5.25h5.25V50H48.3v5.25h1.75V53.5H51.8V51.75h1.75V53.5H51.8v1.75h5.25V57h-7v1.75H48.3V60.5h5.25v1.75H44.8V64h8.75v1.75H44.8V67.5H55.3v1.75h-7V71H46.55V69.25H44.8V78H43.05V69.25H41.3V71H39.55v1.75H37.8V74.5H34.3v1.75H30.8V74.5h3.5V72.75h3.5V71h1.75V69.25h-7V67.5h10.5V65.75H34.3V64h8.75V62.25H34.3V60.5h5.25V58.75H41.3V60.5h5.25V58.75H48.3V57H39.55v1.75H37.8V57h-7V55.25h5.25V53.5H37.8v1.75h1.75ZM34.3,51.75h1.75V53.5H34.3ZM48.3,71h3.5v1.75H48.3Zm3.5,1.75h5.25V74.5H55.3v1.75H53.55V74.5H51.8Zm23.772-6.762a1.694,1.694,0,0,0-1.316.476,1.625,1.625,0,0,0-.5,1.26,1.666,1.666,0,0,0,.476,1.232,1.628,1.628,0,0,0,1.2.5,1.5,1.5,0,0,0,.616-.112,3.3,3.3,0,0,1-.588,1.876,4.049,4.049,0,0,1-1.792,1.232v1.372a5.4,5.4,0,0,0,2.884-1.82,5.247,5.247,0,0,0,1.092-3.276,3.253,3.253,0,0,0-.56-1.96A1.788,1.788,0,0,0,75.572,65.988ZM92.4,50Zm7,0h1.75v7h5.25V67.5h-1.75V71H102.9v1.75h-1.75V74.5H99.4v1.75H95.9V78H92.4V76.25h3.5V74.5h3.5V72.75h1.75V71h1.75V67.5h1.75V58.75H99.4v7H97.65V67.5H95.9V65.75h1.75v-7h-3.5V57H99.4Zm8.75,5.25h8.75V74.5h-1.75V72.75H109.9V74.5h-1.75ZM109.9,57V71h5.25V57ZM97.65,67.5H99.4v1.75H97.65Zm1.75,1.75h1.75V71H99.4Zm3.5,3.5h1.75V74.5H102.9Zm1.75,1.75h1.75V78h-1.75ZM123.2,50Zm5.25,1.75H144.2v14h-1.75V64H137.2v3.5h12.25v1.75H140.7V71h-1.75V69.25H137.2V78h-1.75V69.25H133.7V71h-1.75v1.75H130.2V74.5h-3.5v1.75h-3.5V74.5h3.5V72.75h3.5V71h1.75V69.25H123.2V67.5h12.25V64H130.2v1.75h-1.75Zm1.75,1.75V57h5.25V53.5Zm7,0V57h5.25V53.5Zm-7,5.25v3.5h5.25v-3.5Zm7,0v3.5h5.25v-3.5ZM140.7,71h3.5v1.75h-3.5Zm3.5,1.75h5.25V74.5H147.7v1.75h-1.75V74.5H144.2ZM154,50Zm5.25,0H161v5.25h-1.75V78H157.5V60.5h-1.75v1.75H154V60.5h1.75V58.75h1.75v-3.5h1.75Zm7,0H168v5.25h10.5v3.5h-1.75V60.5H175V58.75h1.75V57h-10.5v1.75H164.5V60.5h-1.75v1.75H161V60.5h1.75V58.75h1.75v-3.5h1.75Zm3.5,10.5h1.75V76.25h-1.75V78H168V76.25h1.75Zm-3.5,3.5H168v3.5h-1.75v1.75H164.5V71h-1.75V69.25h1.75V67.5h1.75Zm7,0H175v1.75h-1.75ZM175,65.75h1.75V67.5H175Zm1.75,1.75h1.75V71h-1.75Zm-10.5,7H168v1.75h-1.75ZM184.8,50Zm7,0h17.5v5.25H191.8Zm-5.25,1.75h1.75V53.5h-1.75Zm7,0V53.5h3.5V51.75Zm5.25,0V53.5h3.5V51.75Zm5.25,0V53.5h3.5V51.75ZM188.3,53.5h1.75V57H188.3Zm3.5,3.5h19.25v1.75H191.8Zm-7,1.75h5.25v14H188.3V74.5h-1.75v1.75H184.8V74.5h1.75V72.75h1.75V60.5h-3.5Zm8.75,1.75h14v5.25H202.3V67.5h-1.75V65.75H198.8V71h1.75V69.25h1.75V67.5h1.75v1.75H202.3V71h-1.75v1.75H198.8V74.5h8.75V72.75H205.8V71h3.5v3.5h1.75v1.75H191.8V74.5h5.25V69.25H195.3V71h-1.75v1.75H191.8V74.5h-1.75V72.75h1.75V71h1.75V69.25h1.75V67.5h1.75V65.75h-3.5Zm1.75,1.75V64h10.5V62.25Zm12.25,3.5h1.75V67.5h-1.75v1.75H205.8V71h-1.75V69.25h1.75V67.5h1.75ZM215.6,50Zm14,0h1.75v3.5h8.75v5.25h-1.75V60.5h-3.5V58.75h3.5v-3.5H229.6v3.5h-1.75V60.5H226.1V58.75h1.75v-3.5h1.75Zm-10.5,1.75h1.75V53.5H219.1Zm1.75,1.75h1.75V57h-1.75ZM215.6,57h1.75v1.75H215.6Zm1.75,1.75h1.75v3.5h-1.75Zm5.25,1.75h1.75V64H222.6v3.5h-1.75v8.75H219.1v-7h-3.5V67.5h5.25V64h1.75Zm5.25,1.75H240.1v3.5h-1.75v3.5H236.6V71h-1.75v1.75H233.1V74.5h-1.75v1.75h-3.5V78h-3.5V76.25h3.5V74.5h3.5V72.75h1.75V71h1.75V69.25h1.75v-3.5h1.75V64h-7v3.5H229.6V64h-1.75Zm3.5,5.25h1.75V71h-1.75Zm3.5,5.25h1.75V74.5h-1.75Zm1.75,1.75h5.25v1.75H240.1V78h-1.75V76.25H236.6ZM246.4,50Zm5.25,0h1.75v7h3.5v1.75h-3.5v3.5h3.5V64h-3.5V76.25h-1.75V78H249.9V76.25h1.75V65.75H249.9V67.5h-3.5V65.75h3.5V64h1.75V58.75H246.4V57h5.25Zm8.75,0h1.75v8.75h3.5V57h5.25v1.75h-5.25V60.5h-3.5v5.25H260.4V60.5h-3.5V58.75h3.5Zm5.25,0h1.75v1.75h-1.75Zm1.75,1.75h1.75v3.5H267.4Zm0,10.5h1.75V64H267.4v1.75h-1.75V67.5H263.9v1.75h-1.75V71H260.4v1.75h-1.75V74.5H256.9v1.75h-1.75V74.5h1.75V72.75h1.75V71h1.75V69.25h1.75v-3.5h3.5V64h1.75Zm-3.5,7h1.75v3.5H263.9Zm5.25,0h1.75V78h-1.75V76.25H267.4V74.5h1.75Zm-3.5,3.5h1.75V74.5h-1.75Zm-17.5,1.75h1.75v1.75h-1.75ZM277.2,50Zm22.75,0h1.75V76.25h-1.75V78H298.2V76.25h1.75Zm-21,1.75h14V53.5h-7v1.75H284.2V57h-1.75v1.75H280.7V60.5h8.75V58.75h1.75V60.5h1.75V64H291.2V62.25h-5.25V67.5h5.25v1.75h-5.25v3.5h7V74.5h-7v1.75H280.7V78h-1.75V76.25H277.2V74.5h7V69.25h-5.25V67.5h5.25V62.25h-3.5V64h-1.75V62.25H277.2V60.5h1.75V58.75h1.75V57h1.75V55.25h1.75V53.5h-5.25Zm15.75,3.5h1.75V71H294.7Zm-7,1.75h1.75v1.75H287.7Zm8.75,17.5h1.75v1.75h-1.75ZM308,50Zm5.25,0H315v3.5h-1.75v1.75h7V60.5H322V57h1.75V50h1.75v5.25h7V74.5h-1.75v1.75H329V78h-1.75V76.25H329V74.5h1.75V57h-7v3.5H322v1.75h-1.75v14H318.5V74.5h-7v1.75h-1.75v-21h1.75V53.5h1.75Zm-1.75,7v7h7V57Zm12.25,5.25h1.75V64h-1.75ZM325.5,64h1.75v3.5H325.5Zm-14,1.75v7h7v-7Zm14,8.75h1.75v1.75H325.5ZM338.8,50Zm3.5,0h1.75v1.75H342.3Zm17.5,0h1.75v1.75h1.75V53.5h-5.25v5.25h5.25V60.5h-5.25v5.25h5.25V78h-1.75V76.25H352.8V78h-1.75V65.75h5.25V60.5h-5.25V58.75h5.25v-3.5h-5.25V57H338.8V55.25h12.25V53.5h5.25V51.75h3.5Zm-15.75,1.75h1.75V53.5h-1.75Zm-3.5,7h8.75V60.5h-8.75Zm0,3.5h8.75V64h-8.75Zm0,3.5h8.75v10.5h-1.75V74.5H342.3v1.75h-1.75Zm1.75,1.75v5.25h5.25V67.5Zm10.5,0v7h8.75v-7Zm30.772-1.512a1.694,1.694,0,0,0-1.316.476,1.625,1.625,0,0,0-.5,1.26,1.666,1.666,0,0,0,.476,1.232,1.628,1.628,0,0,0,1.2.5,1.5,1.5,0,0,0,.616-.112,3.3,3.3,0,0,1-.588,1.876,4.049,4.049,0,0,1-1.792,1.232v1.372a5.4,5.4,0,0,0,2.884-1.82,5.247,5.247,0,0,0,1.092-3.276,3.253,3.253,0,0,0-.56-1.96A1.788,1.788,0,0,0,383.572,65.988ZM400.4,50Zm5.25,0h1.75v3.5h-1.75V57H403.9v1.75h3.5v-3.5h1.75v3.5H407.4v3.5h-1.75V64H403.9v1.75h3.5V64h1.75v5.25H407.4V67.5h-3.5v1.75h-1.75V67.5H400.4V65.75h1.75V64h1.75V62.25h1.75V60.5H400.4V58.75h1.75V57h1.75V53.5h1.75Zm10.5,0h1.75v1.75h-1.75V53.5h3.5v1.75H417.9V57h-1.75v1.75h1.75V57h1.75v5.25h5.25V60.5h-3.5V58.75h1.75V57H421.4V53.5h1.75V50h1.75v3.5h-1.75v1.75h1.75V53.5h1.75V57H424.9v1.75h1.75V64H424.9v1.75h-1.75V67.5h3.5v1.75H424.9V71h-1.75v1.75h1.75V71h1.75v7H410.9V51.75h1.75v10.5h5.25V60.5h-3.5V57h1.75V55.25H414.4v-3.5h1.75Zm-3.5,14V76.25h5.25V74.5h-3.5V71h1.75V69.25H414.4v-3.5h1.75V64Zm5.25,0v1.75h-1.75V67.5h1.75V71h-1.75v1.75h1.75V71h1.75v5.25h5.25V74.5h-3.5V71h1.75V69.25H421.4v-3.5h1.75V64Zm-17.5,7h1.75v5.25H400.4Zm3.5,0h1.75v5.25H403.9Zm3.5,0h1.75v5.25H407.4Zm23.8-21Zm5.25,0h1.75v3.5h-1.75V57H434.7v1.75h3.5v-3.5h1.75v3.5H438.2v3.5h-1.75V64H434.7v1.75h3.5V64h1.75v1.75h1.75v3.5h-1.75V67.5H434.7v1.75h-1.75V67.5H431.2V65.75h1.75V64h1.75V62.25h1.75V60.5H431.2V58.75h1.75V57h1.75V53.5h1.75Zm12.25,0h1.75v1.75h7V53.5h-7v1.75h5.25V57H443.45V55.25h5.25V53.5h-7V51.75h7Zm-7,8.75h15.75V64H455.7V74.5h-1.75v1.75H452.2V74.5h-5.25v1.75H445.2V78h-1.75V76.25h1.75V74.5h-1.75V64H441.7Zm1.75,1.75v1.75h3.5V60.5Zm5.25,0v1.75h1.75V60.5Zm3.5,0v1.75h3.5V60.5Zm-7,3.5v1.75h8.75V64Zm0,3.5v1.75h8.75V67.5ZM432.95,71h1.75v3.5h-1.75v1.75H431.2V74.5h1.75Zm3.5,0h1.75v5.25h-1.75Zm3.5,0h1.75v5.25h-1.75Zm5.25,0v1.75h8.75V71Zm8.75,5.25h1.75V78h-1.75ZM462,50Zm3.5,1.75H483V60.5H465.5V58.75h15.75V57h-14V55.25h14V53.5H465.5Zm0,10.5h8.75V64h-3.5v1.75H476V67.5H463.75V65.75H469V64h-3.5Zm12.25,0h8.75V67.5h-5.25v1.75h7V71h-7v5.25H479.5V78h-1.75V76.25h1.75V71h-8.75v1.75H469V71h-7V69.25h17.5V67.5h-1.75ZM479.5,64v1.75h5.25V64Zm-8.75,8.75h1.75v3.5h-1.75ZM476,74.5h1.75v1.75H476ZM492.8,50Zm5.25,0h1.75v7h3.5v1.75h-3.5v3.5h3.5V64h-3.5V76.25h-1.75V78H496.3V76.25h1.75V65.75H496.3V67.5h-3.5V65.75h3.5V64h1.75V58.75H492.8V57h5.25Zm8.75,0h1.75v8.75h3.5V57h5.25v1.75h-5.25V60.5h-3.5v5.25H506.8V60.5h-3.5V58.75h3.5Zm5.25,0h1.75v1.75h-1.75Zm1.75,1.75h1.75v3.5H513.8Zm0,10.5h1.75V64H513.8v1.75h-1.75V67.5H510.3v1.75h-1.75V71H506.8v1.75h-1.75V74.5H503.3v1.75h-1.75V74.5h1.75V72.75h1.75V71h1.75V69.25h1.75v-3.5h3.5V64h1.75Zm-3.5,7h1.75v3.5H510.3Zm5.25,0h1.75V78h-1.75V76.25H513.8V74.5h1.75Zm-3.5,3.5h1.75V74.5h-1.75Zm-17.5,1.75h1.75v1.75h-1.75Zm43.022-8.512a1.694,1.694,0,0,0-1.316.476,1.625,1.625,0,0,0-.5,1.26,1.666,1.666,0,0,0,.476,1.232,1.628,1.628,0,0,0,1.2.5,1.5,1.5,0,0,0,.616-.112,3.3,3.3,0,0,1-.588,1.876,4.049,4.049,0,0,1-1.792,1.232v1.372a5.4,5.4,0,0,0,2.884-1.82,5.247,5.247,0,0,0,1.092-3.276,3.253,3.253,0,0,0-.56-1.96A1.788,1.788,0,0,0,537.572,65.988ZM554.4,50Zm0,1.75h26.25V53.5h-10.5V57H568.4V78h-1.75V62.25H564.9V64h-1.75v1.75H561.4V67.5h-1.75v1.75H557.9V71h-1.75V69.25h1.75V67.5h1.75V65.75h1.75V64h1.75V62.25h1.75V60.5h1.75V57h1.75V53.5h-14Zm15.75,8.75h1.75v1.75h-1.75Zm1.75,1.75h1.75V64H571.9ZM573.65,64h3.5v1.75h1.75v3.5h-1.75V67.5H575.4V65.75h-1.75ZM585.2,50Zm1.75,1.75H609.7V53.5h-7V57h5.25v7h-10.5v1.75h14V67.5h-7V71H602.7v1.75h-1.75V74.5h-3.5v1.75h-3.5V78H588.7V76.25h5.25V74.5h3.5V72.75h3.5V71h1.75V67.5h-7v1.75h-1.75V71H592.2V69.25h1.75V67.5H585.2V65.75h10.5V64h-7V57h5.25V53.5h-7Zm8.75,1.75V57h5.25V53.5Zm-5.25,5.25v3.5h3.5v-3.5Zm5.25,0v3.5h5.25v-3.5Zm7,0v3.5h3.5v-3.5ZM593.95,71h3.5v1.75h-3.5Zm7,3.5h3.5v1.75h-3.5Zm3.5,1.75h1.75V78h-1.75ZM616,50Zm3.5,1.75h19.25v7h-7v7H637V60.5h1.75v7h-7v7h7V69.25h1.75V78h-1.75V76.25h-17.5V71H619.5v3.5h-1.75v1.75H616V74.5h1.75V71h1.75Zm1.75,1.75V57H637V53.5Zm0,5.25v10.5H623V74.5h7v-7h-7v-7h1.75v5.25H630v-7ZM646.8,50Zm3.5,0h1.75v1.75H650.3Zm12.25,0h1.75v8.75h8.75V60.5H667.8v14h-1.75v-14H664.3V71h-1.75v3.5H660.8v1.75h-1.75V78H657.3V76.25h1.75V74.5h1.75V71h1.75V60.5H657.3v7h-3.5v8.75h-1.75V78H650.3V76.25h1.75V67.5h-3.5v-7h8.75V58.75h5.25Zm-10.5,1.75h1.75V53.5h-1.75Zm14,0h1.75V53.5h-1.75Zm1.75,1.75h1.75v1.75H667.8Zm-21,1.75h12.25V57H646.8Zm3.5,7v3.5h5.25v-3.5Zm-1.75,7h1.75V71h-1.75v1.75H646.8V71h1.75Zm7,0h1.75V71h-1.75ZM657.3,71h1.75v1.75H657.3Zm14,0h1.75v5.25H667.8V74.5h3.5Zm-22.75,3.5h1.75v1.75h-1.75ZM691.6,64.392a3.594,3.594,0,0,0-2.576,1.008,3.262,3.262,0,0,0-1.064,2.52,3.2,3.2,0,0,0,1.064,2.492,3.618,3.618,0,0,0,2.576,1.036,3.666,3.666,0,0,0,2.576-1.036,3.483,3.483,0,0,0,0-5.012A3.641,3.641,0,0,0,691.6,64.392Zm0,1.484a2.12,2.12,0,0,1,1.484.588,1.954,1.954,0,0,1,.644,1.456,2,2,0,0,1-.644,1.456,2.12,2.12,0,0,1-1.484.588,2.027,2.027,0,0,1-1.484-.588,1.858,1.858,0,0,1-.644-1.456,1.819,1.819,0,0,1,.644-1.456A2.027,2.027,0,0,1,691.6,65.876Zm24.556-2.044V79.12H709.24V81h8.96V63.832ZM0,142Zm0,1.75H26.25v1.75H15.75V149H14v21H12.25V154.25H10.5V156H8.75v1.75H7v1.75H5.25v1.75H3.5V163H1.75v-1.75H3.5V159.5H5.25v-1.75H7V156H8.75v-1.75H10.5V152.5h1.75V149H14v-3.5H0Zm15.75,8.75H17.5v1.75H15.75Zm1.75,1.75h1.75V156H17.5ZM19.25,156h3.5v1.75H24.5v3.5H22.75V159.5H21v-1.75H19.25ZM30.8,142Zm5.25,0H51.8v12.25H36.05Zm1.75,1.75v3.5h5.25v-3.5Zm7,0v3.5h5.25v-3.5Zm-7,5.25v3.5h5.25V149Zm7,0v3.5h5.25V149Zm-14,7H57.05v1.75H44.8v3.5H43.05v-3.5H37.8v8.75h1.75v-1.75H41.3v1.75H39.55v1.75H37.8V170H36.05V157.75H30.8Zm19.25,3.5H51.8v1.75H50.05V163H48.3v1.75H46.55V163H48.3v-1.75h1.75Zm-5.25,1.75h1.75V163H44.8Zm3.5,3.5h3.5v1.75H48.3Zm3.5,1.75h5.25v1.75H51.8ZM61.6,142Zm5.25,0H68.6v7h1.75v1.75H68.6V170H66.85Zm5.25,0h7v12.25H75.6V156h3.5v-1.75h1.75V142h7v12.25h-7V156h7v1.75h-7v1.75H86.1v1.75H80.85V163H86.1v1.75H80.85v1.75h7v1.75H75.6V170H73.85V159.5H72.1v1.75H70.35V159.5H72.1v-1.75h1.75v-3.5H72.1V152.5H70.35v-1.75H72.1Zm1.75,1.75v1.75h3.5v-1.75Zm8.75,0v1.75h3.5v-1.75Zm-8.75,3.5V149h3.5v-1.75Zm8.75,0V149h3.5v-1.75ZM63.35,149H65.1v5.25H63.35V156H61.6v-1.75h1.75Zm10.5,1.75v1.75h3.5v-1.75Zm8.75,0v1.75h3.5v-1.75Zm-7,7v1.75h3.5v-1.75Zm0,3.5V163h3.5v-1.75Zm0,3.5v1.75h3.5v-1.75ZM92.4,142Zm7,0h1.75v5.25H99.4V156h8.75v-7H102.9v-1.75h5.25V145.5h3.5v-1.75h1.75v1.75h1.75v1.75H109.9V156h8.75v1.75H109.9v8.75h7v1.75H101.15V166.5h7v-8.75H99.4V170H97.65V152.5H95.9v1.75H94.15V156H92.4v-1.75h1.75V152.5H95.9v-1.75h1.75v-3.5H99.4Zm23.8,0Zm7,0h1.75v5.25H130.2V170h-1.75V152.5H126.7v1.75h-1.75V156H123.2v-1.75h1.75V152.5h1.75v-1.75h1.75v-3.5h1.75Zm3.5,3.5h15.75v1.75h-3.5v21H144.2V170h-1.75v-1.75h1.75v-21H133.7Zm0,5.25h7V163h-1.75v-1.75h-3.5V163H133.7Zm1.75,1.75v7h3.5v-7Zm5.25,14h1.75v1.75H140.7ZM154,142Zm1.75,1.75H178.5V170h-1.75v-1.75H157.5V170h-1.75Zm1.75,1.75v21h8.75V156H164.5v3.5h-1.75v1.75H161V163h-1.75v-1.75H161V159.5h1.75V156h1.75v-1.75h1.75V152.5h-7v-1.75h7V145.5Zm10.5,0v5.25h7v1.75h-7v1.75h1.75V156H168v10.5h8.75v-21Zm1.75,10.5h1.75v1.75h-1.75Zm1.75,1.75h1.75v1.75H171.5Zm1.75,1.75H175V163h-1.75ZM184.8,142Zm3.5,0h1.75v3.5h3.5V142h1.75v3.5h1.75v1.75H195.3v3.5h-1.75v1.75h1.75v-1.75h1.75V149h1.75v-3.5h1.75V142h1.75v3.5h-1.75v1.75h10.5V149H205.8v3.5h3.5v1.75h-3.5v3.5h3.5v1.75h-3.5v5.25h5.25v1.75h-10.5V170H198.8v-5.25h-3.5v1.75h-1.75v-1.75H191.8v1.75h-1.75v1.75H188.3V170h-1.75v-1.75h1.75V166.5h1.75v-1.75H184.8V163h7v-1.75h-5.25V159.5h5.25v-1.75h-5.25V152.5h5.25v-1.75h-3.5v-3.5h-3.5V145.5h3.5Zm15.75,0h1.75v1.75h-1.75Zm1.75,1.75h1.75v1.75H205.8Zm-15.75,3.5V149h3.5v-1.75Zm10.5,1.75v3.5h3.5V149Zm-3.5,1.75v7h-3.5v1.75h3.5v1.75h-3.5V163h5.25V150.75Zm-8.75,3.5V156h3.5v-1.75Zm5.25,0V156h1.75v-1.75Zm7,0v3.5h3.5v-3.5Zm0,5.25v5.25h3.5V159.5Zm-5.25,7h1.75v1.75H195.3Zm34.272-8.512a1.694,1.694,0,0,0-1.316.476,1.625,1.625,0,0,0-.5,1.26,1.666,1.666,0,0,0,.476,1.232,1.628,1.628,0,0,0,1.2.5,1.5,1.5,0,0,0,.616-.112,3.3,3.3,0,0,1-.588,1.876,4.049,4.049,0,0,1-1.792,1.232v1.372a5.4,5.4,0,0,0,2.884-1.82,5.247,5.247,0,0,0,1.092-3.276,3.253,3.253,0,0,0-.56-1.96A1.788,1.788,0,0,0,229.572,157.988ZM246.4,142Zm1.75,1.75h10.5v1.75h-3.5v1.75h3.5v5.25h-3.5V156h3.5v1.75h-10.5Zm12.25,0h10.5V149h-1.75v3.5H267.4V156h-3.5v1.75h-1.75v1.75H260.4v1.75h8.75V163H260.4v3.5h12.25v1.75H246.4V166.5h12.25V163H249.9v-1.75h8.75v-3.5h3.5V156h1.75v-3.5h3.5V149h1.75v-3.5H263.9v7h-1.75v-7H260.4Zm-10.5,1.75v1.75h3.5V145.5Zm0,3.5v1.75h7V149Zm0,3.5V156h3.5v-3.5Zm17.5,3.5h5.25v1.75H270.9v1.75h-1.75v-1.75H267.4Zm9.8-14Zm15.75,0h1.75v5.25h5.25V156h3.5v1.75H294.7v1.75h-1.75V163H291.2v3.5h-1.75v1.75H287.7V170h-1.75v-1.75h1.75V166.5h1.75V163h1.75v-3.5h1.75v-1.75h-7V156h7v-7h-3.5v-1.75h3.5Zm-12.25,1.75h1.75v1.75H280.7Zm1.75,1.75h1.75V149h-1.75ZM277.2,149h1.75v1.75H277.2Zm17.5,0v7h3.5v-7Zm-15.75,1.75h1.75v3.5h-1.75Zm5.25,0h1.75v3.5H284.2v3.5h-1.75v10.5H280.7v-7h-3.5V159.5h3.5v-1.75h1.75v-3.5h1.75Zm10.5,8.75h1.75V163H294.7Zm1.75,3.5h1.75v1.75h-1.75Zm1.75,1.75h1.75v1.75H298.2Zm1.75,1.75h3.5v1.75H301.7V170h-1.75ZM308,142Zm7,0h1.75v3.5H315v1.75h-1.75V149H311.5v1.75h-1.75V149h1.75v-1.75h1.75V145.5H315Zm7,0h1.75v1.75H322Zm1.75,1.75h1.75v1.75h-1.75Zm-7,3.5H332.5V149h-7v7h7v1.75h-7v8.75h8.75v1.75H315V170h-1.75V157.75H311.5v1.75h-1.75v1.75H308V159.5h1.75v-1.75h1.75V156h1.75v-1.75H315v-3.5h1.75v3.5H315V166.5h8.75v-8.75h-7V156h7v-7h-7ZM338.8,142Zm5.25,1.75H359.8v24.5h-1.75V166.5H345.8v1.75h-1.75Zm1.75,1.75v5.25h12.25V145.5Zm0,7v5.25h12.25V152.5Zm0,7v5.25h12.25V159.5ZM369.6,142Zm5.25,0h1.75v7h3.5v-1.75h3.5V145.5h-5.25v-1.75h17.5v1.75H390.6v1.75h3.5v7h-14v-3.5h-3.5v3.5h1.75V156H376.6v14h-1.75V156H373.1v3.5h-1.75v1.75H369.6V159.5h1.75V156h1.75v-3.5h1.75v-1.75H369.6V149h5.25Zm10.5,3.5v1.75h3.5V145.5Zm-3.5,3.5v3.5h1.75V149Zm3.5,0v3.5h3.5V149Zm5.25,0v3.5h1.75V149Zm-12.25,7h1.75v1.75h-1.75Zm3.5,0h10.5v1.75h-10.5Zm-3.5,3.5h17.5v1.75h-7v7H387.1V170h-1.75v-1.75h1.75v-7h-8.75Zm3.5,3.5h1.75v1.75h-1.75v1.75H380.1v1.75h-1.75V166.5h1.75v-1.75h1.75Zm8.75,0h1.75v1.75H390.6Zm1.75,1.75h3.5v3.5H394.1V166.5h-1.75Zm-8.75,1.75h1.75v1.75H383.6ZM400.4,142Zm5.25,0h1.75v1.75h-1.75Zm14,0h1.75v1.75h-1.75v1.75H417.9v1.75h8.75V149H400.4v-1.75h8.75V145.5h1.75v1.75h5.25V145.5h1.75v-1.75h1.75Zm-12.25,1.75h1.75v1.75H407.4Zm-3.5,7h8.75v17.5H410.9V170h-1.75v-1.75h1.75V163h-5.25v7H403.9Zm17.5,0h1.75v17.5H421.4V170h-1.75v-1.75h1.75Zm-15.75,1.75V156h5.25v-3.5Zm10.5,0h1.75V163h-1.75Zm-10.5,5.25v3.5h5.25v-3.5Zm1.75,8.75h1.75v1.75H407.4Zm10.5,0h1.75v1.75H417.9ZM431.2,142Zm12.25,0h1.75v3.5h3.5v-1.75h1.75v1.75h7v1.75h-7v3.5h5.25v1.75h-5.25V156h5.25v1.75h-5.25v3.5h7V163h-14v1.75H441.7V149h-1.75v1.75H438.2V149h1.75v-1.75h1.75V145.5h1.75Zm3.5,0h1.75v1.75h-1.75Zm-12.25,1.75h1.75v1.75H434.7Zm1.75,1.75h1.75V149h-1.75Zm7,1.75v3.5h5.25v-3.5ZM431.2,152.5h7v12.25h-1.75v1.75H434.7v1.75h-1.75V166.5h1.75v-1.75h1.75v-10.5H431.2Zm12.25,0V156h5.25v-3.5Zm0,5.25v3.5h5.25v-3.5Zm-5.25,7h1.75v1.75H438.2Zm1.75,1.75h17.5v1.75h-17.5Zm34.762-16.492.42,14.616h1.736l.448-14.616ZM476,166.668a1.6,1.6,0,0,0-1.2.476,1.5,1.5,0,0,0-.476,1.176,1.6,1.6,0,0,0,.476,1.2A1.717,1.717,0,0,0,476,170a1.785,1.785,0,0,0,1.232-.476,1.623,1.623,0,0,0,.476-1.2,1.6,1.6,0,0,0-.476-1.176A1.666,1.666,0,0,0,476,166.668ZM0,188Zm17.5,0h1.75v3.5H17.5v1.75H15.75V195h7v-1.75H24.5v5.25H22.75v-1.75h-3.5v3.5H24.5v7H19.25v5.25h3.5v-1.75H24.5v1.75h1.75V216H24.5v-1.75h-14V212.5h7v-5.25H12.25v-7H17.5v-3.5H12.25V195H14v-1.75h1.75V191.5H17.5ZM1.75,189.75H10.5v8.75H5.25v5.25H10.5v8.75H8.75v1.75H7V216H5.25v-1.75H7V212.5H8.75v-7H3.5v-8.75H8.75V191.5h-7ZM21,191.5h1.75v1.75H21ZM14,202v3.5h3.5V202Zm5.25,0v3.5h3.5V202ZM21,209h1.75v1.75H21ZM1.75,210.75H3.5v1.75H1.75ZM3.5,212.5H5.25v1.75H3.5ZM30.8,188Zm12.25,0H44.8v8.75H57.05v1.75H44.8v1.75H43.05v5.25H41.3V209H39.55v1.75H37.8v1.75H36.05v1.75H34.3V216H32.55v-1.75H34.3V212.5h1.75v-1.75H37.8V209h1.75v-3.5H41.3v-5.25h1.75V198.5H30.8v-1.75H43.05Zm1.75,12.25h1.75v3.5H44.8Zm1.75,3.5H48.3v3.5H46.55Zm1.75,3.5h1.75V209H48.3ZM50.05,209H51.8v1.75H50.05Zm1.75,1.75h5.25v1.75H55.3v1.75H53.55V212.5H51.8ZM61.6,188Zm5.25,0H68.6v3.5H66.85v1.75h7v5.25H75.6V195h1.75v-7H79.1v5.25h7V212.5H84.35v1.75H82.6V216H80.85v-1.75H82.6V212.5h1.75V195h-7v3.5H75.6v1.75H73.85v14H72.1V212.5h-7v1.75H63.35v-21H65.1V191.5h1.75Zm-1.75,7v7h7v-7Zm12.25,5.25H79.1V202H77.35ZM79.1,202h1.75v3.5H79.1Zm-14,1.75v7h7v-7Zm14,8.75h1.75v1.75H79.1ZM92.4,188Zm5.25,0H99.4v5.25h3.5V195H99.4v1.75h3.5v1.75H92.4v-1.75h5.25V195h-3.5v-1.75h3.5Zm10.5,0h1.75v7h5.25v17.5H113.4V196.75h-3.5v8.75h-1.75v5.25H106.4v3.5h-1.75V216H102.9v-1.75h1.75v-3.5h1.75V205.5h1.75v-1.75H106.4V202h1.75v-5.25h-3.5V195h3.5Zm-14,12.25H95.9V202H94.15Zm7,0h1.75V202h-1.75v1.75h1.75v1.75H99.4v1.75h5.25V209H99.4v7H97.65v-7H92.4v-1.75h5.25V205.5h-3.5v-1.75H95.9V202h1.75v1.75H99.4V202h1.75Zm8.75,5.25h1.75V209H109.9Zm7,3.5h1.75v7H116.9v-1.75h-1.75V212.5h1.75Zm6.3-21Zm7,0h1.75v3.5H130.2v1.75h-1.75V195H126.7v1.75h-1.75V195h1.75v-1.75h1.75V191.5h1.75Zm5.25,1.75H147.7v1.75H135.45Zm-5.25,7h1.75v1.75H130.2V216h-1.75V202H126.7v1.75h-1.75v1.75H123.2v-1.75h1.75V202h1.75v-1.75h1.75V198.5h1.75Zm3.5,1.75h15.75v1.75h-7v14H140.7V216h-1.75v-1.75h1.75v-14h-7Zm3.5,14h1.75v1.75H137.2ZM154,188Zm10.5,0h1.75v7h10.5v17.5H175v1.75h-1.75V216H171.5v-1.75h1.75V212.5H175V196.75h-8.75v7H164.5v3.5h-1.75v3.5H161v1.75h-1.75v1.75H157.5V216h-1.75v-1.75h1.75V212.5h1.75v-1.75H161v-3.5h1.75v-3.5h1.75v-7h-8.75V195h8.75Zm3.5,22.75h1.75v1.75H168Zm1.75,1.75h1.75v1.75h-1.75ZM184.8,188Zm10.5,0h1.75v1.75h1.75v1.75h-5.25v5.25h5.25v1.75h-5.25V202h1.75v1.75h-1.75V216H191.8V203.75h-1.75v3.5H188.3V209h-1.75v1.75H184.8V209h1.75v-1.75h1.75v-3.5h1.75v-3.5h1.75V198.5h-7v-1.75h7v-3.5h-5.25V191.5h5.25v-1.75h3.5Zm5.25,5.25h8.75v17.5h-1.75V209H202.3v1.75h-1.75ZM202.3,195v12.25h5.25V195Zm-7,8.75h1.75v3.5H195.3ZM215.6,188Zm12.25,0h1.75v8.75h12.25v1.75H229.6v1.75h-1.75v5.25H226.1V209h-1.75v1.75H222.6v1.75h-1.75v1.75H219.1V216h-1.75v-1.75h1.75V212.5h1.75v-1.75h1.75V209h1.75v-3.5h1.75v-5.25h1.75V198.5H215.6v-1.75h12.25Zm1.75,12.25h1.75v3.5H229.6Zm1.75,3.5h1.75v3.5h-1.75Zm1.75,3.5h1.75V209H233.1Zm1.75,1.75h1.75v1.75h-1.75Zm1.75,1.75h5.25v1.75H240.1v1.75h-1.75V212.5H236.6ZM246.4,188Zm15.75,0h1.75v1.75h7v3.5h-1.75V195h3.5v1.75H270.9v1.75h-1.75v-1.75H263.9v1.75h-1.75v1.75h3.5V198.5h1.75v1.75h3.5V198.5h1.75V202H260.4v12.25h-1.75V216H256.9v-1.75h1.75v-17.5H256.9v17.5h-1.75V216H253.4v-1.75h1.75V205.5h-3.5v5.25H249.9v3.5h-1.75V216H246.4v-1.75h1.75v-3.5h1.75v-21h7V195h1.75v-1.75h1.75V191.5h1.75Zm-10.5,3.5v5.25h3.5V191.5Zm10.5,0v1.75H260.4V195h7v-1.75h1.75V191.5Zm-1.75,5.25v1.75h1.75v-1.75Zm-8.75,1.75v5.25h3.5V198.5Zm10.5,5.25h8.75v1.75h-8.75Zm0,3.5h8.75V209h-8.75Zm0,3.5h8.75V216h-8.75Zm-10.5,1.75h1.75v1.75h-1.75Zm12.25,0v1.75h5.25V212.5ZM277.2,188Zm5.25,0h1.75v3.5h-1.75v1.75h7v5.25h1.75V195h1.75v-7h1.75v5.25h7V212.5h-1.75v1.75H298.2V216h-1.75v-1.75h1.75V212.5h1.75V195h-7v3.5H291.2v1.75h-1.75v14H287.7V212.5h-7v1.75h-1.75v-21h1.75V191.5h1.75Zm-1.75,7v7h7v-7Zm12.25,5.25h1.75V202h-1.75ZM294.7,202h1.75v3.5H294.7Zm-14,1.75v7h7v-7Zm14,8.75h1.75v1.75H294.7ZM308,188Zm7,0h1.75v5.25h3.5V195h-3.5v1.75h1.75v1.75h-1.75v8.75H315V198.5h-1.75v1.75H311.5V202h-1.75v-1.75h1.75V198.5h1.75v-1.75H315V195h-5.25v-1.75H315Zm7,1.75h8.75V205.5H322Zm1.75,1.75V195H329v-3.5Zm0,5.25v1.75H329v-1.75Zm-5.25,1.75h1.75v1.75H318.5Zm5.25,1.75v3.5H329v-3.5Zm-5.25,5.25h1.75v1.75H318.5Zm1.75,1.75H322v3.5h-1.75ZM311.5,209h1.75v3.5H311.5v1.75h-1.75V212.5h1.75Zm3.5,0h1.75v5.25H315Zm14,0h1.75v1.75H329Zm-3.5,1.75h1.75V216h-10.5v-1.75h8.75Zm5.25,0h1.75v3.5h-1.75ZM338.8,188Zm15.75,0h1.75v7h7v1.75h-7V202h8.75v1.75h-10.5v3.5H352.8V209h-1.75v1.75h8.75V209h1.75v1.75h1.75v3.5h-1.75V212.5h-10.5v1.75H349.3V212.5h-1.75v-1.75h1.75V209h1.75v-1.75h1.75v-3.5h-5.25V202h7v-5.25H349.3V195h5.25Zm-12.25,1.75h1.75v1.75H342.3Zm1.75,1.75h1.75V195h-1.75ZM338.8,195h1.75v1.75H338.8Zm1.75,1.75h1.75v3.5h-1.75Zm5.25,1.75h1.75v1.75H345.8v3.5h-1.75v10.5H342.3v-7h-3.5V205.5h3.5v-1.75h1.75v-3.5h1.75Zm12.25,8.75h1.75V209h-1.75ZM369.6,188Zm7,0h12.25v12.25H376.6Zm1.75,1.75v3.5h8.75v-3.5Zm0,5.25v3.5h8.75V195Zm-7,7H394.1v1.75H383.6v3.5h8.75V209H383.6v5.25h-3.5V212.5h1.75v-8.75h-10.5Zm5.25,3.5h1.75v5.25H376.6v1.75h-1.75v1.75H373.1V216h-1.75v-1.75h1.75V212.5h1.75v-1.75h1.75Zm1.75,5.25h1.75v1.75h-1.75Zm5.25,3.5h10.5V216H383.6ZM400.4,188Zm1.75,1.75H424.9v1.75h-7v1.75h5.25v5.25H403.9v-5.25h5.25V191.5h-7Zm8.75,1.75v1.75h5.25V191.5Zm-5.25,3.5v1.75h3.5V195Zm5.25,0v1.75h5.25V195Zm7,0v1.75h3.5V195Zm-12.25,5.25H421.4V212.5h-1.75v1.75H417.9V212.5h-8.75v1.75H407.4V216h-1.75v-1.75h1.75V212.5h-1.75ZM407.4,202v1.75h12.25V202Zm0,3.5v1.75h12.25V205.5Zm0,3.5v1.75h12.25V209Zm12.25,5.25h1.75V216h-1.75ZM431.2,188Zm7,0h1.75v5.25H438.2V216h-1.75V198.5H434.7v1.75h-1.75V202H431.2v-1.75h1.75V198.5h1.75v-1.75h1.75v-3.5h1.75Zm10.5,0h1.75v3.5H448.7v1.75h7V216h-1.75v-3.5H445.2V216h-1.75V193.25h3.5V191.5h1.75Zm-3.5,7v7h8.75v-7Zm0,8.75v7h8.75v-7ZM462,188Zm3.5,0h1.75v5.25h5.25V188h1.75v5.25H476V195h-1.75v12.25H476V209H462v-1.75h3.5V195h-1.75v-1.75h1.75Zm17.5,1.75h3.5v1.75H483v1.75h-3.5v5.25h8.75v1.75h-3.5V216H483V200.25h-3.5v10.5h-1.75v3.5H476V216h-1.75v-1.75H476v-3.5h1.75V191.5H483ZM467.25,195v3.5h5.25V195Zm0,5.25V202h5.25v-1.75Zm0,3.5v3.5h5.25v-3.5Zm0,7H469v1.75h-1.75v1.75H465.5V216h-1.75v-1.75h1.75V212.5h1.75Zm3.5,0h1.75v1.75h-1.75Zm1.75,1.75h1.75v1.75H472.5ZM492.8,188Zm5.25,0H513.8v8.75H498.05Zm1.75,1.75v1.75h12.25v-1.75Zm0,3.5V195h12.25v-1.75Zm-7,5.25h26.25v1.75h-14V202h10.5v3.5H513.8V209h-1.75v1.75H510.3v1.75h-1.75v1.75H506.8V216h-3.5v-5.25h-5.25v1.75H492.8v-1.75h3.5v-10.5h-3.5Zm5.25,1.75V202h5.25v-1.75Zm0,3.5v1.75h5.25v-1.75Zm7,0v10.5h1.75V212.5h1.75v-1.75h1.75V209h1.75v-3.5h1.75v-1.75h-5.25v3.5H506.8v-3.5Zm-7,3.5V209h5.25v-1.75Zm10.5,0h1.75V209h-1.75Zm3.5,3.5h1.75v1.75h-1.75Zm1.75,1.75h5.25v1.75H517.3V216h-1.75v-1.75H513.8Zm9.8-24.5Zm12.25,0h1.75v3.5h-1.75v1.75H534.1V195h-1.75v1.75H530.6v1.75h-1.75v1.75H527.1V202h-3.5v-1.75h3.5V198.5h1.75v-1.75h1.75V195h1.75v-1.75h1.75V191.5h1.75Zm1.75,3.5h1.75v1.75H537.6Zm1.75,1.75h1.75V195h-1.75ZM534.1,195h1.75v1.75H534.1Zm7,0h1.75v1.75H541.1Zm-5.25,1.75h1.75v3.5h-1.75Zm7,0h1.75v1.75h-1.75Zm1.75,1.75h5.25v1.75H548.1V202h-1.75v-1.75H544.6ZM528.85,202H544.6v3.5h-1.75v1.75H541.1V209h-1.75v1.75H537.6v1.75h-1.75v-1.75h1.75V209h1.75v-1.75h1.75V205.5h1.75v-1.75h-14Zm3.5,5.25h1.75V209h-1.75ZM534.1,209h1.75v1.75H534.1Zm3.5,3.5h1.75V216H537.6ZM554.4,188Zm12.25,0h1.75v12.25h-1.75v5.25H564.9V209h-1.75v1.75H561.4v1.75h-1.75v1.75H557.9V216h-1.75v-1.75h1.75V212.5h1.75v-1.75h1.75V209h1.75v-3.5h1.75v-5.25h1.75Zm1.75,12.25h1.75v5.25H568.4Zm1.75,5.25h1.75V209h-1.75Zm1.75,3.5h1.75v1.75H571.9Zm1.75,1.75h1.75v1.75h-1.75Zm1.75,1.75h5.25v1.75H578.9V216h-1.75v-1.75H575.4Zm9.8-24.5Zm7,0h1.75v3.5H592.2V195h-1.75v1.75H588.7v1.75h-1.75v-1.75h1.75V195h1.75v-3.5h1.75Zm8.75,0h1.75v5.25h7v3.5h-1.75v1.75H606.2v-1.75h1.75V195h-7v1.75H599.2v1.75h-1.75v1.75h-3.5v3.5h5.25v1.75h-5.25V209h1.75v-1.75h1.75V209H595.7v1.75h1.75v1.75h-3.5v1.75h-3.5V216H588.7v-1.75h-1.75V212.5h5.25v-7h-5.25v-1.75h5.25v-3.5h-3.5V198.5h8.75v-1.75h1.75V195h1.75Zm-7,3.5h1.75v1.75h-1.75Zm1.75,1.75h1.75v3.5H595.7Zm7,3.5h1.75v8.75H602.7V209h-1.75v3.5H599.2v1.75h-1.75V216H595.7v-1.75h1.75V212.5h1.75V209h1.75v-3.5h1.75Zm1.75,8.75h1.75V209h-1.75Zm-17.5,1.75h1.75V209h-1.75ZM588.7,209h1.75v1.75H588.7Zm17.5,0h1.75v3.5H606.2Zm1.75,3.5h3.5v1.75H609.7V216h-1.75ZM616,188Zm5.25,0H623v1.75h15.75V212.5H637V195h-5.25v3.5h3.5v12.25h-3.5V216H630V200.25h-1.75v10.5H626.5V198.5H630V195h-5.25v17.5H623v1.75h-1.75V216H619.5V196.75h-1.75v1.75H616v-1.75h1.75V195h1.75v-3.5h1.75Zm0,3.5v21H623v-21Zm3.5,0v1.75H637V191.5Zm7,8.75V209h1.75v-8.75ZM640.5,209h1.75v7H640.5v-1.75h-1.75V212.5h1.75Zm6.3-21Zm5.25,0h1.75v3.5h-1.75v1.75h7v5.25h1.75V195h1.75v-7h1.75v5.25h7V212.5h-1.75v1.75H667.8V216h-1.75v-1.75h1.75V212.5h1.75V195h-7v3.5H660.8v1.75h-1.75v14H657.3V212.5h-7v1.75h-1.75v-21h1.75V191.5h1.75Zm-1.75,7v7h7v-7Zm12.25,5.25h1.75V202h-1.75ZM664.3,202h1.75v3.5H664.3Zm-14,1.75v7h7v-7Zm14,8.75h1.75v1.75H664.3ZM677.6,188Zm5.25,0h1.75v8.75h3.5v1.75h-3.5v8.75h3.5V209h-5.25v1.75H681.1v1.75h-1.75v-1.75H677.6V209h5.25V198.5h-3.5v-1.75h3.5Zm12.25,0h1.75v7h3.5v-1.75h1.75V205.5h-1.75v1.75H698.6V205.5h1.75v-8.75h-3.5v7h1.75v1.75h-1.75V209H695.1V198.5h-3.5v14h-1.75V200.25H688.1V198.5h1.75v-7h1.75v5.25h3.5Zm7,19.25h1.75v7H691.6V212.5h10.5ZM0,234Zm10.5,0h1.75v1.75H10.5Zm1.75,1.75H14v3.5H12.25ZM0,241H26.25v1.75H10.5v3.5H21V258.5H19.25v1.75H17.5V262H15.75v-1.75H17.5V258.5h1.75V248H10.5v5.25H8.75v3.5H7v1.75H5.25v1.75H3.5V262H1.75v-1.75H3.5V258.5H5.25v-1.75H7v-3.5H8.75v-10.5H0Zm14,17.5h1.75v1.75H14Zm30.772-8.512a1.694,1.694,0,0,0-1.316.476,1.625,1.625,0,0,0-.5,1.26,1.666,1.666,0,0,0,.476,1.232,1.628,1.628,0,0,0,1.2.5,1.5,1.5,0,0,0,.616-.112,3.3,3.3,0,0,1-.588,1.876,4.049,4.049,0,0,1-1.792,1.232v1.372a5.4,5.4,0,0,0,2.884-1.82,5.247,5.247,0,0,0,1.092-3.276,3.253,3.253,0,0,0-.56-1.96A1.788,1.788,0,0,0,44.772,249.988ZM61.6,234Zm5.25,0H68.6v5.25H66.85V262H65.1V244.5H63.35v1.75H61.6V244.5h1.75v-1.75H65.1v-3.5h1.75Zm7,0H75.6v5.25H86.1v3.5H84.35v1.75H82.6v-1.75h1.75V241H73.85v1.75H72.1v1.75H70.35v1.75H68.6V244.5h1.75v-1.75H72.1v-3.5h1.75Zm3.5,10.5H79.1v15.75H77.35V262H75.6v-1.75h1.75Zm-3.5,3.5H75.6v3.5H73.85v1.75H72.1V255H70.35v-1.75H72.1V251.5h1.75Zm7,0H82.6v1.75H80.85Zm1.75,1.75h1.75v1.75H82.6Zm1.75,1.75H86.1V255H84.35Zm-10.5,7H75.6v1.75H73.85ZM92.4,234Zm3.5,0h1.75v1.75H95.9Zm12.25,0h1.75v8.75h8.75v1.75H113.4v14h-1.75v-14H109.9V255h-1.75v3.5H106.4v1.75h-1.75V262H102.9v-1.75h1.75V258.5h1.75V255h1.75V244.5H102.9v7H99.4v8.75H97.65V262H95.9v-1.75h1.75V251.5h-3.5v-7h8.75v-1.75h5.25Zm-10.5,1.75H99.4v1.75H97.65Zm14,0h1.75v1.75h-1.75Zm1.75,1.75h1.75v1.75H113.4Zm-21,1.75h12.25V241H92.4Zm3.5,7v3.5h5.25v-3.5Zm-1.75,7H95.9V255H94.15v1.75H92.4V255h1.75Zm7,0h1.75V255h-1.75ZM102.9,255h1.75v1.75H102.9Zm14,0h1.75v5.25H113.4V258.5h3.5Zm-22.75,3.5H95.9v1.75H94.15ZM123.2,234Zm1.75,1.75h8.75v10.5h-3.5v3.5h3.5v1.75h-3.5v5.25h3.5v1.75h-5.25v1.75H126.7V262h-1.75v-1.75H123.2V258.5h1.75V248h1.75v10.5h1.75V246.25h-3.5Zm10.5,0h10.5V248H140.7v3.5h-1.75V248H137.2v10.5h1.75v-1.75h1.75v1.75h-1.75v1.75H137.2V262h-1.75Zm-8.75,1.75v7h5.25v-7Zm10.5,0V241h7v-3.5Zm0,5.25v3.5h7v-3.5Zm8.75,5.25h1.75v1.75h-1.75v1.75H144.2v1.75h-1.75V255H140.7v-3.5h3.5v-1.75h1.75Zm-3.5,7h1.75v1.75h-1.75Zm1.75,1.75h5.25v1.75H147.7v1.75h-1.75V258.5H144.2ZM154,234Zm1.75,1.75H178.5v1.75h-7v1.75h5.25v5.25H157.5v-5.25h5.25V237.5h-7Zm8.75,1.75v1.75h5.25V237.5Zm-5.25,3.5v1.75h3.5V241Zm5.25,0v1.75h5.25V241Zm7,0v1.75H175V241Zm-12.25,5.25H175V258.5h-1.75v1.75H171.5V258.5h-8.75v1.75H161V262h-1.75v-1.75H161V258.5h-1.75ZM161,248v1.75h12.25V248Zm0,3.5v1.75h12.25V251.5Zm0,3.5v1.75h12.25V255Zm12.25,5.25H175V262h-1.75ZM184.8,234Zm7,0h1.75v5.25H191.8V262h-1.75V244.5H188.3v1.75h-1.75V248H184.8v-1.75h1.75V244.5h1.75v-1.75h1.75v-3.5h1.75Zm10.5,0h1.75v3.5H202.3v1.75h7V262h-1.75v-3.5H198.8V262h-1.75V239.25h3.5V237.5h1.75Zm-3.5,7v7h8.75v-7Zm0,8.75v7h8.75v-7ZM215.6,234Zm3.5,0h1.75v5.25h5.25V234h1.75v5.25h1.75V241h-1.75v12.25h1.75V255h-14v-1.75h3.5V241h-1.75v-1.75h1.75Zm17.5,1.75h3.5v1.75h-3.5v1.75h-3.5v5.25h8.75v1.75h-3.5V262H236.6V246.25h-3.5v10.5h-1.75v3.5H229.6V262h-1.75v-1.75h1.75v-3.5h1.75V237.5h5.25ZM220.85,241v3.5h5.25V241Zm0,5.25V248h5.25v-1.75Zm0,3.5v3.5h5.25v-3.5Zm0,7h1.75v1.75h-1.75v1.75H219.1V262h-1.75v-1.75h1.75V258.5h1.75Zm3.5,0h1.75v1.75h-1.75Zm1.75,1.75h1.75v1.75H226.1ZM246.4,234Zm0,12.25h26.25V248H246.4ZM277.2,234Zm5.25,0h1.75v7h3.5v1.75h-3.5v1.75h1.75v1.75H284.2V262h-1.75V248H280.7v3.5h-1.75v1.75H277.2V251.5h1.75V248h1.75v-3.5h1.75v-1.75H277.2V241h5.25Zm7,0h1.75v1.75h-1.75Zm8.75,0h1.75v1.75H298.2v1.75h3.5v1.75h-7V241h5.25v1.75H294.7v1.75h7v1.75h-8.75V248H291.2v-1.75h-3.5V248h-1.75v-1.75h1.75V244.5h5.25v-1.75h-3.5V241h3.5v-1.75H287.7V237.5h3.5v-1.75h1.75v1.75h3.5v-1.75h1.75Zm-5.25,14h1.75v5.25h1.75V251.5h1.75v-1.75h1.75v1.75H298.2v1.75h-1.75V255H294.7v5.25h-1.75V262H291.2v-1.75h1.75V251.5h-3.5v-1.75h3.5Zm-7,5.25h5.25v3.5h-1.75v1.75H287.7v1.75h-1.75V258.5h1.75v-1.75h1.75V255h-3.5Zm10.5,1.75h1.75v1.75h-1.75Zm1.75,1.75h5.25v1.75H301.7v1.75h-1.75V258.5H298.2Zm-8.75,1.75h1.75v1.75h-1.75ZM308,234Zm7,0h12.25v12.25H315Zm1.75,1.75v3.5h8.75v-3.5Zm0,5.25v3.5h8.75V241Zm-7,7H332.5v1.75H322v3.5h8.75V255H322v5.25h-3.5V258.5h1.75v-8.75h-10.5Zm5.25,3.5h1.75v5.25H315v1.75h-1.75v1.75H311.5V262h-1.75v-1.75h1.75V258.5h1.75v-1.75H315Zm1.75,5.25h1.75v1.75h-1.75Zm5.25,3.5h10.5V262H322ZM338.8,234Zm5.25,0h1.75v5.25h-1.75V262H342.3V244.5h-1.75v1.75H338.8V244.5h1.75v-1.75h1.75v-3.5h1.75Zm3.5,1.75H363.3v24.5h-1.75V258.5H349.3v1.75h-1.75Zm1.75,1.75V241h5.25v-3.5Zm7,0V241h5.25v-3.5Zm-7,5.25v14h12.25v-14H356.3v3.5h3.5V255h-1.75v-1.75H352.8V255h-1.75v-8.75h3.5v-3.5Zm3.5,5.25v3.5h5.25V248Zm16.8-14Zm3.5,1.75h19.25v1.75H383.6v7h10.5v1.75H383.6V248h-1.75v3.5H380.1V255h-1.75v1.75H376.6v1.75h-1.75v1.75H373.1V262h-1.75v-1.75h1.75V258.5h1.75v-1.75h1.75V255h1.75v-3.5h1.75V248h1.75v-1.75h-10.5V244.5h10.5v-7H373.1ZM383.6,248h1.75v3.5H383.6Zm1.75,3.5h1.75v1.75h-1.75Zm1.75,1.75h1.75V255H387.1Zm1.75,1.75h1.75v1.75h-1.75Zm1.75,1.75h5.25v1.75H394.1v1.75h-1.75V258.5H390.6ZM400.4,234Zm12.25,0h1.75v7h10.5v1.75H414.4v7h8.75v1.75H414.4v7h12.25v1.75H400.4V258.5h12.25v-7H403.9v-1.75h8.75v-7h-7v3.5H403.9V248h-1.75v1.75H400.4V248h1.75v-1.75h1.75v-3.5h1.75v-7h1.75V241h5.25Zm18.55,0Zm5.25,0h1.75v3.5h-1.75v1.75h7v5.25h1.75V241h1.75v-7h1.75v5.25h7V258.5h-1.75v1.75H452.2V262h-1.75v-1.75h1.75V258.5h1.75V241h-7v3.5H445.2v1.75h-1.75v14H441.7V258.5h-7v1.75h-1.75v-21h1.75V237.5h1.75Zm-1.75,7v7h7v-7Zm12.25,5.25h1.75V248h-1.75ZM448.7,248h1.75v3.5H448.7Zm-14,1.75v7h7v-7Zm14,8.75h1.75v1.75H448.7ZM462,234Zm7,0h1.75v3.5h8.75V234h1.75v3.5h7v1.75h-7V241h3.5v5.25H465.5V241H469v-1.75h-7V237.5h7Zm1.75,5.25V241h8.75v-1.75Zm-3.5,3.5v1.75h3.5v-1.75Zm5.25,0v1.75h5.25v-1.75Zm7,0v1.75H483v-1.75ZM463.75,248h24.5v3.5H486.5v1.75h-1.75V251.5h1.75v-1.75H474.25v1.75H483V255h-1.75v1.75h-3.5v1.75h-3.5v1.75h-3.5V262h-7v-1.75h7V258.5h3.5v-1.75h3.5V255h3.5v-1.75H472.5V255H469v1.75h-3.5V255H469v-1.75h1.75V251.5h1.75v-1.75h-7v1.75h-1.75v1.75H462V251.5h1.75Zm8.75,7h1.75v1.75H472.5Zm20.3-21Zm7,0h1.75v5.25h3.5V241h-3.5v1.75h1.75v1.75h-1.75v8.75H499.8V244.5h-1.75v1.75H496.3V248h-1.75v-1.75h1.75V244.5h1.75v-1.75h1.75V241h-5.25v-1.75h5.25Zm7,1.75h8.75V251.5H506.8Zm1.75,1.75V241h5.25v-3.5Zm0,5.25v1.75h5.25v-1.75Zm-5.25,1.75h1.75v1.75H503.3Zm5.25,1.75v3.5h5.25v-3.5Zm-5.25,5.25h1.75v1.75H503.3Zm1.75,1.75h1.75v3.5h-1.75ZM496.3,255h1.75v3.5H496.3v1.75h-1.75V258.5h1.75Zm3.5,0h1.75v5.25H499.8Zm14,0h1.75v1.75H513.8Zm-3.5,1.75h1.75V262h-10.5v-1.75h8.75Zm5.25,0h1.75v3.5h-1.75ZM523.6,234Zm12.25,0h1.75v1.75h12.25v3.5H548.1V241h-1.75v-1.75h1.75V237.5h-21v1.75h-1.75V241H523.6v-1.75h1.75v-3.5h10.5Zm-7,5.25H544.6v3.5h5.25v1.75H544.6v14h-1.75v1.75H541.1V258.5h-8.75v1.75H530.6V262h-1.75v-1.75h1.75V258.5h-1.75V248H527.1v-3.5h-3.5v-1.75h5.25ZM530.6,241v1.75h5.25V241Zm7,0v1.75h5.25V241Zm-8.75,3.5v1.75h5.25V244.5Zm7,0v1.75h7V244.5ZM530.6,248v1.75h12.25V248Zm0,3.5v1.75h12.25V251.5Zm0,3.5v1.75h12.25V255Zm12.25,5.25h1.75V262h-1.75ZM554.4,234Zm15.75,0h1.75v3.5h3.5v-1.75h1.75v1.75h1.75v1.75h-7v3.5h-1.75v-3.5h-3.5V237.5h3.5Zm3.5,0h1.75v1.75h-1.75Zm-17.5,1.75h8.75v8.75h-3.5v5.25h3.5v1.75h-3.5V255h3.5v1.75h-3.5v1.75h-3.5v1.75h-1.75V258.5H554.4v-1.75h1.75V248h1.75v8.75h1.75V244.5h-3.5Zm1.75,1.75v5.25h5.25V237.5Zm17.5,3.5h1.75v1.75H575.4v3.5h-1.75V244.5H571.9v1.75h-3.5V248h-3.5v-1.75h3.5V244.5h3.5v-1.75h3.5Zm3.5,3.5h1.75v5.25h-3.5v1.75h1.75v1.75h-1.75V255H575.4v3.5h-3.5v1.75h-3.5V262h-3.5v-1.75h3.5V258.5h3.5V255h3.5v-1.75h-3.5V255h-1.75v-1.75H564.9V251.5h5.25V248h1.75v3.5h3.5v-1.75h1.75V248h1.75Zm-3.5,1.75h1.75V248H575.4v1.75h-1.75V248h1.75Zm3.5,10.5h1.75V262h-3.5v-1.75h1.75Zm-3.5,1.75h1.75v1.75H575.4Zm9.8-24.5Zm10.5,0h1.75v1.75H595.7Zm1.75,1.75h1.75v1.75h12.25v1.75H609.7V241h-1.75v3.5H595.7v1.75h-1.75V248h-3.5v1.75h-3.5V248h3.5v-1.75h3.5V244.5H588.7v-1.75h17.5V241h1.75v-1.75H588.7V241h-1.75v1.75H585.2V241h1.75v-3.5h10.5Zm-1.75,10.5h1.75V248h1.75v3.5h1.75v-1.75h1.75V248h1.75v-1.75h1.75v3.5h-3.5v1.75h-1.75v1.75H599.2v7h-1.75V262H595.7v-1.75h1.75V255H595.7v1.75h-1.75v1.75h-3.5v1.75h-3.5V258.5h3.5v-1.75h3.5V255h1.75v-1.75h1.75v-3.5H595.7v1.75h-1.75v1.75h-3.5V255h-3.5v-1.75h3.5V251.5h3.5v-1.75h1.75Zm5.25,7h1.75V255h-1.75ZM602.7,255h3.5v1.75h-3.5Zm3.5,1.75h5.25v1.75H609.7v1.75h-1.75V258.5H606.2Zm-12.25,1.75h1.75v1.75h-1.75Zm34.762-16.492.42,14.616h1.736l.448-14.616ZM630,258.668a1.6,1.6,0,0,0-1.2.476,1.5,1.5,0,0,0-.476,1.176,1.6,1.6,0,0,0,.476,1.2A1.717,1.717,0,0,0,630,262a1.785,1.785,0,0,0,1.232-.476,1.624,1.624,0,0,0,.476-1.2,1.6,1.6,0,0,0-.476-1.176A1.666,1.666,0,0,0,630,258.668ZM646.8,234Zm5.25,0h1.75v3.5h-1.75v1.75H650.3V241h-1.75v1.75H646.8V241h1.75v-1.75h1.75V237.5h1.75Zm8.75,1.75h3.5v1.75h-3.5V241h5.25v1.75H660.8v1.75h12.25v1.75h-3.5v14H667.8V262h-1.75v-1.75h1.75v-14h-3.5v7h-3.5V255h3.5v1.75h-3.5v1.75h5.25v1.75H653.8V258.5h5.25v-1.75h-3.5V255h3.5v-1.75h-3.5V244.5h3.5v-1.75H653.8v1.75h-1.75V262H650.3V248h-1.75v1.75H646.8V248h1.75v-1.75h1.75V244.5h1.75v-1.75h1.75V241h5.25v-1.75h-3.5V237.5h5.25Zm5.25,1.75h5.25v1.75h-5.25Zm-8.75,8.75V248h1.75v-1.75Zm3.5,0V248h1.75v-1.75Zm-3.5,3.5v1.75h1.75v-1.75Zm3.5,0v1.75h1.75v-1.75ZM677.6,234Zm10.5,1.75h12.25v14H698.6V248h-8.75v10.5H688.1Zm-8.75,1.75h7V255H684.6v-1.75h-3.5V255h-1.75Zm10.5,0v8.75h3.5V237.5Zm5.25,0v8.75h3.5V237.5Zm-14,1.75V251.5h3.5V239.25Zm21,15.75h1.75v5.25h-14V258.5H702.1Zm19.012-12.992.42,14.616h1.736l.448-14.616Zm1.288,16.66a1.6,1.6,0,0,0-1.2.476,1.5,1.5,0,0,0-.476,1.176,1.6,1.6,0,0,0,.476,1.2,1.717,1.717,0,0,0,1.2.476,1.785,1.785,0,0,0,1.232-.476,1.624,1.624,0,0,0,.476-1.2,1.6,1.6,0,0,0-.476-1.176A1.666,1.666,0,0,0,722.4,258.668ZM0,280Zm5.25,0H7v5.25H5.25V308H3.5V290.5H1.75v1.75H0V290.5H1.75v-1.75H3.5v-3.5H5.25Zm5.25,0h1.75v5.25h3.5V287h-3.5v5.25h3.5V287H17.5v-7h1.75v7h7v1.75H24.5V294H22.75v3.5H21V301H19.25v1.75H17.5v1.75H15.75v1.75H14V308H12.25v-1.75H14V304.5h1.75v-1.75H17.5V301h1.75v-3.5H21V294h1.75v-5.25H17.5v3.5H15.75v10.5h-7v1.75H7V292.25h3.5V287H7v-1.75h3.5Zm7,12.25h1.75v5.25H17.5ZM8.75,294v7H14v-7ZM21,301h1.75v3.5H21Zm1.75,3.5h3.5v1.75H24.5V308H22.75ZM30.8,280Zm3.5,0h1.75v1.75H34.3Zm12.25,0H48.3v8.75h8.75v1.75H51.8v14H50.05v-14H48.3V301H46.55v3.5H44.8v1.75H43.05V308H41.3v-1.75h1.75V304.5H44.8V301h1.75V290.5H41.3v7H37.8v8.75H36.05V308H34.3v-1.75h1.75V297.5h-3.5v-7H41.3v-1.75h5.25Zm-10.5,1.75H37.8v1.75H36.05Zm14,0H51.8v1.75H50.05Zm1.75,1.75h1.75v1.75H51.8Zm-21,1.75H43.05V287H30.8Zm3.5,7v3.5h5.25v-3.5Zm-1.75,7H34.3V301H32.55v1.75H30.8V301h1.75Zm7,0H41.3V301H39.55ZM41.3,301h1.75v1.75H41.3Zm14,0h1.75v5.25H51.8V304.5h3.5Zm-22.75,3.5H34.3v1.75H32.55ZM61.6,280Zm5.25,0H68.6v8.75h1.75V280H72.1v5.25h1.75V283.5H75.6v1.75H73.85V287H72.1v1.75h3.5V287h7v-7h1.75v7h3.5v1.75h-3.5v17.5H82.6V308H80.85v-1.75H82.6v-17.5h-7v1.75h-14v-1.75h5.25V287H65.1v-1.75h1.75Zm-3.5,3.5H65.1v1.75H63.35Zm1.75,8.75h1.75V294H65.1Zm7,0h1.75V294H72.1v1.75h3.5v1.75H70.35v1.75h3.5V301h-3.5v1.75H75.6v1.75H70.35v1.75h-3.5V308H65.1v-1.75H63.35V304.5H68.6V301H65.1v-1.75h3.5V297.5H63.35v-1.75h3.5V294H68.6v1.75h1.75V294H72.1Zm5.25,0H79.1V294H77.35ZM79.1,294h1.75v3.5H79.1Zm0,10.5h1.75v1.75H79.1ZM92.4,280Zm3.5,1.75h19.25v3.5H113.4V287h-1.75v1.75H109.9v1.75h-1.75v1.75H106.4v14h-1.75V308H102.9v-1.75h1.75V290.5h3.5v-1.75h1.75V287h1.75v-1.75h1.75V283.5H95.9Zm5.25,22.75h1.75v1.75h-1.75Zm34.762-16.492.42,14.616h1.736l.448-14.616Zm1.288,16.66a1.6,1.6,0,0,0-1.2.476,1.5,1.5,0,0,0-.476,1.176,1.6,1.6,0,0,0,.476,1.2,1.717,1.717,0,0,0,1.2.476,1.785,1.785,0,0,0,1.232-.476,1.623,1.623,0,0,0,.476-1.2,1.6,1.6,0,0,0-.476-1.176A1.666,1.666,0,0,0,137.2,304.668Z" transform="translate(0 -4)" fill="#fff"/>
</svg>
