<svg xmlns="http://www.w3.org/2000/svg" width="740" height="98" viewBox="0 0 740 98">
  <g id="steve-t" transform="translate(-475 -39.001)">
    <g id="Exclusion_19" data-name="Exclusion 19" transform="translate(6642 5051)" fill="#15172a">
      <path d="M -5433.0009765625 -4915.99951171875 L -6159.43603515625 -4915.99951171875 L -6159.43603515625 -4916.40478515625 L -6159.43603515625 -4918.40478515625 L -6161.43603515625 -4918.40478515625 L -6165 -4918.40478515625 L -6165 -5007.59423828125 L -6161.43603515625 -5007.59423828125 L -6159.43603515625 -5007.59423828125 L -6159.43603515625 -5009.59423828125 L -6159.43603515625 -5009.9990234375 L -5433.0009765625 -5009.9990234375 L -5433.0009765625 -5008 L -5433.0009765625 -5006 L -5431.0009765625 -5006 L -5429 -5006 L -5429 -4920.00048828125 L -5431.0009765625 -4920.00048828125 L -5433.0009765625 -4920.00048828125 L -5433.0009765625 -4918.00048828125 L -5433.0009765625 -4915.99951171875 Z" stroke="none"/>
      <path d="M -5435.0009765625 -4917.99951171875 L -5435.0009765625 -4918.00048828125 L -5435.0009765625 -4922.00048828125 L -5431.0009765625 -4922.00048828125 L -5431 -4922.00048828125 L -5431 -5004 L -5431.0009765625 -5004 L -5435.0009765625 -5004 L -5435.0009765625 -5007.9990234375 L -6157.43603515625 -5007.9990234375 L -6157.43603515625 -5005.59423828125 L -6161.43603515625 -5005.59423828125 L -6163 -5005.59423828125 L -6163 -4920.40478515625 L -6161.43603515625 -4920.40478515625 L -6157.43603515625 -4920.40478515625 L -6157.43603515625 -4917.99951171875 L -5435.0009765625 -4917.99951171875 M -5431.0009765625 -4913.99951171875 L -6161.43603515625 -4913.99951171875 L -6161.43603515625 -4916.40478515625 L -6167 -4916.40478515625 L -6167 -5009.59423828125 L -6161.43603515625 -5009.59423828125 L -6161.43603515625 -5011.9990234375 L -5431.0009765625 -5011.9990234375 L -5431.0009765625 -5008 L -5427 -5008 L -5427 -4918.00048828125 L -5431.0009765625 -4918.00048828125 L -5431.0009765625 -4914.00048828125 L -5431.0009765625 -4913.99951171875 Z" stroke="none" fill="#fff"/>
    </g>
    <path id="Path_54362" data-name="Path 54362" d="M0-24Zm4.5,0H6v4.5H4.5V0H3V-15H1.5v1.5H0V-15H1.5v-1.5H3v-3H4.5Zm6,0H12v4.5h9v3H19.5V-15H18v-1.5h1.5V-18h-9v1.5H9V-15H7.5v1.5H6V-15H7.5v-1.5H9v-3h1.5Zm3,9H15V-1.5H13.5V0H12V-1.5h1.5Zm-3,3H12v3H10.5v1.5H9V-6H7.5V-7.5H9V-9h1.5Zm6,0H18v1.5H16.5ZM18-10.5h1.5V-9H18ZM19.5-9H21v3H19.5Zm-9,6H12v1.5H10.5ZM26.4-24Zm6,1.5H42.9v15h6V-6H41.4v1.5H39.9V-6H35.4v1.5H33.9V-3H32.4v1.5H30.9V0H29.4V-1.5h1.5V-3h1.5V-4.5h1.5V-6H26.4V-7.5h6ZM33.9-21v3h7.5v-3Zm0,4.5V-15h7.5v-1.5Zm0,3V-12h7.5v-1.5Zm0,3v3h7.5v-3Zm7.5,6h1.5V-3H41.4ZM42.9-3h1.5V0H42.9Zm9.9-21Zm9,0h1.5v3h12v1.5H61.8v3h9v15H69.3V0H67.8V-1.5h1.5V-6h-9V0H58.8V-12H57.3v1.5H55.8V-9H54.3v1.5H52.8V-9h1.5v-1.5h1.5V-12h1.5v-1.5h1.5v-3h1.5v-3H52.8V-21h9Zm-1.5,9v3h9v-3Zm0,4.5v3h9v-3Zm6,7.5h1.5v1.5H66.3ZM79.2-24Zm1.5,1.5h19.5V-21h-6v1.5h4.5V-15H82.2v-4.5h4.5V-21h-6ZM88.2-21v1.5h4.5V-21Zm-4.5,3v1.5h3V-18Zm4.5,0v1.5h4.5V-18Zm6,0v1.5h3V-18ZM83.7-13.5H97.2V-3H95.7v1.5H94.2V-3H86.7v1.5H85.2V0H83.7V-1.5h1.5V-3H83.7ZM85.2-12v1.5H95.7V-12Zm0,3v1.5H95.7V-9Zm0,3v1.5H95.7V-6ZM95.7-1.5h1.5V0H95.7ZM105.6-24Zm6,0h1.5v4.5h-1.5V0h-1.5V-15h-1.5v1.5h-1.5V-12h-1.5v-1.5h1.5V-15h1.5v-1.5h1.5v-3h1.5Zm9,0h1.5v3h-1.5v1.5h6V0h-1.5V-3h-7.5V0h-1.5V-19.5h3V-21h1.5Zm-3,6v6h7.5v-6Zm0,7.5v6h7.5v-6ZM132-24Zm3,0h1.5v4.5H141V-24h1.5v4.5H144V-18h-1.5V-7.5H144V-6H132V-7.5h3V-18h-1.5v-1.5H135Zm15,1.5h3V-21h-3v1.5h-3V-15h7.5v1.5h-3V0H150V-13.5h-3v9h-1.5v3H144V0h-1.5V-1.5H144v-3h1.5V-21H150ZM136.5-18v3H141v-3Zm0,4.5V-12H141v-1.5Zm0,3v3H141v-3Zm0,6H138V-3h-1.5v1.5H135V0h-1.5V-1.5H135V-3h1.5Zm3,0H141V-3h-1.5ZM141-3h1.5v1.5H141Zm17.448-14.328h10.368v3.456h-6.864v3.5h6.864V-.024H158.448V-3.5h6.96V-6.96h-6.96Zm16.176-.024h10.32v3.5h-3.408v13.8h-3.408V-13.9h-3.5Zm16.224.072h10.368v3.48H194.28v3.456h3.5v3.48h-3.5v3.48h6.936V.024H190.848Zm16.272,0h3.408V-6.912h3.5V-17.28h3.456V-3.408h-3.456V-.024h-3.5V-3.456H207.12Zm16.176,0h10.368v3.48h-6.936v3.456h3.5v3.48h-3.5v3.48h6.936V.024H223.3Zm25.536-.048h10.344V0H248.832V-6.936h3.456V-3.48H255.7V-13.872h-6.864Zm16.224,0h3.48V-.072h-3.48Zm3.456,0h6.912V-.072h-6.912V-3.456h3.5V-13.872h-3.5Zm12.744.1h10.3v3.456h-6.84v3.528h10.344V-6.84H284.664v3.456h10.392V.048h-13.8Zm6.912,3.456h3.384v3.528h-3.384Zm3.384,6.936h3.5v3.456h-3.5Zm9.456-10.488h10.368v3.456h-6.864v3.5h6.864V-.024H301.008V-3.5h6.96V-6.96h-6.96ZM317.184-24Zm4.5,0h1.5v3h-1.5v1.5h6V-15h1.5v-3h1.5v-6h1.5v4.5h6V-3h-1.5v1.5h-1.5V0h-1.5V-1.5h1.5V-3h1.5V-18h-6v3h-1.5v1.5h-1.5v12h-1.5V-3h-6v1.5h-1.5v-18h1.5V-21h1.5Zm-1.5,6v6h6v-6Zm10.5,4.5h1.5V-12h-1.5Zm1.5,1.5h1.5v3h-1.5Zm-12,1.5v6h6v-6Zm12,7.5h1.5v1.5h-1.5Zm11.4-21Zm6,0h1.5v3h7.5v-3h1.5v3h6v1.5h-6V-18h3v4.5h-16.5V-18h3v-1.5h-6V-21h6Zm1.5,4.5V-18h7.5v-1.5Zm-3,3V-15h3v-1.5Zm4.5,0V-15h4.5v-1.5Zm6,0V-15h3v-1.5Zm-13.5,4.5h21v3h-1.5v1.5h-1.5V-9h1.5v-1.5h-10.5V-9h7.5v3h-1.5v1.5h-3V-3h-3v1.5h-3V0h-6V-1.5h6V-3h3V-4.5h3V-6h3V-7.5h-7.5V-6h-3v1.5h-3V-6h3V-7.5h1.5V-9h1.5v-1.5h-6V-9h-1.5v1.5h-1.5V-9h1.5Zm7.5,6h1.5v1.5h-1.5Zm17.4-18Zm6,0h1.5v4.5h3V-18h-3v1.5h1.5V-15h-1.5v7.5h-1.5V-15h-1.5v1.5h-1.5V-12h-1.5v-1.5h1.5V-15h1.5v-1.5h1.5V-18h-4.5v-1.5h4.5Zm6,1.5h7.5V-9h-7.5Zm1.5,1.5v3h4.5v-3Zm0,4.5V-15h4.5v-1.5Zm-4.5,1.5h1.5v1.5h-1.5Zm4.5,1.5v3h4.5v-3Zm-4.5,4.5h1.5v1.5h-1.5Zm1.5,1.5h1.5v3h-1.5Zm-7.5,1.5h1.5v3h-1.5v1.5h-1.5V-3h1.5Zm3,0h1.5v4.5h-1.5Zm12,0h1.5v1.5h-1.5Zm-3,1.5h1.5V0h-9V-1.5h7.5Zm4.5,0h1.5v3h-1.5Zm6.948-12.828H403.3v3.5h-3.408V-3.456H403.3V-.072h-6.864Zm6.864,3.5H406.7V-3.456H403.3Zm9.312-3.528h3.5v3.5h3.456v3.456h3.408v-6.96h3.5v17.3h-3.456V-6.984h-3.456v-3.408h-3.456V-.048h-3.5Zm19.68.024h10.368v17.3h-3.5v-13.8H435.7v13.8h-3.408Zm3.408,6.96h3.456V-6.96H435.7Z" transform="translate(614 99)" fill="#fff"/>
  </g>
</svg>
