<svg xmlns="http://www.w3.org/2000/svg" width="734.65" height="214.996" viewBox="0 0 734.65 214.996">
  <path id="yu-d" d="M0,4ZM5.25,4H7V9.25H5.25V32H3.5V14.5H1.75v1.75H0V14.5H1.75V12.75H3.5V9.25H5.25Zm7,0H14V9.25H24.5v3.5H22.75V14.5H21V12.75h1.75V11H12.25v1.75H10.5V14.5H8.75v1.75H7V14.5H8.75V12.75H10.5V9.25h1.75Zm3.5,10.5H17.5V30.25H15.75V32H14V30.25h1.75ZM12.25,18H14v3.5H12.25v1.75H10.5V25H8.75V23.25H10.5V21.5h1.75Zm7,0H21v1.75H19.25ZM21,19.75h1.75V21.5H21Zm1.75,1.75H24.5V25H22.75Zm-10.5,7H14v1.75H12.25ZM30.8,4Zm1.75,1.75H41.3v10.5H37.8v3.5h3.5V21.5H37.8v5.25h3.5V28.5H36.05v1.75H34.3V32H32.55V30.25H30.8V28.5h1.75V18H34.3V28.5h1.75V16.25h-3.5Zm10.5,0h10.5V18H48.3v3.5H46.55V18H44.8V28.5h1.75V26.75H48.3V28.5H46.55v1.75H44.8V32H43.05ZM34.3,7.5v7h5.25v-7Zm10.5,0V11h7V7.5Zm0,5.25v3.5h7v-3.5ZM53.55,18H55.3v1.75H53.55V21.5H51.8v1.75H50.05V25H48.3V21.5h3.5V19.75h1.75Zm-3.5,7H51.8v1.75H50.05Zm1.75,1.75h5.25V28.5H55.3v1.75H53.55V28.5H51.8ZM61.6,4Zm1.75,1.75H72.1v3.5H70.35v3.5H68.6V14.5H66.85V12.75H68.6V9.25h1.75V7.5H65.1V23.25h1.75V25H65.1v7H63.35Zm10.5,0h14V7.5h-3.5V30.25H82.6V32H80.85V30.25H82.6V7.5H73.85Zm0,5.25h7V23.25H79.1V21.5H75.6v1.75H73.85Zm1.75,1.75v7h3.5v-7Zm-7,1.75h1.75V18H68.6ZM70.35,18H72.1v5.25H70.35V25H68.6v1.75H66.85V25H68.6V23.25h1.75ZM79.1,28.5h1.75v1.75H79.1ZM92.4,4Zm5.25,1.75H113.4V18h-7v3.5h8.75v1.75H106.4V28.5h10.5v1.75H94.15V28.5h10.5V23.25H95.9V21.5h8.75V18h-7ZM99.4,7.5V11h5.25V7.5Zm7,0V11h5.25V7.5Zm-7,5.25v3.5h5.25v-3.5Zm7,0v3.5h5.25v-3.5ZM123.2,4Zm3.5,3.5h19.25V19.75H144.2V18H128.45V28.5H126.7Zm1.75,1.75v7h7v-7Zm8.75,0v7h7v-7ZM147.7,25h1.75v5.25h-21V28.5H147.7ZM154,4Zm3.5,3.5h19.25V19.75H175V18H159.25V28.5H157.5Zm1.75,1.75v7h7v-7Zm8.75,0v7h7v-7ZM178.5,25h1.75v5.25h-21V28.5H178.5Zm6.3-21Zm7,0h1.75V7.5H191.8V11h-1.75v1.75H188.3V14.5h-1.75v1.75H184.8V14.5h1.75V12.75h1.75V11h1.75V7.5h1.75Zm15.75,0h1.75V30.25h-1.75V32H205.8V30.25h1.75Zm-14,3.5h1.75V9.25h-1.75Zm1.75,1.75h1.75V11H195.3Zm7,0h1.75V25H202.3ZM191.8,11h1.75v1.75H191.8Zm5.25,0h3.5v3.5H198.8v8.75h-8.75V25h8.75v7h-1.75V30.25H191.8V32h-1.75V26.75H188.3v3.5h-1.75V32H184.8V30.25h1.75v-3.5h1.75V14.5h5.25V12.75h1.75V14.5h3.5V12.75h-1.75Zm-7,5.25V18h7V16.25Zm0,3.5V21.5h7V19.75Zm1.75,7V28.5h5.25V26.75Zm12.25,1.75h1.75v1.75h-1.75ZM215.6,4Zm5.25,0h1.75V5.75h-1.75Zm7,0h1.75v7h3.5v5.25h3.5V14.5h1.75V11h1.75v3.5h-1.75v1.75h3.5V18h-3.5v3.5h3.5v1.75h-3.5V32H236.6V23.25h-3.5v7h-1.75V32H229.6V30.25h1.75V12.75H229.6V25h-1.75v3.5H226.1v1.75h-1.75V32H222.6V30.25h1.75V28.5h1.75V25h1.75V18H222.6v3.5h3.5v1.75h-3.5v3.5h-1.75V28.5H219.1v1.75h-1.75V32H215.6V30.25h1.75V28.5h1.75V26.75h1.75v-3.5h-3.5V21.5h3.5V18H215.6V16.25h5.25V14.5h1.75V11h1.75v3.5H222.6v1.75h5.25v-3.5H226.1V11h1.75Zm7,0h1.75V5.75h-1.75ZM222.6,5.75h1.75V7.5h1.75V9.25h-8.75V7.5h5.25Zm14,0h1.75V7.5h3.5V9.25H233.1V7.5h3.5ZM219.1,11h1.75v3.5H219.1Zm15.75,0h1.75v3.5h-1.75Zm-1.75,7v3.5h3.5V18Zm-5.25,10.5h1.75v1.75h-1.75ZM246.4,4Zm12.25,0h1.75V16.25h-1.75V21.5H256.9V25h-1.75v1.75H253.4V28.5h-1.75v1.75H249.9V32h-1.75V30.25h1.75V28.5h1.75V26.75h1.75V25h1.75V21.5h1.75V16.25h1.75Zm1.75,12.25h1.75V21.5H260.4Zm1.75,5.25h1.75V25h-1.75ZM263.9,25h1.75v1.75H263.9Zm1.75,1.75h1.75V28.5h-1.75Zm1.75,1.75h5.25v1.75H270.9V32h-1.75V30.25H267.4ZM277.2,4Zm5.25,1.75H301.7V7.5h-8.75V9.25h7V11h-7v1.75h7V14.5h-7V18h8.75V28.5h-1.75v1.75H298.2V32h-1.75V30.25h1.75V28.5h1.75V19.75h-17.5ZM284.2,7.5V9.25h7V7.5Zm0,3.5v1.75h7V11Zm0,3.5V18h7V14.5Zm-3.5,7h1.75v5.25H280.7V28.5h-1.75V26.75h1.75Zm3.5,0h1.75v1.75H284.2Zm5.25,0h1.75v1.75h-1.75Zm5.25,0h1.75v1.75H294.7Zm-8.75,1.75h1.75v3.5h-1.75Zm5.25,0h1.75v3.5H291.2Zm5.25,0h1.75v3.5h-1.75ZM294.7,28.5h1.75v1.75H294.7ZM308,4Zm5.25,1.75h17.5V7.5H322V9.25h12.25v3.5H332.5V14.5h-1.75V12.75h1.75V11H322v7h-1.75V11H311.5v1.75h-1.75V14.5H308V12.75h1.75V9.25h10.5V7.5h-7Zm0,7h5.25V14.5h-5.25Zm10.5,0H329V14.5h-5.25Zm-10.5,3.5h5.25V18h-5.25Zm10.5,0H329V18h-5.25Zm-12.25,3.5h19.25V21.5H311.5Zm-3.5,3.5h26.25V25H318.5v1.75h-1.75V28.5h10.5V26.75H329V28.5h1.75V32H329V30.25H313.25V28.5H315V26.75h1.75V25H308ZM338.8,4Zm0,12.25h26.25V18H338.8ZM369.6,4Zm5.25,0h1.75v7h3.5v1.75h-3.5V14.5h1.75v1.75H376.6V32h-1.75V18H373.1v3.5h-1.75v1.75H369.6V21.5h1.75V18h1.75V14.5h1.75V12.75H369.6V11h5.25Zm7,0h1.75V5.75h-1.75Zm8.75,0h1.75V5.75H390.6V7.5h3.5V9.25h-7V11h5.25v1.75H387.1V14.5h7v1.75h-8.75V18H383.6V16.25h-3.5V18h-1.75V16.25h1.75V14.5h5.25V12.75h-3.5V11h3.5V9.25H380.1V7.5h3.5V5.75h1.75V7.5h3.5V5.75h1.75Zm-5.25,14h1.75v5.25h1.75V21.5h1.75V19.75h1.75V21.5H390.6v1.75h-1.75V25H387.1v5.25h-1.75V32H383.6V30.25h1.75V21.5h-3.5V19.75h3.5Zm-7,5.25h5.25v3.5h-1.75V28.5H380.1v1.75h-1.75V28.5h1.75V26.75h1.75V25h-3.5ZM388.85,25h1.75v1.75h-1.75Zm1.75,1.75h5.25V28.5H394.1v1.75h-1.75V28.5H390.6Zm-8.75,1.75h1.75v1.75h-1.75ZM400.4,4Zm12.25,0h1.75V5.75h-1.75Zm1.75,1.75h1.75v3.5H414.4Zm1.75,3.5h1.75v3.5h-1.75ZM407.4,11h1.75V28.5H407.4Zm-3.5,3.5h1.75v5.25H403.9v3.5h-1.75V25H400.4V23.25h1.75v-3.5h1.75Zm17.5,0h1.75v1.75H421.4Zm1.75,1.75h1.75v3.5h-1.75Zm1.75,3.5h1.75v3.5H424.9Zm-5.25,3.5h1.75v7H409.15V28.5h10.5ZM431.2,4Zm3.5,0h1.75V5.75H434.7Zm1.75,1.75h1.75v3.5h-1.75Zm7,1.75H455.7V19.75h-5.25v3.5h5.25V25h-5.25v3.5h7v1.75h-17.5V28.5h8.75V25h-5.25V23.25h5.25v-3.5h-5.25v-3.5H441.7V18h-1.75v1.75H438.2V32h-1.75V18H434.7v1.75h-1.75V21.5H431.2V19.75h1.75V18h1.75V16.25h1.75V14.5h1.75V12.75h-7V11h10.5v1.75h-1.75V14.5H438.2V18h1.75V16.25h1.75V14.5h1.75Zm1.75,1.75v3.5h3.5V9.25Zm5.25,0v3.5h3.5V9.25ZM445.2,14.5V18h3.5V14.5Zm5.25,0V18h3.5V14.5Zm-10.5,5.25h1.75V21.5h-1.75Zm1.75,1.75h1.75v1.75H441.7ZM462,4Zm5.25,0H469V7.5h5.25V5.75H476V7.5h-1.75V11H472.5v1.75H476V14.5h-5.25v1.75H469V18h5.25V32H472.5V30.25h-5.25V32H465.5V21.5h-1.75v1.75H462V21.5h1.75V19.75h1.75V18h1.75V16.25H469V14.5h-7V12.75h5.25V9.25h-3.5V7.5h3.5Zm10.5,1.75h8.75v3.5h-1.75v3.5H483V14.5h-1.75V12.75H483V9.25h1.75V7.5H479.5V23.25h1.75V25H479.5v7h-1.75ZM469,9.25v3.5h1.75V11h1.75V9.25Zm14,5.25h1.75V18H483Zm1.75,3.5h1.75v5.25h-1.75V25H483v1.75h-1.75V25H483V23.25h1.75Zm-17.5,1.75v3.5h5.25v-3.5Zm0,5.25v3.5h5.25V25ZM492.8,4Zm5.25,0h1.75v7h1.75v1.75H499.8V25h3.5V23.25h1.75V21.5h1.75V19.75h1.75v-3.5H503.3V18h-1.75V16.25h1.75V14.5h-1.75V12.75h1.75V9.25h12.25v7H510.3v3.5h-1.75V28.5h1.75V26.75h1.75V28.5H510.3v1.75h-1.75V32H506.8V23.25h-1.75V25H503.3v1.75h-3.5V32h-1.75Zm10.5,0h1.75V5.75h7V7.5H501.55V5.75h7Zm-14,7h1.75v5.25h-1.75V18H492.8V16.25h1.75Zm10.5,0v3.5h1.75V11Zm3.5,0v3.5h1.75V11Zm3.5,0v3.5h1.75V11Zm3.5,5.25h1.75V18h-1.75v3.5H513.8V19.75h-1.75v3.5H510.3v-3.5h1.75V18h3.5ZM503.3,18h1.75v1.75H503.3V21.5h-1.75V19.75h1.75Zm12.25,3.5h1.75v1.75h-1.75Zm-3.5,1.75h1.75V25h-1.75ZM513.8,25h5.25v1.75H517.3V28.5h-1.75V26.75H513.8Zm9.8-21Zm5.25,0h1.75v7h3.5v1.75h-3.5v3.5h3.5V18h-3.5V30.25h-1.75V32H527.1V30.25h1.75V19.75H527.1V21.5h-3.5V19.75h3.5V18h1.75V12.75H523.6V11h5.25Zm8.75,0h1.75V9.25h8.75v14h-1.75V25H544.6v1.75h-1.75V25h1.75V23.25h1.75V11H537.6v1.75h-1.75V14.5H534.1V12.75h1.75V9.25h1.75Zm-1.75,10.5h8.75v7h-7v7h-1.75Zm1.75,1.75v3.5h5.25v-3.5Zm3.5,7h1.75V25H541.1Zm7,1.75h1.75v5.25H537.6V28.5h10.5Zm-22.75,3.5h1.75v1.75h-1.75ZM554.4,4Zm7,0h1.75V5.75h8.75V4h1.75V5.75h7V7.5h-7V9.25H571.9V7.5h-8.75V9.25H561.4V7.5h-7V5.75h7Zm5.25,5.25h1.75V11h7V9.25h1.75V11H575.4v1.75h-1.75V14.5H571.9v1.75h8.75V18H568.4v1.75h-3.5V21.5h10.5V32h-1.75V30.25h-10.5V32H561.4V23.25h-3.5V25h-3.5V23.25h3.5V21.5h3.5V19.75h3.5V18H554.4V16.25h12.25v-3.5H557.9V11h8.75Zm1.75,3.5v3.5h1.75V14.5h1.75V12.75Zm-5.25,10.5V25h10.5V23.25Zm0,3.5V28.5h10.5V26.75ZM585.2,4Zm7,0h1.75V7.5h8.75V4h1.75V7.5h7V9.25h-7V11h3.5v5.25H588.7V11h3.5V9.25h-7V7.5h7Zm1.75,5.25V11h8.75V9.25Zm-3.5,3.5V14.5h3.5V12.75Zm5.25,0V14.5h5.25V12.75Zm7,0V14.5h3.5V12.75ZM586.95,18h24.5v3.5H609.7v1.75h-1.75V21.5h1.75V19.75H597.45V21.5h8.75V25h-1.75v1.75h-3.5V28.5h-3.5v1.75h-3.5V32h-7V30.25h7V28.5h3.5V26.75h3.5V25h3.5V23.25H595.7V25h-3.5v1.75h-3.5V25h3.5V23.25h1.75V21.5h1.75V19.75h-7V21.5h-1.75v1.75H585.2V21.5h1.75Zm8.75,7h1.75v1.75H595.7ZM616,4Zm7,0h1.75V9.25h3.5V11h-3.5v1.75h1.75V14.5h-1.75v8.75H623V14.5h-1.75v1.75H619.5V18h-1.75V16.25h1.75V14.5h1.75V12.75H623V11h-5.25V9.25H623Zm7,1.75h8.75V21.5H630Zm1.75,1.75V11H637V7.5Zm0,5.25V14.5H637V12.75ZM626.5,14.5h1.75v1.75H626.5Zm5.25,1.75v3.5H637v-3.5ZM626.5,21.5h1.75v1.75H626.5Zm1.75,1.75H630v3.5h-1.75ZM619.5,25h1.75v3.5H619.5v1.75h-1.75V28.5h1.75Zm3.5,0h1.75v5.25H623Zm14,0h1.75v1.75H637Zm-3.5,1.75h1.75V32h-10.5V30.25h8.75Zm5.25,0h1.75v3.5h-1.75Zm22.022-6.762a1.694,1.694,0,0,0-1.316.476,1.625,1.625,0,0,0-.5,1.26,1.666,1.666,0,0,0,.476,1.232,1.628,1.628,0,0,0,1.2.5,1.5,1.5,0,0,0,.616-.112,3.3,3.3,0,0,1-.588,1.876,4.049,4.049,0,0,1-1.792,1.232v1.372a5.4,5.4,0,0,0,2.884-1.82,5.247,5.247,0,0,0,1.092-3.276,3.253,3.253,0,0,0-.56-1.96A1.788,1.788,0,0,0,660.772,19.988ZM677.6,4Zm10.5,0h12.25V5.75H698.6V7.5h-1.75V9.25H695.1V11h5.25V26.75H698.6V28.5h-1.75V26.75h1.75v-3.5h-3.5V25h1.75v1.75H695.1V28.5h-1.75V23.25h-3.5V28.5H688.1v1.75h-1.75V28.5h1.75V11h5.25V9.25h1.75V7.5h1.75V5.75H688.1Zm-8.75,1.75h1.75V7.5h-1.75ZM681.1,7.5h3.5V11h-1.75V9.25H681.1Zm10.5,0h1.75V9.25H691.6Zm-1.75,5.25v3.5h3.5v-3.5Zm5.25,0v3.5h3.5v-3.5ZM677.6,14.5h7V26.75h-1.75V28.5H681.1v1.75h-1.75V28.5h1.75V26.75h1.75V16.25H677.6ZM689.85,18v3.5h3.5V18Zm5.25,0v3.5h3.5V18Zm-10.5,8.75h1.75V28.5H684.6Zm3.5,3.5h15.75V32H688.1ZM708.4,4Zm7,0h1.75V7.5H715.4V9.25h-1.75V11H711.9v1.75h-1.75V11h1.75V9.25h1.75V7.5h1.75Zm7,0h1.75V5.75H722.4Zm1.75,1.75h1.75V7.5h-1.75Zm-7,3.5H732.9V11h-7v7h7v1.75h-7V28.5h8.75v1.75H715.4V32h-1.75V19.75H711.9V21.5h-1.75v1.75H708.4V21.5h1.75V19.75h1.75V18h1.75V16.25h1.75v-3.5h1.75v3.5H715.4V28.5h8.75V19.75h-7V18h7V11h-7ZM0,50Zm7,0H8.75v3.5H17.5V50h1.75v3.5h7v1.75h-7V57h3.5v5.25H3.5V57H7V55.25H0V53.5H7Zm1.75,5.25V57H17.5V55.25Zm-3.5,3.5V60.5h3.5V58.75Zm5.25,0V60.5h5.25V58.75Zm7,0V60.5H21V58.75ZM1.75,64h24.5v3.5H24.5v1.75H22.75V67.5H24.5V65.75H12.25V67.5H21V71H19.25v1.75h-3.5V74.5h-3.5v1.75H8.75V78h-7V76.25h7V74.5h3.5V72.75h3.5V71h3.5V69.25H10.5V71H7v1.75H3.5V71H7V69.25H8.75V67.5H10.5V65.75h-7V67.5H1.75v1.75H0V67.5H1.75Zm8.75,7h1.75v1.75H10.5ZM30.8,50Zm7,0h1.75v5.25h3.5V57h-3.5v1.75H41.3V60.5H39.55v8.75H37.8V60.5H36.05v1.75H34.3V64H32.55V62.25H34.3V60.5h1.75V58.75H37.8V57H32.55V55.25H37.8Zm7,1.75h8.75V67.5H44.8Zm1.75,1.75V57H51.8V53.5Zm0,5.25V60.5H51.8V58.75ZM41.3,60.5h1.75v1.75H41.3Zm5.25,1.75v3.5H51.8v-3.5ZM41.3,67.5h1.75v1.75H41.3Zm1.75,1.75H44.8v3.5H43.05ZM34.3,71h1.75v3.5H34.3v1.75H32.55V74.5H34.3Zm3.5,0h1.75v5.25H37.8Zm14,0h1.75v1.75H51.8Zm-3.5,1.75h1.75V78H39.55V76.25H48.3Zm5.25,0H55.3v3.5H53.55ZM61.6,50Zm5.25,0H68.6v3.5H66.85v1.75h7V60.5H75.6V57h1.75V50H79.1v5.25h7V74.5H84.35v1.75H82.6V78H80.85V76.25H82.6V74.5h1.75V57h-7v3.5H75.6v1.75H73.85v14H72.1V74.5h-7v1.75H63.35v-21H65.1V53.5h1.75ZM65.1,57v7h7V57Zm12.25,5.25H79.1V64H77.35ZM79.1,64h1.75v3.5H79.1Zm-14,1.75v7h7v-7Zm14,8.75h1.75v1.75H79.1ZM92.4,50Zm12.25,0h1.75v1.75h-1.75Zm7,0h1.75v1.75h-1.75V53.5h5.25v1.75h-7V57h-1.75v1.75h7v14H113.4V71h-8.75v1.75H102.9v-14h3.5V57h1.75V55.25h-7V53.5h5.25V51.75h1.75V53.5h1.75V51.75h1.75ZM95.9,51.75h1.75V53.5H95.9Zm1.75,1.75H99.4V57H97.65Zm-5.25,7h7V72.75H97.65V74.5H95.9v1.75H94.15V74.5H95.9V72.75h1.75V62.25H92.4Zm12.25,0v1.75h8.75V60.5Zm0,3.5v1.75h8.75V64Zm0,3.5v1.75h8.75V67.5ZM99.4,72.75h1.75V74.5H99.4Zm1.75,1.75h17.5v1.75h-17.5ZM123.2,50Zm15.75,0h1.75v3.5h7v1.75h-1.75V57H144.2v1.75h-1.75V60.5H140.7v1.75h-1.75V64H137.2v1.75h-3.5V67.5h-3.5v5.25h3.5V74.5h-5.25v1.75H123.2V74.5h1.75V65.75h1.75V74.5h1.75v-14H126.7v1.75h-1.75V51.75h8.75V57h1.75V55.25h1.75V53.5h1.75ZM126.7,53.5v5.25h5.25V53.5Zm12.25,1.75V57h-3.5v1.75H133.7V60.5h-3.5v5.25h3.5V64h3.5V62.25h1.75V60.5h1.75V58.75h1.75V57h1.75V55.25Zm0,1.75h1.75v1.75h-1.75Zm3.5,3.5h1.75v1.75h-1.75Zm1.75,1.75h1.75V64H144.2ZM145.95,64h3.5v1.75h-3.5V78H144.2V76.25h-5.25V78H137.2V65.75h8.75Zm-7,3.5v7h5.25v-7ZM154,50Zm14,0h1.75v3.5h8.75v5.25h-1.75V60.5h-3.5V58.75h3.5v-3.5H168v3.5h-1.75V60.5H164.5V58.75h1.75v-3.5H168Zm-10.5,1.75h1.75V53.5H157.5Zm1.75,1.75H161V57h-1.75ZM154,57h1.75v1.75H154Zm1.75,1.75h1.75v3.5h-1.75ZM161,60.5h1.75V64H161v3.5h-1.75v8.75H157.5v-7H154V67.5h5.25V64H161Zm5.25,1.75H178.5v3.5h-1.75v3.5H175V71h-1.75v1.75H171.5V74.5h-1.75v1.75h-3.5V78h-3.5V76.25h3.5V74.5h3.5V72.75h1.75V71h1.75V69.25H175v-3.5h1.75V64h-7v3.5H168V64h-1.75Zm3.5,5.25h1.75V71h-1.75Zm3.5,5.25H175V74.5h-1.75ZM175,74.5h5.25v1.75H178.5V78h-1.75V76.25H175ZM184.8,50Zm10.5,0h1.75v3.5h14v1.75H195.3v3.5h10.5v17.5h-1.75V78H202.3V76.25h1.75V71h-10.5v7H191.8V64h-1.75v1.75H188.3V67.5h-1.75v1.75H184.8V67.5h1.75V65.75h1.75V64h1.75V62.25h1.75v-3.5h1.75v-3.5H184.8V53.5h10.5Zm-1.75,10.5V64h10.5V60.5Zm0,5.25v3.5h10.5v-3.5Zm7,8.75h1.75v1.75h-1.75ZM215.6,50Zm5.25,0h1.75v7h1.75v1.75H222.6v3.5h1.75V60.5h7V58.75H226.1V57h5.25V55.25h-7V53.5h7V50h1.75v3.5h7v1.75h-7V57h5.25v3.5h3.5v1.75h-3.5v3.5H233.1v3.5h7V71h-7v5.25h-3.5V74.5h1.75V65.75H226.1V64h5.25V62.25h-7V64H222.6V76.25h-1.75V78H219.1V76.25h1.75V65.75H219.1V67.5h-3.5V65.75h3.5V64h1.75V58.75H215.6V57h5.25Zm12.25,8.75V60.5h3.5V58.75Zm0,3.5V64h3.5V62.25Zm-7,5.25h1.75v5.25h1.75V74.5h-3.5v1.75h-1.75V78H222.6V76.25h1.75V74.5h1.75Zm-8.75,7h1.75v1.75h-1.75Zm15.75,1.75h8.75V78H233.1ZM246.4,50Zm7,0h1.75v3.5H253.4v1.75h-1.75V57H249.9v1.75h-1.75V57h1.75V55.25h1.75V53.5h1.75Zm3.5,1.75h15.75V53.5H270.9v1.75h-1.75V57H267.4v1.75h-1.75V57h1.75V55.25h1.75V53.5h-3.5v1.75H263.9V57h-1.75v1.75H260.4V57h1.75V55.25h1.75V53.5h-3.5v1.75h-1.75V57H256.9v1.75h-1.75V60.5H253.4v14h8.75v-7h-7V65.75H270.9V67.5h-7v7h8.75v1.75H253.4V78h-1.75V64H249.9v1.75h-1.75V67.5H246.4V65.75h1.75V64h1.75V62.25h1.75V60.5h1.75V57h3.5V55.25h1.75V53.5H256.9Zm0,7h1.75V60.5H256.9Zm5.25,0h1.75V60.5h-1.75Zm5.25,0h1.75V60.5H267.4Zm-8.75,1.75h1.75v1.75h-1.75Zm5.25,0h1.75v1.75H263.9Zm5.25,0h1.75v1.75h-1.75Zm22.022,5.488a1.694,1.694,0,0,0-1.316.476,1.625,1.625,0,0,0-.5,1.26,1.666,1.666,0,0,0,.476,1.232,1.628,1.628,0,0,0,1.2.5,1.5,1.5,0,0,0,.616-.112,3.3,3.3,0,0,1-.588,1.876,4.049,4.049,0,0,1-1.792,1.232v1.372a5.4,5.4,0,0,0,2.884-1.82,5.247,5.247,0,0,0,1.092-3.276,3.253,3.253,0,0,0-.56-1.96A1.788,1.788,0,0,0,291.172,65.988ZM308,50Zm17.5,0h1.75v1.75H325.5ZM322,51.75h1.75v3.5h10.5V57H329v3.5h3.5v1.75H329v3.5h3.5V67.5H329v5.25h5.25V74.5H322V78h-1.75V60.5H318.5v1.75h-1.75v10.5H315V71h-3.5v1.75h-1.75V53.5h7v7h1.75V58.75h1.75v-3.5H322Zm5.25,0H329V53.5h-1.75Zm-15.75,3.5v14H315v-14ZM322,57v3.5h5.25V57Zm0,5.25v3.5h5.25v-3.5Zm0,5.25v5.25h5.25V67.5ZM338.8,50Zm10.5,0h1.75v3.5h14v1.75H349.3v3.5h10.5v17.5h-1.75V78H356.3V76.25h1.75V71h-10.5v7H345.8V64h-1.75v1.75H342.3V67.5h-1.75v1.75H338.8V67.5h1.75V65.75h1.75V64h1.75V62.25h1.75v-3.5h1.75v-3.5H338.8V53.5h10.5Zm-1.75,10.5V64h10.5V60.5Zm0,5.25v3.5h10.5v-3.5Zm7,8.75h1.75v1.75h-1.75ZM369.6,50Zm1.75,1.75h7V57h1.75V51.75h1.75V57H380.1v1.75h-1.75V64h1.75V60.5h1.75V58.75h1.75V60.5h-1.75V64H380.1v1.75h-1.75V78h-3.5V76.25h1.75V67.5h-3.5v8.75h-1.75V78H369.6V76.25h1.75Zm12.25,0h1.75v3.5H383.6Zm5.25,0h7v17.5H394.1V71h-1.75V69.25h1.75V53.5h-3.5v14h1.75v1.75H390.6V78h-1.75V65.75H387.1v10.5h-1.75V74.5h-3.5v1.75H380.1V65.75h7V64h1.75V58.75H387.1V57h1.75ZM373.1,53.5v5.25h3.5V53.5Zm12.25,1.75h1.75V57h-1.75ZM373.1,60.5v5.25h3.5V60.5Zm10.5,0h1.75v1.75H383.6Zm1.75,1.75h1.75V64h-1.75Zm-3.5,5.25v5.25h3.5V67.5ZM400.4,50Zm17.5,0h1.75v3.5h1.75V57h-1.75v8.75H417.9V67.5h7V78h-1.75V76.25H414.4V78h-1.75V67.5h3.5V65.75h1.75Zm-15.75,1.75h8.75v3.5h5.25v3.5H414.4v3.5h-1.75V64H410.9v1.75h-3.5V71h3.5v1.75h-3.5V74.5h-3.5v1.75h-1.75V74.5H400.4V72.75h1.75V64h1.75v8.75h1.75V60.5h-3.5Zm1.75,1.75v5.25h5.25V53.5Zm21,0h1.75v1.75H424.9V57h-1.75v3.5H421.4V57h1.75V55.25h1.75Zm-14,3.5v3.5h-3.5V64h3.5V62.25h1.75v-3.5h1.75V57Zm12.25,3.5h1.75V64h-1.75ZM414.4,64h1.75v1.75H414.4Zm10.5,0h1.75v1.75H424.9Zm-10.5,5.25V71h8.75V69.25Zm0,3.5V74.5h8.75V72.75ZM431.2,50Zm12.25,0h1.75v1.75h12.25v3.5H455.7V57h-1.75V55.25h1.75V53.5h-21v1.75h-1.75V57H431.2V55.25h1.75v-3.5h10.5Zm-7,5.25H452.2v3.5h5.25V60.5H452.2v14h-1.75v1.75H448.7V74.5h-8.75v1.75H438.2V78h-1.75V76.25h1.75V74.5h-1.75V64H434.7V60.5h-3.5V58.75h5.25ZM438.2,57v1.75h5.25V57Zm7,0v1.75h5.25V57Zm-8.75,3.5v1.75h5.25V60.5Zm7,0v1.75h7V60.5ZM438.2,64v1.75h12.25V64Zm0,3.5v1.75h12.25V67.5Zm0,3.5v1.75h12.25V71Zm12.25,5.25h1.75V78h-1.75ZM462,50Zm5.25,0H469v8.75h3.5V60.5H469v8.75h3.5V71h-5.25v1.75H465.5V74.5h-1.75V72.75H462V71h5.25V60.5h-3.5V58.75h3.5Zm12.25,0h1.75v7h3.5V55.25h1.75V67.5h-1.75v1.75H483V67.5h1.75V58.75h-3.5v7H483V67.5h-1.75V71H479.5V60.5H476v14h-1.75V62.25H472.5V60.5h1.75v-7H476v5.25h3.5Zm7,19.25h1.75v7H476V74.5h10.5Zm20.272-3.262a1.694,1.694,0,0,0-1.316.476,1.625,1.625,0,0,0-.5,1.26,1.666,1.666,0,0,0,.476,1.232,1.628,1.628,0,0,0,1.2.5,1.5,1.5,0,0,0,.616-.112,3.3,3.3,0,0,1-.588,1.876,4.049,4.049,0,0,1-1.792,1.232v1.372a5.4,5.4,0,0,0,2.884-1.82,5.247,5.247,0,0,0,1.092-3.276,3.253,3.253,0,0,0-.56-1.96A1.788,1.788,0,0,0,506.772,65.988ZM523.6,50Zm17.5,0h1.75v1.75h7V53.5H541.1v1.75h7V57h-3.5v1.75h5.25V60.5h-14V58.75h1.75V57h1.75V53.5h-3.5V51.75h5.25Zm-15.75,1.75h7V57H530.6v1.75h-1.75V60.5H527.1v7h1.75v1.75H527.1V78h-1.75Zm1.75,1.75v5.25h1.75V57h1.75V53.5Zm7,1.75h1.75v3.5H534.1ZM539.35,57v1.75h3.5V57Zm-10.5,3.5h1.75v1.75h-1.75Zm1.75,1.75h1.75V64h5.25V74.5h-1.75v1.75H534.1V78h-1.75V76.25h1.75V74.5h1.75V65.75h-3.5v3.5H530.6V71h-1.75V69.25h1.75Zm8.75,0h8.75V74.5h-3.5V72.75h1.75V71H541.1v3.5h-1.75v1.75H537.6V74.5h1.75ZM541.1,64v1.75h5.25V64Zm0,3.5v1.75h5.25V67.5Zm-1.75,8.75h10.5V78h-10.5ZM554.4,50Zm17.5,0h1.75v3.5h5.25v1.75h-5.25v3.5h7V60.5h-3.5V64h3.5v1.75h-3.5v10.5H575.4V78h-1.75V76.25h1.75V65.75H564.9v7h-1.75V71H557.9v1.75h-1.75V53.5h8.75V64h10.5V60.5h-8.75V58.75h5.25v-3.5h-3.5V53.5h3.5Zm-14,5.25V60.5h5.25V55.25Zm0,7v7h5.25v-7Zm10.5,5.25h1.75v1.75H568.4Zm1.75,1.75h1.75v3.5h-1.75Zm1.75,5.25h1.75v1.75H571.9ZM585.2,50Zm5.25,0h1.75v1.75h-1.75Zm8.75,0h1.75v3.5h3.5V51.75h1.75V53.5h5.25v1.75h-7V57h5.25v1.75h-5.25V60.5h5.25v1.75h-5.25V64h7v1.75H599.2V67.5h-1.75V57H595.7v1.75h-3.5V67.5h-1.75V62.25h-3.5V60.5h3.5V58.75h1.75v-3.5h1.75V57h1.75V55.25h1.75V53.5h1.75Zm3.5,0h1.75v1.75H602.7Zm-10.5,1.75h1.75V53.5H592.2Zm-5.25,1.75h1.75v1.75h-1.75Zm1.75,1.75h1.75V57H588.7Zm10.5,0V57h3.5V55.25Zm0,3.5V60.5h3.5V58.75Zm0,3.5V64h3.5V62.25Zm0,5.25h1.75v1.75h10.5V71h-10.5v7H599.2V71H586.95V69.25H599.2ZM616,50Zm7,0h1.75v5.25H623v10.5h1.75V64h1.75V62.25h1.75V60.5h-3.5V58.75H630v-3.5h-3.5V53.5H630V50h1.75v3.5H637V50h1.75v3.5h3.5v1.75h-3.5v3.5h3.5V60.5H630v1.75h10.5v14h-1.75V78H637V76.25h1.75V71h-3.5v3.5H637v1.75h-3.5V71H630v7h-1.75V64H626.5v1.75h-1.75V67.5H623V78h-1.75V60.5H619.5v1.75h-1.75V64H616V62.25h1.75V60.5h1.75V58.75h1.75v-3.5H623Zm8.75,5.25v3.5H637v-3.5ZM630,64v1.75h3.5V64Zm5.25,0v1.75h3.5V64ZM630,67.5v1.75h3.5V67.5Zm5.25,0v1.75h3.5V67.5ZM646.8,50Zm5.25,0h1.75v7h5.25v5.25h5.25v-3.5h1.75V57h1.75V55.25h1.75V53.5h-10.5V51.75H671.3v3.5h-1.75V57H667.8v1.75h-1.75v3.5h7V64h-7V76.25H664.3V78h-1.75V76.25h1.75V64h-5.25v1.75H657.3v3.5h-1.75V71H653.8v1.75h-1.75V74.5H650.3v1.75h-1.75V78H646.8V76.25h1.75V74.5h1.75V72.75h1.75V71h1.75V69.25h1.75v-3.5h1.75v-7h-5.25V64H650.3v1.75h-1.75V64h1.75V58.75h-3.5V57h5.25ZM650.3,65.75h1.75V67.5H650.3Zm1.75,1.75h1.75v1.75h-1.75Zm3.5,3.5h1.75v1.75h-1.75Zm1.75,1.75h1.75V74.5H657.3Zm3.5,1.75h1.75v1.75H660.8ZM677.6,50Zm3.5,1.75h1.75V53.5H681.1Zm8.75,0h3.5V53.5h-3.5v1.75H688.1v10.5h1.75V64h1.75V62.25h1.75V53.5h8.75v14h-1.75v1.75H698.6V67.5h1.75V55.25H695.1V74.5h8.75v1.75h-17.5V74.5h7V64H691.6v1.75h-1.75V67.5H688.1v1.75h-1.75V53.5h3.5Zm-7,1.75h1.75V57h-1.75Zm-5.25,7h7V72.75h-1.75V74.5H681.1v1.75h-1.75V74.5h1.75V72.75h1.75V62.25H677.6Zm19.25,5.25h1.75V67.5h-1.75Zm-12.25,7h1.75V74.5H684.6ZM708.4,50Zm5.25,0h1.75v7h3.5v1.75h-3.5v3.5h1.75V60.5h5.25V58.75h1.75V60.5h3.5V58.75h1.75V57h1.75v1.75H729.4V60.5h5.25v1.75H725.9v3.5h8.75V67.5h-3.5V71H729.4v1.75h-1.75V74.5h-3.5v1.75h-3.5V78h-3.5V76.25h3.5V74.5h3.5V72.75h3.5V71h1.75V67.5h-5.25v1.75H722.4V71h-1.75V69.25h1.75V67.5h-5.25V65.75h7v-3.5h-7V64H715.4V76.25h-1.75V78H711.9V76.25h1.75V65.75H711.9V67.5h-3.5V65.75h3.5V64h1.75V58.75H708.4V57h5.25Zm10.5,0h1.75v1.75h-1.75Zm1.75,1.75h1.75V53.5h5.25v1.75h-14V53.5h7ZM720.65,57h1.75v1.75h-1.75Zm1.75,14h1.75v1.75H722.4Zm-12.25,3.5h1.75v1.75h-1.75Zm17.5,0h3.5v1.75h-3.5Zm3.5,1.75h1.75V78h-1.75ZM0,96Zm1.75,1.75H24.5V124H22.75v-1.75H3.5V124H1.75ZM3.5,99.5v21h8.75V110H10.5v3.5H8.75v1.75H7V117H5.25v-1.75H7V113.5H8.75V110H10.5v-1.75h1.75V106.5h-7v-1.75h7V99.5Zm10.5,0v5.25h7v1.75H14v1.75h1.75V110H14v10.5h8.75v-21ZM15.75,110H17.5v1.75H15.75Zm1.75,1.75h1.75v1.75H17.5Zm1.75,1.75H21V117H19.25ZM30.8,96Zm3.5,0h1.75v3.5h3.5V96H41.3v3.5h1.75v1.75H41.3v3.5H39.55v1.75H41.3v-1.75h1.75V103H44.8V99.5h1.75V96H48.3v3.5H46.55v1.75h10.5V103H51.8v3.5h3.5v1.75H51.8v3.5h3.5v1.75H51.8v5.25h5.25v1.75H46.55V124H44.8v-5.25H41.3v1.75H39.55v-1.75H37.8v1.75H36.05v1.75H34.3V124H32.55v-1.75H34.3V120.5h1.75v-1.75H30.8V117h7v-1.75H32.55V113.5H37.8v-1.75H32.55V106.5H37.8v-1.75H34.3v-3.5H30.8V99.5h3.5Zm15.75,0H51.8v1.75H50.05Zm1.75,1.75h1.75V99.5H51.8Zm-15.75,3.5V103h3.5v-1.75ZM46.55,103v3.5h3.5V103Zm-3.5,1.75v7h-3.5v1.75h3.5v1.75h-3.5V117H44.8V104.75Zm-8.75,3.5V110h3.5v-1.75Zm5.25,0V110H41.3v-1.75Zm7,0v3.5h3.5v-3.5Zm0,5.25v5.25h3.5V113.5Zm-5.25,7h1.75v1.75H41.3ZM61.6,96Zm10.5,0h1.75v1.75H75.6V99.5H70.35v5.25H75.6v1.75H70.35V110H72.1v1.75H70.35V124H68.6V111.75H66.85v3.5H65.1V117H63.35v1.75H61.6V117h1.75v-1.75H65.1v-3.5h1.75v-3.5H68.6V106.5h-7v-1.75h7v-3.5H63.35V99.5H68.6V97.75h3.5Zm5.25,5.25H86.1v17.5H84.35V117H79.1v1.75H77.35ZM79.1,103v12.25h5.25V103Zm-7,8.75h1.75v3.5H72.1ZM92.4,96Zm5.25,0H99.4v7h3.5v1.75H99.4v3.5h1.75V110H99.4v3.5h3.5v-1.75h1.75V106.5H102.9v-1.75h1.75v-7h1.75V117h-1.75v3.5H102.9v1.75h-1.75V124H99.4v-1.75h1.75V120.5h1.75V117h1.75v-3.5H102.9v1.75H99.4v7H97.65V124H95.9v-1.75h1.75v-10.5H95.9v1.75H92.4v-1.75h3.5V110h1.75v-5.25H92.4V103h5.25Zm12.25,0h1.75v10.5h1.75v-1.75h1.75V103h1.75v3.5h-3.5v1.75h-1.75V110h1.75v1.75h-1.75v8.75H109.9Zm3.5,15.75h1.75v1.75H113.4Zm1.75,1.75h1.75v1.75h-1.75Zm1.75,3.5h1.75v5.25h-7V120.5h5.25Zm-22.75,3.5H95.9v1.75H94.15ZM123.2,96Zm17.5,0h1.75v7h7v1.75h-7v8.75H140.7v-7h-3.5v8.75h-5.25V117h5.25v1.75h-5.25V124H130.2v-5.25h-7V117h7v-1.75h-5.25V106.5H137.2v-1.75h3.5Zm-15.75,1.75h5.25v7h-5.25Zm7,0h5.25v7h-5.25Zm12.25,0h1.75V99.5H144.2ZM126.7,99.5V103h1.75V99.5Zm7,0V103h1.75V99.5Zm12.25,0h1.75v1.75h-1.75Zm0,7h1.75V110h-1.75v3.5H144.2V117h-1.75v1.75H140.7v1.75h-1.75v1.75H137.2V124h-1.75v-1.75h1.75V120.5h1.75v-1.75h1.75V117h1.75v-3.5h1.75V110h1.75Zm-19.25,1.75V110h3.5v-1.75Zm5.25,0V110h3.5v-1.75Zm-5.25,3.5v1.75h3.5v-1.75Zm5.25,0v1.75h3.5v-1.75ZM144.2,117h1.75v3.5H144.2Zm3.5,0h1.75v7H147.7v-1.75h-1.75V120.5h1.75Zm20.272-5.012a1.694,1.694,0,0,0-1.316.476,1.625,1.625,0,0,0-.5,1.26,1.666,1.666,0,0,0,.476,1.232,1.628,1.628,0,0,0,1.2.5,1.5,1.5,0,0,0,.616-.112,3.3,3.3,0,0,1-.588,1.876,4.049,4.049,0,0,1-1.792,1.232v1.372a5.4,5.4,0,0,0,2.884-1.82,5.247,5.247,0,0,0,1.092-3.276,3.253,3.253,0,0,0-.56-1.96A1.788,1.788,0,0,0,167.972,111.988ZM184.8,96Zm7,0h1.75v5.25H191.8V124h-1.75V106.5H188.3v1.75h-1.75V110H184.8v-1.75h1.75V106.5h1.75v-1.75h1.75v-3.5h1.75Zm12.25,0h1.75v8.75h5.25v1.75H205.8v15.75h-1.75V124H202.3v-1.75h1.75V106.5h-10.5v-1.75h10.5Zm-7,14h1.75v1.75h-1.75Zm1.75,1.75h1.75v3.5H198.8Zm1.75,8.75h1.75v1.75h-1.75ZM215.6,96Zm12.25,0h1.75v10.5h5.25v-7h1.75V110h-1.75v-1.75H229.6V120.5h7v-7h1.75V124H236.6v-1.75H219.1V113.5h1.75v7h7V108.25h-7V99.5h1.75v7h5.25Zm18.55,0Zm3.5,0h1.75v10.5h7v1.75h-7v10.5h3.5V117h3.5v1.75h-3.5v1.75h-3.5v1.75H249.9Zm10.5,0h1.75v12.25h1.75V106.5h1.75v-1.75h1.75V103h1.75v3.5h-3.5v1.75H263.9V110h-1.75v10.5H260.4Zm10.5,19.25h1.75v7h-10.5V120.5h8.75ZM277.2,96Zm22.75,0h1.75v26.25h-1.75V124H298.2v-1.75h1.75Zm-21,1.75H291.2v10.5h-1.75V106.5H280.7v1.75h-1.75Zm1.75,1.75v5.25h8.75V99.5Zm14,0h1.75v15.75H294.7Zm-12.25,8.75h1.75v3.5h7v8.75h-1.75v1.75H287.7V124h-1.75v-1.75h1.75V120.5h1.75v-7H284.2V117h-1.75v3.5H280.7v1.75h-1.75V124H277.2v-1.75h1.75V120.5h1.75V117h1.75Zm1.75,12.25h1.75v1.75H284.2Zm12.25,0h1.75v1.75h-1.75ZM308,96Zm12.25,0H322v12.25h-1.75v5.25H318.5V117h-1.75v1.75H315v1.75h-1.75v1.75H311.5V124h-1.75v-1.75h1.75V120.5h1.75v-1.75H315V117h1.75v-3.5h1.75v-5.25h1.75ZM322,108.25h1.75v5.25H322Zm1.75,5.25h1.75V117h-1.75Zm1.75,3.5h1.75v1.75H325.5Zm1.75,1.75H329v1.75h-1.75ZM329,120.5h5.25v1.75H332.5V124h-1.75v-1.75H329ZM338.8,96Zm0,1.75h26.25V99.5H352.8V103h8.75v14H359.8v-1.75h-7V117h-1.75v3.5h-3.5v1.75h-3.5V124H338.8v-1.75h5.25V120.5h3.5v-1.75h1.75V117h1.75v-1.75H345.8V117h-1.75v-1.75H342.3V103h8.75V99.5H338.8Zm5.25,7v3.5h7v-3.5Zm8.75,0v3.5h7v-3.5ZM344.05,110v3.5h7V110Zm8.75,0v3.5h7V110Zm-7,7h1.75v1.75H345.8Zm5.25,3.5h5.25v1.75h-5.25Zm5.25,1.75h8.75V124H356.3ZM369.6,96Zm10.5,0h1.75v3.5h8.75v1.75h-1.75V103H387.1v1.75h-1.75v1.75h-3.5v1.75H380.1V110h-3.5v1.75h-5.25V110h5.25v-1.75h3.5V106.5h1.75v-1.75h3.5V103h1.75v-1.75h-8.75v3.5h-3.5v1.75H373.1v-1.75h1.75V103h1.75v-1.75h1.75V99.5h1.75Zm-1.75,8.75h1.75v1.75h-1.75Zm7,1.75h1.75v1.75h-1.75V110h8.75v1.75h-1.75v1.75H390.6v1.75h-1.75V117H387.1v1.75h-1.75v1.75h-3.5v1.75H376.6V124h-5.25v-1.75h5.25V120.5h5.25V117h1.75v1.75h1.75V117h1.75v-1.75h1.75V113.5h1.75v-1.75h-8.75v1.75H380.1v1.75h-3.5V117h-3.5v-1.75h3.5V113.5h3.5v-1.75h1.75V110h1.75v-1.75h1.75Zm-5.25,8.75h1.75V117H380.1ZM400.4,96Zm5.25,0h1.75v3.5h-1.75v1.75h7v5.25h1.75V103h1.75V96h1.75v5.25h7V120.5h-1.75v1.75H421.4V124h-1.75v-1.75h1.75V120.5h1.75V103h-7v3.5H414.4v1.75h-1.75v14H410.9V120.5h-7v1.75h-1.75v-21h1.75V99.5h1.75Zm-1.75,7v7h7v-7Zm12.25,5.25h1.75V110h-1.75ZM417.9,110h1.75v3.5H417.9Zm-14,1.75v7h7v-7Zm14,8.75h1.75v1.75H417.9ZM431.2,96Zm5.25,0h1.75v3.5h5.25V103H441.7v3.5h-1.75v1.75h-3.5V110H434.7v1.75h-3.5V110h3.5v-1.75h1.75V106.5h3.5V103h1.75v-1.75h-5.25V103H434.7v1.75h-1.75V103h1.75v-1.75h-3.5V99.5h5.25Zm8.75,3.5h10.5V103h-1.75v1.75H452.2v1.75h-1.75v1.75H448.7V110h-1.75v1.75H445.2V110h1.75v-1.75h1.75V106.5h1.75v-1.75h1.75V103h1.75v-1.75h-7v3.5H445.2Zm-10.5,5.25h1.75v1.75H434.7Zm12.25,0h1.75v1.75h-1.75Zm-7,3.5h1.75V110h-1.75Zm10.5,0h1.75V110h-1.75ZM441.7,110h1.75v3.5h8.75v8.75h-1.75V124H448.7v-1.75h1.75v-7h-7V117H441.7v3.5h-1.75v1.75h-3.5V124h-3.5v-1.75h3.5V120.5h3.5V117h1.75v-1.75h-7V113.5h7Zm10.5,0h5.25v1.75H455.7v1.75h-1.75v-1.75H452.2Zm-5.25,10.5h1.75v1.75h-1.75ZM462,96Zm10.5,0h1.75v7h10.5v17.5H483v1.75h-1.75V124H479.5v-1.75h1.75V120.5H483V104.75h-8.75v7H472.5v3.5h-1.75v3.5H469v1.75h-1.75v1.75H465.5V124h-1.75v-1.75h1.75V120.5h1.75v-1.75H469v-3.5h1.75v-3.5h1.75v-7h-8.75V103h8.75Zm3.5,22.75h1.75v1.75H476Zm1.75,1.75h1.75v1.75h-1.75Zm27.762-16.492.42,14.616h1.736l.448-14.616Zm1.288,16.66a1.6,1.6,0,0,0-1.2.476,1.5,1.5,0,0,0-.476,1.176,1.6,1.6,0,0,0,.476,1.2,1.717,1.717,0,0,0,1.2.476,1.785,1.785,0,0,0,1.232-.476,1.623,1.623,0,0,0,.476-1.2,1.6,1.6,0,0,0-.476-1.176A1.666,1.666,0,0,0,506.8,120.668ZM523.6,96Zm12.25,0h1.75v1.75h-1.75Zm1.75,1.75h1.75V99.5h10.5v1.75h-14v3.5H534.1v1.75h-1.75v1.75H544.6V106.5h1.75v1.75h1.75v3.5h-1.75V110H541.1v10.5h-1.75V110h-3.5v5.25H534.1v3.5h-1.75v1.75H530.6v1.75h-1.75V124h-3.5v-1.75h3.5V120.5h1.75v-1.75h1.75v-3.5h1.75V110h-5.25v-1.75h1.75V106.5h1.75v-1.75h1.75v-3.5h-8.75V99.5H537.6Zm5.25,7h1.75v1.75h-1.75Zm3.5,10.5h1.75v7h-7V120.5h5.25ZM554.4,96Zm12.25,0h1.75v1.75h12.25v3.5H578.9V103h-1.75v-1.75h1.75V99.5h-21v1.75h-1.75V103H554.4v-1.75h1.75v-3.5h10.5Zm-7,5.25H575.4v3.5h5.25v1.75H575.4v14h-1.75v1.75H571.9V120.5h-8.75v1.75H561.4V124h-1.75v-1.75h1.75V120.5h-1.75V110H557.9v-3.5h-3.5v-1.75h5.25ZM561.4,103v1.75h5.25V103Zm7,0v1.75h5.25V103Zm-8.75,3.5v1.75h5.25V106.5Zm7,0v1.75h7V106.5ZM561.4,110v1.75h12.25V110Zm0,3.5v1.75h12.25V113.5Zm0,3.5v1.75h12.25V117Zm12.25,5.25h1.75V124h-1.75ZM585.2,96Zm12.25,0h1.75v1.75h-1.75V99.5H595.7v1.75h10.5V124h-1.75v-1.75H592.2V124h-1.75V101.25h3.5V99.5h1.75V97.75h1.75Zm-5.25,7v5.25h12.25V103Zm0,7v3.5h12.25V110Zm0,5.25v5.25h12.25v-5.25ZM616,96Zm8.75,0h1.75v1.75h1.75V99.5h-3.5v5.25H630V96h1.75v8.75h10.5v1.75h-10.5v7H630v-7h-5.25v5.25h1.75V110h1.75v1.75H626.5v1.75h-1.75v8.75H623V124h-1.75v-1.75H623v-7h-1.75V117h-3.5v-1.75h3.5V113.5H623v-7h-7v-1.75h7v-3.5h-5.25V99.5H623V97.75h1.75Zm10.5,1.75H637V99.5h-1.75ZM637,99.5h1.75V103H637Zm0,8.75h1.75v3.5H637v1.75h-1.75v1.75H633.5V117h-1.75v1.75H630v1.75h-1.75v1.75H626.5V120.5h1.75v-1.75H630V117h1.75v-3.5h3.5v-1.75H637ZM633.5,117h1.75v1.75H633.5Zm5.25,0h1.75v7h-1.75v-1.75H637V120.5h1.75Zm-3.5,1.75H637v1.75h-1.75ZM619.5,120.5h1.75v1.75H619.5Zm41.272-8.512a1.694,1.694,0,0,0-1.316.476,1.625,1.625,0,0,0-.5,1.26,1.666,1.666,0,0,0,.476,1.232,1.628,1.628,0,0,0,1.2.5,1.5,1.5,0,0,0,.616-.112,3.3,3.3,0,0,1-.588,1.876,4.049,4.049,0,0,1-1.792,1.232v1.372a5.4,5.4,0,0,0,2.884-1.82,5.247,5.247,0,0,0,1.092-3.276,3.253,3.253,0,0,0-.56-1.96A1.788,1.788,0,0,0,660.772,111.988ZM677.6,96Zm10.5,0h1.75v3.5h14v1.75H688.1v3.5h10.5v17.5h-1.75V124H695.1v-1.75h1.75V117h-10.5v7H684.6V110h-1.75v1.75H681.1v1.75h-1.75v1.75H677.6V113.5h1.75v-1.75h1.75V110h1.75v-1.75h1.75v-3.5h1.75v-3.5H677.6V99.5h10.5Zm-1.75,10.5V110h10.5v-3.5Zm0,5.25v3.5h10.5v-3.5Zm7,8.75h1.75v1.75h-1.75ZM708.4,96Zm0,12.25h26.25V110H708.4ZM0,142Zm3.5,1.75H22.75v1.75H14v7H24.5v1.75H14V156H12.25v3.5H10.5V163H8.75v1.75H7v1.75H5.25v1.75H3.5V170H1.75v-1.75H3.5V166.5H5.25v-1.75H7V163H8.75v-3.5H10.5V156h1.75v-1.75H1.75V152.5h10.5v-7H3.5ZM14,156h1.75v3.5H14Zm1.75,3.5H17.5v1.75H15.75Zm1.75,1.75h1.75V163H17.5ZM19.25,163H21v1.75H19.25ZM21,164.75h5.25v1.75H24.5v1.75H22.75V166.5H21ZM30.8,142Zm5.25,0H37.8v5.25H36.05V170H34.3V152.5H32.55v1.75H30.8V152.5h1.75v-1.75H34.3v-3.5h1.75Zm7,0H44.8v5.25H55.3v3.5H53.55v1.75H51.8v-1.75h1.75V149H43.05v1.75H41.3v1.75H39.55v1.75H37.8V152.5h1.75v-1.75H41.3v-3.5h1.75Zm3.5,10.5H48.3v15.75H46.55V170H44.8v-1.75h1.75Zm-3.5,3.5H44.8v3.5H43.05v1.75H41.3V163H39.55v-1.75H41.3V159.5h1.75Zm7,0H51.8v1.75H50.05Zm1.75,1.75h1.75v1.75H51.8Zm1.75,1.75H55.3V163H53.55Zm-10.5,7H44.8v1.75H43.05ZM61.6,142Zm12.25,0H75.6v7h3.5v-1.75h1.75V145.5H82.6v14H80.85v1.75H79.1V159.5h1.75V149H79.1v1.75H75.6v14H73.85V152.5h-3.5v1.75H68.6V166.5H66.85V154.25H65.1V156H61.6v-1.75h3.5V152.5h1.75v-7H68.6v7h1.75v-1.75h3.5Zm3.5,15.75H79.1v1.75H77.35Zm8.75,3.5h1.75v7H68.6V166.5H86.1ZM92.4,142Zm12.25,0h1.75v1.75h-1.75v1.75H102.9v1.75h5.25V145.5h3.5v1.75H109.9V149h-8.75v-1.75H99.4V149H95.9v1.75H92.4V149h3.5v-1.75h3.5V145.5h3.5v-1.75h1.75Zm1.75,1.75h1.75v1.75H106.4Zm5.25,3.5h3.5V149h-3.5Zm3.5,1.75h3.5v1.75h-3.5v7H95.9v-7h19.25Zm-17.5,3.5V156h3.5v-1.75h1.75V156h1.75v-3.5h-3.5v1.75H99.4V152.5Zm8.75,0V156h1.75v-1.75h1.75V152.5Zm5.25,0v1.75H109.9V156h3.5v-3.5Zm-14,7H113.4V170h-1.75v-1.75H99.4V170H97.65Zm1.75,1.75V163h12.25v-1.75Zm0,3.5v1.75h12.25v-1.75ZM123.2,142Zm14,0h1.75v5.25h5.25v-3.5h1.75v3.5h3.5V149h-10.5v5.25H137.2V149h-8.75v5.25h7V163H133.7v1.75h-1.75V163h1.75v-7h-5.25v8.75H126.7v1.75h-1.75v1.75H123.2V166.5h1.75v-1.75h1.75v-17.5h10.5Zm5.25,0h1.75v1.75h-1.75Zm3.5,10.5h1.75V156h-1.75v3.5H144.2v1.75h-1.75v3.5h-3.5v1.75H137.2v1.75h-1.75V170H133.7v-1.75h1.75V166.5h1.75v-1.75h1.75V163h1.75v-3.5h3.5V156h1.75Zm-7,1.75h1.75v5.25h-1.75Zm-8.75,7h1.75V163H130.2ZM147.7,163h1.75v7h-3.5v-1.75h1.75Zm-5.25,1.75h1.75v1.75h-1.75Zm1.75,1.75h1.75v1.75H144.2ZM154,142Zm15.75,0h1.75v7h7v17.5h-1.75v1.75H175V170h-1.75v-1.75H175V166.5h1.75V150.75H171.5v8.75h-1.75V163H168v1.75h-1.75v1.75H164.5v1.75h-1.75V170H161v-1.75h1.75V166.5h1.75v-1.75h1.75V163H168v-3.5h1.75v-8.75h-3.5V149h3.5ZM154,147.25h10.5V149H161v10.5h5.25v1.75H161V163h-3.5v1.75h-1.75V163H154v-1.75h5.25V149H154Zm15.75,17.5h1.75v1.75h-1.75Zm1.75,1.75h1.75v1.75H171.5Zm26.012-16.492.42,14.616h1.736l.448-14.616Zm1.288,16.66a1.6,1.6,0,0,0-1.2.476,1.5,1.5,0,0,0-.476,1.176,1.6,1.6,0,0,0,.476,1.2,1.717,1.717,0,0,0,1.2.476,1.785,1.785,0,0,0,1.232-.476,1.623,1.623,0,0,0,.476-1.2,1.6,1.6,0,0,0-.476-1.176A1.666,1.666,0,0,0,198.8,166.668ZM0,188Zm5.25,1.75H24.5v1.75H15.75v1.75h7V195h-7v1.75h7v1.75h-7V202H24.5v10.5H22.75v1.75H21V216H19.25v-1.75H21V212.5h1.75v-8.75H5.25ZM7,191.5v1.75h7V191.5ZM7,195v1.75h7V195Zm0,3.5V202h7v-3.5Zm-3.5,7H5.25v5.25H3.5v1.75H1.75v-1.75H3.5Zm3.5,0H8.75v1.75H7Zm5.25,0H14v1.75H12.25Zm5.25,0h1.75v1.75H17.5Zm-8.75,1.75H10.5v3.5H8.75Zm5.25,0h1.75v3.5H14Zm5.25,0H21v3.5H19.25ZM17.5,212.5h1.75v1.75H17.5ZM30.8,188Zm5.25,1.75h17.5v1.75H44.8v1.75H57.05v3.5H55.3v1.75H53.55v-1.75H55.3V195H44.8v7H43.05v-7H34.3v1.75H32.55v1.75H30.8v-1.75h1.75v-3.5h10.5V191.5h-7Zm0,7H41.3v1.75H36.05Zm10.5,0H51.8v1.75H46.55Zm-10.5,3.5H41.3V202H36.05Zm10.5,0H51.8V202H46.55Zm-12.25,3.5H53.55v1.75H34.3Zm-3.5,3.5H57.05V209H41.3v1.75H39.55v1.75h10.5v-1.75H51.8v1.75h1.75V216H51.8v-1.75H36.05V212.5H37.8v-1.75h1.75V209H30.8Zm44.8-8.3a1.573,1.573,0,0,0-1.232.532,1.524,1.524,0,0,0-.476,1.2,1.6,1.6,0,0,0,.476,1.2,1.647,1.647,0,0,0,1.232.5,1.691,1.691,0,0,0,1.232-.5,1.628,1.628,0,0,0,.5-1.2,1.544,1.544,0,0,0-.5-1.2A1.613,1.613,0,0,0,75.6,198.948Zm0,10.248a1.573,1.573,0,0,0-1.232.532,1.524,1.524,0,0,0-.476,1.2,1.6,1.6,0,0,0,.476,1.2,1.647,1.647,0,0,0,1.232.5,1.691,1.691,0,0,0,1.232-.5,1.628,1.628,0,0,0,.5-1.2,1.544,1.544,0,0,0-.5-1.2A1.613,1.613,0,0,0,75.6,209.2Zm35-16.352v17.164h2.044V194.72h6.916v-1.876ZM123.2,188Zm12.25,0h1.75v12.25h-1.75v5.25H133.7V209h-1.75v1.75H130.2v1.75h-1.75v1.75H126.7V216h-1.75v-1.75h1.75V212.5h1.75v-1.75h1.75V209h1.75v-3.5h1.75v-5.25h1.75Zm1.75,12.25h1.75v5.25H137.2Zm1.75,5.25h1.75V209h-1.75Zm1.75,3.5h1.75v1.75H140.7Zm1.75,1.75h1.75v1.75h-1.75Zm1.75,1.75h5.25v1.75H147.7V216h-1.75v-1.75H144.2ZM154,188Zm12.25,0H168v7h10.5v1.75H168v7h8.75v1.75H168v7h12.25v1.75H154V212.5h12.25v-7H157.5v-1.75h8.75v-7h-7v3.5H157.5V202h-1.75v1.75H154V202h1.75v-1.75h1.75v-3.5h1.75v-7H161V195h5.25Zm18.55,0Zm5.25,0H205.8v8.75H190.05Zm1.75,1.75v1.75h12.25v-1.75Zm0,3.5V195h12.25v-1.75Zm-7,5.25h26.25v1.75h-14V202h10.5v3.5H205.8V209h-1.75v1.75H202.3v1.75h-1.75v1.75H198.8V216h-3.5v-5.25h-5.25v1.75H184.8v-1.75h3.5v-10.5h-3.5Zm5.25,1.75V202h5.25v-1.75Zm0,3.5v1.75h5.25v-1.75Zm7,0v10.5h1.75V212.5h1.75v-1.75h1.75V209h1.75v-3.5h1.75v-1.75h-5.25v3.5H198.8v-3.5Zm-7,3.5V209h5.25v-1.75Zm10.5,0h1.75V209h-1.75Zm3.5,3.5h1.75v1.75h-1.75Zm1.75,1.75h5.25v1.75H209.3V216h-1.75v-1.75H205.8Zm9.8-24.5Zm12.25,0h1.75v8.75h12.25v1.75H229.6v1.75h-1.75v5.25H226.1V209h-1.75v1.75H222.6v1.75h-1.75v1.75H219.1V216h-1.75v-1.75h1.75V212.5h1.75v-1.75h1.75V209h1.75v-3.5h1.75v-5.25h1.75V198.5H215.6v-1.75h12.25Zm1.75,12.25h1.75v3.5H229.6Zm1.75,3.5h1.75v3.5h-1.75Zm1.75,3.5h1.75V209H233.1Zm1.75,1.75h1.75v1.75h-1.75Zm1.75,1.75h5.25v1.75H240.1v1.75h-1.75V212.5H236.6ZM246.4,188Zm5.25,0h1.75v3.5h-1.75v1.75h7v5.25h1.75V195h1.75v-7h1.75v5.25h7V212.5h-1.75v1.75H267.4V216h-1.75v-1.75h1.75V212.5h1.75V195h-7v3.5H260.4v1.75h-1.75v14H256.9V212.5h-7v1.75h-1.75v-21h1.75V191.5h1.75Zm-1.75,7v7h7v-7Zm12.25,5.25h1.75V202h-1.75ZM263.9,202h1.75v3.5H263.9Zm-14,1.75v7h7v-7Zm14,8.75h1.75v1.75H263.9ZM277.2,188Zm19.25,0h1.75v7h5.25v1.75H298.2v17.5h-1.75V216H294.7v-1.75h1.75V202H294.7v3.5h-1.75v1.75H291.2V209h-1.75v-1.75h1.75V205.5h1.75V202h1.75v-3.5h1.75v-1.75h-7V195h7Zm-17.5,1.75h8.75v17.5h-8.75Zm1.75,1.75V195h5.25v-3.5Zm0,5.25v3.5h5.25v-3.5Zm0,5.25v3.5h5.25V202Zm0,7h1.75v1.75H280.7v1.75h-1.75v1.75H277.2V212.5h1.75v-1.75h1.75Zm3.5,0h1.75v1.75H284.2Zm1.75,1.75h1.75v3.5h-1.75Zm7,1.75h1.75v1.75h-1.75ZM308,188Zm10.5,0h1.75v1.75H318.5Zm1.75,1.75H322v1.75h10.5V195h-1.75v-1.75h-17.5V195H311.5v1.75h-1.75V195h1.75v-3.5h8.75Zm-7,5.25H329v1.75H313.25Zm1.75,3.5h12.25v5.25H315Zm1.75,1.75V202h8.75v-1.75Zm-3.5,5.25H329V216h-1.75v-1.75H315V216h-1.75Zm1.75,1.75V209h5.25v-1.75Zm7,0V209h5.25v-1.75Zm-7,3.5v1.75h5.25v-1.75Zm7,0v1.75h5.25v-1.75Zm30.772-6.762a1.694,1.694,0,0,0-1.316.476,1.625,1.625,0,0,0-.5,1.26,1.666,1.666,0,0,0,.476,1.232,1.628,1.628,0,0,0,1.2.5,1.5,1.5,0,0,0,.616-.112,3.3,3.3,0,0,1-.588,1.876,4.049,4.049,0,0,1-1.792,1.232v1.372a5.4,5.4,0,0,0,2.884-1.82,5.247,5.247,0,0,0,1.092-3.276,3.253,3.253,0,0,0-.56-1.96A1.788,1.788,0,0,0,352.772,203.988ZM369.6,188Zm3.5,0h1.75v1.75H373.1Zm12.25,0h1.75v8.75h8.75v1.75H390.6v14h-1.75v-14H387.1V209h-1.75v3.5H383.6v1.75h-1.75V216H380.1v-1.75h1.75V212.5h1.75V209h1.75V198.5H380.1v7h-3.5v8.75h-1.75V216H373.1v-1.75h1.75V205.5h-3.5v-7h8.75v-1.75h5.25Zm-10.5,1.75h1.75v1.75h-1.75Zm14,0h1.75v1.75h-1.75Zm1.75,1.75h1.75v1.75H390.6Zm-21,1.75h12.25V195H369.6Zm3.5,7v3.5h5.25v-3.5Zm-1.75,7h1.75V209h-1.75v1.75H369.6V209h1.75Zm7,0h1.75V209h-1.75ZM380.1,209h1.75v1.75H380.1Zm14,0h1.75v5.25H390.6V212.5h3.5Zm-22.75,3.5h1.75v1.75h-1.75ZM400.4,188Zm7,0h12.25v12.25H407.4Zm1.75,1.75v3.5h8.75v-3.5Zm0,5.25v3.5h8.75V195Zm-7,7H424.9v1.75H414.4v3.5h8.75V209H414.4v5.25h-3.5V212.5h1.75v-8.75h-10.5Zm5.25,3.5h1.75v5.25H407.4v1.75h-1.75v1.75H403.9V216h-1.75v-1.75h1.75V212.5h1.75v-1.75h1.75Zm1.75,5.25h1.75v1.75h-1.75Zm5.25,3.5h10.5V216H414.4ZM431.2,188Zm3.5,1.75h1.75v1.75H434.7Zm8.75,0h10.5v7h1.75V209h-1.75v1.75H452.2V209h1.75V198.5h-10.5v12.25H441.7v-14h1.75Zm-7,1.75h1.75V195h-1.75Zm8.75,0v1.75h5.25v3.5h1.75V191.5Zm0,3.5v1.75h3.5V195Zm-14,3.5h7v12.25h-1.75v1.75H434.7v1.75h-1.75V212.5h1.75v-1.75h1.75v-10.5H431.2Zm14,1.75h7V209h-1.75v-1.75h-3.5V209H445.2Zm1.75,1.75v3.5h3.5V202Zm-8.75,8.75h1.75v1.75H438.2Zm1.75,1.75h17.5v1.75h-17.5ZM462,188Zm12.25,0H476v5.25h10.5V195H476v7h12.25v1.75h-14v3.5H472.5V209h-1.75v1.75H469v1.75h14v-1.75h1.75v1.75h1.75V216h-1.75v-1.75H469V216h-1.75v-1.75H465.5V212.5h1.75v-1.75H469V209h1.75v-1.75h1.75v-3.5H462V202h12.25v-7h-10.5v-1.75h10.5Zm5.25,19.25h1.75V209H479.5Zm1.75,1.75H483v1.75h-1.75Zm11.55-21Zm12.25,0h1.75v7h8.75v1.75H506.8V202h12.25v1.75H506.8v1.75h-1.75V209H503.3v1.75h-1.75v1.75H499.8v1.75h-3.5V216h-3.5v-1.75h3.5V212.5h3.5v-1.75h1.75V209h1.75v-3.5h1.75v-1.75H492.8V202h12.25v-5.25h-7v1.75H496.3v1.75h-1.75V198.5h1.75v-1.75h1.75v-7h1.75V195h5.25Zm1.75,17.5h1.75v1.75H506.8Zm1.75,1.75h1.75V209h-1.75ZM510.3,209h1.75v1.75H510.3Zm1.75,1.75h1.75v1.75h-1.75Zm1.75,1.75h5.25v1.75H517.3V216h-1.75v-1.75H513.8Zm9.8-24.5Zm15.75,0h1.75v5.25h8.75V195h-3.5v8.75H544.6v3.5h-1.75V209H541.1v1.75h-1.75v1.75H537.6v1.75h-1.75V216H534.1v-1.75h1.75V212.5h1.75v-1.75h1.75V209h1.75v-1.75h1.75v-3.5h1.75V195h-5.25v1.75H537.6v1.75h-1.75v1.75H534.1V209h-1.75v-1.75H527.1V209h-1.75V189.75h8.75v8.75h1.75v-1.75h1.75v-3.5h1.75Zm-12.25,3.5V195h5.25v-3.5Zm0,5.25v3.5h5.25v-3.5Zm10.5,1.75h1.75v5.25H537.6ZM527.1,202v3.5h5.25V202Zm12.25,1.75h1.75v3.5h-1.75Zm3.5,5.25h1.75v1.75h-1.75Zm-15.75,1.75h1.75v1.75H527.1v1.75h-1.75V216H523.6v-1.75h1.75V212.5h1.75Zm3.5,0h1.75v1.75H530.6Zm14,0h1.75v1.75H544.6Zm-12.25,1.75h1.75v1.75h-1.75Zm14,0h3.5v1.75H548.1V216h-1.75ZM554.4,188Zm5.25,0h1.75v3.5h-1.75v1.75h7v5.25h1.75V195h1.75v-7h1.75v5.25h7V212.5h-1.75v1.75H575.4V216h-1.75v-1.75h1.75V212.5h1.75V195h-7v3.5H568.4v1.75h-1.75v14H564.9V212.5h-7v1.75h-1.75v-21h1.75V191.5h1.75Zm-1.75,7v7h7v-7Zm12.25,5.25h1.75V202h-1.75ZM571.9,202h1.75v3.5H571.9Zm-14,1.75v7h7v-7Zm14,8.75h1.75v1.75H571.9ZM585.2,188Zm5.25,0h1.75v3.5h-1.75V195H588.7v1.75h3.5v-3.5h1.75v3.5H592.2v3.5h-1.75V202H588.7v1.75h3.5V202h1.75v1.75h1.75v3.5h-1.75V205.5H588.7v1.75h-1.75V205.5H585.2v-1.75h1.75V202h1.75v-1.75h1.75V198.5H585.2v-1.75h1.75V195h1.75v-3.5h1.75Zm5.25,1.75h15.75v3.5H609.7V195h-1.75v1.75H606.2V195h1.75v-1.75h1.75V191.5h-3.5v1.75h-1.75V195H602.7v1.75h-1.75V195h1.75v-1.75h1.75V191.5h-3.5v1.75H599.2V195h-1.75v1.75H595.7V195h1.75v-1.75h1.75V191.5h-3.5Zm1.75,7h1.75v1.75h-1.75Zm5.25,0h1.75v1.75H602.7Zm5.25,0h1.75v1.75h-1.75Zm-8.75,1.75h1.75v1.75H599.2Zm5.25,0h1.75v1.75h-1.75Zm5.25,0h1.75v1.75H609.7ZM597.45,202H609.7v1.75h-5.25v8.75h7v1.75h-17.5V209h1.75v3.5h7v-8.75h-5.25Zm-10.5,7h1.75v3.5h-1.75v1.75H585.2V212.5h1.75Zm3.5,0h1.75v5.25h-1.75ZM616,188Zm3.5,0h21v1.75H621.25v3.5h5.25V191.5H630v1.75h-3.5v3.5H630v1.75h-3.5v1.75h1.75V202H626.5v3.5h-1.75V202H623v1.75h-1.75V209H619.5v3.5h-1.75v1.75H616V212.5h1.75V209h1.75Zm17.5,3.5h3.5v1.75H637v3.5h3.5v1.75H637v1.75h1.75V202H637v3.5h-1.75V202H633.5v1.75h-1.75v3.5h7V209h-7v3.5h10.5v1.75H619.5V212.5h5.25v-5.25h1.75v5.25H630v-8.75h1.75V202h1.75v-1.75h1.75V198.5h-3.5v-1.75h3.5V195h-3.5v-1.75H637ZM621.25,195v1.75h3.5V195Zm0,3.5V202H623v-1.75h1.75V198.5Zm7,3.5H630v1.75h-1.75Zm10.5,0h1.75v1.75h-1.75Zm1.75,1.75h1.75v1.75H640.5Zm20.3-1.358a3.594,3.594,0,0,0-2.576,1.008,3.262,3.262,0,0,0-1.064,2.52,3.2,3.2,0,0,0,1.064,2.492,3.618,3.618,0,0,0,2.576,1.036,3.666,3.666,0,0,0,2.576-1.036,3.483,3.483,0,0,0,0-5.012A3.641,3.641,0,0,0,660.8,202.392Zm0,1.484a2.12,2.12,0,0,1,1.484.588,1.954,1.954,0,0,1,.644,1.456,2,2,0,0,1-.644,1.456,2.12,2.12,0,0,1-1.484.588,2.027,2.027,0,0,1-1.484-.588,1.858,1.858,0,0,1-.644-1.456,1.819,1.819,0,0,1,.644-1.456A2.027,2.027,0,0,1,660.8,203.876Zm24.556-2.044V217.12H678.44V219h8.96V201.832Z" transform="translate(0 -4)" fill="#fff"/>
</svg>
