<svg xmlns="http://www.w3.org/2000/svg" width="389.51" height="310.053" viewBox="0 0 389.51 310.053">
  <g id="award-1" transform="translate(-928.534 -1948.408)">
    <g id="Group_38279" data-name="Group 38279" transform="translate(928.533 1690.031)">
      <path id="Path_50071" data-name="Path 50071" d="M152,420v25.837H385.706V678.376h25.967V420Z" transform="translate(-48.131 -135.786)" fill="#d77643"/>
      <path id="Path_50072" data-name="Path 50072" d="M173.967,419v25.838H148V703.214h25.967v25.838h77.9V703.214H225.9V444.838h25.967V419Z" transform="translate(-148 -160.623)" fill="#d77643"/>
      <path id="Path_50073" data-name="Path 50073" d="M286.837,679.377V653.539H260.869V421H157V653.539h77.9v25.838Z" transform="translate(76.706 -110.947)" fill="#feae34"/>
      <rect id="Rectangle_20888" data-name="Rectangle 20888" width="51.935" height="25.838" transform="translate(129.837 542.591)" fill="#feae34"/>
      <rect id="Rectangle_20889" data-name="Rectangle 20889" width="25.967" height="258.377" transform="translate(363.543 284.215)" fill="#feae34"/>
      <rect id="Rectangle_20890" data-name="Rectangle 20890" width="25.967" height="232.539" transform="translate(103.869 310.052)" fill="#feae34"/>
      <rect id="Rectangle_20891" data-name="Rectangle 20891" width="51.935" height="25.838" transform="translate(311.609 258.377)" fill="#feae34"/>
      <path id="Path_50074" data-name="Path 50074" d="M153,519.351h51.935V493.513H152.967Z" transform="translate(-23.163 -235.136)" fill="#feae34"/>
      <path id="Path_50075" data-name="Path 50075" d="M334.771,653.539h-77.9V421H153V653.539h51.935v25.838H334.771Z" transform="translate(-23.163 -110.947)" fill="#fee761"/>
      <rect id="Rectangle_20894" data-name="Rectangle 20894" width="25.967" height="25.838" transform="translate(103.869 542.591)" fill="#fee761"/>
      <rect id="Rectangle_20895" data-name="Rectangle 20895" width="25.967" height="258.377" transform="translate(77.902 284.215)" fill="#fee761"/>
      <rect id="Rectangle_20896" data-name="Rectangle 20896" width="129.837" height="25.838" transform="translate(181.772 258.377)" fill="#fee761"/>
      <rect id="Rectangle_20897" data-name="Rectangle 20897" width="25.967" height="25.838" transform="translate(103.869 258.377)" fill="#fee761"/>
    </g>
    <path id="Path_51876" data-name="Path 51876" d="M84.027-25.714H21.007V-4.708H0V16.3H21.007v84.027H0v21.007H105.034V100.326H84.027Z" transform="translate(1102.375 2069.906)" fill="#7e4120"/>
  </g>
</svg>
