<svg xmlns="http://www.w3.org/2000/svg" xmlns:xlink="http://www.w3.org/1999/xlink" width="264.66" height="123.579" viewBox="0 0 264.66 123.579">
  <defs>
    <clipPath id="clip-path">
      <rect id="Rectangle_32268" data-name="Rectangle 32268" width="86" height="109" transform="translate(876 3123)" fill="#fff" stroke="#707070" stroke-width="1"/>
    </clipPath>
    <clipPath id="clip-path-2">
      <rect id="Rectangle_25442" data-name="Rectangle 25442" width="96.278" height="87.906" fill="#fff" stroke="#707070" stroke-width="1"/>
    </clipPath>
  </defs>
  <g id="bg-1" transform="translate(-687.34 -3087.421)">
    <g id="Mask_Group_218" data-name="Mask Group 218" transform="translate(-10 -21)" clip-path="url(#clip-path)">
      <g id="Group_38556" data-name="Group 38556" transform="translate(-551 -231.653)">
        <g id="Group_38548" data-name="Group 38548" transform="translate(1426.598 3360.904)">
          <path id="Path_51911" data-name="Path 51911" d="M-1425.986,3441.279v32.016h3.339v4.427h13.378v4.616h9.719v-4.616h12.849v-4.427h4.311v-4.259l-2.967-.672V3436.21h-5.609v5.069Z" transform="translate(1448.445 -3413.601)" fill="#edd5c2"/>
          <path id="Path_51912" data-name="Path 51912" d="M-1413.6,3498.462v3.722h-8.873v3.916h-4.659v3.572h4.659v5.467h4.282v12.42h27.119v-17.075h6.522V3506.1h-2.377v-4.87h-7.882v-2.768h-5.032v3.824h-9.633v-3.824Z" transform="translate(1448.821 -3434.013)" fill="#6055b1"/>
          <path id="Path_51908" data-name="Path 51908" d="M-1434.184,3451.589V3412.83h5.306v-5.017h7.727v-5.243h28.044v5.243h9.045v5.017h4.789v8.43h4.576v36.666h-14.271v-32.242h-4.138v4.757h-35.771v21.147Z" transform="translate(1451.133 -3402.57)" fill="#e28100"/>
          <path id="Path_51909" data-name="Path 51909" d="M-1419.687,3450.8v8.464h4.122V3450.8Z" transform="translate(1446.38 -3418.385)" fill="#26222e"/>
          <path id="Path_51910" data-name="Path 51910" d="M-1419.687,3450.8v8.464h4.122V3450.8Z" transform="translate(1467.887 -3418.385)" fill="#26222e"/>
          <rect id="Rectangle_26818" data-name="Rectangle 26818" width="4.705" height="4.705" transform="translate(30.515 45.991)" fill="#eb8e6e"/>
          <rect id="Rectangle_26820" data-name="Rectangle 26820" width="4.705" height="4.705" transform="translate(43.285 45.991)" fill="#eb8e6e"/>
          <rect id="Rectangle_26819" data-name="Rectangle 26819" width="8.737" height="4.705" transform="translate(35.22 50.696)" fill="#eb8e6e"/>
          <path id="Path_51913" data-name="Path 51913" d="M-1432.343,3511.464h-10.421v-2.541h-3.812v-4.38h-4.655v4.38h-8.172v3.885h4.245v4.615h8.581v4.338h3.812v4.414h9.077v-4.414h6.229v-5.01h-4.884Z" transform="translate(1459.402 -3436.007)" fill="#edd5c2"/>
          <path id="Path_51914" data-name="Path 51914" d="M-1407,3516.7v8.659h4.942v5.118h21.6v-5.118h4.227V3516.7h-8.916v4.038h-12.256V3516.7Z" transform="translate(1442.219 -3439.993)" fill="#edd5c2"/>
          <path id="Path_51915" data-name="Path 51915" d="M-1416.03,3541.021v5.678h-4.419v8.406h35.386V3546.7h-4v-5.678Z" transform="translate(1446.63 -3447.969)" fill="#45134c"/>
          <path id="Path_51916" data-name="Path 51916" d="M-1413.555,3561.667v13.869h4.224v3.958s4.429.4,4.537,0,0-17.827,0-17.827Z" transform="translate(1444.369 -3454.739)" fill="#edd5c2"/>
          <path id="Path_51917" data-name="Path 51917" d="M-1387.687,3561.667v4.535h5.042v8.932h3.347v4.127h4.86v-12.386h-3.9v-5.208Z" transform="translate(1435.887 -3454.739)" fill="#edd5c2"/>
          <path id="Path_51918" data-name="Path 51918" d="M-1416.121,3582.58v4.018h-4.605v4.747h13.846V3586.6h-4.956v-4.018Z" transform="translate(1446.72 -3461.596)" fill="#a52c2a"/>
          <path id="Path_51919" data-name="Path 51919" d="M-1380.055,3581.459v9.242h8.71V3586h-5.5v-4.537" transform="translate(1433.384 -3461.228)" fill="#a62722"/>
        </g>
        <g id="Group_38549" data-name="Group 38549" transform="translate(1442.666 3348.614)">
          <rect id="Rectangle_20960" data-name="Rectangle 20960" width="25.418" height="3.177" transform="translate(3.177 25.418)" fill="#d99a36"/>
          <rect id="Rectangle_20961" data-name="Rectangle 20961" width="25.418" height="3.177" transform="translate(3.177 19.063)" fill="#d99a36"/>
          <rect id="Rectangle_20962" data-name="Rectangle 20962" width="3.177" height="6.354" transform="translate(0 28.595)" fill="#e8bc48"/>
          <rect id="Rectangle_20963" data-name="Rectangle 20963" width="19.063" height="6.354" transform="translate(9.532 28.595)" fill="#e8bc48"/>
          <rect id="Rectangle_20964" data-name="Rectangle 20964" width="28.595" height="3.177" transform="translate(28.595 25.418)" fill="#e8bc48"/>
          <rect id="Rectangle_20965" data-name="Rectangle 20965" width="19.063" height="3.177" transform="translate(9.532 22.24)" fill="#e8bc48"/>
          <rect id="Rectangle_20966" data-name="Rectangle 20966" width="3.177" height="3.177" transform="translate(0 22.24)" fill="#e8bc48"/>
          <rect id="Rectangle_20967" data-name="Rectangle 20967" width="28.595" height="3.177" transform="translate(28.595 19.063)" fill="#e8bc48"/>
          <rect id="Rectangle_20968" data-name="Rectangle 20968" width="3.177" height="19.063" transform="translate(0 0)" fill="#e8bc48"/>
          <path id="Path_50173" data-name="Path 50173" d="M356.64,206.859h-3.177v3.177h-3.177v3.177h-3.177v6.354h-6.354v-6.354h-3.177v9.532H356.64Z" transform="translate(-328.045 -203.682)" fill="#e8bc48"/>
          <rect id="Rectangle_20969" data-name="Rectangle 20969" width="12.709" height="6.354" transform="translate(47.658 28.595)" fill="#fff268"/>
          <rect id="Rectangle_20970" data-name="Rectangle 20970" width="15.886" height="6.354" transform="translate(28.595 28.595)" fill="#fff268"/>
          <rect id="Rectangle_20971" data-name="Rectangle 20971" width="6.354" height="6.354" transform="translate(3.177 28.595)" fill="#fff268"/>
          <rect id="Rectangle_20972" data-name="Rectangle 20972" width="12.709" height="3.177" transform="translate(47.658 22.24)" fill="#fff268"/>
          <rect id="Rectangle_20973" data-name="Rectangle 20973" width="15.886" height="3.177" transform="translate(28.595 22.24)" fill="#fff268"/>
          <rect id="Rectangle_20974" data-name="Rectangle 20974" width="6.354" height="3.177" transform="translate(3.177 22.24)" fill="#fff268"/>
          <path id="Path_50174" data-name="Path 50174" d="M420.594,220.063V201h-3.177v3.177H414.24v3.177h-3.177v3.177h-3.177v9.532Z" transform="translate(-360.227 -201)" fill="#fff268"/>
          <path id="Path_50175" data-name="Path 50175" d="M388.617,220.063v-3.177H385.44v-6.354h-3.177v-3.177h-3.177v-3.177h-3.177V201h-3.177v19.063Z" transform="translate(-344.136 -201)" fill="#fff268"/>
          <path id="Path_50176" data-name="Path 50176" d="M332.213,222.745V210.036h-3.177v-3.177h-3.177v15.886Z" transform="translate(-322.682 -203.682)" fill="#fff268"/>
          <rect id="Rectangle_20975" data-name="Rectangle 20975" width="3.177" height="6.354" transform="translate(44.481 28.595)" fill="#caff94"/>
          <rect id="Rectangle_20976" data-name="Rectangle 20976" width="3.177" height="3.177" transform="translate(44.481 22.24)" fill="#caff94"/>
          <rect id="Rectangle_20977" data-name="Rectangle 20977" width="3.177" height="3.177" transform="translate(44.481 15.886)" fill="#caff94"/>
        </g>
      </g>
    </g>
    <g id="Group_38247" data-name="Group 38247" transform="translate(-2199.432 2294.829)" opacity="0.443">
      <rect id="Rectangle_13872" data-name="Rectangle 13872" width="2.972" height="2.972" transform="translate(2952.824 828.26)" fill="#fff"/>
      <rect id="Rectangle_13873" data-name="Rectangle 13873" width="2.972" height="2.972" transform="translate(2943.907 795.564)" fill="#fff"/>
      <rect id="Rectangle_13874" data-name="Rectangle 13874" width="2.972" height="2.972" transform="translate(2943.907 825.288)" fill="#fff"/>
      <rect id="Rectangle_13875" data-name="Rectangle 13875" width="2.972" height="2.972" transform="translate(2946.879 828.26)" fill="#fff"/>
      <rect id="Rectangle_13876" data-name="Rectangle 13876" width="2.972" height="2.972" transform="translate(2949.852 828.26)" fill="#fff"/>
      <rect id="Rectangle_13877" data-name="Rectangle 13877" width="2.972" height="2.972" transform="translate(2949.852 831.233)" fill="#fff"/>
      <rect id="Rectangle_13878" data-name="Rectangle 13878" width="2.972" height="2.972" transform="translate(2949.852 834.205)" fill="#fff"/>
      <rect id="Rectangle_13879" data-name="Rectangle 13879" width="2.972" height="2.972" transform="translate(2949.852 837.177)" fill="#fff"/>
      <rect id="Rectangle_13880" data-name="Rectangle 13880" width="2.972" height="2.972" transform="translate(2949.852 840.15)" fill="#fff"/>
      <rect id="Rectangle_13881" data-name="Rectangle 13881" width="2.972" height="2.972" transform="translate(2934.99 798.537)" fill="#fff"/>
      <rect id="Rectangle_13882" data-name="Rectangle 13882" width="2.972" height="2.972" transform="translate(2940.935 795.564)" fill="#fff"/>
      <rect id="Rectangle_13883" data-name="Rectangle 13883" width="2.972" height="2.972" transform="translate(2937.962 798.537)" fill="#fff"/>
      <rect id="Rectangle_13884" data-name="Rectangle 13884" width="2.972" height="2.972" transform="translate(2934.99 801.509)" fill="#fff"/>
      <rect id="Rectangle_13885" data-name="Rectangle 13885" width="2.972" height="2.972" transform="translate(2934.99 804.482)" fill="#fff"/>
      <rect id="Rectangle_13886" data-name="Rectangle 13886" width="2.972" height="2.972" transform="translate(2934.99 807.454)" fill="#fff"/>
      <rect id="Rectangle_13887" data-name="Rectangle 13887" width="2.972" height="2.972" transform="translate(2934.99 810.426)" fill="#fff"/>
      <rect id="Rectangle_13888" data-name="Rectangle 13888" width="2.972" height="2.972" transform="translate(2934.99 813.399)" fill="#fff"/>
      <rect id="Rectangle_13889" data-name="Rectangle 13889" width="2.972" height="2.972" transform="translate(2934.99 816.371)" fill="#fff"/>
      <rect id="Rectangle_13890" data-name="Rectangle 13890" width="2.972" height="2.972" transform="translate(2934.99 819.343)" fill="#fff"/>
      <rect id="Rectangle_13891" data-name="Rectangle 13891" width="2.972" height="2.972" transform="translate(2934.99 822.316)" fill="#fff"/>
      <rect id="Rectangle_13892" data-name="Rectangle 13892" width="2.972" height="2.972" transform="translate(2937.962 825.288)" fill="#fff"/>
      <rect id="Rectangle_13893" data-name="Rectangle 13893" width="2.972" height="2.972" transform="translate(2940.935 825.288)" fill="#fff"/>
      <rect id="Rectangle_13894" data-name="Rectangle 13894" width="2.972" height="2.972" transform="translate(2926.073 795.564)" fill="#fff"/>
      <rect id="Rectangle_13895" data-name="Rectangle 13895" width="2.972" height="2.972" transform="translate(2929.045 795.564)" fill="#fff"/>
      <rect id="Rectangle_13896" data-name="Rectangle 13896" width="2.972" height="2.972" transform="translate(2932.018 798.537)" fill="#fff"/>
      <rect id="Rectangle_13897" data-name="Rectangle 13897" width="2.972" height="2.972" transform="translate(2926.073 825.288)" fill="#fff"/>
      <rect id="Rectangle_13898" data-name="Rectangle 13898" width="2.972" height="2.972" transform="translate(2929.045 825.288)" fill="#fff"/>
      <rect id="Rectangle_13899" data-name="Rectangle 13899" width="2.972" height="2.972" transform="translate(2932.018 825.288)" fill="#fff"/>
      <rect id="Rectangle_13900" data-name="Rectangle 13900" width="2.972" height="2.972" transform="translate(2917.156 792.592)" fill="#fff"/>
      <rect id="Rectangle_13901" data-name="Rectangle 13901" width="2.972" height="2.972" transform="translate(2920.128 792.592)" fill="#fff"/>
      <rect id="Rectangle_13902" data-name="Rectangle 13902" width="2.972" height="2.972" transform="translate(2923.101 792.592)" fill="#fff"/>
      <rect id="Rectangle_13903" data-name="Rectangle 13903" width="2.972" height="2.972" transform="translate(2917.156 828.26)" fill="#fff"/>
      <rect id="Rectangle_13904" data-name="Rectangle 13904" width="2.972" height="2.972" transform="translate(2920.128 828.26)" fill="#fff"/>
      <rect id="Rectangle_13905" data-name="Rectangle 13905" width="2.972" height="2.972" transform="translate(2923.101 828.26)" fill="#fff"/>
      <rect id="Rectangle_13906" data-name="Rectangle 13906" width="2.972" height="2.972" transform="translate(2920.128 831.233)" fill="#fff"/>
      <rect id="Rectangle_13907" data-name="Rectangle 13907" width="2.972" height="2.972" transform="translate(2920.128 834.205)" fill="#fff"/>
      <rect id="Rectangle_13908" data-name="Rectangle 13908" width="2.972" height="2.972" transform="translate(2920.128 837.177)" fill="#fff"/>
      <rect id="Rectangle_13909" data-name="Rectangle 13909" width="2.972" height="2.972" transform="translate(2920.128 840.15)" fill="#fff"/>
      <rect id="Rectangle_13910" data-name="Rectangle 13910" width="2.972" height="2.972" transform="translate(2908.239 798.537)" fill="#fff"/>
      <rect id="Rectangle_13911" data-name="Rectangle 13911" width="2.972" height="2.972" transform="translate(2911.211 795.564)" fill="#fff"/>
      <rect id="Rectangle_13912" data-name="Rectangle 13912" width="2.972" height="2.972" transform="translate(2914.183 795.564)" fill="#fff"/>
      <rect id="Rectangle_13913" data-name="Rectangle 13913" width="2.972" height="2.972" transform="translate(2911.211 804.482)" fill="#fff"/>
      <rect id="Rectangle_13914" data-name="Rectangle 13914" width="2.972" height="2.972" transform="translate(2911.211 807.454)" fill="#fff"/>
      <rect id="Rectangle_13915" data-name="Rectangle 13915" width="2.972" height="2.972" transform="translate(2911.211 810.426)" fill="#fff"/>
      <rect id="Rectangle_13916" data-name="Rectangle 13916" width="2.972" height="2.972" transform="translate(2911.211 813.399)" fill="#fff"/>
      <rect id="Rectangle_13917" data-name="Rectangle 13917" width="2.972" height="2.972" transform="translate(2908.239 819.343)" fill="#fff"/>
      <rect id="Rectangle_13918" data-name="Rectangle 13918" width="2.972" height="2.972" transform="translate(2908.239 822.316)" fill="#fff"/>
      <rect id="Rectangle_13919" data-name="Rectangle 13919" width="2.972" height="2.972" transform="translate(2911.211 825.288)" fill="#fff"/>
      <rect id="Rectangle_13920" data-name="Rectangle 13920" width="2.972" height="2.972" transform="translate(2914.183 825.288)" fill="#fff"/>
      <rect id="Rectangle_13921" data-name="Rectangle 13921" width="2.972" height="2.972" transform="translate(2899.322 795.564)" fill="#fff"/>
      <rect id="Rectangle_13922" data-name="Rectangle 13922" width="2.972" height="2.972" transform="translate(2902.294 798.537)" fill="#fff"/>
      <rect id="Rectangle_13923" data-name="Rectangle 13923" width="2.972" height="2.972" transform="translate(2905.266 798.537)" fill="#fff"/>
      <rect id="Rectangle_13924" data-name="Rectangle 13924" width="2.972" height="2.972" transform="translate(2905.266 801.509)" fill="#fff"/>
      <rect id="Rectangle_13925" data-name="Rectangle 13925" width="2.972" height="2.972" transform="translate(2905.266 804.482)" fill="#fff"/>
      <rect id="Rectangle_13926" data-name="Rectangle 13926" width="2.972" height="2.972" transform="translate(2905.266 807.454)" fill="#fff"/>
      <rect id="Rectangle_13927" data-name="Rectangle 13927" width="2.972" height="2.972" transform="translate(2905.266 810.426)" fill="#fff"/>
      <rect id="Rectangle_13928" data-name="Rectangle 13928" width="2.972" height="2.972" transform="translate(2905.266 813.399)" fill="#fff"/>
      <rect id="Rectangle_13929" data-name="Rectangle 13929" width="2.972" height="2.972" transform="translate(2905.266 816.371)" fill="#fff"/>
      <rect id="Rectangle_13930" data-name="Rectangle 13930" width="2.972" height="2.972" transform="translate(2902.294 819.343)" fill="#fff"/>
      <rect id="Rectangle_13931" data-name="Rectangle 13931" width="2.972" height="2.972" transform="translate(2905.266 819.343)" fill="#fff"/>
      <rect id="Rectangle_13932" data-name="Rectangle 13932" width="2.972" height="2.972" transform="translate(2902.294 822.316)" fill="#fff"/>
      <rect id="Rectangle_13933" data-name="Rectangle 13933" width="2.972" height="2.972" transform="translate(2899.322 825.288)" fill="#fff"/>
      <rect id="Rectangle_13934" data-name="Rectangle 13934" width="2.972" height="2.972" transform="translate(2896.349 795.564)" fill="#fff"/>
      <rect id="Rectangle_13935" data-name="Rectangle 13935" width="2.972" height="2.972" transform="translate(2890.405 828.26)" fill="#fff"/>
      <rect id="Rectangle_13936" data-name="Rectangle 13936" width="2.972" height="2.972" transform="translate(2896.349 825.288)" fill="#fff"/>
      <rect id="Rectangle_13937" data-name="Rectangle 13937" width="2.972" height="2.972" transform="translate(2893.377 828.26)" fill="#fff"/>
      <rect id="Rectangle_13938" data-name="Rectangle 13938" width="2.972" height="2.972" transform="translate(2890.405 831.233)" fill="#fff"/>
      <rect id="Rectangle_13939" data-name="Rectangle 13939" width="2.972" height="2.972" transform="translate(2890.405 834.205)" fill="#fff"/>
      <rect id="Rectangle_13940" data-name="Rectangle 13940" width="2.972" height="2.972" transform="translate(2890.405 837.177)" fill="#fff"/>
      <rect id="Rectangle_13941" data-name="Rectangle 13941" width="2.972" height="2.972" transform="translate(2890.405 840.15)" fill="#fff"/>
      <rect id="Rectangle_13942" data-name="Rectangle 13942" width="2.972" height="2.972" transform="translate(2887.432 828.26)" fill="#fff"/>
      <rect id="Rectangle_13943" data-name="Rectangle 13943" width="2.972" height="2.972" transform="translate(2952.824 849.067)" fill="#fff"/>
      <rect id="Rectangle_13944" data-name="Rectangle 13944" width="2.972" height="2.972" transform="translate(2949.852 843.122)" fill="#fff"/>
      <rect id="Rectangle_13945" data-name="Rectangle 13945" width="2.972" height="2.972" transform="translate(2943.907 834.205)" fill="#fff"/>
      <rect id="Rectangle_13946" data-name="Rectangle 13946" width="2.972" height="2.972" transform="translate(2943.907 837.177)" fill="#fff"/>
      <rect id="Rectangle_13947" data-name="Rectangle 13947" width="2.972" height="2.972" transform="translate(2943.907 840.15)" fill="#fff"/>
      <rect id="Rectangle_13948" data-name="Rectangle 13948" width="2.972" height="2.972" transform="translate(2943.907 843.122)" fill="#fff"/>
      <rect id="Rectangle_13949" data-name="Rectangle 13949" width="2.972" height="2.972" transform="translate(2949.852 846.095)" fill="#fff"/>
      <rect id="Rectangle_13950" data-name="Rectangle 13950" width="2.972" height="2.972" transform="translate(2943.907 852.039)" fill="#fff"/>
      <rect id="Rectangle_13951" data-name="Rectangle 13951" width="2.972" height="2.972" transform="translate(2946.879 849.067)" fill="#fff"/>
      <rect id="Rectangle_13952" data-name="Rectangle 13952" width="2.972" height="2.972" transform="translate(2949.852 849.067)" fill="#fff"/>
      <rect id="Rectangle_13953" data-name="Rectangle 13953" width="2.972" height="2.972" transform="translate(2940.935 852.039)" fill="#fff"/>
      <rect id="Rectangle_13954" data-name="Rectangle 13954" width="2.972" height="2.972" transform="translate(2934.99 855.012)" fill="#fff"/>
      <rect id="Rectangle_13955" data-name="Rectangle 13955" width="2.972" height="2.972" transform="translate(2934.99 857.984)" fill="#fff"/>
      <rect id="Rectangle_13956" data-name="Rectangle 13956" width="2.972" height="2.972" transform="translate(2937.962 855.012)" fill="#fff"/>
      <rect id="Rectangle_13957" data-name="Rectangle 13957" width="2.972" height="2.972" transform="translate(2934.99 860.956)" fill="#fff"/>
      <rect id="Rectangle_13958" data-name="Rectangle 13958" width="2.972" height="2.972" transform="translate(2926.073 852.039)" fill="#fff"/>
      <rect id="Rectangle_13959" data-name="Rectangle 13959" width="2.972" height="2.972" transform="translate(2929.045 852.039)" fill="#fff"/>
      <rect id="Rectangle_13960" data-name="Rectangle 13960" width="2.972" height="2.972" transform="translate(2932.018 855.012)" fill="#fff"/>
      <rect id="Rectangle_13961" data-name="Rectangle 13961" width="2.972" height="2.972" transform="translate(2920.128 843.122)" fill="#fff"/>
      <rect id="Rectangle_13962" data-name="Rectangle 13962" width="2.972" height="2.972" transform="translate(2920.128 846.095)" fill="#fff"/>
      <rect id="Rectangle_13963" data-name="Rectangle 13963" width="2.972" height="2.972" transform="translate(2917.156 849.067)" fill="#fff"/>
      <rect id="Rectangle_13964" data-name="Rectangle 13964" width="2.972" height="2.972" transform="translate(2920.128 849.067)" fill="#fff"/>
      <rect id="Rectangle_13965" data-name="Rectangle 13965" width="2.972" height="2.972" transform="translate(2923.101 849.067)" fill="#fff"/>
      <rect id="Rectangle_13966" data-name="Rectangle 13966" width="2.972" height="2.972" transform="translate(2911.211 852.039)" fill="#fff"/>
      <rect id="Rectangle_13967" data-name="Rectangle 13967" width="2.972" height="2.972" transform="translate(2914.183 852.039)" fill="#fff"/>
      <rect id="Rectangle_13968" data-name="Rectangle 13968" width="2.972" height="2.972" transform="translate(2908.239 855.012)" fill="#fff"/>
      <rect id="Rectangle_13969" data-name="Rectangle 13969" width="2.972" height="2.972" transform="translate(2899.322 852.039)" fill="#fff"/>
      <rect id="Rectangle_13970" data-name="Rectangle 13970" width="2.972" height="2.972" transform="translate(2902.294 855.012)" fill="#fff"/>
      <rect id="Rectangle_13971" data-name="Rectangle 13971" width="2.972" height="2.972" transform="translate(2905.266 855.012)" fill="#fff"/>
      <rect id="Rectangle_13972" data-name="Rectangle 13972" width="2.972" height="2.972" transform="translate(2905.266 857.984)" fill="#fff"/>
      <rect id="Rectangle_13973" data-name="Rectangle 13973" width="2.972" height="2.972" transform="translate(2905.266 860.956)" fill="#fff"/>
      <rect id="Rectangle_13974" data-name="Rectangle 13974" width="2.972" height="2.972" transform="translate(2890.405 843.122)" fill="#fff"/>
      <rect id="Rectangle_13975" data-name="Rectangle 13975" width="2.972" height="2.972" transform="translate(2890.405 846.095)" fill="#fff"/>
      <rect id="Rectangle_13976" data-name="Rectangle 13976" width="2.972" height="2.972" transform="translate(2890.405 849.067)" fill="#fff"/>
      <rect id="Rectangle_13977" data-name="Rectangle 13977" width="2.972" height="2.972" transform="translate(2893.377 849.067)" fill="#fff"/>
      <rect id="Rectangle_13978" data-name="Rectangle 13978" width="2.972" height="2.972" transform="translate(2896.349 852.039)" fill="#fff"/>
      <rect id="Rectangle_13979" data-name="Rectangle 13979" width="2.972" height="2.972" transform="translate(2887.432 849.067)" fill="#fff"/>
    </g>
    <g id="nav-2" transform="translate(1832.035 1026.458)">
      <path id="Path_50320" data-name="Path 50320" d="M-1106.892,2163.066v12.569h-4.331v4.645h-5.545v3.858h-28.584v-3.858h-4.619v-4.645h-3.852V2158.05h-4.257V2146h50.576Z" transform="translate(114.46 -19.191)" fill="#edd5c2"/>
      <path id="Path_50318" data-name="Path 50318" d="M-1121.7,2131.05h-3.808v4.294h-39.67v4.51h-7.8v6.485h7.8v-1.925h4.848v-3.948h21.668v3.948h13.154v12.827h3.808v4.451h4.437v-4.451h4.9v-12.827h-4.9v3.814h-4.437V2131.05Z" transform="translate(129.048 -13.393)" fill="#53140d"/>
      <rect id="Rectangle_25451" data-name="Rectangle 25451" width="4.287" height="8.572" transform="translate(-1005.341 2131.097)" fill="#0b122f"/>
      <rect id="Rectangle_25452" data-name="Rectangle 25452" width="4.287" height="8.572" transform="translate(-1031.061 2131.097)" fill="#0b122f"/>
      <path id="Path_50319" data-name="Path 50319" d="M-1116.041,2167v9.077h-4.461v3.1h-11.237v-3.1H-1137V2167Z" transform="translate(110.7 -23.551)" fill="#fff"/>
      <path id="Path_50321" data-name="Path 50321" d="M-1070.264,2167v4.685h-10.714v4.741h5.164v5.775h10.121V2167Z" transform="translate(26.659 -28.555)" fill="#53140d"/>
      <path id="Path_50322" data-name="Path 50322" d="M-1177.873,2186.893v4.944h9.694v4.831h-5.368v4.545h-7.133v3.657h-9.633v4.066h-4.238v-7.724h4.238v-4.545h9.633v-9.775Z" transform="translate(198.081 -35.042)" fill="#edd5c2"/>
      <path id="Path_50323" data-name="Path 50323" d="M-1054.59,2204.71h-12.587v-4.267h-7.863v-4.27h-5.938v-4.541h9.378v-3.906h4.423v8.447h12.587Z" transform="translate(14.943 -31.079)" fill="#edd5c2"/>
      <path id="Path_50324" data-name="Path 50324" d="M-1107.189,2208.281v8.886h-8.459v10.576h-26.3v-10.576h-9.266v-8.886Z" transform="translate(110.553 -43.335)" fill="#2e7e9c"/>
      <path id="Path_50325" data-name="Path 50325" d="M-1118.689,2215.463v5.06h4.019v7.734h-4.019v-4h-3.874v-8.8Z" transform="translate(100.488 -46.119)" fill="#fefefe"/>
      <rect id="Rectangle_20960-2" data-name="Rectangle 20960" width="18.499" height="2.312" transform="translate(-1013.243 2115)" fill="#d99a36"/>
      <rect id="Rectangle_20961-2" data-name="Rectangle 20961" width="18.499" height="2.312" transform="translate(-1013.243 2110.376)" fill="#d99a36"/>
      <rect id="Rectangle_20962-2" data-name="Rectangle 20962" width="2.312" height="4.624" transform="translate(-994.744 2117.313)" fill="#e8bc48"/>
      <rect id="Rectangle_20963-2" data-name="Rectangle 20963" width="13.874" height="4.624" transform="translate(-1013.243 2117.313)" fill="#e8bc48"/>
      <rect id="Rectangle_20964-2" data-name="Rectangle 20964" width="20.811" height="2.312" transform="translate(-1034.054 2115)" fill="#e8bc48"/>
      <rect id="Rectangle_20965-2" data-name="Rectangle 20965" width="13.874" height="2.312" transform="translate(-1013.243 2112.688)" fill="#e8bc48"/>
      <rect id="Rectangle_20966-2" data-name="Rectangle 20966" width="2.312" height="2.312" transform="translate(-994.744 2112.688)" fill="#e8bc48"/>
      <rect id="Rectangle_20967-2" data-name="Rectangle 20967" width="20.811" height="2.312" transform="translate(-1034.054 2110.376)" fill="#e8bc48"/>
      <rect id="Rectangle_20968-2" data-name="Rectangle 20968" width="2.312" height="13.873" transform="translate(-994.744 2096.503)" fill="#e8bc48"/>
      <path id="Path_50173-2" data-name="Path 50173" d="M337.577,206.859h2.312v2.312H342.2v2.312h2.312v4.624h4.625v-4.624h2.312v6.936H337.577Z" transform="translate(-1350.82 1891.956)" fill="#e8bc48"/>
      <rect id="Rectangle_20969-2" data-name="Rectangle 20969" width="9.249" height="4.624" transform="translate(-1036.366 2117.313)" fill="#fff268"/>
      <rect id="Rectangle_20970-2" data-name="Rectangle 20970" width="11.562" height="4.624" transform="translate(-1024.804 2117.313)" fill="#fff268"/>
      <rect id="Rectangle_20971-2" data-name="Rectangle 20971" width="4.625" height="4.624" transform="translate(-999.369 2117.313)" fill="#fff268"/>
      <rect id="Rectangle_20972-2" data-name="Rectangle 20972" width="9.249" height="2.312" transform="translate(-1036.366 2112.688)" fill="#fff268"/>
      <rect id="Rectangle_20973-2" data-name="Rectangle 20973" width="11.562" height="2.312" transform="translate(-1024.804 2112.688)" fill="#fff268"/>
      <rect id="Rectangle_20974-2" data-name="Rectangle 20974" width="4.625" height="2.312" transform="translate(-999.369 2112.688)" fill="#fff268"/>
      <path id="Path_50174-2" data-name="Path 50174" d="M407.885,214.873V201H410.2v2.312h2.312v2.312h2.312v2.312h2.312v6.936Z" transform="translate(-1444.251 1895.503)" fill="#fff268"/>
      <path id="Path_50175-2" data-name="Path 50175" d="M372.731,214.873v-2.312h2.312v-4.624h2.312v-2.312h2.312v-2.312h2.312V201h2.312v13.873Z" transform="translate(-1397.536 1895.503)" fill="#fff268"/>
      <path id="Path_50176-2" data-name="Path 50176" d="M325.859,218.42v-9.248h2.312v-2.312h2.312V218.42Z" transform="translate(-1325.228 1891.956)" fill="#fff268"/>
      <rect id="Rectangle_20975-2" data-name="Rectangle 20975" width="2.312" height="4.624" transform="translate(-1027.117 2117.313)" fill="#caff94"/>
      <rect id="Rectangle_20976-2" data-name="Rectangle 20976" width="2.312" height="2.312" transform="translate(-1027.117 2112.688)" fill="#caff94"/>
      <rect id="Rectangle_20977-2" data-name="Rectangle 20977" width="2.312" height="2.312" transform="translate(-1027.117 2108.064)" fill="#caff94"/>
      <rect id="Rectangle_11848" data-name="Rectangle 11848" width="4.542" height="1.514" transform="translate(-970.821 2140.561)" fill="#f6757a"/>
      <rect id="Rectangle_11849" data-name="Rectangle 11849" width="9.083" height="9.083" transform="translate(-979.904 2148.13)" fill="#ecf0f1"/>
      <rect id="Rectangle_11850" data-name="Rectangle 11850" width="4.542" height="9.083" transform="translate(-966.28 2148.13)" fill="#ecf0f1"/>
      <rect id="Rectangle_11851" data-name="Rectangle 11851" width="10.597" height="6.055" transform="translate(-981.418 2140.561)" fill="#ecf0f1"/>
      <rect id="Rectangle_11852" data-name="Rectangle 11852" width="6.055" height="6.055" transform="translate(-966.28 2140.561)" fill="#ecf0f1"/>
      <rect id="Rectangle_11853" data-name="Rectangle 11853" width="9.083" height="1.514" transform="translate(-979.904 2146.616)" fill="#c0cbdc"/>
      <path id="Path_49641" data-name="Path 49641" d="M176.055,565.055V559h7.569v6.055h-1.514v10.6h-7.569v-9.083H170v-1.514Z" transform="translate(-1136.28 1581.561)" fill="#c0cbdc"/>
      <rect id="Rectangle_11854" data-name="Rectangle 11854" width="4.542" height="15.138" transform="translate(-970.821 2142.075)" fill="#e43b44"/>
      <path id="Path_49642" data-name="Path 49642" d="M175,559.028h1.514v-1.514h1.514V556h3.028v4.542H175Z" transform="translate(-1141.279 1580.02)" fill="#e43b44"/>
      <path id="Path_49643" data-name="Path 49643" d="M183.027,556v1.514h1.514v1.514h1.514v1.514H180V556Z" transform="translate(-1153.849 1580.02)" fill="#e43b44"/>
    </g>
    <g id="nav-1" transform="translate(688.401 3122.961)" clip-path="url(#clip-path-2)">
      <g id="Group_38421" data-name="Group 38421" transform="translate(30.888)">
        <path id="Path_50301" data-name="Path 50301" d="M-1712.611,2608.016v12.017h-8.138v-8.186h-8.533v-3.832h-25.692v3.832h-5.25v-11.642h4.045V2596.1h3.348V2591.7h24.759v4.394h7.326v4.109h4.425v7.809Z" transform="translate(1773.31 -2577.167)" fill="#582726"/>
        <path id="Path_50302" data-name="Path 50302" d="M-1715.884,2638.947h3.936v-8.23h-8.263v-7.649h-7.744v-3.92h-27.5v3.92h-4.523v32.082h4.523v3.894h35.24v-3.894h4.327Z" transform="translate(1773.098 -2588.646)" fill="#edd5c2"/>
        <path id="Path_50303" data-name="Path 50303" d="M-1729.752,2638.77v7.78h-4.87v-7.78Z" transform="translate(1775.599 -2596.425)" fill="#221e2a"/>
        <path id="Path_50304" data-name="Path 50304" d="M-1729.752,2638.77v7.78h-4.87v-7.78Z" transform="translate(1755.677 -2596.425)" fill="#221e2a"/>
        <path id="Path_50305" data-name="Path 50305" d="M-1724.1,2658.621v3.848h-3.933v-3.848Z" transform="translate(1765.969 -2602.48)" fill="#e2c2ab"/>
        <path id="Path_50306" data-name="Path 50306" d="M-1721.589,2665h8.377v4.294h-8.377Z" transform="translate(1751.191 -2605.008)" fill="#e2c2ab"/>
        <path id="Path_50307" data-name="Path 50307" d="M-1703.866,2658.621v3.623h-3.848v-3.623Z" transform="translate(1733.468 -2602.48)" fill="#e2c2ab"/>
        <path id="Path_50308" data-name="Path 50308" d="M-1711.591,2541.213v3.983h-4.075v15.876h-4.469v3.877h-35.1v-3.877h-4.735v-4.046h4.735v4.046h31.926v-8.181h4.177v-11.676Z" transform="translate(1772.743 -2494.978)" fill="#e2c2ab"/>
        <path id="Path_50310" data-name="Path 50310" d="M-1741.205,2581.229v2.956h8.346v3.253h3.366v11.948h4.2v12.8h-7.571v-8.691h-4.677v8.691h-23.452v-28h3.193v-2.956Z" transform="translate(1785.845 -2510.837)" fill="#b9dedd"/>
        <path id="Path_50309" data-name="Path 50309" d="M-1719.5,2684.744v4.053h-8.536v-4.053Z" transform="translate(1761.366 -2614.643)" fill="#e2c2ab"/>
        <path id="Path_50311" data-name="Path 50311" d="M-1719.382,2587.458v4.05h-4.047v15.281h-4.6v-19.331Z" transform="translate(1761.251 -2513.305)" fill="#00bcd1"/>
        <path id="Path_50314" data-name="Path 50314" d="M0,0V3.511H3.093V7.286H6.934V0Z" transform="translate(7.286 79.88) rotate(90)" fill="#edd5c2"/>
        <g id="Group_38419" data-name="Group 38419" transform="translate(12.166)">
          <rect id="Rectangle_20960-3" data-name="Rectangle 20960" width="20.378" height="2.548" transform="translate(25.473 20.378)" fill="#d99a36"/>
          <rect id="Rectangle_20961-3" data-name="Rectangle 20961" width="20.378" height="2.548" transform="translate(25.473 15.283)" fill="#d99a36"/>
          <rect id="Rectangle_20962-3" data-name="Rectangle 20962" width="2.548" height="5.094" transform="translate(45.851 22.925)" fill="#e8bc48"/>
          <rect id="Rectangle_20963-3" data-name="Rectangle 20963" width="15.283" height="5.094" transform="translate(25.473 22.925)" fill="#e8bc48"/>
          <rect id="Rectangle_20964-3" data-name="Rectangle 20964" width="22.925" height="2.548" transform="translate(2.548 20.378)" fill="#e8bc48"/>
          <rect id="Rectangle_20965-3" data-name="Rectangle 20965" width="15.283" height="2.548" transform="translate(25.473 17.831)" fill="#e8bc48"/>
          <rect id="Rectangle_20966-3" data-name="Rectangle 20966" width="2.548" height="2.548" transform="translate(45.851 17.831)" fill="#e8bc48"/>
          <rect id="Rectangle_20967-3" data-name="Rectangle 20967" width="22.925" height="2.548" transform="translate(2.548 15.283)" fill="#e8bc48"/>
          <rect id="Rectangle_20968-3" data-name="Rectangle 20968" width="2.548" height="15.283" transform="translate(45.851)" fill="#e8bc48"/>
          <path id="Path_50173-3" data-name="Path 50173" d="M337.576,206.859h2.548v2.547h2.548v2.548h2.547v5.094h5.1v-5.094h2.548V219.6H337.576Z" transform="translate(-312.103 -204.312)" fill="#e8bc48"/>
          <rect id="Rectangle_20969-3" data-name="Rectangle 20969" width="10.189" height="5.094" transform="translate(0 22.925)" fill="#fff268"/>
          <rect id="Rectangle_20970-3" data-name="Rectangle 20970" width="12.737" height="5.094" transform="translate(12.737 22.925)" fill="#fff268"/>
          <rect id="Rectangle_20971-3" data-name="Rectangle 20971" width="5.094" height="5.094" transform="translate(40.757 22.925)" fill="#fff268"/>
          <rect id="Rectangle_20972-3" data-name="Rectangle 20972" width="10.189" height="2.548" transform="translate(0 17.831)" fill="#fff268"/>
          <rect id="Rectangle_20973-3" data-name="Rectangle 20973" width="12.737" height="2.548" transform="translate(12.737 17.831)" fill="#fff268"/>
          <rect id="Rectangle_20974-3" data-name="Rectangle 20974" width="5.094" height="2.548" transform="translate(40.757 17.831)" fill="#fff268"/>
          <path id="Path_50174-3" data-name="Path 50174" d="M407.884,216.283V201h2.548v2.548h2.548V206.1h2.547v2.548h2.548v7.642Z" transform="translate(-407.884 -201)" fill="#fff268"/>
          <path id="Path_50175-3" data-name="Path 50175" d="M372.73,216.283v-2.548h2.547v-5.094h2.548v-2.548h2.547v-2.548h2.548V201h2.547v15.283Z" transform="translate(-359.993 -201)" fill="#fff268"/>
          <path id="Path_50176-3" data-name="Path 50176" d="M325.858,219.6V209.406h2.548v-2.547h2.547V219.6Z" transform="translate(-285.1 -204.312)" fill="#fff268"/>
          <rect id="Rectangle_20975-3" data-name="Rectangle 20975" width="2.548" height="5.094" transform="translate(10.189 22.925)" fill="#caff94"/>
          <rect id="Rectangle_20976-3" data-name="Rectangle 20976" width="2.548" height="2.548" transform="translate(10.189 17.831)" fill="#caff94"/>
          <rect id="Rectangle_20977-3" data-name="Rectangle 20977" width="2.548" height="2.548" transform="translate(10.189 12.737)" fill="#caff94"/>
        </g>
        <path id="Path_50316" data-name="Path 50316" d="M0,0H6.328V6.3h5.835V25.55H6.328V16.27h-4.2V8.617H0Z" transform="translate(32.137 74.158) rotate(90)" fill="#b9dedd"/>
      </g>
    </g>
    <g id="Group_38422" data-name="Group 38422" transform="translate(687.34 3174)">
      <rect id="Rectangle_11848-2" data-name="Rectangle 11848" width="6.567" height="2.189" transform="translate(19.703 6.568)" fill="#f6757a"/>
      <rect id="Rectangle_11849-2" data-name="Rectangle 11849" width="13.136" height="13.136" transform="translate(26.27 17.515)" fill="#ecf0f1"/>
      <rect id="Rectangle_11850-2" data-name="Rectangle 11850" width="6.567" height="13.136" transform="translate(13.136 17.515)" fill="#ecf0f1"/>
      <rect id="Rectangle_11851-2" data-name="Rectangle 11851" width="15.325" height="8.757" transform="translate(26.27 6.568)" fill="#ecf0f1"/>
      <rect id="Rectangle_11852-2" data-name="Rectangle 11852" width="8.756" height="8.757" transform="translate(10.946 6.568)" fill="#ecf0f1"/>
      <rect id="Rectangle_11853-2" data-name="Rectangle 11853" width="13.136" height="2.189" transform="translate(26.27 15.326)" fill="#c0cbdc"/>
      <path id="Path_49641-2" data-name="Path 49641" d="M180.946,567.757V559H170v8.757h2.189v15.326h10.946V569.946H189.7v-2.189Z" transform="translate(-170 -552.432)" fill="#c0cbdc"/>
      <rect id="Rectangle_11854-2" data-name="Rectangle 11854" width="6.567" height="21.894" transform="translate(19.703 8.757)" fill="#e43b44"/>
      <path id="Path_49642-2" data-name="Path 49642" d="M183.756,560.379h-2.189V558.19h-2.189V556H175v6.568h8.756Z" transform="translate(-164.054 -556)" fill="#e43b44"/>
      <path id="Path_49643-2" data-name="Path 49643" d="M184.378,556v2.189h-2.189v2.189H180v2.189h8.757V556Z" transform="translate(-158.108 -556)" fill="#e43b44"/>
    </g>
  </g>
</svg>
