<svg xmlns="http://www.w3.org/2000/svg" xmlns:xlink="http://www.w3.org/1999/xlink" width="1366" height="684" viewBox="0 0 1366 684">
  <defs>
    <clipPath id="clip-path">
      <rect id="Rectangle_6987" data-name="Rectangle 6987" width="1366" height="683.052" fill="none"/>
    </clipPath>
  </defs>
  <g id="bg-jun-pixel" transform="translate(5.548)">
    <rect id="Rectangle_6986" data-name="Rectangle 6986" width="1366" height="683.052" transform="translate(-5.548)" fill="#53bdf8"/>
    <g id="Group_36991" data-name="Group 36991" transform="translate(-5.548)">
      <g id="Group_36990" data-name="Group 36990" clip-path="url(#clip-path)">
        <g id="Group_36967" data-name="Group 36967" transform="translate(-128.783 -119.188)">
          <g id="Group_36966" data-name="Group 36966">
            <path id="Path_44434" data-name="Path 44434" d="M922.039,595.813l-3.4,6.727L-152.271,68.227-49.134-135.782Z" transform="translate(152.271 135.782)" fill="#f5c246"/>
          </g>
        </g>
        <g id="Group_36969" data-name="Group 36969" transform="translate(-70.911 359.477)">
          <g id="Group_36968" data-name="Group 36968">
            <path id="Path_44435" data-name="Path 44435" d="M927.82,661.57l-1.394.888L-86.338,548.895l38.916-139.371Z" transform="translate(86.338 -409.523)" fill="#f5c246"/>
          </g>
        </g>
        <g id="Group_36971" data-name="Group 36971" transform="translate(456.24 -122.298)">
          <g id="Group_36970" data-name="Group 36970">
            <path id="Path_44436" data-name="Path 44436" d="M1004.65,597.065l-6.058,3.5L514.249-33.247,697.967-139.325Z" transform="translate(-514.249 139.325)" fill="#f5c246"/>
          </g>
        </g>
        <g id="Group_36973" data-name="Group 36973" transform="translate(837.445 -57.958)">
          <g id="Group_36972" data-name="Group 36972">
            <path id="Path_44437" data-name="Path 44437" d="M1058.126,607.41h-7L948.559-66.027H1160.7Z" transform="translate(-948.559 66.027)" fill="#f5c246"/>
          </g>
        </g>
        <g id="Group_36975" data-name="Group 36975" transform="translate(940.582 -116.928)">
          <g id="Group_36974" data-name="Group 36974">
            <path id="Path_44438" data-name="Path 44438" d="M1072.122,600.589l-6.058-3.5,303.165-730.3L1552.947-27.129Z" transform="translate(-1066.064 133.207)" fill="#f5c246"/>
          </g>
        </g>
        <g id="Group_36977" data-name="Group 36977" transform="translate(942.126 35.446)">
          <g id="Group_36976" data-name="Group 36976">
            <path id="Path_44439" data-name="Path 44439" d="M1071.321,622.692l-3.5-6.671L1768.065,40.381,1874.135,242.7Z" transform="translate(-1067.824 -40.381)" fill="#f5c246"/>
          </g>
        </g>
        <g id="Group_36979" data-name="Group 36979" transform="translate(939.372 385.535)">
          <g id="Group_36978" data-name="Group 36978">
            <path id="Path_44440" data-name="Path 44440" d="M1065.9,667.569l-1.215-.92,836.794-227.44,36.838,139.738Z" transform="translate(-1064.686 -439.209)" fill="#f5c246"/>
          </g>
        </g>
        <g id="Group_36981" data-name="Group 36981" transform="translate(942.848 611.825)">
          <g id="Group_36980" data-name="Group 36980">
            <path id="Path_44441" data-name="Path 44441" d="M1068.646,698.079l3.5-1.075,870.433,1.077-106.07,56.771Z" transform="translate(-1068.646 -697.004)" fill="#3a89ce"/>
          </g>
        </g>
        <g id="Group_36983" data-name="Group 36983" transform="translate(941.832 612.099)">
          <g id="Group_36982" data-name="Group 36982">
            <path id="Path_44442" data-name="Path 44442" d="M1067.488,697.937l6.058-.621,425.523,94.409-183.718,18.827Z" transform="translate(-1067.488 -697.316)" fill="#3a89ce"/>
          </g>
        </g>
        <g id="Group_36985" data-name="Group 36985" transform="translate(838.888 612.474)">
          <g id="Group_36984" data-name="Group 36984">
            <path id="Path_44443" data-name="Path 44443" d="M1052.776,697.742h7l102.572,119.526H950.2Z" transform="translate(-950.204 -697.742)" fill="#3a89ce"/>
          </g>
        </g>
        <g id="Group_36987" data-name="Group 36987" transform="translate(516.309 612.227)">
          <g id="Group_36986" data-name="Group 36986">
            <path id="Path_44444" data-name="Path 44444" d="M1008.21,697.462l6.058.621L766.4,810.7,582.687,791.871Z" transform="translate(-582.687 -697.462)" fill="#3a89ce"/>
          </g>
        </g>
        <g id="Group_36989" data-name="Group 36989" transform="translate(-211.689 612.047)">
          <g id="Group_36988" data-name="Group 36988">
            <path id="Path_44445" data-name="Path 44445" d="M907.81,697.256l3.5,1.075L-140.657,778.17l-106.07-79.836Z" transform="translate(246.727 -697.256)" fill="#3a89ce"/>
          </g>
        </g>
      </g>
    </g>
    <g id="Group_37006" data-name="Group 37006" transform="translate(40.872 43.738)">
      <rect id="Rectangle_7263" data-name="Rectangle 7263" width="12.064" height="12.065" transform="translate(700.814 91.165)" fill="#4068a3"/>
      <rect id="Rectangle_7264" data-name="Rectangle 7264" width="9.424" height="9.425" transform="translate(826.18 285.589)" fill="#c7c8c9"/>
      <rect id="Rectangle_7265" data-name="Rectangle 7265" width="6.306" height="6.306" transform="translate(57.63 199.26)" fill="#d85f2d"/>
      <rect id="Rectangle_7266" data-name="Rectangle 7266" width="2.614" height="2.614" transform="translate(1215.596 637.647)" fill="#d85f2d"/>
      <rect id="Rectangle_7267" data-name="Rectangle 7267" width="14.472" height="14.473" transform="translate(688.334 304.832)" fill="#4068a3"/>
      <rect id="Rectangle_7268" data-name="Rectangle 7268" width="8.493" height="8.494" transform="translate(1134.066 341.515)" fill="#d85f2d"/>
      <rect id="Rectangle_7269" data-name="Rectangle 7269" width="6.292" height="6.293" transform="translate(1044.976 118.103)" fill="#d85f2d"/>
      <rect id="Rectangle_7270" data-name="Rectangle 7270" width="6.293" height="6.292" transform="matrix(0.003, -1, 1, 0.003, 1223.883, 191.69)" fill="#fff"/>
      <rect id="Rectangle_7271" data-name="Rectangle 7271" width="5.057" height="5.057" transform="translate(704.287 227.848)" fill="#8a8a8a"/>
      <rect id="Rectangle_7272" data-name="Rectangle 7272" width="5.057" height="5.057" transform="translate(844.767 257.157)" fill="#d85f2d"/>
      <rect id="Rectangle_7273" data-name="Rectangle 7273" width="6.609" height="6.609" transform="translate(1081.545)" fill="#4068a3"/>
      <rect id="Rectangle_7274" data-name="Rectangle 7274" width="6.609" height="6.609" transform="translate(0 151.428) rotate(-61.303)" fill="#4068a3"/>
      <rect id="Rectangle_7275" data-name="Rectangle 7275" width="8.434" height="8.433" transform="translate(1100.091 42.401) rotate(-89.847)" fill="#fff"/>
      <rect id="Rectangle_7276" data-name="Rectangle 7276" width="6.165" height="6.166" transform="translate(110.752 335.152)" fill="#fff"/>
      <rect id="Rectangle_7277" data-name="Rectangle 7277" width="4.323" height="4.323" transform="translate(687.997 51.02)" fill="#c7c8c9"/>
      <rect id="Rectangle_7278" data-name="Rectangle 7278" width="4.405" height="4.405" transform="translate(1083.082 50.792)" fill="#fff"/>
      <rect id="Rectangle_7279" data-name="Rectangle 7279" width="8.433" height="8.434" transform="translate(1249.206 457.963)" fill="#d85f2d"/>
      <rect id="Rectangle_7280" data-name="Rectangle 7280" width="7.556" height="7.557" transform="translate(1162.823 388.087)" fill="#c7c8c9"/>
      <rect id="Rectangle_7281" data-name="Rectangle 7281" width="6.745" height="6.746" transform="translate(1066.672 500.201)" fill="#c7c8c9"/>
      <rect id="Rectangle_7282" data-name="Rectangle 7282" width="5.06" height="5.061" transform="translate(1253.423 339.916)" fill="#c7c8c9"/>
      <rect id="Rectangle_7283" data-name="Rectangle 7283" width="9.15" height="9.149" transform="translate(1219.296 270.636) rotate(-89.847)" fill="#4068a3"/>
      <rect id="Rectangle_7284" data-name="Rectangle 7284" width="5.034" height="5.034" transform="translate(634.555 84.561)" fill="#fff"/>
      <rect id="Rectangle_7285" data-name="Rectangle 7285" width="5.034" height="5.034" transform="translate(1148.508 212.403)" fill="#fff"/>
      <rect id="Rectangle_7286" data-name="Rectangle 7286" width="5.034" height="5.034" transform="translate(648.257 114.401)" fill="#fff"/>
      <rect id="Rectangle_7287" data-name="Rectangle 7287" width="5.034" height="5.034" transform="translate(603.948 126.45)" fill="#d85f2d"/>
      <g id="Group_36993" data-name="Group 36993" transform="translate(1020.344 129.226)">
        <rect id="Rectangle_7288" data-name="Rectangle 7288" width="3.681" height="3.681" transform="translate(3.681)" fill="#eee"/>
        <rect id="Rectangle_7289" data-name="Rectangle 7289" width="3.681" height="3.681" transform="translate(0 3.681)" fill="#eee"/>
        <rect id="Rectangle_7290" data-name="Rectangle 7290" width="3.681" height="3.681" transform="translate(3.681 3.681)" fill="#c3c2c3"/>
        <rect id="Rectangle_7291" data-name="Rectangle 7291" width="3.681" height="3.681" transform="translate(7.362 3.681)" fill="#fff"/>
        <rect id="Rectangle_7292" data-name="Rectangle 7292" width="3.681" height="3.681" transform="translate(3.681 7.363)" fill="#eee"/>
      </g>
      <g id="Group_36994" data-name="Group 36994" transform="translate(969.088 38.861)">
        <rect id="Rectangle_7293" data-name="Rectangle 7293" width="3.681" height="3.681" transform="matrix(0.003, -1, 1, 0.003, 3.691, 3.681)" fill="#e69e38"/>
        <rect id="Rectangle_7294" data-name="Rectangle 7294" width="3.682" height="3.681" transform="translate(0 7.353) rotate(-89.847)" fill="#e69e38"/>
        <rect id="Rectangle_7295" data-name="Rectangle 7295" width="3.682" height="3.681" transform="matrix(0.003, -1, 1, 0.003, 3.681, 7.363)" fill="#fcee50"/>
        <rect id="Rectangle_7296" data-name="Rectangle 7296" width="3.682" height="3.681" transform="translate(7.362 7.373) rotate(-89.847)" fill="#dc712c"/>
        <rect id="Rectangle_7297" data-name="Rectangle 7297" width="3.681" height="3.681" transform="translate(3.671 11.044) rotate(-89.847)" fill="#e69e38"/>
      </g>
      <g id="Group_36995" data-name="Group 36995" transform="translate(660.599 20.078)">
        <rect id="Rectangle_7298" data-name="Rectangle 7298" width="3.681" height="3.681" transform="translate(3.681)" fill="#e69e38"/>
        <rect id="Rectangle_7299" data-name="Rectangle 7299" width="3.681" height="3.682" transform="translate(0 3.681)" fill="#e69e38"/>
        <rect id="Rectangle_7300" data-name="Rectangle 7300" width="3.681" height="3.682" transform="translate(3.681 3.681)" fill="#fcee50"/>
        <rect id="Rectangle_7301" data-name="Rectangle 7301" width="3.681" height="3.682" transform="translate(7.362 3.681)" fill="#dc712c"/>
        <rect id="Rectangle_7302" data-name="Rectangle 7302" width="3.681" height="3.681" transform="translate(3.681 7.363)" fill="#e69e38"/>
      </g>
      <g id="Group_36996" data-name="Group 36996" transform="translate(1080.673 614.791)">
        <rect id="Rectangle_7303" data-name="Rectangle 7303" width="3.681" height="3.681" transform="translate(3.681)" fill="#e69e38"/>
        <rect id="Rectangle_7304" data-name="Rectangle 7304" width="3.681" height="3.682" transform="translate(0 3.681)" fill="#e69e38"/>
        <rect id="Rectangle_7305" data-name="Rectangle 7305" width="3.681" height="3.682" transform="translate(3.681 3.681)" fill="#fcee50"/>
        <rect id="Rectangle_7306" data-name="Rectangle 7306" width="3.681" height="3.682" transform="translate(7.362 3.681)" fill="#dc712c"/>
        <rect id="Rectangle_7307" data-name="Rectangle 7307" width="3.681" height="3.681" transform="translate(3.681 7.363)" fill="#e69e38"/>
      </g>
      <g id="Group_36997" data-name="Group 36997" transform="translate(796.718 109.615)">
        <rect id="Rectangle_7308" data-name="Rectangle 7308" width="9.164" height="9.165" transform="translate(9.164)" fill="#fcee50"/>
        <rect id="Rectangle_7309" data-name="Rectangle 7309" width="9.164" height="9.165" transform="translate(18.329)" fill="#dc712c"/>
        <rect id="Rectangle_7310" data-name="Rectangle 7310" width="9.164" height="9.165" transform="translate(0 9.165)" fill="#fcee50"/>
        <rect id="Rectangle_7311" data-name="Rectangle 7311" width="9.164" height="9.165" transform="translate(9.164 9.165)" fill="#e69e38"/>
        <rect id="Rectangle_7312" data-name="Rectangle 7312" width="9.164" height="9.165" transform="translate(18.329 9.165)" fill="#fcee50"/>
        <rect id="Rectangle_7313" data-name="Rectangle 7313" width="9.164" height="9.165" transform="translate(27.493 9.165)" fill="#e69e38"/>
        <rect id="Rectangle_7314" data-name="Rectangle 7314" width="9.164" height="9.165" transform="translate(0 18.33)" fill="#e69e38"/>
        <rect id="Rectangle_7315" data-name="Rectangle 7315" width="9.164" height="9.165" transform="translate(9.164 18.33)" fill="#dc712c"/>
        <rect id="Rectangle_7316" data-name="Rectangle 7316" width="9.164" height="9.165" transform="translate(18.329 18.33)" fill="#e69e38"/>
        <rect id="Rectangle_7317" data-name="Rectangle 7317" width="9.164" height="9.165" transform="translate(27.493 18.33)" fill="#fcee50"/>
        <rect id="Rectangle_7318" data-name="Rectangle 7318" width="9.164" height="9.165" transform="translate(9.164 27.495)" fill="#e69e38"/>
        <rect id="Rectangle_7319" data-name="Rectangle 7319" width="9.164" height="9.165" transform="translate(18.329 27.495)" fill="#fcee50"/>
      </g>
      <g id="Group_36998" data-name="Group 36998" transform="translate(533.577 179.224)">
        <rect id="Rectangle_7320" data-name="Rectangle 7320" width="9.165" height="9.165" transform="translate(9.164)" fill="#e69e38"/>
        <rect id="Rectangle_7321" data-name="Rectangle 7321" width="9.164" height="9.165" transform="translate(18.329)" fill="#dc712c"/>
        <rect id="Rectangle_7322" data-name="Rectangle 7322" width="9.164" height="9.165" transform="translate(0 9.165)" fill="#e69e38"/>
        <rect id="Rectangle_7323" data-name="Rectangle 7323" width="9.165" height="9.165" transform="translate(9.164 9.165)" fill="#fcee50"/>
        <rect id="Rectangle_7324" data-name="Rectangle 7324" width="9.164" height="9.165" transform="translate(18.329 9.165)" fill="#e69e38"/>
        <rect id="Rectangle_7325" data-name="Rectangle 7325" width="9.164" height="9.165" transform="translate(27.493 9.165)" fill="#fcee50"/>
        <rect id="Rectangle_7326" data-name="Rectangle 7326" width="9.164" height="9.165" transform="translate(0 18.33)" fill="#fcee50"/>
        <rect id="Rectangle_7327" data-name="Rectangle 7327" width="9.165" height="9.165" transform="translate(9.164 18.33)" fill="#dc712c"/>
        <rect id="Rectangle_7328" data-name="Rectangle 7328" width="9.164" height="9.165" transform="translate(18.329 18.33)" fill="#fcee50"/>
        <rect id="Rectangle_7329" data-name="Rectangle 7329" width="9.164" height="9.165" transform="translate(27.493 18.33)" fill="#e69e38"/>
        <rect id="Rectangle_7330" data-name="Rectangle 7330" width="9.165" height="9.165" transform="translate(9.164 27.495)" fill="#fcee50"/>
        <rect id="Rectangle_7331" data-name="Rectangle 7331" width="9.164" height="9.165" transform="translate(18.329 27.495)" fill="#e69e38"/>
      </g>
      <g id="Group_36999" data-name="Group 36999" transform="translate(1251.371 202.609)">
        <rect id="Rectangle_7332" data-name="Rectangle 7332" width="9.164" height="9.165" transform="translate(9.164)" fill="#e69e38"/>
        <rect id="Rectangle_7333" data-name="Rectangle 7333" width="9.164" height="9.165" transform="translate(18.329)" fill="#dc712c"/>
        <rect id="Rectangle_7334" data-name="Rectangle 7334" width="9.164" height="9.165" transform="translate(0 9.165)" fill="#e69e38"/>
        <rect id="Rectangle_7335" data-name="Rectangle 7335" width="9.164" height="9.165" transform="translate(9.164 9.165)" fill="#fcee50"/>
        <rect id="Rectangle_7336" data-name="Rectangle 7336" width="9.164" height="9.165" transform="translate(18.329 9.165)" fill="#e69e38"/>
        <rect id="Rectangle_7337" data-name="Rectangle 7337" width="9.164" height="9.165" transform="translate(27.493 9.165)" fill="#fcee50"/>
        <rect id="Rectangle_7338" data-name="Rectangle 7338" width="9.164" height="9.165" transform="translate(0 18.33)" fill="#fcee50"/>
        <rect id="Rectangle_7339" data-name="Rectangle 7339" width="9.164" height="9.165" transform="translate(9.164 18.33)" fill="#dc712c"/>
        <rect id="Rectangle_7340" data-name="Rectangle 7340" width="9.164" height="9.165" transform="translate(18.329 18.33)" fill="#fcee50"/>
        <rect id="Rectangle_7341" data-name="Rectangle 7341" width="9.164" height="9.165" transform="translate(27.493 18.33)" fill="#e69e38"/>
        <rect id="Rectangle_7342" data-name="Rectangle 7342" width="9.164" height="9.165" transform="translate(9.164 27.495)" fill="#fcee50"/>
        <rect id="Rectangle_7343" data-name="Rectangle 7343" width="9.164" height="9.165" transform="translate(18.329 27.495)" fill="#e69e38"/>
      </g>
      <g id="Group_37000" data-name="Group 37000" transform="translate(726.646 38.133)">
        <rect id="Rectangle_7344" data-name="Rectangle 7344" width="5.043" height="5.043" transform="translate(5.043)" fill="#e69e38"/>
        <rect id="Rectangle_7345" data-name="Rectangle 7345" width="5.043" height="5.043" transform="translate(10.085)" fill="#dc712c"/>
        <rect id="Rectangle_7346" data-name="Rectangle 7346" width="5.043" height="5.043" transform="translate(0 5.043)" fill="#e69e38"/>
        <rect id="Rectangle_7347" data-name="Rectangle 7347" width="5.043" height="5.043" transform="translate(5.043 5.043)" fill="#fcee50"/>
        <rect id="Rectangle_7348" data-name="Rectangle 7348" width="5.043" height="5.043" transform="translate(10.085 5.043)" fill="#e69e38"/>
        <rect id="Rectangle_7349" data-name="Rectangle 7349" width="5.042" height="5.043" transform="translate(15.128 5.043)" fill="#fcee50"/>
        <rect id="Rectangle_7350" data-name="Rectangle 7350" width="5.043" height="5.043" transform="translate(0 10.086)" fill="#fcee50"/>
        <rect id="Rectangle_7351" data-name="Rectangle 7351" width="5.043" height="5.043" transform="translate(5.043 10.086)" fill="#dc712c"/>
        <rect id="Rectangle_7352" data-name="Rectangle 7352" width="5.043" height="5.043" transform="translate(10.085 10.086)" fill="#fcee50"/>
        <rect id="Rectangle_7353" data-name="Rectangle 7353" width="5.042" height="5.043" transform="translate(15.128 10.086)" fill="#e69e38"/>
        <rect id="Rectangle_7354" data-name="Rectangle 7354" width="5.043" height="5.043" transform="translate(5.043 15.129)" fill="#fcee50"/>
        <rect id="Rectangle_7355" data-name="Rectangle 7355" width="5.043" height="5.043" transform="translate(10.085 15.129)" fill="#e69e38"/>
      </g>
      <g id="Group_37001" data-name="Group 37001" transform="translate(87.16 367.522)">
        <rect id="Rectangle_7356" data-name="Rectangle 7356" width="5.042" height="5.043" transform="translate(5.043)" fill="#e69e38"/>
        <rect id="Rectangle_7357" data-name="Rectangle 7357" width="5.043" height="5.043" transform="translate(10.085)" fill="#dc712c"/>
        <rect id="Rectangle_7358" data-name="Rectangle 7358" width="5.043" height="5.043" transform="translate(0 5.043)" fill="#e69e38"/>
        <rect id="Rectangle_7359" data-name="Rectangle 7359" width="5.042" height="5.043" transform="translate(5.043 5.043)" fill="#fcee50"/>
        <rect id="Rectangle_7360" data-name="Rectangle 7360" width="5.043" height="5.043" transform="translate(10.085 5.043)" fill="#e69e38"/>
        <rect id="Rectangle_7361" data-name="Rectangle 7361" width="5.042" height="5.043" transform="translate(15.128 5.043)" fill="#fcee50"/>
        <rect id="Rectangle_7362" data-name="Rectangle 7362" width="5.043" height="5.043" transform="translate(0 10.086)" fill="#fcee50"/>
        <rect id="Rectangle_7363" data-name="Rectangle 7363" width="5.042" height="5.043" transform="translate(5.043 10.086)" fill="#dc712c"/>
        <rect id="Rectangle_7364" data-name="Rectangle 7364" width="5.043" height="5.043" transform="translate(10.085 10.086)" fill="#fcee50"/>
        <rect id="Rectangle_7365" data-name="Rectangle 7365" width="5.042" height="5.043" transform="translate(15.128 10.086)" fill="#e69e38"/>
        <rect id="Rectangle_7366" data-name="Rectangle 7366" width="5.042" height="5.043" transform="translate(5.043 15.129)" fill="#fcee50"/>
        <rect id="Rectangle_7367" data-name="Rectangle 7367" width="5.043" height="5.043" transform="translate(10.085 15.129)" fill="#e69e38"/>
      </g>
      <g id="Group_37002" data-name="Group 37002" transform="translate(1132.495 490.275)">
        <rect id="Rectangle_7368" data-name="Rectangle 7368" width="5.043" height="5.043" transform="translate(5.043)" fill="#e69e38"/>
        <rect id="Rectangle_7369" data-name="Rectangle 7369" width="5.043" height="5.043" transform="translate(10.085)" fill="#dc712c"/>
        <rect id="Rectangle_7370" data-name="Rectangle 7370" width="5.043" height="5.043" transform="translate(0 5.043)" fill="#e69e38"/>
        <rect id="Rectangle_7371" data-name="Rectangle 7371" width="5.043" height="5.043" transform="translate(5.043 5.043)" fill="#fcee50"/>
        <rect id="Rectangle_7372" data-name="Rectangle 7372" width="5.043" height="5.043" transform="translate(10.085 5.043)" fill="#e69e38"/>
        <rect id="Rectangle_7373" data-name="Rectangle 7373" width="5.042" height="5.043" transform="translate(15.128 5.043)" fill="#fcee50"/>
        <rect id="Rectangle_7374" data-name="Rectangle 7374" width="5.043" height="5.043" transform="translate(0 10.086)" fill="#fcee50"/>
        <rect id="Rectangle_7375" data-name="Rectangle 7375" width="5.043" height="5.043" transform="translate(5.043 10.086)" fill="#dc712c"/>
        <rect id="Rectangle_7376" data-name="Rectangle 7376" width="5.043" height="5.043" transform="translate(10.085 10.086)" fill="#fcee50"/>
        <rect id="Rectangle_7377" data-name="Rectangle 7377" width="5.042" height="5.043" transform="translate(15.128 10.086)" fill="#e69e38"/>
        <rect id="Rectangle_7378" data-name="Rectangle 7378" width="5.043" height="5.043" transform="translate(5.043 15.129)" fill="#fcee50"/>
        <rect id="Rectangle_7379" data-name="Rectangle 7379" width="5.043" height="5.043" transform="translate(10.085 15.129)" fill="#e69e38"/>
      </g>
      <g id="Group_37003" data-name="Group 37003" transform="translate(1170.544 58.333)">
        <rect id="Rectangle_7380" data-name="Rectangle 7380" width="5.043" height="5.042" transform="matrix(0.003, -1, 1, 0.003, 5.07, 5.043)" fill="#e69e38"/>
        <rect id="Rectangle_7381" data-name="Rectangle 7381" width="5.043" height="5.043" transform="translate(10.112 5.056) rotate(-89.848)" fill="#dc712c"/>
        <rect id="Rectangle_7382" data-name="Rectangle 7382" width="5.043" height="5.043" transform="translate(0.013 10.072) rotate(-89.848)" fill="#e69e38"/>
        <rect id="Rectangle_7383" data-name="Rectangle 7383" width="5.043" height="5.042" transform="matrix(0.003, -1, 1, 0.003, 5.056, 10.086)" fill="#fcee50"/>
        <rect id="Rectangle_7384" data-name="Rectangle 7384" width="5.043" height="5.043" transform="translate(10.099 10.099) rotate(-89.848)" fill="#e69e38"/>
        <rect id="Rectangle_7385" data-name="Rectangle 7385" width="5.043" height="5.042" transform="translate(15.141 10.113) rotate(-89.848)" fill="#fcee50"/>
        <rect id="Rectangle_7386" data-name="Rectangle 7386" width="5.043" height="5.043" transform="translate(0 15.115) rotate(-89.848)" fill="#fcee50"/>
        <rect id="Rectangle_7387" data-name="Rectangle 7387" width="5.043" height="5.042" transform="translate(5.043 15.129) rotate(-89.848)" fill="#dc712c"/>
        <rect id="Rectangle_7388" data-name="Rectangle 7388" width="5.043" height="5.043" transform="translate(10.085 15.142) rotate(-89.848)" fill="#fcee50"/>
        <rect id="Rectangle_7389" data-name="Rectangle 7389" width="5.043" height="5.042" transform="matrix(0.003, -1, 1, 0.003, 15.128, 15.155)" fill="#e69e38"/>
        <rect id="Rectangle_7390" data-name="Rectangle 7390" width="5.043" height="5.042" transform="matrix(0.003, -1, 1, 0.003, 5.029, 20.172)" fill="#fcee50"/>
        <rect id="Rectangle_7391" data-name="Rectangle 7391" width="5.043" height="5.043" transform="translate(10.072 20.185) rotate(-89.848)" fill="#e69e38"/>
      </g>
      <g id="Group_37004" data-name="Group 37004" transform="translate(645.825 325.64)">
        <rect id="Rectangle_7392" data-name="Rectangle 7392" width="8.423" height="8.424" transform="translate(8.423 8.424)" fill="#bcc1de"/>
        <rect id="Rectangle_7393" data-name="Rectangle 7393" width="8.423" height="8.424" fill="#bcc1de"/>
        <rect id="Rectangle_7394" data-name="Rectangle 7394" width="8.423" height="8.424" transform="translate(8.423)" fill="#bcc1de"/>
      </g>
      <rect id="Rectangle_7395" data-name="Rectangle 7395" width="5.663" height="5.663" transform="translate(807.1 222.057)" fill="#fff"/>
      <rect id="Rectangle_7396" data-name="Rectangle 7396" width="5.663" height="5.663" transform="translate(812.763 227.721)" fill="#fff"/>
      <g id="Group_37005" data-name="Group 37005" transform="translate(62.822 287.046)">
        <rect id="Rectangle_7397" data-name="Rectangle 7397" width="6.747" height="6.747" transform="translate(0 6.747)" fill="#c7c8c9"/>
        <rect id="Rectangle_7398" data-name="Rectangle 7398" width="6.747" height="6.747" fill="#c7c8c9"/>
        <rect id="Rectangle_7399" data-name="Rectangle 7399" width="6.747" height="6.747" transform="translate(6.747)" fill="#c7c8c9"/>
      </g>
      <rect id="Rectangle_7400" data-name="Rectangle 7400" width="8.543" height="8.544" transform="translate(42.725 228.527)" fill="#fff"/>
      <rect id="Rectangle_7401" data-name="Rectangle 7401" width="8.543" height="8.544" transform="translate(560.565 314.335)" fill="#fff"/>
      <rect id="Rectangle_7402" data-name="Rectangle 7402" width="5.663" height="5.663" transform="translate(1160.514 550.956)" fill="#4068a3"/>
      <rect id="Rectangle_7403" data-name="Rectangle 7403" width="5.663" height="5.663" transform="translate(1154.851 556.62)" fill="#4068a3"/>
      <rect id="Rectangle_7404" data-name="Rectangle 7404" width="5.663" height="5.663" transform="translate(1057.197 174.65) rotate(-89.847)" fill="#8a8a8a"/>
      <rect id="Rectangle_7405" data-name="Rectangle 7405" width="5.663" height="5.663" transform="matrix(0.003, -1, 1, 0.003, 1051.519, 180.299)" fill="#8a8a8a"/>
    </g>
  </g>
</svg>
