<svg xmlns="http://www.w3.org/2000/svg" width="1098.698" height="223.868" viewBox="0 0 1098.698 223.868">
  <g id="bg-rank" transform="translate(2803 -302)" opacity="0.06">
    <g id="Group_38309" data-name="Group 38309" transform="translate(-2186.586 302)">
      <path id="Path_50157" data-name="Path 50157" d="M116.161,1173.029H93.777v-22.385h-179.1v201.484h22.384v22.385h179.1Z" transform="translate(85.322 -1150.644)" fill="#1d56a4"/>
      <path id="Path_50161" data-name="Path 50161" d="M10.719,1224.3H-11.649v-67.156H-78.822v179.1h67.173v-67.156H10.719v67.156H77.892v-179.1H10.719Z" transform="translate(90.014 -1145.952)" fill="#fff"/>
      <path id="Path_50167" data-name="Path 50167" d="M17.219,1320.359H62.008v-67.174H17.237v-22.367h44.77v-67.174H17.219V1230.8H-27.533v-67.156H-72.322v156.715h44.789V1253.2H17.219Z" transform="translate(94.706 -1141.26)" fill="#2a3e92"/>
      <g id="Group_38300" data-name="Group 38300" transform="translate(22.384 89.54)">
        <path id="Path_50168" data-name="Path 50168" d="M62.008,1202.664v-.019H-72.322V1292.2h44.789v-67.156H17.219V1292.2H62.008v-67.174H17.237v-22.367Z" transform="translate(72.322 -1202.646)" fill="#144094"/>
        <rect id="Rectangle_20956" data-name="Rectangle 20956" width="44.789" height="22.404" transform="translate(89.541 67.156)" fill="#1b4b9c"/>
        <rect id="Rectangle_20957" data-name="Rectangle 20957" width="44.789" height="22.404" transform="translate(0 67.156)" fill="#1b4b9c"/>
      </g>
    </g>
    <g id="Group_38308" data-name="Group 38308" transform="translate(-1905.785 302)">
      <path id="Path_50156" data-name="Path 50156" d="M100.141,1365.128h22.384v22.385H279.24v-67.172H256.855v-22.385H189.7v-22.369H279.24v-67.172H256.855V1186.03H234.471v-22.384H100.142v22.384H77.757v156.713h22.384Z" transform="translate(-77.757 -1163.645)" fill="#1d56a4"/>
      <path id="Path_50160" data-name="Path 50160" d="M106.642,1349.244H240.971v-44.787H151.43v-89.524H173.8v22.385h67.173V1192.53H218.586v-22.385H106.642v22.385H84.257v134.329h22.385Z" transform="translate(-73.064 -1158.952)" fill="#fff"/>
      <path id="Path_50164" data-name="Path 50164" d="M113.142,1333.359H225.086v-22.4H135.546V1199.048H180.3v22.385h44.789v-22.4H202.7v-22.385H113.142v22.385H90.757v111.945h22.385Z" transform="translate(-68.372 -1154.26)" fill="#2a3e92"/>
      <g id="Group_38301" data-name="Group 38301" transform="translate(22.384 89.54)">
        <path id="Path_50169" data-name="Path 50169" d="M135.546,1215.646H90.757v67.174h22.385v22.385H225.086v-22.4H135.546Z" transform="translate(-90.757 -1215.646)" fill="#144094"/>
        <path id="Path_50170" data-name="Path 50170" d="M113.142,1277.052H225.086v-22.4H90.757v.018h22.385Z" transform="translate(-90.757 -1187.492)" fill="#1b4b9c"/>
      </g>
    </g>
    <g id="Group_38311" data-name="Group 38311" transform="translate(-2803 302)">
      <path id="Path_50159" data-name="Path 50159" d="M-286.6,1387.518V1253.207h44.77v-67.172h-22.384V1163.65h-179.1v67.173h22.384v22.384h22.386v111.927h22.384v22.384Z" transform="translate(443.312 -1163.65)" fill="#1d56a4"/>
      <path id="Path_50162" data-name="Path 50162" d="M-324.868,1349.249V1214.938H-280.1V1170.15H-436.812v44.788h44.77v134.311Z" transform="translate(448.004 -1158.958)" fill="#fff"/>
      <path id="Path_50165" data-name="Path 50165" d="M-295.982,1176.65h-134.33v22.4h44.77v134.311h44.789V1199.054h44.771Z" transform="translate(452.696 -1154.265)" fill="#2a3e92"/>
      <g id="Group_38302" data-name="Group 38302" transform="translate(67.155 89.54)">
        <rect id="Rectangle_20958" data-name="Rectangle 20958" width="44.789" height="89.559" transform="translate(0)" fill="#144094"/>
        <rect id="Rectangle_20959" data-name="Rectangle 20959" width="44.789" height="22.404" transform="translate(0 67.155)" fill="#1b4b9c"/>
      </g>
    </g>
    <g id="Group_38310" data-name="Group 38310" transform="translate(-2528.371 302)">
      <path id="Path_50158" data-name="Path 50158" d="M-37.565,1352.128H-15.18v-44.77H7.206V1173.029H-15.179v-22.385H-283.818v179.1h22.384v22.384h22.384v22.385H-37.565Z" transform="translate(283.818 -1150.644)" fill="#1d56a4"/>
      <path id="Path_50163" data-name="Path 50163" d="M-143.007,1336.244h67.173v-22.385h22.385v-44.771h22.385V1157.144H-98.236v89.541H-120.6v-89.541h-67.173V1269.07h-22.367V1157.144h-67.173v156.714h22.385v22.385h89.559v-22.385h22.367Z" transform="translate(288.51 -1145.952)" fill="#fff"/>
      <path id="Path_50166" data-name="Path 50166" d="M-136.507,1320.359h44.789v-22.385h22.385V1253.2h22.385v-89.559H-91.736v89.54h-22.385v44.771h-22.367V1163.644h-44.789V1275.57h-22.385v22.385h-22.367V1163.644h-44.789v134.329h22.385v22.385h67.175v-22.385h44.751Z" transform="translate(293.202 -1141.26)" fill="#2a3e92"/>
      <g id="Group_38303" data-name="Group 38303" transform="translate(22.384 89.54)">
        <path id="Path_50171" data-name="Path 50171" d="M-91.736,1202.646v22.385h-22.385V1269.8h-22.367v-67.156h-44.789v44.771h-22.385V1269.8h-22.367v-67.156h-44.789v67.174h22.385V1292.2h67.175V1269.82h44.751V1292.2h44.789V1269.82h22.385v-44.771h22.385v-22.4Z" transform="translate(270.818 -1202.646)" fill="#144094"/>
        <path id="Path_50172" data-name="Path 50172" d="M-136.507,1264.051h44.789v-22.385h22.385v-.019H-270.818v.019h22.385v22.385h67.175v-22.385h44.751Z" transform="translate(270.818 -1174.491)" fill="#1b4b9c"/>
      </g>
    </g>
  </g>
</svg>
