<svg xmlns="http://www.w3.org/2000/svg" width="60" height="56" viewBox="0 0 60 56">
  <g id="Group_38281" data-name="Group 38281" transform="translate(-302 -246)">
    <path id="Path_50083" data-name="Path 50083" d="M318,298h-4V250h4v-4H306v4h-4v48h4v4h12Z" fill="#bf8426"/>
    <path id="Union_75" data-name="Union 75" d="M354,298V254H318v-4h40v48Zm-16-8v-4h-4v4h-4v-4h-4v-4h16v-4H326V266h4v-4h4v4h4v-4h4v4h4v4H330v4h16v12h-4v4Z" fill="#e3a12e"/>
    <path id="Union_74" data-name="Union 74" d="M350,302v-4h-4V254h8v44h4v4Zm-32,0v-4h-4V250h4v4h20v12h-4v-4h-4v4h-4v12h12v4H326v4h4v4h4v-4h4v12h4v4Zm40-4V250h-8v-4h8v4h4v48Zm-28-24v-4h8v4Zm-12-24v-4h24v4Z" fill="#ffee79"/>
    <path id="Union_76" data-name="Union 76" d="M342,302v-4h-4v-8h4v-4h4v12h4v4Zm-4-20v-4h4v4Zm0-8v-4h8v4Zm4-8v-4h-4v-8h8v12Zm0-16v-4h8v4Z" fill="#f7eeb0"/>
  </g>
</svg>
