<svg xmlns="http://www.w3.org/2000/svg" width="44" height="26" viewBox="0 0 44 26">
  <g id="crown_" data-name="crown " transform="translate(-320 -201)">
    <rect id="Rectangle_20960" data-name="Rectangle 20960" width="18.526" height="2.364" transform="translate(322.316 219.909)" fill="#d99a36"/>
    <rect id="Rectangle_20961" data-name="Rectangle 20961" width="18.526" height="2.364" transform="translate(322.316 215.182)" fill="#d99a36"/>
    <rect id="Rectangle_20962" data-name="Rectangle 20962" width="2.316" height="4.727" transform="translate(320 222.273)" fill="#e8bc48"/>
    <rect id="Rectangle_20963" data-name="Rectangle 20963" width="13.895" height="4.727" transform="translate(326.947 222.273)" fill="#e8bc48"/>
    <rect id="Rectangle_20964" data-name="Rectangle 20964" width="20.842" height="2.364" transform="translate(340.842 219.909)" fill="#e8bc48"/>
    <rect id="Rectangle_20965" data-name="Rectangle 20965" width="13.895" height="2.364" transform="translate(326.947 217.545)" fill="#e8bc48"/>
    <rect id="Rectangle_20966" data-name="Rectangle 20966" width="2.316" height="2.364" transform="translate(320 217.545)" fill="#e8bc48"/>
    <rect id="Rectangle_20967" data-name="Rectangle 20967" width="20.842" height="2.364" transform="translate(340.842 215.182)" fill="#e8bc48"/>
    <rect id="Rectangle_20968" data-name="Rectangle 20968" width="2.316" height="14.182" transform="translate(320 201)" fill="#e8bc48"/>
    <path id="Path_50173" data-name="Path 50173" d="M351.472,206.859h-2.316v2.364H346.84v2.364h-2.316v4.727h-4.632v-4.727h-2.316v7.091h13.895Z" transform="translate(-10.63 -3.495)" fill="#e8bc48"/>
    <rect id="Rectangle_20969" data-name="Rectangle 20969" width="9.263" height="4.727" transform="translate(354.737 222.273)" fill="#fff268"/>
    <rect id="Rectangle_20970" data-name="Rectangle 20970" width="11.579" height="4.727" transform="translate(340.842 222.273)" fill="#fff268"/>
    <rect id="Rectangle_20971" data-name="Rectangle 20971" width="4.632" height="4.727" transform="translate(322.316 222.273)" fill="#fff268"/>
    <rect id="Rectangle_20972" data-name="Rectangle 20972" width="9.263" height="2.364" transform="translate(354.737 217.545)" fill="#fff268"/>
    <rect id="Rectangle_20973" data-name="Rectangle 20973" width="11.579" height="2.364" transform="translate(340.842 217.545)" fill="#fff268"/>
    <rect id="Rectangle_20974" data-name="Rectangle 20974" width="4.632" height="2.364" transform="translate(322.316 217.545)" fill="#fff268"/>
    <path id="Path_50174" data-name="Path 50174" d="M417.148,215.182V201h-2.316v2.364h-2.316v2.364H410.2v2.364h-2.316v7.091Z" transform="translate(-53.148 0)" fill="#fff268"/>
    <path id="Path_50175" data-name="Path 50175" d="M384.31,215.182v-2.364h-2.316v-4.727h-2.316v-2.364h-2.316v-2.364h-2.316V201h-2.316v14.182Z" transform="translate(-31.889 0)" fill="#fff268"/>
    <path id="Path_50176" data-name="Path 50176" d="M330.491,218.677v-9.455h-2.316v-2.364h-2.316v11.818Z" transform="translate(-3.543 -3.495)" fill="#fff268"/>
    <rect id="Rectangle_20975" data-name="Rectangle 20975" width="2.316" height="4.727" transform="translate(352.421 222.273)" fill="#caff94"/>
    <rect id="Rectangle_20976" data-name="Rectangle 20976" width="2.316" height="2.364" transform="translate(352.421 217.545)" fill="#caff94"/>
    <rect id="Rectangle_20977" data-name="Rectangle 20977" width="2.316" height="2.364" transform="translate(352.421 212.818)" fill="#caff94"/>
  </g>
</svg>
