<svg xmlns="http://www.w3.org/2000/svg" width="25" height="24" viewBox="0 0 25 24">
  <g id="diamond" transform="translate(1425.5 339)">
    <g id="diamond-2" data-name="diamond" transform="translate(-1547.001 -890)">
      <path id="Union_71" data-name="Union 71" d="M19.428,7.686v-1.1H18.286V2.2H17.143V1.1H13.714V0h3.428V1.1h1.143V2.2h1.143v1.1h1.143v1.1h1.143v1.1h1.143v1.1H24v1.1ZM0,7.686v-1.1H6.857V2.2H8v1.1H9.143v1.1h1.143v1.1h1.143v1.1h1.143V5.49h1.143v1.1h3.428v1.1Zm13.714-2.2v-1.1h1.143v1.1ZM16,3.294V2.2h1.143v1.1ZM6.857,1.1V0h3.429V1.1Z" transform="translate(122.001 554)" fill="#8ae2e0" stroke="rgba(0,0,0,0)" stroke-width="1"/>
      <rect id="Rectangle_13627" data-name="Rectangle 13627" width="2.286" height="1.098" transform="translate(139.144 560.588)" fill="#ecf0f1"/>
      <rect id="Rectangle_13628" data-name="Rectangle 13628" width="1.143" height="1.098" transform="translate(136.858 557.294)" fill="#ecf0f1"/>
      <rect id="Rectangle_13629" data-name="Rectangle 13629" width="3.429" height="1.098" transform="translate(132.287 554)" fill="#ecf0f1"/>
      <rect id="Rectangle_13630" data-name="Rectangle 13630" width="1.143" height="1.098" transform="translate(134.572 570.47)" fill="#00bcd1"/>
      <rect id="Rectangle_13631" data-name="Rectangle 13631" width="1.143" height="1.098" transform="translate(135.715 569.372)" fill="#00bcd1"/>
      <rect id="Rectangle_13632" data-name="Rectangle 13632" width="1.143" height="1.098" transform="translate(136.858 568.274)" fill="#00bcd1"/>
      <path id="Union_68" data-name="Union 68" d="M8,15.373v-1.1H6.857v-1.1H5.714v-1.1H4.571v-1.1H9.143V6.588h1.143v1.1h1.143v1.1h1.143v1.1h1.143V6.588h6.857v1.1H19.429v1.1H18.286v1.1H17.143v1.1H16v1.1H14.857v1.1H13.714v-1.1H9.143v3.294ZM3.429,10.98V6.588H8v1.1H6.857v1.1H5.714v1.1H4.571v1.1Zm8-5.49v-1.1h1.143v-1.1h1.143V2.2h1.143V1.1H16V5.49Zm-2.286,0V0h5.714V1.1H13.714V2.2H12.571v1.1H11.429v1.1H10.286v1.1ZM0,5.49v-1.1H1.143v-1.1H2.286V2.2H3.429V1.1H4.571V5.49Z" transform="translate(124.287 555.098)" fill="#00bcd1" stroke="rgba(0,0,0,0)" stroke-width="1"/>
      <path id="Union_69" data-name="Union 69" d="M10.286,17.569v-1.1H9.143v-1.1h1.143V12.078h4.571v1.1H13.714v1.1H12.571v1.1H11.429v2.2ZM8,15.372v-1.1H6.857v-1.1H5.714v-1.1H4.571v-1.1H3.429v-1.1H2.286v-1.1H1.143v-1.1H0v-1.1H4.571V10.98H5.714v1.1H6.857v1.1H8v1.1H9.143v1.1ZM5.714,10.98v-1.1H6.857v-1.1H8v-1.1H9.143v-1.1h1.143V10.98Zm8-1.1v-1.1H12.571v-1.1H11.429v-1.1h3.429V9.882ZM0,5.49v-1.1H1.143v1.1Zm9.143-1.1v-1.1H8V2.2H6.857V1.1H4.571V0h5.714V4.392Zm-8,0v-1.1H2.286v1.1Zm1.143-1.1V2.2H3.429v1.1ZM3.429,2.2V1.1H4.571V2.2Z" transform="translate(123.144 555.098)" fill="#8ae2e0" stroke="rgba(0,0,0,0)" stroke-width="1"/>
    </g>
    <g id="Rectangle_25450" data-name="Rectangle 25450" transform="translate(-1425 -339)" fill="#fff" stroke="#707070" stroke-width="1" opacity="0">
      <rect width="24" height="24" stroke="none"/>
      <rect x="0.5" y="0.5" width="23" height="23" fill="none"/>
    </g>
  </g>
</svg>
