<svg xmlns="http://www.w3.org/2000/svg" width="216.1" height="56.1" viewBox="0 0 216.1 56.1">
  <g id="gift-title" transform="translate(-574.95 -2023.95)">
    <g id="gift-title-2" data-name="gift-title" transform="translate(522 443)">
      <rect id="Rectangle_8249" data-name="Rectangle 8249" width="8" height="8" transform="translate(109 1589)" fill="#2a68af" stroke="#5d94d3" stroke-width="0.1"/>
      <rect id="Rectangle_8257" data-name="Rectangle 8257" width="8" height="8" transform="translate(117 1589)" fill="#2a68af" stroke="#5d94d3" stroke-width="0.1"/>
      <rect id="Rectangle_8269" data-name="Rectangle 8269" width="8" height="8" transform="translate(125 1589)" fill="#2a68af" stroke="#5d94d3" stroke-width="0.1"/>
      <rect id="Rectangle_8470" data-name="Rectangle 8470" width="8" height="8" transform="translate(157 1589)" fill="#2a68af" stroke="#5d94d3" stroke-width="0.1"/>
      <rect id="Rectangle_8498" data-name="Rectangle 8498" width="8" height="8" transform="translate(189 1589)" fill="#2a68af" stroke="#5d94d3" stroke-width="0.1"/>
      <rect id="Rectangle_8526" data-name="Rectangle 8526" width="8" height="8" transform="translate(221 1589)" fill="#2a68af" stroke="#5d94d3" stroke-width="0.1"/>
      <rect id="Rectangle_8288" data-name="Rectangle 8288" width="8" height="8" transform="translate(141 1589)" fill="#2a68af" stroke="#5d94d3" stroke-width="0.1"/>
      <rect id="Rectangle_8456" data-name="Rectangle 8456" width="8" height="8" transform="translate(173 1589)" fill="#2a68af" stroke="#5d94d3" stroke-width="0.1"/>
      <rect id="Rectangle_8484" data-name="Rectangle 8484" width="8" height="8" transform="translate(205 1589)" fill="#2a68af" stroke="#5d94d3" stroke-width="0.1"/>
      <rect id="Rectangle_8512" data-name="Rectangle 8512" width="8" height="8" transform="translate(237 1589)" fill="#2a68af" stroke="#5d94d3" stroke-width="0.1"/>
      <rect id="Rectangle_8281" data-name="Rectangle 8281" width="8" height="8" transform="translate(133 1589)" fill="#2a68af" stroke="#5d94d3" stroke-width="0.1"/>
      <rect id="Rectangle_8463" data-name="Rectangle 8463" width="8" height="8" transform="translate(165 1589)" fill="#2a68af" stroke="#5d94d3" stroke-width="0.1"/>
      <rect id="Rectangle_8491" data-name="Rectangle 8491" width="8" height="8" transform="translate(197 1589)" fill="#2a68af" stroke="#5d94d3" stroke-width="0.1"/>
      <rect id="Rectangle_8519" data-name="Rectangle 8519" width="8" height="8" transform="translate(229 1589)" fill="#2a68af" stroke="#5d94d3" stroke-width="0.1"/>
      <rect id="Rectangle_8285" data-name="Rectangle 8285" width="8" height="8" transform="translate(149 1589)" fill="#2a68af" stroke="#5d94d3" stroke-width="0.1"/>
      <rect id="Rectangle_8449" data-name="Rectangle 8449" width="8" height="8" transform="translate(181 1589)" fill="#2a68af" stroke="#5d94d3" stroke-width="0.1"/>
      <rect id="Rectangle_8477" data-name="Rectangle 8477" width="8" height="8" transform="translate(213 1589)" fill="#2a68af" stroke="#5d94d3" stroke-width="0.1"/>
      <rect id="Rectangle_8505" data-name="Rectangle 8505" width="8" height="8" transform="translate(245 1589)" fill="#2a68af" stroke="#5d94d3" stroke-width="0.1"/>
      <rect id="Rectangle_8533" data-name="Rectangle 8533" width="8" height="8" transform="translate(253 1589)" fill="#2a68af" stroke="#5d94d3" stroke-width="0.1"/>
      <rect id="Rectangle_8251" data-name="Rectangle 8251" width="8" height="8" transform="translate(101 1589)" fill="#2a68af" stroke="#5d94d3" stroke-width="0.1"/>
      <rect id="Rectangle_8253" data-name="Rectangle 8253" width="8" height="8" transform="translate(93 1589)" fill="#2a68af" stroke="#5d94d3" stroke-width="0.1"/>
      <rect id="Rectangle_8255" data-name="Rectangle 8255" width="8" height="8" transform="translate(85 1589)" fill="#2a68af" stroke="#5d94d3" stroke-width="0.1"/>
      <rect id="Rectangle_8265" data-name="Rectangle 8265" width="8" height="8" transform="translate(77 1589)" fill="#2a68af" stroke="#5d94d3" stroke-width="0.1"/>
      <rect id="Rectangle_8279" data-name="Rectangle 8279" width="8" height="8" transform="translate(69 1589)" fill="#2a68af" stroke="#5d94d3" stroke-width="0.1"/>
      <rect id="Rectangle_8541" data-name="Rectangle 8541" width="8" height="8" transform="translate(61 1589)" fill="#2a68af" stroke="#5d94d3" stroke-width="0.1"/>
      <rect id="Rectangle_8241" data-name="Rectangle 8241" width="8" height="8" transform="translate(85 1581)" fill="#2a68af" stroke="#5d94d3" stroke-width="0.1"/>
      <rect id="Rectangle_8266" data-name="Rectangle 8266" width="8" height="8" transform="translate(77 1581)" fill="#2a68af" stroke="#5d94d3" stroke-width="0.1"/>
      <rect id="Rectangle_8280" data-name="Rectangle 8280" width="8" height="8" transform="translate(69 1581)" fill="#2a68af" stroke="#5d94d3" stroke-width="0.1"/>
      <rect id="Rectangle_8242" data-name="Rectangle 8242" width="8" height="8" transform="translate(93 1581)" fill="#2a68af" stroke="#5d94d3" stroke-width="0.1"/>
      <rect id="Rectangle_8244" data-name="Rectangle 8244" width="8" height="8" transform="translate(101 1581)" fill="#2a68af" stroke="#5d94d3" stroke-width="0.1"/>
      <rect id="Rectangle_8246" data-name="Rectangle 8246" width="8" height="8" transform="translate(109 1581)" fill="#2a68af" stroke="#5d94d3" stroke-width="0.1"/>
      <rect id="Rectangle_8258" data-name="Rectangle 8258" width="8" height="8" transform="translate(117 1581)" fill="#2a68af" stroke="#5d94d3" stroke-width="0.1"/>
      <rect id="Rectangle_8270" data-name="Rectangle 8270" width="8" height="8" transform="translate(125 1581)" fill="#2a68af" stroke="#5d94d3" stroke-width="0.1"/>
      <rect id="Rectangle_8471" data-name="Rectangle 8471" width="8" height="8" transform="translate(157 1581)" fill="#2a68af" stroke="#5d94d3" stroke-width="0.1"/>
      <rect id="Rectangle_8499" data-name="Rectangle 8499" width="8" height="8" transform="translate(189 1581)" fill="#2a68af" stroke="#5d94d3" stroke-width="0.1"/>
      <rect id="Rectangle_8527" data-name="Rectangle 8527" width="8" height="8" transform="translate(221 1581)" fill="#2a68af" stroke="#5d94d3" stroke-width="0.1"/>
      <rect id="Rectangle_8289" data-name="Rectangle 8289" width="8" height="8" transform="translate(141 1581)" fill="#2a68af" stroke="#5d94d3" stroke-width="0.1"/>
      <rect id="Rectangle_8457" data-name="Rectangle 8457" width="8" height="8" transform="translate(173 1581)" fill="#2a68af" stroke="#5d94d3" stroke-width="0.1"/>
      <rect id="Rectangle_8485" data-name="Rectangle 8485" width="8" height="8" transform="translate(205 1581)" fill="#2a68af" stroke="#5d94d3" stroke-width="0.1"/>
      <rect id="Rectangle_8513" data-name="Rectangle 8513" width="8" height="8" transform="translate(237 1581)" fill="#2a68af" stroke="#5d94d3" stroke-width="0.1"/>
      <rect id="Rectangle_8282" data-name="Rectangle 8282" width="8" height="8" transform="translate(133 1581)" fill="#2a68af" stroke="#5d94d3" stroke-width="0.1"/>
      <rect id="Rectangle_8464" data-name="Rectangle 8464" width="8" height="8" transform="translate(165 1581)" fill="#2a68af" stroke="#5d94d3" stroke-width="0.1"/>
      <rect id="Rectangle_8492" data-name="Rectangle 8492" width="8" height="8" transform="translate(197 1581)" fill="#2a68af" stroke="#5d94d3" stroke-width="0.1"/>
      <rect id="Rectangle_8520" data-name="Rectangle 8520" width="8" height="8" transform="translate(229 1581)" fill="#2a68af" stroke="#5d94d3" stroke-width="0.1"/>
      <rect id="Rectangle_8286" data-name="Rectangle 8286" width="8" height="8" transform="translate(149 1581)" fill="#2a68af" stroke="#5d94d3" stroke-width="0.1"/>
      <rect id="Rectangle_8450" data-name="Rectangle 8450" width="8" height="8" transform="translate(181 1581)" fill="#2a68af" stroke="#5d94d3" stroke-width="0.1"/>
      <rect id="Rectangle_8478" data-name="Rectangle 8478" width="8" height="8" transform="translate(213 1581)" fill="#2a68af" stroke="#5d94d3" stroke-width="0.1"/>
      <rect id="Rectangle_8506" data-name="Rectangle 8506" width="8" height="8" transform="translate(245 1581)" fill="#2a68af" stroke="#5d94d3" stroke-width="0.1"/>
      <rect id="Rectangle_8248" data-name="Rectangle 8248" width="8" height="8" transform="translate(109 1597)" fill="#2a68af" stroke="#5d94d3" stroke-width="0.1"/>
      <rect id="Rectangle_8291" data-name="Rectangle 8291" width="8" height="8" transform="translate(109 1605)" fill="#2a68af" stroke="#5d94d3" stroke-width="0.1"/>
      <rect id="Rectangle_8438" data-name="Rectangle 8438" width="8" height="8" transform="translate(109 1621)" fill="#2a68af" stroke="#5d94d3" stroke-width="0.1"/>
      <rect id="Rectangle_8416" data-name="Rectangle 8416" width="8" height="8" transform="translate(109 1613)" fill="#2a68af" stroke="#5d94d3" stroke-width="0.1"/>
      <rect id="Rectangle_8427" data-name="Rectangle 8427" width="8" height="8" transform="translate(109 1629)" fill="#2a68af" stroke="#5d94d3" stroke-width="0.1"/>
      <rect id="Rectangle_8259" data-name="Rectangle 8259" width="8" height="8" transform="translate(117 1597)" fill="#2a68af" stroke="#5d94d3" stroke-width="0.1"/>
      <rect id="Rectangle_8292" data-name="Rectangle 8292" width="8" height="8" transform="translate(117 1605)" fill="#2a68af" stroke="#5d94d3" stroke-width="0.1"/>
      <rect id="Rectangle_8439" data-name="Rectangle 8439" width="8" height="8" transform="translate(117 1621)" fill="#2a68af" stroke="#5d94d3" stroke-width="0.1"/>
      <rect id="Rectangle_8417" data-name="Rectangle 8417" width="8" height="8" transform="translate(117 1613)" fill="#2a68af" stroke="#5d94d3" stroke-width="0.1"/>
      <rect id="Rectangle_8428" data-name="Rectangle 8428" width="8" height="8" transform="translate(117 1629)" fill="#2a68af" stroke="#5d94d3" stroke-width="0.1"/>
      <rect id="Rectangle_8271" data-name="Rectangle 8271" width="8" height="8" transform="translate(125 1597)" fill="#2a68af" stroke="#5d94d3" stroke-width="0.1"/>
      <rect id="Rectangle_8472" data-name="Rectangle 8472" width="8" height="8" transform="translate(157 1597)" fill="#2a68af" stroke="#5d94d3" stroke-width="0.1"/>
      <rect id="Rectangle_8500" data-name="Rectangle 8500" width="8" height="8" transform="translate(189 1597)" fill="#2a68af" stroke="#5d94d3" stroke-width="0.1"/>
      <rect id="Rectangle_8528" data-name="Rectangle 8528" width="8" height="8" transform="translate(221 1597)" fill="#2a68af" stroke="#5d94d3" stroke-width="0.1"/>
      <rect id="Rectangle_8293" data-name="Rectangle 8293" width="8" height="8" transform="translate(125 1605)" fill="#2a68af" stroke="#5d94d3" stroke-width="0.1"/>
      <rect id="Rectangle_8473" data-name="Rectangle 8473" width="8" height="8" transform="translate(157 1605)" fill="#2a68af" stroke="#5d94d3" stroke-width="0.1"/>
      <rect id="Rectangle_8501" data-name="Rectangle 8501" width="8" height="8" transform="translate(189 1605)" fill="#2a68af" stroke="#5d94d3" stroke-width="0.1"/>
      <rect id="Rectangle_8529" data-name="Rectangle 8529" width="8" height="8" transform="translate(221 1605)" fill="#2a68af" stroke="#5d94d3" stroke-width="0.1"/>
      <rect id="Rectangle_8440" data-name="Rectangle 8440" width="8" height="8" transform="translate(125 1621)" fill="#2a68af" stroke="#5d94d3" stroke-width="0.1"/>
      <rect id="Rectangle_8474" data-name="Rectangle 8474" width="8" height="8" transform="translate(157 1621)" fill="#2a68af" stroke="#5d94d3" stroke-width="0.1"/>
      <rect id="Rectangle_8502" data-name="Rectangle 8502" width="8" height="8" transform="translate(189 1621)" fill="#2a68af" stroke="#5d94d3" stroke-width="0.1"/>
      <rect id="Rectangle_8530" data-name="Rectangle 8530" width="8" height="8" transform="translate(221 1621)" fill="#2a68af" stroke="#5d94d3" stroke-width="0.1"/>
      <rect id="Rectangle_8418" data-name="Rectangle 8418" width="8" height="8" transform="translate(125 1613)" fill="#2a68af" stroke="#5d94d3" stroke-width="0.1"/>
      <rect id="Rectangle_8475" data-name="Rectangle 8475" width="8" height="8" transform="translate(157 1613)" fill="#2a68af" stroke="#5d94d3" stroke-width="0.1"/>
      <rect id="Rectangle_8503" data-name="Rectangle 8503" width="8" height="8" transform="translate(189 1613)" fill="#2a68af" stroke="#5d94d3" stroke-width="0.1"/>
      <rect id="Rectangle_8531" data-name="Rectangle 8531" width="8" height="8" transform="translate(221 1613)" fill="#2a68af" stroke="#5d94d3" stroke-width="0.1"/>
      <rect id="Rectangle_8429" data-name="Rectangle 8429" width="8" height="8" transform="translate(125 1629)" fill="#2a68af" stroke="#5d94d3" stroke-width="0.1"/>
      <rect id="Rectangle_8476" data-name="Rectangle 8476" width="8" height="8" transform="translate(157 1629)" fill="#2a68af" stroke="#5d94d3" stroke-width="0.1"/>
      <rect id="Rectangle_8504" data-name="Rectangle 8504" width="8" height="8" transform="translate(189 1629)" fill="#2a68af" stroke="#5d94d3" stroke-width="0.1"/>
      <rect id="Rectangle_8532" data-name="Rectangle 8532" width="8" height="8" transform="translate(221 1629)" fill="#2a68af" stroke="#5d94d3" stroke-width="0.1"/>
      <rect id="Rectangle_8290" data-name="Rectangle 8290" width="8" height="8" transform="translate(141 1597)" fill="#2a68af" stroke="#5d94d3" stroke-width="0.1"/>
      <rect id="Rectangle_8458" data-name="Rectangle 8458" width="8" height="8" transform="translate(173 1597)" fill="#2a68af" stroke="#5d94d3" stroke-width="0.1"/>
      <rect id="Rectangle_8486" data-name="Rectangle 8486" width="8" height="8" transform="translate(205 1597)" fill="#2a68af" stroke="#5d94d3" stroke-width="0.1"/>
      <rect id="Rectangle_8514" data-name="Rectangle 8514" width="8" height="8" transform="translate(237 1597)" fill="#2a68af" stroke="#5d94d3" stroke-width="0.1"/>
      <rect id="Rectangle_8294" data-name="Rectangle 8294" width="8" height="8" transform="translate(141 1605)" fill="#2a68af" stroke="#5d94d3" stroke-width="0.1"/>
      <rect id="Rectangle_8459" data-name="Rectangle 8459" width="8" height="8" transform="translate(173 1605)" fill="#2a68af" stroke="#5d94d3" stroke-width="0.1"/>
      <rect id="Rectangle_8487" data-name="Rectangle 8487" width="8" height="8" transform="translate(205 1605)" fill="#2a68af" stroke="#5d94d3" stroke-width="0.1"/>
      <rect id="Rectangle_8515" data-name="Rectangle 8515" width="8" height="8" transform="translate(237 1605)" fill="#2a68af" stroke="#5d94d3" stroke-width="0.1"/>
      <rect id="Rectangle_8441" data-name="Rectangle 8441" width="8" height="8" transform="translate(141 1621)" fill="#2a68af" stroke="#5d94d3" stroke-width="0.1"/>
      <rect id="Rectangle_8460" data-name="Rectangle 8460" width="8" height="8" transform="translate(173 1621)" fill="#2a68af" stroke="#5d94d3" stroke-width="0.1"/>
      <rect id="Rectangle_8488" data-name="Rectangle 8488" width="8" height="8" transform="translate(205 1621)" fill="#2a68af" stroke="#5d94d3" stroke-width="0.1"/>
      <rect id="Rectangle_8516" data-name="Rectangle 8516" width="8" height="8" transform="translate(237 1621)" fill="#2a68af" stroke="#5d94d3" stroke-width="0.1"/>
      <rect id="Rectangle_8419" data-name="Rectangle 8419" width="8" height="8" transform="translate(141 1613)" fill="#2a68af" stroke="#5d94d3" stroke-width="0.1"/>
      <rect id="Rectangle_8461" data-name="Rectangle 8461" width="8" height="8" transform="translate(173 1613)" fill="#2a68af" stroke="#5d94d3" stroke-width="0.1"/>
      <rect id="Rectangle_8489" data-name="Rectangle 8489" width="8" height="8" transform="translate(205 1613)" fill="#2a68af" stroke="#5d94d3" stroke-width="0.1"/>
      <rect id="Rectangle_8517" data-name="Rectangle 8517" width="8" height="8" transform="translate(237 1613)" fill="#2a68af" stroke="#5d94d3" stroke-width="0.1"/>
      <rect id="Rectangle_8430" data-name="Rectangle 8430" width="8" height="8" transform="translate(141 1629)" fill="#2a68af" stroke="#5d94d3" stroke-width="0.1"/>
      <rect id="Rectangle_8462" data-name="Rectangle 8462" width="8" height="8" transform="translate(173 1629)" fill="#2a68af" stroke="#5d94d3" stroke-width="0.1"/>
      <rect id="Rectangle_8490" data-name="Rectangle 8490" width="8" height="8" transform="translate(205 1629)" fill="#2a68af" stroke="#5d94d3" stroke-width="0.1"/>
      <rect id="Rectangle_8518" data-name="Rectangle 8518" width="8" height="8" transform="translate(237 1629)" fill="#2a68af" stroke="#5d94d3" stroke-width="0.1"/>
      <rect id="Rectangle_8284" data-name="Rectangle 8284" width="8" height="8" transform="translate(133 1597)" fill="#2a68af" stroke="#5d94d3" stroke-width="0.1"/>
      <rect id="Rectangle_8465" data-name="Rectangle 8465" width="8" height="8" transform="translate(165 1597)" fill="#2a68af" stroke="#5d94d3" stroke-width="0.1"/>
      <rect id="Rectangle_8493" data-name="Rectangle 8493" width="8" height="8" transform="translate(197 1597)" fill="#2a68af" stroke="#5d94d3" stroke-width="0.1"/>
      <rect id="Rectangle_8521" data-name="Rectangle 8521" width="8" height="8" transform="translate(229 1597)" fill="#2a68af" stroke="#5d94d3" stroke-width="0.1"/>
      <rect id="Rectangle_8295" data-name="Rectangle 8295" width="8" height="8" transform="translate(133 1605)" fill="#2a68af" stroke="#5d94d3" stroke-width="0.1"/>
      <rect id="Rectangle_8466" data-name="Rectangle 8466" width="8" height="8" transform="translate(165 1605)" fill="#2a68af" stroke="#5d94d3" stroke-width="0.1"/>
      <rect id="Rectangle_8494" data-name="Rectangle 8494" width="8" height="8" transform="translate(197 1605)" fill="#2a68af" stroke="#5d94d3" stroke-width="0.1"/>
      <rect id="Rectangle_8522" data-name="Rectangle 8522" width="8" height="8" transform="translate(229 1605)" fill="#2a68af" stroke="#5d94d3" stroke-width="0.1"/>
      <rect id="Rectangle_8442" data-name="Rectangle 8442" width="8" height="8" transform="translate(133 1621)" fill="#2a68af" stroke="#5d94d3" stroke-width="0.1"/>
      <rect id="Rectangle_8467" data-name="Rectangle 8467" width="8" height="8" transform="translate(165 1621)" fill="#2a68af" stroke="#5d94d3" stroke-width="0.1"/>
      <rect id="Rectangle_8495" data-name="Rectangle 8495" width="8" height="8" transform="translate(197 1621)" fill="#2a68af" stroke="#5d94d3" stroke-width="0.1"/>
      <rect id="Rectangle_8523" data-name="Rectangle 8523" width="8" height="8" transform="translate(229 1621)" fill="#2a68af" stroke="#5d94d3" stroke-width="0.1"/>
      <rect id="Rectangle_8420" data-name="Rectangle 8420" width="8" height="8" transform="translate(133 1613)" fill="#2a68af" stroke="#5d94d3" stroke-width="0.1"/>
      <rect id="Rectangle_8468" data-name="Rectangle 8468" width="8" height="8" transform="translate(165 1613)" fill="#2a68af" stroke="#5d94d3" stroke-width="0.1"/>
      <rect id="Rectangle_8496" data-name="Rectangle 8496" width="8" height="8" transform="translate(197 1613)" fill="#2a68af" stroke="#5d94d3" stroke-width="0.1"/>
      <rect id="Rectangle_8524" data-name="Rectangle 8524" width="8" height="8" transform="translate(229 1613)" fill="#2a68af" stroke="#5d94d3" stroke-width="0.1"/>
      <rect id="Rectangle_8431" data-name="Rectangle 8431" width="8" height="8" transform="translate(133 1629)" fill="#2a68af" stroke="#5d94d3" stroke-width="0.1"/>
      <rect id="Rectangle_8469" data-name="Rectangle 8469" width="8" height="8" transform="translate(165 1629)" fill="#2a68af" stroke="#5d94d3" stroke-width="0.1"/>
      <rect id="Rectangle_8497" data-name="Rectangle 8497" width="8" height="8" transform="translate(197 1629)" fill="#2a68af" stroke="#5d94d3" stroke-width="0.1"/>
      <rect id="Rectangle_8525" data-name="Rectangle 8525" width="8" height="8" transform="translate(229 1629)" fill="#2a68af" stroke="#5d94d3" stroke-width="0.1"/>
      <rect id="Rectangle_8287" data-name="Rectangle 8287" width="8" height="8" transform="translate(149 1597)" fill="#2a68af" stroke="#5d94d3" stroke-width="0.1"/>
      <rect id="Rectangle_8451" data-name="Rectangle 8451" width="8" height="8" transform="translate(181 1597)" fill="#2a68af" stroke="#5d94d3" stroke-width="0.1"/>
      <rect id="Rectangle_8479" data-name="Rectangle 8479" width="8" height="8" transform="translate(213 1597)" fill="#2a68af" stroke="#5d94d3" stroke-width="0.1"/>
      <rect id="Rectangle_8507" data-name="Rectangle 8507" width="8" height="8" transform="translate(245 1597)" fill="#2a68af" stroke="#5d94d3" stroke-width="0.1"/>
      <rect id="Rectangle_8534" data-name="Rectangle 8534" width="8" height="8" transform="translate(253 1597)" fill="#2a68af" stroke="#5d94d3" stroke-width="0.1"/>
      <rect id="Rectangle_8720" data-name="Rectangle 8720" width="8" height="8" transform="translate(261 1597)" fill="#2a68af" stroke="#5d94d3" stroke-width="0.1"/>
      <rect id="Rectangle_8723" data-name="Rectangle 8723" width="8" height="8" transform="translate(53 1597)" fill="#2a68af" stroke="#5d94d3" stroke-width="0.1"/>
      <rect id="Rectangle_8296" data-name="Rectangle 8296" width="8" height="8" transform="translate(149 1605)" fill="#2a68af" stroke="#5d94d3" stroke-width="0.1"/>
      <rect id="Rectangle_8452" data-name="Rectangle 8452" width="8" height="8" transform="translate(181 1605)" fill="#2a68af" stroke="#5d94d3" stroke-width="0.1"/>
      <rect id="Rectangle_8480" data-name="Rectangle 8480" width="8" height="8" transform="translate(213 1605)" fill="#2a68af" stroke="#5d94d3" stroke-width="0.1"/>
      <rect id="Rectangle_8508" data-name="Rectangle 8508" width="8" height="8" transform="translate(245 1605)" fill="#2a68af" stroke="#5d94d3" stroke-width="0.1"/>
      <rect id="Rectangle_8535" data-name="Rectangle 8535" width="8" height="8" transform="translate(253 1605)" fill="#2a68af" stroke="#5d94d3" stroke-width="0.1"/>
      <rect id="Rectangle_8719" data-name="Rectangle 8719" width="8" height="8" transform="translate(261 1605)" fill="#2a68af" stroke="#5d94d3" stroke-width="0.1"/>
      <rect id="Rectangle_8722" data-name="Rectangle 8722" width="8" height="8" transform="translate(53 1605)" fill="#2a68af" stroke="#5d94d3" stroke-width="0.1"/>
      <rect id="Rectangle_8443" data-name="Rectangle 8443" width="8" height="8" transform="translate(149 1621)" fill="#2a68af" stroke="#5d94d3" stroke-width="0.1"/>
      <rect id="Rectangle_8453" data-name="Rectangle 8453" width="8" height="8" transform="translate(181 1621)" fill="#2a68af" stroke="#5d94d3" stroke-width="0.1"/>
      <rect id="Rectangle_8481" data-name="Rectangle 8481" width="8" height="8" transform="translate(213 1621)" fill="#2a68af" stroke="#5d94d3" stroke-width="0.1"/>
      <rect id="Rectangle_8509" data-name="Rectangle 8509" width="8" height="8" transform="translate(245 1621)" fill="#2a68af" stroke="#5d94d3" stroke-width="0.1"/>
      <rect id="Rectangle_8537" data-name="Rectangle 8537" width="8" height="8" transform="translate(253 1621)" fill="#2a68af" stroke="#5d94d3" stroke-width="0.1"/>
      <rect id="Rectangle_8421" data-name="Rectangle 8421" width="8" height="8" transform="translate(149 1613)" fill="#2a68af" stroke="#5d94d3" stroke-width="0.1"/>
      <rect id="Rectangle_8454" data-name="Rectangle 8454" width="8" height="8" transform="translate(181 1613)" fill="#2a68af" stroke="#5d94d3" stroke-width="0.1"/>
      <rect id="Rectangle_8482" data-name="Rectangle 8482" width="8" height="8" transform="translate(213 1613)" fill="#2a68af" stroke="#5d94d3" stroke-width="0.1"/>
      <rect id="Rectangle_8510" data-name="Rectangle 8510" width="8" height="8" transform="translate(245 1613)" fill="#2a68af" stroke="#5d94d3" stroke-width="0.1"/>
      <rect id="Rectangle_8536" data-name="Rectangle 8536" width="8" height="8" transform="translate(253 1613)" fill="#2a68af" stroke="#5d94d3" stroke-width="0.1"/>
      <rect id="Rectangle_8721" data-name="Rectangle 8721" width="8" height="8" transform="translate(261 1613)" fill="#2a68af" stroke="#5d94d3" stroke-width="0.1"/>
      <rect id="Rectangle_8724" data-name="Rectangle 8724" width="8" height="8" transform="translate(53 1613)" fill="#2a68af" stroke="#5d94d3" stroke-width="0.1"/>
      <rect id="Rectangle_8432" data-name="Rectangle 8432" width="8" height="8" transform="translate(149 1629)" fill="#2a68af" stroke="#5d94d3" stroke-width="0.1"/>
      <rect id="Rectangle_8455" data-name="Rectangle 8455" width="8" height="8" transform="translate(181 1629)" fill="#2a68af" stroke="#5d94d3" stroke-width="0.1"/>
      <rect id="Rectangle_8483" data-name="Rectangle 8483" width="8" height="8" transform="translate(213 1629)" fill="#2a68af" stroke="#5d94d3" stroke-width="0.1"/>
      <rect id="Rectangle_8511" data-name="Rectangle 8511" width="8" height="8" transform="translate(245 1629)" fill="#2a68af" stroke="#5d94d3" stroke-width="0.1"/>
      <rect id="Rectangle_8250" data-name="Rectangle 8250" width="8" height="8" transform="translate(101 1597)" fill="#2a68af" stroke="#5d94d3" stroke-width="0.1"/>
      <rect id="Rectangle_8297" data-name="Rectangle 8297" width="8" height="8" transform="translate(101 1605)" fill="#2a68af" stroke="#5d94d3" stroke-width="0.1"/>
      <rect id="Rectangle_8444" data-name="Rectangle 8444" width="8" height="8" transform="translate(101 1621)" fill="#2a68af" stroke="#5d94d3" stroke-width="0.1"/>
      <rect id="Rectangle_8422" data-name="Rectangle 8422" width="8" height="8" transform="translate(101 1613)" fill="#2a68af" stroke="#5d94d3" stroke-width="0.1"/>
      <rect id="Rectangle_8433" data-name="Rectangle 8433" width="8" height="8" transform="translate(101 1629)" fill="#2a68af" stroke="#5d94d3" stroke-width="0.1"/>
      <rect id="Rectangle_8252" data-name="Rectangle 8252" width="8" height="8" transform="translate(93 1597)" fill="#2a68af" stroke="#5d94d3" stroke-width="0.1"/>
      <rect id="Rectangle_8298" data-name="Rectangle 8298" width="8" height="8" transform="translate(93 1605)" fill="#2a68af" stroke="#5d94d3" stroke-width="0.1"/>
      <rect id="Rectangle_8445" data-name="Rectangle 8445" width="8" height="8" transform="translate(93 1621)" fill="#2a68af" stroke="#5d94d3" stroke-width="0.1"/>
      <rect id="Rectangle_8423" data-name="Rectangle 8423" width="8" height="8" transform="translate(93 1613)" fill="#2a68af" stroke="#5d94d3" stroke-width="0.1"/>
      <rect id="Rectangle_8434" data-name="Rectangle 8434" width="8" height="8" transform="translate(93 1629)" fill="#2a68af" stroke="#5d94d3" stroke-width="0.1"/>
      <rect id="Rectangle_8254" data-name="Rectangle 8254" width="8" height="8" transform="translate(85 1597)" fill="#2a68af" stroke="#5d94d3" stroke-width="0.1"/>
      <rect id="Rectangle_8299" data-name="Rectangle 8299" width="8" height="8" transform="translate(85 1605)" fill="#2a68af" stroke="#5d94d3" stroke-width="0.1"/>
      <rect id="Rectangle_8446" data-name="Rectangle 8446" width="8" height="8" transform="translate(85 1621)" fill="#2a68af" stroke="#5d94d3" stroke-width="0.1"/>
      <rect id="Rectangle_8424" data-name="Rectangle 8424" width="8" height="8" transform="translate(85 1613)" fill="#2a68af" stroke="#5d94d3" stroke-width="0.1"/>
      <rect id="Rectangle_8435" data-name="Rectangle 8435" width="8" height="8" transform="translate(85 1629)" fill="#2a68af" stroke="#5d94d3" stroke-width="0.1"/>
      <rect id="Rectangle_8267" data-name="Rectangle 8267" width="8" height="8" transform="translate(77 1597)" fill="#2a68af" stroke="#5d94d3" stroke-width="0.1"/>
      <rect id="Rectangle_8300" data-name="Rectangle 8300" width="8" height="8" transform="translate(77 1605)" fill="#2a68af" stroke="#5d94d3" stroke-width="0.1"/>
      <rect id="Rectangle_8447" data-name="Rectangle 8447" width="8" height="8" transform="translate(77 1621)" fill="#2a68af" stroke="#5d94d3" stroke-width="0.1"/>
      <rect id="Rectangle_8425" data-name="Rectangle 8425" width="8" height="8" transform="translate(77 1613)" fill="#2a68af" stroke="#5d94d3" stroke-width="0.1"/>
      <rect id="Rectangle_8436" data-name="Rectangle 8436" width="8" height="8" transform="translate(77 1629)" fill="#2a68af" stroke="#5d94d3" stroke-width="0.1"/>
      <rect id="Rectangle_8283" data-name="Rectangle 8283" width="8" height="8" transform="translate(69 1597)" fill="#2a68af" stroke="#5d94d3" stroke-width="0.1"/>
      <rect id="Rectangle_8542" data-name="Rectangle 8542" width="8" height="8" transform="translate(61 1597)" fill="#2a68af" stroke="#5d94d3" stroke-width="0.1"/>
      <rect id="Rectangle_8301" data-name="Rectangle 8301" width="8" height="8" transform="translate(69 1605)" fill="#2a68af" stroke="#5d94d3" stroke-width="0.1"/>
      <rect id="Rectangle_8543" data-name="Rectangle 8543" width="8" height="8" transform="translate(61 1605)" fill="#2a68af" stroke="#5d94d3" stroke-width="0.1"/>
      <rect id="Rectangle_8448" data-name="Rectangle 8448" width="8" height="8" transform="translate(69 1621)" fill="#2a68af" stroke="#5d94d3" stroke-width="0.1"/>
      <rect id="Rectangle_8544" data-name="Rectangle 8544" width="8" height="8" transform="translate(61 1621)" fill="#2a68af" stroke="#5d94d3" stroke-width="0.1"/>
      <rect id="Rectangle_8426" data-name="Rectangle 8426" width="8" height="8" transform="translate(69 1613)" fill="#2a68af" stroke="#5d94d3" stroke-width="0.1"/>
      <rect id="Rectangle_8545" data-name="Rectangle 8545" width="8" height="8" transform="translate(61 1613)" fill="#2a68af" stroke="#5d94d3" stroke-width="0.1"/>
      <rect id="Rectangle_8437" data-name="Rectangle 8437" width="8" height="8" transform="translate(69 1629)" fill="#2a68af" stroke="#5d94d3" stroke-width="0.1"/>
    </g>
    <g id="Group_38242" data-name="Group 38242" transform="translate(0 577)">
      <path id="Each_Package_Include" data-name="Each Package Include" d="M11.112-6.672a9.647,9.647,0,0,1-.384,1.488H1.656V-2.9h7.68a8.948,8.948,0,0,1-.864.768C7.032-1.1,4.7-.312,1.44.264l.984,2.28c3.84-.768,6.5-1.8,8.04-3.12A9.47,9.47,0,0,0,12.384-2.9h9.984v-2.28h-3.6a11.362,11.362,0,0,0-.84-1.344h.7c1.44,0,2.184-.648,2.184-1.92v-1.7H22.92v-1.92H20.808V-13.9H18.48v1.824H12.12c5.376-1.056,8.76-2.736,10.128-5.088v-1.608H16.176a5.18,5.18,0,0,0,.648-.792l-2.208-.264c-.816.96-2.424,1.752-4.824,2.4l1.224,1.584c.864-.312,1.656-.648,2.376-.984a21.823,21.823,0,0,1,2.448,1.776l1.368-.936c-.432-.336-.936-.672-1.512-1.056h4.056q-2.484,2.592-9.576,3.6l.768,1.368H9.864v1.92h3.072l-1.176.744A20.3,20.3,0,0,1,14.04-6.96l1.632-1.152a17.531,17.531,0,0,0-2.016-2.04H18.48v1.176c0,.384-.192.576-.528.576a11.286,11.286,0,0,1-1.512-.12l.36,1.68-1.32.432q.432.576.864,1.224H13.3c.1-.384.168-.792.24-1.224ZM1.7-12.528v1.92h1.56A4.241,4.241,0,0,1,1.608-7.344l1.8,1.368C4.536-6.864,5.184-8.4,5.376-10.608H6.72v4.224H9.072V-19.656H6.72v3.672H4.7v-3.072H2.424v4.944h4.3v1.584Zm9.072-1.416a30.377,30.377,0,0,0,3.408-.936L13.8-16.128c-1.128.312-2.3.576-3.5.816ZM12.888-2.208l-.96,1.872a61.353,61.353,0,0,1,9.792,2.76L22.608.24A64,64,0,0,0,12.888-2.208ZM25.2-17.64v2.448h2.688V-3.7a26.718,26.718,0,0,1-2.808.72l.576,2.352a49.169,49.169,0,0,0,7.392-2.832V-5.832q-1.3.648-2.664,1.224V-15.192h2.424V-17.64Zm9.336,2.28V-2.016H37.3a18.327,18.327,0,0,1-4.68,2.9L33.96,2.64A21.834,21.834,0,0,0,39.168-.816l-1.392-1.2h4.488l-1.3,1.248a24.689,24.689,0,0,1,4.488,3.336L47.064.936A37.644,37.644,0,0,0,42.72-2.016h2.952V-15.36H40.9c.168-.48.312-.96.456-1.464h5.4v-2.208H33.576v2.208h5.3c-.144.48-.288.984-.48,1.464ZM43.3-4.032H36.912v-1.9H43.3ZM36.912-7.848V-9.7H43.3v1.848Zm0-3.768v-1.728H43.3v1.728Zm23.352-4.872h6.96a10.349,10.349,0,0,1-1.152,1.464l1.68,1.368a14.182,14.182,0,0,0,2.064-3.168v-1.728H61.488c.144-.336.264-.672.408-1.056l-2.3-.288a8.432,8.432,0,0,1-3.408,4.2l1.368,1.8A13.3,13.3,0,0,0,60.264-16.488Zm-10.392-2.04v2.112h6v-2.112Zm-.48,4.32v2.136h6.984v-2.136Zm13.176-2.16c-.576,2.16-2.448,3.5-5.616,4.056l.912,1.44H52.008V-.816h4.056a33.76,33.76,0,0,1-6.72,1.56l1.128,1.944A27.639,27.639,0,0,0,58.1.456l-.96-1.272h5.4L61.8.648a50.246,50.246,0,0,1,8.016,2.04L70.632.7A55.4,55.4,0,0,0,63.96-.816h4.056v-9.792a15.425,15.425,0,0,0,1.728.384l1.008-2.088a11.191,11.191,0,0,1-6.36-2.712c.1-.288.192-.6.288-.912Zm-3.048,5.5a7.907,7.907,0,0,0,3.912-2.5,11.29,11.29,0,0,0,3.84,2.5Zm6.048,8.088H54.456V-3.84H65.568ZM54.456-5.424v-.96H65.568v.96Zm0-2.568V-9H65.568v1.008ZM81.816-10.1v2.376h2.568v10.1h2.424v-10.1h2.544V-10.1H86.808V-16.44h2.9v5.448c0,5.88.552,9.744,1.632,11.568a2.788,2.788,0,0,0,2.328,1.656,1.08,1.08,0,0,0,.936-.7,13.332,13.332,0,0,0,.672-4.488l-1.944-.936c0,.816-.024,1.536-.048,2.184A3.358,3.358,0,0,1,93.12-.672c-.144,0-.288-.384-.432-1.1a52.122,52.122,0,0,1-.528-9.216V-18.84H81.888v2.4h2.5V-10.1Zm-8.736-6.84v2.3h8.352v-2.3h-2.88a26.629,26.629,0,0,0-.888-2.832l-2.4.648c.336.72.624,1.44.912,2.184Zm.816,3.6v2.184h6.7v-2.184Zm0,3.36v2.208h6.7V-9.984Zm6.888,3.576H73.656V2.3h2.3V1.128H78.5v.984h2.28ZM75.96-1.128V-4.152H78.5v3.024Z" transform="translate(664 1484)" fill="#fff"/>
      <g id="Group_38196" data-name="Group 38196" transform="translate(437 901)">
        <rect id="Rectangle_11848" data-name="Rectangle 11848" width="7.714" height="2.571" transform="translate(193.143 563.714)" fill="#f6757a"/>
        <rect id="Rectangle_11849" data-name="Rectangle 11849" width="15.429" height="15.429" transform="translate(200.857 576.571)" fill="#ecf0f1"/>
        <rect id="Rectangle_11850" data-name="Rectangle 11850" width="7.714" height="15.429" transform="translate(185.429 576.571)" fill="#ecf0f1"/>
        <rect id="Rectangle_11851" data-name="Rectangle 11851" width="18" height="10.286" transform="translate(200.857 563.714)" fill="#ecf0f1"/>
        <rect id="Rectangle_11852" data-name="Rectangle 11852" width="10.286" height="10.286" transform="translate(182.857 563.714)" fill="#ecf0f1"/>
        <rect id="Rectangle_11853" data-name="Rectangle 11853" width="15.429" height="2.571" transform="translate(200.857 574)" fill="#c0cbdc"/>
        <path id="Path_49641" data-name="Path 49641" d="M182.857,569.286V559H170v10.286h2.571v18h12.857V571.857h7.714v-2.571Z" transform="translate(0 4.714)" fill="#c0cbdc"/>
        <rect id="Rectangle_11854" data-name="Rectangle 11854" width="7.714" height="25.714" transform="translate(193.143 566.286)" fill="#e43b44"/>
        <path id="Path_49642" data-name="Path 49642" d="M185.285,561.143h-2.571v-2.571h-2.571V556H175v7.714h10.286Z" transform="translate(7.857)" fill="#e43b44"/>
        <path id="Path_49643" data-name="Path 49643" d="M185.143,556v2.571h-2.571v2.571H180v2.571h10.286V556Z" transform="translate(15.715)" fill="#e43b44"/>
      </g>
    </g>
  </g>
</svg>
