<svg xmlns="http://www.w3.org/2000/svg" xmlns:xlink="http://www.w3.org/1999/xlink" width="342.662" height="134.807" viewBox="0 0 342.662 134.807">
  <defs>
    <linearGradient id="linear-gradient" x1="-6.358" y1="0.74" x2="-3.872" y2="0.74" gradientUnits="objectBoundingBox">
      <stop offset="0.036" stop-color="#a58000"/>
      <stop offset="0.046" stop-color="#a88400"/>
      <stop offset="0.126" stop-color="#c6a705"/>
      <stop offset="0.201" stop-color="#dbc009"/>
      <stop offset="0.27" stop-color="#e8cf0b"/>
      <stop offset="0.325" stop-color="#edd50c"/>
      <stop offset="0.471" stop-color="#d7bc12"/>
      <stop offset="0.798" stop-color="#aa8921"/>
      <stop offset="0.994" stop-color="#a07d17"/>
    </linearGradient>
    <linearGradient id="linear-gradient-2" x1="63.404" y1="0.902" x2="64.379" y2="0.033" gradientUnits="objectBoundingBox">
      <stop offset="0.036" stop-color="#98660e"/>
      <stop offset="0.053" stop-color="#9e6e16"/>
      <stop offset="0.131" stop-color="#b68f39"/>
      <stop offset="0.204" stop-color="#c7a852"/>
      <stop offset="0.271" stop-color="#d2b661"/>
      <stop offset="0.325" stop-color="#d6bc67"/>
      <stop offset="0.474" stop-color="#c09f51"/>
      <stop offset="0.761" stop-color="#9a6c2a"/>
      <stop offset="0.994" stop-color="#9a6f28"/>
    </linearGradient>
    <linearGradient id="linear-gradient-3" x1="63.421" y1="0.883" x2="64.372" y2="0.034" gradientUnits="objectBoundingBox">
      <stop offset="0.036" stop-color="#d9aa29"/>
      <stop offset="0.122" stop-color="#e2bb1d"/>
      <stop offset="0.273" stop-color="#f0d40d"/>
      <stop offset="0.41" stop-color="#f9e303"/>
      <stop offset="0.521" stop-color="#fce900"/>
      <stop offset="0.616" stop-color="#edcd12"/>
      <stop offset="0.707" stop-color="#e3ba1f"/>
      <stop offset="0.77" stop-color="#e0b424"/>
      <stop offset="0.994" stop-color="#e8c544"/>
    </linearGradient>
    <linearGradient id="linear-gradient-4" x1="-9.124" y1="-6.013" x2="-6.769" y2="-6.013" xlink:href="#linear-gradient"/>
    <radialGradient id="radial-gradient" cx="292.444" cy="372.558" r="13.794" gradientTransform="matrix(0.559, 0.526, -0.527, 0.56, 26.399, -14.757)" gradientUnits="userSpaceOnUse">
      <stop offset="0" stop-color="#545252"/>
      <stop offset="1" stop-color="#231815"/>
    </radialGradient>
    <radialGradient id="radial-gradient-2" cx="307.36" cy="359.101" r="12.567" gradientTransform="matrix(0.642, 0.605, -0.605, 0.643, 16.671, -19.152)" gradientUnits="userSpaceOnUse">
      <stop offset="0" stop-color="#666"/>
      <stop offset="1" stop-color="#262626"/>
    </radialGradient>
    <radialGradient id="radial-gradient-3" cx="292.669" cy="363.395" r="18.153" gradientTransform="matrix(0.49, 0.461, -0.462, 0.49, 20.362, -6.934)" gradientUnits="userSpaceOnUse">
      <stop offset="0" stop-color="#4f4f4f"/>
      <stop offset="0.441" stop-color="#343434"/>
      <stop offset="0.706" stop-color="#2b2b2b"/>
    </radialGradient>
    <radialGradient id="radial-gradient-4" cx="295.959" cy="367.905" r="4.086" gradientTransform="matrix(0.702, 0.661, -0.662, 0.702, 18.286, -16.08)" gradientUnits="userSpaceOnUse">
      <stop offset="0" stop-color="#747373"/>
      <stop offset="1" stop-color="#383231"/>
    </radialGradient>
    <radialGradient id="radial-gradient-5" cx="391.428" cy="517.171" r="6.25" gradientTransform="matrix(-0.934, -1.038, -0.892, 0.803, 592.421, 286.391)" gradientUnits="userSpaceOnUse">
      <stop offset="0" stop-color="#707070"/>
      <stop offset="1" stop-color="#363636"/>
    </radialGradient>
    <radialGradient id="radial-gradient-6" cx="326.48" cy="417.609" r="17.064" gradientTransform="matrix(-0.71, -0.81, -0.808, 0.709, 210.998, 99.537)" gradientUnits="userSpaceOnUse">
      <stop offset="0" stop-color="#4f4f4f"/>
      <stop offset="0.027" stop-color="#4c4c4c"/>
      <stop offset="0.368" stop-color="#2c2c2c"/>
      <stop offset="0.656" stop-color="#181818"/>
      <stop offset="0.853" stop-color="#121212"/>
    </radialGradient>
  </defs>
  <g id="logo" transform="translate(-127.338 -354.01)">
    <g id="Group_38375" data-name="Group 38375">
      <g id="Group_38359" data-name="Group 38359">
        <path id="Path_50199" data-name="Path 50199" d="M212.074,405.3q-1.905-4.917-3.534-9.835H196.552q1.437,3.953,3.076,7.906c.2.717-.827,1.9-2.187,1.9H165.41q14.247-9.078,27.569-18.156H180.514q-14.181,9.279-29.362,18.557-2.166,3.309-4.311,6.625h57.314C209.1,412.3,213.167,408.524,212.074,405.3Z"/>
        <path id="Path_50200" data-name="Path 50200" d="M204.156,412.618h-57.9l.319-.493q2.144-3.312,4.311-6.627l.1-.1c10.38-6.357,20.257-12.6,29.354-18.551l.079-.053h13.6l-.855.584c-8.33,5.686-17.293,11.6-26.654,17.572h30.935a2.14,2.14,0,0,0,1.657-.812.869.869,0,0,0,.223-.678c-1.081-2.6-2.118-5.266-3.07-7.883l-.156-.429h12.676l.073.219c1.07,3.234,2.258,6.538,3.529,9.82l.005.013a4.282,4.282,0,0,1-.761,3.909A9.328,9.328,0,0,1,204.156,412.618Zm-56.727-.639h56.727a8.673,8.673,0,0,0,6.942-3.241,3.663,3.663,0,0,0,.676-3.324c-1.246-3.216-2.411-6.453-3.465-9.625h-11.3c.9,2.471,1.885,4.979,2.915,7.464a1.449,1.449,0,0,1-.316,1.272,2.761,2.761,0,0,1-2.167,1.066H164.313l.925-.589c9.369-5.97,18.349-11.877,26.7-17.566H180.609c-9.062,5.929-18.9,12.143-29.23,18.472Q149.4,408.941,147.429,411.979Z"/>
      </g>
      <g id="Group_38360" data-name="Group 38360">
        <path id="Path_50201" data-name="Path 50201" d="M272.12,411.81c-.769-.162-2.453-1.009-3.837-1.416-2.45-.731-4.985-.216-6.166.921q-.65,2.168-1.306,4.34c.006,0,3.152-2,5.632-1.01,2.918,1.159,4.682,1.447,6.277,1.272a9.162,9.162,0,0,0,3.122-1.2q.612-2.377,1.218-4.76s-1.274,1.061-1.776,1.361A4.851,4.851,0,0,1,272.12,411.81Z"/>
        <path id="Path_50202" data-name="Path 50202" d="M271.862,416.283a15.133,15.133,0,0,1-5.537-1.341c-2.175-.872-5.017.786-5.335.978l-.076.046-.534.008.125-.411q.582-1.921,1.157-3.843l.173-.577.061-.058c1.346-1.295,4.069-1.716,6.478-1,.716.211,1.507.536,2.206.821a12.225,12.225,0,0,0,1.606.589,4.548,4.548,0,0,0,2.933-.456c.4-.238,1.363-1.024,1.656-1.266l.271-1.067.321,1.161a.228.228,0,0,1-.026.157l.028.007q-.6,2.384-1.217,4.761l-.033.125-.109.068a9.4,9.4,0,0,1-3.256,1.248A8.216,8.216,0,0,1,271.862,416.283Zm-6.947-2.235a4.4,4.4,0,0,1,1.647.3c2.695,1.069,4.468,1.432,6.124,1.251a8.524,8.524,0,0,0,2.88-1.092q.469-1.825.935-3.652c-.505.387-1.043.728-1.053.735a5.189,5.189,0,0,1-3.394.533h0a12.179,12.179,0,0,1-1.717-.623c-.684-.28-1.459-.6-2.144-.8a6.389,6.389,0,0,0-5.794.79l-.124.414q-.465,1.547-.932,3.1A8.426,8.426,0,0,1,264.915,414.048Z"/>
      </g>
      <g id="Group_38361" data-name="Group 38361">
        <path id="Path_50203" data-name="Path 50203" d="M284.712,389.749H264.583q.4-1.314.79-2.628H258.1q-.43,1.313-.861,2.628H238.984q-.933,2.375-1.866,4.747h46.5Q284.167,392.123,284.712,389.749Z"/>
        <path id="Path_50204" data-name="Path 50204" d="M283.868,394.815h-47.22l2.118-5.385h18.241l.861-2.629H265.8l-.789,2.629h20.1l-.09.391q-.546,2.373-1.1,4.747Zm-46.281-.639h45.774q.477-2.053.949-4.107H264.153l.791-2.629h-6.613l-.861,2.629H239.2Z"/>
      </g>
      <g id="Group_38362" data-name="Group 38362">
        <path id="Path_50205" data-name="Path 50205" d="M241.328,406.091q4.062-2.687,8.016-5.37H243.6q3.084-2.238,6.1-4.472h-6.561q-4.657,3.675-9.486,7.348h5.184q-2.658,1.248-5.35,2.494-.618,1.569-1.231,3.14h12.383q1.664-1.57,3.3-3.14Z"/>
        <path id="Path_50206" data-name="Path 50206" d="M244.763,409.551H231.784l1.448-3.7.116-.054q2.035-.942,4.05-1.884h-4.7l.754-.574c3.272-2.491,6.462-4.963,9.482-7.345l.087-.069h7.639l-.777.576q-2.624,1.948-5.3,3.9h5.8l-.86.584c-2.325,1.579-4.721,3.187-7.133,4.786h6.342l-.574.551q-1.64,1.57-3.3,3.142Zm-12.043-.639h11.788q1.325-1.251,2.632-2.5h-6.875l.887-.587c2.412-1.594,4.813-3.2,7.15-4.784h-5.687l.8-.578q2.685-1.949,5.315-3.894h-5.482c-2.765,2.181-5.671,4.435-8.65,6.71h5.67l-1.3.608q-2.6,1.223-5.236,2.441Z"/>
      </g>
      <g id="Group_38363" data-name="Group 38363">
        <path id="Path_50207" data-name="Path 50207" d="M272.746,406.091q3.795-2.687,7.476-5.37h-5.743q2.856-2.238,5.638-4.472h-6.562q-4.279,3.675-8.736,7.348H270q-2.533,1.248-5.1,2.494-.459,1.569-.921,3.14h12.384q1.509-1.57,2.992-3.14Z"/>
        <path id="Path_50208" data-name="Path 50208" d="M276.5,409.551H263.552l1.081-3.686.128-.062q1.946-.942,3.867-1.886h-4.7l.686-.566c3-2.476,5.94-4.947,8.731-7.344l.09-.078h7.588l-.707.569q-2.428,1.952-4.913,3.9h5.8l-.791.578c-2.155,1.571-4.391,3.181-6.661,4.792H280.1l-.509.539q-1.482,1.57-2.993,3.143Zm-12.094-.639h11.821q1.2-1.251,2.385-2.5h-6.871l.82-.581c2.27-1.606,4.513-3.215,6.679-4.79h-5.688l.73-.571q2.49-1.951,4.926-3.9h-5.535c-2.555,2.194-5.231,4.448-7.965,6.71h5.668l-1.231.606q-2.473,1.218-4.978,2.433Z"/>
      </g>
      <g id="Group_38364" data-name="Group 38364">
        <path id="Path_50209" data-name="Path 50209" d="M241.146,411.81c-.754-.162-2.358-1.009-3.7-1.416a6.957,6.957,0,0,0-6.255.921q-.856,2.168-1.71,4.34c.005,0,3.335-2,5.725-1.01,2.809,1.159,4.547,1.447,6.161,1.272a10.074,10.074,0,0,0,3.232-1.2q.835-2.377,1.665-4.76s-1.379,1.061-1.908,1.361A5.071,5.071,0,0,1,241.146,411.81Z"/>
        <path id="Path_50210" data-name="Path 50210" d="M240.5,416.283a14.235,14.235,0,0,1-5.417-1.343c-2.106-.876-5.1.792-5.432.985l-.074.042-.567.007,1.968-4.9c1.456-1.29,4.217-1.7,6.56-.988a22.221,22.221,0,0,1,2.122.82,11.3,11.3,0,0,0,1.552.589,4.751,4.751,0,0,0,2.985-.46c.5-.286,1.857-1.325,1.871-1.336l.851-.654-2.02,5.774-.018-.007c-.324.522-2.736,1.345-3.484,1.421A8.322,8.322,0,0,1,240.5,416.283Zm-6.8-2.236a4.23,4.23,0,0,1,1.631.3c2.59,1.069,4.33,1.43,6,1.25a9.35,9.35,0,0,0,3-1.1l1.279-3.655c-.4.292-.842.605-1.1.753a5.331,5.331,0,0,1-3.434.53h0a11.22,11.22,0,0,1-1.668-.627,21.425,21.425,0,0,0-2.059-.8,6.634,6.634,0,0,0-5.893.806l-1.369,3.472A8.933,8.933,0,0,1,233.7,414.047Z"/>
      </g>
      <g id="Group_38365" data-name="Group 38365">
        <path id="Path_50211" data-name="Path 50211" d="M249.679,404.421h13.132c.308-1.018.612-2.04.917-3.058h-13C250.377,402.381,250.028,403.4,249.679,404.421Z"/>
        <path id="Path_50212" data-name="Path 50212" d="M263.048,404.741H249.232l1.265-3.7h13.661Zm-12.922-.639h12.447l.725-2.419H250.954Z"/>
      </g>
      <g id="Group_38366" data-name="Group 38366">
        <path id="Path_50213" data-name="Path 50213" d="M265.1,396.749H252.3q-.521,1.529-1.041,3.061H264.19Q264.646,398.279,265.1,396.749Z"/>
        <path id="Path_50214" data-name="Path 50214" d="M264.429,400.13h-13.62l1.259-3.7h13.458Zm-12.727-.64h12.25l.718-2.421H252.526Z"/>
      </g>
      <g id="Group_38367" data-name="Group 38367">
        <path id="Path_50215" data-name="Path 50215" d="M245.677,416.009h10.8a4.435,4.435,0,0,0,2.234-.781,4.794,4.794,0,0,0,1.49-2.134q1.058-3.469,2.1-6.939H249.072Q247.383,411.083,245.677,416.009Zm7-6.866h4.243q-.571,1.811-1.146,3.615h-4.292Q252.082,410.951,252.678,409.143Z"/>
        <path id="Path_50216" data-name="Path 50216" d="M245.677,416.329h-.449l.147-.424q1.705-4.928,3.4-9.854l.074-.216h13.891l-.125.412q-1.045,3.469-2.1,6.94a5.085,5.085,0,0,1-1.609,2.3,4.775,4.775,0,0,1-2.411.842Zm.449-.639h10.351a4.166,4.166,0,0,0,2.047-.721,4.5,4.5,0,0,0,1.373-1.975q.992-3.253,1.978-6.52H249.3Q247.72,411.083,246.126,415.69Zm9.883-2.613H251.04l1.407-4.254h4.909l-.131.416q-.477,1.518-.959,3.027Zm-4.084-.639h3.615l.117-.365q.414-1.3.827-2.611h-3.575Z"/>
      </g>
      <g id="Group_38368" data-name="Group 38368">
        <path id="Path_50217" data-name="Path 50217" d="M207.633,438.985c-.56,1.033-1.142,1.544-1.671,1.544H193.2q5.558-12.123,11.227-24.249H147.5q-8.941,14.106-17.45,28.213c-.72,1.195-1.437,2.244-2.152,3.439h55.2c.289,0,.557.012.834,0-.006.012-.012-.014-.018,0h21.25c2.48,0,6.954-1.825,8.7-5.146q5.646-12.413,11.254-24.826H217.17Q212.4,428.475,207.633,438.985Zm-24.747-.079a2.335,2.335,0,0,1-2.334,1.3H143.74q4.686-8.074,9.5-16.151h36.923Q186.5,431.482,182.886,438.906Z"/>
        <path id="Path_50218" data-name="Path 50218" d="M183.813,448.279l-.021-.023-.41,0-.281,0H127.338l.289-.483c.369-.618.739-1.2,1.111-1.778.346-.541.693-1.085,1.04-1.662,5.481-9.1,11.353-18.593,17.454-28.219l.093-.148h57.607l-.213.455c-4.022,8.616-7.629,16.405-11.018,23.793h12.261c.407,0,.911-.5,1.384-1.366l9.617-21.2h8.65l-.2.451q-5.6,12.416-11.254,24.828c-1.831,3.485-6.4,5.332-8.99,5.332Zm-55.344-.667,54.923,0c.157,0,.307.006.462,0l.184-.031.02.022.38-.016-.009.022h20.737c2.372,0,6.733-1.771,8.416-4.974q5.53-12.162,11.042-24.358h-7.248l-9.462,20.858c-.616,1.135-1.273,1.71-1.952,1.71H192.705l.208-.452c3.39-7.395,7-15.183,11.015-23.8h-56.25c-6.065,9.571-11.9,19.01-17.352,28.058-.35.583-.7,1.13-1.05,1.677C129.007,446.756,128.738,447.176,128.469,447.612Zm52.083-7.086H143.185l.278-.48c3.039-5.236,6.237-10.672,9.505-16.155l.094-.156h37.619l-.228.461q-3.666,7.426-7.28,14.849A2.661,2.661,0,0,1,180.552,440.526Zm-36.257-.639h36.257a2.017,2.017,0,0,0,2.045-1.122h0q3.5-7.2,7.054-14.391H153.425C150.289,429.636,147.22,434.85,144.295,439.887Z"/>
      </g>
      <g id="Group_38369" data-name="Group 38369">
        <path id="Path_50219" data-name="Path 50219" d="M224.258,388.513q1.737,7.16,3.973,14.316,3.3-1.976,6.538-3.952-1.57-5.181-2.9-10.364Z"/>
        <path id="Path_50220" data-name="Path 50220" d="M228.046,403.312l-.121-.388c-1.5-4.816-2.838-9.64-3.978-14.335l-.1-.4h8.27l.061.241c.885,3.461,1.859,6.943,2.893,10.35l.071.237-.211.129q-3.235,1.98-6.542,3.954Zm-3.381-14.479c1.084,4.431,2.344,8.973,3.75,13.513q3.017-1.806,5.977-3.612c-.986-3.263-1.916-6.59-2.767-9.9Z"/>
      </g>
      <g id="Group_38370" data-name="Group 38370">
        <path id="Path_50221" data-name="Path 50221" d="M216.264,400.6q1.941,7.517,4.411,15.032,3.551-1.883,7.039-3.763-1.961-5.639-3.634-11.269Z"/>
        <path id="Path_50222" data-name="Path 50222" d="M220.489,416.088l-.118-.36c-1.659-5.065-3.146-10.13-4.417-15.051l-.1-.4h8.467l.068.229c1.08,3.648,2.3,7.434,3.63,11.255l.089.258-.239.129q-3.489,1.879-7.041,3.763Zm-3.812-15.172c1.214,4.666,2.62,9.457,4.184,14.253q3.257-1.73,6.461-3.455c-1.269-3.663-2.44-7.293-3.481-10.8Z"/>
      </g>
      <g id="Group_38371" data-name="Group 38371">
        <path id="Path_50223" data-name="Path 50223" d="M443.651,439.611q-1.23-8.161-2.817-16.323h19.51q-.957-3.828-2-7.655H439.26q-1.781-8.225-3.938-16.446h20.037q-1.265-3.825-2.621-7.656h-48.72q.7,3.83,1.325,7.656h19.592q1.878,8.223,3.388,16.446h-19.8q.481,3.825.894,7.655h20.238q1.336,8.162,2.33,16.323H408.194c.179,2.823.333,5.5.463,8.321h60.958c-.526-2.824-1.086-5.5-1.68-8.321Z"/>
        <path id="Path_50224" data-name="Path 50224" d="M470,448.251H408.352l-.015-.3c-.118-2.569-.265-5.212-.462-8.315l-.023-.341h23.772c-.652-5.291-1.406-10.564-2.242-15.683H409.13l-.031-.285c-.28-2.592-.581-5.165-.893-7.649l-.045-.36h19.777c-.982-5.306-2.077-10.621-3.258-15.807H405.07l-.043-.268c-.424-2.6-.869-5.169-1.324-7.65l-.069-.377h49.33l.075.212c.865,2.437,1.748,5.015,2.623,7.662l.139.421H435.736c1.355,5.167,2.626,10.481,3.781,15.807h19.075l.063.235c.675,2.476,1.347,5.053,2,7.661l.1.4H441.222c1,5.125,1.9,10.4,2.7,15.683h24.268l.054.254c.638,3.033,1.167,5.572,1.682,8.328Zm-61.039-.639h60.27c-.478-2.529-.971-4.9-1.556-7.682h-24.3l-.041-.272c-.829-5.5-1.777-10.985-2.814-16.309l-.075-.381h19.488c-.6-2.386-1.215-4.742-1.832-7.015H439l-.054-.252c-1.2-5.539-2.522-11.067-3.935-16.433l-.1-.4h20.01c-.8-2.419-1.611-4.776-2.4-7.016H404.4c.416,2.283.823,4.64,1.213,7.016h19.575l.058.249c1.232,5.4,2.373,10.935,3.39,16.459l.068.378h-19.82c.286,2.285.561,4.642.819,7.015h20.222l.044.268c.873,5.328,1.658,10.824,2.332,16.336l.043.358H408.534C408.713,442.771,408.85,445.23,408.961,447.612Z"/>
      </g>
      <g id="Group_38372" data-name="Group 38372">
        <path id="Path_50225" data-name="Path 50225" d="M381.9,413.532h10.4l.129-.009c4.739-.319,6.232-3.853,6.328-5.679-.354-3.256-.153-5.312-.585-8.567h-16.66C381.929,404.431,381.659,408.377,381.9,413.532Zm5.671-9.39h4.946c.158,1.513-.287,1.823-.143,3.335a.886.886,0,0,1-.731.738h-4.231C387.282,406.457,387.729,405.9,387.575,404.142Z"/>
        <path id="Path_50226" data-name="Path 50226" d="M392.3,413.852H381.6l-.015-.3c-.105-2.21-.115-4.213-.126-6.15-.014-2.651-.028-5.155-.265-8.1l-.029-.345h17.287l.037.278a44.861,44.861,0,0,1,.335,4.593c.043,1.219.087,2.479.251,3.982-.116,2.284-1.977,5.719-6.624,6.032Zm-10.091-.64H392.3l.128.311-.021-.319c4.563-.308,5.94-3.652,6.03-5.376-.165-1.475-.209-2.746-.253-3.977-.049-1.364-.1-2.657-.294-4.255H381.857c.214,2.815.226,5.238.24,7.8C382.107,409.234,382.117,411.135,382.209,413.212Zm5.206-4.677h-.3l-.022-.3a9.03,9.03,0,0,1,.086-2.078,8.175,8.175,0,0,0,.073-1.991l-.029-.348h5.582l.03.287a5.912,5.912,0,0,1-.071,1.764,5.4,5.4,0,0,0-.072,1.574l0,.048-.01.048a1.187,1.187,0,0,1-.992.987Zm.3-.64h3.931a.537.537,0,0,0,.407-.44,6.131,6.131,0,0,1,.082-1.684,5.331,5.331,0,0,0,.09-1.31h-4.309a9.149,9.149,0,0,1-.1,1.783A8.808,8.808,0,0,0,387.716,407.895Z"/>
      </g>
      <g id="Group_38373" data-name="Group 38373">
        <path id="Path_50227" data-name="Path 50227" d="M386.529,437.87h13.189q-.112-2.412-.249-4.825H386.44q-.033-1.589-.082-3.176,6.462,0,12.92,0-.156-2.413-.332-4.824H386.193c-.041-1.059-.089-2.117-.135-3.174h13.306q-.2-2.414-.425-4.823H385.816c-.043-.765-.086-1.531-.135-2.3h-7.749c.028.765.053,1.531.081,2.3h-7.824c.6-1.568.98-2.844,1.169-3.519h1.631l.121-.008a6.818,6.818,0,0,0,6.647-5.831c-.2-3.34.172-5.476-.094-8.819H363.239c.125,5.288-.422,9.371-.449,14.658H364.5a30.223,30.223,0,0,1-3.975,7.845c-.748.929-1.517,1.814-2.259,2.622-1.066-7.732-2.116-14.952-3.31-22.684h5.475c-.02-1.9-.048-3.8-.088-5.7h-7.472q.029-5.073-.045-10.146h-5.58q-.03,5.072-.159,10.146h-8.6q-.153,2.85-.335,5.7h4.1s-5.467,20.942-8.162,31.669l-2.7,9.31H269.377s1.944-7.036,2.9-10.631H232.43q.5-1.335.989-2.673h35.84a6.533,6.533,0,0,0,2.753-.758,4.542,4.542,0,0,0,1.749-2.189q1.085-4.13,2.148-8.264H228.025l-1.728,4.363h36.5q-.393,1.34-.79,2.681H225.234q-2.169,5.475-4.336,10.952h37.854q-.917,3.059-1.84,6.117H220.819c.036,1.935.082,4.106.138,6.043H261.3c-.009.026-.017-.028-.025,0h74.786l2.657-11.711,8.137-32.967-3.352,44.678h6.722s1.642-20.94,2.074-31.409q.974,9.16,1.818,18.323c.008.245.018.487.024.732,0,0,3.078-2.173,6.555-5.19q-.34,8.772-.94,17.544h42.688c-.071-2.225-.152-4.451-.255-6.678H386.565Q386.551,439.564,386.529,437.87Zm-17.7-34.009h4.943c.074,1.553-.451,1.9-.389,3.455a.965.965,0,0,1-.769.758h-4.232C368.345,406.268,368.887,405.668,368.83,403.861Zm9.41,37.393H367.922c.044-1.127.081-2.256.119-3.384h10.235Q378.262,439.562,378.24,441.254Zm.046-8.209h-10.11c.026-1.059.047-2.117.07-3.176q5.012,0,10.025,0Q378.285,431.458,378.286,433.045Zm-.076-8h-9.893q.012-1.589.019-3.174h9.809C378.17,422.928,378.194,423.987,378.21,425.045Z"/>
        <path id="Path_50228" data-name="Path 50228" d="M261.131,448.276l-.016-.025H220.646l-.009-.311c-.055-1.937-.1-4.109-.137-6.046l-.007-.325h36.181l1.647-5.477H220.427l4.59-11.591h36.752l.6-2.042H225.825l1.983-5h48.514l-.1.4q-1.062,4.131-2.151,8.265a4.816,4.816,0,0,1-1.881,2.375,6.833,6.833,0,0,1-2.915.81H233.642l-.753,2.034h39.8l-.107.4c-.819,3.079-2.363,8.681-2.79,10.228h61.365c.926-3.2,2.574-8.884,2.625-9.069,2.46-9.791,7.286-28.314,8.058-31.27h-4.026l.023-.34q.178-2.85.333-5.7l.016-.3h8.588c.081-3.3.132-6.608.151-9.828l0-.318h6.214l0,.315c.046,3.383.063,6.688.046,9.831h7.465l.006.313q.06,2.853.088,5.706l0,.323h-5.425c1.111,7.205,2.118,14.112,3.159,21.643.624-.7,1.223-1.4,1.788-2.1a28.977,28.977,0,0,0,3.77-7.324h-1.58v-.321c.013-2.347.127-4.475.239-6.534.144-2.663.28-5.179.21-8.115l-.007-.328h17.046l.024.294a41.791,41.791,0,0,1,.068,4.673c-.032,1.273-.066,2.59.026,4.154a7.157,7.157,0,0,1-6.944,6.168l-.114.008H371.6c-.18.622-.5,1.645-.949,2.88h7.031l-.082-2.3h8.381l.019.3q.063,1,.119,2H399.23l.027.289q.227,2.415.425,4.826l.029.347h-13.32l.009.19q.053,1.173.1,2.344h12.743l.021.3q.178,2.416.332,4.827l.022.34H386.687q.037,1.269.066,2.538h13.018l.017.3q.135,2.416.249,4.828l.015.335h-13.2q.018,1.371.03,2.744H402.5l.014.305q.153,3.343.254,6.683l.01.329H359.416l.023-.341c.386-5.729.692-11.377.911-16.8-2.766,2.359-5.169,4.117-5.884,4.63l.053,2.065-.548-1.712-.119.085-.027-.541-.058-.183.051-.037-.019-.56c-.435-4.71-.9-9.457-1.382-14.153-.6,10.936-1.857,27.07-1.872,27.253l-.023.3H343.16l.026-.343,3.066-40.872L339.031,436.3l-2.714,11.953Zm98.969-.664h42.016q-.1-3.018-.231-6.038H386.247l0-.317q-.014-1.69-.036-3.382l0-.324h13.178q-.1-2.092-.216-4.186H386.126l-.006-.313q-.033-1.587-.082-3.173l-.01-.33h12.909q-.137-2.093-.289-4.184H385.885l-.012-.307c-.034-.884-.073-1.766-.111-2.648l-.038-.859h13.293q-.174-2.092-.369-4.183H385.513l-.017-.3q-.054-1-.115-1.994h-7.119l.081,2.3h-8.617l.165-.433c.6-1.58.983-2.866,1.16-3.492l.065-.233,1.96-.008a6.537,6.537,0,0,0,6.362-5.543c-.093-1.54-.06-2.871-.027-4.157a42.207,42.207,0,0,0-.045-4.311h-15.8c.054,2.821-.079,5.261-.218,7.838-.1,1.956-.215,3.976-.235,6.181h1.84l-.147.425a30.862,30.862,0,0,1-4.028,7.939c-.711.883-1.475,1.77-2.274,2.639l-.458.5-.094-.672c-1.09-7.921-2.142-15.127-3.308-22.679l-.057-.368h5.524q-.028-2.529-.077-5.064h-7.48v-.321c.017-3.138,0-6.441-.041-9.824h-4.948c-.019,3.225-.073,6.531-.156,9.834l-.007.311H338.8q-.138,2.532-.3,5.064h4.171l-.1.4c-.055.21-5.5,21.064-8.161,31.667l-.048-.012c-.1.544-.639,2.394-2.65,9.331l-.067.231H268.957l.111-.4s1.806-6.535,2.793-10.226h-39.89l1.225-3.313h36.063a6.261,6.261,0,0,0,2.578-.706,4.256,4.256,0,0,0,1.619-2.018c.685-2.6,1.367-5.227,2.042-7.847H228.243l-1.476,3.724h36.458l-.978,3.32h-36.8l-4.084,10.313h37.814l-2.031,6.755h-36c.033,1.746.074,3.659.123,5.4h114.54l2.6-11.462,8.137-32.973.63.1-3.326,44.334h6.081c.2-2.585,1.653-21.433,2.051-31.1l.638-.02c.642,6.037,1.254,12.2,1.818,18.328l0,.15c1.046-.763,3.425-2.547,6.046-4.82l.558-.484-.028.737C360.8,435.947,360.493,441.736,360.1,447.612Zm18.455-6.038H367.59l.012-.332c.044-1.12.081-2.24.119-3.36l.01-.309.309-.022H378.6l0,.322q-.012,1.692-.036,3.385Zm-10.3-.64h9.67q.018-1.371.03-2.744h-9.6C368.319,439.114,368.288,440.026,368.254,440.934Zm10.351-7.569H367.848l.007-.328c.022-.846.039-1.693.057-2.54l.02-.948h10.656l0,.317q.012,1.59.014,3.179Zm-10.1-.639h9.464q0-1.269-.012-2.538h-9.4l-.008.322Q368.529,431.618,368.5,432.726Zm10.032-7.361h-10.54l0-.323q.012-1.587.019-3.172l0-.319h10.439l.007.312c.025,1.059.049,2.118.065,3.177Zm-9.9-.64h9.247q-.021-1.268-.052-2.534h-9.178Q368.649,423.457,368.638,424.725Zm-.255-16.331h-.314l-.006-.313a8.729,8.729,0,0,1,.233-2.155,7.949,7.949,0,0,0,.214-2.055l-.01-.33h5.578l.015.305a5.81,5.81,0,0,1-.2,1.827,5.213,5.213,0,0,0-.189,1.63v.048l-.011.046a1.269,1.269,0,0,1-1.026.992Zm.318-.64h3.913a.627.627,0,0,0,.449-.477,5.837,5.837,0,0,1,.207-1.753,5.379,5.379,0,0,0,.191-1.344h-4.308a8.839,8.839,0,0,1-.231,1.874A8.533,8.533,0,0,0,368.7,407.754Z"/>
      </g>
      <g id="Group_38374" data-name="Group 38374">
        <path id="Path_50229" data-name="Path 50229" d="M362.289,385.2c.044,0,.074-.018.111-.02q2.482,5.992,4.953,11.984h27.039q1.3-5.58,2.247-11.162c.062.006.128.03.191.03a1.134,1.134,0,0,0,1.253-1.316,1.8,1.8,0,0,0-1.753-1.32,1.14,1.14,0,0,0-1.243,1.32,1.6,1.6,0,0,0,.814,1.039q-2.789,3.094-5.8,6.182-.771-2.98-1.587-5.96a1.111,1.111,0,0,0,.988-1.261,1.734,1.734,0,0,0-1.71-1.32,1.183,1.183,0,0,0-1.29,1.32,1.574,1.574,0,0,0,.971,1.141q-1.779,2.967-3.715,5.939-1.761-2.958-3.525-5.916a1.106,1.106,0,0,0,.69-1.164,1.667,1.667,0,0,0-1.673-1.32,1.227,1.227,0,0,0-1.332,1.32,1.56,1.56,0,0,0,1.173,1.232q-1.025,2.926-2.157,5.848-2.557-3.036-5.069-6.074a1.1,1.1,0,0,0,.472-1.006,1.6,1.6,0,0,0-1.629-1.32,1.278,1.278,0,0,0-1.373,1.32,1.576,1.576,0,0,0,1.616,1.316l.011,0q-.132,2.957-.333,5.908-4.024-3.406-7.93-6.81a1.233,1.233,0,0,0,1-1.244,1.54,1.54,0,0,0-1.577-1.32,1.316,1.316,0,0,0-1.415,1.32A1.515,1.515,0,0,0,362.289,385.2Z"/>
        <path id="Path_50230" data-name="Path 50230" d="M394.645,397.489H367.139l-.083-.2q-2.426-5.883-4.862-11.768a1.814,1.814,0,0,1-1.807-1.617,1.481,1.481,0,0,1,.408-1.111,1.819,1.819,0,0,1,1.327-.547,1.867,1.867,0,0,1,1.895,1.616,1.464,1.464,0,0,1-.726,1.361c2.2,1.917,4.518,3.908,7.062,6.064.105-1.61.2-3.273.276-4.956a1.844,1.844,0,0,1-1.612-1.584,1.47,1.47,0,0,1,.389-1.126,1.765,1.765,0,0,1,1.3-.542,1.926,1.926,0,0,1,1.947,1.609,1.369,1.369,0,0,1-.352,1.065q2.244,2.715,4.527,5.427c.635-1.649,1.257-3.341,1.855-5.038a1.8,1.8,0,0,1-1.085-1.385,1.422,1.422,0,0,1,.352-1.13,1.725,1.725,0,0,1,1.3-.548,2,2,0,0,1,1.99,1.6,1.389,1.389,0,0,1-.569,1.317l3.1,5.2c1.133-1.75,2.226-3.5,3.258-5.212a1.792,1.792,0,0,1-.841-1.215,1.4,1.4,0,0,1,.32-1.139,1.684,1.684,0,0,1,1.286-.549,2.065,2.065,0,0,1,2.026,1.588,1.39,1.39,0,0,1-.913,1.53q.695,2.553,1.362,5.112c1.879-1.943,3.573-3.748,5.153-5.5a1.807,1.807,0,0,1-.648-1.035,1.382,1.382,0,0,1,.293-1.151,1.626,1.626,0,0,1,1.265-.548,2.1,2.1,0,0,1,2.066,1.579,1.346,1.346,0,0,1-.275,1.137,1.628,1.628,0,0,1-1.217.558c-.615,3.585-1.354,7.246-2.2,10.887Zm-27.079-.639h26.572c.843-3.647,1.578-7.311,2.187-10.9l.038-.228-.225.249c-1.765,1.959-3.666,3.984-5.807,6.191l-.4.408-.143-.551q-.771-2.978-1.585-5.956l-.092-.332.339-.066a.8.8,0,0,0,.733-.9,1.423,1.423,0,0,0-1.394-1.051,1.041,1.041,0,0,0-.8.326.759.759,0,0,0-.174.627,1.265,1.265,0,0,0,.784.9l.33.147-.185.309c-1.17,1.951-2.422,3.952-3.721,5.949l-.281.43-3.97-6.664.325-.148a.787.787,0,0,0,.506-.828,1.36,1.36,0,0,0-1.356-1.044,1.08,1.08,0,0,0-.819.333.783.783,0,0,0-.2.629,1.247,1.247,0,0,0,.944.963l.326.093-.112.32c-.693,1.977-1.419,3.948-2.161,5.858l-.2.5-.347-.412q-2.557-3.037-5.07-6.076l-.212-.257.265-.2a.8.8,0,0,0,.347-.717,1.292,1.292,0,0,0-1.311-1.034,1.123,1.123,0,0,0-.832.336.834.834,0,0,0-.222.638,1.249,1.249,0,0,0,1.249,1.022l.059,0h.335l-.015.334c-.091,2.016-.2,4.006-.335,5.915l-.042.631-.482-.409c-2.681-2.269-5.112-4.354-7.41-6.356Q365.294,391.339,367.566,396.85Zm28.809-11.191.409.049a1,1,0,0,0,.844-.317.713.713,0,0,0,.141-.608,1.49,1.49,0,0,0-1.439-1.062,1,1,0,0,0-.775.317.745.745,0,0,0-.154.626,1.28,1.28,0,0,0,.66.819l.312.181Zm-34.253-2.771a1.178,1.178,0,0,0-.861.345.847.847,0,0,0-.235.635,1.2,1.2,0,0,0,1.245,1.018l.346-.063a.919.919,0,0,0,.763-.913A1.218,1.218,0,0,0,362.122,382.888Z"/>
      </g>
    </g>
    <g id="Group_38376" data-name="Group 38376">
      <path id="Path_50231" data-name="Path 50231" d="M193.371,458.558h35.68q-2.268,3.681-4.313,7.349h-12.39a146.222,146.222,0,0,0-11.216,22.4H188.179a134.77,134.77,0,0,1,12.02-22.4H187.808Q190.421,462.238,193.371,458.558Z"/>
      <path id="Path_50232" data-name="Path 50232" d="M247.13,458.558h11.149c-1,5.556-1.7,11.108-2.147,16.657,3.972-5.549,8.024-11.1,12.038-16.657h11.1c.234,5.546.7,11.09,1.344,16.636,2.893-5.546,5.779-11.09,8.562-16.636h11.092c-4.805,9.918-10.193,19.839-15.532,29.753h-12.7c-.891-6.245-1.565-12.488-1.927-18.728-4.294,6.24-8.593,12.483-12.745,18.728H244.659A141.433,141.433,0,0,1,247.13,458.558Z"/>
      <path id="Path_50233" data-name="Path 50233" d="M318.2,458.558h11.74q.1,5.629-.148,11.249c4.462-3.746,8.649-7.5,12.44-11.249h15.61c-4.011,3.748-8.486,7.49-13.293,11.23,5.158,6.175,10.284,12.35,15.208,18.523H343.8q-3.859-6.119-7.864-12.233-3.374,2.487-6.9,4.973c-.22,2.418-.476,4.843-.763,7.26H315.313C316.7,478.395,317.761,468.476,318.2,458.558Z"/>
      <path id="Path_50234" data-name="Path 50234" d="M404.112,476.131q5.758,1.219,11.554,2.44a9.94,9.94,0,0,1-2.683,5.661,13.8,13.8,0,0,1-5.792,3.434,30.794,30.794,0,0,1-9.219,1.151,37.168,37.168,0,0,1-11.2-1.409,17.791,17.791,0,0,1-7.644-4.957,15.973,15.973,0,0,1-3.969-9.087c-.683-4.922.2-8.7,2.838-11.347s6.822-3.964,12.918-3.964a30.163,30.163,0,0,1,12.283,2.275,23.951,23.951,0,0,1,9.016,6.981q-5.078.9-10.256,1.8a9.722,9.722,0,0,0-1.783-1.989,10.465,10.465,0,0,0-3.01-1.621,10.689,10.689,0,0,0-3.473-.569c-2.747,0-4.574.843-5.613,2.514-.8,1.241-.9,3.2-.418,5.861.588,3.3,1.521,5.555,3.048,6.779a9.369,9.369,0,0,0,6.058,1.834c2.445,0,4.249-.5,5.361-1.484A6.314,6.314,0,0,0,404.112,476.131Z"/>
    </g>
    <g id="Group_38377" data-name="Group 38377">
      <path id="Path_50235" data-name="Path 50235" d="M328.671,400.634c-2.8-3.515-5.26-4.578-6.04-4.845a3.282,3.282,0,0,1,.541-1.286,7.842,7.842,0,0,0,1.654-2.188c.716-1.14,1.82-5.5,2.058-5.88s-1.451-2.355-1.427-3.126a7.622,7.622,0,0,1,1.76-3.42c.78-.826.717-1.287.2-1.922a11.265,11.265,0,0,0-3.354-1.945c-.751-.255-1.952-.6-1.952-.6s-1.544-1.658-1.911-2.135a1.644,1.644,0,0,0-1.123-.5,21.574,21.574,0,0,0-3.55-.17,2.547,2.547,0,0,0-.32-.048,12.447,12.447,0,0,0-2.466,1.625,10.785,10.785,0,0,1-1.4,1.343c-.855.825-2.769,1.466-5.612,3.079a10.032,10.032,0,0,0-4.292,4.426c-.479.913-2.445,3.483-3.235,4.69-.108.166-.222.372-.339.6l-2.847-8.546.513-4.332c.349-.142.579-.318.586-.523.029-.7.094-2.071.148-3.141a4.809,4.809,0,0,0,1.733-.345.115.115,0,0,1,.02-.013c1.264-.269,2.648-1.8,3.225-4.636.991-4.855-.708-8.634-7.508-8.921-.238-.01-.452-.005-.675-.006-.039,0-.073-.007-.113-.008-7.854-.33-8.365,3.9-8.468,6.343a3.663,3.663,0,0,0,1.58,2.986,4.157,4.157,0,0,0,2.746,3.739c-.057,1.153-.147,3.016-.181,3.682a.682.682,0,0,0,.314.576l.044,6.589,6.727,11.289c-.055.1-.112.214-.164.3-.791,1.283-5.635,9.323-6.177,9.844a8.634,8.634,0,0,0-1.474,3.892c-.192,1.458-.043,6.934-.135,7.627a4.473,4.473,0,0,1-.89,2.058c-.448.575.711,1.643,1.225,2.194s1.52,2.662,2.321,3.77a6.353,6.353,0,0,1,1.056,2.884,15.859,15.859,0,0,0,2.169,3.758,6.571,6.571,0,0,1,1.578.434c.672.328,4.392,4.633,5.2,5.5s.843,2.185.963,3.267,1.66,3.5,1.894,2.909c.243-.61.676.1,1.116.725.23.34.49.438.7.358a2.363,2.363,0,0,0,2.057-.862c.243-.607.674.094,1.113.726s.974.491,1.068-.275.217-2.388.23-2.851a33.328,33.328,0,0,0-.482-4.488c-.208-.621,1.913-7.761,2.377-8.367s3.813-4.119,3.911-4.578a3.607,3.607,0,0,1,.977-1.638,5.376,5.376,0,0,0-.078,1.124c.118,2.708,5.586,5.489,9,4.363,3.725-1.233,4.165-5.891,2.891-7.071.259-.512.52-1.048.777-1.585l.01.006c-.011.025.272-.585.554-1.233.187-.427.367-.851.521-1.255-.135-.088-.287-.177-.434-.265a22.084,22.084,0,0,0,1.237-5.594C331.09,405.3,330.584,403.036,328.671,400.634Zm-5.5,10.543c-.678,1.322-1.316,2.332-1.976,3.6a1.137,1.137,0,0,0-.156-.147,3.1,3.1,0,0,0-2.216-.438c.3-1.315.592-2.607.711-3.132.233-1.022,1.4-8.394,1.9-10.717a7.313,7.313,0,0,1,3.3,2.422c1.672,2.585,1.707,3.4,1.2,5.845l-1.417,3.108C323.97,411.475,323.505,411.287,323.17,411.177Z"/>
      <path id="Path_50236" data-name="Path 50236" d="M308.812,446.69a4.229,4.229,0,0,1-1.907-.458,6.068,6.068,0,0,1-1.661.214,4.364,4.364,0,0,1-3.293-1.2c-2.871-.931-4.24-5.02-4.377-6.2l-.046-.445c-.027-.266-.064-.643-.109-.862-.207-.23-.5-.558-.842-.94-.707-.8-2.43-2.727-3.257-3.549a7,7,0,0,1-.765-.169c-3.057-.844-4.876-6.858-4.884-6.916a2.518,2.518,0,0,0-.354-1.146,26.312,26.312,0,0,1-1.463-2.385c-.206-.364-.508-.9-.659-1.128l-.06-.063c-3.083-3.2-2.4-5.575-1.292-7a.809.809,0,0,0,.106-.2c.015-.419.009-1.231.007-2.155a51.961,51.961,0,0,1,.136-5.479,12.428,12.428,0,0,1,2.4-5.93c.688-.95,3.479-5.523,4.75-7.612l-5.553-9.319a3.826,3.826,0,0,1-.541-1.938l-.037-5.506a4.376,4.376,0,0,1-.316-1.876l.072-1.47a7.774,7.774,0,0,1-2.33-3.822,7.2,7.2,0,0,1-1.889-5.077,10.317,10.317,0,0,1,2.237-6.542c2.127-2.5,5.579-3.676,10.225-3.48l.086.005h.05c.215,0,.429,0,.662.01,4.274.181,7.445,1.549,9.414,4.068,1.307,1.67,2.659,4.666,1.682,9.452-.73,3.59-2.576,6.214-5.041,7.26,0,.1-.008.184-.011.265a4.268,4.268,0,0,1-.779,2.248l-.243,2.051.08.239a14.137,14.137,0,0,1,4.829-4.346c1.3-.74,2.414-1.284,3.3-1.721a16.6,16.6,0,0,0,1.609-.847,2.092,2.092,0,0,1,.18-.158,9.021,9.021,0,0,0,.786-.714c.219-.3.86-1.165,3.7-2.665a4.072,4.072,0,0,1,2.057-.433s.081.005.214.02a25.827,25.827,0,0,1,3.756.206,5.339,5.339,0,0,1,3.8,1.981c.114.145.52.6.973,1.093.363.112.759.236,1.081.345.014,0,3.622,1.341,5.1,3.161a4.971,4.971,0,0,1-.393,6.97,3.88,3.88,0,0,0-.415.613c.656,1.075,1.737,2.944.764,4.936-.086.256-.206.662-.347,1.132a23.818,23.818,0,0,1-1.935,5.153l-.094.149a23,23,0,0,1,3.691,3.74h0c2.469,3.1,3.33,6.228,2.975,10.8a24.358,24.358,0,0,1-.875,4.777,3.823,3.823,0,0,1-.17,2.148c-.174.46-.378.943-.591,1.431-.232.533-.469,1.047-.551,1.227l-.006,0c-.018.039-.035.077-.053.115a8.588,8.588,0,0,1,.023,3.9,8.989,8.989,0,0,1-5.954,6.74c-3.757,1.241-7.889-.254-10.285-1.91-.1-.069-.2-.139-.295-.21l-.479.53c-.277.305-.525.578-.71.785a58.233,58.233,0,0,0-1.757,6.024,40.236,40.236,0,0,1,.45,4.821c-.017.6-.146,2.359-.261,3.248a4.413,4.413,0,0,1-3.292,3.889A4.28,4.28,0,0,1,308.812,446.69Zm1.9-3.534-.037.09Zm-5.184-1.466,0,.027Zm-5.792-1.646-.02.047C299.719,440.076,299.725,440.059,299.732,440.044Zm7.774-.056.028.041Zm-2.349-2.2a4.274,4.274,0,0,1,.478.259c-.075-.839-.183-1.855-.258-2.206a1.742,1.742,0,0,0,.063.218c-.855-2.553,2.282-11.019,2.968-11.915.214-.27.71-.827,1.318-1.5.562-.62,1.638-1.807,2.139-2.418a7.879,7.879,0,0,1,1.614-2.522,3.819,3.819,0,0,1,2.258-1.235,3.837,3.837,0,0,1-.654-3.139l.709-3.124c.081-.361.4-2.242.657-3.753.439-2.586.935-5.517,1.235-6.916a3.835,3.835,0,0,1,1.418-2.243,3.831,3.831,0,0,1-.153-2.58,5.9,5.9,0,0,1,1.826-3.208c.193-.259.553-.833.8-1.23.23-.452.832-2.443,1.088-3.292.034-.112.067-.218.1-.32a6.32,6.32,0,0,1-1.139-3.473,8.443,8.443,0,0,1,1.143-3.56c-.688-.23-1.7-.52-1.713-.524a3.843,3.843,0,0,1-1.745-1.072c-.308-.331-.884-.953-1.382-1.512a15.3,15.3,0,0,0-1.743-.1c-.255.15-.481.292-.627.393a14.5,14.5,0,0,1-1.689,1.616,13.9,13.9,0,0,1-3.346,2.017c-.841.413-1.794.879-2.9,1.5a6.265,6.265,0,0,0-2.759,2.82,32.157,32.157,0,0,1-2.212,3.3c-.481.669-.947,1.314-1.239,1.759-.04.063-.087.156-.138.255a3.829,3.829,0,0,1-1.921,1.778,3.844,3.844,0,0,1-.274,3.031c-.107.2-.183.338-.253.453l-.747,1.226c-4.412,7.253-5.329,8.613-5.809,9.151a7.21,7.21,0,0,0-.575,1.876c-.079.613-.073,3.113-.069,4.457a28.857,28.857,0,0,1-.067,3.179,7.891,7.891,0,0,1-.355,1.484,17.51,17.51,0,0,1,1.326,2.125c.326.577.731,1.294.993,1.655a9.7,9.7,0,0,1,1.678,4.144c.167.343.46.878.732,1.345a7.184,7.184,0,0,1,.974.392c.943.459,1.679,1.132,5.4,5.3.41.46.741.832.92,1.025A8.269,8.269,0,0,1,305.157,437.786Zm7.556-4.172c.028.085.055.179.082.282C312.772,433.806,312.745,433.711,312.713,433.614ZM295.1,424.431Zm24.017-1.746,0,.019Zm1.013-1.835c.74.723,2.881,1.6,3.932,1.251a1.448,1.448,0,0,0,.889-1.317,3.838,3.838,0,0,1-.222-3.84c.246-.486.5-.995.738-1.506l.005-.01c-.1.026-.2.048-.3.066-.19.339-.381.684-.573,1.053a3.839,3.839,0,0,1-4.971,1.727A3.829,3.829,0,0,1,320.132,420.85Zm5.415.636,0,0Zm-33.505-15.522-.017.016Zm-5.334-5.514c-.045.043-.1.093-.156.157C286.6,400.553,286.655,400.5,286.708,400.45Zm38.663-2.8-.118.078Zm-1.736-13.254q-.054.085-.1.171C323.566,384.507,323.6,384.451,323.635,384.394Zm-7.808-7.913-.032.042Zm-1.1-.111h0Zm2.444-.737.017.022ZM294.084,371.9h0Zm3.936-.471h0Zm-8.04-4.19a2.637,2.637,0,0,0,.288.142,3.836,3.836,0,0,1,2.358,3.193,3.84,3.84,0,0,1,3.546-2.621,1.383,1.383,0,0,0,.308-.037c.109-.048.219-.09.332-.127a4.483,4.483,0,0,0,.673-1.76,4.29,4.29,0,0,0-.207-3.2c-.5-.638-1.85-1.05-3.7-1.128-.111-.005-.206,0-.3,0h-.232c-.076,0-.151,0-.226-.008l-.074-.006c-2.4-.08-3.636.345-4.009.784a3.023,3.023,0,0,0-.4,1.613c.022.02.05.045.084.071a3.843,3.843,0,0,1,1.46,2.591,1.622,1.622,0,0,0,.109.491Zm-1.726-3.233Z"/>
    </g>
    <g id="Group_38388" data-name="Group 38388">
      <path id="Path_50237" data-name="Path 50237" d="M298.454,397.67l-9.471-15.891-.1-14.747s5.965-5.839,7.955-2.641l-1.818,15.4,5.514,16.559Z" fill="url(#linear-gradient)"/>
      <g id="Group_38378" data-name="Group 38378">
        <path id="Path_50238" data-name="Path 50238" d="M315.215,375.769s-.729-2.4-.339-2.938,4.2-.041,4.2-.041a1.644,1.644,0,0,1,1.123.5c.367.477,1.911,2.135,1.911,2.135s1.2.346,1.952.6a11.265,11.265,0,0,1,3.354,1.945c.513.635.576,1.1-.2,1.922a7.622,7.622,0,0,0-1.76,3.42c-.024.771,1.665,2.749,1.427,3.126s-1.342,4.74-2.058,5.88a7.842,7.842,0,0,1-1.654,2.188c-.457.292-1.254,4.279-1.579,5.2s-1.8,10.2-2.06,11.354-1.347,5.96-1.548,6.66c-.572,2.016-2.293,2.644-2.62,4.179-.1.459-3.436,3.98-3.911,4.578s-2.585,7.746-2.377,8.367a33.328,33.328,0,0,1,.482,4.488c-.013.463-.131,2.082-.23,2.851s-.634.9-1.068.275-.87-1.333-1.113-.726c-.239.585-2.364,1.462-2.488.38s.434-5.685-.376-6.554a48.549,48.549,0,0,0-5.251-4.543c-.668-.329-1.221-1.3-1.526-1.389a15.865,15.865,0,0,1-2.168-3.765,6.314,6.314,0,0,0-1.057-2.882c-.8-1.1-1.8-3.214-2.316-3.769s-1.678-1.62-1.224-2.194a4.493,4.493,0,0,0,.886-2.057c.1-.69-.054-6.168.133-7.625a8.778,8.778,0,0,1,1.473-3.9c.545-.52,5.394-8.562,6.186-9.849s1.862-4.416,2.652-5.627,2.757-3.776,3.237-4.689a9.984,9.984,0,0,1,4.289-4.426C312.443,377.222,314.355,376.587,315.215,375.769Z" fill="url(#linear-gradient-2)"/>
        <path id="Path_50239" data-name="Path 50239" d="M311.344,375.54a10.785,10.785,0,0,0,1.4-1.343,12.447,12.447,0,0,1,2.466-1.625,1.635,1.635,0,0,1,1.125.493c.366.473,1.908,2.136,1.908,2.136s1.2.343,1.956.6a11.445,11.445,0,0,1,3.356,1.944c.511.635.573,1.1-.206,1.926a7.6,7.6,0,0,0-1.758,3.418c-.026.774,1.66,2.747,1.425,3.128s-1.346,4.745-2.059,5.875a7.831,7.831,0,0,1-1.649,2.193c-.461.291-1.258,4.278-1.586,5.192s-1.8,10.207-2.053,11.36-1.355,5.957-1.552,6.661c-.567,2.017-2.294,2.644-2.62,4.181-.1.455-3.441,3.977-3.911,4.576s-2.586,7.75-2.38,8.373a32.939,32.939,0,0,1,.485,4.483c-.013.461-.135,2.077-.231,2.848s-.632.906-1.067.275-.873-1.335-1.116-.725c-.234.59-1.768-1.829-1.894-2.909s-.158-2.4-.963-3.267-4.53-5.173-5.2-5.5a6.571,6.571,0,0,0-1.578-.434,15.859,15.859,0,0,1-2.169-3.758,6.353,6.353,0,0,0-1.056-2.884c-.8-1.108-1.8-3.215-2.321-3.77s-1.673-1.619-1.225-2.194a4.473,4.473,0,0,0,.89-2.058c.092-.693-.057-6.169.135-7.627a8.634,8.634,0,0,1,1.474-3.892c.542-.521,5.386-8.561,6.177-9.844s1.868-4.424,2.659-5.634,2.756-3.777,3.235-4.69a10.032,10.032,0,0,1,4.292-4.426C308.575,377.006,310.489,376.365,311.344,375.54Z" fill="url(#linear-gradient-3)"/>
      </g>
      <path id="Path_50240" data-name="Path 50240" d="M329.571,414.387a22.269,22.269,0,0,0,1.25-5.64c.269-3.45-.237-5.711-2.15-8.113-3.394-4.265-6.3-4.925-6.3-4.925a2.169,2.169,0,0,0-2.643,1.572,2.4,2.4,0,0,0,.874,2.669c1.292.621,3.145,1.281,4.135,2.811,1.672,2.585,1.707,3.4,1.2,5.845l-1.618,3.547S328.8,415.348,329.571,414.387Z" fill="url(#linear-gradient-4)"/>
      <path id="Path_50241" data-name="Path 50241" d="M315.759,400.934a18.618,18.618,0,0,1-6.074,1.428A10.987,10.987,0,0,1,302,400.133s.217,1.115,2.073,2.026a14.239,14.239,0,0,0,5.236,1.225,27.975,27.975,0,0,0,7.8-.619s.9-2.093.321-2.3C317.137,400.353,316.605,400.487,315.759,400.934Z" fill="#3e3a39"/>
      <path id="Path_50242" data-name="Path 50242" d="M297.1,389.965s-.248,1.529,1.129,4.45a25.771,25.771,0,0,0,2.853,4.564s-.05,1.289-.817.728a53.306,53.306,0,0,1-2.9-6,17.118,17.118,0,0,1-.694-2.783A2.832,2.832,0,0,1,297.1,389.965Z" fill="#3e3a39"/>
      <g id="Group_38379" data-name="Group 38379">
        <path id="Path_50243" data-name="Path 50243" d="M300.52,398.576s2.878,2.236,3.684,3.009a3.637,3.637,0,0,1-1.724,2.739s-2.469-.452-3.159-2.023A4.644,4.644,0,0,1,300.52,398.576Z" fill="#3e3a39"/>
        <path id="Path_50244" data-name="Path 50244" d="M299.888,402.389s-2.851,4.846-1.546,13.209l2.937,3.656,2.235-3.7s-2.614-8.227-1.306-11.4Z" fill="#3e3a39"/>
      </g>
      <g id="Group_38385" data-name="Group 38385">
        <g id="Group_38384" data-name="Group 38384">
          <path id="Path_50245" data-name="Path 50245" d="M288.853,369.971s-.178,3.654-.228,4.643c-.083,1.745,7.44,1.566,7.493.32s.223-4.646.223-4.646Z" fill="url(#radial-gradient)"/>
          <g id="Group_38380" data-name="Group 38380">
            <path id="Path_50246" data-name="Path 50246" d="M293.589,370.173l-.236,5.692a13.366,13.366,0,0,1-2.031-.013l.235-5.763Z" fill="#393433"/>
          </g>
          <g id="Group_38383" data-name="Group 38383">
            <g id="Group_38382" data-name="Group 38382">
              <path id="Path_50247" data-name="Path 50247" d="M301.244,366.8c.991-4.855-.708-8.634-7.508-8.921-6.879-.294-7.559,3.3-7.735,7.713-.12,2.972.726,4.6,3.047,5.444,2.022.739,8.5.449,8.5.449C298.918,371.541,300.593,370,301.244,366.8Z" fill="url(#radial-gradient-2)"/>
              <path id="Path_50248" data-name="Path 50248" d="M300.641,364.893c-.5,2.121-3.108,4.214-8.875,3.973s-7.356-2.906-7.286-4.659c.1-2.446.614-6.673,8.468-6.343C300.513,358.181,301.449,361.466,300.641,364.893Z" fill="url(#radial-gradient-3)"/>
              <path id="Path_50249" data-name="Path 50249" d="M295.357,359.057c-.228.452.557,1.329,1.757,1.957s2.349.765,2.578.313-.552-1.331-1.753-1.957S295.587,358.6,295.357,359.057Z" fill="#bdbdbd"/>
              <g id="Group_38381" data-name="Group 38381">
                <path id="Path_50250" data-name="Path 50250" d="M294.73,368.927c-.922-.12-3.227-.627-3.264-1.764-.036-1.2,1.78-2.225,4.332-2.119,3.111.131,3.671,4.72,1.818,6.442-.023,0-.048,0-.072,0,0,0-2.48.11-4.844.019a1.335,1.335,0,0,1-.184-.246C291.8,369.976,294.02,369.121,294.73,368.927Z" fill="#7d7d7d"/>
              </g>
              <path id="Path_50251" data-name="Path 50251" d="M298,371.448c2.647-1.111,2.334-6.749-1.116-6.894-2.558-.108-4.7.538-4.658,1.748.031,1.132,2.666,1.718,3.588,1.843-.713.193-2.927,1.339-2.217,2.619C294.151,371.761,296.339,372.147,298,371.448Z" fill="url(#radial-gradient-4)"/>
            </g>
          </g>
        </g>
      </g>
      <g id="Group_38387" data-name="Group 38387">
        <path id="Path_50252" data-name="Path 50252" d="M321.038,414.626c1.8,1.09-.162,8.415-1.632,7.628-3.1-1.657-4.174-3.329-3.117-5.582C317.857,413.318,320.056,414.036,321.038,414.626Z" fill="url(#radial-gradient-5)"/>
        <path id="Path_50253" data-name="Path 50253" d="M323.17,411.177c-.708,1.383-1.373,2.416-2.066,3.766-1.628.58-4.995,2.914-4.84,6.438.118,2.708,5.586,5.489,9,4.363,3.725-1.233,4.165-5.891,2.891-7.071.661-1.314,1.37-2.776,1.862-4.067A42.243,42.243,0,0,0,323.17,411.177Z" fill="url(#radial-gradient-6)"/>
        <g id="Group_38386" data-name="Group 38386">
          <path id="Path_50254" data-name="Path 50254" d="M326.809,414.2l2.77,1.476c-.307.715-.649,1.448-.636,1.423l-2.852-1.516Z" fill="#bfbfbf"/>
        </g>
      </g>
    </g>
  </g>
</svg>
