<svg xmlns="http://www.w3.org/2000/svg" width="48" height="48" viewBox="0 0 48 48">
  <g id="m-icon" transform="translate(-69 -3090)">
    <g id="Rectangle_26812" data-name="Rectangle 26812" transform="translate(69 3090)" fill="#fff" stroke="#707070" stroke-width="1" opacity="0">
      <rect width="48" height="48" stroke="none"/>
      <rect x="0.5" y="0.5" width="47" height="47" fill="none"/>
    </g>
    <g id="Group_38533" data-name="Group 38533" transform="translate(-339.893 2868.5)">
      <rect id="Rectangle_26728" data-name="Rectangle 26728" width="3.273" height="1.636" transform="translate(423.075 262.5)" fill="#be9849"/>
      <rect id="Rectangle_26729" data-name="Rectangle 26729" width="3.273" height="1.636" transform="translate(426.348 260.864)" fill="#be9849"/>
      <rect id="Rectangle_26730" data-name="Rectangle 26730" width="1.636" height="9.818" transform="translate(431.257 251.045)" fill="#be9849"/>
      <rect id="Rectangle_26731" data-name="Rectangle 26731" width="1.636" height="1.636" transform="translate(429.621 249.409)" fill="#be9849"/>
      <rect id="Rectangle_26732" data-name="Rectangle 26732" width="1.636" height="1.636" transform="translate(427.984 247.773)" fill="#be9849"/>
      <path id="Path_51862" data-name="Path 51862" d="M424.166,228.5h-3.273v16.364h1.636V246.5h1.636Z" transform="translate(3.818 1.272)" fill="#be9849"/>
      <rect id="Rectangle_26733" data-name="Rectangle 26733" width="1.636" height="9.818" transform="translate(414.893 229.773)" fill="#be9849"/>
      <path id="Path_51863" data-name="Path 51863" d="M426.8,250.773v-1.636h1.636V247.5h-3.273v1.636h-3.273v1.636Z" transform="translate(4.454 13.363)" fill="#f7d644"/>
      <rect id="Rectangle_26734" data-name="Rectangle 26734" width="1.636" height="1.636" transform="translate(421.439 262.5)" fill="#f7d644"/>
      <rect id="Rectangle_26735" data-name="Rectangle 26735" width="1.636" height="1.636" transform="translate(424.712 260.864)" fill="#f7d644"/>
      <rect id="Rectangle_26736" data-name="Rectangle 26736" width="1.636" height="1.636" transform="translate(436.166 251.045)" fill="#f7d644"/>
      <rect id="Rectangle_26737" data-name="Rectangle 26737" width="1.636" height="1.636" transform="translate(437.802 249.409)" fill="#f7d644"/>
      <rect id="Rectangle_26738" data-name="Rectangle 26738" width="1.636" height="1.636" transform="translate(439.439 247.773)" fill="#f7d644"/>
      <rect id="Rectangle_26739" data-name="Rectangle 26739" width="1.636" height="1.636" transform="translate(441.075 246.136)" fill="#f7d644"/>
      <rect id="Rectangle_26740" data-name="Rectangle 26740" width="1.636" height="1.636" transform="translate(444.348 241.227)" fill="#f7d644"/>
      <rect id="Rectangle_26741" data-name="Rectangle 26741" width="1.636" height="1.636" transform="translate(445.984 239.591)" fill="#f7d644"/>
      <rect id="Rectangle_26742" data-name="Rectangle 26742" width="1.636" height="6.545" transform="translate(447.621 233.045)" fill="#f7d644"/>
      <rect id="Rectangle_26743" data-name="Rectangle 26743" width="1.636" height="1.636" transform="translate(447.621 229.773)" fill="#f7d644"/>
      <rect id="Rectangle_26744" data-name="Rectangle 26744" width="1.636" height="1.636" transform="translate(419.802 262.5)" fill="#d7bd61"/>
      <rect id="Rectangle_26745" data-name="Rectangle 26745" width="1.636" height="1.636" transform="translate(423.075 260.864)" fill="#d7bd61"/>
      <rect id="Rectangle_26746" data-name="Rectangle 26746" width="1.636" height="1.636" transform="translate(419.802 242.864)" fill="#d7bd61"/>
      <rect id="Rectangle_26747" data-name="Rectangle 26747" width="1.636" height="1.636" transform="translate(418.166 241.227)" fill="#d7bd61"/>
      <rect id="Rectangle_26748" data-name="Rectangle 26748" width="1.636" height="1.636" transform="translate(416.53 239.591)" fill="#d7bd61"/>
      <path id="Path_51864" data-name="Path 51864" d="M418.894,227.5v3.273h1.636v1.636h-1.636v9.818h1.636v1.636h-1.636V245.5h1.636v1.636h1.636v1.636H423.8v1.636h1.636v1.636h1.636v8.182h1.636v-9.818h-1.636v-1.636h-1.636v-1.636H423.8V245.5h-1.636V229.136h4.909V245.5h-1.636v1.636h1.636v1.636h1.636v1.636h1.636v3.273h3.273v-1.636h-1.636v-1.636h1.636v-1.636h1.636v-1.636h1.636V245.5h-8.182V229.136H441.8V227.5Z" transform="translate(2.545 0.636)" fill="#d7bd61"/>
      <path id="Path_51865" data-name="Path 51865" d="M431.53,250.773h4.909v-1.636h-3.273V247.5h-3.273v1.636h1.636Z" transform="translate(9.545 13.363)" fill="#fefa57"/>
      <path id="Path_51866" data-name="Path 51866" d="M424.894,253.318h8.182v-1.636H429.8v-1.636h-1.636V243.5H426.53v8.182h-1.636Z" transform="translate(6.363 10.818)" fill="#fefa57"/>
      <rect id="Rectangle_26749" data-name="Rectangle 26749" width="1.636" height="1.636" transform="translate(434.53 251.045)" fill="#fefa57"/>
      <rect id="Rectangle_26750" data-name="Rectangle 26750" width="1.636" height="1.636" transform="translate(436.166 249.409)" fill="#fefa57"/>
      <rect id="Rectangle_26751" data-name="Rectangle 26751" width="1.636" height="1.636" transform="translate(437.802 247.773)" fill="#fefa57"/>
      <rect id="Rectangle_26752" data-name="Rectangle 26752" width="1.636" height="1.636" transform="translate(439.439 246.136)" fill="#fefa57"/>
      <rect id="Rectangle_26753" data-name="Rectangle 26753" width="6.545" height="16.364" transform="translate(431.257 229.773)" fill="#fefa57"/>
      <rect id="Rectangle_26754" data-name="Rectangle 26754" width="1.636" height="16.364" transform="translate(427.984 229.773)" fill="#fefa57"/>
      <rect id="Rectangle_26755" data-name="Rectangle 26755" width="1.636" height="1.636" transform="translate(421.439 242.864)" fill="#fefa57"/>
      <rect id="Rectangle_26756" data-name="Rectangle 26756" width="1.636" height="1.636" transform="translate(445.984 241.227)" fill="#fefa57"/>
      <rect id="Rectangle_26757" data-name="Rectangle 26757" width="1.636" height="1.636" transform="translate(419.802 241.227)" fill="#fefa57"/>
      <rect id="Rectangle_26758" data-name="Rectangle 26758" width="1.636" height="1.636" transform="translate(447.621 239.591)" fill="#fefa57"/>
      <rect id="Rectangle_26759" data-name="Rectangle 26759" width="1.636" height="1.636" transform="translate(418.166 239.591)" fill="#fefa57"/>
      <path id="Path_51867" data-name="Path 51867" d="M417.53,231.773h4.909v-1.636H417.53V228.5h-1.636v9.818h1.636Z" transform="translate(0.636 1.272)" fill="#fefa57"/>
      <rect id="Rectangle_26760" data-name="Rectangle 26760" width="1.636" height="4.909" transform="translate(449.257 233.045)" fill="#fefa57"/>
      <path id="Path_51868" data-name="Path 51868" d="M430.894,244.864h3.273v-1.636H435.8v-1.636h-1.636v-9.818h4.909v-1.636h-4.909V228.5h-3.273Z" transform="translate(10.182 1.272)" fill="#fefa57"/>
      <rect id="Rectangle_26761" data-name="Rectangle 26761" width="3.273" height="1.636" transform="translate(442.712 226.5)" fill="#fefa57"/>
      <rect id="Rectangle_26762" data-name="Rectangle 26762" width="19.636" height="1.636" transform="translate(419.802 226.5)" fill="#fefa57"/>
      <rect id="Rectangle_26763" data-name="Rectangle 26763" width="1.636" height="1.636" transform="translate(439.439 262.5)" fill="#fffc95"/>
      <rect id="Rectangle_26764" data-name="Rectangle 26764" width="3.273" height="1.636" transform="translate(436.166 260.864)" fill="#fffc95"/>
      <rect id="Rectangle_26765" data-name="Rectangle 26765" width="1.636" height="6.545" transform="translate(434.53 254.318)" fill="#fffc95"/>
      <rect id="Rectangle_26766" data-name="Rectangle 26766" width="1.636" height="1.636" transform="translate(449.257 237.955)" fill="#fffc95"/>
      <rect id="Rectangle_26767" data-name="Rectangle 26767" width="1.636" height="3.273" transform="translate(449.257 229.773)" fill="#fffc95"/>
      <rect id="Rectangle_26768" data-name="Rectangle 26768" width="3.273" height="16.364" transform="translate(437.802 229.773)" fill="#fffc95"/>
      <rect id="Rectangle_26769" data-name="Rectangle 26769" width="3.273" height="1.636" transform="translate(439.439 226.5)" fill="#fffc95"/>
    </g>
  </g>
</svg>
