<svg xmlns="http://www.w3.org/2000/svg" xmlns:xlink="http://www.w3.org/1999/xlink" width="119.2" height="108.834" viewBox="0 0 119.2 108.834">
  <defs>
    <clipPath id="clip-path">
      <rect id="Rectangle_25442" data-name="Rectangle 25442" width="119.2" height="108.834" transform="translate(0)" fill="#fff" stroke="#707070" stroke-width="1"/>
    </clipPath>
  </defs>
  <g id="nav-1" transform="translate(2280 1154)">
    <g id="nav-1-2" data-name="nav-1" transform="translate(-2280 -1154)" clip-path="url(#clip-path)">
      <g id="Group_38421" data-name="Group 38421" transform="translate(5.247)">
        <path id="Path_50301" data-name="Path 50301" d="M-1760.224,2611.9v14.878h10.076v-10.134h10.564V2611.9h31.809v4.744h6.5V2602.23h-5.008v-5.088h-4.145v-5.44h-30.653v5.44h-9.07v5.088h-5.478v9.668Z" transform="translate(1760.785 -2573.707)" fill="#582726"/>
        <path id="Path_50302" data-name="Path 50302" d="M-1755.1,2643.66h-4.873v-10.19h10.23V2624h9.587v-4.853h34.042V2624h5.6v39.72h-5.6v4.821h-43.629v-4.821h-5.357Z" transform="translate(1759.975 -2581.385)" fill="#edd5c2"/>
        <path id="Path_50303" data-name="Path 50303" d="M-1734.622,2638.77v9.632h6.029v-9.632Z" transform="translate(1753.571 -2586.343)" fill="#221e2a"/>
        <path id="Path_50304" data-name="Path 50304" d="M-1734.622,2638.77v9.632h6.029v-9.632Z" transform="translate(1778.236 -2586.343)" fill="#221e2a"/>
        <path id="Path_50305" data-name="Path 50305" d="M-1728.033,2658.621v4.764h4.87v-4.764Z" transform="translate(1751.907 -2589.115)" fill="#e2c2ab"/>
        <path id="Path_50306" data-name="Path 50306" d="M-1711.218,2665h-10.371v5.316h10.371Z" transform="translate(1750.28 -2590.725)" fill="#e2c2ab"/>
        <path id="Path_50307" data-name="Path 50307" d="M-1707.714,2658.621v4.485h4.764v-4.485Z" transform="translate(1746.775 -2589.115)" fill="#e2c2ab"/>
        <path id="Path_50308" data-name="Path 50308" d="M-1759.975,2541.213v4.932h5.045V2565.8h5.533v4.8h43.462v-4.8h5.863v-5.009h-5.863v5.009h-39.527v-10.128h-5.171v-14.456Z" transform="translate(1759.975 -2483.97)" fill="#e2c2ab"/>
        <path id="Path_50310" data-name="Path 50310" d="M-1741.282,2581.229v3.659h-10.333v4.028h-4.167v14.793h-5.206v15.843h9.373v-10.76h5.79v10.76h29.035v-34.664h-3.953v-3.659Z" transform="translate(1761.726 -2494.078)" fill="#b9dedd"/>
        <path id="Path_50309" data-name="Path 50309" d="M-1728.033,2684.744v5.018h10.568v-5.018Z" transform="translate(1751.907 -2597.954)" fill="#e2c2ab"/>
        <path id="Path_50311" data-name="Path 50311" d="M-1728.033,2587.458v5.014h5.011v18.919h5.7v-23.934Z" transform="translate(1751.907 -2495.651)" fill="#00bcd1"/>
        <path id="Path_50314" data-name="Path 50314" d="M0,9.02V4.673H3.829V0H8.585V9.02Z" transform="translate(75.711 98.898) rotate(90)" fill="#edd5c2"/>
        <g id="Group_38419" data-name="Group 38419" transform="translate(0.728)">
          <rect id="Rectangle_20960" data-name="Rectangle 20960" width="25.23" height="3.154" transform="translate(3.154 25.23)" fill="#d99a36"/>
          <rect id="Rectangle_20961" data-name="Rectangle 20961" width="25.23" height="3.154" transform="translate(3.154 18.922)" fill="#d99a36"/>
          <rect id="Rectangle_20962" data-name="Rectangle 20962" width="3.154" height="6.307" transform="translate(0 28.383)" fill="#e8bc48"/>
          <rect id="Rectangle_20963" data-name="Rectangle 20963" width="18.922" height="6.307" transform="translate(9.461 28.383)" fill="#e8bc48"/>
          <rect id="Rectangle_20964" data-name="Rectangle 20964" width="28.383" height="3.154" transform="translate(28.383 25.23)" fill="#e8bc48"/>
          <rect id="Rectangle_20965" data-name="Rectangle 20965" width="18.922" height="3.154" transform="translate(9.461 22.076)" fill="#e8bc48"/>
          <rect id="Rectangle_20966" data-name="Rectangle 20966" width="3.154" height="3.154" transform="translate(0 22.076)" fill="#e8bc48"/>
          <rect id="Rectangle_20967" data-name="Rectangle 20967" width="28.383" height="3.154" transform="translate(28.383 18.922)" fill="#e8bc48"/>
          <rect id="Rectangle_20968" data-name="Rectangle 20968" width="3.154" height="18.922" transform="translate(0 0)" fill="#e8bc48"/>
          <path id="Path_50173" data-name="Path 50173" d="M356.5,206.859h-3.154v3.154h-3.154v3.154h-3.154v6.307h-6.308v-6.307h-3.154v9.461H356.5Z" transform="translate(-328.116 -203.705)" fill="#e8bc48"/>
          <rect id="Rectangle_20969" data-name="Rectangle 20969" width="12.615" height="6.307" transform="translate(47.306 28.383)" fill="#fff268"/>
          <rect id="Rectangle_20970" data-name="Rectangle 20970" width="15.769" height="6.307" transform="translate(28.383 28.383)" fill="#fff268"/>
          <rect id="Rectangle_20971" data-name="Rectangle 20971" width="6.307" height="6.307" transform="translate(3.154 28.383)" fill="#fff268"/>
          <rect id="Rectangle_20972" data-name="Rectangle 20972" width="12.615" height="3.154" transform="translate(47.306 22.076)" fill="#fff268"/>
          <rect id="Rectangle_20973" data-name="Rectangle 20973" width="15.769" height="3.154" transform="translate(28.383 22.076)" fill="#fff268"/>
          <rect id="Rectangle_20974" data-name="Rectangle 20974" width="6.307" height="3.154" transform="translate(3.154 22.076)" fill="#fff268"/>
          <path id="Path_50174" data-name="Path 50174" d="M420.5,219.922V201h-3.154v3.154h-3.154v3.154h-3.154v3.154h-3.154v9.461Z" transform="translate(-360.579 -201)" fill="#fff268"/>
          <path id="Path_50175" data-name="Path 50175" d="M388.5,219.922v-3.154h-3.154v-6.307h-3.154v-3.154h-3.154v-3.154h-3.154V201h-3.154v18.922Z" transform="translate(-344.348 -201)" fill="#fff268"/>
          <path id="Path_50176" data-name="Path 50176" d="M332.166,222.628V210.013h-3.154v-3.154h-3.154v15.769Z" transform="translate(-322.706 -203.705)" fill="#fff268"/>
          <rect id="Rectangle_20975" data-name="Rectangle 20975" width="3.154" height="6.307" transform="translate(44.152 28.383)" fill="#caff94"/>
          <rect id="Rectangle_20976" data-name="Rectangle 20976" width="3.154" height="3.154" transform="translate(44.152 22.076)" fill="#caff94"/>
          <rect id="Rectangle_20977" data-name="Rectangle 20977" width="3.154" height="3.154" transform="translate(44.152 15.769)" fill="#caff94"/>
        </g>
        <path id="Path_50316" data-name="Path 50316" d="M0,31.633H7.834v-7.8h7.224V0H7.834V11.489h-5.2v9.476H0Z" transform="translate(67.556 91.813) rotate(90)" fill="#b9dedd"/>
      </g>
    </g>
    <g id="Group_38422" data-name="Group 38422" transform="translate(-2210.035 -1084.961)">
      <rect id="Rectangle_11848" data-name="Rectangle 11848" width="7.416" height="2.472" transform="translate(22.249 7.417)" fill="#f6757a"/>
      <rect id="Rectangle_11849" data-name="Rectangle 11849" width="14.833" height="14.834" transform="translate(29.665 19.778)" fill="#ecf0f1"/>
      <rect id="Rectangle_11850" data-name="Rectangle 11850" width="7.416" height="14.834" transform="translate(14.833 19.778)" fill="#ecf0f1"/>
      <rect id="Rectangle_11851" data-name="Rectangle 11851" width="17.305" height="9.889" transform="translate(29.665 7.417)" fill="#ecf0f1"/>
      <rect id="Rectangle_11852" data-name="Rectangle 11852" width="9.888" height="9.889" transform="translate(12.361 7.417)" fill="#ecf0f1"/>
      <rect id="Rectangle_11853" data-name="Rectangle 11853" width="14.833" height="2.472" transform="translate(29.665 17.306)" fill="#c0cbdc"/>
      <path id="Path_49641" data-name="Path 49641" d="M182.361,568.889V559H170v9.889h2.472v17.306h12.361V571.361h7.416v-2.472Z" transform="translate(-170 -551.583)" fill="#c0cbdc"/>
      <rect id="Rectangle_11854" data-name="Rectangle 11854" width="7.416" height="24.723" transform="translate(22.249 9.889)" fill="#e43b44"/>
      <path id="Path_49642" data-name="Path 49642" d="M184.888,560.945h-2.472v-2.472h-2.472V556H175v7.417h9.888Z" transform="translate(-162.639 -556)" fill="#e43b44"/>
      <path id="Path_49643" data-name="Path 49643" d="M184.944,556v2.472h-2.472v2.472H180v2.472h9.889V556Z" transform="translate(-155.279 -556)" fill="#e43b44"/>
    </g>
  </g>
</svg>
