<svg xmlns="http://www.w3.org/2000/svg" xmlns:xlink="http://www.w3.org/1999/xlink" width="192.04" height="87.906" viewBox="0 0 192.04 87.906">
  <defs>
    <clipPath id="clip-path">
      <rect id="Rectangle_25442" data-name="Rectangle 25442" width="96.278" height="87.906" fill="#fff" stroke="#707070" stroke-width="1"/>
    </clipPath>
  </defs>
  <g id="nav-3" transform="translate(-687.34 -3122.961)">
    <g id="nav-2" transform="translate(1832.035 1026.458)">
      <path id="Path_50320" data-name="Path 50320" d="M-1106.892,2163.066v12.569h-4.331v4.645h-5.545v3.858h-28.584v-3.858h-4.619v-4.645h-3.852V2158.05h-4.257V2146h50.576Z" transform="translate(114.46 -19.191)" fill="#edd5c2"/>
      <path id="Path_50318" data-name="Path 50318" d="M-1121.7,2131.05h-3.808v4.294h-39.67v4.51h-7.8v6.485h7.8v-1.925h4.848v-3.948h21.668v3.948h13.154v12.827h3.808v4.451h4.437v-4.451h4.9v-12.827h-4.9v3.814h-4.437V2131.05Z" transform="translate(129.048 -13.393)" fill="#53140d"/>
      <rect id="Rectangle_25451" data-name="Rectangle 25451" width="4.287" height="8.572" transform="translate(-1005.341 2131.097)" fill="#0b122f"/>
      <rect id="Rectangle_25452" data-name="Rectangle 25452" width="4.287" height="8.572" transform="translate(-1031.061 2131.097)" fill="#0b122f"/>
      <path id="Path_50319" data-name="Path 50319" d="M-1116.041,2167v9.077h-4.461v3.1h-11.237v-3.1H-1137V2167Z" transform="translate(110.7 -23.551)" fill="#fff"/>
      <path id="Path_50321" data-name="Path 50321" d="M-1070.264,2167v4.685h-10.714v4.741h5.164v5.775h10.121V2167Z" transform="translate(26.659 -28.555)" fill="#53140d"/>
      <path id="Path_50322" data-name="Path 50322" d="M-1177.873,2186.893v4.944h9.694v4.831h-5.368v4.545h-7.133v3.657h-9.633v4.066h-4.238v-7.724h4.238v-4.545h9.633v-9.775Z" transform="translate(198.081 -35.042)" fill="#edd5c2"/>
      <path id="Path_50323" data-name="Path 50323" d="M-1054.59,2204.71h-12.587v-4.267h-7.863v-4.27h-5.938v-4.541h9.378v-3.906h4.423v8.447h12.587Z" transform="translate(14.943 -31.079)" fill="#edd5c2"/>
      <path id="Path_50324" data-name="Path 50324" d="M-1107.189,2208.281v8.886h-8.459v10.576h-26.3v-10.576h-9.266v-8.886Z" transform="translate(110.553 -43.335)" fill="#2e7e9c"/>
      <path id="Path_50325" data-name="Path 50325" d="M-1118.689,2215.463v5.06h4.019v7.734h-4.019v-4h-3.874v-8.8Z" transform="translate(100.488 -46.119)" fill="#fefefe"/>
      <rect id="Rectangle_20960" data-name="Rectangle 20960" width="18.499" height="2.312" transform="translate(-1013.243 2115)" fill="#d99a36"/>
      <rect id="Rectangle_20961" data-name="Rectangle 20961" width="18.499" height="2.312" transform="translate(-1013.243 2110.376)" fill="#d99a36"/>
      <rect id="Rectangle_20962" data-name="Rectangle 20962" width="2.312" height="4.624" transform="translate(-994.744 2117.313)" fill="#e8bc48"/>
      <rect id="Rectangle_20963" data-name="Rectangle 20963" width="13.874" height="4.624" transform="translate(-1013.243 2117.313)" fill="#e8bc48"/>
      <rect id="Rectangle_20964" data-name="Rectangle 20964" width="20.811" height="2.312" transform="translate(-1034.054 2115)" fill="#e8bc48"/>
      <rect id="Rectangle_20965" data-name="Rectangle 20965" width="13.874" height="2.312" transform="translate(-1013.243 2112.688)" fill="#e8bc48"/>
      <rect id="Rectangle_20966" data-name="Rectangle 20966" width="2.312" height="2.312" transform="translate(-994.744 2112.688)" fill="#e8bc48"/>
      <rect id="Rectangle_20967" data-name="Rectangle 20967" width="20.811" height="2.312" transform="translate(-1034.054 2110.376)" fill="#e8bc48"/>
      <rect id="Rectangle_20968" data-name="Rectangle 20968" width="2.312" height="13.873" transform="translate(-994.744 2096.503)" fill="#e8bc48"/>
      <path id="Path_50173" data-name="Path 50173" d="M337.577,206.859h2.312v2.312H342.2v2.312h2.312v4.624h4.625v-4.624h2.312v6.936H337.577Z" transform="translate(-1350.82 1891.956)" fill="#e8bc48"/>
      <rect id="Rectangle_20969" data-name="Rectangle 20969" width="9.249" height="4.624" transform="translate(-1036.366 2117.313)" fill="#fff268"/>
      <rect id="Rectangle_20970" data-name="Rectangle 20970" width="11.562" height="4.624" transform="translate(-1024.804 2117.313)" fill="#fff268"/>
      <rect id="Rectangle_20971" data-name="Rectangle 20971" width="4.625" height="4.624" transform="translate(-999.369 2117.313)" fill="#fff268"/>
      <rect id="Rectangle_20972" data-name="Rectangle 20972" width="9.249" height="2.312" transform="translate(-1036.366 2112.688)" fill="#fff268"/>
      <rect id="Rectangle_20973" data-name="Rectangle 20973" width="11.562" height="2.312" transform="translate(-1024.804 2112.688)" fill="#fff268"/>
      <rect id="Rectangle_20974" data-name="Rectangle 20974" width="4.625" height="2.312" transform="translate(-999.369 2112.688)" fill="#fff268"/>
      <path id="Path_50174" data-name="Path 50174" d="M407.885,214.873V201H410.2v2.312h2.312v2.312h2.312v2.312h2.312v6.936Z" transform="translate(-1444.251 1895.503)" fill="#fff268"/>
      <path id="Path_50175" data-name="Path 50175" d="M372.731,214.873v-2.312h2.312v-4.624h2.312v-2.312h2.312v-2.312h2.312V201h2.312v13.873Z" transform="translate(-1397.536 1895.503)" fill="#fff268"/>
      <path id="Path_50176" data-name="Path 50176" d="M325.859,218.42v-9.248h2.312v-2.312h2.312V218.42Z" transform="translate(-1325.228 1891.956)" fill="#fff268"/>
      <rect id="Rectangle_20975" data-name="Rectangle 20975" width="2.312" height="4.624" transform="translate(-1027.117 2117.313)" fill="#caff94"/>
      <rect id="Rectangle_20976" data-name="Rectangle 20976" width="2.312" height="2.312" transform="translate(-1027.117 2112.688)" fill="#caff94"/>
      <rect id="Rectangle_20977" data-name="Rectangle 20977" width="2.312" height="2.312" transform="translate(-1027.117 2108.064)" fill="#caff94"/>
      <rect id="Rectangle_11848" data-name="Rectangle 11848" width="4.542" height="1.514" transform="translate(-970.821 2140.561)" fill="#f6757a"/>
      <rect id="Rectangle_11849" data-name="Rectangle 11849" width="9.083" height="9.083" transform="translate(-979.904 2148.13)" fill="#ecf0f1"/>
      <rect id="Rectangle_11850" data-name="Rectangle 11850" width="4.542" height="9.083" transform="translate(-966.28 2148.13)" fill="#ecf0f1"/>
      <rect id="Rectangle_11851" data-name="Rectangle 11851" width="10.597" height="6.055" transform="translate(-981.418 2140.561)" fill="#ecf0f1"/>
      <rect id="Rectangle_11852" data-name="Rectangle 11852" width="6.055" height="6.055" transform="translate(-966.28 2140.561)" fill="#ecf0f1"/>
      <rect id="Rectangle_11853" data-name="Rectangle 11853" width="9.083" height="1.514" transform="translate(-979.904 2146.616)" fill="#c0cbdc"/>
      <path id="Path_49641" data-name="Path 49641" d="M176.055,565.055V559h7.569v6.055h-1.514v10.6h-7.569v-9.083H170v-1.514Z" transform="translate(-1136.28 1581.561)" fill="#c0cbdc"/>
      <rect id="Rectangle_11854" data-name="Rectangle 11854" width="4.542" height="15.138" transform="translate(-970.821 2142.075)" fill="#e43b44"/>
      <path id="Path_49642" data-name="Path 49642" d="M175,559.028h1.514v-1.514h1.514V556h3.028v4.542H175Z" transform="translate(-1141.279 1580.02)" fill="#e43b44"/>
      <path id="Path_49643" data-name="Path 49643" d="M183.027,556v1.514h1.514v1.514h1.514v1.514H180V556Z" transform="translate(-1153.849 1580.02)" fill="#e43b44"/>
    </g>
    <g id="nav-1" transform="translate(688.401 3122.961)" clip-path="url(#clip-path)">
      <g id="Group_38421" data-name="Group 38421" transform="translate(30.888)">
        <path id="Path_50301" data-name="Path 50301" d="M-1712.611,2608.016v12.017h-8.138v-8.186h-8.533v-3.832h-25.692v3.832h-5.25v-11.642h4.045V2596.1h3.348V2591.7h24.759v4.394h7.326v4.109h4.425v7.809Z" transform="translate(1773.31 -2577.167)" fill="#582726"/>
        <path id="Path_50302" data-name="Path 50302" d="M-1715.884,2638.947h3.936v-8.23h-8.263v-7.649h-7.744v-3.92h-27.5v3.92h-4.523v32.082h4.523v3.894h35.24v-3.894h4.327Z" transform="translate(1773.098 -2588.646)" fill="#edd5c2"/>
        <path id="Path_50303" data-name="Path 50303" d="M-1729.752,2638.77v7.78h-4.87v-7.78Z" transform="translate(1775.599 -2596.425)" fill="#221e2a"/>
        <path id="Path_50304" data-name="Path 50304" d="M-1729.752,2638.77v7.78h-4.87v-7.78Z" transform="translate(1755.677 -2596.425)" fill="#221e2a"/>
        <path id="Path_50305" data-name="Path 50305" d="M-1724.1,2658.621v3.848h-3.933v-3.848Z" transform="translate(1765.969 -2602.48)" fill="#e2c2ab"/>
        <path id="Path_50306" data-name="Path 50306" d="M-1721.589,2665h8.377v4.294h-8.377Z" transform="translate(1751.191 -2605.008)" fill="#e2c2ab"/>
        <path id="Path_50307" data-name="Path 50307" d="M-1703.866,2658.621v3.623h-3.848v-3.623Z" transform="translate(1733.468 -2602.48)" fill="#e2c2ab"/>
        <path id="Path_50308" data-name="Path 50308" d="M-1711.591,2541.213v3.983h-4.075v15.876h-4.469v3.877h-35.1v-3.877h-4.735v-4.046h4.735v4.046h31.926v-8.181h4.177v-11.676Z" transform="translate(1772.743 -2494.978)" fill="#e2c2ab"/>
        <path id="Path_50310" data-name="Path 50310" d="M-1741.205,2581.229v2.956h8.346v3.253h3.366v11.948h4.2v12.8h-7.571v-8.691h-4.677v8.691h-23.452v-28h3.193v-2.956Z" transform="translate(1785.845 -2510.837)" fill="#b9dedd"/>
        <path id="Path_50309" data-name="Path 50309" d="M-1719.5,2684.744v4.053h-8.536v-4.053Z" transform="translate(1761.366 -2614.643)" fill="#e2c2ab"/>
        <path id="Path_50311" data-name="Path 50311" d="M-1719.382,2587.458v4.05h-4.047v15.281h-4.6v-19.331Z" transform="translate(1761.251 -2513.305)" fill="#00bcd1"/>
        <path id="Path_50314" data-name="Path 50314" d="M0,0V3.511H3.093V7.286H6.934V0Z" transform="translate(7.286 79.88) rotate(90)" fill="#edd5c2"/>
        <g id="Group_38419" data-name="Group 38419" transform="translate(12.166)">
          <rect id="Rectangle_20960-2" data-name="Rectangle 20960" width="20.378" height="2.548" transform="translate(25.473 20.378)" fill="#d99a36"/>
          <rect id="Rectangle_20961-2" data-name="Rectangle 20961" width="20.378" height="2.548" transform="translate(25.473 15.283)" fill="#d99a36"/>
          <rect id="Rectangle_20962-2" data-name="Rectangle 20962" width="2.548" height="5.094" transform="translate(45.851 22.925)" fill="#e8bc48"/>
          <rect id="Rectangle_20963-2" data-name="Rectangle 20963" width="15.283" height="5.094" transform="translate(25.473 22.925)" fill="#e8bc48"/>
          <rect id="Rectangle_20964-2" data-name="Rectangle 20964" width="22.925" height="2.548" transform="translate(2.548 20.378)" fill="#e8bc48"/>
          <rect id="Rectangle_20965-2" data-name="Rectangle 20965" width="15.283" height="2.548" transform="translate(25.473 17.831)" fill="#e8bc48"/>
          <rect id="Rectangle_20966-2" data-name="Rectangle 20966" width="2.548" height="2.548" transform="translate(45.851 17.831)" fill="#e8bc48"/>
          <rect id="Rectangle_20967-2" data-name="Rectangle 20967" width="22.925" height="2.548" transform="translate(2.548 15.283)" fill="#e8bc48"/>
          <rect id="Rectangle_20968-2" data-name="Rectangle 20968" width="2.548" height="15.283" transform="translate(45.851)" fill="#e8bc48"/>
          <path id="Path_50173-2" data-name="Path 50173" d="M337.576,206.859h2.548v2.547h2.548v2.548h2.547v5.094h5.1v-5.094h2.548V219.6H337.576Z" transform="translate(-312.103 -204.312)" fill="#e8bc48"/>
          <rect id="Rectangle_20969-2" data-name="Rectangle 20969" width="10.189" height="5.094" transform="translate(0 22.925)" fill="#fff268"/>
          <rect id="Rectangle_20970-2" data-name="Rectangle 20970" width="12.737" height="5.094" transform="translate(12.737 22.925)" fill="#fff268"/>
          <rect id="Rectangle_20971-2" data-name="Rectangle 20971" width="5.094" height="5.094" transform="translate(40.757 22.925)" fill="#fff268"/>
          <rect id="Rectangle_20972-2" data-name="Rectangle 20972" width="10.189" height="2.548" transform="translate(0 17.831)" fill="#fff268"/>
          <rect id="Rectangle_20973-2" data-name="Rectangle 20973" width="12.737" height="2.548" transform="translate(12.737 17.831)" fill="#fff268"/>
          <rect id="Rectangle_20974-2" data-name="Rectangle 20974" width="5.094" height="2.548" transform="translate(40.757 17.831)" fill="#fff268"/>
          <path id="Path_50174-2" data-name="Path 50174" d="M407.884,216.283V201h2.548v2.548h2.548V206.1h2.547v2.548h2.548v7.642Z" transform="translate(-407.884 -201)" fill="#fff268"/>
          <path id="Path_50175-2" data-name="Path 50175" d="M372.73,216.283v-2.548h2.547v-5.094h2.548v-2.548h2.547v-2.548h2.548V201h2.547v15.283Z" transform="translate(-359.993 -201)" fill="#fff268"/>
          <path id="Path_50176-2" data-name="Path 50176" d="M325.858,219.6V209.406h2.548v-2.547h2.547V219.6Z" transform="translate(-285.1 -204.312)" fill="#fff268"/>
          <rect id="Rectangle_20975-2" data-name="Rectangle 20975" width="2.548" height="5.094" transform="translate(10.189 22.925)" fill="#caff94"/>
          <rect id="Rectangle_20976-2" data-name="Rectangle 20976" width="2.548" height="2.548" transform="translate(10.189 17.831)" fill="#caff94"/>
          <rect id="Rectangle_20977-2" data-name="Rectangle 20977" width="2.548" height="2.548" transform="translate(10.189 12.737)" fill="#caff94"/>
        </g>
        <path id="Path_50316" data-name="Path 50316" d="M0,0H6.328V6.3h5.835V25.55H6.328V16.27h-4.2V8.617H0Z" transform="translate(32.137 74.158) rotate(90)" fill="#b9dedd"/>
      </g>
    </g>
    <g id="Group_38422" data-name="Group 38422" transform="translate(687.34 3174)">
      <rect id="Rectangle_11848-2" data-name="Rectangle 11848" width="6.567" height="2.189" transform="translate(19.703 6.568)" fill="#f6757a"/>
      <rect id="Rectangle_11849-2" data-name="Rectangle 11849" width="13.136" height="13.136" transform="translate(26.27 17.515)" fill="#ecf0f1"/>
      <rect id="Rectangle_11850-2" data-name="Rectangle 11850" width="6.567" height="13.136" transform="translate(13.136 17.515)" fill="#ecf0f1"/>
      <rect id="Rectangle_11851-2" data-name="Rectangle 11851" width="15.325" height="8.757" transform="translate(26.27 6.568)" fill="#ecf0f1"/>
      <rect id="Rectangle_11852-2" data-name="Rectangle 11852" width="8.756" height="8.757" transform="translate(10.946 6.568)" fill="#ecf0f1"/>
      <rect id="Rectangle_11853-2" data-name="Rectangle 11853" width="13.136" height="2.189" transform="translate(26.27 15.326)" fill="#c0cbdc"/>
      <path id="Path_49641-2" data-name="Path 49641" d="M180.946,567.757V559H170v8.757h2.189v15.326h10.946V569.946H189.7v-2.189Z" transform="translate(-170 -552.432)" fill="#c0cbdc"/>
      <rect id="Rectangle_11854-2" data-name="Rectangle 11854" width="6.567" height="21.894" transform="translate(19.703 8.757)" fill="#e43b44"/>
      <path id="Path_49642-2" data-name="Path 49642" d="M183.756,560.379h-2.189V558.19h-2.189V556H175v6.568h8.756Z" transform="translate(-164.054 -556)" fill="#e43b44"/>
      <path id="Path_49643-2" data-name="Path 49643" d="M184.378,556v2.189h-2.189v2.189H180v2.189h8.757V556Z" transform="translate(-158.108 -556)" fill="#e43b44"/>
    </g>
  </g>
</svg>
