<svg xmlns="http://www.w3.org/2000/svg" width="113.38" height="87.906" viewBox="0 0 113.38 87.906">
  <g id="nav-2" transform="translate(1066.035 -2096.503)">
    <path id="Path_50320" data-name="Path 50320" d="M-1106.892,2163.066v12.569h-4.331v4.645h-5.545v3.858h-28.584v-3.858h-4.619v-4.645h-3.852V2158.05h-4.257V2146h50.576Z" transform="translate(114.46 -19.191)" fill="#edd5c2"/>
    <path id="Path_50318" data-name="Path 50318" d="M-1121.7,2131.05h-3.808v4.294h-39.67v4.51h-7.8v6.485h7.8v-1.925h4.848v-3.948h21.668v3.948h13.154v12.827h3.808v4.451h4.437v-4.451h4.9v-12.827h-4.9v3.814h-4.437V2131.05Z" transform="translate(129.048 -13.393)" fill="#53140d"/>
    <rect id="Rectangle_25451" data-name="Rectangle 25451" width="4.287" height="8.572" transform="translate(-1005.341 2131.097)" fill="#0b122f"/>
    <rect id="Rectangle_25452" data-name="Rectangle 25452" width="4.287" height="8.572" transform="translate(-1031.061 2131.097)" fill="#0b122f"/>
    <path id="Path_50319" data-name="Path 50319" d="M-1116.041,2167v9.077h-4.461v3.1h-11.237v-3.1H-1137V2167Z" transform="translate(110.7 -23.551)" fill="#fff"/>
    <path id="Path_50321" data-name="Path 50321" d="M-1070.264,2167v4.685h-10.714v4.741h5.164v5.775h10.121V2167Z" transform="translate(26.659 -28.555)" fill="#53140d"/>
    <path id="Path_50322" data-name="Path 50322" d="M-1177.873,2186.893v4.944h9.694v4.831h-5.368v4.545h-7.133v3.657h-9.633v4.066h-4.238v-7.724h4.238v-4.545h9.633v-9.775Z" transform="translate(198.081 -35.042)" fill="#edd5c2"/>
    <path id="Path_50323" data-name="Path 50323" d="M-1054.59,2204.71h-12.587v-4.267h-7.863v-4.27h-5.938v-4.541h9.378v-3.906h4.423v8.447h12.587Z" transform="translate(14.943 -31.079)" fill="#edd5c2"/>
    <path id="Path_50324" data-name="Path 50324" d="M-1107.189,2208.281v8.886h-8.459v10.576h-26.3v-10.576h-9.266v-8.886Z" transform="translate(110.553 -43.335)" fill="#2e7e9c"/>
    <path id="Path_50325" data-name="Path 50325" d="M-1118.689,2215.463v5.06h4.019v7.734h-4.019v-4h-3.874v-8.8Z" transform="translate(100.488 -46.119)" fill="#fefefe"/>
    <rect id="Rectangle_20960" data-name="Rectangle 20960" width="18.499" height="2.312" transform="translate(-1013.243 2115)" fill="#d99a36"/>
    <rect id="Rectangle_20961" data-name="Rectangle 20961" width="18.499" height="2.312" transform="translate(-1013.243 2110.376)" fill="#d99a36"/>
    <rect id="Rectangle_20962" data-name="Rectangle 20962" width="2.312" height="4.624" transform="translate(-994.744 2117.313)" fill="#e8bc48"/>
    <rect id="Rectangle_20963" data-name="Rectangle 20963" width="13.874" height="4.624" transform="translate(-1013.243 2117.313)" fill="#e8bc48"/>
    <rect id="Rectangle_20964" data-name="Rectangle 20964" width="20.811" height="2.312" transform="translate(-1034.054 2115)" fill="#e8bc48"/>
    <rect id="Rectangle_20965" data-name="Rectangle 20965" width="13.874" height="2.312" transform="translate(-1013.243 2112.688)" fill="#e8bc48"/>
    <rect id="Rectangle_20966" data-name="Rectangle 20966" width="2.312" height="2.312" transform="translate(-994.744 2112.688)" fill="#e8bc48"/>
    <rect id="Rectangle_20967" data-name="Rectangle 20967" width="20.811" height="2.312" transform="translate(-1034.054 2110.376)" fill="#e8bc48"/>
    <rect id="Rectangle_20968" data-name="Rectangle 20968" width="2.312" height="13.873" transform="translate(-994.744 2096.503)" fill="#e8bc48"/>
    <path id="Path_50173" data-name="Path 50173" d="M337.577,206.859h2.312v2.312H342.2v2.312h2.312v4.624h4.625v-4.624h2.312v6.936H337.577Z" transform="translate(-1350.82 1891.956)" fill="#e8bc48"/>
    <rect id="Rectangle_20969" data-name="Rectangle 20969" width="9.249" height="4.624" transform="translate(-1036.366 2117.313)" fill="#fff268"/>
    <rect id="Rectangle_20970" data-name="Rectangle 20970" width="11.562" height="4.624" transform="translate(-1024.804 2117.313)" fill="#fff268"/>
    <rect id="Rectangle_20971" data-name="Rectangle 20971" width="4.625" height="4.624" transform="translate(-999.369 2117.313)" fill="#fff268"/>
    <rect id="Rectangle_20972" data-name="Rectangle 20972" width="9.249" height="2.312" transform="translate(-1036.366 2112.688)" fill="#fff268"/>
    <rect id="Rectangle_20973" data-name="Rectangle 20973" width="11.562" height="2.312" transform="translate(-1024.804 2112.688)" fill="#fff268"/>
    <rect id="Rectangle_20974" data-name="Rectangle 20974" width="4.625" height="2.312" transform="translate(-999.369 2112.688)" fill="#fff268"/>
    <path id="Path_50174" data-name="Path 50174" d="M407.885,214.873V201H410.2v2.312h2.312v2.312h2.312v2.312h2.312v6.936Z" transform="translate(-1444.251 1895.503)" fill="#fff268"/>
    <path id="Path_50175" data-name="Path 50175" d="M372.731,214.873v-2.312h2.312v-4.624h2.312v-2.312h2.312v-2.312h2.312V201h2.312v13.873Z" transform="translate(-1397.536 1895.503)" fill="#fff268"/>
    <path id="Path_50176" data-name="Path 50176" d="M325.859,218.42v-9.248h2.312v-2.312h2.312V218.42Z" transform="translate(-1325.228 1891.956)" fill="#fff268"/>
    <rect id="Rectangle_20975" data-name="Rectangle 20975" width="2.312" height="4.624" transform="translate(-1027.117 2117.313)" fill="#caff94"/>
    <rect id="Rectangle_20976" data-name="Rectangle 20976" width="2.312" height="2.312" transform="translate(-1027.117 2112.688)" fill="#caff94"/>
    <rect id="Rectangle_20977" data-name="Rectangle 20977" width="2.312" height="2.312" transform="translate(-1027.117 2108.064)" fill="#caff94"/>
    <rect id="Rectangle_11848" data-name="Rectangle 11848" width="4.542" height="1.514" transform="translate(-970.821 2140.561)" fill="#f6757a"/>
    <rect id="Rectangle_11849" data-name="Rectangle 11849" width="9.083" height="9.083" transform="translate(-979.904 2148.13)" fill="#ecf0f1"/>
    <rect id="Rectangle_11850" data-name="Rectangle 11850" width="4.542" height="9.083" transform="translate(-966.28 2148.13)" fill="#ecf0f1"/>
    <rect id="Rectangle_11851" data-name="Rectangle 11851" width="10.597" height="6.055" transform="translate(-981.418 2140.561)" fill="#ecf0f1"/>
    <rect id="Rectangle_11852" data-name="Rectangle 11852" width="6.055" height="6.055" transform="translate(-966.28 2140.561)" fill="#ecf0f1"/>
    <rect id="Rectangle_11853" data-name="Rectangle 11853" width="9.083" height="1.514" transform="translate(-979.904 2146.616)" fill="#c0cbdc"/>
    <path id="Path_49641" data-name="Path 49641" d="M176.055,565.055V559h7.569v6.055h-1.514v10.6h-7.569v-9.083H170v-1.514Z" transform="translate(-1136.28 1581.561)" fill="#c0cbdc"/>
    <rect id="Rectangle_11854" data-name="Rectangle 11854" width="4.542" height="15.138" transform="translate(-970.821 2142.075)" fill="#e43b44"/>
    <path id="Path_49642" data-name="Path 49642" d="M175,559.028h1.514v-1.514h1.514V556h3.028v4.542H175Z" transform="translate(-1141.279 1580.02)" fill="#e43b44"/>
    <path id="Path_49643" data-name="Path 49643" d="M183.027,556v1.514h1.514v1.514h1.514v1.514H180V556Z" transform="translate(-1153.849 1580.02)" fill="#e43b44"/>
  </g>
</svg>
