<svg xmlns="http://www.w3.org/2000/svg" width="216.1" height="56.1" viewBox="0 0 216.1 56.1">
  <g id="news-title" transform="translate(-142.95 -799.95)">
    <g id="Group_37385" data-name="Group 37385" transform="translate(90 -781)">
      <rect id="Rectangle_8249" data-name="Rectangle 8249" width="8" height="8" transform="translate(109 1589)" fill="#2a68af" stroke="#5d94d3" stroke-width="0.1"/>
      <rect id="Rectangle_8257" data-name="Rectangle 8257" width="8" height="8" transform="translate(117 1589)" fill="#2a68af" stroke="#5d94d3" stroke-width="0.1"/>
      <rect id="Rectangle_8269" data-name="Rectangle 8269" width="8" height="8" transform="translate(125 1589)" fill="#2a68af" stroke="#5d94d3" stroke-width="0.1"/>
      <rect id="Rectangle_8470" data-name="Rectangle 8470" width="8" height="8" transform="translate(157 1589)" fill="#2a68af" stroke="#5d94d3" stroke-width="0.1"/>
      <rect id="Rectangle_8498" data-name="Rectangle 8498" width="8" height="8" transform="translate(189 1589)" fill="#2a68af" stroke="#5d94d3" stroke-width="0.1"/>
      <rect id="Rectangle_8526" data-name="Rectangle 8526" width="8" height="8" transform="translate(221 1589)" fill="#2a68af" stroke="#5d94d3" stroke-width="0.1"/>
      <rect id="Rectangle_8288" data-name="Rectangle 8288" width="8" height="8" transform="translate(141 1589)" fill="#2a68af" stroke="#5d94d3" stroke-width="0.1"/>
      <rect id="Rectangle_8456" data-name="Rectangle 8456" width="8" height="8" transform="translate(173 1589)" fill="#2a68af" stroke="#5d94d3" stroke-width="0.1"/>
      <rect id="Rectangle_8484" data-name="Rectangle 8484" width="8" height="8" transform="translate(205 1589)" fill="#2a68af" stroke="#5d94d3" stroke-width="0.1"/>
      <rect id="Rectangle_8512" data-name="Rectangle 8512" width="8" height="8" transform="translate(237 1589)" fill="#2a68af" stroke="#5d94d3" stroke-width="0.1"/>
      <rect id="Rectangle_8281" data-name="Rectangle 8281" width="8" height="8" transform="translate(133 1589)" fill="#2a68af" stroke="#5d94d3" stroke-width="0.1"/>
      <rect id="Rectangle_8463" data-name="Rectangle 8463" width="8" height="8" transform="translate(165 1589)" fill="#2a68af" stroke="#5d94d3" stroke-width="0.1"/>
      <rect id="Rectangle_8491" data-name="Rectangle 8491" width="8" height="8" transform="translate(197 1589)" fill="#2a68af" stroke="#5d94d3" stroke-width="0.1"/>
      <rect id="Rectangle_8519" data-name="Rectangle 8519" width="8" height="8" transform="translate(229 1589)" fill="#2a68af" stroke="#5d94d3" stroke-width="0.1"/>
      <rect id="Rectangle_8285" data-name="Rectangle 8285" width="8" height="8" transform="translate(149 1589)" fill="#2a68af" stroke="#5d94d3" stroke-width="0.1"/>
      <rect id="Rectangle_8449" data-name="Rectangle 8449" width="8" height="8" transform="translate(181 1589)" fill="#2a68af" stroke="#5d94d3" stroke-width="0.1"/>
      <rect id="Rectangle_8477" data-name="Rectangle 8477" width="8" height="8" transform="translate(213 1589)" fill="#2a68af" stroke="#5d94d3" stroke-width="0.1"/>
      <rect id="Rectangle_8505" data-name="Rectangle 8505" width="8" height="8" transform="translate(245 1589)" fill="#2a68af" stroke="#5d94d3" stroke-width="0.1"/>
      <rect id="Rectangle_8533" data-name="Rectangle 8533" width="8" height="8" transform="translate(253 1589)" fill="#2a68af" stroke="#5d94d3" stroke-width="0.1"/>
      <rect id="Rectangle_8251" data-name="Rectangle 8251" width="8" height="8" transform="translate(101 1589)" fill="#2a68af" stroke="#5d94d3" stroke-width="0.1"/>
      <rect id="Rectangle_8253" data-name="Rectangle 8253" width="8" height="8" transform="translate(93 1589)" fill="#2a68af" stroke="#5d94d3" stroke-width="0.1"/>
      <rect id="Rectangle_8255" data-name="Rectangle 8255" width="8" height="8" transform="translate(85 1589)" fill="#2a68af" stroke="#5d94d3" stroke-width="0.1"/>
      <rect id="Rectangle_8265" data-name="Rectangle 8265" width="8" height="8" transform="translate(77 1589)" fill="#2a68af" stroke="#5d94d3" stroke-width="0.1"/>
      <rect id="Rectangle_8279" data-name="Rectangle 8279" width="8" height="8" transform="translate(69 1589)" fill="#2a68af" stroke="#5d94d3" stroke-width="0.1"/>
      <rect id="Rectangle_8541" data-name="Rectangle 8541" width="8" height="8" transform="translate(61 1589)" fill="#2a68af" stroke="#5d94d3" stroke-width="0.1"/>
      <rect id="Rectangle_8241" data-name="Rectangle 8241" width="8" height="8" transform="translate(85 1581)" fill="#2a68af" stroke="#5d94d3" stroke-width="0.1"/>
      <rect id="Rectangle_8266" data-name="Rectangle 8266" width="8" height="8" transform="translate(77 1581)" fill="#2a68af" stroke="#5d94d3" stroke-width="0.1"/>
      <rect id="Rectangle_8280" data-name="Rectangle 8280" width="8" height="8" transform="translate(69 1581)" fill="#2a68af" stroke="#5d94d3" stroke-width="0.1"/>
      <rect id="Rectangle_8242" data-name="Rectangle 8242" width="8" height="8" transform="translate(93 1581)" fill="#2a68af" stroke="#5d94d3" stroke-width="0.1"/>
      <rect id="Rectangle_8244" data-name="Rectangle 8244" width="8" height="8" transform="translate(101 1581)" fill="#2a68af" stroke="#5d94d3" stroke-width="0.1"/>
      <rect id="Rectangle_8246" data-name="Rectangle 8246" width="8" height="8" transform="translate(109 1581)" fill="#2a68af" stroke="#5d94d3" stroke-width="0.1"/>
      <rect id="Rectangle_8258" data-name="Rectangle 8258" width="8" height="8" transform="translate(117 1581)" fill="#2a68af" stroke="#5d94d3" stroke-width="0.1"/>
      <rect id="Rectangle_8270" data-name="Rectangle 8270" width="8" height="8" transform="translate(125 1581)" fill="#2a68af" stroke="#5d94d3" stroke-width="0.1"/>
      <rect id="Rectangle_8471" data-name="Rectangle 8471" width="8" height="8" transform="translate(157 1581)" fill="#2a68af" stroke="#5d94d3" stroke-width="0.1"/>
      <rect id="Rectangle_8499" data-name="Rectangle 8499" width="8" height="8" transform="translate(189 1581)" fill="#2a68af" stroke="#5d94d3" stroke-width="0.1"/>
      <rect id="Rectangle_8527" data-name="Rectangle 8527" width="8" height="8" transform="translate(221 1581)" fill="#2a68af" stroke="#5d94d3" stroke-width="0.1"/>
      <rect id="Rectangle_8289" data-name="Rectangle 8289" width="8" height="8" transform="translate(141 1581)" fill="#2a68af" stroke="#5d94d3" stroke-width="0.1"/>
      <rect id="Rectangle_8457" data-name="Rectangle 8457" width="8" height="8" transform="translate(173 1581)" fill="#2a68af" stroke="#5d94d3" stroke-width="0.1"/>
      <rect id="Rectangle_8485" data-name="Rectangle 8485" width="8" height="8" transform="translate(205 1581)" fill="#2a68af" stroke="#5d94d3" stroke-width="0.1"/>
      <rect id="Rectangle_8513" data-name="Rectangle 8513" width="8" height="8" transform="translate(237 1581)" fill="#2a68af" stroke="#5d94d3" stroke-width="0.1"/>
      <rect id="Rectangle_8282" data-name="Rectangle 8282" width="8" height="8" transform="translate(133 1581)" fill="#2a68af" stroke="#5d94d3" stroke-width="0.1"/>
      <rect id="Rectangle_8464" data-name="Rectangle 8464" width="8" height="8" transform="translate(165 1581)" fill="#2a68af" stroke="#5d94d3" stroke-width="0.1"/>
      <rect id="Rectangle_8492" data-name="Rectangle 8492" width="8" height="8" transform="translate(197 1581)" fill="#2a68af" stroke="#5d94d3" stroke-width="0.1"/>
      <rect id="Rectangle_8520" data-name="Rectangle 8520" width="8" height="8" transform="translate(229 1581)" fill="#2a68af" stroke="#5d94d3" stroke-width="0.1"/>
      <rect id="Rectangle_8286" data-name="Rectangle 8286" width="8" height="8" transform="translate(149 1581)" fill="#2a68af" stroke="#5d94d3" stroke-width="0.1"/>
      <rect id="Rectangle_8450" data-name="Rectangle 8450" width="8" height="8" transform="translate(181 1581)" fill="#2a68af" stroke="#5d94d3" stroke-width="0.1"/>
      <rect id="Rectangle_8478" data-name="Rectangle 8478" width="8" height="8" transform="translate(213 1581)" fill="#2a68af" stroke="#5d94d3" stroke-width="0.1"/>
      <rect id="Rectangle_8506" data-name="Rectangle 8506" width="8" height="8" transform="translate(245 1581)" fill="#2a68af" stroke="#5d94d3" stroke-width="0.1"/>
      <rect id="Rectangle_8248" data-name="Rectangle 8248" width="8" height="8" transform="translate(109 1597)" fill="#2a68af" stroke="#5d94d3" stroke-width="0.1"/>
      <rect id="Rectangle_8291" data-name="Rectangle 8291" width="8" height="8" transform="translate(109 1605)" fill="#2a68af" stroke="#5d94d3" stroke-width="0.1"/>
      <rect id="Rectangle_8438" data-name="Rectangle 8438" width="8" height="8" transform="translate(109 1621)" fill="#2a68af" stroke="#5d94d3" stroke-width="0.1"/>
      <rect id="Rectangle_8416" data-name="Rectangle 8416" width="8" height="8" transform="translate(109 1613)" fill="#2a68af" stroke="#5d94d3" stroke-width="0.1"/>
      <rect id="Rectangle_8427" data-name="Rectangle 8427" width="8" height="8" transform="translate(109 1629)" fill="#2a68af" stroke="#5d94d3" stroke-width="0.1"/>
      <rect id="Rectangle_8259" data-name="Rectangle 8259" width="8" height="8" transform="translate(117 1597)" fill="#2a68af" stroke="#5d94d3" stroke-width="0.1"/>
      <rect id="Rectangle_8292" data-name="Rectangle 8292" width="8" height="8" transform="translate(117 1605)" fill="#2a68af" stroke="#5d94d3" stroke-width="0.1"/>
      <rect id="Rectangle_8439" data-name="Rectangle 8439" width="8" height="8" transform="translate(117 1621)" fill="#2a68af" stroke="#5d94d3" stroke-width="0.1"/>
      <rect id="Rectangle_8417" data-name="Rectangle 8417" width="8" height="8" transform="translate(117 1613)" fill="#2a68af" stroke="#5d94d3" stroke-width="0.1"/>
      <rect id="Rectangle_8428" data-name="Rectangle 8428" width="8" height="8" transform="translate(117 1629)" fill="#2a68af" stroke="#5d94d3" stroke-width="0.1"/>
      <rect id="Rectangle_8271" data-name="Rectangle 8271" width="8" height="8" transform="translate(125 1597)" fill="#2a68af" stroke="#5d94d3" stroke-width="0.1"/>
      <rect id="Rectangle_8472" data-name="Rectangle 8472" width="8" height="8" transform="translate(157 1597)" fill="#2a68af" stroke="#5d94d3" stroke-width="0.1"/>
      <rect id="Rectangle_8500" data-name="Rectangle 8500" width="8" height="8" transform="translate(189 1597)" fill="#2a68af" stroke="#5d94d3" stroke-width="0.1"/>
      <rect id="Rectangle_8528" data-name="Rectangle 8528" width="8" height="8" transform="translate(221 1597)" fill="#2a68af" stroke="#5d94d3" stroke-width="0.1"/>
      <rect id="Rectangle_8293" data-name="Rectangle 8293" width="8" height="8" transform="translate(125 1605)" fill="#2a68af" stroke="#5d94d3" stroke-width="0.1"/>
      <rect id="Rectangle_8473" data-name="Rectangle 8473" width="8" height="8" transform="translate(157 1605)" fill="#2a68af" stroke="#5d94d3" stroke-width="0.1"/>
      <rect id="Rectangle_8501" data-name="Rectangle 8501" width="8" height="8" transform="translate(189 1605)" fill="#2a68af" stroke="#5d94d3" stroke-width="0.1"/>
      <rect id="Rectangle_8529" data-name="Rectangle 8529" width="8" height="8" transform="translate(221 1605)" fill="#2a68af" stroke="#5d94d3" stroke-width="0.1"/>
      <rect id="Rectangle_8440" data-name="Rectangle 8440" width="8" height="8" transform="translate(125 1621)" fill="#2a68af" stroke="#5d94d3" stroke-width="0.1"/>
      <rect id="Rectangle_8474" data-name="Rectangle 8474" width="8" height="8" transform="translate(157 1621)" fill="#2a68af" stroke="#5d94d3" stroke-width="0.1"/>
      <rect id="Rectangle_8502" data-name="Rectangle 8502" width="8" height="8" transform="translate(189 1621)" fill="#2a68af" stroke="#5d94d3" stroke-width="0.1"/>
      <rect id="Rectangle_8530" data-name="Rectangle 8530" width="8" height="8" transform="translate(221 1621)" fill="#2a68af" stroke="#5d94d3" stroke-width="0.1"/>
      <rect id="Rectangle_8418" data-name="Rectangle 8418" width="8" height="8" transform="translate(125 1613)" fill="#2a68af" stroke="#5d94d3" stroke-width="0.1"/>
      <rect id="Rectangle_8475" data-name="Rectangle 8475" width="8" height="8" transform="translate(157 1613)" fill="#2a68af" stroke="#5d94d3" stroke-width="0.1"/>
      <rect id="Rectangle_8503" data-name="Rectangle 8503" width="8" height="8" transform="translate(189 1613)" fill="#2a68af" stroke="#5d94d3" stroke-width="0.1"/>
      <rect id="Rectangle_8531" data-name="Rectangle 8531" width="8" height="8" transform="translate(221 1613)" fill="#2a68af" stroke="#5d94d3" stroke-width="0.1"/>
      <rect id="Rectangle_8429" data-name="Rectangle 8429" width="8" height="8" transform="translate(125 1629)" fill="#2a68af" stroke="#5d94d3" stroke-width="0.1"/>
      <rect id="Rectangle_8476" data-name="Rectangle 8476" width="8" height="8" transform="translate(157 1629)" fill="#2a68af" stroke="#5d94d3" stroke-width="0.1"/>
      <rect id="Rectangle_8504" data-name="Rectangle 8504" width="8" height="8" transform="translate(189 1629)" fill="#2a68af" stroke="#5d94d3" stroke-width="0.1"/>
      <rect id="Rectangle_8532" data-name="Rectangle 8532" width="8" height="8" transform="translate(221 1629)" fill="#2a68af" stroke="#5d94d3" stroke-width="0.1"/>
      <rect id="Rectangle_8290" data-name="Rectangle 8290" width="8" height="8" transform="translate(141 1597)" fill="#2a68af" stroke="#5d94d3" stroke-width="0.1"/>
      <rect id="Rectangle_8458" data-name="Rectangle 8458" width="8" height="8" transform="translate(173 1597)" fill="#2a68af" stroke="#5d94d3" stroke-width="0.1"/>
      <rect id="Rectangle_8486" data-name="Rectangle 8486" width="8" height="8" transform="translate(205 1597)" fill="#2a68af" stroke="#5d94d3" stroke-width="0.1"/>
      <rect id="Rectangle_8514" data-name="Rectangle 8514" width="8" height="8" transform="translate(237 1597)" fill="#2a68af" stroke="#5d94d3" stroke-width="0.1"/>
      <rect id="Rectangle_8294" data-name="Rectangle 8294" width="8" height="8" transform="translate(141 1605)" fill="#2a68af" stroke="#5d94d3" stroke-width="0.1"/>
      <rect id="Rectangle_8459" data-name="Rectangle 8459" width="8" height="8" transform="translate(173 1605)" fill="#2a68af" stroke="#5d94d3" stroke-width="0.1"/>
      <rect id="Rectangle_8487" data-name="Rectangle 8487" width="8" height="8" transform="translate(205 1605)" fill="#2a68af" stroke="#5d94d3" stroke-width="0.1"/>
      <rect id="Rectangle_8515" data-name="Rectangle 8515" width="8" height="8" transform="translate(237 1605)" fill="#2a68af" stroke="#5d94d3" stroke-width="0.1"/>
      <rect id="Rectangle_8441" data-name="Rectangle 8441" width="8" height="8" transform="translate(141 1621)" fill="#2a68af" stroke="#5d94d3" stroke-width="0.1"/>
      <rect id="Rectangle_8460" data-name="Rectangle 8460" width="8" height="8" transform="translate(173 1621)" fill="#2a68af" stroke="#5d94d3" stroke-width="0.1"/>
      <rect id="Rectangle_8488" data-name="Rectangle 8488" width="8" height="8" transform="translate(205 1621)" fill="#2a68af" stroke="#5d94d3" stroke-width="0.1"/>
      <rect id="Rectangle_8516" data-name="Rectangle 8516" width="8" height="8" transform="translate(237 1621)" fill="#2a68af" stroke="#5d94d3" stroke-width="0.1"/>
      <rect id="Rectangle_8419" data-name="Rectangle 8419" width="8" height="8" transform="translate(141 1613)" fill="#2a68af" stroke="#5d94d3" stroke-width="0.1"/>
      <rect id="Rectangle_8461" data-name="Rectangle 8461" width="8" height="8" transform="translate(173 1613)" fill="#2a68af" stroke="#5d94d3" stroke-width="0.1"/>
      <rect id="Rectangle_8489" data-name="Rectangle 8489" width="8" height="8" transform="translate(205 1613)" fill="#2a68af" stroke="#5d94d3" stroke-width="0.1"/>
      <rect id="Rectangle_8517" data-name="Rectangle 8517" width="8" height="8" transform="translate(237 1613)" fill="#2a68af" stroke="#5d94d3" stroke-width="0.1"/>
      <rect id="Rectangle_8430" data-name="Rectangle 8430" width="8" height="8" transform="translate(141 1629)" fill="#2a68af" stroke="#5d94d3" stroke-width="0.1"/>
      <rect id="Rectangle_8462" data-name="Rectangle 8462" width="8" height="8" transform="translate(173 1629)" fill="#2a68af" stroke="#5d94d3" stroke-width="0.1"/>
      <rect id="Rectangle_8490" data-name="Rectangle 8490" width="8" height="8" transform="translate(205 1629)" fill="#2a68af" stroke="#5d94d3" stroke-width="0.1"/>
      <rect id="Rectangle_8518" data-name="Rectangle 8518" width="8" height="8" transform="translate(237 1629)" fill="#2a68af" stroke="#5d94d3" stroke-width="0.1"/>
      <rect id="Rectangle_8284" data-name="Rectangle 8284" width="8" height="8" transform="translate(133 1597)" fill="#2a68af" stroke="#5d94d3" stroke-width="0.1"/>
      <rect id="Rectangle_8465" data-name="Rectangle 8465" width="8" height="8" transform="translate(165 1597)" fill="#2a68af" stroke="#5d94d3" stroke-width="0.1"/>
      <rect id="Rectangle_8493" data-name="Rectangle 8493" width="8" height="8" transform="translate(197 1597)" fill="#2a68af" stroke="#5d94d3" stroke-width="0.1"/>
      <rect id="Rectangle_8521" data-name="Rectangle 8521" width="8" height="8" transform="translate(229 1597)" fill="#2a68af" stroke="#5d94d3" stroke-width="0.1"/>
      <rect id="Rectangle_8295" data-name="Rectangle 8295" width="8" height="8" transform="translate(133 1605)" fill="#2a68af" stroke="#5d94d3" stroke-width="0.1"/>
      <rect id="Rectangle_8466" data-name="Rectangle 8466" width="8" height="8" transform="translate(165 1605)" fill="#2a68af" stroke="#5d94d3" stroke-width="0.1"/>
      <rect id="Rectangle_8494" data-name="Rectangle 8494" width="8" height="8" transform="translate(197 1605)" fill="#2a68af" stroke="#5d94d3" stroke-width="0.1"/>
      <rect id="Rectangle_8522" data-name="Rectangle 8522" width="8" height="8" transform="translate(229 1605)" fill="#2a68af" stroke="#5d94d3" stroke-width="0.1"/>
      <rect id="Rectangle_8442" data-name="Rectangle 8442" width="8" height="8" transform="translate(133 1621)" fill="#2a68af" stroke="#5d94d3" stroke-width="0.1"/>
      <rect id="Rectangle_8467" data-name="Rectangle 8467" width="8" height="8" transform="translate(165 1621)" fill="#2a68af" stroke="#5d94d3" stroke-width="0.1"/>
      <rect id="Rectangle_8495" data-name="Rectangle 8495" width="8" height="8" transform="translate(197 1621)" fill="#2a68af" stroke="#5d94d3" stroke-width="0.1"/>
      <rect id="Rectangle_8523" data-name="Rectangle 8523" width="8" height="8" transform="translate(229 1621)" fill="#2a68af" stroke="#5d94d3" stroke-width="0.1"/>
      <rect id="Rectangle_8420" data-name="Rectangle 8420" width="8" height="8" transform="translate(133 1613)" fill="#2a68af" stroke="#5d94d3" stroke-width="0.1"/>
      <rect id="Rectangle_8468" data-name="Rectangle 8468" width="8" height="8" transform="translate(165 1613)" fill="#2a68af" stroke="#5d94d3" stroke-width="0.1"/>
      <rect id="Rectangle_8496" data-name="Rectangle 8496" width="8" height="8" transform="translate(197 1613)" fill="#2a68af" stroke="#5d94d3" stroke-width="0.1"/>
      <rect id="Rectangle_8524" data-name="Rectangle 8524" width="8" height="8" transform="translate(229 1613)" fill="#2a68af" stroke="#5d94d3" stroke-width="0.1"/>
      <rect id="Rectangle_8431" data-name="Rectangle 8431" width="8" height="8" transform="translate(133 1629)" fill="#2a68af" stroke="#5d94d3" stroke-width="0.1"/>
      <rect id="Rectangle_8469" data-name="Rectangle 8469" width="8" height="8" transform="translate(165 1629)" fill="#2a68af" stroke="#5d94d3" stroke-width="0.1"/>
      <rect id="Rectangle_8497" data-name="Rectangle 8497" width="8" height="8" transform="translate(197 1629)" fill="#2a68af" stroke="#5d94d3" stroke-width="0.1"/>
      <rect id="Rectangle_8525" data-name="Rectangle 8525" width="8" height="8" transform="translate(229 1629)" fill="#2a68af" stroke="#5d94d3" stroke-width="0.1"/>
      <rect id="Rectangle_8287" data-name="Rectangle 8287" width="8" height="8" transform="translate(149 1597)" fill="#2a68af" stroke="#5d94d3" stroke-width="0.1"/>
      <rect id="Rectangle_8451" data-name="Rectangle 8451" width="8" height="8" transform="translate(181 1597)" fill="#2a68af" stroke="#5d94d3" stroke-width="0.1"/>
      <rect id="Rectangle_8479" data-name="Rectangle 8479" width="8" height="8" transform="translate(213 1597)" fill="#2a68af" stroke="#5d94d3" stroke-width="0.1"/>
      <rect id="Rectangle_8507" data-name="Rectangle 8507" width="8" height="8" transform="translate(245 1597)" fill="#2a68af" stroke="#5d94d3" stroke-width="0.1"/>
      <rect id="Rectangle_8534" data-name="Rectangle 8534" width="8" height="8" transform="translate(253 1597)" fill="#2a68af" stroke="#5d94d3" stroke-width="0.1"/>
      <rect id="Rectangle_8296" data-name="Rectangle 8296" width="8" height="8" transform="translate(149 1605)" fill="#2a68af" stroke="#5d94d3" stroke-width="0.1"/>
      <rect id="Rectangle_8452" data-name="Rectangle 8452" width="8" height="8" transform="translate(181 1605)" fill="#2a68af" stroke="#5d94d3" stroke-width="0.1"/>
      <rect id="Rectangle_8480" data-name="Rectangle 8480" width="8" height="8" transform="translate(213 1605)" fill="#2a68af" stroke="#5d94d3" stroke-width="0.1"/>
      <rect id="Rectangle_8508" data-name="Rectangle 8508" width="8" height="8" transform="translate(245 1605)" fill="#2a68af" stroke="#5d94d3" stroke-width="0.1"/>
      <rect id="Rectangle_8535" data-name="Rectangle 8535" width="8" height="8" transform="translate(253 1605)" fill="#2a68af" stroke="#5d94d3" stroke-width="0.1"/>
      <rect id="Rectangle_8443" data-name="Rectangle 8443" width="8" height="8" transform="translate(149 1621)" fill="#2a68af" stroke="#5d94d3" stroke-width="0.1"/>
      <rect id="Rectangle_8453" data-name="Rectangle 8453" width="8" height="8" transform="translate(181 1621)" fill="#2a68af" stroke="#5d94d3" stroke-width="0.1"/>
      <rect id="Rectangle_8481" data-name="Rectangle 8481" width="8" height="8" transform="translate(213 1621)" fill="#2a68af" stroke="#5d94d3" stroke-width="0.1"/>
      <rect id="Rectangle_8509" data-name="Rectangle 8509" width="8" height="8" transform="translate(245 1621)" fill="#2a68af" stroke="#5d94d3" stroke-width="0.1"/>
      <rect id="Rectangle_8537" data-name="Rectangle 8537" width="8" height="8" transform="translate(253 1621)" fill="#2a68af" stroke="#5d94d3" stroke-width="0.1"/>
      <rect id="Rectangle_8421" data-name="Rectangle 8421" width="8" height="8" transform="translate(149 1613)" fill="#2a68af" stroke="#5d94d3" stroke-width="0.1"/>
      <rect id="Rectangle_8454" data-name="Rectangle 8454" width="8" height="8" transform="translate(181 1613)" fill="#2a68af" stroke="#5d94d3" stroke-width="0.1"/>
      <rect id="Rectangle_8482" data-name="Rectangle 8482" width="8" height="8" transform="translate(213 1613)" fill="#2a68af" stroke="#5d94d3" stroke-width="0.1"/>
      <rect id="Rectangle_8510" data-name="Rectangle 8510" width="8" height="8" transform="translate(245 1613)" fill="#2a68af" stroke="#5d94d3" stroke-width="0.1"/>
      <rect id="Rectangle_8536" data-name="Rectangle 8536" width="8" height="8" transform="translate(253 1613)" fill="#2a68af" stroke="#5d94d3" stroke-width="0.1"/>
      <rect id="Rectangle_8432" data-name="Rectangle 8432" width="8" height="8" transform="translate(149 1629)" fill="#2a68af" stroke="#5d94d3" stroke-width="0.1"/>
      <rect id="Rectangle_8455" data-name="Rectangle 8455" width="8" height="8" transform="translate(181 1629)" fill="#2a68af" stroke="#5d94d3" stroke-width="0.1"/>
      <rect id="Rectangle_8483" data-name="Rectangle 8483" width="8" height="8" transform="translate(213 1629)" fill="#2a68af" stroke="#5d94d3" stroke-width="0.1"/>
      <rect id="Rectangle_8511" data-name="Rectangle 8511" width="8" height="8" transform="translate(245 1629)" fill="#2a68af" stroke="#5d94d3" stroke-width="0.1"/>
      <rect id="Rectangle_8250" data-name="Rectangle 8250" width="8" height="8" transform="translate(101 1597)" fill="#2a68af" stroke="#5d94d3" stroke-width="0.1"/>
      <rect id="Rectangle_8297" data-name="Rectangle 8297" width="8" height="8" transform="translate(101 1605)" fill="#2a68af" stroke="#5d94d3" stroke-width="0.1"/>
      <rect id="Rectangle_8444" data-name="Rectangle 8444" width="8" height="8" transform="translate(101 1621)" fill="#2a68af" stroke="#5d94d3" stroke-width="0.1"/>
      <rect id="Rectangle_8422" data-name="Rectangle 8422" width="8" height="8" transform="translate(101 1613)" fill="#2a68af" stroke="#5d94d3" stroke-width="0.1"/>
      <rect id="Rectangle_8433" data-name="Rectangle 8433" width="8" height="8" transform="translate(101 1629)" fill="#2a68af" stroke="#5d94d3" stroke-width="0.1"/>
      <rect id="Rectangle_8252" data-name="Rectangle 8252" width="8" height="8" transform="translate(93 1597)" fill="#2a68af" stroke="#5d94d3" stroke-width="0.1"/>
      <rect id="Rectangle_8298" data-name="Rectangle 8298" width="8" height="8" transform="translate(93 1605)" fill="#2a68af" stroke="#5d94d3" stroke-width="0.1"/>
      <rect id="Rectangle_8445" data-name="Rectangle 8445" width="8" height="8" transform="translate(93 1621)" fill="#2a68af" stroke="#5d94d3" stroke-width="0.1"/>
      <rect id="Rectangle_8423" data-name="Rectangle 8423" width="8" height="8" transform="translate(93 1613)" fill="#2a68af" stroke="#5d94d3" stroke-width="0.1"/>
      <rect id="Rectangle_8434" data-name="Rectangle 8434" width="8" height="8" transform="translate(93 1629)" fill="#2a68af" stroke="#5d94d3" stroke-width="0.1"/>
      <rect id="Rectangle_8254" data-name="Rectangle 8254" width="8" height="8" transform="translate(85 1597)" fill="#2a68af" stroke="#5d94d3" stroke-width="0.1"/>
      <rect id="Rectangle_8299" data-name="Rectangle 8299" width="8" height="8" transform="translate(85 1605)" fill="#2a68af" stroke="#5d94d3" stroke-width="0.1"/>
      <rect id="Rectangle_8446" data-name="Rectangle 8446" width="8" height="8" transform="translate(85 1621)" fill="#2a68af" stroke="#5d94d3" stroke-width="0.1"/>
      <rect id="Rectangle_8424" data-name="Rectangle 8424" width="8" height="8" transform="translate(85 1613)" fill="#2a68af" stroke="#5d94d3" stroke-width="0.1"/>
      <rect id="Rectangle_8435" data-name="Rectangle 8435" width="8" height="8" transform="translate(85 1629)" fill="#2a68af" stroke="#5d94d3" stroke-width="0.1"/>
      <rect id="Rectangle_8267" data-name="Rectangle 8267" width="8" height="8" transform="translate(77 1597)" fill="#2a68af" stroke="#5d94d3" stroke-width="0.1"/>
      <rect id="Rectangle_8300" data-name="Rectangle 8300" width="8" height="8" transform="translate(77 1605)" fill="#2a68af" stroke="#5d94d3" stroke-width="0.1"/>
      <rect id="Rectangle_8447" data-name="Rectangle 8447" width="8" height="8" transform="translate(77 1621)" fill="#2a68af" stroke="#5d94d3" stroke-width="0.1"/>
      <rect id="Rectangle_8425" data-name="Rectangle 8425" width="8" height="8" transform="translate(77 1613)" fill="#2a68af" stroke="#5d94d3" stroke-width="0.1"/>
      <rect id="Rectangle_8436" data-name="Rectangle 8436" width="8" height="8" transform="translate(77 1629)" fill="#2a68af" stroke="#5d94d3" stroke-width="0.1"/>
      <rect id="Rectangle_8283" data-name="Rectangle 8283" width="8" height="8" transform="translate(69 1597)" fill="#2a68af" stroke="#5d94d3" stroke-width="0.1"/>
      <rect id="Rectangle_8542" data-name="Rectangle 8542" width="8" height="8" transform="translate(61 1597)" fill="#2a68af" stroke="#5d94d3" stroke-width="0.1"/>
      <rect id="Rectangle_8714" data-name="Rectangle 8714" width="8" height="8" transform="translate(53 1597)" fill="#2a68af" stroke="#5d94d3" stroke-width="0.1"/>
      <rect id="Rectangle_8717" data-name="Rectangle 8717" width="8" height="8" transform="translate(261 1597)" fill="#2a68af" stroke="#5d94d3" stroke-width="0.1"/>
      <rect id="Rectangle_8301" data-name="Rectangle 8301" width="8" height="8" transform="translate(69 1605)" fill="#2a68af" stroke="#5d94d3" stroke-width="0.1"/>
      <rect id="Rectangle_8543" data-name="Rectangle 8543" width="8" height="8" transform="translate(61 1605)" fill="#2a68af" stroke="#5d94d3" stroke-width="0.1"/>
      <rect id="Rectangle_8713" data-name="Rectangle 8713" width="8" height="8" transform="translate(53 1605)" fill="#2a68af" stroke="#5d94d3" stroke-width="0.1"/>
      <rect id="Rectangle_8716" data-name="Rectangle 8716" width="8" height="8" transform="translate(261 1605)" fill="#2a68af" stroke="#5d94d3" stroke-width="0.1"/>
      <rect id="Rectangle_8448" data-name="Rectangle 8448" width="8" height="8" transform="translate(69 1621)" fill="#2a68af" stroke="#5d94d3" stroke-width="0.1"/>
      <rect id="Rectangle_8544" data-name="Rectangle 8544" width="8" height="8" transform="translate(61 1621)" fill="#2a68af" stroke="#5d94d3" stroke-width="0.1"/>
      <rect id="Rectangle_8426" data-name="Rectangle 8426" width="8" height="8" transform="translate(69 1613)" fill="#2a68af" stroke="#5d94d3" stroke-width="0.1"/>
      <rect id="Rectangle_8545" data-name="Rectangle 8545" width="8" height="8" transform="translate(61 1613)" fill="#2a68af" stroke="#5d94d3" stroke-width="0.1"/>
      <rect id="Rectangle_8715" data-name="Rectangle 8715" width="8" height="8" transform="translate(53 1613)" fill="#2a68af" stroke="#5d94d3" stroke-width="0.1"/>
      <rect id="Rectangle_8718" data-name="Rectangle 8718" width="8" height="8" transform="translate(261 1613)" fill="#2a68af" stroke="#5d94d3" stroke-width="0.1"/>
      <rect id="Rectangle_8437" data-name="Rectangle 8437" width="8" height="8" transform="translate(69 1629)" fill="#2a68af" stroke="#5d94d3" stroke-width="0.1"/>
    </g>
    <g id="Group_38241" data-name="Group 38241" transform="translate(2 -1)">
      <path id="Each_Package_Include" data-name="Each Package Include" d="M1.344-10.608V-8.5H3.336v7.7L1.368-.7,1.68,1.416C5.16,1.152,7.824.888,9.7.6V2.544h2.448V-8.5H22.7v-2.112ZM5.712-.96V-2.424H9.7v1.056C8.544-1.224,7.224-1.08,5.712-.96Zm0-3.24V-5.52H9.7V-4.2Zm0-3.1V-8.5H9.7v1.2Zm8.064,1.824A10.47,10.47,0,0,0,16.032-1.3,15.505,15.505,0,0,1,12.312.672l1.272,1.944a16.188,16.188,0,0,0,4.128-2.3A20.35,20.35,0,0,0,21.528,2.64L22.8.552a17.478,17.478,0,0,1-3.48-1.824,10.7,10.7,0,0,0,2.112-4.32V-7.536H12.984v2.064ZM17.592-2.76a7.527,7.527,0,0,1-1.68-2.712h3.264A8.455,8.455,0,0,1,17.592-2.76Zm2.376-16.248H4.2V-11.5H6.624v-5.64h10.9v5.568h2.448ZM7.392-16.032v1.656h9.384v-1.656Zm-.048,2.616v1.632h9.48v-1.632Zm22.272,3.264v1.944h-4.1v2.28h4.1v8.52h2.5v-8.52H36.12v-2.28H32.112v-1.944h4.416v-2.28H34.176a17.668,17.668,0,0,0,.888-2.256l-2.232-.792c-.264,1.056-.576,2.064-.912,3.048H29.808a28.008,28.008,0,0,0-1.032-3.048l-2.184.84a14.285,14.285,0,0,1,.984,2.208H25.128v2.28Zm15.792-9.384a23.417,23.417,0,0,1-7.944,1.416V-7.728c-.1,3.552-.84,6.312-2.208,8.3l1.8,1.9c1.776-2.544,2.712-5.928,2.832-10.2V-9.984h2.568V2.52h2.472v-12.5h2.208V-12.36H39.888v-3.72A26.517,26.517,0,0,0,46.632-17.3ZM25.368-17.88v2.3H36.384v-2.3H32.016c-.288-.768-.552-1.464-.84-2.088l-2.592.432a13.558,13.558,0,0,1,.936,1.656Zm1.44,12.888A18.437,18.437,0,0,1,24.672.528l2.064,1.32a23.552,23.552,0,0,0,2.328-6.36Zm7.824-.144-2.064.552A38.339,38.339,0,0,1,33.912-.216L36-1.032A41.011,41.011,0,0,0,34.632-5.136ZM53.184-7.3A75.187,75.187,0,0,1,49.3,1.224l2.3,1.032a82.337,82.337,0,0,0,3.792-8.688ZM51.5-19.512l-1.776,1.728a24.166,24.166,0,0,1,4.2,3.624l1.776-1.8A32.8,32.8,0,0,0,51.5-19.512ZM50.832-13.9l-1.776,1.728a26.539,26.539,0,0,1,3.96,3.648L54.792-10.3A29.556,29.556,0,0,0,50.832-13.9Zm11.3-5.784v6.168H56.9v6.048A16.064,16.064,0,0,1,54.864.768l1.92,1.752a17.12,17.12,0,0,0,2.28-7.032l.528,2.256c2.76-.336,5.4-.744,7.9-1.2v2.64c0,.624-.384.936-1.1.936-.792,0-1.656-.048-2.568-.12l.672,2.376h2.64c1.824,0,2.76-.792,2.76-2.328v-13.56H64.512V-19.68Zm-4.464.576-2.04.984a29.634,29.634,0,0,1,2.616,4.008l1.968-.96A40.1,40.1,0,0,0,57.672-19.1Zm11.3.024a21.036,21.036,0,0,1-2.784,4.1l1.92.984a21.737,21.737,0,0,0,2.856-4.152ZM66.24-8.448c-1.344-.264-2.472-.456-3.36-.6-.792-.1-1.992-.24-3.624-.408v-1.8h8.232V-5.64c-2.736.48-5.544.816-8.424,1.056.1-.912.168-1.848.192-2.856.84.048,1.656.144,2.424.264q1.944.288,3.744.648Zm10.1-9.7V-5.88h15.5V-18.144H84.36a7.516,7.516,0,0,0,.576-1.44l-2.64-.36a8.068,8.068,0,0,1-.648,1.8ZM89.424-7.992H78.768V-9.384H89.424Zm-10.656-3.36V-12.7H89.424v1.344Zm0-3.312v-1.344H89.424v1.344ZM75.024-4.56A15.237,15.237,0,0,1,72.96.36l2.112,1.368a20.965,20.965,0,0,0,2.3-5.808Zm12.12,6.7a3.577,3.577,0,0,0,2.16-.552q.756-.576,1.08-3.672l-2.4-.792a5.1,5.1,0,0,1-.456,2.424,1.055,1.055,0,0,1-.864.384h-4.9c-.48,0-.7-.264-.7-.744V-4.584H78.528v4.32c0,1.584.84,2.4,2.52,2.4Zm-2.856-7.7L82.44-4.416a27.223,27.223,0,0,1,2.568,3.264l1.9-1.3A32.716,32.716,0,0,0,84.288-5.568Zm7.632.48L89.952-3.864A39.813,39.813,0,0,1,93.12,1.2L95.136-.192A43.977,43.977,0,0,0,91.92-5.088Z" transform="translate(235 837)" fill="#fff"/>
      <g id="Group_38189" data-name="Group 38189" transform="translate(-74 278)">
        <rect id="Rectangle_11741" data-name="Rectangle 11741" width="7.714" height="2.571" transform="translate(292.428 553.571)" fill="#f7dd80"/>
        <rect id="Rectangle_11742" data-name="Rectangle 11742" width="7.714" height="2.571" transform="translate(292.428 545.857)" fill="#f7dd80"/>
        <rect id="Rectangle_11743" data-name="Rectangle 11743" width="7.714" height="2.571" transform="translate(292.428 538.143)" fill="#f7dd80"/>
        <path id="Path_49601" data-name="Path 49601" d="M251,539v5.143h5.143v-2.571h2.571V539Z" transform="translate(15.714 9.429)" fill="#ebc30c"/>
        <path id="Union_79" data-name="Union 79" d="M4431.714,786V773.142h-5.142v-2.571H4424V760.286h20.572v-7.715h2.571V750h2.572v2.571h18v23.144h-18v-5.143h5.142V768h2.572v-7.714h-2.572v-2.572h-5.142v-5.143h-2.571v23.144h2.571v2.571h-2.572v-2.571h-2.571v-2.572h-5.142v5.143h-2.572V786Z" transform="translate(-4183 -217)" fill="#fdfdfd" stroke="rgba(0,0,0,0)" stroke-width="1"/>
        <path id="Path_49604" data-name="Path 49604" d="M256.143,536H251v7.714h7.714v-5.143h-2.571Z" transform="translate(15.714 4.713)" fill="#f7d330"/>
        <path id="Union_73" data-name="Union 73" d="M4436.856,786v-7.714h2.572V786Zm12.858-7.714v-2.571h18v2.571Zm18-2.571V752.571h-18V750h18v2.571h2.571v23.144Zm-20.572,0V752.571h2.571v23.144ZM4424,760.285v-2.571h2.571v-2.571h18v5.143Z" transform="translate(-4183 -217)" fill="#d6d6d6" stroke="rgba(0,0,0,0)" stroke-width="1"/>
      </g>
    </g>
  </g>
</svg>
