<svg xmlns="http://www.w3.org/2000/svg" width="210" height="230" viewBox="0 0 210 230">
  <g id="rank-5" transform="translate(-1360 -3353)">
    <g id="Path_51936" data-name="Path 51936" transform="translate(1360 3353)" fill="#fff" opacity="0">
      <path d="M 209.5 229.5 L 0.5 229.5 L 0.5 0.5 L 209.5 0.5 L 209.5 229.5 Z" stroke="none"/>
      <path d="M 1 1 L 1 229 L 209 229 L 209 1 L 1 1 M 0 0 L 210 0 L 210 230 L 0 230 L 0 0 Z" stroke="none" fill="#707070"/>
    </g>
    <g id="Group_38562" data-name="Group 38562" transform="translate(5)">
      <g id="Group_38553" data-name="Group 38553" transform="translate(-219 11.386)">
        <g id="Group_38550" data-name="Group 38550" transform="translate(1622.856 3367.631)">
          <rect id="Rectangle_26821" data-name="Rectangle 26821" width="52.426" height="25.164" transform="translate(16.84 100.195)" fill="#fff"/>
          <path id="Path_51924" data-name="Path 51924" d="M-1715.174,4243.9v8.034h-6.887V4265.8h6.887v29.052h5.75v4.814h16.2v7.763h26.264v-7.763h19.858v-4.814h8.241V4243.9h-28.1v-5.1h-29.162v5.1Z" transform="translate(1722.061 -4205.92)" fill="#a7633b"/>
          <path id="Path_51920" data-name="Path 51920" d="M-1720.49,4245.475v-24.558h3.744v-7.16h6.7v-7.315h58.737v7.315h11.656v7.16h8.05v24.558h-35.1v-5.706h-28.529v5.706Z" transform="translate(1721.088 -4206.442)" fill="#392028"/>
          <path id="Path_51921" data-name="Path 51921" d="M-1695.8,4271.613v6.96h6.633v8.026h28.674v-8.026h5.619v-6.96Z" transform="translate(1722.286 -4203.28)" fill="#fff"/>
          <path id="Path_51922" data-name="Path 51922" d="M-1695.8,4251.221v13.405h6.406v-13.405Z" transform="translate(1722.286 -4204.27)" fill="#2f222f"/>
          <path id="Path_51923" data-name="Path 51923" d="M-1662.572,4251.221v12.787h7.393v-12.787Z" transform="translate(1723.898 -4204.27)" fill="#2f222f"/>
          <path id="Path_51926" data-name="Path 51926" d="M-1694.492,4304.252h-13.919v6.979h-6.357v20.194h-8.091v22.013h14.448v-13.684h6.283v13.684h54.021v-42.207h-4.2v-6.979h-15.04v12.41l-2.677,2.676v6.083h-15.916v-14.19h-8.55Z" transform="translate(1723.07 -4203.793)" fill="#474745"/>
          <path id="Path_51927" data-name="Path 51927" d="M-1702.486,4351.162v6.324h-6.76v20.178h-5.949v13.841h12.709v-13.841h6.987v-14.591h21.171v28.433h14.321v-40.343Z" transform="translate(1723.442 -4201.518)" fill="#6a6a68"/>
          <path id="Path_51928" data-name="Path 51928" d="M-1722.859,4351.162v5.771h6.877v6.93h6.293v-12.7Z" transform="translate(1723.07 -4201.518)" fill="#a7633b"/>
          <path id="Path_51929" data-name="Path 51929" d="M-1662.561,4351.162h12.24v11.991h-4.753v-7h-7.487Z" transform="translate(1725.996 -4201.518)" fill="#a7633b"/>
          <path id="Path_51930" data-name="Path 51930" d="M-1715.2,4389.639v13.383h12.992v-13.383Z" transform="translate(1723.442 -4199.651)" fill="#502911"/>
          <path id="Path_51931" data-name="Path 51931" d="M-1676.288,4389.639v13.694h22.055v-7h-7.419v-6.694Z" transform="translate(1725.33 -4199.651)" fill="#502911"/>
          <path id="Path_51925" data-name="Path 51925" d="M-1689.7,4304.252v7.438h8.155v20.9h8.714v-28.335Z" transform="translate(1724.679 -4203.793)" fill="#2950a7"/>
        </g>
        <g id="Group_38551" data-name="Group 38551" transform="translate(1621 3341.614)">
          <rect id="Rectangle_20960" data-name="Rectangle 20960" width="39.667" height="4.958" transform="translate(4.958 39.667)" fill="#d99a36"/>
          <rect id="Rectangle_20961" data-name="Rectangle 20961" width="39.667" height="4.958" transform="translate(4.958 29.75)" fill="#d99a36"/>
          <rect id="Rectangle_20962" data-name="Rectangle 20962" width="4.958" height="9.917" transform="translate(0 44.626)" fill="#e8bc48"/>
          <rect id="Rectangle_20963" data-name="Rectangle 20963" width="29.75" height="9.917" transform="translate(14.875 44.626)" fill="#e8bc48"/>
          <rect id="Rectangle_20964" data-name="Rectangle 20964" width="44.626" height="4.958" transform="translate(44.626 39.667)" fill="#e8bc48"/>
          <rect id="Rectangle_20965" data-name="Rectangle 20965" width="29.75" height="4.958" transform="translate(14.875 34.709)" fill="#e8bc48"/>
          <rect id="Rectangle_20966" data-name="Rectangle 20966" width="4.958" height="4.958" transform="translate(0 34.709)" fill="#e8bc48"/>
          <rect id="Rectangle_20967" data-name="Rectangle 20967" width="44.626" height="4.958" transform="translate(44.626 29.75)" fill="#e8bc48"/>
          <rect id="Rectangle_20968" data-name="Rectangle 20968" width="4.958" height="29.75" transform="translate(0 0)" fill="#e8bc48"/>
          <path id="Path_50173" data-name="Path 50173" d="M367.327,206.859h-4.958v4.958h-4.958v4.958h-4.958v9.917h-9.917v-9.917h-4.958v14.875h29.75Z" transform="translate(-322.702 -201.901)" fill="#e8bc48"/>
          <rect id="Rectangle_20969" data-name="Rectangle 20969" width="19.834" height="9.917" transform="translate(74.376 44.626)" fill="#fff268"/>
          <rect id="Rectangle_20970" data-name="Rectangle 20970" width="24.792" height="9.917" transform="translate(44.626 44.626)" fill="#fff268"/>
          <rect id="Rectangle_20971" data-name="Rectangle 20971" width="9.917" height="9.917" transform="translate(4.958 44.626)" fill="#fff268"/>
          <rect id="Rectangle_20972" data-name="Rectangle 20972" width="19.834" height="4.958" transform="translate(74.376 34.709)" fill="#fff268"/>
          <rect id="Rectangle_20973" data-name="Rectangle 20973" width="24.792" height="4.958" transform="translate(44.626 34.709)" fill="#fff268"/>
          <rect id="Rectangle_20974" data-name="Rectangle 20974" width="9.917" height="4.958" transform="translate(4.958 34.709)" fill="#fff268"/>
          <path id="Path_50174" data-name="Path 50174" d="M427.719,230.75V201H422.76v4.958H417.8v4.958h-4.958v4.958h-4.958V230.75Z" transform="translate(-333.509 -201)" fill="#fff268"/>
          <path id="Path_50175" data-name="Path 50175" d="M397.523,230.75v-4.958h-4.958v-9.917h-4.958v-4.958h-4.958v-4.958h-4.958V201h-4.958v29.75Z" transform="translate(-328.105 -201)" fill="#fff268"/>
          <path id="Path_50176" data-name="Path 50176" d="M335.776,231.651V211.817h-4.958v-4.958h-4.958v24.792Z" transform="translate(-320.901 -201.901)" fill="#fff268"/>
          <rect id="Rectangle_20975" data-name="Rectangle 20975" width="4.958" height="9.917" transform="translate(69.418 44.626)" fill="#caff94"/>
          <rect id="Rectangle_20976" data-name="Rectangle 20976" width="4.958" height="4.958" transform="translate(69.418 34.709)" fill="#caff94"/>
          <rect id="Rectangle_20977" data-name="Rectangle 20977" width="4.958" height="4.958" transform="translate(69.418 24.792)" fill="#caff94"/>
        </g>
      </g>
      <g id="Group_38561" data-name="Group 38561" transform="translate(1458 3496.318)">
        <g id="Group_38279" data-name="Group 38279" transform="translate(0 0)">
          <rect id="Rectangle_20885" data-name="Rectangle 20885" width="3.956" height="27.557" transform="translate(19.782)" fill="#cb6e7d"/>
          <path id="Path_50071" data-name="Path 50071" d="M152,420v3.937h35.608v35.43h3.956V420Z" transform="translate(-136.174 -376.696)" fill="#d77643"/>
          <path id="Path_50072" data-name="Path 50072" d="M151.956,419v3.937H148V462.3h3.956v3.937h11.869V462.3h-3.956V422.937h3.956V419Z" transform="translate(-148 -379.633)" fill="#d77643"/>
          <rect id="Rectangle_20886" data-name="Rectangle 20886" width="3.956" height="11.81" transform="translate(15.826 27.557)" fill="#d77643"/>
          <rect id="Rectangle_20887" data-name="Rectangle 20887" width="3.956" height="7.873" transform="translate(35.608 31.494)" fill="#d77643"/>
          <path id="Path_50073" data-name="Path 50073" d="M176.782,460.367V456.43h-3.956V421H157v35.43h11.869v3.937Z" transform="translate(-121.392 -373.759)" fill="#feae34"/>
          <rect id="Rectangle_20888" data-name="Rectangle 20888" width="7.913" height="3.937" transform="translate(19.782 82.671)" fill="#feae34"/>
          <rect id="Rectangle_20889" data-name="Rectangle 20889" width="3.956" height="39.367" transform="translate(55.39 43.304)" fill="#feae34"/>
          <rect id="Rectangle_20890" data-name="Rectangle 20890" width="3.956" height="35.43" transform="translate(15.826 47.24)" fill="#feae34"/>
          <rect id="Rectangle_20891" data-name="Rectangle 20891" width="7.913" height="3.937" transform="translate(47.477 39.367)" fill="#feae34"/>
          <rect id="Rectangle_20892" data-name="Rectangle 20892" width="3.956" height="11.81" transform="translate(39.564 27.557)" fill="#feae34"/>
          <path id="Path_50074" data-name="Path 50074" d="M156.956,416H153v15.747h7.913V427.81h-3.956Z" transform="translate(-133.218 -388.443)" fill="#feae34"/>
          <rect id="Rectangle_20893" data-name="Rectangle 20893" width="15.826" height="31.494" transform="translate(23.739)" fill="#ff637b"/>
          <path id="Path_50075" data-name="Path 50075" d="M180.7,456.43H168.826V421H153v35.43h7.913v3.937H180.7Z" transform="translate(-133.218 -373.759)" fill="#fee761"/>
          <rect id="Rectangle_20894" data-name="Rectangle 20894" width="3.956" height="3.937" transform="translate(15.826 82.671)" fill="#fee761"/>
          <rect id="Rectangle_20895" data-name="Rectangle 20895" width="3.956" height="39.367" transform="translate(11.869 43.304)" fill="#fee761"/>
          <rect id="Rectangle_20896" data-name="Rectangle 20896" width="19.782" height="3.937" transform="translate(27.695 39.367)" fill="#fee761"/>
          <rect id="Rectangle_20897" data-name="Rectangle 20897" width="3.956" height="3.937" transform="translate(15.826 39.367)" fill="#fee761"/>
        </g>
        <path id="Path_51937" data-name="Path 51937" d="M7.857-9.429H-4.714v-6.286H7.857v-3.143h-22V-6.286H1.571V0H-4.714V-3.143h-9.429V0H-11V3.143H7.857V0H11V-6.286H7.857Z" transform="translate(38 72.682)" fill="#7e4120"/>
      </g>
    </g>
  </g>
</svg>
