<svg xmlns="http://www.w3.org/2000/svg" width="304.1" height="56.1" viewBox="0 0 304.1 56.1">
  <g id="rank-title" transform="translate(-140.95 -606.95)">
    <g id="Group_37387" data-name="Group 37387" transform="translate(88 -974)">
      <rect id="Rectangle_8249" data-name="Rectangle 8249" width="8" height="8" transform="translate(109 1589)" fill="#2a68af" stroke="#5d94d3" stroke-width="0.1"/>
      <rect id="Rectangle_8257" data-name="Rectangle 8257" width="8" height="8" transform="translate(117 1589)" fill="#2a68af" stroke="#5d94d3" stroke-width="0.1"/>
      <rect id="Rectangle_8269" data-name="Rectangle 8269" width="8" height="8" transform="translate(125 1589)" fill="#2a68af" stroke="#5d94d3" stroke-width="0.1"/>
      <rect id="Rectangle_8470" data-name="Rectangle 8470" width="8" height="8" transform="translate(157 1589)" fill="#2a68af" stroke="#5d94d3" stroke-width="0.1"/>
      <rect id="Rectangle_8498" data-name="Rectangle 8498" width="8" height="8" transform="translate(189 1589)" fill="#2a68af" stroke="#5d94d3" stroke-width="0.1"/>
      <rect id="Rectangle_20989" data-name="Rectangle 20989" width="8" height="8" transform="translate(229 1589)" fill="#2a68af" stroke="#5d94d3" stroke-width="0.1"/>
      <rect id="Rectangle_21024" data-name="Rectangle 21024" width="8" height="8" transform="translate(269 1589)" fill="#2a68af" stroke="#5d94d3" stroke-width="0.1"/>
      <rect id="Rectangle_8288" data-name="Rectangle 8288" width="8" height="8" transform="translate(141 1589)" fill="#2a68af" stroke="#5d94d3" stroke-width="0.1"/>
      <rect id="Rectangle_8456" data-name="Rectangle 8456" width="8" height="8" transform="translate(173 1589)" fill="#2a68af" stroke="#5d94d3" stroke-width="0.1"/>
      <rect id="Rectangle_21003" data-name="Rectangle 21003" width="8" height="8" transform="translate(213 1589)" fill="#2a68af" stroke="#5d94d3" stroke-width="0.1"/>
      <rect id="Rectangle_21038" data-name="Rectangle 21038" width="8" height="8" transform="translate(253 1589)" fill="#2a68af" stroke="#5d94d3" stroke-width="0.1"/>
      <rect id="Rectangle_8484" data-name="Rectangle 8484" width="8" height="8" transform="translate(285 1589)" fill="#2a68af" stroke="#5d94d3" stroke-width="0.1"/>
      <rect id="Rectangle_8549" data-name="Rectangle 8549" width="8" height="8" transform="translate(301 1589)" fill="#2a68af" stroke="#5d94d3" stroke-width="0.1"/>
      <rect id="Rectangle_8563" data-name="Rectangle 8563" width="8" height="8" transform="translate(317 1589)" fill="#2a68af" stroke="#5d94d3" stroke-width="0.1"/>
      <rect id="Rectangle_8512" data-name="Rectangle 8512" width="8" height="8" transform="translate(325 1589)" fill="#2a68af" stroke="#5d94d3" stroke-width="0.1"/>
      <rect id="Rectangle_8281" data-name="Rectangle 8281" width="8" height="8" transform="translate(133 1589)" fill="#2a68af" stroke="#5d94d3" stroke-width="0.1"/>
      <rect id="Rectangle_8463" data-name="Rectangle 8463" width="8" height="8" transform="translate(165 1589)" fill="#2a68af" stroke="#5d94d3" stroke-width="0.1"/>
      <rect id="Rectangle_21010" data-name="Rectangle 21010" width="8" height="8" transform="translate(205 1589)" fill="#2a68af" stroke="#5d94d3" stroke-width="0.1"/>
      <rect id="Rectangle_21045" data-name="Rectangle 21045" width="8" height="8" transform="translate(245 1589)" fill="#2a68af" stroke="#5d94d3" stroke-width="0.1"/>
      <rect id="Rectangle_8491" data-name="Rectangle 8491" width="8" height="8" transform="translate(197 1589)" fill="#2a68af" stroke="#5d94d3" stroke-width="0.1"/>
      <rect id="Rectangle_20982" data-name="Rectangle 20982" width="8" height="8" transform="translate(237 1589)" fill="#2a68af" stroke="#5d94d3" stroke-width="0.1"/>
      <rect id="Rectangle_21017" data-name="Rectangle 21017" width="8" height="8" transform="translate(277 1589)" fill="#2a68af" stroke="#5d94d3" stroke-width="0.1"/>
      <rect id="Rectangle_8556" data-name="Rectangle 8556" width="8" height="8" transform="translate(293 1589)" fill="#2a68af" stroke="#5d94d3" stroke-width="0.1"/>
      <rect id="Rectangle_8570" data-name="Rectangle 8570" width="8" height="8" transform="translate(309 1589)" fill="#2a68af" stroke="#5d94d3" stroke-width="0.1"/>
      <rect id="Rectangle_8285" data-name="Rectangle 8285" width="8" height="8" transform="translate(149 1589)" fill="#2a68af" stroke="#5d94d3" stroke-width="0.1"/>
      <rect id="Rectangle_8449" data-name="Rectangle 8449" width="8" height="8" transform="translate(181 1589)" fill="#2a68af" stroke="#5d94d3" stroke-width="0.1"/>
      <rect id="Rectangle_20996" data-name="Rectangle 20996" width="8" height="8" transform="translate(221 1589)" fill="#2a68af" stroke="#5d94d3" stroke-width="0.1"/>
      <rect id="Rectangle_21031" data-name="Rectangle 21031" width="8" height="8" transform="translate(261 1589)" fill="#2a68af" stroke="#5d94d3" stroke-width="0.1"/>
      <rect id="Rectangle_8505" data-name="Rectangle 8505" width="8" height="8" transform="translate(333 1589)" fill="#2a68af" stroke="#5d94d3" stroke-width="0.1"/>
      <rect id="Rectangle_8533" data-name="Rectangle 8533" width="8" height="8" transform="translate(341 1589)" fill="#2a68af" stroke="#5d94d3" stroke-width="0.1"/>
      <rect id="Rectangle_8251" data-name="Rectangle 8251" width="8" height="8" transform="translate(101 1589)" fill="#2a68af" stroke="#5d94d3" stroke-width="0.1"/>
      <rect id="Rectangle_8253" data-name="Rectangle 8253" width="8" height="8" transform="translate(93 1589)" fill="#2a68af" stroke="#5d94d3" stroke-width="0.1"/>
      <rect id="Rectangle_8255" data-name="Rectangle 8255" width="8" height="8" transform="translate(85 1589)" fill="#2a68af" stroke="#5d94d3" stroke-width="0.1"/>
      <rect id="Rectangle_8265" data-name="Rectangle 8265" width="8" height="8" transform="translate(77 1589)" fill="#2a68af" stroke="#5d94d3" stroke-width="0.1"/>
      <rect id="Rectangle_8279" data-name="Rectangle 8279" width="8" height="8" transform="translate(69 1589)" fill="#2a68af" stroke="#5d94d3" stroke-width="0.1"/>
      <rect id="Rectangle_8541" data-name="Rectangle 8541" width="8" height="8" transform="translate(61 1589)" fill="#2a68af" stroke="#5d94d3" stroke-width="0.1"/>
      <rect id="Rectangle_8241" data-name="Rectangle 8241" width="8" height="8" transform="translate(85 1581)" fill="#2a68af" stroke="#5d94d3" stroke-width="0.1"/>
      <rect id="Rectangle_8266" data-name="Rectangle 8266" width="8" height="8" transform="translate(77 1581)" fill="#2a68af" stroke="#5d94d3" stroke-width="0.1"/>
      <rect id="Rectangle_8280" data-name="Rectangle 8280" width="8" height="8" transform="translate(69 1581)" fill="#2a68af" stroke="#5d94d3" stroke-width="0.1"/>
      <rect id="Rectangle_8242" data-name="Rectangle 8242" width="8" height="8" transform="translate(93 1581)" fill="#2a68af" stroke="#5d94d3" stroke-width="0.1"/>
      <rect id="Rectangle_8244" data-name="Rectangle 8244" width="8" height="8" transform="translate(101 1581)" fill="#2a68af" stroke="#5d94d3" stroke-width="0.1"/>
      <rect id="Rectangle_8246" data-name="Rectangle 8246" width="8" height="8" transform="translate(109 1581)" fill="#2a68af" stroke="#5d94d3" stroke-width="0.1"/>
      <rect id="Rectangle_8258" data-name="Rectangle 8258" width="8" height="8" transform="translate(117 1581)" fill="#2a68af" stroke="#5d94d3" stroke-width="0.1"/>
      <rect id="Rectangle_8270" data-name="Rectangle 8270" width="8" height="8" transform="translate(125 1581)" fill="#2a68af" stroke="#5d94d3" stroke-width="0.1"/>
      <rect id="Rectangle_8471" data-name="Rectangle 8471" width="8" height="8" transform="translate(157 1581)" fill="#2a68af" stroke="#5d94d3" stroke-width="0.1"/>
      <rect id="Rectangle_8499" data-name="Rectangle 8499" width="8" height="8" transform="translate(189 1581)" fill="#2a68af" stroke="#5d94d3" stroke-width="0.1"/>
      <rect id="Rectangle_20990" data-name="Rectangle 20990" width="8" height="8" transform="translate(229 1581)" fill="#2a68af" stroke="#5d94d3" stroke-width="0.1"/>
      <rect id="Rectangle_21025" data-name="Rectangle 21025" width="8" height="8" transform="translate(269 1581)" fill="#2a68af" stroke="#5d94d3" stroke-width="0.1"/>
      <rect id="Rectangle_8289" data-name="Rectangle 8289" width="8" height="8" transform="translate(141 1581)" fill="#2a68af" stroke="#5d94d3" stroke-width="0.1"/>
      <rect id="Rectangle_8457" data-name="Rectangle 8457" width="8" height="8" transform="translate(173 1581)" fill="#2a68af" stroke="#5d94d3" stroke-width="0.1"/>
      <rect id="Rectangle_21004" data-name="Rectangle 21004" width="8" height="8" transform="translate(213 1581)" fill="#2a68af" stroke="#5d94d3" stroke-width="0.1"/>
      <rect id="Rectangle_21039" data-name="Rectangle 21039" width="8" height="8" transform="translate(253 1581)" fill="#2a68af" stroke="#5d94d3" stroke-width="0.1"/>
      <rect id="Rectangle_8485" data-name="Rectangle 8485" width="8" height="8" transform="translate(285 1581)" fill="#2a68af" stroke="#5d94d3" stroke-width="0.1"/>
      <rect id="Rectangle_8550" data-name="Rectangle 8550" width="8" height="8" transform="translate(301 1581)" fill="#2a68af" stroke="#5d94d3" stroke-width="0.1"/>
      <rect id="Rectangle_8564" data-name="Rectangle 8564" width="8" height="8" transform="translate(317 1581)" fill="#2a68af" stroke="#5d94d3" stroke-width="0.1"/>
      <rect id="Rectangle_8513" data-name="Rectangle 8513" width="8" height="8" transform="translate(325 1581)" fill="#2a68af" stroke="#5d94d3" stroke-width="0.1"/>
      <rect id="Rectangle_8282" data-name="Rectangle 8282" width="8" height="8" transform="translate(133 1581)" fill="#2a68af" stroke="#5d94d3" stroke-width="0.1"/>
      <rect id="Rectangle_8464" data-name="Rectangle 8464" width="8" height="8" transform="translate(165 1581)" fill="#2a68af" stroke="#5d94d3" stroke-width="0.1"/>
      <rect id="Rectangle_21011" data-name="Rectangle 21011" width="8" height="8" transform="translate(205 1581)" fill="#2a68af" stroke="#5d94d3" stroke-width="0.1"/>
      <rect id="Rectangle_21046" data-name="Rectangle 21046" width="8" height="8" transform="translate(245 1581)" fill="#2a68af" stroke="#5d94d3" stroke-width="0.1"/>
      <rect id="Rectangle_8492" data-name="Rectangle 8492" width="8" height="8" transform="translate(197 1581)" fill="#2a68af" stroke="#5d94d3" stroke-width="0.1"/>
      <rect id="Rectangle_20983" data-name="Rectangle 20983" width="8" height="8" transform="translate(237 1581)" fill="#2a68af" stroke="#5d94d3" stroke-width="0.1"/>
      <rect id="Rectangle_21018" data-name="Rectangle 21018" width="8" height="8" transform="translate(277 1581)" fill="#2a68af" stroke="#5d94d3" stroke-width="0.1"/>
      <rect id="Rectangle_8557" data-name="Rectangle 8557" width="8" height="8" transform="translate(293 1581)" fill="#2a68af" stroke="#5d94d3" stroke-width="0.1"/>
      <rect id="Rectangle_8571" data-name="Rectangle 8571" width="8" height="8" transform="translate(309 1581)" fill="#2a68af" stroke="#5d94d3" stroke-width="0.1"/>
      <rect id="Rectangle_8286" data-name="Rectangle 8286" width="8" height="8" transform="translate(149 1581)" fill="#2a68af" stroke="#5d94d3" stroke-width="0.1"/>
      <rect id="Rectangle_8450" data-name="Rectangle 8450" width="8" height="8" transform="translate(181 1581)" fill="#2a68af" stroke="#5d94d3" stroke-width="0.1"/>
      <rect id="Rectangle_20997" data-name="Rectangle 20997" width="8" height="8" transform="translate(221 1581)" fill="#2a68af" stroke="#5d94d3" stroke-width="0.1"/>
      <rect id="Rectangle_21032" data-name="Rectangle 21032" width="8" height="8" transform="translate(261 1581)" fill="#2a68af" stroke="#5d94d3" stroke-width="0.1"/>
      <rect id="Rectangle_8506" data-name="Rectangle 8506" width="8" height="8" transform="translate(333 1581)" fill="#2a68af" stroke="#5d94d3" stroke-width="0.1"/>
      <rect id="Rectangle_8248" data-name="Rectangle 8248" width="8" height="8" transform="translate(109 1597)" fill="#2a68af" stroke="#5d94d3" stroke-width="0.1"/>
      <rect id="Rectangle_8291" data-name="Rectangle 8291" width="8" height="8" transform="translate(109 1605)" fill="#2a68af" stroke="#5d94d3" stroke-width="0.1"/>
      <rect id="Rectangle_8438" data-name="Rectangle 8438" width="8" height="8" transform="translate(109 1621)" fill="#2a68af" stroke="#5d94d3" stroke-width="0.1"/>
      <rect id="Rectangle_8416" data-name="Rectangle 8416" width="8" height="8" transform="translate(109 1613)" fill="#2a68af" stroke="#5d94d3" stroke-width="0.1"/>
      <rect id="Rectangle_8427" data-name="Rectangle 8427" width="8" height="8" transform="translate(109 1629)" fill="#2a68af" stroke="#5d94d3" stroke-width="0.1"/>
      <rect id="Rectangle_8259" data-name="Rectangle 8259" width="8" height="8" transform="translate(117 1597)" fill="#2a68af" stroke="#5d94d3" stroke-width="0.1"/>
      <rect id="Rectangle_8292" data-name="Rectangle 8292" width="8" height="8" transform="translate(117 1605)" fill="#2a68af" stroke="#5d94d3" stroke-width="0.1"/>
      <rect id="Rectangle_8439" data-name="Rectangle 8439" width="8" height="8" transform="translate(117 1621)" fill="#2a68af" stroke="#5d94d3" stroke-width="0.1"/>
      <rect id="Rectangle_8417" data-name="Rectangle 8417" width="8" height="8" transform="translate(117 1613)" fill="#2a68af" stroke="#5d94d3" stroke-width="0.1"/>
      <rect id="Rectangle_8428" data-name="Rectangle 8428" width="8" height="8" transform="translate(117 1629)" fill="#2a68af" stroke="#5d94d3" stroke-width="0.1"/>
      <rect id="Rectangle_8271" data-name="Rectangle 8271" width="8" height="8" transform="translate(125 1597)" fill="#2a68af" stroke="#5d94d3" stroke-width="0.1"/>
      <rect id="Rectangle_8472" data-name="Rectangle 8472" width="8" height="8" transform="translate(157 1597)" fill="#2a68af" stroke="#5d94d3" stroke-width="0.1"/>
      <rect id="Rectangle_8500" data-name="Rectangle 8500" width="8" height="8" transform="translate(189 1597)" fill="#2a68af" stroke="#5d94d3" stroke-width="0.1"/>
      <rect id="Rectangle_20991" data-name="Rectangle 20991" width="8" height="8" transform="translate(229 1597)" fill="#2a68af" stroke="#5d94d3" stroke-width="0.1"/>
      <rect id="Rectangle_21026" data-name="Rectangle 21026" width="8" height="8" transform="translate(269 1597)" fill="#2a68af" stroke="#5d94d3" stroke-width="0.1"/>
      <rect id="Rectangle_8293" data-name="Rectangle 8293" width="8" height="8" transform="translate(125 1605)" fill="#2a68af" stroke="#5d94d3" stroke-width="0.1"/>
      <rect id="Rectangle_8473" data-name="Rectangle 8473" width="8" height="8" transform="translate(157 1605)" fill="#2a68af" stroke="#5d94d3" stroke-width="0.1"/>
      <rect id="Rectangle_8501" data-name="Rectangle 8501" width="8" height="8" transform="translate(189 1605)" fill="#2a68af" stroke="#5d94d3" stroke-width="0.1"/>
      <rect id="Rectangle_20992" data-name="Rectangle 20992" width="8" height="8" transform="translate(229 1605)" fill="#2a68af" stroke="#5d94d3" stroke-width="0.1"/>
      <rect id="Rectangle_21027" data-name="Rectangle 21027" width="8" height="8" transform="translate(269 1605)" fill="#2a68af" stroke="#5d94d3" stroke-width="0.1"/>
      <rect id="Rectangle_8440" data-name="Rectangle 8440" width="8" height="8" transform="translate(125 1621)" fill="#2a68af" stroke="#5d94d3" stroke-width="0.1"/>
      <rect id="Rectangle_8474" data-name="Rectangle 8474" width="8" height="8" transform="translate(157 1621)" fill="#2a68af" stroke="#5d94d3" stroke-width="0.1"/>
      <rect id="Rectangle_8502" data-name="Rectangle 8502" width="8" height="8" transform="translate(189 1621)" fill="#2a68af" stroke="#5d94d3" stroke-width="0.1"/>
      <rect id="Rectangle_20993" data-name="Rectangle 20993" width="8" height="8" transform="translate(229 1621)" fill="#2a68af" stroke="#5d94d3" stroke-width="0.1"/>
      <rect id="Rectangle_21028" data-name="Rectangle 21028" width="8" height="8" transform="translate(269 1621)" fill="#2a68af" stroke="#5d94d3" stroke-width="0.1"/>
      <rect id="Rectangle_8418" data-name="Rectangle 8418" width="8" height="8" transform="translate(125 1613)" fill="#2a68af" stroke="#5d94d3" stroke-width="0.1"/>
      <rect id="Rectangle_8475" data-name="Rectangle 8475" width="8" height="8" transform="translate(157 1613)" fill="#2a68af" stroke="#5d94d3" stroke-width="0.1"/>
      <rect id="Rectangle_8503" data-name="Rectangle 8503" width="8" height="8" transform="translate(189 1613)" fill="#2a68af" stroke="#5d94d3" stroke-width="0.1"/>
      <rect id="Rectangle_20994" data-name="Rectangle 20994" width="8" height="8" transform="translate(229 1613)" fill="#2a68af" stroke="#5d94d3" stroke-width="0.1"/>
      <rect id="Rectangle_21029" data-name="Rectangle 21029" width="8" height="8" transform="translate(269 1613)" fill="#2a68af" stroke="#5d94d3" stroke-width="0.1"/>
      <rect id="Rectangle_8429" data-name="Rectangle 8429" width="8" height="8" transform="translate(125 1629)" fill="#2a68af" stroke="#5d94d3" stroke-width="0.1"/>
      <rect id="Rectangle_8476" data-name="Rectangle 8476" width="8" height="8" transform="translate(157 1629)" fill="#2a68af" stroke="#5d94d3" stroke-width="0.1"/>
      <rect id="Rectangle_8504" data-name="Rectangle 8504" width="8" height="8" transform="translate(189 1629)" fill="#2a68af" stroke="#5d94d3" stroke-width="0.1"/>
      <rect id="Rectangle_20995" data-name="Rectangle 20995" width="8" height="8" transform="translate(229 1629)" fill="#2a68af" stroke="#5d94d3" stroke-width="0.1"/>
      <rect id="Rectangle_21030" data-name="Rectangle 21030" width="8" height="8" transform="translate(269 1629)" fill="#2a68af" stroke="#5d94d3" stroke-width="0.1"/>
      <rect id="Rectangle_8290" data-name="Rectangle 8290" width="8" height="8" transform="translate(141 1597)" fill="#2a68af" stroke="#5d94d3" stroke-width="0.1"/>
      <rect id="Rectangle_8458" data-name="Rectangle 8458" width="8" height="8" transform="translate(173 1597)" fill="#2a68af" stroke="#5d94d3" stroke-width="0.1"/>
      <rect id="Rectangle_21005" data-name="Rectangle 21005" width="8" height="8" transform="translate(213 1597)" fill="#2a68af" stroke="#5d94d3" stroke-width="0.1"/>
      <rect id="Rectangle_21040" data-name="Rectangle 21040" width="8" height="8" transform="translate(253 1597)" fill="#2a68af" stroke="#5d94d3" stroke-width="0.1"/>
      <rect id="Rectangle_8486" data-name="Rectangle 8486" width="8" height="8" transform="translate(285 1597)" fill="#2a68af" stroke="#5d94d3" stroke-width="0.1"/>
      <rect id="Rectangle_8551" data-name="Rectangle 8551" width="8" height="8" transform="translate(301 1597)" fill="#2a68af" stroke="#5d94d3" stroke-width="0.1"/>
      <rect id="Rectangle_8565" data-name="Rectangle 8565" width="8" height="8" transform="translate(317 1597)" fill="#2a68af" stroke="#5d94d3" stroke-width="0.1"/>
      <rect id="Rectangle_8514" data-name="Rectangle 8514" width="8" height="8" transform="translate(325 1597)" fill="#2a68af" stroke="#5d94d3" stroke-width="0.1"/>
      <rect id="Rectangle_8294" data-name="Rectangle 8294" width="8" height="8" transform="translate(141 1605)" fill="#2a68af" stroke="#5d94d3" stroke-width="0.1"/>
      <rect id="Rectangle_8459" data-name="Rectangle 8459" width="8" height="8" transform="translate(173 1605)" fill="#2a68af" stroke="#5d94d3" stroke-width="0.1"/>
      <rect id="Rectangle_21006" data-name="Rectangle 21006" width="8" height="8" transform="translate(213 1605)" fill="#2a68af" stroke="#5d94d3" stroke-width="0.1"/>
      <rect id="Rectangle_21041" data-name="Rectangle 21041" width="8" height="8" transform="translate(253 1605)" fill="#2a68af" stroke="#5d94d3" stroke-width="0.1"/>
      <rect id="Rectangle_8487" data-name="Rectangle 8487" width="8" height="8" transform="translate(285 1605)" fill="#2a68af" stroke="#5d94d3" stroke-width="0.1"/>
      <rect id="Rectangle_8552" data-name="Rectangle 8552" width="8" height="8" transform="translate(301 1605)" fill="#2a68af" stroke="#5d94d3" stroke-width="0.1"/>
      <rect id="Rectangle_8566" data-name="Rectangle 8566" width="8" height="8" transform="translate(317 1605)" fill="#2a68af" stroke="#5d94d3" stroke-width="0.1"/>
      <rect id="Rectangle_8515" data-name="Rectangle 8515" width="8" height="8" transform="translate(325 1605)" fill="#2a68af" stroke="#5d94d3" stroke-width="0.1"/>
      <rect id="Rectangle_8441" data-name="Rectangle 8441" width="8" height="8" transform="translate(141 1621)" fill="#2a68af" stroke="#5d94d3" stroke-width="0.1"/>
      <rect id="Rectangle_8460" data-name="Rectangle 8460" width="8" height="8" transform="translate(173 1621)" fill="#2a68af" stroke="#5d94d3" stroke-width="0.1"/>
      <rect id="Rectangle_21007" data-name="Rectangle 21007" width="8" height="8" transform="translate(213 1621)" fill="#2a68af" stroke="#5d94d3" stroke-width="0.1"/>
      <rect id="Rectangle_21042" data-name="Rectangle 21042" width="8" height="8" transform="translate(253 1621)" fill="#2a68af" stroke="#5d94d3" stroke-width="0.1"/>
      <rect id="Rectangle_8488" data-name="Rectangle 8488" width="8" height="8" transform="translate(285 1621)" fill="#2a68af" stroke="#5d94d3" stroke-width="0.1"/>
      <rect id="Rectangle_8553" data-name="Rectangle 8553" width="8" height="8" transform="translate(301 1621)" fill="#2a68af" stroke="#5d94d3" stroke-width="0.1"/>
      <rect id="Rectangle_8567" data-name="Rectangle 8567" width="8" height="8" transform="translate(317 1621)" fill="#2a68af" stroke="#5d94d3" stroke-width="0.1"/>
      <rect id="Rectangle_8516" data-name="Rectangle 8516" width="8" height="8" transform="translate(325 1621)" fill="#2a68af" stroke="#5d94d3" stroke-width="0.1"/>
      <rect id="Rectangle_8419" data-name="Rectangle 8419" width="8" height="8" transform="translate(141 1613)" fill="#2a68af" stroke="#5d94d3" stroke-width="0.1"/>
      <rect id="Rectangle_8461" data-name="Rectangle 8461" width="8" height="8" transform="translate(173 1613)" fill="#2a68af" stroke="#5d94d3" stroke-width="0.1"/>
      <rect id="Rectangle_21008" data-name="Rectangle 21008" width="8" height="8" transform="translate(213 1613)" fill="#2a68af" stroke="#5d94d3" stroke-width="0.1"/>
      <rect id="Rectangle_21043" data-name="Rectangle 21043" width="8" height="8" transform="translate(253 1613)" fill="#2a68af" stroke="#5d94d3" stroke-width="0.1"/>
      <rect id="Rectangle_8489" data-name="Rectangle 8489" width="8" height="8" transform="translate(285 1613)" fill="#2a68af" stroke="#5d94d3" stroke-width="0.1"/>
      <rect id="Rectangle_8554" data-name="Rectangle 8554" width="8" height="8" transform="translate(301 1613)" fill="#2a68af" stroke="#5d94d3" stroke-width="0.1"/>
      <rect id="Rectangle_8568" data-name="Rectangle 8568" width="8" height="8" transform="translate(317 1613)" fill="#2a68af" stroke="#5d94d3" stroke-width="0.1"/>
      <rect id="Rectangle_8517" data-name="Rectangle 8517" width="8" height="8" transform="translate(325 1613)" fill="#2a68af" stroke="#5d94d3" stroke-width="0.1"/>
      <rect id="Rectangle_8430" data-name="Rectangle 8430" width="8" height="8" transform="translate(141 1629)" fill="#2a68af" stroke="#5d94d3" stroke-width="0.1"/>
      <rect id="Rectangle_8462" data-name="Rectangle 8462" width="8" height="8" transform="translate(173 1629)" fill="#2a68af" stroke="#5d94d3" stroke-width="0.1"/>
      <rect id="Rectangle_21009" data-name="Rectangle 21009" width="8" height="8" transform="translate(213 1629)" fill="#2a68af" stroke="#5d94d3" stroke-width="0.1"/>
      <rect id="Rectangle_21044" data-name="Rectangle 21044" width="8" height="8" transform="translate(253 1629)" fill="#2a68af" stroke="#5d94d3" stroke-width="0.1"/>
      <rect id="Rectangle_8490" data-name="Rectangle 8490" width="8" height="8" transform="translate(285 1629)" fill="#2a68af" stroke="#5d94d3" stroke-width="0.1"/>
      <rect id="Rectangle_8555" data-name="Rectangle 8555" width="8" height="8" transform="translate(301 1629)" fill="#2a68af" stroke="#5d94d3" stroke-width="0.1"/>
      <rect id="Rectangle_8569" data-name="Rectangle 8569" width="8" height="8" transform="translate(317 1629)" fill="#2a68af" stroke="#5d94d3" stroke-width="0.1"/>
      <rect id="Rectangle_8518" data-name="Rectangle 8518" width="8" height="8" transform="translate(325 1629)" fill="#2a68af" stroke="#5d94d3" stroke-width="0.1"/>
      <rect id="Rectangle_8284" data-name="Rectangle 8284" width="8" height="8" transform="translate(133 1597)" fill="#2a68af" stroke="#5d94d3" stroke-width="0.1"/>
      <rect id="Rectangle_8465" data-name="Rectangle 8465" width="8" height="8" transform="translate(165 1597)" fill="#2a68af" stroke="#5d94d3" stroke-width="0.1"/>
      <rect id="Rectangle_21012" data-name="Rectangle 21012" width="8" height="8" transform="translate(205 1597)" fill="#2a68af" stroke="#5d94d3" stroke-width="0.1"/>
      <rect id="Rectangle_21047" data-name="Rectangle 21047" width="8" height="8" transform="translate(245 1597)" fill="#2a68af" stroke="#5d94d3" stroke-width="0.1"/>
      <rect id="Rectangle_8493" data-name="Rectangle 8493" width="8" height="8" transform="translate(197 1597)" fill="#2a68af" stroke="#5d94d3" stroke-width="0.1"/>
      <rect id="Rectangle_20984" data-name="Rectangle 20984" width="8" height="8" transform="translate(237 1597)" fill="#2a68af" stroke="#5d94d3" stroke-width="0.1"/>
      <rect id="Rectangle_21019" data-name="Rectangle 21019" width="8" height="8" transform="translate(277 1597)" fill="#2a68af" stroke="#5d94d3" stroke-width="0.1"/>
      <rect id="Rectangle_8558" data-name="Rectangle 8558" width="8" height="8" transform="translate(293 1597)" fill="#2a68af" stroke="#5d94d3" stroke-width="0.1"/>
      <rect id="Rectangle_8572" data-name="Rectangle 8572" width="8" height="8" transform="translate(309 1597)" fill="#2a68af" stroke="#5d94d3" stroke-width="0.1"/>
      <rect id="Rectangle_8295" data-name="Rectangle 8295" width="8" height="8" transform="translate(133 1605)" fill="#2a68af" stroke="#5d94d3" stroke-width="0.1"/>
      <rect id="Rectangle_8466" data-name="Rectangle 8466" width="8" height="8" transform="translate(165 1605)" fill="#2a68af" stroke="#5d94d3" stroke-width="0.1"/>
      <rect id="Rectangle_21013" data-name="Rectangle 21013" width="8" height="8" transform="translate(205 1605)" fill="#2a68af" stroke="#5d94d3" stroke-width="0.1"/>
      <rect id="Rectangle_21048" data-name="Rectangle 21048" width="8" height="8" transform="translate(245 1605)" fill="#2a68af" stroke="#5d94d3" stroke-width="0.1"/>
      <rect id="Rectangle_8494" data-name="Rectangle 8494" width="8" height="8" transform="translate(197 1605)" fill="#2a68af" stroke="#5d94d3" stroke-width="0.1"/>
      <rect id="Rectangle_20985" data-name="Rectangle 20985" width="8" height="8" transform="translate(237 1605)" fill="#2a68af" stroke="#5d94d3" stroke-width="0.1"/>
      <rect id="Rectangle_21020" data-name="Rectangle 21020" width="8" height="8" transform="translate(277 1605)" fill="#2a68af" stroke="#5d94d3" stroke-width="0.1"/>
      <rect id="Rectangle_8559" data-name="Rectangle 8559" width="8" height="8" transform="translate(293 1605)" fill="#2a68af" stroke="#5d94d3" stroke-width="0.1"/>
      <rect id="Rectangle_8573" data-name="Rectangle 8573" width="8" height="8" transform="translate(309 1605)" fill="#2a68af" stroke="#5d94d3" stroke-width="0.1"/>
      <rect id="Rectangle_8442" data-name="Rectangle 8442" width="8" height="8" transform="translate(133 1621)" fill="#2a68af" stroke="#5d94d3" stroke-width="0.1"/>
      <rect id="Rectangle_8467" data-name="Rectangle 8467" width="8" height="8" transform="translate(165 1621)" fill="#2a68af" stroke="#5d94d3" stroke-width="0.1"/>
      <rect id="Rectangle_21014" data-name="Rectangle 21014" width="8" height="8" transform="translate(205 1621)" fill="#2a68af" stroke="#5d94d3" stroke-width="0.1"/>
      <rect id="Rectangle_21049" data-name="Rectangle 21049" width="8" height="8" transform="translate(245 1621)" fill="#2a68af" stroke="#5d94d3" stroke-width="0.1"/>
      <rect id="Rectangle_8495" data-name="Rectangle 8495" width="8" height="8" transform="translate(197 1621)" fill="#2a68af" stroke="#5d94d3" stroke-width="0.1"/>
      <rect id="Rectangle_20986" data-name="Rectangle 20986" width="8" height="8" transform="translate(237 1621)" fill="#2a68af" stroke="#5d94d3" stroke-width="0.1"/>
      <rect id="Rectangle_21021" data-name="Rectangle 21021" width="8" height="8" transform="translate(277 1621)" fill="#2a68af" stroke="#5d94d3" stroke-width="0.1"/>
      <rect id="Rectangle_8560" data-name="Rectangle 8560" width="8" height="8" transform="translate(293 1621)" fill="#2a68af" stroke="#5d94d3" stroke-width="0.1"/>
      <rect id="Rectangle_8574" data-name="Rectangle 8574" width="8" height="8" transform="translate(309 1621)" fill="#2a68af" stroke="#5d94d3" stroke-width="0.1"/>
      <rect id="Rectangle_8420" data-name="Rectangle 8420" width="8" height="8" transform="translate(133 1613)" fill="#2a68af" stroke="#5d94d3" stroke-width="0.1"/>
      <rect id="Rectangle_8468" data-name="Rectangle 8468" width="8" height="8" transform="translate(165 1613)" fill="#2a68af" stroke="#5d94d3" stroke-width="0.1"/>
      <rect id="Rectangle_21015" data-name="Rectangle 21015" width="8" height="8" transform="translate(205 1613)" fill="#2a68af" stroke="#5d94d3" stroke-width="0.1"/>
      <rect id="Rectangle_21050" data-name="Rectangle 21050" width="8" height="8" transform="translate(245 1613)" fill="#2a68af" stroke="#5d94d3" stroke-width="0.1"/>
      <rect id="Rectangle_8496" data-name="Rectangle 8496" width="8" height="8" transform="translate(197 1613)" fill="#2a68af" stroke="#5d94d3" stroke-width="0.1"/>
      <rect id="Rectangle_20987" data-name="Rectangle 20987" width="8" height="8" transform="translate(237 1613)" fill="#2a68af" stroke="#5d94d3" stroke-width="0.1"/>
      <rect id="Rectangle_21022" data-name="Rectangle 21022" width="8" height="8" transform="translate(277 1613)" fill="#2a68af" stroke="#5d94d3" stroke-width="0.1"/>
      <rect id="Rectangle_8561" data-name="Rectangle 8561" width="8" height="8" transform="translate(293 1613)" fill="#2a68af" stroke="#5d94d3" stroke-width="0.1"/>
      <rect id="Rectangle_8575" data-name="Rectangle 8575" width="8" height="8" transform="translate(309 1613)" fill="#2a68af" stroke="#5d94d3" stroke-width="0.1"/>
      <rect id="Rectangle_8431" data-name="Rectangle 8431" width="8" height="8" transform="translate(133 1629)" fill="#2a68af" stroke="#5d94d3" stroke-width="0.1"/>
      <rect id="Rectangle_8469" data-name="Rectangle 8469" width="8" height="8" transform="translate(165 1629)" fill="#2a68af" stroke="#5d94d3" stroke-width="0.1"/>
      <rect id="Rectangle_21016" data-name="Rectangle 21016" width="8" height="8" transform="translate(205 1629)" fill="#2a68af" stroke="#5d94d3" stroke-width="0.1"/>
      <rect id="Rectangle_21051" data-name="Rectangle 21051" width="8" height="8" transform="translate(245 1629)" fill="#2a68af" stroke="#5d94d3" stroke-width="0.1"/>
      <rect id="Rectangle_8497" data-name="Rectangle 8497" width="8" height="8" transform="translate(197 1629)" fill="#2a68af" stroke="#5d94d3" stroke-width="0.1"/>
      <rect id="Rectangle_20988" data-name="Rectangle 20988" width="8" height="8" transform="translate(237 1629)" fill="#2a68af" stroke="#5d94d3" stroke-width="0.1"/>
      <rect id="Rectangle_21023" data-name="Rectangle 21023" width="8" height="8" transform="translate(277 1629)" fill="#2a68af" stroke="#5d94d3" stroke-width="0.1"/>
      <rect id="Rectangle_8562" data-name="Rectangle 8562" width="8" height="8" transform="translate(293 1629)" fill="#2a68af" stroke="#5d94d3" stroke-width="0.1"/>
      <rect id="Rectangle_8576" data-name="Rectangle 8576" width="8" height="8" transform="translate(309 1629)" fill="#2a68af" stroke="#5d94d3" stroke-width="0.1"/>
      <rect id="Rectangle_8287" data-name="Rectangle 8287" width="8" height="8" transform="translate(149 1597)" fill="#2a68af" stroke="#5d94d3" stroke-width="0.1"/>
      <rect id="Rectangle_8451" data-name="Rectangle 8451" width="8" height="8" transform="translate(181 1597)" fill="#2a68af" stroke="#5d94d3" stroke-width="0.1"/>
      <rect id="Rectangle_20998" data-name="Rectangle 20998" width="8" height="8" transform="translate(221 1597)" fill="#2a68af" stroke="#5d94d3" stroke-width="0.1"/>
      <rect id="Rectangle_21033" data-name="Rectangle 21033" width="8" height="8" transform="translate(261 1597)" fill="#2a68af" stroke="#5d94d3" stroke-width="0.1"/>
      <rect id="Rectangle_8507" data-name="Rectangle 8507" width="8" height="8" transform="translate(333 1597)" fill="#2a68af" stroke="#5d94d3" stroke-width="0.1"/>
      <rect id="Rectangle_8534" data-name="Rectangle 8534" width="8" height="8" transform="translate(341 1597)" fill="#2a68af" stroke="#5d94d3" stroke-width="0.1"/>
      <rect id="Rectangle_8296" data-name="Rectangle 8296" width="8" height="8" transform="translate(149 1605)" fill="#2a68af" stroke="#5d94d3" stroke-width="0.1"/>
      <rect id="Rectangle_8452" data-name="Rectangle 8452" width="8" height="8" transform="translate(181 1605)" fill="#2a68af" stroke="#5d94d3" stroke-width="0.1"/>
      <rect id="Rectangle_20999" data-name="Rectangle 20999" width="8" height="8" transform="translate(221 1605)" fill="#2a68af" stroke="#5d94d3" stroke-width="0.1"/>
      <rect id="Rectangle_21034" data-name="Rectangle 21034" width="8" height="8" transform="translate(261 1605)" fill="#2a68af" stroke="#5d94d3" stroke-width="0.1"/>
      <rect id="Rectangle_8508" data-name="Rectangle 8508" width="8" height="8" transform="translate(333 1605)" fill="#2a68af" stroke="#5d94d3" stroke-width="0.1"/>
      <rect id="Rectangle_8535" data-name="Rectangle 8535" width="8" height="8" transform="translate(341 1605)" fill="#2a68af" stroke="#5d94d3" stroke-width="0.1"/>
      <rect id="Rectangle_8443" data-name="Rectangle 8443" width="8" height="8" transform="translate(149 1621)" fill="#2a68af" stroke="#5d94d3" stroke-width="0.1"/>
      <rect id="Rectangle_8453" data-name="Rectangle 8453" width="8" height="8" transform="translate(181 1621)" fill="#2a68af" stroke="#5d94d3" stroke-width="0.1"/>
      <rect id="Rectangle_21000" data-name="Rectangle 21000" width="8" height="8" transform="translate(221 1621)" fill="#2a68af" stroke="#5d94d3" stroke-width="0.1"/>
      <rect id="Rectangle_21035" data-name="Rectangle 21035" width="8" height="8" transform="translate(261 1621)" fill="#2a68af" stroke="#5d94d3" stroke-width="0.1"/>
      <rect id="Rectangle_8509" data-name="Rectangle 8509" width="8" height="8" transform="translate(333 1621)" fill="#2a68af" stroke="#5d94d3" stroke-width="0.1"/>
      <rect id="Rectangle_8537" data-name="Rectangle 8537" width="8" height="8" transform="translate(341 1621)" fill="#2a68af" stroke="#5d94d3" stroke-width="0.1"/>
      <rect id="Rectangle_8421" data-name="Rectangle 8421" width="8" height="8" transform="translate(149 1613)" fill="#2a68af" stroke="#5d94d3" stroke-width="0.1"/>
      <rect id="Rectangle_8454" data-name="Rectangle 8454" width="8" height="8" transform="translate(181 1613)" fill="#2a68af" stroke="#5d94d3" stroke-width="0.1"/>
      <rect id="Rectangle_21001" data-name="Rectangle 21001" width="8" height="8" transform="translate(221 1613)" fill="#2a68af" stroke="#5d94d3" stroke-width="0.1"/>
      <rect id="Rectangle_21036" data-name="Rectangle 21036" width="8" height="8" transform="translate(261 1613)" fill="#2a68af" stroke="#5d94d3" stroke-width="0.1"/>
      <rect id="Rectangle_8510" data-name="Rectangle 8510" width="8" height="8" transform="translate(333 1613)" fill="#2a68af" stroke="#5d94d3" stroke-width="0.1"/>
      <rect id="Rectangle_8536" data-name="Rectangle 8536" width="8" height="8" transform="translate(341 1613)" fill="#2a68af" stroke="#5d94d3" stroke-width="0.1"/>
      <rect id="Rectangle_8432" data-name="Rectangle 8432" width="8" height="8" transform="translate(149 1629)" fill="#2a68af" stroke="#5d94d3" stroke-width="0.1"/>
      <rect id="Rectangle_8455" data-name="Rectangle 8455" width="8" height="8" transform="translate(181 1629)" fill="#2a68af" stroke="#5d94d3" stroke-width="0.1"/>
      <rect id="Rectangle_21002" data-name="Rectangle 21002" width="8" height="8" transform="translate(221 1629)" fill="#2a68af" stroke="#5d94d3" stroke-width="0.1"/>
      <rect id="Rectangle_21037" data-name="Rectangle 21037" width="8" height="8" transform="translate(261 1629)" fill="#2a68af" stroke="#5d94d3" stroke-width="0.1"/>
      <rect id="Rectangle_8511" data-name="Rectangle 8511" width="8" height="8" transform="translate(333 1629)" fill="#2a68af" stroke="#5d94d3" stroke-width="0.1"/>
      <rect id="Rectangle_8250" data-name="Rectangle 8250" width="8" height="8" transform="translate(101 1597)" fill="#2a68af" stroke="#5d94d3" stroke-width="0.1"/>
      <rect id="Rectangle_8297" data-name="Rectangle 8297" width="8" height="8" transform="translate(101 1605)" fill="#2a68af" stroke="#5d94d3" stroke-width="0.1"/>
      <rect id="Rectangle_8444" data-name="Rectangle 8444" width="8" height="8" transform="translate(101 1621)" fill="#2a68af" stroke="#5d94d3" stroke-width="0.1"/>
      <rect id="Rectangle_8422" data-name="Rectangle 8422" width="8" height="8" transform="translate(101 1613)" fill="#2a68af" stroke="#5d94d3" stroke-width="0.1"/>
      <rect id="Rectangle_8433" data-name="Rectangle 8433" width="8" height="8" transform="translate(101 1629)" fill="#2a68af" stroke="#5d94d3" stroke-width="0.1"/>
      <rect id="Rectangle_8252" data-name="Rectangle 8252" width="8" height="8" transform="translate(93 1597)" fill="#2a68af" stroke="#5d94d3" stroke-width="0.1"/>
      <rect id="Rectangle_8298" data-name="Rectangle 8298" width="8" height="8" transform="translate(93 1605)" fill="#2a68af" stroke="#5d94d3" stroke-width="0.1"/>
      <rect id="Rectangle_8445" data-name="Rectangle 8445" width="8" height="8" transform="translate(93 1621)" fill="#2a68af" stroke="#5d94d3" stroke-width="0.1"/>
      <rect id="Rectangle_8423" data-name="Rectangle 8423" width="8" height="8" transform="translate(93 1613)" fill="#2a68af" stroke="#5d94d3" stroke-width="0.1"/>
      <rect id="Rectangle_8434" data-name="Rectangle 8434" width="8" height="8" transform="translate(93 1629)" fill="#2a68af" stroke="#5d94d3" stroke-width="0.1"/>
      <rect id="Rectangle_8254" data-name="Rectangle 8254" width="8" height="8" transform="translate(85 1597)" fill="#2a68af" stroke="#5d94d3" stroke-width="0.1"/>
      <rect id="Rectangle_8299" data-name="Rectangle 8299" width="8" height="8" transform="translate(85 1605)" fill="#2a68af" stroke="#5d94d3" stroke-width="0.1"/>
      <rect id="Rectangle_8446" data-name="Rectangle 8446" width="8" height="8" transform="translate(85 1621)" fill="#2a68af" stroke="#5d94d3" stroke-width="0.1"/>
      <rect id="Rectangle_8424" data-name="Rectangle 8424" width="8" height="8" transform="translate(85 1613)" fill="#2a68af" stroke="#5d94d3" stroke-width="0.1"/>
      <rect id="Rectangle_8435" data-name="Rectangle 8435" width="8" height="8" transform="translate(85 1629)" fill="#2a68af" stroke="#5d94d3" stroke-width="0.1"/>
      <rect id="Rectangle_8267" data-name="Rectangle 8267" width="8" height="8" transform="translate(77 1597)" fill="#2a68af" stroke="#5d94d3" stroke-width="0.1"/>
      <rect id="Rectangle_8300" data-name="Rectangle 8300" width="8" height="8" transform="translate(77 1605)" fill="#2a68af" stroke="#5d94d3" stroke-width="0.1"/>
      <rect id="Rectangle_8447" data-name="Rectangle 8447" width="8" height="8" transform="translate(77 1621)" fill="#2a68af" stroke="#5d94d3" stroke-width="0.1"/>
      <rect id="Rectangle_8425" data-name="Rectangle 8425" width="8" height="8" transform="translate(77 1613)" fill="#2a68af" stroke="#5d94d3" stroke-width="0.1"/>
      <rect id="Rectangle_8436" data-name="Rectangle 8436" width="8" height="8" transform="translate(77 1629)" fill="#2a68af" stroke="#5d94d3" stroke-width="0.1"/>
      <rect id="Rectangle_8283" data-name="Rectangle 8283" width="8" height="8" transform="translate(69 1597)" fill="#2a68af" stroke="#5d94d3" stroke-width="0.1"/>
      <rect id="Rectangle_8542" data-name="Rectangle 8542" width="8" height="8" transform="translate(61 1597)" fill="#2a68af" stroke="#5d94d3" stroke-width="0.1"/>
      <rect id="Rectangle_8726" data-name="Rectangle 8726" width="8" height="8" transform="translate(53 1597)" fill="#2a68af" stroke="#5d94d3" stroke-width="0.1"/>
      <rect id="Rectangle_8729" data-name="Rectangle 8729" width="8" height="8" transform="translate(349 1597)" fill="#2a68af" stroke="#5d94d3" stroke-width="0.1"/>
      <rect id="Rectangle_8301" data-name="Rectangle 8301" width="8" height="8" transform="translate(69 1605)" fill="#2a68af" stroke="#5d94d3" stroke-width="0.1"/>
      <rect id="Rectangle_8543" data-name="Rectangle 8543" width="8" height="8" transform="translate(61 1605)" fill="#2a68af" stroke="#5d94d3" stroke-width="0.1"/>
      <rect id="Rectangle_8725" data-name="Rectangle 8725" width="8" height="8" transform="translate(53 1605)" fill="#2a68af" stroke="#5d94d3" stroke-width="0.1"/>
      <rect id="Rectangle_8728" data-name="Rectangle 8728" width="8" height="8" transform="translate(349 1605)" fill="#2a68af" stroke="#5d94d3" stroke-width="0.1"/>
      <rect id="Rectangle_8448" data-name="Rectangle 8448" width="8" height="8" transform="translate(69 1621)" fill="#2a68af" stroke="#5d94d3" stroke-width="0.1"/>
      <rect id="Rectangle_8544" data-name="Rectangle 8544" width="8" height="8" transform="translate(61 1621)" fill="#2a68af" stroke="#5d94d3" stroke-width="0.1"/>
      <rect id="Rectangle_8426" data-name="Rectangle 8426" width="8" height="8" transform="translate(69 1613)" fill="#2a68af" stroke="#5d94d3" stroke-width="0.1"/>
      <rect id="Rectangle_8545" data-name="Rectangle 8545" width="8" height="8" transform="translate(61 1613)" fill="#2a68af" stroke="#5d94d3" stroke-width="0.1"/>
      <rect id="Rectangle_8727" data-name="Rectangle 8727" width="8" height="8" transform="translate(53 1613)" fill="#2a68af" stroke="#5d94d3" stroke-width="0.1"/>
      <rect id="Rectangle_8730" data-name="Rectangle 8730" width="8" height="8" transform="translate(349 1613)" fill="#2a68af" stroke="#5d94d3" stroke-width="0.1"/>
      <rect id="Rectangle_8437" data-name="Rectangle 8437" width="8" height="8" transform="translate(69 1629)" fill="#2a68af" stroke="#5d94d3" stroke-width="0.1"/>
    </g>
    <g id="Group_37389" data-name="Group 37389" transform="translate(3816 967)">
      <path id="Each_Package_Include" data-name="Each Package Include" d="M1.368-13.68v2.448h8.664A16.64,16.64,0,0,1,.816.552L2.424,2.664A19.052,19.052,0,0,0,12.072-9.144,22.413,22.413,0,0,0,21.6,2.448L23.184.384a21,21,0,0,1-9.6-11.616h9.048V-13.68H13.008a37.122,37.122,0,0,0,.264-4.44V-19.7H10.728v2.16c-.024,1.344-.12,2.616-.264,3.864ZM32.736-9.048v8.04h5.712V-3.936a12.767,12.767,0,0,1,1.56.72A6.862,6.862,0,0,1,38.568.576,11.513,11.513,0,0,0,36.96-.888L35.808.168a11.765,11.765,0,0,1,1.848,1.92l.72-.816,1.224,1.1A8.607,8.607,0,0,0,41.616-2.3a8.448,8.448,0,0,1,1.008.7l.48-.744V.528c0,1.056.528,1.584,1.632,1.584h.816a1.175,1.175,0,0,0,1.2-.672,15.36,15.36,0,0,0,.528-3.5l-1.536-.5a23.416,23.416,0,0,1-.168,2.544c-.048.24-.144.36-.288.384H45.1c-.144,0-.216-.1-.216-.24V-9.048H39.264v1.9h.84v2.184a8.945,8.945,0,0,0-.84-.384l-.816,1.2v-4.9Zm9.048,1.9H43.1v3.84A12.354,12.354,0,0,0,41.76-4.1c0-.144.024-.312.024-.48ZM36.576-2.424H34.584v-.96h1.992ZM34.584-4.56v-.912h1.992v.912Zm0-2.088v-.96h1.992v.96ZM34.2-.84A8.978,8.978,0,0,1,32.112,1.1l1.056,1.368A10.469,10.469,0,0,0,35.4.216ZM25.272-18.48V-16.7H27.12v1.272c0,.792.648,1.2,1.944,1.2H45.288v-1.632H29.928c-.408,0-.6-.192-.6-.552V-16.7h17.4V-18.48h-9.48a13.025,13.025,0,0,0-.672-1.416l-2.472.432c.192.288.408.624.6.984Zm2.64,4.944v3.72H44.04v-3.72Zm13.824,2.352H30.216v-.984h11.52ZM31.8-9.072H26.184v5.808a7.679,7.679,0,0,1-1.248,4.416L26.448,2.52A8.992,8.992,0,0,0,27.864-1.2c.72-.192,1.416-.384,2.088-.6V.024c0,.384-.192.6-.528.6a7.5,7.5,0,0,1-1.032-.1L28.9,2.4H30c1.2,0,1.8-.576,1.8-1.7ZM28.032-2.784c0-.192.024-.408.024-.6v-1.1c.48.12.984.264,1.464.432l.432-1.032v1.8C29.352-3.12,28.7-2.952,28.032-2.784Zm.024-3.192V-7.3h1.9v1.8A16.86,16.86,0,0,0,28.056-5.976Zm32.592-13.9-2.568.432a16.319,16.319,0,0,1,.744,1.584H49.656v4.56h2.472v-2.256H67.872V-13.3h2.472v-4.56H61.368Q61.008-18.972,60.648-19.872ZM52.9-13.9v2.3h4.992c-.432.192-.888.384-1.344.576a33.723,33.723,0,0,1-6.192,1.848L51.624-7.08A47.159,47.159,0,0,0,58.272-9.5c0-.024.048-.048.1-.048.192.24.408.5.6.768A28.3,28.3,0,0,1,49.9-5.064l1.248,2.136A28.7,28.7,0,0,0,60-6.96c.168.384.312.792.456,1.224A31.476,31.476,0,0,1,49.584-.744l1.248,2.136A32.8,32.8,0,0,0,60.864-3.36c0,.144.024.312.024.5a4.172,4.172,0,0,1-.6,2.592A3.786,3.786,0,0,1,57.84.264H56.592l.84,2.208h.744c2.208,0,3.648-.456,4.3-1.32a7.127,7.127,0,0,0,.816-4.008,9.769,9.769,0,0,0-.072-1.2,22.322,22.322,0,0,0,6.576,5.208L71.112-1.1a22.55,22.55,0,0,1-7.2-5.064,18.928,18.928,0,0,0,5.352-3.288l-1.728-1.7a17.9,17.9,0,0,1-5.352,3.384,11.344,11.344,0,0,0-1.9-2.808c.528-.312,1.032-.648,1.56-1.008H67.1v-2.3ZM75.7,2.28c1.68,0,2.52-.792,2.52-2.328v-6.5c.648-.288,1.3-.6,1.944-.912v-2.568c-.648.336-1.3.672-1.944.96V-12.96h1.872v-2.424H78.216v-4.248H75.768v4.248h-2.3v2.424h2.3v4.848a24.425,24.425,0,0,1-2.808.768L73.584-4.8c.72-.24,1.464-.5,2.184-.768v4.9c0,.432-.312.672-.936.672A13.293,13.293,0,0,1,72.96-.144l.552,2.424ZM88.632-19.68V2.5h2.4v-5.04H95.04V-4.8H91.032V-8.28h3.24v-2.256h-3.24v-3.312h3.84V-16.1h-3.84V-19.68ZM80.616-16.1v2.256h3.5v3.312H81.1V-8.28H84.12v.432a18.625,18.625,0,0,1-.288,2.928A31.489,31.489,0,0,1,79.32-4.3l.36,2.328q2.016-.324,3.456-.648A8.448,8.448,0,0,1,80.328.912L82.272,2.64Q86.412-.672,86.5-7.848V-19.68H84.12V-16.1Zm25.416-2.352v2.472H117.84v-2.472Zm-.576,5.952v2.472h7.176V-.6c0,.48-.336.72-.984.72-1.008,0-2.064-.072-3.168-.168l.552,2.448h3.48q2.664,0,2.664-2.376V-10.032h3.7V-12.5Zm-3.6-7.08a15.69,15.69,0,0,1-5.04,5.688l.768,2.52a18.964,18.964,0,0,0,6.552-7.128Zm1.128,5.52a18.2,18.2,0,0,1-5.976,6.648l.768,2.472c.912-.648,1.8-1.32,2.616-1.992V2.5h2.472v-11.9a18.663,18.663,0,0,0,2.376-3.6Zm18.144-1.512v2.4h2.76a22.259,22.259,0,0,1-3.168,7.248l1.1,2.76a30.094,30.094,0,0,0,2.112-4.9V2.424h2.448V-8.808c.336.672.744,1.512,1.224,2.472l1.416-2.136a41.624,41.624,0,0,0-2.64-3.24v-1.464h2.256v-2.4h-2.256V-19.7h-2.448v4.128Zm8.352-2.3v2.208h2.352a21.573,21.573,0,0,1,.648,2.184h-3.36v4.032H131.5v-1.872h8.784v1.872h2.376v-4.032h-3.168c.24-.7.456-1.416.648-2.184h2.208V-17.88h-5.232c-.24-.72-.456-1.368-.7-1.944l-2.5.432c.24.48.48.984.7,1.512Zm7.656,4.392h-2.3c-.192-.768-.36-1.512-.552-2.184h3.48A14.122,14.122,0,0,1,137.136-13.488ZM129.192-8.64v2.256h3.456A7.852,7.852,0,0,1,128.16.648l1.32,2.112a10.208,10.208,0,0,0,4.776-5.376h4.776c-.048,1.488-.192,2.3-.408,2.5A1.917,1.917,0,0,1,137.5.192c-.7,0-1.44-.024-2.256-.024l.648,2.232h1.2a14.893,14.893,0,0,0,1.752-.168,3.776,3.776,0,0,0,1.416-.552c.792-.624,1.2-2.76,1.224-6.456h-6.648c.1-.528.144-1.056.192-1.608h7.824V-8.64h-5.592c-.24-.84-.48-1.608-.72-2.28l-2.472.432c.24.576.48,1.176.72,1.848Z" transform="translate(-3547 -323)" fill="#fff"/>
    </g>
    <g id="Group_38306" data-name="Group 38306" transform="translate(271.685 -239.711)">
      <path id="Path_50177" data-name="Path 50177" d="M-47.016,908.154h-3.6v-3.6h-3.6v3.6h-3.6v3.6h10.8Z" transform="translate(-21.869 -26.243)" fill="#ff715b" stroke="rgba(0,0,0,0)" stroke-width="1"/>
      <path id="Path_50178" data-name="Path 50178" d="M53.816,896.58v3.6h3.6v3.6h3.6v3.6h-7.2v3.6h10.8v-14.4Z" transform="translate(-83.102 -21.869)" fill="#3db4c1" stroke="rgba(0,0,0,0)" stroke-width="1"/>
      <rect id="Rectangle_20978" data-name="Rectangle 20978" width="3.6" height="3.6" transform="translate(-72.485 874.711)" fill="#ff715b" stroke="rgba(0,0,0,0)" stroke-width="1"/>
      <rect id="Rectangle_20979" data-name="Rectangle 20979" width="7.2" height="3.6" transform="translate(-79.685 871.111)" fill="#ff715b" stroke="rgba(0,0,0,0)" stroke-width="1"/>
      <rect id="Rectangle_20980" data-name="Rectangle 20980" width="10.8" height="25.2" transform="translate(-97.685 867.511)" fill="#fff4cc"/>
      <path id="Path_50179" data-name="Path 50179" d="M-48.564,905.833v-25.2h-25.2v25.2Zm-10.8-21.6v3.6h3.6v3.6h-3.6v3.6h3.6v3.6h-10.8v-3.6h3.6v-3.6h3.6v-3.6h-7.2v-3.6Z" transform="translate(-13.121 -13.122)" fill="#fffeea"/>
      <rect id="Rectangle_20981" data-name="Rectangle 20981" width="10.8" height="10.8" transform="translate(-72.485 856.711)" fill="#fff8e0"/>
      <path id="Path_50180" data-name="Path 50180" d="M37.869,888.606v21.6h25.2v-21.6Zm7.2,18v-3.6h7.2v-3.6h-3.6v-3.6h-3.6v-3.6h10.8v14.4Z" transform="translate(-74.354 -17.495)" fill="#fffeea"/>
      <path id="Path_50181" data-name="Path 50181" d="M1.6,887.059H5.2v-14.4H-2v3.6H1.6Z" transform="translate(-52.485 -8.748)" fill="#fbb13c"/>
      <path id="Path_50182" data-name="Path 50182" d="M7.252,892.711v-36h-25.2v36Zm-18-28.8h7.2v14.4h-3.6v-10.8h-3.6Z" transform="translate(-43.738)" fill="#fffbc7"/>
    </g>
  </g>
</svg>
