<svg xmlns="http://www.w3.org/2000/svg" width="210" height="230" viewBox="0 0 210 230">
  <g id="rank-4" transform="translate(-1177 -3349)">
    <g id="Path_51935" data-name="Path 51935" transform="translate(1177 3349)" fill="#fff" opacity="0">
      <path d="M 209.5 229.5 L 0.5 229.5 L 0.5 0.5 L 209.5 0.5 L 209.5 229.5 Z" stroke="none"/>
      <path d="M 1 1 L 1 229 L 209 229 L 209 1 L 1 1 M 0 0 L 210 0 L 210 230 L 0 230 L 0 0 Z" stroke="none" fill="#707070"/>
    </g>
    <g id="Group_38560" data-name="Group 38560" transform="translate(-12.311 10.386)">
      <g id="Group_38552" data-name="Group 38552" transform="translate(-184 -3)">
        <g id="Group_38548" data-name="Group 38548" transform="translate(1426.598 3367.886)">
          <path id="Path_51911" data-name="Path 51911" d="M-1425.986,3444.159v50.2h5.237v6.942h20.978v7.239h15.24v-7.239h20.149v-6.942h6.76v-6.678l-4.652-1.054V3436.21h-8.8v7.949Z" transform="translate(1461.205 -3400.756)" fill="#edd5c2"/>
          <path id="Path_51912" data-name="Path 51912" d="M-1405.914,3498.462v5.837h-13.913v6.14h-7.307v5.6h7.307v8.573h6.715v19.476h42.527v-26.776h10.228v-6.875h-3.727V3502.8h-12.36v-4.341h-7.891v6h-15.106v-6Z" transform="translate(1461.143 -3397.397)" fill="#6055b1"/>
          <path id="Path_51908" data-name="Path 51908" d="M-1434.184,3479.438V3418.66h8.321v-7.868h12.116v-8.221h43.978v8.221h14.183v7.868h7.509v13.22h7.176v57.5h-22.38v-50.56h-6.488v7.46h-56.094v33.162Z" transform="translate(1460.763 -3402.57)" fill="#e28100"/>
          <path id="Path_51909" data-name="Path 51909" d="M-1419.687,3450.8v13.273h6.464V3450.8Z" transform="translate(1461.545 -3399.969)" fill="#26222e"/>
          <path id="Path_51910" data-name="Path 51910" d="M-1419.687,3450.8v13.273h6.464V3450.8Z" transform="translate(1495.271 -3399.969)" fill="#26222e"/>
          <rect id="Rectangle_26818" data-name="Rectangle 26818" width="7.378" height="7.378" transform="translate(47.852 72.121)" fill="#eb8e6e"/>
          <rect id="Rectangle_26820" data-name="Rectangle 26820" width="7.378" height="7.378" transform="translate(67.877 72.121)" fill="#eb8e6e"/>
          <rect id="Rectangle_26819" data-name="Rectangle 26819" width="13.701" height="7.378" transform="translate(55.229 79.499)" fill="#eb8e6e"/>
          <path id="Path_51913" data-name="Path 51913" d="M-1416.97,3515.4h-16.341v-3.984h-5.978v-6.869h-7.3v6.869H-1459.4v6.092h6.657v7.237h13.456v6.8h5.978v6.921h14.233v-6.921h9.768v-7.856h-7.66Z" transform="translate(1459.402 -3397.069)" fill="#edd5c2"/>
          <path id="Path_51914" data-name="Path 51914" d="M-1407,3516.7v13.579h7.75v8.026h33.866v-8.026h6.628V3516.7h-13.981v6.332h-19.22V3516.7Z" transform="translate(1462.229 -3396.414)" fill="#edd5c2"/>
          <path id="Path_51915" data-name="Path 51915" d="M-1413.519,3541.021v8.9h-6.93v13.181h55.491v-13.181h-6.269v-8.9Z" transform="translate(1461.504 -3395.101)" fill="#45134c"/>
          <path id="Path_51916" data-name="Path 51916" d="M-1413.555,3561.667v21.749h6.623v6.206s6.946.632,7.115,0,0-27.955,0-27.955Z" transform="translate(1461.876 -3393.988)" fill="#edd5c2"/>
          <path id="Path_51917" data-name="Path 51917" d="M-1387.687,3561.667v7.111h7.907v14.007h5.249v6.472h7.622v-19.424h-6.117v-8.166Z" transform="translate(1463.271 -3393.988)" fill="#edd5c2"/>
          <path id="Path_51918" data-name="Path 51918" d="M-1413.5,3582.58v6.3h-7.222v7.444h21.712v-7.444h-7.772v-6.3Z" transform="translate(1461.489 -3392.859)" fill="#a52c2a"/>
          <path id="Path_51919" data-name="Path 51919" d="M-1380.055,3581.459v14.493h13.658v-7.378h-8.622v-7.115" transform="translate(1463.683 -3392.92)" fill="#a62722"/>
        </g>
        <g id="Group_38549" data-name="Group 38549" transform="translate(1451.795 3348.614)">
          <rect id="Rectangle_20960" data-name="Rectangle 20960" width="39.859" height="4.982" transform="translate(4.982 39.859)" fill="#d99a36"/>
          <rect id="Rectangle_20961" data-name="Rectangle 20961" width="39.859" height="4.982" transform="translate(4.982 29.894)" fill="#d99a36"/>
          <rect id="Rectangle_20962" data-name="Rectangle 20962" width="4.982" height="9.965" transform="translate(0 44.841)" fill="#e8bc48"/>
          <rect id="Rectangle_20963" data-name="Rectangle 20963" width="29.894" height="9.965" transform="translate(14.947 44.841)" fill="#e8bc48"/>
          <rect id="Rectangle_20964" data-name="Rectangle 20964" width="44.841" height="4.982" transform="translate(44.841 39.859)" fill="#e8bc48"/>
          <rect id="Rectangle_20965" data-name="Rectangle 20965" width="29.894" height="4.982" transform="translate(14.947 34.876)" fill="#e8bc48"/>
          <rect id="Rectangle_20966" data-name="Rectangle 20966" width="4.982" height="4.982" transform="translate(0 34.876)" fill="#e8bc48"/>
          <rect id="Rectangle_20967" data-name="Rectangle 20967" width="44.841" height="4.982" transform="translate(44.841 29.894)" fill="#e8bc48"/>
          <rect id="Rectangle_20968" data-name="Rectangle 20968" width="4.982" height="29.894" transform="translate(0 0)" fill="#e8bc48"/>
          <path id="Path_50173" data-name="Path 50173" d="M367.471,206.859h-4.982v4.982h-4.982v4.982h-4.982v9.965h-9.965v-9.965h-4.982v14.947h29.894Z" transform="translate(-322.63 -201.877)" fill="#e8bc48"/>
          <rect id="Rectangle_20969" data-name="Rectangle 20969" width="19.929" height="9.965" transform="translate(74.735 44.841)" fill="#fff268"/>
          <rect id="Rectangle_20970" data-name="Rectangle 20970" width="24.912" height="9.965" transform="translate(44.841 44.841)" fill="#fff268"/>
          <rect id="Rectangle_20971" data-name="Rectangle 20971" width="9.965" height="9.965" transform="translate(4.982 44.841)" fill="#fff268"/>
          <rect id="Rectangle_20972" data-name="Rectangle 20972" width="19.929" height="4.982" transform="translate(74.735 34.876)" fill="#fff268"/>
          <rect id="Rectangle_20973" data-name="Rectangle 20973" width="24.912" height="4.982" transform="translate(44.841 34.876)" fill="#fff268"/>
          <rect id="Rectangle_20974" data-name="Rectangle 20974" width="9.965" height="4.982" transform="translate(4.982 34.876)" fill="#fff268"/>
          <path id="Path_50174" data-name="Path 50174" d="M427.814,230.894V201h-4.982v4.982H417.85v4.982h-4.982v4.982h-4.982v14.947Z" transform="translate(-333.15 -201)" fill="#fff268"/>
          <path id="Path_50175" data-name="Path 50175" d="M397.643,230.894v-4.982H392.66v-9.965h-4.982v-4.982H382.7v-4.982h-4.982V201h-4.982v29.894Z" transform="translate(-327.89 -201)" fill="#fff268"/>
          <path id="Path_50176" data-name="Path 50176" d="M335.824,231.771V211.841h-4.982v-4.982h-4.982v24.912Z" transform="translate(-320.877 -201.877)" fill="#fff268"/>
          <rect id="Rectangle_20975" data-name="Rectangle 20975" width="4.982" height="9.965" transform="translate(69.753 44.841)" fill="#caff94"/>
          <rect id="Rectangle_20976" data-name="Rectangle 20976" width="4.982" height="4.982" transform="translate(69.753 34.876)" fill="#caff94"/>
          <rect id="Rectangle_20977" data-name="Rectangle 20977" width="4.982" height="4.982" transform="translate(69.753 24.912)" fill="#caff94"/>
        </g>
      </g>
      <g id="Group_38559" data-name="Group 38559" transform="translate(1222.311 3479.932)">
        <g id="Group_38279" data-name="Group 38279" transform="translate(0 0)">
          <rect id="Rectangle_20885" data-name="Rectangle 20885" width="3.956" height="27.557" transform="translate(19.782)" fill="#6f4b3f"/>
          <path id="Path_50071" data-name="Path 50071" d="M152,420v3.937h35.608v35.43h3.956V420Z" transform="translate(-136.174 -376.696)" fill="#d77643"/>
          <path id="Path_50072" data-name="Path 50072" d="M151.956,419v3.937H148V462.3h3.956v3.937h11.869V462.3h-3.956V422.937h3.956V419Z" transform="translate(-148 -379.633)" fill="#d77643"/>
          <rect id="Rectangle_20886" data-name="Rectangle 20886" width="3.956" height="11.81" transform="translate(15.826 27.557)" fill="#d77643"/>
          <rect id="Rectangle_20887" data-name="Rectangle 20887" width="3.956" height="7.873" transform="translate(35.608 31.494)" fill="#d77643"/>
          <path id="Path_50073" data-name="Path 50073" d="M176.782,460.367V456.43h-3.956V421H157v35.43h11.869v3.937Z" transform="translate(-121.392 -373.759)" fill="#feae34"/>
          <rect id="Rectangle_20888" data-name="Rectangle 20888" width="7.913" height="3.937" transform="translate(19.782 82.671)" fill="#feae34"/>
          <rect id="Rectangle_20889" data-name="Rectangle 20889" width="3.956" height="39.367" transform="translate(55.39 43.304)" fill="#feae34"/>
          <rect id="Rectangle_20890" data-name="Rectangle 20890" width="3.956" height="35.43" transform="translate(15.826 47.24)" fill="#feae34"/>
          <rect id="Rectangle_20891" data-name="Rectangle 20891" width="7.913" height="3.937" transform="translate(47.477 39.367)" fill="#feae34"/>
          <rect id="Rectangle_20892" data-name="Rectangle 20892" width="3.956" height="11.81" transform="translate(39.564 27.557)" fill="#feae34"/>
          <path id="Path_50074" data-name="Path 50074" d="M156.956,416H153v15.747h7.913V427.81h-3.956Z" transform="translate(-133.218 -388.443)" fill="#feae34"/>
          <rect id="Rectangle_20893" data-name="Rectangle 20893" width="15.826" height="31.494" transform="translate(23.739)" fill="#af492a"/>
          <path id="Path_50075" data-name="Path 50075" d="M180.7,456.43H168.826V421H153v35.43h7.913v3.937H180.7Z" transform="translate(-133.218 -373.759)" fill="#fee761"/>
          <rect id="Rectangle_20894" data-name="Rectangle 20894" width="3.956" height="3.937" transform="translate(15.826 82.671)" fill="#fee761"/>
          <rect id="Rectangle_20895" data-name="Rectangle 20895" width="3.956" height="39.367" transform="translate(11.869 43.304)" fill="#fee761"/>
          <rect id="Rectangle_20896" data-name="Rectangle 20896" width="19.782" height="3.937" transform="translate(27.695 39.367)" fill="#fee761"/>
          <rect id="Rectangle_20897" data-name="Rectangle 20897" width="3.956" height="3.937" transform="translate(15.826 39.367)" fill="#fee761"/>
        </g>
        <path id="Path_51934" data-name="Path 51934" d="M-15.363-50.571H-38.8v3.347h-3.347v16.737h16.737v3.347h10.042v-3.347h3.347v-3.347h-3.347ZM-32.1-33.834v-13.39h6.695v13.39Z" transform="translate(62.689 105.636)" fill="#7e4120"/>
      </g>
    </g>
  </g>
</svg>
