<svg xmlns="http://www.w3.org/2000/svg" width="210" height="230" viewBox="0 0 210 230">
  <g id="rank-3" transform="translate(-952 -3347)">
    <g id="Rectangle_26822" data-name="Rectangle 26822" transform="translate(952 3347)" fill="#fff" stroke="#707070" stroke-width="1" opacity="0">
      <rect width="210" height="230" stroke="none"/>
      <rect x="0.5" y="0.5" width="209" height="229" fill="none"/>
    </g>
    <g id="Group_38558" data-name="Group 38558" transform="translate(3 -5.46)">
      <g id="Group_38391" data-name="Group 38391" transform="translate(421 1843.302)">
        <g id="Group_38338" data-name="Group 38338" transform="translate(640 1828)">
          <path id="Path_50190" data-name="Path 50190" d="M-65-226v-48h9v-6h4v-6h15v-8H-4v8H10v8h6v8h7v4h8v44H25v8H18Z" fill="#2c2c2c"/>
          <path id="Path_50191" data-name="Path 50191" d="M-51-254h21v-8H-2v8H12v12h6v-4h7v12H18v28H11v8H-2v6H-30l1-6H-51v-6h-7v-42h7Z" fill="#f5e0d1"/>
          <rect id="Rectangle_25383" data-name="Rectangle 25383" width="7" height="12" transform="translate(-44 -245)" fill="#171420"/>
          <rect id="Rectangle_25384" data-name="Rectangle 25384" width="7" height="12" transform="translate(-10 -245)" fill="#171420"/>
          <path id="Union_83" data-name="Union 83" d="M3517-767v-7h27v7Zm27-7v-7h7v7Zm-34,0v-7h7v7Z" transform="translate(-3554 556)" fill="#d8a788" stroke="rgba(0,0,0,0)" stroke-width="1"/>
          <path id="Union_82" data-name="Union 82" d="M3579-649v-12h13v6h-7v6Zm-69,0v-12h13v6h-7v6Zm26-62v-6h29v6Zm36-6v-13h6v-31h7v38h-7v6Zm0-44v-12h7v12Zm-35-12v-8h28v8Z" transform="translate(-3567 519)" fill="#ebd2c6" stroke="rgba(0,0,0,0)" stroke-width="1"/>
          <path id="Path_50192" data-name="Path 50192" d="M-30-192H-43v8h-8v20h-6v22h13v-16h8v14H5v-14h7v16H26v-22H19v-20H13v-8H-30Z" fill="#31465f"/>
          <path id="Path_50193" data-name="Path 50193" d="M-24-192v28h7v-22h7v-6Z" fill="#2a68af"/>
          <rect id="Rectangle_25393" data-name="Rectangle 25393" width="6" height="14" transform="translate(-30 -192)" fill="#e9e6e7"/>
          <rect id="Rectangle_25394" data-name="Rectangle 25394" width="7" height="16" transform="translate(-17 -186)" fill="#e9e6e7"/>
          <rect id="Rectangle_25395" data-name="Rectangle 25395" width="7" height="7" transform="translate(-10 -192)" fill="#e9e6e7"/>
          <path id="Path_50196" data-name="Path 50196" d="M-36-143v40h12v-27H-3v13H4v14H18v-14H12v-19H5v-8H-36Z" fill="#4a4643"/>
          <path id="Path_50197" data-name="Path 50197" d="M-36-103v7h-9v7h21v-14Z" fill="#451d1f"/>
          <rect id="Rectangle_25396" data-name="Rectangle 25396" width="14" height="14" transform="translate(4 -103)" fill="#451d1f"/>
        </g>
        <g id="Group_38305" data-name="Group 38305" transform="translate(255 1308.159)">
          <rect id="Rectangle_20960" data-name="Rectangle 20960" width="40.421" height="5.053" transform="translate(325.053 241.421)" fill="#d99a36"/>
          <rect id="Rectangle_20961" data-name="Rectangle 20961" width="40.421" height="5.053" transform="translate(325.053 231.316)" fill="#d99a36"/>
          <rect id="Rectangle_20962" data-name="Rectangle 20962" width="5.053" height="10.105" transform="translate(320 246.474)" fill="#e8bc48"/>
          <rect id="Rectangle_20963" data-name="Rectangle 20963" width="30.316" height="10.105" transform="translate(335.158 246.474)" fill="#e8bc48"/>
          <rect id="Rectangle_20964" data-name="Rectangle 20964" width="45.474" height="5.053" transform="translate(365.474 241.421)" fill="#e8bc48"/>
          <rect id="Rectangle_20965" data-name="Rectangle 20965" width="30.316" height="5.053" transform="translate(335.158 236.368)" fill="#e8bc48"/>
          <rect id="Rectangle_20966" data-name="Rectangle 20966" width="5.053" height="5.053" transform="translate(320 236.368)" fill="#e8bc48"/>
          <rect id="Rectangle_20967" data-name="Rectangle 20967" width="45.474" height="5.053" transform="translate(365.474 231.316)" fill="#e8bc48"/>
          <rect id="Rectangle_20968" data-name="Rectangle 20968" width="5.053" height="30.316" transform="translate(320 201)" fill="#e8bc48"/>
          <path id="Path_50173" data-name="Path 50173" d="M367.893,206.859H362.84v5.053h-5.053v5.053h-5.053V227.07H342.63V216.964h-5.053v15.158h30.316Z" transform="translate(-2.419 -0.806)" fill="#e8bc48"/>
          <rect id="Rectangle_20969" data-name="Rectangle 20969" width="20.211" height="10.105" transform="translate(395.789 246.474)" fill="#fff268"/>
          <rect id="Rectangle_20970" data-name="Rectangle 20970" width="25.263" height="10.105" transform="translate(365.474 246.474)" fill="#fff268"/>
          <rect id="Rectangle_20971" data-name="Rectangle 20971" width="10.105" height="10.105" transform="translate(325.053 246.474)" fill="#fff268"/>
          <rect id="Rectangle_20972" data-name="Rectangle 20972" width="20.211" height="5.053" transform="translate(395.789 236.368)" fill="#fff268"/>
          <rect id="Rectangle_20973" data-name="Rectangle 20973" width="25.263" height="5.053" transform="translate(365.474 236.368)" fill="#fff268"/>
          <rect id="Rectangle_20974" data-name="Rectangle 20974" width="10.105" height="5.053" transform="translate(325.053 236.368)" fill="#fff268"/>
          <path id="Path_50174" data-name="Path 50174" d="M428.1,231.316V201h-5.053v5.053H417.99v5.053h-5.053v5.053h-5.053v15.158Z" transform="translate(-12.096 0)" fill="#fff268"/>
          <path id="Path_50175" data-name="Path 50175" d="M397.994,231.316v-5.053h-5.053V216.158h-5.053v-5.053h-5.053v-5.053h-5.053V201h-5.053v30.316Z" transform="translate(-7.257 0)" fill="#fff268"/>
          <path id="Path_50176" data-name="Path 50176" d="M335.964,232.122V211.912h-5.053v-5.053h-5.053v25.263Z" transform="translate(-0.806 -0.806)" fill="#fff268"/>
          <rect id="Rectangle_20975" data-name="Rectangle 20975" width="5.053" height="10.105" transform="translate(390.737 246.474)" fill="#caff94"/>
          <rect id="Rectangle_20976" data-name="Rectangle 20976" width="5.053" height="5.053" transform="translate(390.737 236.368)" fill="#caff94"/>
          <rect id="Rectangle_20977" data-name="Rectangle 20977" width="5.053" height="5.053" transform="translate(390.737 226.263)" fill="#caff94"/>
        </g>
      </g>
      <g id="Group_38554" data-name="Group 38554" transform="translate(1052.311 3495.393)">
        <g id="Group_38279" data-name="Group 38279" transform="translate(0 0)">
          <rect id="Rectangle_20885" data-name="Rectangle 20885" width="3.956" height="27.557" transform="translate(19.782)" fill="#30727e"/>
          <path id="Path_50071" data-name="Path 50071" d="M152,420v3.937h35.608v35.43h3.956V420Z" transform="translate(-136.174 -376.696)" fill="#d77643"/>
          <path id="Path_50072" data-name="Path 50072" d="M151.956,419v3.937H148V462.3h3.956v3.937h11.869V462.3h-3.956V422.937h3.956V419Z" transform="translate(-148 -379.633)" fill="#d77643"/>
          <rect id="Rectangle_20886" data-name="Rectangle 20886" width="3.956" height="11.81" transform="translate(15.826 27.557)" fill="#d77643"/>
          <rect id="Rectangle_20887" data-name="Rectangle 20887" width="3.956" height="7.873" transform="translate(35.608 31.494)" fill="#d77643"/>
          <path id="Path_50073" data-name="Path 50073" d="M176.782,460.367V456.43h-3.956V421H157v35.43h11.869v3.937Z" transform="translate(-121.392 -373.759)" fill="#feae34"/>
          <rect id="Rectangle_20888" data-name="Rectangle 20888" width="7.913" height="3.937" transform="translate(19.782 82.671)" fill="#feae34"/>
          <rect id="Rectangle_20889" data-name="Rectangle 20889" width="3.956" height="39.367" transform="translate(55.39 43.304)" fill="#feae34"/>
          <rect id="Rectangle_20890" data-name="Rectangle 20890" width="3.956" height="35.43" transform="translate(15.826 47.24)" fill="#feae34"/>
          <rect id="Rectangle_20891" data-name="Rectangle 20891" width="7.913" height="3.937" transform="translate(47.477 39.367)" fill="#feae34"/>
          <rect id="Rectangle_20892" data-name="Rectangle 20892" width="3.956" height="11.81" transform="translate(39.564 27.557)" fill="#feae34"/>
          <path id="Path_50074" data-name="Path 50074" d="M156.956,416H153v15.747h7.913V427.81h-3.956Z" transform="translate(-133.218 -388.443)" fill="#feae34"/>
          <rect id="Rectangle_20893" data-name="Rectangle 20893" width="15.826" height="31.494" transform="translate(23.739)" fill="#2a9baf"/>
          <path id="Path_50075" data-name="Path 50075" d="M180.7,456.43H168.826V421H153v35.43h7.913v3.937H180.7Z" transform="translate(-133.218 -373.759)" fill="#fee761"/>
          <rect id="Rectangle_20894" data-name="Rectangle 20894" width="3.956" height="3.937" transform="translate(15.826 82.671)" fill="#fee761"/>
          <rect id="Rectangle_20895" data-name="Rectangle 20895" width="3.956" height="39.367" transform="translate(11.869 43.304)" fill="#fee761"/>
          <rect id="Rectangle_20896" data-name="Rectangle 20896" width="19.782" height="3.937" transform="translate(27.695 39.367)" fill="#fee761"/>
          <rect id="Rectangle_20897" data-name="Rectangle 20897" width="3.956" height="3.937" transform="translate(15.826 39.367)" fill="#fee761"/>
        </g>
        <path id="Path_51932" data-name="Path 51932" d="M-15.885-47.85v-6.957h-3.479v-3.479H-40.236v3.479h-3.479v3.479h10.436v-3.479h6.957v6.957H-36.757v3.479h10.436v6.957h-6.957v-3.479H-43.714v3.479h3.479v3.479h20.872v-3.479h3.479v-6.957h-3.479V-47.85Z" transform="translate(63.689 110.257)" fill="#7e4120"/>
      </g>
    </g>
  </g>
</svg>
