<svg xmlns="http://www.w3.org/2000/svg" width="249.5" height="252.368" viewBox="0 0 249.5 252.368">
  <g id="rank-panel" transform="translate(-626.881 -26.285)">
    <g id="Group_38277" data-name="Group 38277">
      <rect id="Rectangle_18629" data-name="Rectangle 18629" width="2.868" height="2.868" transform="translate(864.91 258.578)" fill="#ecf0f1"/>
      <rect id="Rectangle_18630" data-name="Rectangle 18630" width="2.868" height="2.868" transform="translate(641.22 258.578)" fill="#ecf0f1"/>
      <rect id="Rectangle_18631" data-name="Rectangle 18631" width="2.868" height="2.868" transform="translate(864.91 34.888)" fill="#ecf0f1"/>
      <rect id="Rectangle_18632" data-name="Rectangle 18632" width="2.868" height="2.868" transform="translate(839.099 272.917)" fill="#8b9bb4"/>
      <rect id="Rectangle_18633" data-name="Rectangle 18633" width="11.471" height="2.868" transform="translate(807.553 272.917)" fill="#8b9bb4"/>
      <rect id="Rectangle_18634" data-name="Rectangle 18634" width="2.868" height="2.868" transform="translate(798.95 272.917)" fill="#8b9bb4"/>
      <rect id="Rectangle_18635" data-name="Rectangle 18635" width="2.868" height="2.868" transform="translate(776.007 272.917)" fill="#8b9bb4"/>
      <rect id="Rectangle_18636" data-name="Rectangle 18636" width="5.736" height="2.868" transform="translate(738.726 272.917)" fill="#8b9bb4"/>
      <rect id="Rectangle_18637" data-name="Rectangle 18637" width="5.736" height="2.868" transform="translate(687.105 272.917)" fill="#8b9bb4"/>
      <path id="Path_50032" data-name="Path 50032" d="M867.777,270.049v-2.868h2.868v-8.6h-2.868v5.729h-2.871v2.868h-2.868V264.31H859.17v-2.868h2.868V255.71H859.17v2.868h-2.864v8.6h2.868v2.868Z" fill="#8b9bb4"/>
      <path id="Path_50033" data-name="Path 50033" d="M644.088,264.31h-2.871v2.868h-2.868V264.31h-2.868v-2.868h2.868V255.71h-2.868v2.868h-2.864v8.6h2.868v2.868h8.6v-2.868h2.868v-8.6h-2.868Z" fill="#8b9bb4"/>
      <rect id="Rectangle_18638" data-name="Rectangle 18638" width="2.868" height="2.868" transform="translate(864.91 255.71)" fill="#8b9bb4"/>
      <path id="Path_50034" data-name="Path 50034" d="M853.438,258.578V255.71h2.868v-2.868h2.868v-2.871h-2.868V247.1h-2.868v-2.868h-2.871v-2.864H847.7v2.868h-2.868v2.868h-2.864v2.864h2.868v2.868H847.7v2.868h2.864v2.868Z" fill="#8b9bb4"/>
      <rect id="Rectangle_18639" data-name="Rectangle 18639" width="2.868" height="2.868" transform="translate(641.22 255.71)" fill="#8b9bb4"/>
      <path id="Path_50035" data-name="Path 50035" d="M841.967,241.371h2.868v-8.6h-2.868V229.9h-8.6v2.868H830.5v8.6h2.868v2.868h8.6Z" fill="#8b9bb4"/>
      <rect id="Rectangle_18640" data-name="Rectangle 18640" width="34.414" height="2.868" transform="translate(767.404 238.503)" fill="#8b9bb4"/>
      <rect id="Rectangle_18641" data-name="Rectangle 18641" width="14.339" height="2.868" transform="translate(750.197 238.503)" fill="#8b9bb4"/>
      <rect id="Rectangle_18642" data-name="Rectangle 18642" width="2.868" height="2.868" transform="translate(801.818 235.636)" fill="#8b9bb4"/>
      <path id="Path_50036" data-name="Path 50036" d="M847.7,221.3h-2.868v2.864h-2.868v2.868h2.868V229.9H847.7v2.868h2.864V229.9h2.868v-2.868H856.3v-2.868h2.868v-2.868H856.3v-2.868h-2.868v-2.864h-2.868v2.868H847.7Z" fill="#8b9bb4"/>
      <path id="Path_50037" data-name="Path 50037" d="M870.645,206.958h-2.868V204.09h-8.6v2.868h-2.871v8.6h2.868v2.868h8.6v-2.868h2.868Z" fill="#8b9bb4"/>
      <rect id="Rectangle_18650" data-name="Rectangle 18650" width="2.868" height="2.868" transform="translate(873.513 163.94)" fill="#5a6988"/>
      <rect id="Rectangle_18654" data-name="Rectangle 18654" width="20.075" height="2.868" transform="translate(813.289 115.187)" fill="#8b9bb4"/>
      <rect id="Rectangle_18655" data-name="Rectangle 18655" width="54.489" height="2.868" transform="translate(753.065 115.187)" fill="#8b9bb4"/>
      <rect id="Rectangle_18656" data-name="Rectangle 18656" width="2.868" height="2.868" transform="translate(747.329 115.187)" fill="#8b9bb4"/>
      <rect id="Rectangle_18657" data-name="Rectangle 18657" width="37.282" height="2.868" transform="translate(701.444 115.187)" fill="#8b9bb4"/>
      <rect id="Rectangle_18658" data-name="Rectangle 18658" width="31.546" height="2.868" transform="translate(667.03 115.187)" fill="#8b9bb4"/>
      <path id="Path_50038" data-name="Path 50038" d="M870.645,34.889h-2.868v5.732h-2.871v2.868h-2.868V40.621H859.17V37.753h2.868V32.021H859.17v2.868h-2.864v8.6h2.868v2.868h8.6V43.489h2.868Z" fill="#8b9bb4"/>
      <path id="Path_50039" data-name="Path 50039" d="M644.088,40.621h-2.871v2.868h-2.868V40.621h-2.868V37.753h2.868V32.021h-2.868v2.868h-2.864v8.6h2.868v2.868h8.6V43.489h2.868v-8.6h-2.868Z" fill="#8b9bb4"/>
      <rect id="Rectangle_18661" data-name="Rectangle 18661" width="2.868" height="2.868" transform="translate(864.91 32.021)" fill="#8b9bb4"/>
      <rect id="Rectangle_18662" data-name="Rectangle 18662" width="2.868" height="2.868" transform="translate(641.22 32.021)" fill="#8b9bb4"/>
      <rect id="Rectangle_18663" data-name="Rectangle 18663" width="2.868" height="2.868" transform="translate(862.042 264.314)" fill="#5a6988"/>
      <rect id="Rectangle_18664" data-name="Rectangle 18664" width="2.868" height="2.868" transform="translate(638.352 264.314)" fill="#5a6988"/>
      <rect id="Rectangle_18665" data-name="Rectangle 18665" width="2.868" height="2.868" transform="translate(864.91 261.446)" fill="#5a6988"/>
      <rect id="Rectangle_18666" data-name="Rectangle 18666" width="2.868" height="2.868" transform="translate(859.174 261.446)" fill="#5a6988"/>
      <rect id="Rectangle_18667" data-name="Rectangle 18667" width="2.868" height="2.868" transform="translate(641.22 261.446)" fill="#5a6988"/>
      <rect id="Rectangle_18668" data-name="Rectangle 18668" width="2.868" height="2.868" transform="translate(635.484 261.446)" fill="#5a6988"/>
      <rect id="Rectangle_18669" data-name="Rectangle 18669" width="2.868" height="2.868" transform="translate(862.042 258.578)" fill="#5a6988"/>
      <rect id="Rectangle_18670" data-name="Rectangle 18670" width="2.868" height="2.868" transform="translate(638.352 258.578)" fill="#5a6988"/>
      <rect id="Rectangle_18676" data-name="Rectangle 18676" width="2.868" height="2.868" transform="translate(862.042 40.624)" fill="#5a6988"/>
      <rect id="Rectangle_18677" data-name="Rectangle 18677" width="2.868" height="2.868" transform="translate(638.352 40.624)" fill="#5a6988"/>
      <rect id="Rectangle_18678" data-name="Rectangle 18678" width="2.868" height="2.868" transform="translate(864.91 37.756)" fill="#5a6988"/>
      <rect id="Rectangle_18679" data-name="Rectangle 18679" width="2.868" height="2.868" transform="translate(859.174 37.756)" fill="#5a6988"/>
      <rect id="Rectangle_18680" data-name="Rectangle 18680" width="2.868" height="2.868" transform="translate(641.22 37.756)" fill="#5a6988"/>
      <rect id="Rectangle_18681" data-name="Rectangle 18681" width="2.868" height="2.868" transform="translate(635.484 37.756)" fill="#5a6988"/>
      <rect id="Rectangle_18682" data-name="Rectangle 18682" width="2.868" height="2.868" transform="translate(862.042 34.888)" fill="#5a6988"/>
      <rect id="Rectangle_18683" data-name="Rectangle 18683" width="2.868" height="2.868" transform="translate(638.352 34.888)" fill="#5a6988"/>
      <rect id="Rectangle_18684" data-name="Rectangle 18684" width="5.736" height="2.868" transform="translate(801.818 272.917)" fill="#c0cbdc"/>
      <rect id="Rectangle_18685" data-name="Rectangle 18685" width="2.868" height="2.868" transform="translate(735.858 272.917)" fill="#c0cbdc"/>
      <rect id="Rectangle_18686" data-name="Rectangle 18686" width="2.868" height="2.868" transform="translate(862.042 255.71)" fill="#c0cbdc"/>
      <rect id="Rectangle_18687" data-name="Rectangle 18687" width="2.868" height="2.868" transform="translate(638.352 255.71)" fill="#c0cbdc"/>
      <rect id="Rectangle_18688" data-name="Rectangle 18688" width="2.868" height="2.868" transform="translate(764.536 238.503)" fill="#c0cbdc"/>
      <rect id="Rectangle_18689" data-name="Rectangle 18689" width="8.603" height="2.868" transform="translate(758.801 229.9)" fill="#c0cbdc"/>
      <rect id="Rectangle_18690" data-name="Rectangle 18690" width="2.868" height="8.603" transform="translate(755.933 221.296)" fill="#c0cbdc"/>
      <rect id="Rectangle_18691" data-name="Rectangle 18691" width="2.868" height="8.603" transform="translate(767.404 221.296)" fill="#c0cbdc"/>
      <path id="Path_50041" data-name="Path 50041" d="M787.479,218.429v14.339h2.868v-5.739h5.732v-2.868h-5.736v-2.868h8.6v-2.864Z" fill="#c0cbdc"/>
      <path id="Path_50042" data-name="Path 50042" d="M773.14,218.429v14.339h2.868v-5.739h5.732v-2.868H776v-2.868h8.6v-2.864Z" fill="#c0cbdc"/>
      <rect id="Rectangle_18692" data-name="Rectangle 18692" width="8.603" height="2.868" transform="translate(758.801 218.429)" fill="#c0cbdc"/>
      <rect id="Rectangle_18724" data-name="Rectangle 18724" width="5.736" height="2.868" transform="translate(807.553 115.187)" fill="#c0cbdc"/>
      <rect id="Rectangle_18725" data-name="Rectangle 18725" width="2.868" height="2.868" transform="translate(750.197 115.187)" fill="#c0cbdc"/>
      <rect id="Rectangle_18726" data-name="Rectangle 18726" width="8.603" height="2.868" transform="translate(738.726 115.187)" fill="#c0cbdc"/>
      <rect id="Rectangle_18727" data-name="Rectangle 18727" width="2.868" height="2.868" transform="translate(698.576 115.187)" fill="#c0cbdc"/>
      <path id="Path_50262" data-name="Path 50262" d="M626.881,54.963V77.906h0V201.222h0v2.868h0v2.868h0v2.867h0v2.868h0v60.224h2.868v2.868H687.1v-2.868h5.736v2.868h43.017v-2.868h8.6v2.868H776v-2.868h2.868v2.868h20.075v-2.868h20.075v2.868H839.1v-2.868h2.868v2.868h31.546v-2.868h2.87v-91.77h0V178.28h0V166.808h-2.868V163.94h2.868V129.527h0V54.963Zm209.351,40.15h20.075v22.938H836.232Zm8.6,134.782v-2.868h-2.868v-2.864h2.868v-2.868H847.7v-2.868h2.868v-2.864h2.868v2.868h2.867V221.3h2.868v2.864h-2.868v2.868h-2.868V229.9h-2.867v2.864H847.7V229.9Zm-8.6-75.294h20.075v17.938H836.232ZM667.03,95.113H833.364l0,22.938H667.03ZM646.949,267.184h-2.868v2.868h-8.6v-2.868h-2.865v-8.6h2.865v-2.868h8.6v2.868h2.868Zm17.214-94.64H644.088V154.6h20.075Zm0-54.489H644.088V95.112h20.075ZM804.681,238.5h-2.868v2.868H707.181V238.5h-2.868v-22.94h2.868v-2.87h94.638v2.87h2.862ZM667.03,172.539V149.6H833.364v22.938Zm166.337,71.692v-2.868H830.5v-8.6h2.868V229.9h8.6v2.868h2.868v8.6h-2.868v2.868Zm22.939,11.482h-2.868v2.868h-2.867v-2.868H847.7v-2.87h-2.868v-2.868h-2.868v-2.868h2.868v-2.868H847.7v-2.868h2.868v2.868h2.868v2.868h2.868v2.868h2.868v2.868h-2.868Zm14.339,11.471h-2.864v2.868h-8.6v-2.868h-2.868v-8.6h2.868v-2.868h8.6v2.868h2.868Zm0-60.221,0,8.6h-2.864v2.868h-8.6v-2.868h-2.868v-8.6h2.868V204.1h8.6v2.868Z" fill="#5a6988"/>
      <rect id="Rectangle_18746" data-name="Rectangle 18746" width="2.868" height="2.868" transform="translate(641.22 34.888)" fill="#c0cbdc"/>
      <rect id="Rectangle_18747" data-name="Rectangle 18747" width="2.868" height="2.868" transform="translate(862.042 32.021)" fill="#c0cbdc"/>
      <rect id="Rectangle_18748" data-name="Rectangle 18748" width="2.868" height="2.868" transform="translate(638.352 32.021)" fill="#c0cbdc"/>
      <rect id="Rectangle_18749" data-name="Rectangle 18749" width="243.764" height="2.868" transform="translate(629.749 275.785)" fill="#3a4466"/>
      <rect id="Rectangle_18750" data-name="Rectangle 18750" width="2.868" height="2.868" transform="translate(873.513 272.917)" fill="#3a4466"/>
      <rect id="Rectangle_18751" data-name="Rectangle 18751" width="2.868" height="2.868" transform="translate(626.881 272.917)" fill="#3a4466"/>
      <rect id="Rectangle_18752" data-name="Rectangle 18752" width="2.868" height="2.868" transform="translate(862.042 261.446)" fill="#3a4466"/>
      <rect id="Rectangle_18753" data-name="Rectangle 18753" width="2.868" height="2.868" transform="translate(638.352 261.446)" fill="#3a4466"/>
      <path id="Path_50052" data-name="Path 50052" d="M741.594,232.768V218.429h-2.868v8.6h-2.868V229.9h2.868v2.868Z" fill="#3a4466"/>
      <rect id="Rectangle_18754" data-name="Rectangle 18754" width="8.603" height="2.868" transform="translate(712.915 229.9)" fill="#3a4466"/>
      <rect id="Rectangle_18755" data-name="Rectangle 18755" width="8.603" height="8.603" transform="translate(758.801 221.296)" fill="#3a4466"/>
      <rect id="Rectangle_18756" data-name="Rectangle 18756" width="2.868" height="2.868" transform="translate(732.99 224.164)" fill="#3a4466"/>
      <rect id="Rectangle_18757" data-name="Rectangle 18757" width="2.868" height="8.603" transform="translate(721.519 221.296)" fill="#3a4466"/>
      <rect id="Rectangle_18758" data-name="Rectangle 18758" width="2.868" height="8.603" transform="translate(710.048 221.296)" fill="#3a4466"/>
      <path id="Path_50053" data-name="Path 50053" d="M730.122,221.3v-2.868h-2.868v14.339h2.868v-8.6h2.868V221.3Z" fill="#3a4466"/>
      <rect id="Rectangle_18759" data-name="Rectangle 18759" width="8.603" height="2.868" transform="translate(712.915 218.429)" fill="#3a4466"/>
      <path id="Path_50054" data-name="Path 50054" d="M750.2,212.693V238.5h51.621v-2.868h2.868V215.561h-2.868v-2.868Zm48.753,8.6h-8.6v2.868h5.736v2.868h-5.739v5.736h-2.868V218.429H798.95Zm-43.017,8.6v-8.6H758.8v-2.868h8.6v2.868h2.868v8.6H767.4v2.868h-8.6v-2.868Zm17.207-11.471h11.471v2.871h-8.6v2.868h5.736v2.868h-5.74v5.736h-2.868Z" fill="#3a4466"/>
      <path id="Path_50057" data-name="Path 50057" d="M833.363,115.187V95.216H667.03v19.971Z" fill="#3a4466"/>
      <rect id="Rectangle_18762" data-name="Rectangle 18762" width="2.868" height="2.868" transform="translate(862.042 37.756)" fill="#3a4466"/>
      <rect id="Rectangle_18763" data-name="Rectangle 18763" width="2.868" height="2.868" transform="translate(638.352 37.756)" fill="#3a4466"/>
      <rect id="Rectangle_18767" data-name="Rectangle 18767" width="43.017" height="2.868" transform="translate(707.18 238.503)" fill="#9aa0b4"/>
      <rect id="Rectangle_18768" data-name="Rectangle 18768" width="2.868" height="2.868" transform="translate(704.312 235.636)" fill="#9aa0b4"/>
      <rect id="Rectangle_18773" data-name="Rectangle 18773" width="8.603" height="8.603" transform="translate(712.915 221.296)" fill="#d6e2ed"/>
      <path id="Path_50060" data-name="Path 50060" d="M707.18,212.693v2.868h-2.868v20.075h2.868V238.5H750.2V212.693ZM735.858,229.9v-2.868H732.99v-2.868h-2.868v8.6h-2.868V218.429h2.868v2.864h2.868v2.868h2.868v2.868h2.868v-8.6h2.868v14.339h-2.868V229.9Zm-25.81,0v-8.6h2.864v-2.868h8.6v2.861h2.868v8.6h-2.868v2.868h-8.6v-2.868Z" fill="#d6e2ed"/>
      <g id="Group_38398" data-name="Group 38398">
        <rect id="Rectangle_18761" data-name="Rectangle 18761" width="14.339" height="2.868" transform="translate(646.956 103.716)" fill="#3a4466"/>
        <rect id="Rectangle_18772" data-name="Rectangle 18772" width="20.075" height="2.868" transform="translate(644.088 115.187)" fill="#9aa0b4"/>
        <path id="Path_50063" data-name="Path 50063" d="M664.163,95.113H644.088v20.075h20.075Zm-17.207,8.6h14.339v2.868H646.956Z" fill="#d6e2ed"/>
      </g>
      <g id="Group_38400" data-name="Group 38400">
        <path id="Path_50058" data-name="Path 50058" d="M847.7,97.98h-2.868v5.736H839.1v2.864h5.736v5.736H847.7V106.58h5.736v-2.868H847.7Z" fill="#3a4466"/>
        <rect id="Rectangle_18771" data-name="Rectangle 18771" width="20.075" height="2.868" transform="translate(836.232 115.187)" fill="#9aa0b4"/>
        <path id="Path_50064" data-name="Path 50064" d="M836.232,95.113v20.075h20.075V95.113Zm17.207,11.471H847.7v5.736h-2.871v-5.736H839.1v-2.871h5.736V97.977H847.7v5.736h5.736Z" fill="#d6e2ed"/>
      </g>
      <path id="Path_50263" data-name="Path 50263" d="M873.513,29.153V26.285H629.749v2.868h-2.868v25.81h249.5V29.153ZM646.949,43.485h-2.868v2.868h-8.6V43.485h-2.868l0-8.593h2.865V32.024h8.6v2.861h2.868Zm223.7.007h-2.864V46.36h-8.6V43.492h-2.868v-8.6h2.868V32.024h8.6v2.861h2.868Z" fill="#3a4466"/>
      <rect id="Rectangle_18647" data-name="Rectangle 18647" width="45.885" height="2.868" transform="translate(787.479 179.675)" fill="#8b9bb4"/>
      <rect id="Rectangle_18648" data-name="Rectangle 18648" width="80.299" height="2.868" transform="translate(701.444 179.675)" fill="#8b9bb4"/>
      <rect id="Rectangle_18649" data-name="Rectangle 18649" width="31.546" height="2.868" transform="translate(667.03 179.675)" fill="#8b9bb4"/>
      <rect id="Rectangle_18707" data-name="Rectangle 18707" width="5.736" height="2.868" transform="translate(781.743 179.675)" fill="#c0cbdc"/>
      <rect id="Rectangle_18708" data-name="Rectangle 18708" width="2.868" height="2.868" transform="translate(698.576 179.675)" fill="#c0cbdc"/>
      <path id="Path_50057-2" data-name="Path 50057" d="M833.363,179.674V149.6H667.03v30.073Z" transform="translate(0 0)" fill="#3a4466"/>
      <g id="Group_38399" data-name="Group 38399" transform="translate(0 58.488)">
        <rect id="Rectangle_18761-2" data-name="Rectangle 18761" width="14.339" height="2.868" transform="translate(646.956 103.936)" fill="#3a4466"/>
        <rect id="Rectangle_18772-2" data-name="Rectangle 18772" width="20.075" height="2.868" transform="translate(644.088 115.699)" fill="#9aa0b4"/>
        <path id="Path_50063-2" data-name="Path 50063" d="M664.163,95.113H644.088V115.7h20.075Zm-17.207,8.819h14.339v2.941H646.956Z" fill="#d6e2ed"/>
      </g>
      <g id="Group_38401" data-name="Group 38401" transform="translate(0 58.488)">
        <path id="Path_50058-2" data-name="Path 50058" d="M847.7,97.98h-2.868v5.9H839.1v2.948h5.736v5.9H847.7v-5.9h5.736V103.88H847.7Z" fill="#3a4466"/>
        <rect id="Rectangle_18771-2" data-name="Rectangle 18771" width="20.075" height="2.868" transform="translate(836.232 115.699)" fill="#9aa0b4"/>
        <path id="Path_50064-2" data-name="Path 50064" d="M836.232,95.113V115.7h20.075V95.113Zm17.207,11.764H847.7v5.882h-2.871v-5.882H839.1v-2.944h5.736V98.05H847.7v5.882h5.736Z" fill="#d6e2ed"/>
      </g>
    </g>
    <path id="Path_50266" data-name="Path 50266" d="M0-16Zm6,0H7v2H6v1H5v1H4v1H3v1h9v-1h1v1h1v2H13V-9H3v1H2V-9H1v-1H2v-1H3v-1H4v-1H5v-1H6Zm4,3h1v1H10Zm1,1h1v1H11ZM3-7h9V0H11V-1H4V0H3ZM4-6v4h7V-6ZM19.2-16Zm1,0h1v1h-1Zm5,0h1v1h-1v1h2v-1h1v-1h1v1h1v1h-3v1h-1v1h1v-1h3v-1h1v-1h1v-1h1v1h-1v1h2v1h-1v1h1v1h-4v3h-3v-3h3v-1h2v-1h-2v1h-3v1h-4v-1h2v-1h-2v-1h1v-1h1Zm-4,1h1v2h-1Zm-2,2h1v1h-1Zm1,1h1v2h-1Zm3,2h1v2h-1Zm2,0h1v2h-1Zm3,0v1h1v-1Zm3,0h1v2h-1Zm2,0h1v2h-1Zm-12,1h1v2h-1v6h-1V-5h-1V-6h1V-7h1Zm3,2h8v3h-7v1h8v2h-1V0h-2V-1h2V-2h-8V-5h7V-6h-7Zm14.2-9Zm3,0h1v4h2v-1h2v-1h-2v-1h2v-1h1v1h3v-1h1v1h2v1h-2v1h2v3h-4v1h-1v-1h1v-3h1v-1h-3v1h1v3h-1v1h-1v1h3V-9h1v1h3v1h-4v1h3v1h-3v1h3v1h-3v1h4v1h-7V0h-1V-7h-1v1h-1V-7h1V-8h1V-9h1v-1h-2v-1h-2v1h1v1h-1V0h-1V-8h-1v2h-1v1h-1V-6h1V-8h1v-2h1v-1h-3v-1h3Zm4,4v1h2v-1Zm5,0v1h2v-1Zm-7,3h1v1h-1Zm3,2v1h2V-7Zm0,2v1h2V-5Zm0,2v1h2V-3ZM57.6-16Zm1,2h13v1h-6v5h5v1h-5v5h7v1h-15V-2h7V-7h-5V-8h5v-5h-6Zm18.2-2Zm2,0h1v2h4v1h-3v1h-1v-1h-1v1h-1v1h-1v-1h1v-1h1Zm7,0h1v2h5v1h-4v1h-1v-1h-2v1h-1v-1h1v-1h1Zm-5,4h1v1h6v-1h1v1h1v4h-5v2h6v3h-1v1h-1V0h-1V-1h1V-2h1V-4h-5V0h-1V-3h-1v1h-2v1h-2V0h-2V-1h2V-2h2V-3h2V-4h-4V-8h5v-2h-5v-1h2Zm4,2v2h4v-2Zm-5,3v2h4V-7Zm7,5h1v1h-1ZM96-16Zm7,0h1v6h7v1h-7V0h-1V-9H96v-1h7Zm12.2,0Zm2,1h12v4h-11v8h-1v2h-1V0h-1V-1h1V-3h1Zm1,1v2h10v-2Zm6,4h1v2h2v1h-2v2h3v1h-7V-5h3V-7h-2V-8h2Zm-5,1h1v7h9V-9h1V0h-1V-1h-10Z" transform="translate(658.423 48.614)" fill="#fff"/>
    <path id="Path_50264" data-name="Path 50264" d="M0-12Zm2.25,0H3v.75H2.25ZM7.5-12h.75v.75H7.5ZM3-11.25h.75v.75h1.5v.75H4.5V-9H3.75v.75h1.5v.75H0v-.75H2.25V-9h1.5v-.75H2.25V-9H1.5v-.75H.75v-.75H3Zm5.25,0H9v.75h1.5v.75H9.75V-9H9v.75h2.25v.75H6v-.75H7.5V-9H9v-.75H7.5V-9H6.75v-.75H6v-.75H8.25ZM.75-6.75h4.5v3H4.5v1.5h.75V-3H6v.75H5.25v.75H4.5v.75H3.75v-3H2.25V-1.5H1.5v.75H.75V0H0V-.75H.75V-1.5H1.5V-3.75H.75ZM6-6.75h4.5v3H9V-1.5H8.25V-3.75H7.5V-1.5H6.75v.75H6V0H5.25V-.75H6V-1.5h.75V-3.75H6ZM1.5-6v1.5h3V-6ZM6.75-6v1.5h3V-6ZM10.5-3h.75V-.75H9V-1.5h1.5Zm2.7-9Zm5.25,0h.75v.75h5.25v1.5H23.7V-9h-.75v-.75h.75v-.75h-3v.75h1.5V-9H20.7v.75h1.5v.75H20.7v.75h3V-6H21.45v.75h.75v.75h-.75v3H20.7v.75h-.75V-1.5H17.7v.75h-.75V0h-1.5V-.75h1.5V-1.5H16.2v-3h-.75v.75H14.7V-3H13.2v-.75h1.5V-4.5h.75v-.75h.75V-6H13.95v-.75h3V-7.5h-1.5v-.75h1.5V-9h-1.5v-.75h1.5v-.75H14.7v.75h-.75V-9H13.2v-.75h.75v-1.5h4.5Zm-.75,1.5v.75h2.25v-.75Zm0,1.5v.75h2.25V-9Zm0,1.5v.75h2.25V-7.5ZM16.95-6v.75H20.7V-6Zm0,1.5v.75H20.7V-4.5Zm5.25,0h2.25v.75H23.7V-3h-.75v-.75H22.2ZM16.95-3v.75H20.7V-3ZM20.7-.75h1.5V0H20.7ZM26.4-12Zm7.5,0h.75v.75H36.9v.75H34.65v.75h3v1.5H36.9V-9H34.65v.75h1.5v.75h-1.5v.75h1.5V-7.5h.75V-6h-3v-.75H32.4V-3h-.75v1.5H30.9v.75h-.75V0H29.4V-.75h.75V-1.5h.75V-3h.75V-9.75H33.9Zm-6.75.75H30.9v3H27.15Zm.75.75V-9h2.25v-1.5ZM32.4-9v1.5h1.5V-9Zm-6,1.5h4.5v.75H28.65V-6H27.9v.75h2.25v3H29.4v.75h-.75v.75H27.9V-1.5h.75v-.75h.75V-4.5H27.15V-6h.75v-.75H26.4Zm6.75,2.25h3V-1.5H35.4v-3H33.9v3h-.75v.75H32.4V0h-.75V-.75h.75V-1.5h.75ZM36.9-3h.75V-.75h-1.5V-1.5h.75Zm-9.75.75h.75v.75h-.75ZM39.6-12Zm5.25.75H50.1v.75H47.85v.75H50.1V-9H47.85v.75H50.1v.75H47.85V-6h3v4.5H50.1v.75h-.75V0H48.6V-.75h.75V-1.5h.75V-3h-.75v-.75h.75v-1.5H44.85Zm-5.25.75h4.5v.75H42.6v1.5h-.75v.75h1.5v6H42.6v-.75h-.75v1.5H41.1v-4.5h-.75v.75H39.6v-.75h.75v-1.5h.75v-1.5h.75v-1.5H39.6Zm6,0v.75h1.5v-.75Zm0,1.5v.75h1.5V-9Zm0,1.5V-6h1.5V-7.5Zm-3.75.75V-3h.75V-6.75Zm3,2.25h1.5v.75H45.6V-3h-.75v.75H44.1V-3h.75Zm2.25,0h.75v.75H47.1v1.5h-.75v-1.5h.75Zm1.5,0h.75v.75H48.6v1.5h-.75v-1.5h.75Zm-.75,3h.75v.75h-.75Z" transform="translate(667.029 91.559)" fill="#fff"/>
    <path id="Path_50265" data-name="Path 50265" d="M0-12Zm3,0h.75v1.5H3v.75H2.25V-9H1.5v.75H.75v.75H0v-.75H.75V-9H1.5v-.75h.75v-.75H3Zm1.5.75H9.75V-7.5H4.5Zm.75.75v.75H9v-.75Zm0,1.5v.75H9V-9ZM3-8.25h.75v1.5H3V-4.5H8.25V-6H3.75v-.75H10.5V-6H9v1.5h2.25v.75H9v3H8.25V0H7.5V-.75h.75v-3h-3V-3H4.5v-.75H3V0H2.25V-5.25H1.5v.75H.75v.75H0V-4.5H.75v-.75H1.5V-6h.75v-.75H3ZM5.25-3H6v1.5H5.25Zm1.5,1.5H7.5v.75H6.75ZM13.2-12Zm3.75,0h.75v4.5h.75v-.75h1.5V-9h.75v-.75h1.5v-.75H20.7v.75h-.75V-9H19.2v-.75h.75v-.75H19.2v.75h-.75v-.75h.75v-.75h.75V-12h.75v.75h3v.75h-.75v.75H22.2V-9h-.75v.75h-1.5v.75H22.2V-9h.75v1.5h1.5v.75h-1.5v1.5h-1.5v.75H20.7v-.75h.75V-6h.75v-.75H19.95V-6H19.2v-.75H17.7V-4.5h-.75v-3h-1.5v2.25H14.7v.75h-.75v-.75h.75V-7.5h-.75v-.75h3V-9H14.7v-2.25h.75v1.5h1.5Zm1.5,6.75h.75v1.5h2.25V-4.5h.75v.75h2.25V-3h-4.5v.75H19.2V-3h-.75v.75H17.7v.75H16.2v.75H14.7V0H13.2V-.75h1.5V-1.5h1.5v-.75h1.5V-3H13.2v-.75h5.25Zm1.5,3h1.5v.75h-1.5Zm1.5.75h3v.75H23.7V0h-.75V-.75h-1.5ZM26.4-12Zm5.25,0h.75v1.5h-.75v.75H30.9V-9h-.75v.75H29.4v.75h-.75v.75H27.9V-6H26.4v-.75h1.5V-7.5h.75v-.75h.75V-9h.75v-.75h.75v-.75h.75Zm.75,1.5h.75v.75H32.4Zm.75.75h.75V-9h-.75ZM33.9-9h.75v.75H33.9Zm.75.75h.75v.75h-.75v.75H32.4v1.5h3v.75h-3v3h.75v-.75h.75V-3h.75v-.75h.75V-3h-.75v.75H33.9v.75h3v.75H27.15V-1.5h3v-.75h.75v.75h.75v-3h-3v-.75h3v-1.5H29.4V-7.5h5.25Zm.75.75h2.25v.75H36.9V-6h-.75v-.75H35.4ZM28.65-3.75h.75V-3h-.75ZM29.4-3h.75v.75H29.4Zm10.2-9Zm2.25,0h.75v.75h-.75Zm.75.75h.75v.75H45.6v-.75h5.25v.75H48.6v.75h-.75V-9H50.1v5.25H45.6V-3h-.75V-.75h-3V0H41.1V-3h-.75v.75H39.6V-3h.75v-.75h.75V-4.5h.75v-.75h.75V-6h.75v-.75h.75V-7.5H41.85v.75H41.1V-6h-.75v-.75h.75V-7.5h.75V-9h.75v.75h2.25v1.5H44.1V-6h-.75v.75H42.6v.75h-.75v.75H44.1V-4.5h.75v.75h.75V-9h1.5v-.75h.75v-.75H45.6V-9h-.75v-.75H41.1V-9h-.75v.75H39.6V-9h.75v-1.5H42.6Zm3.75,3v.75h3v-.75Zm-4.5,1.5h.75V-6h-.75Zm4.5,0V-6h3v-.75Zm-3,1.5h.75v.75h-.75Zm3,0v.75h3v-.75ZM41.85-3v1.5H44.1V-3ZM47.1-3h.75v.75H47.1v.75h-.75v.75H45.6V0h-.75V-.75h.75V-1.5h.75v-.75h.75Zm1.5,0h.75v.75H48.6Zm.75.75h.75v.75h-.75Zm.75.75h.75V0H50.1Z" transform="translate(667.029 145.812)" fill="#fff"/>
  </g>
</svg>
