<svg xmlns="http://www.w3.org/2000/svg" width="210" height="230" viewBox="0 0 210 230">
  <g id="rank-1" transform="translate(-798 -1576)">
    <g id="Group_38535" data-name="Group 38535" transform="translate(-0.449 -0.503)">
      <g id="Group_38425" data-name="Group 38425" transform="translate(798.449 1576.503)">
        <path id="Path_50320" data-name="Path 50320" d="M-1158.08,2178.534V2202.5h8.3v8.858h10.624v7.353h54.767v-7.353h8.85V2202.5h7.381v-33.525H-1060V2146h-96.9Z" transform="translate(1200.871 -2088.215)" fill="#edd5c2"/>
        <path id="Path_50318" data-name="Path 50318" d="M-1155.08,2131.05h7.3v8.188h76.007v8.6h9.069V2163.8h-9.069v-7.272h-9.288V2149h-41.516v7.527h-25.2v24.454h-7.3v8.486h-8.5v-8.486h-9.391v-24.454h9.391v7.272h8.5V2131.05Z" transform="translate(1198.29 -2090.719)" fill="#53140d"/>
        <rect id="Rectangle_25451" data-name="Rectangle 25451" width="8.213" height="16.344" transform="translate(59.311 65.956)" fill="#0b122f"/>
        <rect id="Rectangle_25452" data-name="Rectangle 25452" width="8.213" height="16.344" transform="translate(108.589 65.956)" fill="#0b122f"/>
        <path id="Path_50319" data-name="Path 50319" d="M-1137,2167v17.306h8.548v5.917h31.61V2167Z" transform="translate(1204.524 -2084.7)" fill="#fff"/>
        <path id="Path_50321" data-name="Path 50321" d="M-1072.221,2167v8.931h20.528v9.039h-9.894v11.012h-19.392V2167Z" transform="translate(1213.059 -2087.035)" fill="#53140d"/>
        <path id="Path_50322" data-name="Path 50322" d="M-1175.977,2186.892v9.426h-18.573v9.212h10.285v8.665h13.667v6.972h18.457v7.752h8.119V2214.2h-8.119v-8.665H-1170.6v-18.638Z" transform="translate(1194.551 -2081.369)" fill="#edd5c2"/>
        <path id="Path_50323" data-name="Path 50323" d="M-1080.979,2220.106h24.117v-8.135h15.065v-8.14h11.378v-8.658h-17.968v-7.447h-8.474v16.1h-24.117Z" transform="translate(1214.232 -2073.057)" fill="#edd5c2"/>
        <path id="Path_50326" data-name="Path 50326" d="M-1135.709,2251.5v39.319h-8.738v9.688h24.784V2259.33h17.625v7.915h7.892v33.26h15.535v-33.26H-1085V2251.5Z" transform="translate(1203.233 -2070.552)" fill="#28284c"/>
        <path id="Path_50324" data-name="Path 50324" d="M-1151.215,2208.281v16.942h16.208v33.511h50.392v-33.511h17.753v-16.942Z" transform="translate(1202.061 -2077.788)" fill="#d3e8ff"/>
        <path id="Path_50325" data-name="Path 50325" d="M-1114.863,2215.463v9.647h-7.7v14.746h7.7v-7.625h7.422v-16.768Z" transform="translate(1207.026 -2076.586)" fill="#00bcd1"/>
        <g id="Group_38423" data-name="Group 38423" transform="translate(42.791 0)">
          <rect id="Rectangle_20960" data-name="Rectangle 20960" width="35.443" height="4.408" transform="translate(4.43 35.266)" fill="#d99a36"/>
          <rect id="Rectangle_20961" data-name="Rectangle 20961" width="35.443" height="4.408" transform="translate(4.43 26.449)" fill="#d99a36"/>
          <rect id="Rectangle_20962" data-name="Rectangle 20962" width="4.43" height="8.816" transform="translate(0 39.674)" fill="#e8bc48"/>
          <rect id="Rectangle_20963" data-name="Rectangle 20963" width="26.582" height="8.816" transform="translate(13.291 39.674)" fill="#e8bc48"/>
          <rect id="Rectangle_20964" data-name="Rectangle 20964" width="39.873" height="4.408" transform="translate(39.873 35.266)" fill="#e8bc48"/>
          <rect id="Rectangle_20965" data-name="Rectangle 20965" width="26.582" height="4.408" transform="translate(13.291 30.858)" fill="#e8bc48"/>
          <rect id="Rectangle_20966" data-name="Rectangle 20966" width="4.43" height="4.408" transform="translate(0 30.858)" fill="#e8bc48"/>
          <rect id="Rectangle_20967" data-name="Rectangle 20967" width="39.873" height="4.408" transform="translate(39.873 26.449)" fill="#e8bc48"/>
          <rect id="Rectangle_20968" data-name="Rectangle 20968" width="4.43" height="26.449" transform="translate(0 0)" fill="#e8bc48"/>
          <path id="Path_50173" data-name="Path 50173" d="M364.159,206.859h-4.43v4.408H355.3v4.408h-4.43v8.816h-8.861v-8.816h-4.43V228.9h26.582Z" transform="translate(-324.286 -202.451)" fill="#e8bc48"/>
          <rect id="Rectangle_20969" data-name="Rectangle 20969" width="17.721" height="8.816" transform="translate(66.455 39.674)" fill="#fff268"/>
          <rect id="Rectangle_20970" data-name="Rectangle 20970" width="22.152" height="8.816" transform="translate(39.873 39.674)" fill="#fff268"/>
          <rect id="Rectangle_20971" data-name="Rectangle 20971" width="8.861" height="8.816" transform="translate(4.43 39.674)" fill="#fff268"/>
          <rect id="Rectangle_20972" data-name="Rectangle 20972" width="17.721" height="4.408" transform="translate(66.455 30.858)" fill="#fff268"/>
          <rect id="Rectangle_20973" data-name="Rectangle 20973" width="22.152" height="4.408" transform="translate(39.873 30.858)" fill="#fff268"/>
          <rect id="Rectangle_20974" data-name="Rectangle 20974" width="8.861" height="4.408" transform="translate(4.43 30.858)" fill="#fff268"/>
          <path id="Path_50174" data-name="Path 50174" d="M425.606,227.449V201h-4.43v4.408h-4.43v4.408h-4.43v4.408h-4.43v13.225Z" transform="translate(-341.43 -201)" fill="#fff268"/>
          <path id="Path_50175" data-name="Path 50175" d="M394.883,227.449v-4.408h-4.43v-8.816h-4.43v-4.408h-4.43v-4.408h-4.43V201h-4.43v26.449Z" transform="translate(-332.858 -201)" fill="#fff268"/>
          <path id="Path_50176" data-name="Path 50176" d="M334.72,228.9V211.267h-4.43v-4.408h-4.43V228.9Z" transform="translate(-321.429 -202.451)" fill="#fff268"/>
          <rect id="Rectangle_20975" data-name="Rectangle 20975" width="4.43" height="8.816" transform="translate(62.025 39.674)" fill="#caff94"/>
          <rect id="Rectangle_20976" data-name="Rectangle 20976" width="4.43" height="4.408" transform="translate(62.025 30.858)" fill="#caff94"/>
          <rect id="Rectangle_20977" data-name="Rectangle 20977" width="4.43" height="4.408" transform="translate(62.025 22.041)" fill="#caff94"/>
        </g>
      </g>
      <g id="Group_38279" data-name="Group 38279" transform="translate(928.983 1690.534)">
        <rect id="Rectangle_20885" data-name="Rectangle 20885" width="5.298" height="36.899" transform="translate(26.489 0)" fill="#a22633"/>
        <path id="Path_50071" data-name="Path 50071" d="M152,420v5.271h47.68v47.442h5.3V420Z" transform="translate(-130.809 -362.016)" fill="#d77643"/>
        <path id="Path_50072" data-name="Path 50072" d="M153.3,419v5.271H148v52.713h5.3v5.271h15.893v-5.271h-5.3V424.271h5.3V419Z" transform="translate(-148 -366.287)" fill="#d77643"/>
        <rect id="Rectangle_20886" data-name="Rectangle 20886" width="5.298" height="15.814" transform="translate(21.191 36.899)" fill="#d77643"/>
        <rect id="Rectangle_20887" data-name="Rectangle 20887" width="5.298" height="10.543" transform="translate(47.68 42.171)" fill="#d77643"/>
        <path id="Path_50073" data-name="Path 50073" d="M183.489,473.713v-5.271h-5.3V421H157v47.442h15.893v5.271Z" transform="translate(-109.32 -357.744)" fill="#feae34"/>
        <rect id="Rectangle_20888" data-name="Rectangle 20888" width="10.596" height="5.271" transform="translate(26.489 110.698)" fill="#feae34"/>
        <rect id="Rectangle_20889" data-name="Rectangle 20889" width="5.298" height="52.713" transform="translate(74.169 57.984)" fill="#feae34"/>
        <rect id="Rectangle_20890" data-name="Rectangle 20890" width="5.298" height="47.442" transform="translate(21.191 63.256)" fill="#feae34"/>
        <rect id="Rectangle_20891" data-name="Rectangle 20891" width="10.596" height="5.271" transform="translate(63.573 52.713)" fill="#feae34"/>
        <rect id="Rectangle_20892" data-name="Rectangle 20892" width="5.298" height="15.814" transform="translate(52.978 36.899)" fill="#feae34"/>
        <path id="Path_50074" data-name="Path 50074" d="M158.3,416H153v21.085h10.6v-5.271h-5.3Z" transform="translate(-126.511 -379.101)" fill="#feae34"/>
        <rect id="Rectangle_20893" data-name="Rectangle 20893" width="21.191" height="42.171" transform="translate(31.787 0)" fill="#e43b44"/>
        <path id="Path_50075" data-name="Path 50075" d="M190.084,468.441H174.191V421H153v47.442h10.6v5.271h26.489Z" transform="translate(-126.511 -357.744)" fill="#fee761"/>
        <rect id="Rectangle_20894" data-name="Rectangle 20894" width="5.298" height="5.271" transform="translate(21.191 110.698)" fill="#fee761"/>
        <rect id="Rectangle_20895" data-name="Rectangle 20895" width="5.298" height="52.713" transform="translate(15.893 57.984)" fill="#fee761"/>
        <rect id="Rectangle_20896" data-name="Rectangle 20896" width="26.489" height="5.271" transform="translate(37.084 52.713)" fill="#fee761"/>
        <rect id="Rectangle_20897" data-name="Rectangle 20897" width="5.298" height="5.271" transform="translate(21.191 52.713)" fill="#fee761"/>
      </g>
    </g>
    <path id="Path_51876" data-name="Path 51876" d="M17.143-25.714H4.286v4.286H0v4.286H4.286V0H0V4.286H21.429V0H17.143Z" transform="translate(964 1788)" fill="#7e4120"/>
  </g>
</svg>
