<svg xmlns="http://www.w3.org/2000/svg" width="210" height="230" viewBox="0 0 210 230">
  <g id="Group_38542" data-name="Group 38542" transform="translate(-991 -1575)">
    <g id="Rectangle_26814" data-name="Rectangle 26814" transform="translate(991 1575)" fill="#fff" stroke="#707070" stroke-width="1" opacity="0">
      <rect width="210" height="230" stroke="none"/>
      <rect x="0.5" y="0.5" width="209" height="229" fill="none"/>
    </g>
    <g id="Group_38541" data-name="Group 38541" transform="translate(209.975 1)">
      <g id="Group_38420" data-name="Group 38420" transform="translate(854.025 1574)">
        <g id="Group_38418" data-name="Group 38418" transform="translate(0 25.23)">
          <path id="Path_50301" data-name="Path 50301" d="M-1760.225,2620.018v20.859h14.128V2626.67h14.811v-6.652h44.6v6.652h9.118v-20.207h-7.023v-7.133h-5.811V2591.7h-42.976v7.628H-1746.1v7.133h-7.68v13.555Z" transform="translate(1761.012 -2591.702)" fill="#582726"/>
          <path id="Path_50302" data-name="Path 50302" d="M-1753.144,2653.516h-6.832v-14.286h14.343v-13.285h13.441v-6.8h47.728v6.8h7.857v55.69h-7.857v6.758h-61.169v-6.758h-7.511Z" transform="translate(1759.976 -2591.436)" fill="#edd5c2"/>
          <path id="Path_50303" data-name="Path 50303" d="M-1734.623,2638.77v13.5h8.452v-13.5Z" transform="translate(1761.19 -2590.496)" fill="#221e2a"/>
          <path id="Path_50304" data-name="Path 50304" d="M-1734.623,2638.77v13.5h8.452v-13.5Z" transform="translate(1795.77 -2590.496)" fill="#221e2a"/>
          <path id="Path_50305" data-name="Path 50305" d="M-1728.033,2658.62v6.68h6.828v-6.68Z" transform="translate(1761.505 -2586.402)" fill="#e2c2ab"/>
          <path id="Path_50306" data-name="Path 50306" d="M-1707.049,2665h-14.54v7.454h14.54Z" transform="translate(1761.814 -2586.097)" fill="#e2c2ab"/>
          <path id="Path_50307" data-name="Path 50307" d="M-1707.714,2658.62v6.289h6.677v-6.289Z" transform="translate(1762.478 -2586.402)" fill="#e2c2ab"/>
          <path id="Path_50308" data-name="Path 50308" d="M-1759.976,2541.214v6.914h7.073v27.553h7.757v6.735h60.935v-6.735h8.219v-7.023h-8.219v7.023h-55.418v-14.2h-7.251v-20.268Z" transform="translate(1759.976 -2486.188)" fill="#e2c2ab"/>
          <path id="Path_50310" data-name="Path 50310" d="M-1733.36,2581.228v5.13h-14.487v5.649h-5.843v20.739h-7.3v22.213h13.142v-15.086h8.117v15.086h40.708v-15.086h7.721v15.086h12.633v-22.213h-6.052v-20.739h-6.582v-5.649h-13.263v-5.13Z" transform="translate(1762.023 -2484.271)" fill="#b9dedd"/>
          <path id="Path_50309" data-name="Path 50309" d="M-1728.033,2684.744v7.037h14.816v-7.037Z" transform="translate(1761.505 -2588.294)" fill="#e2c2ab"/>
          <path id="Path_50311" data-name="Path 50311" d="M-1728.033,2587.458v7.031h7.026v26.525h7.988v-33.555Z" transform="translate(1761.505 -2483.973)" fill="#00bcd1"/>
          <path id="Path_50312" data-name="Path 50312" d="M-1738.449,2632.5v8.062h-8.765v17.481h-6.429v28.079h15.194v-28.079h5.328v-12.108h19.922v40.188h22.18v-6.692h-7.81V2632.5Z" transform="translate(1760.278 -2481.815)" fill="#37303b"/>
          <path id="Path_50314" data-name="Path 50314" d="M-1759.224,2632.5v6.094h5.681v6.552h7.055V2632.5Z" transform="translate(1829.172 -2481.815)" fill="#edd5c2"/>
          <rect id="Rectangle_25440" data-name="Rectangle 25440" width="15.718" height="7.335" transform="translate(6.261 197.316)" fill="#221f24"/>
          <rect id="Rectangle_25441" data-name="Rectangle 25441" width="22.006" height="7.335" transform="translate(47.129 197.316)" fill="#221f24"/>
        </g>
        <g id="Group_38419" data-name="Group 38419" transform="translate(1.022)">
          <rect id="Rectangle_20960" data-name="Rectangle 20960" width="35.373" height="4.422" transform="translate(4.422 35.373)" fill="#d99a36"/>
          <rect id="Rectangle_20961" data-name="Rectangle 20961" width="35.373" height="4.422" transform="translate(4.422 26.529)" fill="#d99a36"/>
          <rect id="Rectangle_20962" data-name="Rectangle 20962" width="4.422" height="8.843" transform="translate(0 39.794)" fill="#e8bc48"/>
          <rect id="Rectangle_20963" data-name="Rectangle 20963" width="26.529" height="8.843" transform="translate(13.265 39.794)" fill="#e8bc48"/>
          <rect id="Rectangle_20964" data-name="Rectangle 20964" width="39.794" height="4.422" transform="translate(39.794 35.373)" fill="#e8bc48"/>
          <rect id="Rectangle_20965" data-name="Rectangle 20965" width="26.529" height="4.422" transform="translate(13.265 30.951)" fill="#e8bc48"/>
          <rect id="Rectangle_20966" data-name="Rectangle 20966" width="4.422" height="4.422" transform="translate(0 30.951)" fill="#e8bc48"/>
          <rect id="Rectangle_20967" data-name="Rectangle 20967" width="39.794" height="4.422" transform="translate(39.794 26.529)" fill="#e8bc48"/>
          <rect id="Rectangle_20968" data-name="Rectangle 20968" width="4.422" height="26.529" transform="translate(0 0)" fill="#e8bc48"/>
          <path id="Path_50173" data-name="Path 50173" d="M364.107,206.859h-4.422v4.422h-4.422V215.7h-4.422v8.843H342V215.7h-4.422v13.265h26.529Z" transform="translate(-324.312 -202.437)" fill="#e8bc48"/>
          <rect id="Rectangle_20969" data-name="Rectangle 20969" width="17.686" height="8.843" transform="translate(66.324 39.794)" fill="#fff268"/>
          <rect id="Rectangle_20970" data-name="Rectangle 20970" width="22.108" height="8.843" transform="translate(39.794 39.794)" fill="#fff268"/>
          <rect id="Rectangle_20971" data-name="Rectangle 20971" width="8.843" height="8.843" transform="translate(4.422 39.794)" fill="#fff268"/>
          <rect id="Rectangle_20972" data-name="Rectangle 20972" width="17.686" height="4.422" transform="translate(66.324 30.951)" fill="#fff268"/>
          <rect id="Rectangle_20973" data-name="Rectangle 20973" width="22.108" height="4.422" transform="translate(39.794 30.951)" fill="#fff268"/>
          <rect id="Rectangle_20974" data-name="Rectangle 20974" width="8.843" height="4.422" transform="translate(4.422 30.951)" fill="#fff268"/>
          <path id="Path_50174" data-name="Path 50174" d="M425.571,227.529V201H421.15v4.422h-4.422v4.422h-4.422v4.422h-4.422v13.265Z" transform="translate(-341.562 -201)" fill="#fff268"/>
          <path id="Path_50175" data-name="Path 50175" d="M394.839,227.529v-4.422h-4.421v-8.843H386v-4.422h-4.422v-4.422h-4.422V201h-4.422v26.529Z" transform="translate(-332.937 -201)" fill="#fff268"/>
          <path id="Path_50176" data-name="Path 50176" d="M334.7,228.967V211.281h-4.422v-4.422h-4.422v22.108Z" transform="translate(-321.438 -202.437)" fill="#fff268"/>
          <rect id="Rectangle_20975" data-name="Rectangle 20975" width="4.422" height="8.843" transform="translate(61.902 39.794)" fill="#caff94"/>
          <rect id="Rectangle_20976" data-name="Rectangle 20976" width="4.422" height="4.422" transform="translate(61.902 30.951)" fill="#caff94"/>
          <rect id="Rectangle_20977" data-name="Rectangle 20977" width="4.422" height="4.422" transform="translate(61.902 22.108)" fill="#caff94"/>
        </g>
      </g>
      <g id="Group_38539" data-name="Group 38539" transform="translate(832.336 1717.393)">
        <g id="Group_38279" data-name="Group 38279" transform="translate(0 0)">
          <rect id="Rectangle_20885" data-name="Rectangle 20885" width="3.956" height="27.557" transform="translate(19.782)" fill="#3b5b80"/>
          <path id="Path_50071" data-name="Path 50071" d="M152,420v3.937h35.608v35.43h3.956V420Z" transform="translate(-136.174 -376.696)" fill="#d77643"/>
          <path id="Path_50072" data-name="Path 50072" d="M151.956,419v3.937H148V462.3h3.956v3.937h11.869V462.3h-3.956V422.937h3.956V419Z" transform="translate(-148 -379.633)" fill="#d77643"/>
          <rect id="Rectangle_20886" data-name="Rectangle 20886" width="3.956" height="11.81" transform="translate(15.826 27.557)" fill="#d77643"/>
          <rect id="Rectangle_20887" data-name="Rectangle 20887" width="3.956" height="7.873" transform="translate(35.608 31.494)" fill="#d77643"/>
          <path id="Path_50073" data-name="Path 50073" d="M176.782,460.367V456.43h-3.956V421H157v35.43h11.869v3.937Z" transform="translate(-121.392 -373.759)" fill="#feae34"/>
          <rect id="Rectangle_20888" data-name="Rectangle 20888" width="7.913" height="3.937" transform="translate(19.782 82.671)" fill="#feae34"/>
          <rect id="Rectangle_20889" data-name="Rectangle 20889" width="3.956" height="39.367" transform="translate(55.39 43.304)" fill="#feae34"/>
          <rect id="Rectangle_20890" data-name="Rectangle 20890" width="3.956" height="35.43" transform="translate(15.826 47.24)" fill="#feae34"/>
          <rect id="Rectangle_20891" data-name="Rectangle 20891" width="7.913" height="3.937" transform="translate(47.477 39.367)" fill="#feae34"/>
          <rect id="Rectangle_20892" data-name="Rectangle 20892" width="3.956" height="11.81" transform="translate(39.564 27.557)" fill="#feae34"/>
          <path id="Path_50074" data-name="Path 50074" d="M156.956,416H153v15.747h7.913V427.81h-3.956Z" transform="translate(-133.218 -388.443)" fill="#feae34"/>
          <rect id="Rectangle_20893" data-name="Rectangle 20893" width="15.826" height="31.494" transform="translate(23.739)" fill="#2a68af"/>
          <path id="Path_50075" data-name="Path 50075" d="M180.7,456.43H168.826V421H153v35.43h7.913v3.937H180.7Z" transform="translate(-133.218 -373.759)" fill="#fee761"/>
          <rect id="Rectangle_20894" data-name="Rectangle 20894" width="3.956" height="3.937" transform="translate(15.826 82.671)" fill="#fee761"/>
          <rect id="Rectangle_20895" data-name="Rectangle 20895" width="3.956" height="39.367" transform="translate(11.869 43.304)" fill="#fee761"/>
          <rect id="Rectangle_20896" data-name="Rectangle 20896" width="19.782" height="3.937" transform="translate(27.695 39.367)" fill="#fee761"/>
          <rect id="Rectangle_20897" data-name="Rectangle 20897" width="3.956" height="3.937" transform="translate(15.826 39.367)" fill="#fee761"/>
        </g>
        <path id="Path_51877" data-name="Path 51877" d="M22.4-25.714H3.2v3.2H0v3.2H9.6v-3.2H16v6.4H3.2v3.2H0v9.6H25.6v-3.2H9.6v-6.4H22.4v-3.2h3.2v-6.4H22.4Z" transform="translate(22.006 79.675)" fill="#7e4120"/>
      </g>
    </g>
  </g>
</svg>
