<svg xmlns="http://www.w3.org/2000/svg" xmlns:xlink="http://www.w3.org/1999/xlink" width="1136.001" height="300.501" viewBox="0 0 1136.001 300.501">
  <defs>
    <linearGradient id="linear-gradient" x1="-6.358" y1="0.74" x2="-3.872" y2="0.74" gradientUnits="objectBoundingBox">
      <stop offset="0.036" stop-color="#a58000"/>
      <stop offset="0.046" stop-color="#a88400"/>
      <stop offset="0.126" stop-color="#c6a705"/>
      <stop offset="0.201" stop-color="#dbc009"/>
      <stop offset="0.27" stop-color="#e8cf0b"/>
      <stop offset="0.325" stop-color="#edd50c"/>
      <stop offset="0.471" stop-color="#d7bc12"/>
      <stop offset="0.798" stop-color="#aa8921"/>
      <stop offset="0.994" stop-color="#a07d17"/>
    </linearGradient>
    <linearGradient id="linear-gradient-2" x1="63.404" y1="0.902" x2="64.379" y2="0.033" gradientUnits="objectBoundingBox">
      <stop offset="0.036" stop-color="#98660e"/>
      <stop offset="0.053" stop-color="#9e6e16"/>
      <stop offset="0.131" stop-color="#b68f39"/>
      <stop offset="0.204" stop-color="#c7a852"/>
      <stop offset="0.271" stop-color="#d2b661"/>
      <stop offset="0.325" stop-color="#d6bc67"/>
      <stop offset="0.474" stop-color="#c09f51"/>
      <stop offset="0.761" stop-color="#9a6c2a"/>
      <stop offset="0.994" stop-color="#9a6f28"/>
    </linearGradient>
    <linearGradient id="linear-gradient-3" x1="63.421" y1="0.883" x2="64.372" y2="0.034" gradientUnits="objectBoundingBox">
      <stop offset="0.036" stop-color="#d9aa29"/>
      <stop offset="0.122" stop-color="#e2bb1d"/>
      <stop offset="0.273" stop-color="#f0d40d"/>
      <stop offset="0.41" stop-color="#f9e303"/>
      <stop offset="0.521" stop-color="#fce900"/>
      <stop offset="0.616" stop-color="#edcd12"/>
      <stop offset="0.707" stop-color="#e3ba1f"/>
      <stop offset="0.77" stop-color="#e0b424"/>
      <stop offset="0.994" stop-color="#e8c544"/>
    </linearGradient>
    <linearGradient id="linear-gradient-4" x1="-9.124" y1="-6.013" x2="-6.769" y2="-6.013" xlink:href="#linear-gradient"/>
    <radialGradient id="radial-gradient" cx="-3013.054" cy="-296.513" r="5.348" gradientTransform="matrix(0.559, 0.526, -0.527, 0.56, -1740.068, 1393.615)" gradientUnits="userSpaceOnUse">
      <stop offset="0" stop-color="#545252"/>
      <stop offset="1" stop-color="#231815"/>
    </radialGradient>
    <radialGradient id="radial-gradient-2" cx="-3454.084" cy="565.379" r="4.872" gradientTransform="matrix(0.642, 0.605, -0.605, 0.643, -1195.128, 2300.494)" gradientUnits="userSpaceOnUse">
      <stop offset="0" stop-color="#666"/>
      <stop offset="1" stop-color="#262626"/>
    </radialGradient>
    <radialGradient id="radial-gradient-3" cx="-3103.395" cy="-514.085" r="7.038" gradientTransform="matrix(0.49, 0.461, -0.462, 0.49, -2087.051, 1095.195)" gradientUnits="userSpaceOnUse">
      <stop offset="0" stop-color="#4f4f4f"/>
      <stop offset="0.441" stop-color="#343434"/>
      <stop offset="0.706" stop-color="#2b2b2b"/>
    </radialGradient>
    <radialGradient id="radial-gradient-4" cx="-3485.245" cy="683.156" r="1.584" gradientTransform="matrix(0.702, 0.661, -0.662, 0.702, -888.092, 2519.376)" gradientUnits="userSpaceOnUse">
      <stop offset="0" stop-color="#747373"/>
      <stop offset="1" stop-color="#383231"/>
    </radialGradient>
    <radialGradient id="radial-gradient-5" cx="-7484.658" cy="-2255.623" r="2.423" gradientTransform="matrix(-0.934, -1.038, -0.892, 0.803, -17091.121, -8413.656)" gradientUnits="userSpaceOnUse">
      <stop offset="0" stop-color="#707070"/>
      <stop offset="1" stop-color="#363636"/>
    </radialGradient>
    <radialGradient id="radial-gradient-6" cx="-8063.955" cy="-3099.456" r="6.616" gradientTransform="matrix(-0.71, -0.81, -0.808, 0.709, -16943.224, -7702.856)" gradientUnits="userSpaceOnUse">
      <stop offset="0" stop-color="#4f4f4f"/>
      <stop offset="0.027" stop-color="#4c4c4c"/>
      <stop offset="0.368" stop-color="#2c2c2c"/>
      <stop offset="0.656" stop-color="#181818"/>
      <stop offset="0.853" stop-color="#121212"/>
    </radialGradient>
  </defs>
  <g id="resadv" transform="translate(-9485 -13850)">
    <g id="Group_42013" data-name="Group 42013" transform="translate(675 79)">
      <g id="Group_41428" data-name="Group 41428" transform="translate(137 100)">
        <rect id="Rectangle_40931" data-name="Rectangle 40931" width="1136" height="300" transform="translate(8673 13671)" fill="#dffaff"/>
        <path id="Path_54401" data-name="Path 54401" d="M665.466,207.437V63.342Q662.2,61.455,658.9,59.6q-1.946-1.1-3.9-2.2-14.17-7.95-28.713-15.508c-.263-.136-.53-.272-.8-.41-.826-.428-1.656-.852-2.484-1.276l-.058-.032Q616.99,37.1,610.976,34.1q-2.215-1.1-4.438-2.2-16.256-8.007-32.944-15.508c-1.227-.55-2.451-1.1-3.681-1.652q-6.99-3.114-14.051-6.136-2.59-1.11-5.2-2.2-16.972-7.158-34.333-13.8c-.919-.352-1.845-.694-2.767-1.044q-18.5-7.011-37.427-13.41-3.291-1.113-6.594-2.2-8.615-2.853-17.31-5.586-3.567-1.116-7.154-2.2-4.995-1.527-10.009-3.01c-2.211-.654-4.42-1.31-6.639-1.95q-10.887-3.147-21.894-6.094c-2.146-.574-4.3-1.134-6.455-1.7Q377.148-50.6,353.717-55.7q-3.866-.84-7.75-1.656-8.668-1.824-17.4-3.53l-2.027-1.336v-.094h-5.5q-15.987-3-32.172-5.586-5.725-.912-11.469-1.772-11.28-1.686-22.644-3.164c-1.214-.156-2.434-.3-3.65-.46q-52.616-6.666-107.014-8.76-12.6-.48-25.285-.694-10.678-.186-21.4-.2c-1.575,0-3.145.018-4.721.024h-.061q-2.162.009-4.319.022l-.061,0c-1.8.012-3.595.024-5.39.046q-8.247.1-16.459.308l-.058,0q-14.42.36-28.731,1.046-7.77.378-15.515.846-32.823,2.007-65,5.734-8.437.972-16.828,2.054c-.9.118-1.8.232-2.691.348-1.833.242-3.658.5-5.483.748q-5.881.8-11.731,1.662-5.339.783-10.651,1.614-26.935,4.2-53.321,9.564c-1.106.224-2.2.46-3.3.688q-25.443,5.253-50.325,11.568c-1.048.266-2.1.524-3.145.79q-24.087,6.183-47.608,13.33c-.992.3-1.979.606-2.966.91q-19.429,5.955-38.447,12.536c-2.093.724-4.173,1.468-6.253,2.2q-7.774,2.745-15.472,5.586c-1.959.726-3.91,1.466-5.862,2.2Q-335.531-2.129-353.63,5.448c-.957.4-1.909.812-2.865,1.216q-8.736,3.693-17.378,7.518-7.933,3.522-15.768,7.164-9.183,4.257-18.239,8.672c-.831.4-1.666.81-2.494,1.218q-8.475,4.155-16.82,8.446-6.9,3.537-13.708,7.164-9.077,4.836-18,9.832c-.785.438-1.575.87-2.358,1.31q-4.657,2.622-9.272,5.288v139.2Z" transform="translate(9143.534 13754.177)" fill="#f3ffff"/>
        <g id="Group_41425" data-name="Group 41425" transform="translate(8742.2 13741.633)">
          <path id="Path_54402" data-name="Path 54402" d="M-374.657-34.769l-1.742-3.6c-4.212,2.036-8.4,4.264-12.456,6.616l2.008,3.458C-382.879-30.593-378.779-32.773-374.657-34.769Z" transform="translate(483.011 57.129)" fill="#00bcd1"/>
          <path id="Path_54403" data-name="Path 54403" d="M-386.891-27.994l-2.26-3.3c-3.862,2.646-7.676,5.47-11.336,8.4l2.5,3.124C-394.407-22.638-390.673-25.4-386.891-27.994Z" transform="translate(471.379 64.202)" fill="#00bcd1"/>
          <path id="Path_54404" data-name="Path 54404" d="M-398.119-19.558l-2.722-2.924c-3.434,3.19-6.786,6.552-9.97,9.988l2.936,2.718C-404.759-13.14-401.479-16.43-398.119-19.558Z" transform="translate(461.055 73.014)" fill="#00bcd1"/>
          <path id="Path_54405" data-name="Path 54405" d="M-348.24-42.728l-.6-3.958c-4.634.7-9.3,1.586-13.862,2.63l.892,3.9C-357.342-41.178-352.778-42.044-348.24-42.728Z" transform="translate(509.166 48.81)" fill="#00bcd1"/>
          <path id="Path_54406" data-name="Path 54406" d="M-361.674-39.719l-1.184-3.82c-4.474,1.386-8.954,2.96-13.314,4.68l1.468,3.722C-370.438-36.821-366.054-38.363-361.674-39.719Z" transform="translate(495.694 51.957)" fill="#00bcd1"/>
          <path id="Path_54407" data-name="Path 54407" d="M-423.423,13.7l-3.726-1.46c-1.71,4.372-3.274,8.86-4.648,13.342l3.824,1.174C-426.629,22.37-425.1,17.976-423.423,13.7Z" transform="translate(440.069 107.736)" fill="#00bcd1"/>
          <path id="Path_54408" data-name="Path 54408" d="M-408.092-9.645l-3.128-2.492c-2.922,3.67-5.744,7.492-8.38,11.362l3.3,2.252C-413.714-2.311-410.954-6.053-408.092-9.645Z" transform="translate(452.266 83.359)" fill="#00bcd1"/>
          <path id="Path_54409" data-name="Path 54409" d="M-428.413,26.61l-3.9-.88c-1.032,4.578-1.906,9.244-2.59,13.872l3.958.586C-430.279,35.658-429.425,31.09-428.413,26.61Z" transform="translate(436.959 121.226)" fill="#00bcd1"/>
          <path id="Path_54410" data-name="Path 54410" d="M-334.653-43.748l-.006-4c-4.7.008-9.44.19-14.1.54l.3,3.99C-343.895-43.562-339.251-43.74-334.653-43.748Z" transform="translate(523.107 47.748)" fill="#00bcd1"/>
          <path id="Path_54411" data-name="Path 54411" d="M-416.591,1.521l-3.466-2c-2.346,4.064-4.564,8.266-6.6,12.488l3.606,1.734C-421.059,9.611-418.887,5.5-416.591,1.521Z" transform="translate(445.213 95.017)" fill="#00bcd1"/>
          <path id="Path_54412" data-name="Path 54412" d="M-320.489-45.958c-4.622-.684-9.34-1.2-14.028-1.542l-.288,3.99c4.588.33,9.206.838,13.73,1.508Z" transform="translate(537.061 47.996)" fill="#00bcd1"/>
          <path id="Path_54413" data-name="Path 54413" d="M-254.481,5.249c-2.348-4.042-4.884-8.054-7.536-11.924l-3.3,2.262c2.6,3.788,5.078,7.712,7.378,11.672Z" transform="translate(606.549 88.821)" fill="#00bcd1"/>
          <path id="Path_54414" data-name="Path 54414" d="M-249.119,18.421c-1.718-4.354-3.628-8.7-5.668-12.908l-3.6,1.744c2,4.122,3.866,8.372,5.55,12.634Z" transform="translate(613.479 101.009)" fill="#00bcd1"/>
          <path id="Path_54415" data-name="Path 54415" d="M-248.675,46.688l3.988-.3c-.354-4.682-.89-9.4-1.59-14.02l-3.956.6C-249.545,37.49-249.023,42.106-248.675,46.688Z" transform="translate(621.633 127.862)" fill="#00bcd1"/>
          <path id="Path_54416" data-name="Path 54416" d="M-245.827,32.249c-1.05-4.572-2.286-9.156-3.672-13.626l-3.82,1.184c1.36,4.376,2.566,8.862,3.594,13.336Z" transform="translate(618.547 114.119)" fill="#00bcd1"/>
          <path id="Path_54417" data-name="Path 54417" d="M-261.794-7c-2.926-3.65-6.032-7.242-9.226-10.674l-2.926,2.728c3.128,3.358,6.168,6.874,9.032,10.448Z" transform="translate(597.92 77.818)" fill="#00bcd1"/>
          <path id="Path_54418" data-name="Path 54418" d="M-306.631-41.816c-4.486-1.372-9.074-2.59-13.642-3.622l-.878,3.9c4.468,1.008,8.956,2.2,13.348,3.542Z" transform="translate(550.715 50.058)" fill="#00bcd1"/>
          <path id="Path_54419" data-name="Path 54419" d="M-270.881-18.062c-3.446-3.188-7.048-6.28-10.708-9.194l-2.492,3.13c3.586,2.85,7.114,5.88,10.484,9Z" transform="translate(587.785 68.24)" fill="#00bcd1"/>
          <path id="Path_54420" data-name="Path 54420" d="M-293.538-35.671c-4.23-2.034-8.59-3.928-12.954-5.636l-1.456,3.728c4.274,1.67,8.54,3.522,12.68,5.512Z" transform="translate(563.918 54.189)" fill="#00bcd1"/>
          <path id="Path_54421" data-name="Path 54421" d="M-281.539-27.691c-3.88-2.64-7.9-5.164-11.962-7.5l-2,3.464c3.972,2.292,7.91,4.762,11.708,7.348Z" transform="translate(576.369 60.301)" fill="#00bcd1"/>
          <path id="Path_54422" data-name="Path 54422" d="M-435.933,46.824l4-.2h-4Z" transform="translate(435.933 142.123)" fill="#00bcd1"/>
          <path id="Path_54423" data-name="Path 54423" d="M-435.429,39.678c-.334,4.59-.5,9.266-.5,13.9h4c0-4.536.166-9.114.494-13.608Z" transform="translate(435.933 135.174)" fill="#00bcd1"/>
        </g>
        <g id="Group_41426" data-name="Group 41426" transform="translate(9126.941 13741.633)">
          <path id="Path_54424" data-name="Path 54424" d="M-182.288-34.769l-1.742-3.6c-4.21,2.036-8.4,4.264-12.454,6.616l2.008,3.458C-190.51-30.593-186.408-32.773-182.288-34.769Z" transform="translate(290.64 57.129)" fill="#00bcd1"/>
          <path id="Path_54425" data-name="Path 54425" d="M-194.52-27.994l-2.26-3.3c-3.864,2.646-7.678,5.47-11.336,8.4l2.5,3.124C-202.036-22.638-198.3-25.4-194.52-27.994Z" transform="translate(279.008 64.202)" fill="#00bcd1"/>
          <path id="Path_54426" data-name="Path 54426" d="M-205.75-19.558l-2.722-2.924c-3.434,3.19-6.784,6.552-9.968,9.988l2.936,2.718C-212.39-13.14-209.108-16.43-205.75-19.558Z" transform="translate(268.684 73.014)" fill="#00bcd1"/>
          <path id="Path_54427" data-name="Path 54427" d="M-155.868-42.728l-.6-3.958c-4.636.7-9.3,1.586-13.864,2.63l.892,3.9C-164.97-41.178-160.406-42.044-155.868-42.728Z" transform="translate(316.794 48.81)" fill="#00bcd1"/>
          <path id="Path_54428" data-name="Path 54428" d="M-169.3-39.719l-1.182-3.82c-4.476,1.386-8.956,2.96-13.316,4.68l1.47,3.722C-178.066-36.821-173.682-38.363-169.3-39.719Z" transform="translate(303.322 51.957)" fill="#00bcd1"/>
          <path id="Path_54429" data-name="Path 54429" d="M-231.051,13.7l-3.726-1.46c-1.712,4.372-3.274,8.86-4.65,13.342l3.826,1.174C-234.259,22.37-232.727,17.976-231.051,13.7Z" transform="translate(247.697 107.736)" fill="#00bcd1"/>
          <path id="Path_54430" data-name="Path 54430" d="M-215.721-9.645l-3.13-2.492c-2.922,3.67-5.742,7.492-8.378,11.362l3.3,2.252C-221.343-2.311-218.583-6.053-215.721-9.645Z" transform="translate(259.895 83.359)" fill="#00bcd1"/>
          <path id="Path_54431" data-name="Path 54431" d="M-236.044,26.61l-3.9-.88c-1.034,4.578-1.906,9.244-2.59,13.872l3.958.586C-237.908,35.658-237.056,31.09-236.044,26.61Z" transform="translate(244.588 121.226)" fill="#00bcd1"/>
          <path id="Path_54432" data-name="Path 54432" d="M-142.284-43.748l-.006-4c-4.694.008-9.438.19-14.1.54l.3,3.99C-151.526-43.562-146.882-43.74-142.284-43.748Z" transform="translate(330.736 47.748)" fill="#00bcd1"/>
          <path id="Path_54433" data-name="Path 54433" d="M-224.222,1.521l-3.464-2c-2.346,4.064-4.564,8.266-6.6,12.488l3.606,1.734C-228.688,9.611-226.516,5.5-224.222,1.521Z" transform="translate(252.842 95.017)" fill="#00bcd1"/>
          <path id="Path_54434" data-name="Path 54434" d="M-128.118-45.958c-4.622-.684-9.34-1.2-14.028-1.542l-.288,3.99c4.59.33,9.206.838,13.73,1.508Z" transform="translate(344.69 47.996)" fill="#00bcd1"/>
          <path id="Path_54435" data-name="Path 54435" d="M-62.11,5.249C-64.458,1.207-66.994-2.8-69.646-6.675l-3.3,2.262c2.6,3.788,5.078,7.712,7.378,11.672Z" transform="translate(414.178 88.821)" fill="#00bcd1"/>
          <path id="Path_54436" data-name="Path 54436" d="M-56.748,18.421c-1.72-4.354-3.628-8.7-5.67-12.908l-3.6,1.744c2,4.122,3.864,8.372,5.548,12.634Z" transform="translate(421.108 101.009)" fill="#00bcd1"/>
          <path id="Path_54437" data-name="Path 54437" d="M-56.3,46.688l3.988-.3c-.354-4.682-.89-9.4-1.592-14.02l-3.954.6C-57.174,37.49-56.652,42.106-56.3,46.688Z" transform="translate(429.262 127.862)" fill="#00bcd1"/>
          <path id="Path_54438" data-name="Path 54438" d="M-53.458,32.249c-1.048-4.572-2.284-9.156-3.67-13.626l-3.82,1.184c1.358,4.376,2.566,8.862,3.592,13.336Z" transform="translate(426.176 114.119)" fill="#00bcd1"/>
          <path id="Path_54439" data-name="Path 54439" d="M-69.423-7c-2.926-3.65-6.03-7.242-9.226-10.674l-2.926,2.728c3.128,3.358,6.168,6.874,9.032,10.448Z" transform="translate(405.549 77.818)" fill="#00bcd1"/>
          <path id="Path_54440" data-name="Path 54440" d="M-114.261-41.816c-4.484-1.372-9.072-2.59-13.64-3.622l-.88,3.9c4.468,1.008,8.958,2.2,13.35,3.542Z" transform="translate(358.343 50.058)" fill="#00bcd1"/>
          <path id="Path_54441" data-name="Path 54441" d="M-78.51-18.062c-3.446-3.188-7.048-6.28-10.708-9.194l-2.492,3.13c3.584,2.85,7.112,5.88,10.484,9Z" transform="translate(395.414 68.24)" fill="#00bcd1"/>
          <path id="Path_54442" data-name="Path 54442" d="M-101.167-35.671c-4.23-2.034-8.59-3.928-12.952-5.636l-1.458,3.728c4.274,1.67,8.538,3.522,12.678,5.512Z" transform="translate(371.547 54.189)" fill="#00bcd1"/>
          <path id="Path_54443" data-name="Path 54443" d="M-89.168-27.691c-3.88-2.64-7.9-5.164-11.962-7.5l-2,3.464c3.974,2.292,7.91,4.762,11.708,7.348Z" transform="translate(383.998 60.301)" fill="#00bcd1"/>
          <path id="Path_54444" data-name="Path 54444" d="M-243.562,46.824l4-.2h-4Z" transform="translate(243.562 142.123)" fill="#00bcd1"/>
          <path id="Path_54445" data-name="Path 54445" d="M-243.058,39.678c-.334,4.59-.5,9.266-.5,13.9h4c0-4.536.166-9.114.494-13.608Z" transform="translate(243.562 135.174)" fill="#00bcd1"/>
        </g>
        <g id="Group_41427" data-name="Group 41427" transform="translate(8673 13874.297)">
          <path id="Path_54446" data-name="Path 54446" d="M665.465,65.678H654.943v9.449H644.308v8.012H633.673v-24.2H623.03V64.3H612.393V55.057H601.758v3.887H591.122V64.3H580.485V43.678H569.847v9.467H559.394V47.51H548.756V40.1H538.119V51.414H527.484v8.264H516.849V77.145H506.391v-5H495.753V64.732H485.115V76.047H474.48V61.965H463.845V50.584H453.207v9.449H442.57v8.014H431.935v-2.2h-10.64V79.244H410.659V46H400.022v3.887H389.384V77.244H378.749V69.678H368.113V91.145H357.656v-27H347.018V56.732H336.38V68.047H325.745v6.375H315.11V47.041H304.472V56.49H293.835v4.648H283.2v-2.2h-10.64V64.3H261.924V48.557H251.289V54.2H240.651V80.3H230.013V59.19H219.378v9.955H208.921V36.451H198.285v-7.41H187.648V40.357H177.01v14.7H166.572V43.678H155.937v9.449H145.3v8.012H134.664v-2.2H124.021V64.3H113.386V55.057H102.748v3.887H92.111V64.3H81.476V43.678H70.84v9.467H60.385V45.51H49.747V60.1H39.112V33.414H28.475V43.678H17.837v9.467H7.382v-5H-3.256V40.732H-13.891V52.047H-24.529V29.965H-35.167V18.584H-45.8v9.449H-56.437v8.014H-67.075v-2.2H-77.712V55.244H-88.35V46H-98.988v3.887h-10.635v5.355h-10.635V43.678H-130.9v9.467h-10.457v-5H-151.99V40.732h-10.637V72.047h-10.636v6.375H-183.9V67.041h-10.636V76.49h-10.636v4.648H-215.81v-2.2h-10.639V84.3h-10.637V48.557h-10.637V54.2h-10.637V84.3h-10.636V69.19h-10.636v3.955h-10.458V56.451h-10.636v-7.41h-10.637V60.357H-322v14.7h-10.437V43.678h-10.638v9.449h-10.637v8.012h-10.636v-2.2h-10.641V64.3h-10.637V55.057h-10.636v3.887H-406.9V64.3h-10.636V43.678h-10.636v9.467h-10.455V43.51h-10.637V36.1H-459.9V47.414h-10.637v67.873h1136Z" transform="translate(470.533 -18.584)" fill="#00bcd1"/>
        </g>
      </g>
      <g id="Group_42014" data-name="Group 42014">
        <path id="Union_96" data-name="Union 96" d="M-343.589,538.962v-10.3h10.3v10.3Zm-20.321,0v-10.3h10.293v10.3Zm-20.592,0v-10.3h10.3v10.3Zm-20.591,0v-10.3h10.3v10.3Zm-20.588,0v-10.3h10.293v10.3Zm-20.592,0v-10.3h10.3v10.3Zm-20.591,0v-10.3h10.3v10.3Zm-20.59,0v-10.3h10.3v10.3Zm-20.59,0v-10.3h10.3v10.3Zm-20.591,0v-10.3h10.3v10.3Zm-20.59,0v-10.3h10.3v10.3Zm-20.591,0v-10.3h10.3v10.3Zm-20.59,0v-10.3h10.3v10.3Zm-13.5,0H-611v-10.3h17.382v10.3Zm-20.592,0h-7.087v-10.3h17.383v10.3Zm-20.591,0v-10.3h10.3v10.3Zm-20.588,0v-10.3h10.293v10.3Zm-20.592,0v-10.3h10.3v10.3Zm-20.591,0v-10.3h10.3v10.3Zm-20.59,0v-10.3h10.3v10.3Zm-20.59,0v-10.3h10.3v10.3Zm-20.591,0v-10.3h10.3v10.3Zm-20.59,0v-10.3h10.3v10.3Zm-20.591,0v-10.3h10.3v10.3Zm-20.59,0v-10.3h10.3v10.3Zm-20.591,0v-10.3h10.3v10.3Zm-20.59,0v-10.3h10.3v10.3Zm-20.963,0v-10.3h10.293v10.3Zm-20.592,0v-10.3h10.3v10.3Zm-20.591,0v-10.3h10.3v10.3Zm-20.588,0v-10.3h10.293v10.3Zm-20.592,0v-10.3h10.3v10.3Zm-20.591,0v-10.3h10.3v10.3Zm-20.59,0v-10.3h10.3v10.3Zm-20.59,0v-10.3h10.3v10.3Zm-20.591,0v-10.3h10.3v10.3Zm-20.59,0v-10.3h10.3v10.3Zm-20.591,0v-10.3h10.3v10.3Zm-20.59,0v-10.3h10.3v10.3Zm-20.591,0v-10.3h10.3v10.3Zm-20.59,0v-10.3h10.3v10.3Zm-20.794,0v-10.3h10.293v10.3Zm-20.592,0v-10.3h10.3v10.3Zm-20.591,0v-10.3h10.3v10.3Zm-20.588,0v-10.3h10.293v10.3Zm-20.592,0v-10.3h10.3v10.3Zm-20.591,0v-10.3h10.3v10.3Zm-20.59,0v-10.3h10.3v10.3Zm-20.59,0v-10.3h10.3v10.3Zm-20.591,0v-10.3h10.3v10.3Zm-20.59,0v-10.3h10.3v10.3Zm-20.591,0v-10.3h10.3v10.3Zm-20.59,0v-10.3h10.3v10.3Zm-20.591,0v-10.3h10.3v10.3Zm-20.59,0v-10.3h10.3v10.3ZM-333.294,528.3V518H-323v10.3Zm-20.591,0V518h10.3v10.3Zm-20.32,0V518h10.3v10.3Zm-20.591,0V518H-384.5v10.3Zm-20.592,0V518h10.3v10.3Zm-20.59,0V518h10.3v10.3Zm-20.589,0V518h10.294v10.3Zm-20.592,0V518h10.3v10.3Zm-20.59,0V518h10.3v10.3Zm-20.591,0V518h10.3v10.3Zm-20.59,0V518h10.3v10.3Zm-20.591,0V518h10.3v10.3Zm-20.59,0V518h10.3v10.3Zm-20.591,0V518h10.3v10.3Zm-13.5,0h-7.088V518h17.383v10.3Zm-20.591,0h-7.088V518H-624.5v10.3Zm-20.592,0V518h10.3v10.3Zm-20.59,0V518h10.3v10.3Zm-20.589,0V518h10.294v10.3Zm-20.592,0V518h10.3v10.3Zm-20.59,0V518h10.3v10.3Zm-20.591,0V518h10.3v10.3Zm-20.59,0V518h10.3v10.3Zm-20.591,0V518h10.3v10.3Zm-20.59,0V518h10.3v10.3Zm-20.591,0V518h10.3v10.3Zm-20.59,0V518H-851v10.3Zm-20.591,0V518h10.3v10.3Zm-20.962,0V518h10.3v10.3Zm-20.591,0V518h10.294v10.3Zm-20.592,0V518h10.3v10.3Zm-20.59,0V518h10.3v10.3Zm-20.589,0V518h10.294v10.3Zm-20.592,0V518h10.3v10.3Zm-20.59,0V518h10.3v10.3Zm-20.591,0V518h10.3v10.3Zm-20.59,0V518h10.3v10.3Zm-20.591,0V518h10.3v10.3Zm-20.59,0V518h10.3v10.3Zm-20.591,0V518h10.3v10.3Zm-20.59,0V518h10.3v10.3Zm-20.591,0V518h10.3v10.3Zm-20.793,0V518h10.3v10.3Zm-20.591,0V518h10.294v10.3Zm-20.592,0V518h10.3v10.3Zm-20.59,0V518h10.3v10.3Zm-20.589,0V518h10.294v10.3Zm-20.592,0V518h10.3v10.3Zm-20.59,0V518h10.3v10.3Zm-20.591,0V518h10.3v10.3Zm-20.59,0V518h10.3v10.3Zm-20.591,0V518h10.3v10.3Zm-20.59,0V518h10.3v10.3Zm-20.591,0V518h10.3v10.3Zm-20.59,0V518h10.3v10.3Zm-20.591,0V518h10.3v10.3Z" transform="translate(10269 13532)" fill="#00b3c7"/>
      </g>
      <g id="Group_41813" data-name="Group 41813" transform="translate(8603.248 13604.342)">
        <path id="Union_107" data-name="Union 107" d="M-10550.245-13701.339h-5v-5h-5v-10h-5v-5h10v5h5v5h5v10Z" transform="translate(10961.005 14142.997)" fill="#e91e63" stroke="rgba(0,0,0,0)" stroke-width="1"/>
        <path id="Union_108" data-name="Union 108" d="M-10535.249-13691.338h-30v-5h35v5Zm5-10h-5v-5h10v5Zm10-5v-5h-5v-5h10v10Zm-25-5v-10h5v10Z" transform="translate(10931.003 14122.999)" fill="#263238" stroke="rgba(0,0,0,0)" stroke-width="1"/>
        <path id="Union_109" data-name="Union 109" d="M-10495.24-13631.339h-5v-5h-5v5h-10v-25h0v20h-5v5h-10v-35h35v5h5v5h0v25Zm-45,0h-10v-30h-5v-5h-5v-5h-5v-5h10v5h5v5h20v30h-5v5Zm35-40h-25v-30h5v-5h-5v-15h10v15h10.008v-15h5v4.993h5v10.008h5v5h5v5h5v5h-5v5h5v5h-15v10Zm0-15v-10h-4.993v10Zm-30,10v-20h5v20Zm0-35v-5h-5v5h-5v-10h15v10Z" transform="translate(10895.997 14097.997)" fill="#f9a825" stroke="rgba(0,0,0,0)" stroke-width="1"/>
      </g>
      <g id="Group_42007" data-name="Group 42007" transform="translate(8825.293 13700.249)">
        <path id="Union_100" data-name="Union 100" d="M-10744.084-13761.25v-6.222h6.173v6.222Zm-30.862,0v-6.222h-6.172v-6.221h-6.177v-12.445h6.177v12.445h6.172v6.221h6.173v6.222Zm43.207-37.333v-6.221h6.173v6.221Zm-30.862,0v0h-6.172v-18.667h6.172v0h6.173v18.667Zm0-6.221v0Zm12.346,0v-6.225h6.172v6.225Z" transform="translate(11018.3 14132)" fill="#1d1d1b" stroke="rgba(0,0,0,0)" stroke-width="1"/>
        <path id="Union_99" data-name="Union 99" d="M-10756.427-13792.356h-30.865v-6.229h12.345v-18.666h12.349v0h6.172v6.225h6.173v18.67Zm-6.172-12.449v-6.221h-6.173v6.221Z" transform="translate(11036.816 14132)" fill="#b17f49" stroke="rgba(0,0,0,0)" stroke-width="1"/>
        <rect id="Rectangle_48025" data-name="Rectangle 48025" width="6.173" height="6.222" transform="translate(280.388 339.64)" fill="#f296a4"/>
        <path id="Union_101" data-name="Union 101" d="M-10781.122-13792.358h-6.173v-24.892h12.346v24.892Zm12.349-18.667v-6.225h6.172v6.225Zm-6.176,0v-6.225h6.176v6.225Z" transform="translate(11036.818 14163.11)" fill="#b17f49" stroke="rgba(0,0,0,0)" stroke-width="1"/>
        <path id="Union_103" data-name="Union 103" d="M-10768.773-13811.025v-6.225h6.172v6.225Zm-6.176,0v-6.225h6.176v6.225Zm-12.346,0v-6.225h6.177v6.225Z" transform="translate(11036.818 14156.889)" fill="#da2c2c" stroke="rgba(0,0,0,0)" stroke-width="1"/>
        <rect id="Rectangle_48047" data-name="Rectangle 48047" width="6.173" height="6.222" transform="translate(255.698 339.64)" fill="#fce253"/>
        <path id="Union_102" data-name="Union 102" d="M-10781.118-13798.583v-18.667h6.172v18.667Zm-6.177,0v-18.667h6.177v18.667Z" transform="translate(11049.163 14169.333)" fill="#925f36" stroke="rgba(0,0,0,0)" stroke-width="1"/>
      </g>
      <g id="Group_42008" data-name="Group 42008" transform="translate(9545.268 14026)">
        <path id="Union_111" data-name="Union 111" d="M-11469.509-14120.468h-7.553V-14143h15.105v22.532Zm-37.759,0v-15.043h7.553v15.043Z" transform="translate(11507.268 14143)" fill="#eb5e69" stroke="rgba(0,0,0,0)" stroke-width="1"/>
        <path id="Union_112" data-name="Union 112" d="M-11439.3-14105.489v0h-7.553v0h-7.554v0h-7.55v0h-7.553v-30.021H-11432v-7.24h7.55v7.55h-7.3v29.712Zm-37.759,0v-15.042h7.55v15.042Zm-7.553,0v0h-7.554v-7.489h-7.55v0h-7.553V-14143h22.656v22.469h7.55v15.042Zm-7.554-22.532v-7.429h-7.55v7.429Z" transform="translate(11514.819 14143)" fill="#f296a4" stroke="rgba(0,0,0,0)" stroke-width="1"/>
        <path id="Union_110" data-name="Union 110" d="M-11446.853-14105.489v-7.553h7.553v7.553Zm-52.862,0v-7.553h7.55v7.553Zm-7.553-29.961v-7.55h7.553v7.55Z" transform="translate(11522.371 14150.489)" fill="#1d1d1b" stroke="rgba(0,0,0,0)" stroke-width="1"/>
      </g>
      <g id="Group_42009" data-name="Group 42009" transform="translate(9739.28 14016)">
        <path id="Union_113" data-name="Union 113" d="M-11640.408-14078v-4.65h4.656v4.65Zm-4.654,0v-4.65h4.654v4.65Zm-4.657,0v-4.65h4.657v4.65Zm-4.656,0v-4.65h4.656v4.65Zm-4.654,0v-4.65h4.654v4.65Zm-4.657,0v-4.65h4.657v4.65Zm-4.656,0v-4.65h4.656v4.65Zm-4.654,0v-4.65h4.654v4.65Zm-4.657,0v-4.65h4.657v4.65Zm-4.656,0v-4.65h4.656v4.65Zm-4.654,0v-4.65h4.654v4.65Zm-4.656,0v-4.65h4.656v4.65Zm-4.657,0v-4.65h4.657v4.65Zm60.527-4.654v-4.657h4.657v4.657Zm-13.968,0v-36.614h4.657v36.614Zm-4.656,0v-41.19h4.656v41.19Zm-4.654,0v-45.687h4.654v45.688Zm-4.657,0v-18.306h4.657v18.306Zm-4.656,0v-18.306h4.656v18.306Zm-4.654,0v-41.19h4.654v41.19Zm-4.657,0v-18.306h4.657v18.306Zm-4.656,0v-27.456h4.656v27.456Zm-4.654,0v-27.456h4.654v27.456Zm-4.656,0v-41.19h4.656v41.19Zm-4.657,0v-36.614h4.657v36.614Zm65.185-4.5v-4.657h4.654v4.657Zm-32.593-18.31v-4.649h4.657v4.649Zm-4.656,0v-4.649h4.656v4.649Zm-9.312,0v-22.881h4.657v22.881Zm13.968-9.15v-4.657h4.657v4.657Zm-4.656,0v-13.73h4.656v13.73Zm-13.968,0v-4.657h4.656v4.657Zm-4.654,0v-13.73h4.654v13.73Zm23.278-9.073V-14133h4.657v9.314Zm-18.624,0V-14133h4.656v9.314Z" transform="translate(11696.28 14133)" fill="#fafafa" stroke="rgba(0,0,0,0)" stroke-width="1"/>
        <path id="Union_115" data-name="Union 115" d="M-11673-14128.343V-14133h4.657v4.657Zm-4.661,0V-14133h4.661v4.657Zm-13.968,0V-14133h4.661v4.657Zm-4.649,0V-14133h4.649v4.657Z" transform="translate(11705.596 14151.309)" fill="#263238" stroke="rgba(0,0,0,0)" stroke-width="1"/>
        <path id="Union_116" data-name="Union 116" d="M-11677.655-14128.347V-14133h4.657v4.653Zm-18.624,0V-14133h4.657v4.653Z" transform="translate(11710.248 14142.156)" fill="#f9a825" stroke="rgba(0,0,0,0)" stroke-width="1"/>
        <rect id="Rectangle_47377" data-name="Rectangle 47377" width="4.657" height="4.658" transform="translate(18.625 27.46)" fill="#e91e63"/>
        <path id="Union_114" data-name="Union 114" d="M-11691.622-14128.343V-14133h4.656v4.657Zm-4.657,0V-14133h4.657v4.657Z" transform="translate(11724.216 14160.46)" fill="#e040fb" stroke="rgba(0,0,0,0)" stroke-width="1"/>
      </g>
      <g id="Group_42011" data-name="Group 42011" transform="translate(125 -2)">
        <g id="Subtraction_8" data-name="Subtraction 8" transform="translate(8999 13858)" fill="#fff">
          <path d="M 482.0002746582031 124 L 10.00015068054199 124 L 10.00015068054199 117.999870300293 L 10.00015068054199 115.999870300293 L 8.000150680541992 115.999870300293 L 2.000017166137695 115.999870300293 L 2.000017166137695 10.0001335144043 L 8.000150680541992 10.0001335144043 L 10.00015068054199 10.0001335144043 L 10.00015068054199 8.000133514404297 L 10.00015068054199 2 L 482.0002746582031 2 L 482.0002746582031 8.000133514404297 L 482.0002746582031 10.0001335144043 L 484.0002746582031 10.0001335144043 L 490.0002746582031 10.0001335144043 L 490.0002746582031 77.71859741210938 L 490.0002746582031 80.01000213623047 L 490.0002746582031 81.99980163574219 L 491.9900207519531 82.01000213623047 L 492.457275390625 82.01239776611328 L 492.457275390625 82.96652984619141 L 492.457275390625 84.96652984619141 L 494.457275390625 84.96652984619141 L 496.2112731933594 84.96652984619141 L 496.2112731933594 89.32766723632812 L 496.2112731933594 91.32766723632812 L 498.2112731933594 91.32766723632812 L 500.5519409179688 91.32766723632812 L 500.5519409179688 95.22899627685547 L 500.5519409179688 97.22899627685547 L 502.5519409179688 97.22899627685547 L 505.4299621582031 97.22899627685547 L 505.4299621582031 100.1151351928711 L 505.4299621582031 102.1151351928711 L 507.4299621582031 102.1151351928711 L 509.2134704589844 102.1151351928711 L 509.2134704589844 105.377197265625 L 492.0002746582031 105.377197265625 L 490.0002746582031 105.377197265625 L 490.0002746582031 107.377197265625 L 490.0002746582031 115.999870300293 L 484.0002746582031 115.999870300293 L 482.0002746582031 115.999870300293 L 482.0002746582031 117.999870300293 L 482.0002746582031 124 Z" stroke="none"/>
          <path d="M 480.0002746582031 122 L 480.0002746582031 117.999870300293 L 480.0002746582031 113.999870300293 L 484.0002746582031 113.999870300293 L 488.0002746582031 113.999870300293 L 488.0002746582031 107.377197265625 L 488.0002746582031 103.377197265625 L 492.0002746582031 103.377197265625 L 503.4299621582031 103.377197265625 L 503.4299621582031 100.1151351928711 L 503.4299621582031 99.22899627685547 L 502.5519409179688 99.22899627685547 L 498.5519409179688 99.22899627685547 L 498.5519409179688 95.22899627685547 L 498.5519409179688 93.32766723632812 L 498.2112731933594 93.32766723632812 L 494.2112731933594 93.32766723632812 L 494.2112731933594 89.32766723632812 L 494.2112731933594 86.96652984619141 L 490.457275390625 86.96652984619141 L 490.457275390625 84.00212860107422 L 488.0002746582031 83.98953247070312 L 488.0002746582031 80.01000213623047 L 488.0002746582031 77.71859741210938 L 488.0002746582031 12.0001335144043 L 484.0002746582031 12.0001335144043 L 480.0002746582031 12.0001335144043 L 480.0002746582031 8.000133514404297 L 480.0002746582031 4 L 12.00015068054199 4 L 12.00015068054199 8.000133514404297 L 12.00015068054199 12.0001335144043 L 8.000150680541992 12.0001335144043 L 4.000017166137695 12.0001335144043 L 4.000017166137695 113.999870300293 L 8.000150680541992 113.999870300293 L 12.00015068054199 113.999870300293 L 12.00015068054199 117.999870300293 L 12.00015068054199 122 L 480.0002746582031 122 M 484.0002746582031 126 L 8.000150680541992 126 L 8.000150680541992 117.999870300293 L 1.715494727250189e-05 117.999870300293 L 1.715494727250189e-05 8.000133514404297 L 8.000150680541992 8.000133514404297 L 8.000150680541992 0 L 484.0002746582031 0 L 484.0002746582031 8.000133514404297 L 492.0002746582031 8.000133514404297 L 492.0002746582031 77.71859741210938 L 492.0002746582031 80.01000213623047 L 494.457275390625 80.02259826660156 L 494.457275390625 82.96652984619141 L 498.2112731933594 82.96652984619141 L 498.2112731933594 89.32766723632812 L 502.5519409179688 89.32766723632812 L 502.5519409179688 95.22899627685547 L 507.4299621582031 95.22899627685547 L 507.4299621582031 100.1151351928711 L 511.2134704589844 100.1151351928711 L 511.2134704589844 107.377197265625 L 492.0002746582031 107.377197265625 L 492.0002746582031 117.999870300293 L 484.0002746582031 117.999870300293 L 484.0002746582031 125.9990005493164 L 484.0002746582031 126 Z" stroke="none" fill="#132941"/>
        </g>
        <path id="Path_55134" data-name="Path 55134" d="M0-28Zm10.5,0h1.75v1.75H10.5Zm1.75,1.75H14v1.75H24.5V-21H22.75v1.75H21V-21h1.75v-1.75H3.5V-21H1.75v1.75H0V-21H1.75v-3.5h10.5Zm-7,7h14v1.75h-14ZM1.75-14H24.5v1.75H15.75V-3.5H14v-8.75H10.5V-7H8.75v3.5H7v1.75H5.25V0H1.75V-1.75h3.5V-3.5H7V-7H8.75v-5.25h-7Zm21,5.25H24.5v7H15.75V-3.5h7ZM28-28Zm14,0h1.75v5.25H49v-3.5h1.75v3.5h3.5V-21H43.75v5.25H42V-21H33.25v5.25h7V-7H38.5v1.75H36.75V-7H38.5v-7H33.25v8.75H31.5V-3.5H29.75v1.75H28V-3.5h1.75V-5.25H31.5v-17.5H42Zm5.25,0H49v1.75H47.25Zm3.5,10.5H52.5V-14H50.75v3.5H49v1.75H47.25v3.5h-3.5V-3.5H42v1.75H40.25V0H38.5V-1.75h1.75V-3.5H42V-5.25h1.75V-7H45.5v-3.5H49V-14h1.75Zm-7,1.75H45.5v5.25H43.75ZM35-8.75h1.75V-7H35ZM52.5-7h1.75V0h-3.5V-1.75H52.5ZM47.25-5.25H49V-3.5H47.25ZM49-3.5h1.75v1.75H49ZM56-28Zm5.25,0H63v1.75H61.25ZM73.5-28h1.75v1.75H73.5ZM63-26.25h1.75v1.75h3.5v1.75H66.5V-21H64.75v1.75h3.5v1.75H56v-1.75h5.25V-21h3.5v-1.75h-3.5V-21H59.5v-1.75H57.75V-24.5H63Zm12.25,0H77v1.75h3.5v1.75H78.75V-21H77v1.75h5.25v1.75H70v-1.75h3.5V-21H77v-1.75H73.5V-21H71.75v-1.75H70V-24.5h5.25Zm-17.5,10.5h10.5v7H66.5v3.5h1.75V-7H70v1.75H68.25V-3.5H66.5v1.75H64.75v-7h-3.5V-3.5H59.5v1.75H57.75V0H56V-1.75h1.75V-3.5H59.5V-8.75H57.75Zm12.25,0H80.5v7H77V-3.5H75.25V-8.75H73.5V-3.5H71.75v1.75H70V0H68.25V-1.75H70V-3.5h1.75V-8.75H70ZM59.5-14v3.5h7V-14Zm12.25,0v3.5h7V-14ZM80.5-7h1.75v5.25H77V-3.5h3.5ZM84-28Zm12.25,0H98v1.75h12.25v3.5H108.5V-21h-1.75v-1.75h1.75V-24.5h-7v1.75H105V-21h-3.5v1.75H105v1.75h-3.5v1.75h7V-14h-5.25v1.75H105v1.75h-1.75v7H101.5v1.75H99.75V-3.5H94.5v1.75H92.75V0h-3.5V-1.75h3.5V-3.5H91v-7H89.25v1.75H87.5V-7H84V-8.75h3.5V-10.5h1.75v-1.75H91V-14H85.75v-1.75h7V-17.5h-3.5v-1.75h3.5V-21h-3.5v-1.75h3.5V-24.5H87.5v1.75H85.75V-21H84v-1.75h1.75v-3.5h10.5ZM94.5-24.5v1.75h5.25V-24.5Zm0,3.5v1.75h5.25V-21Zm0,3.5v1.75h5.25V-17.5ZM92.75-14v1.75h8.75V-14Zm0,3.5v1.75h8.75V-10.5Zm12.25,0h5.25v1.75H108.5V-7h-1.75V-8.75H105ZM92.75-7v1.75h8.75V-7Zm8.75,5.25H105V0h-3.5ZM112-28Zm5.25,0H119v3.5h3.5v1.75H119v3.5h5.25v-7h10.5v7H133v1.75h-1.75v-1.75H133V-24.5h-7v8.75h10.5v5.25h-1.75V-7H133v1.75h-1.75V-3.5H129.5v1.75h-1.75V0h-3.5V-7H119V0h-1.75V-7H112V-8.75h5.25v-3.5h-3.5V-14h1.75v-1.75h1.75V-14H119v-1.75h1.75V-17.5H115.5v1.75h-1.75V-17.5H112v-1.75h5.25v-3.5h-3.5V-24.5h3.5Zm12.25,7h1.75v1.75H129.5Zm-7,3.5v1.75h-1.75V-14h1.75v1.75H119v3.5h5.25V-17.5ZM126-14V-1.75h1.75V-3.5h1.75V-5.25h1.75V-7H133v-3.5h1.75V-14H129.5v5.25h-1.75V-14Zm3.5,5.25h1.75V-7H129.5Zm3.5,3.5h1.75V-3.5H133Zm1.75,1.75h3.5v1.75H136.5V0h-1.75ZM140-28Zm10.5,0h1.75v3.5H161V-21h-1.75v1.75H157.5v1.75h-1.75v1.75H154V-14h-1.75v1.75h10.5V0H161V-1.75H150.5V0h-1.75V-10.5h-3.5v1.75H140V-10.5h5.25v-1.75h3.5V-14h3.5v-1.75H154V-17.5h1.75v-1.75h1.75V-21h1.75v-1.75H150.5v3.5H147v1.75h-1.75v1.75H143.5V-17.5h1.75v-1.75H147V-21h1.75v-3.5h1.75Zm0,8.75h1.75v3.5H150.5Zm0,8.75v7H161v-7Zm31.472-1.512a1.694,1.694,0,0,0-1.316.476,1.625,1.625,0,0,0-.5,1.26,1.666,1.666,0,0,0,.476,1.232,1.628,1.628,0,0,0,1.2.5,1.5,1.5,0,0,0,.616-.112,3.3,3.3,0,0,1-.588,1.876,4.049,4.049,0,0,1-1.792,1.232v1.372a5.4,5.4,0,0,0,2.884-1.82,5.247,5.247,0,0,0,1.092-3.276,3.253,3.253,0,0,0-.56-1.96A1.788,1.788,0,0,0,181.972-12.012ZM196-28Zm1.75,1.75h10.5V-14H199.5v8.75h1.75V-7H203V-8.75h1.75V-10.5h1.75v1.75h-1.75V-7H203v1.75h-1.75V-3.5h-3.5Zm14,0h8.75v17.5h-1.75V-7H217V-8.75h1.75V-24.5H213.5V0h-1.75ZM199.5-24.5V-21h7v-3.5Zm0,5.25v3.5h7v-3.5Zm3.5,7h1.75v1.75H203Zm12.25,1.75H217v1.75h-1.75ZM206.5-8.75h1.75v3.5H206.5ZM224-28Zm1.75,1.75h24.5v1.75H245V-1.75h-1.75V0H241.5V-1.75h1.75V-24.5h-17.5ZM231-21h8.75V-7H238V-8.75h-5.25V-7H231Zm1.75,1.75v8.75H238v-8.75Zm7,15.75h1.75v1.75h-1.75ZM252-28Zm14,0h1.75v1.75H273V-28h1.75v1.75h3.5v1.75h-3.5v1.75H273V-24.5h-5.25v1.75H266V-21h3.5v-1.75h1.75V-21h5.25v1.75h-5.25v1.75h5.25v1.75h-5.25V-14h5.25v1.75h-5.25v1.75h5.25v1.75H264.25v-10.5H262.5v1.75h-1.75v14H259v1.75h-1.75V0H255.5V-1.75h1.75V-3.5H259v-8.75h-1.75v1.75H255.5v1.75h-1.75V-7H252V-8.75h1.75V-10.5h1.75v-1.75h1.75V-14H259v-7h1.75v1.75h1.75V-21h1.75v-1.75H266V-24.5h-5.25v1.75H259V-21h-1.75v1.75H255.5v1.75h-1.75v1.75H252V-17.5h1.75v-1.75h1.75V-21h1.75v-1.75H259V-24.5h1.75v-1.75H266Zm-12.25,1.75h1.75v1.75h-1.75Zm1.75,1.75h1.75v1.75H255.5ZM266-19.25v1.75h3.5v-1.75Zm0,3.5V-14h3.5v-1.75Zm0,3.5v1.75h3.5v-1.75ZM264.25-7H276.5v1.75h-1.75V-3.5H273v1.75h-5.25V0H262.5V-1.75h5.25V-3.5H273V-5.25h-5.25V-3.5H266V-5.25h-1.75Zm-10.5,3.5h1.75v1.75h-1.75ZM273-1.75h5.25V0H273ZM280-28Zm7,0h1.75v3.5H287v1.75h-1.75V-21H283.5v1.75h-1.75v1.75H280v-1.75h1.75V-21h1.75v-1.75h1.75V-24.5H287Zm3.5,1.75h12.25v8.75H290.5Zm1.75,1.75v1.75H301V-24.5Zm0,3.5v1.75H301V-21ZM287-19.25h1.75v3.5H287v5.25h12.25V-14h-10.5v-1.75H304.5V-14H301v3.5h5.25v1.75H301v7h-1.75V0H297.5V-1.75h1.75v-7h-7V-7H290.5V-8.75H287V0h-1.75V-12.25H283.5v1.75h-1.75v1.75H280V-10.5h1.75v-1.75h1.75V-14h1.75v-1.75H287ZM292.25-7H294v3.5h-1.75Zm3.5,3.5h1.75v1.75h-1.75ZM0,14Zm1.75,3.5H24.5v1.75H14v17.5H26.25V38.5H0V36.75H12.25V19.25H1.75ZM28,14Zm10.5,0h1.75v1.75H38.5Zm1.75,1.75H42V17.5H52.5v1.75H47.25V21H45.5v1.75h5.25v17.5H49V42H47.25V40.25H49V31.5H47.25V29.75H49V24.5H33.25v5.25H35V28h1.75V26.25H38.5V28H36.75v1.75H35V31.5H33.25V42H31.5V22.75h5.25V21H38.5v1.75h5.25V21H45.5V19.25H36.75V21H35V19.25H29.75V17.5h10.5Zm3.5,10.5H45.5V28H43.75ZM45.5,28h1.75v1.75H45.5v7H36.75v-7H45.5Zm-7,3.5V35h5.25V31.5Zm7,7h1.75v1.75H45.5ZM56,14Zm17.5,0h1.75v3.5H80.5v1.75H75.25v3.5h7V24.5h-3.5V28h3.5v1.75h-3.5v10.5H77V42H75.25V40.25H77V29.75H66.5v7H64.75V35H59.5v1.75H57.75V17.5H66.5V28H77V24.5H68.25V22.75H73.5v-3.5H70V17.5h3.5Zm-14,5.25V24.5h5.25V19.25Zm0,7v7h5.25v-7ZM70,31.5h1.75v1.75H70Zm1.75,1.75H73.5v3.5H71.75ZM73.5,38.5h1.75v1.75H73.5ZM84,14Zm5.25,0H91v3.5h3.5v1.75H91v3.5h5.25v-7h10.5v7H105V24.5h-1.75V22.75H105V17.5H98v8.75h10.5V31.5h-1.75V35H105v1.75h-1.75V38.5H101.5v1.75H99.75V42h-3.5V35H91v7H89.25V35H84V33.25h5.25v-3.5h-3.5V28H87.5V26.25h1.75V28H91V26.25h1.75V24.5H87.5v1.75H85.75V24.5H84V22.75h5.25v-3.5h-3.5V17.5h3.5Zm12.25,7h1.75v1.75H101.5Zm-7,3.5v1.75H92.75V28H94.5v1.75H91v3.5h5.25V24.5ZM98,28V40.25h1.75V38.5h1.75V36.75h1.75V35H105V31.5h1.75V28H101.5v5.25H99.75V28Zm3.5,5.25h1.75V35H101.5Zm3.5,3.5h1.75V38.5H105Zm1.75,1.75h3.5v1.75H108.5V42h-1.75ZM112,14Zm10.5,0h1.75v1.75H122.5Zm1.75,1.75H126V17.5h12.25V21H136.5v1.75h-1.75V21h1.75V19.25h-21V21h-1.75v1.75H112V21h1.75V17.5h10.5Zm-7,7h14v7H119v3.5h14v7H119V42h-1.75ZM119,24.5V28h10.5V24.5ZM119,35v3.5h12.25V35Zm21-21Zm5.25,0H147v3.5h-1.75V21H143.5v1.75h5.25v-3.5h1.75v3.5h-1.75V24.5H147v1.75h-1.75V28H143.5v1.75H147V28h1.75v1.75h1.75v3.5h-1.75V31.5H143.5v1.75h-1.75V31.5H140V29.75h1.75V28h1.75V26.25h1.75V24.5H140V22.75h1.75V21h1.75V17.5h1.75Zm7,1.75h14v24.5H164.5V42h-1.75V40.25h1.75V29.75h-7v3.5h5.25V35h-7V29.75H154V42h-1.75ZM154,17.5v5.25h3.5V21H161V19.25h1.75V21H161v1.75h3.5V17.5Zm1.75,1.75h1.75V21h-1.75ZM154,24.5V28h5.25V26.25H161V28h3.5V24.5h-5.25v1.75H157.5V24.5ZM141.75,35h1.75v3.5h-1.75v1.75H140V38.5h1.75Zm3.5,0H147v5.25h-1.75Zm3.5,0h1.75v5.25h-1.75ZM161,38.5h1.75v1.75H161ZM168,14Zm12.25,0H182v1.75h-1.75V17.5H178.5v1.75h5.25V17.5h3.5v1.75H185.5V21h-8.75V19.25H175V21h-3.5v1.75H168V21h3.5V19.25H175V17.5h3.5V15.75h1.75ZM182,15.75h1.75V17.5H182Zm5.25,3.5h3.5V21h-3.5Zm3.5,1.75h3.5v1.75h-3.5v7H171.5v-7h19.25Zm-17.5,3.5V28h3.5V26.25h1.75V28h1.75V24.5h-3.5v1.75H175V24.5Zm8.75,0V28h1.75V26.25h1.75V24.5Zm5.25,0v1.75H185.5V28H189V24.5Zm-14,7H189V42h-1.75V40.25H175V42h-1.75ZM175,33.25V35h12.25V33.25Zm0,3.5V38.5h12.25V36.75ZM196,14Zm5.25,1.75H217v7H201.25ZM203,17.5V21h12.25V17.5Zm-3.5,7h19.25V36.75h-3.5V38.5H213.5V36.75h-7V38.5h-1.75v1.75h-3.5V42h-3.5V40.25h3.5V38.5h3.5V36.75H199.5Zm1.75,1.75V28H217V26.25Zm0,3.5V31.5H217V29.75Zm0,3.5V35H217V33.25Zm14,5.25h3.5v1.75h-3.5Zm3.5,1.75h1.75V42h-1.75ZM224,14Zm1.75,1.75H248.5V17.5H238v8.75h8.75V28H238V38.5h12.25v1.75H224V38.5h5.25v-14H231v14h5.25v-21h-10.5ZM252,14Zm14,0h1.75v7h10.5v1.75h-10.5v7H266v-7H252V21h14Zm3.5,1.75h1.75V17.5H269.5Zm1.75,1.75H273v1.75h-1.75ZM255.5,26.25h8.75V28h-3.5v7H266v1.75h-5.25V38.5h-3.5v1.75H255.5V38.5h-1.75V36.75H259V28h-3.5Zm12.25,3.5h1.75v3.5h-1.75Zm1.75,3.5h1.75v3.5H269.5Zm5.25,0h1.75V42h-1.75V40.25H273V38.5h1.75Zm-3.5,3.5H273V38.5h-1.75ZM280,14Zm7,0h1.75v8.75h1.75V24.5h-7V28h5.25V38.5h1.75V35h1.75V17.5h5.25V15.75H301V14h1.75v1.75h1.75V17.5h-7v1.75H294v3.5h10.5v7h-1.75v3.5H301V35h-1.75v1.75H297.5V38.5h-1.75v1.75H294V42h-1.75V40.25H294V38.5h1.75V36.75h1.75V35h1.75V33.25H301v-3.5h1.75V24.5H297.5v5.25h-1.75V24.5H294V35h-1.75v3.5H290.5v1.75h-1.75V42H287V29.75h-3.5v10.5h-1.75V42H280V40.25h1.75V15.75h1.75v7H287Zm10.5,15.75h1.75v3.5H297.5ZM301,35h1.75v3.5H301Zm1.75,3.5h3.5v1.75H304.5V42h-1.75ZM331.8,18.844a23.664,23.664,0,0,0-2.884,5.768,22.29,22.29,0,0,0,0,14.616A24.7,24.7,0,0,0,331.8,45h1.96a28.367,28.367,0,0,1-2.66-5.8,22.125,22.125,0,0,1,0-14.56,27.061,27.061,0,0,1,2.66-5.8ZM336,14Zm1.75,3.5H360.5v1.75H337.75Zm1.75,8.75h19.25V28H339.5ZM336,36.75h26.25V38.5H336ZM364,14Zm5.25,0H371v5.25h-1.75V42H367.5V24.5h-1.75v1.75H364V24.5h1.75V22.75h1.75v-3.5h1.75Zm3.5,1.75H388.5v24.5h-1.75V38.5H374.5v1.75h-1.75Zm1.75,1.75V21h5.25V17.5Zm7,0V21h5.25V17.5Zm-7,5.25v14h12.25v-14H381.5v3.5H385V35h-1.75V33.25H378V35h-1.75V26.25h3.5v-3.5ZM378,28v3.5h5.25V28Zm14-14Zm7,1.75h14v24.5h-1.75V42H409.5V40.25h1.75V31.5h-10.5V35H399v3.5h-1.75v1.75H395.5V42h-1.75V40.25h1.75V38.5h1.75V35H399Zm1.75,1.75v5.25h10.5V17.5Zm0,7v5.25h10.5V24.5Zm7,14h1.75v1.75h-1.75Zm14.49-19.656a28.5,28.5,0,0,1,2.66,5.8,23.105,23.105,0,0,1,1.232,7.28A23.238,23.238,0,0,1,424.9,39.2a29.95,29.95,0,0,1-2.66,5.8h1.96a27.1,27.1,0,0,0,2.884-5.768,22.29,22.29,0,0,0,0-14.616,25.847,25.847,0,0,0-2.884-5.768Z" transform="translate(9028 13912)" fill="#15172a"/>
        <path id="Path_55133" data-name="Path 55133" d="M331.8,18.844a23.664,23.664,0,0,0-2.884,5.768,22.29,22.29,0,0,0,0,14.616A24.7,24.7,0,0,0,331.8,45h1.96a28.367,28.367,0,0,1-2.66-5.8,22.125,22.125,0,0,1,0-14.56,27.061,27.061,0,0,1,2.66-5.8ZM336,14Zm1.75,3.5H360.5v1.75H337.75Zm1.75,8.75h19.25V28H339.5ZM336,36.75h26.25V38.5H336ZM364,14Zm5.25,0H371v5.25h-1.75V42H367.5V24.5h-1.75v1.75H364V24.5h1.75V22.75h1.75v-3.5h1.75Zm3.5,1.75H388.5v24.5h-1.75V38.5H374.5v1.75h-1.75Zm1.75,1.75V21h5.25V17.5Zm7,0V21h5.25V17.5Zm-7,5.25v14h12.25v-14H381.5v3.5H385V35h-1.75V33.25H378V35h-1.75V26.25h3.5v-3.5ZM378,28v3.5h5.25V28Zm14-14Zm7,1.75h14v24.5h-1.75V42H409.5V40.25h1.75V31.5h-10.5V35H399v3.5h-1.75v1.75H395.5V42h-1.75V40.25h1.75V38.5h1.75V35H399Zm1.75,1.75v5.25h10.5V17.5Zm0,7v5.25h10.5V24.5Zm7,14h1.75v1.75h-1.75Zm14.49-19.656a28.5,28.5,0,0,1,2.66,5.8,23.105,23.105,0,0,1,1.232,7.28A23.238,23.238,0,0,1,424.9,39.2a29.95,29.95,0,0,1-2.66,5.8h1.96a27.1,27.1,0,0,0,2.884-5.768,22.29,22.29,0,0,0,0-14.616,25.847,25.847,0,0,0-2.884-5.768Z" transform="translate(9028 13912)" fill="#bb3d3d"/>
        <g id="rank-1" transform="translate(8688 12309)">
          <g id="Group_38535" data-name="Group 38535" transform="translate(798 1576)">
            <g id="Group_38425" data-name="Group 38425" transform="translate(0 0)">
              <path id="Path_50320" data-name="Path 50320" d="M-1158.08,2172.6v19.591h6.784v7.242h8.686v6.011h44.775v-6.011h7.235v-7.242h6.035v-27.409h6.668V2146h-79.223Z" transform="translate(1193.064 -2098.759)" fill="#edd5c2"/>
              <path id="Path_50318" data-name="Path 50318" d="M-1158.344,2131.05h5.965v6.695h62.14v7.031h7.414v13.054h-7.414v-5.946h-7.594v-6.154h-33.942v6.154h-20.6v19.993h-5.965v6.938h-6.951v-6.938h-7.678v-19.993h7.678v5.946h6.951V2131.05Z" transform="translate(1193.671 -2098.077)" fill="#53140d"/>
              <rect id="Rectangle_25451" data-name="Rectangle 25451" width="6.715" height="13.362" transform="translate(48.49 53.923)" fill="#0b122f"/>
              <rect id="Rectangle_25452" data-name="Rectangle 25452" width="6.715" height="13.362" transform="translate(88.778 53.923)" fill="#0b122f"/>
              <path id="Path_50319" data-name="Path 50319" d="M-1137,2167v14.149h6.988v4.837h25.843V2167Z" transform="translate(1192.205 -2099.715)" fill="#fff"/>
              <path id="Path_50321" data-name="Path 50321" d="M-1073.819,2167v7.3h16.783v7.39h-8.089v9h-15.854V2167Z" transform="translate(1188.962 -2101.624)" fill="#53140d"/>
              <path id="Path_50322" data-name="Path 50322" d="M-1179.366,2186.892v7.707h-15.185v7.531h8.408v7.084h11.173v5.7h15.089v6.338h6.638v-12.038h-6.638v-7.084h-15.089v-15.238Z" transform="translate(1194.551 -2100.621)" fill="#edd5c2"/>
              <path id="Path_50323" data-name="Path 50323" d="M-1080.979,2214.2h19.717v-6.651h12.316v-6.655h9.3v-7.078h-14.69v-6.088h-6.928v13.167h-19.717Z" transform="translate(1189.921 -2093.978)" fill="#edd5c2"/>
              <path id="Path_50326" data-name="Path 50326" d="M-1137.3,2251.5v32.145h-7.144v7.921h20.262V2257.9h14.409v6.47h6.452v27.192h12.7v-27.192h-5.225V2251.5Z" transform="translate(1192.508 -2103.565)" fill="#28284c"/>
              <path id="Path_50324" data-name="Path 50324" d="M-1151.215,2208.281v13.851h13.251v27.4h41.2v-27.4h14.514v-13.851Z" transform="translate(1192.784 -2101.595)" fill="#d3e8ff"/>
              <path id="Path_50325" data-name="Path 50325" d="M-1116.268,2215.463v7.887h-6.295v12.055h6.295v-6.234h6.068v-13.709Z" transform="translate(1191.616 -2101.923)" fill="#00bcd1"/>
              <g id="Group_38423" data-name="Group 38423" transform="translate(34.984)">
                <rect id="Rectangle_20960" data-name="Rectangle 20960" width="28.977" height="3.604" transform="translate(3.622 28.832)" fill="#d99a36"/>
                <rect id="Rectangle_20961" data-name="Rectangle 20961" width="28.977" height="3.604" transform="translate(3.622 21.624)" fill="#d99a36"/>
                <rect id="Rectangle_20962" data-name="Rectangle 20962" width="3.622" height="7.208" transform="translate(0 32.436)" fill="#e8bc48"/>
                <rect id="Rectangle_20963" data-name="Rectangle 20963" width="21.732" height="7.208" transform="translate(10.866 32.436)" fill="#e8bc48"/>
                <rect id="Rectangle_20964" data-name="Rectangle 20964" width="32.599" height="3.604" transform="translate(32.599 28.832)" fill="#e8bc48"/>
                <rect id="Rectangle_20965" data-name="Rectangle 20965" width="21.732" height="3.604" transform="translate(10.866 25.228)" fill="#e8bc48"/>
                <rect id="Rectangle_20966" data-name="Rectangle 20966" width="3.622" height="3.604" transform="translate(0 25.228)" fill="#e8bc48"/>
                <rect id="Rectangle_20967" data-name="Rectangle 20967" width="32.599" height="3.604" transform="translate(32.599 21.624)" fill="#e8bc48"/>
                <rect id="Rectangle_20968" data-name="Rectangle 20968" width="3.622" height="21.624" transform="translate(0 0)" fill="#e8bc48"/>
                <path id="Path_50173" data-name="Path 50173" d="M359.31,206.859h-3.622v3.6h-3.622v3.6h-3.622v7.208H341.2v-7.208h-3.622v10.812H359.31Z" transform="translate(-326.711 -203.255)" fill="#e8bc48"/>
                <rect id="Rectangle_20969" data-name="Rectangle 20969" width="14.488" height="7.208" transform="translate(54.331 32.436)" fill="#fff268"/>
                <rect id="Rectangle_20970" data-name="Rectangle 20970" width="18.11" height="7.208" transform="translate(32.599 32.436)" fill="#fff268"/>
                <rect id="Rectangle_20971" data-name="Rectangle 20971" width="7.244" height="7.208" transform="translate(3.622 32.436)" fill="#fff268"/>
                <rect id="Rectangle_20972" data-name="Rectangle 20972" width="14.488" height="3.604" transform="translate(54.331 25.228)" fill="#fff268"/>
                <rect id="Rectangle_20973" data-name="Rectangle 20973" width="18.11" height="3.604" transform="translate(32.599 25.228)" fill="#fff268"/>
                <rect id="Rectangle_20974" data-name="Rectangle 20974" width="7.244" height="3.604" transform="translate(3.622 25.228)" fill="#fff268"/>
                <path id="Path_50174" data-name="Path 50174" d="M422.373,222.624V201h-3.622v3.6h-3.622v3.6h-3.622v3.6h-3.622v10.812Z" transform="translate(-353.554 -201)" fill="#fff268"/>
                <path id="Path_50175" data-name="Path 50175" d="M390.841,222.624v-3.6h-3.622v-7.208H383.6v-3.6h-3.622v-3.6h-3.622V201h-3.622v21.624Z" transform="translate(-340.132 -201)" fill="#fff268"/>
                <path id="Path_50176" data-name="Path 50176" d="M333.1,224.879V210.463h-3.622v-3.6h-3.622v18.02Z" transform="translate(-322.237 -203.255)" fill="#fff268"/>
                <rect id="Rectangle_20975" data-name="Rectangle 20975" width="3.622" height="7.208" transform="translate(50.709 32.436)" fill="#caff94"/>
                <rect id="Rectangle_20976" data-name="Rectangle 20976" width="3.622" height="3.604" transform="translate(50.709 25.228)" fill="#caff94"/>
                <rect id="Rectangle_20977" data-name="Rectangle 20977" width="3.622" height="3.604" transform="translate(50.709 18.02)" fill="#caff94"/>
              </g>
            </g>
          </g>
        </g>
      </g>
    </g>
    <g id="logo" transform="translate(10345.662 13509.99)">
      <path id="Union_97" data-name="Union 97" d="M-11532.083-13507.22a6.934,6.934,0,0,1-2.965-1.922,6.209,6.209,0,0,1-1.54-3.525,4.926,4.926,0,0,1,1.1-4.4c1.026-1.026,2.645-1.537,5.008-1.537a11.71,11.71,0,0,1,4.764.881,9.3,9.3,0,0,1,3.5,2.707c-1.312.23-2.642.466-3.978.7a3.85,3.85,0,0,0-.69-.769,4.055,4.055,0,0,0-1.166-.629,4.164,4.164,0,0,0-1.347-.221,2.33,2.33,0,0,0-2.176.976,3.241,3.241,0,0,0-.163,2.271,4.2,4.2,0,0,0,1.183,2.628,3.63,3.63,0,0,0,2.347.711,3.1,3.1,0,0,0,2.08-.574,2.451,2.451,0,0,0,.769-1.67q2.234.475,4.481.945a3.9,3.9,0,0,1-1.04,2.2,5.4,5.4,0,0,1-2.248,1.33,11.99,11.99,0,0,1-3.573.445A14.4,14.4,0,0,1-11532.083-13507.22Zm-16.66.35q-1.5-2.372-3.051-4.743c-.87.643-1.765,1.285-2.676,1.928q-.127,1.408-.3,2.815h-5.021c.541-3.846.948-7.69,1.118-11.536h4.55q.041,2.183-.055,4.362c1.728-1.452,3.353-2.907,4.821-4.362h6.053c-1.554,1.452-3.292,2.9-5.155,4.355,2,2.394,3.989,4.787,5.9,7.181Zm-27.823,0c-.344-2.421-.605-4.842-.745-7.263-1.666,2.421-3.332,4.842-4.94,7.263h-4.927a54.662,54.662,0,0,1,.959-11.536h4.321c-.387,2.155-.659,4.308-.833,6.457,1.541-2.149,3.111-4.3,4.669-6.457h4.3c.092,2.152.271,4.3.52,6.45,1.122-2.149,2.241-4.3,3.319-6.45h4.3c-1.863,3.846-3.951,7.69-6.021,11.536Zm-32.509,0a52.248,52.248,0,0,1,4.662-8.687h-4.8c.673-.948,1.395-1.9,2.155-2.849h13.832q-.877,1.428-1.67,2.849h-4.8a56.724,56.724,0,0,0-4.349,8.688Zm28.275-15.531h-15.687l0-.123c-.021-.747-.041-1.591-.055-2.342l0-.126h14.028l.64-2.125h-14.692l1.778-4.492h14.25l.234-.792h-14.171l.769-1.937h18.809l-.037.152q-.413,1.6-.836,3.2a1.847,1.847,0,0,1-.729.922,2.682,2.682,0,0,1-1.128.315h-13.815l-.292.789h15.43l-.041.156c-.316,1.193-.914,3.363-1.081,3.965h23.79c.36-1.237,1-3.444,1.017-3.52.956-3.794,2.826-10.976,3.125-12.121h-1.561l.01-.133c.045-.734.089-1.472.13-2.206l0-.119h3.332c.031-1.278.052-2.561.059-3.812v-.122h2.41v.122c.017,1.313.023,2.594.017,3.812h2.894l0,.122q.025,1.107.034,2.21l0,.126h-2.1c.432,2.795.823,5.471,1.224,8.392.242-.269.477-.544.694-.816a11.121,11.121,0,0,0,1.462-2.839h-.612v-.122c0-.911.048-1.737.092-2.537.058-1.03.109-2.006.082-3.145l0-.126h6.61l.01.115a16.355,16.355,0,0,1,.023,1.81c-.01.493-.023,1,.014,1.611a2.781,2.781,0,0,1-2.7,2.391l-.04,0h-.551c-.072.241-.194.64-.367,1.119h2.723l-.03-.892h3.251l.006.116c.014.258.031.517.045.775h5.086l.007.111c.062.623.116,1.245.167,1.87l.01.133h-5.164l.007.075c.014.3.027.605.037.907h4.94l.007.116c.048.625.088,1.248.129,1.87l.011.133h-5.016c.011.329.021.655.027.985h5.046l.007.116c.034.625.067,1.247.1,1.87l0,.132h-5.117c0,.354.011.708.011,1.062h6.056l.007.118c.037.867.071,1.728.095,2.592l.007.129h-16.811l.007-.133c.15-2.221.269-4.41.354-6.515-1.071.915-2,1.6-2.282,1.795l.024.8-.215-.666-.047.034-.011-.211-.021-.071.018-.014-.007-.218c-.167-1.826-.347-3.665-.534-5.488-.231,4.243-.721,10.5-.728,10.567l-.007.116h-2.856l.011-.133,1.189-15.848-2.8,11.346-1.051,4.635-29.149.01Zm41.536-2.839h3.75c0-.354.01-.708.01-1.062h-3.72Q-11539.244-13525.766-11539.264-13525.24Zm.115-4.04c0,.286-.011.571-.017.86h3.668c0-.33,0-.656-.007-.985h-3.642Zm.034-2.244h3.587c-.007-.326-.014-.652-.021-.982h-3.56C-11539.107-13532.177-11539.111-13531.851-11539.114-13531.524Zm.112-7.238a2.979,2.979,0,0,0-.085.659h1.516a.238.238,0,0,0,.174-.184,2.294,2.294,0,0,1,.078-.68,2.021,2.021,0,0,0,.075-.521h-1.67A3.678,3.678,0,0,1-11539-13538.763Zm-71.773,16.361h-21.886l.112-.187c.143-.241.285-.466.428-.689s.269-.422.405-.643c2.125-3.529,4.4-7.212,6.766-10.942l.038-.058h22.331l-.081.177c-1.561,3.339-2.958,6.362-4.271,9.225h4.753c.156,0,.354-.193.534-.53l3.729-8.218h3.353l-.078.173q-2.168,4.815-4.362,9.626a4.4,4.4,0,0,1-3.485,2.067l-8.279.01Zm-15.313-3.244h14.06a.778.778,0,0,0,.788-.435h0q1.356-2.791,2.733-5.58h-14.046C-11623.764-13529.616-11624.953-13527.6-11626.089-13525.646Zm102.373,3.244-.007-.119c-.047-1-.1-2.02-.18-3.224l-.007-.132h9.214c-.251-2.051-.544-4.094-.87-6.08h-7.851l-.011-.112c-.108-1-.225-2-.347-2.965l-.017-.139h7.667c-.381-2.058-.806-4.118-1.265-6.127h-7.6l-.018-.105c-.163-1-.336-2-.51-2.965l-.027-.146h19.122l.031.081c.333.945.676,1.945,1.017,2.972l.054.164h-7.779c.523,2,1.021,4.063,1.466,6.127h7.4l.023.092c.262.958.523,1.958.775,2.972l.041.152h-7.576c.388,1.986.741,4.033,1.051,6.08h9.408l.021.1c.248,1.176.452,2.158.652,3.229l.027.146Zm-63.068-12.377h-.173l.058-.163c.438-1.274.881-2.546,1.315-3.821l.027-.085h5.386l-.048.159q-.407,1.348-.815,2.693a2.015,2.015,0,0,1-.622.891,1.853,1.853,0,0,1-.936.326Zm2.421-1.509h1.4l.044-.14c.105-.34.215-.674.32-1.014h-1.384Zm5.583.972a2.729,2.729,0,0,0-2.067.381l-.03.018-.207,0,.051-.159c.149-.5.3-1,.448-1.489l.065-.225.023-.024a2.74,2.74,0,0,1,2.513-.388c.278.086.585.211.854.32a4.612,4.612,0,0,0,.625.228,1.763,1.763,0,0,0,1.136-.177c.153-.092.527-.4.643-.489l.068-.269c-.048.047-.092.095-.14.143l-.034.037h-5.021l.422-1.428.047-.024c.5-.244,1-.485,1.5-.73h-1.822l.265-.221c1.167-.959,2.306-1.918,3.387-2.847l.034-.03h2.941l-.272.221c-.629.5-1.262,1.01-1.9,1.514h2.248l-.31.224c-.833.609-1.7,1.234-2.581,1.856h2.462l-.2.211q-.475.505-.959,1.01l.1.367a.09.09,0,0,1-.011.065h.011c-.153.615-.313,1.23-.47,1.846l-.014.048-.041.027a3.622,3.622,0,0,1-1.265.482,2.846,2.846,0,0,1-.343.021A5.844,5.844,0,0,1-11578.78-13535.315Zm-12.111,0a2.86,2.86,0,0,0-2.1.381l-.03.018-.218,0,.762-1.9a2.839,2.839,0,0,1,2.543-.385c.269.086.564.211.823.32a4.346,4.346,0,0,0,.6.228,1.84,1.84,0,0,0,1.156-.177c.2-.112.721-.514.728-.521l.33-.251-.786,2.237-.007,0a3.155,3.155,0,0,1-1.35.551,2.948,2.948,0,0,1-.347.021A5.526,5.526,0,0,1-11590.892-13535.315Zm-5.7.307c-.646-1.966-1.221-3.931-1.714-5.838l-.041-.153h3.284l.024.088c.421,1.415.894,2.88,1.407,4.362l.037.1-.095.048q-1.352.729-2.727,1.458l-.133.071Zm62.5-.728,0-.119c-.041-.857-.048-1.632-.051-2.384,0-1.026-.01-2-.1-3.139l-.011-.132h6.7l.013.105a17.432,17.432,0,0,1,.13,1.781c.017.473.034.959.1,1.544a2.583,2.583,0,0,1-2.567,2.339l-.062,0Zm2.41-2.952a3.3,3.3,0,0,0-.037.644h1.523a.206.206,0,0,0,.156-.171,2.306,2.306,0,0,1,.034-.656,2.067,2.067,0,0,0,.033-.506h-1.669A3.419,3.419,0,0,1-11531.679-13538.688Zm-93.652,2.473.126-.19c.555-.857,1.112-1.718,1.67-2.57l.04-.038c4.026-2.465,7.854-4.882,11.381-7.191l.03-.02h5.271l-.33.224c-3.23,2.207-6.705,4.5-10.333,6.814h11.992a.825.825,0,0,0,.643-.316.329.329,0,0,0,.085-.262c-.418-1.01-.819-2.044-1.19-3.057l-.058-.167h4.913l.027.085c.415,1.255.877,2.537,1.37,3.809v.007a1.649,1.649,0,0,1-.3,1.513,3.611,3.611,0,0,1-2.89,1.36Zm33.161-1.19.562-1.432.044-.021c.527-.244,1.051-.489,1.571-.73h-1.823l.293-.221c1.268-.966,2.506-1.929,3.676-2.85l.033-.027h2.962l-.3.225c-.681.5-1.364,1.006-2.058,1.51h2.251l-.337.224c-.9.616-1.829,1.238-2.764,1.856h2.458l-.221.215c-.426.408-.851.813-1.282,1.217l-.034.034Zm6.763-1.863.493-1.435h5.294l-.428,1.435Zm-8.259-.7c-.581-1.87-1.1-3.739-1.543-5.559l-.034-.153h3.2l.026.1c.341,1.339.718,2.689,1.119,4.012l.027.092-.078.048q-1.26.771-2.537,1.533l-.136.082Zm8.871-1.084.489-1.436h5.216l-.425,1.436Zm45.1-1.023-.03-.078q-.943-2.281-1.884-4.56a.711.711,0,0,1-.7-.629.579.579,0,0,1,.16-.433.71.71,0,0,1,.514-.21.724.724,0,0,1,.734.625.56.56,0,0,1-.279.527c.851.744,1.751,1.517,2.737,2.353.037-.625.075-1.268.105-1.921a.715.715,0,0,1-.626-.615.58.58,0,0,1,.153-.436.682.682,0,0,1,.5-.211.744.744,0,0,1,.755.626.524.524,0,0,1-.136.411c.581.7,1.166,1.4,1.755,2.1.248-.639.489-1.295.721-1.955a.689.689,0,0,1-.422-.537.547.547,0,0,1,.136-.435.668.668,0,0,1,.5-.215.774.774,0,0,1,.771.619.546.546,0,0,1-.221.514l1.2,2.013c.441-.677.863-1.356,1.265-2.02a.69.69,0,0,1-.326-.47.541.541,0,0,1,.125-.441.643.643,0,0,1,.5-.215.8.8,0,0,1,.785.616.541.541,0,0,1-.354.595c.18.659.357,1.319.527,1.982.73-.755,1.387-1.456,2-2.132a.727.727,0,0,1-.252-.4.532.532,0,0,1,.112-.445.635.635,0,0,1,.493-.215.812.812,0,0,1,.8.612.524.524,0,0,1-.105.442.628.628,0,0,1-.473.214c-.237,1.391-.523,2.812-.854,4.223l-.021.1Zm-50.586-1.037.819-2.088h7.072l.333-1.02h3.077l-.307,1.02h7.794l-.034.149c-.144.615-.282,1.228-.426,1.843l-.023.1Z" transform="translate(11760 13912.947)" fill="#15172a" stroke="rgba(0,0,0,0)" stroke-width="1"/>
      <g id="Group_38377" data-name="Group 38377" transform="translate(186.772 354.01)">
        <path id="Path_50235" data-name="Path 50235" d="M301.611,374.434a5.466,5.466,0,0,0-2.342-1.878,1.273,1.273,0,0,1,.21-.5,3.04,3.04,0,0,0,.641-.848c.278-.442.706-2.133.8-2.28s-.563-.913-.553-1.212a2.955,2.955,0,0,1,.682-1.326c.3-.32.278-.5.079-.745a4.368,4.368,0,0,0-1.3-.754c-.291-.1-.757-.233-.757-.233s-.6-.643-.741-.828a.637.637,0,0,0-.435-.192,8.361,8.361,0,0,0-1.376-.066.978.978,0,0,0-.124-.019,4.826,4.826,0,0,0-.956.63,4.181,4.181,0,0,1-.543.521,18.74,18.74,0,0,1-2.176,1.194,3.889,3.889,0,0,0-1.664,1.716c-.186.354-.948,1.35-1.254,1.818-.042.064-.086.144-.131.233l-1.1-3.313.2-1.679c.135-.055.224-.123.227-.2.011-.272.036-.8.057-1.218a1.864,1.864,0,0,0,.672-.134l.008-.005c.49-.1,1.027-.7,1.25-1.8.384-1.882-.274-3.347-2.911-3.459-.092,0-.175,0-.262,0l-.044,0c-3.045-.128-3.243,1.511-3.283,2.459a1.42,1.42,0,0,0,.613,1.158,1.612,1.612,0,0,0,1.065,1.45c-.022.447-.057,1.169-.07,1.427a.265.265,0,0,0,.122.223l.017,2.554,2.608,4.377c-.021.039-.043.083-.064.117-.307.5-2.185,3.614-2.395,3.816a3.347,3.347,0,0,0-.571,1.509c-.074.565-.017,2.688-.052,2.957a1.734,1.734,0,0,1-.345.8c-.174.223.276.637.475.851s.589,1.032.9,1.462a2.463,2.463,0,0,1,.409,1.118,6.148,6.148,0,0,0,.841,1.457,2.547,2.547,0,0,1,.612.168,27.32,27.32,0,0,1,2.017,2.133,2.143,2.143,0,0,1,.373,1.267c.049.419.644,1.357.734,1.128s.262.038.433.281c.089.132.19.17.27.139a.916.916,0,0,0,.8-.334c.094-.235.261.036.431.281s.378.19.414-.107.084-.926.089-1.105a12.922,12.922,0,0,0-.187-1.74,15.074,15.074,0,0,1,.922-3.244c.184-.232,1.478-1.6,1.516-1.775a1.4,1.4,0,0,1,.379-.635,2.083,2.083,0,0,0-.03.436c.046,1.05,2.166,2.128,3.49,1.691a1.933,1.933,0,0,0,1.121-2.741c.1-.2.2-.406.3-.614l0,0c0,.01.105-.227.215-.478.072-.166.142-.33.2-.487-.052-.034-.111-.069-.168-.1a8.561,8.561,0,0,0,.48-2.169A4,4,0,0,0,301.611,374.434Zm-2.133,4.087c-.263.513-.51.9-.766,1.394a.446.446,0,0,0-.06-.057,1.2,1.2,0,0,0-.859-.17c.117-.51.229-1.011.276-1.214.09-.4.545-3.254.737-4.155a2.835,2.835,0,0,1,1.279.939,2.325,2.325,0,0,1,.464,2.266l-.549,1.2C299.788,378.637,299.608,378.564,299.478,378.522Z" transform="translate(-282.991 -356.359)"/>
        <path id="Path_50236" data-name="Path 50236" d="M291.563,389.941a1.64,1.64,0,0,1-.739-.178,2.352,2.352,0,0,1-.644.083,1.692,1.692,0,0,1-1.277-.466c-1.113-.361-1.644-1.946-1.7-2.4l-.018-.173c-.01-.1-.025-.249-.042-.334l-.326-.364c-.274-.308-.942-1.057-1.263-1.376a2.712,2.712,0,0,1-.3-.066c-1.185-.327-1.89-2.659-1.893-2.681a.976.976,0,0,0-.137-.444,10.192,10.192,0,0,1-.567-.925c-.08-.141-.2-.348-.255-.437l-.023-.024c-1.2-1.241-.932-2.161-.5-2.715a.314.314,0,0,0,.041-.076c.006-.162,0-.477,0-.835a20.14,20.14,0,0,1,.053-2.124,4.818,4.818,0,0,1,.93-2.3c.267-.368,1.349-2.141,1.841-2.951l-2.153-3.613a1.483,1.483,0,0,1-.21-.751l-.014-2.135a1.7,1.7,0,0,1-.122-.727l.028-.57a3.014,3.014,0,0,1-.9-1.482,2.79,2.79,0,0,1-.732-1.968,4,4,0,0,1,.867-2.536,4.676,4.676,0,0,1,3.964-1.349l.033,0h.019c.083,0,.166,0,.257,0a4.633,4.633,0,0,1,3.65,1.577,4.3,4.3,0,0,1,.652,3.664,3.692,3.692,0,0,1-1.954,2.815c0,.037,0,.071,0,.1a1.655,1.655,0,0,1-.3.871l-.094.8.031.093a5.48,5.48,0,0,1,1.872-1.685c.506-.287.936-.5,1.281-.667a6.427,6.427,0,0,0,.624-.328.813.813,0,0,1,.07-.061,3.5,3.5,0,0,0,.3-.277,3.84,3.84,0,0,1,1.436-1.033,1.578,1.578,0,0,1,.8-.168s.031,0,.083.008a10.011,10.011,0,0,1,1.456.08,2.07,2.07,0,0,1,1.473.768c.044.056.2.232.377.424.141.043.294.091.419.134a5.636,5.636,0,0,1,1.977,1.225,1.927,1.927,0,0,1-.152,2.7,1.506,1.506,0,0,0-.161.238,1.954,1.954,0,0,1,.3,1.914c-.033.1-.08.257-.135.439a9.233,9.233,0,0,1-.75,2l-.036.058a8.918,8.918,0,0,1,1.431,1.45h0a5.425,5.425,0,0,1,1.153,4.187,9.443,9.443,0,0,1-.339,1.852,1.482,1.482,0,0,1-.066.833c-.067.178-.147.366-.229.555-.09.207-.182.406-.214.476h0l-.021.045a3.329,3.329,0,0,1,.009,1.514,3.485,3.485,0,0,1-2.308,2.613,4.778,4.778,0,0,1-3.987-.74l-.114-.081-.186.205-.275.3a22.576,22.576,0,0,0-.681,2.335,15.6,15.6,0,0,1,.174,1.869c-.007.233-.057.915-.1,1.259a1.711,1.711,0,0,1-1.276,1.508A1.66,1.66,0,0,1,291.563,389.941Zm.735-1.37-.014.035Zm-2.01-.568v0Zm-2.245-.638-.008.018Zm3.014-.022.011.016Zm-.911-.854a1.657,1.657,0,0,1,.185.1c-.029-.325-.071-.719-.1-.855a.67.67,0,0,0,.024.085c-.331-.99.885-4.272,1.151-4.619.083-.1.275-.321.511-.581.218-.24.635-.7.829-.937a3.055,3.055,0,0,1,.626-.978.944.944,0,0,0,.622-1.7l.275-1.211c.031-.14.155-.869.255-1.455.17-1,.362-2.139.479-2.681a1.656,1.656,0,0,0,.49-1.87,2.287,2.287,0,0,1,.708-1.244c.075-.1.214-.323.311-.477.089-.175.323-.947.422-1.276.013-.043.026-.085.038-.124a2.45,2.45,0,0,1-.442-1.346,3.273,3.273,0,0,1,.443-1.38c-.267-.089-.658-.2-.664-.2a1.49,1.49,0,0,1-.677-.416c-.119-.128-.343-.369-.536-.586a5.936,5.936,0,0,0-.676-.038c-.1.058-.186.113-.243.152a5.615,5.615,0,0,1-.655.626,5.388,5.388,0,0,1-1.3.782c-.326.16-.7.341-1.123.583a2.429,2.429,0,0,0-1.07,1.093,12.463,12.463,0,0,1-.858,1.28c-.186.259-.367.509-.48.682-.016.024-.034.06-.053.1a1.53,1.53,0,0,0-.851,1.864c-.041.078-.071.131-.1.176l-.29.475a38.676,38.676,0,0,1-2.252,3.548,2.8,2.8,0,0,0-.223.727c-.031.238-.028,1.207-.027,1.728a11.189,11.189,0,0,1-.026,1.232,3.06,3.06,0,0,1-.138.575,6.79,6.79,0,0,1,.514.824c.126.224.283.5.385.642a3.76,3.76,0,0,1,.651,1.607c.065.133.178.34.284.521a2.787,2.787,0,0,1,.378.152c.366.178.651.439,2.092,2.056.159.178.287.323.357.4A3.206,3.206,0,0,1,290.146,386.489Zm2.929-1.617c.011.033.021.069.032.109C293.1,384.946,293.088,384.909,293.075,384.871Zm-6.828-3.56Zm9.311-.677,0,.007Zm.393-.711a2.058,2.058,0,0,0,1.524.485.562.562,0,0,0,.345-.511,1.488,1.488,0,0,1-.086-1.489c.1-.188.192-.386.286-.584l0,0c-.039.01-.078.019-.118.026-.074.131-.148.265-.222.408a1.214,1.214,0,0,0-1.731,1.668Zm2.1.247h0Zm-12.989-6.018-.007.006Zm-2.068-2.138c-.017.017-.038.036-.06.061C282.953,372.054,282.973,372.034,282.993,372.014Zm14.989-1.086-.046.03Zm-.673-5.138q-.021.033-.04.066C297.283,365.833,297.3,365.811,297.31,365.789Zm-3.027-3.068-.012.016Zm-.427-.043h0Zm.948-.286.007.009Zm-8.95-1.445h0Zm1.526-.183h0Zm-3.117-1.624a1.018,1.018,0,0,0,.112.055,1.487,1.487,0,0,1,.914,1.238,1.489,1.489,0,0,1,1.375-1.016.537.537,0,0,0,.119-.014c.042-.019.085-.035.129-.049a1.738,1.738,0,0,0,.261-.682,1.663,1.663,0,0,0-.08-1.239,2.057,2.057,0,0,0-1.436-.437c-.043,0-.08,0-.117,0h-.09c-.029,0-.059,0-.088,0l-.029,0c-.93-.031-1.41.134-1.554.3a1.172,1.172,0,0,0-.157.625c.009.008.019.017.033.028a1.49,1.49,0,0,1,.566,1,.628.628,0,0,0,.042.19Zm-.669-1.253Z" transform="translate(-280.642 -354.01)"/>
      </g>
      <g id="Group_38388" data-name="Group 38388" transform="translate(188.259 355.497)">
        <path id="Path_50237" data-name="Path 50237" d="M292.593,376.707l-3.672-6.161-.039-5.717s2.313-2.264,3.084-1.024l-.7,5.97,2.138,6.42Z" transform="translate(-287.175 -361.267)" fill="url(#linear-gradient)"/>
        <g id="Group_38378" data-name="Group 38378" transform="translate(0.888 5.709)">
          <path id="Path_50238" data-name="Path 50238" d="M300.167,373.82s-.283-.932-.131-1.139,1.63-.016,1.63-.016a.637.637,0,0,1,.435.192c.142.185.741.828.741.828s.466.134.757.233a4.368,4.368,0,0,1,1.3.754c.2.246.223.425-.079.745a2.955,2.955,0,0,0-.682,1.326c-.009.3.646,1.066.553,1.212s-.52,1.838-.8,2.28a3.04,3.04,0,0,1-.641.848,12.3,12.3,0,0,0-.612,2.016c-.128.354-.7,3.954-.8,4.4s-.522,2.311-.6,2.582c-.222.782-.889,1.025-1.016,1.62-.038.178-1.332,1.543-1.516,1.775a15.071,15.071,0,0,0-.922,3.244,12.921,12.921,0,0,1,.187,1.74c-.005.179-.051.807-.089,1.105s-.246.35-.414.107-.337-.517-.431-.281-.917.567-.965.147.168-2.2-.146-2.541a18.818,18.818,0,0,0-2.036-1.761c-.259-.128-.473-.506-.592-.538a6.15,6.15,0,0,1-.84-1.46,2.448,2.448,0,0,0-.41-1.117c-.311-.427-.7-1.246-.9-1.461s-.651-.628-.475-.851a1.742,1.742,0,0,0,.343-.8c.037-.267-.021-2.391.052-2.956a3.4,3.4,0,0,1,.571-1.51c.211-.2,2.091-3.319,2.4-3.818s.722-1.712,1.028-2.181,1.069-1.464,1.255-1.818a3.871,3.871,0,0,1,1.663-1.716A20.014,20.014,0,0,0,300.167,373.82Z" transform="translate(-289.139 -372.581)" fill="url(#linear-gradient-2)"/>
          <path id="Path_50239" data-name="Path 50239" d="M296.3,373.723a4.18,4.18,0,0,0,.543-.521,4.826,4.826,0,0,1,.956-.63.634.634,0,0,1,.436.191c.142.183.74.828.74.828s.466.133.758.232a4.438,4.438,0,0,1,1.3.754c.2.246.222.426-.08.747a2.947,2.947,0,0,0-.682,1.325c-.01.3.644,1.065.552,1.213s-.522,1.84-.8,2.278a3.036,3.036,0,0,1-.639.85,12.27,12.27,0,0,0-.615,2.013c-.127.356-.7,3.957-.8,4.4s-.525,2.309-.6,2.582c-.22.782-.889,1.025-1.016,1.621-.04.176-1.334,1.542-1.516,1.774a15.012,15.012,0,0,0-.923,3.246,12.763,12.763,0,0,1,.188,1.738c-.005.179-.052.805-.09,1.1s-.245.351-.414.107-.338-.518-.433-.281-.685-.709-.734-1.128a2.143,2.143,0,0,0-.373-1.267,27.326,27.326,0,0,0-2.017-2.133,2.547,2.547,0,0,0-.612-.168,6.147,6.147,0,0,1-.841-1.457,2.463,2.463,0,0,0-.409-1.118c-.311-.43-.7-1.246-.9-1.462s-.649-.628-.475-.851a1.734,1.734,0,0,0,.345-.8c.036-.269-.022-2.392.052-2.957a3.347,3.347,0,0,1,.571-1.509c.21-.2,2.088-3.319,2.395-3.816s.724-1.715,1.031-2.184,1.068-1.464,1.254-1.818a3.889,3.889,0,0,1,1.664-1.716A18.74,18.74,0,0,0,296.3,373.723Z" transform="translate(-286.769 -372.572)" fill="url(#linear-gradient-3)"/>
        </g>
        <path id="Path_50240" data-name="Path 50240" d="M323.468,402.915a8.632,8.632,0,0,0,.485-2.187,4,4,0,0,0-.834-3.145,5.05,5.05,0,0,0-2.444-1.909.841.841,0,0,0-1.025.609.929.929,0,0,0,.339,1.035,3.567,3.567,0,0,1,1.6,1.09,2.325,2.325,0,0,1,.464,2.266l-.627,1.375S323.168,403.287,323.468,402.915Z" transform="translate(-305.986 -380.994)" fill="url(#linear-gradient-4)"/>
        <path id="Path_50241" data-name="Path 50241" d="M307.335,400.444a7.218,7.218,0,0,1-2.355.554,4.259,4.259,0,0,1-2.979-.864s.084.432.8.785a5.52,5.52,0,0,0,2.03.475,10.846,10.846,0,0,0,3.024-.24s.347-.811.124-.892C307.869,400.218,307.663,400.27,307.335,400.444Z" transform="translate(-295.208 -383.739)" fill="#3e3a39"/>
        <path id="Path_50242" data-name="Path 50242" d="M296.839,389.965a3.311,3.311,0,0,0,.438,1.725,9.989,9.989,0,0,0,1.106,1.769s-.019.5-.317.282a20.667,20.667,0,0,1-1.125-2.328,6.636,6.636,0,0,1-.269-1.079A1.1,1.1,0,0,1,296.839,389.965Z" transform="translate(-291.944 -377.513)" fill="#3e3a39"/>
        <g id="Group_38379" data-name="Group 38379" transform="translate(5.242 15.791)">
          <path id="Path_50243" data-name="Path 50243" d="M299.759,398.576s1.116.867,1.428,1.167a1.41,1.41,0,0,1-.668,1.062s-.957-.175-1.225-.784A1.8,1.8,0,0,1,299.759,398.576Z" transform="translate(-298.782 -398.576)" fill="#3e3a39"/>
          <path id="Path_50244" data-name="Path 50244" d="M298.732,402.389a8.2,8.2,0,0,0-.6,5.121l1.139,1.417.867-1.434s-1.013-3.189-.506-4.419Z" transform="translate(-298 -400.911)" fill="#3e3a39"/>
        </g>
        <g id="Group_38385" data-name="Group 38385">
          <g id="Group_38384" data-name="Group 38384">
            <path id="Path_50245" data-name="Path 50245" d="M288.713,369.971s-.069,1.417-.088,1.8c-.032.677,2.884.607,2.9.124s.086-1.8.086-1.8Z" transform="translate(-287.017 -365.27)" fill="url(#radial-gradient)"/>
            <g id="Group_38380" data-name="Group 38380" transform="translate(2.653 4.747)">
              <path id="Path_50246" data-name="Path 50246" d="M292.2,370.122l-.091,2.207a5.185,5.185,0,0,1-.787-.005l.091-2.234Z" transform="translate(-291.322 -370.089)" fill="#393433"/>
            </g>
            <g id="Group_38383" data-name="Group 38383">
              <g id="Group_38382" data-name="Group 38382">
                <path id="Path_50247" data-name="Path 50247" d="M291.9,361.326c.384-1.882-.274-3.347-2.911-3.459-2.667-.114-2.931,1.281-3,2.99-.047,1.152.281,1.783,1.181,2.111a14.379,14.379,0,0,0,3.294.174C291,363.165,291.651,362.566,291.9,361.326Z" transform="translate(-285.404 -357.855)" fill="url(#radial-gradient-2)"/>
                <path id="Path_50248" data-name="Path 50248" d="M290.744,360.578c-.194.822-1.2,1.634-3.441,1.54s-2.852-1.127-2.825-1.806c.04-.948.238-2.587,3.283-2.459C290.694,357.976,291.057,359.249,290.744,360.578Z" transform="translate(-284.478 -357.846)" fill="url(#radial-gradient-3)"/>
                <path id="Path_50249" data-name="Path 50249" d="M295.333,358.895c-.088.175.216.515.681.759s.911.3,1,.121-.214-.516-.68-.759S295.422,358.719,295.333,358.895Z" transform="translate(-291.115 -358.425)" fill="#bdbdbd"/>
                <g id="Group_38381" data-name="Group 38381" transform="translate(2.709 2.788)">
                  <path id="Path_50250" data-name="Path 50250" d="M292.731,366.545c-.357-.047-1.251-.243-1.265-.684-.014-.466.69-.863,1.679-.822,1.206.051,1.423,1.83.7,2.5h-.028s-.961.043-1.878.007a.519.519,0,0,1-.071-.1C291.6,366.951,292.456,366.62,292.731,366.545Z" transform="translate(-291.465 -365.036)" fill="#7d7d7d"/>
                </g>
                <path id="Path_50251" data-name="Path 50251" d="M294.463,367.22c1.026-.431.9-2.616-.433-2.673-.992-.042-1.821.209-1.806.678.012.439,1.034.666,1.391.714-.276.075-1.135.519-.859,1.015C292.971,367.341,293.82,367.491,294.463,367.22Z" transform="translate(-289.221 -361.946)" fill="url(#radial-gradient-4)"/>
              </g>
            </g>
          </g>
        </g>
        <g id="Group_38387" data-name="Group 38387" transform="translate(12.18 20.676)">
          <path id="Path_50252" data-name="Path 50252" d="M317.888,414.319c.7.423-.063,3.262-.633,2.957-1.2-.642-1.618-1.291-1.208-2.164C316.655,413.812,317.508,414.091,317.888,414.319Z" transform="translate(-315.894 -412.982)" fill="url(#radial-gradient-5)"/>
          <path id="Path_50253" data-name="Path 50253" d="M318.938,411.177c-.275.536-.532.937-.8,1.46a2.825,2.825,0,0,0-1.876,2.5c.046,1.05,2.166,2.128,3.49,1.691a1.933,1.933,0,0,0,1.121-2.741c.256-.509.531-1.076.722-1.577A16.38,16.38,0,0,0,318.938,411.177Z" transform="translate(-316.117 -411.177)" fill="url(#radial-gradient-6)"/>
          <g id="Group_38386" data-name="Group 38386" transform="translate(3.953 1.17)">
            <path id="Path_50254" data-name="Path 50254" d="M326.369,414.2l1.074.572c-.119.277-.252.561-.247.552l-1.106-.588Z" transform="translate(-326.091 -414.195)" fill="#bfbfbf"/>
          </g>
        </g>
      </g>
    </g>
  </g>
</svg>
