<svg xmlns="http://www.w3.org/2000/svg" xmlns:xlink="http://www.w3.org/1999/xlink" width="207.154" height="355" viewBox="0 0 207.154 355">
  <defs>
    <linearGradient id="linear-gradient" x1="-6.358" y1="0.74" x2="-3.872" y2="0.74" gradientUnits="objectBoundingBox">
      <stop offset="0.036" stop-color="#a58000"/>
      <stop offset="0.046" stop-color="#a88400"/>
      <stop offset="0.126" stop-color="#c6a705"/>
      <stop offset="0.201" stop-color="#dbc009"/>
      <stop offset="0.27" stop-color="#e8cf0b"/>
      <stop offset="0.325" stop-color="#edd50c"/>
      <stop offset="0.471" stop-color="#d7bc12"/>
      <stop offset="0.798" stop-color="#aa8921"/>
      <stop offset="0.994" stop-color="#a07d17"/>
    </linearGradient>
    <linearGradient id="linear-gradient-2" x1="63.404" y1="0.902" x2="64.379" y2="0.033" gradientUnits="objectBoundingBox">
      <stop offset="0.036" stop-color="#98660e"/>
      <stop offset="0.053" stop-color="#9e6e16"/>
      <stop offset="0.131" stop-color="#b68f39"/>
      <stop offset="0.204" stop-color="#c7a852"/>
      <stop offset="0.271" stop-color="#d2b661"/>
      <stop offset="0.325" stop-color="#d6bc67"/>
      <stop offset="0.474" stop-color="#c09f51"/>
      <stop offset="0.761" stop-color="#9a6c2a"/>
      <stop offset="0.994" stop-color="#9a6f28"/>
    </linearGradient>
    <linearGradient id="linear-gradient-3" x1="63.421" y1="0.883" x2="64.372" y2="0.034" gradientUnits="objectBoundingBox">
      <stop offset="0.036" stop-color="#d9aa29"/>
      <stop offset="0.122" stop-color="#e2bb1d"/>
      <stop offset="0.273" stop-color="#f0d40d"/>
      <stop offset="0.41" stop-color="#f9e303"/>
      <stop offset="0.521" stop-color="#fce900"/>
      <stop offset="0.616" stop-color="#edcd12"/>
      <stop offset="0.707" stop-color="#e3ba1f"/>
      <stop offset="0.77" stop-color="#e0b424"/>
      <stop offset="0.994" stop-color="#e8c544"/>
    </linearGradient>
    <linearGradient id="linear-gradient-4" x1="-9.124" y1="-6.013" x2="-6.769" y2="-6.013" xlink:href="#linear-gradient"/>
    <radialGradient id="radial-gradient" cx="-19.042" cy="368.876" r="52.836" gradientTransform="matrix(0.559, 0.526, -0.527, 0.56, -129.683, 154.153)" gradientUnits="userSpaceOnUse">
      <stop offset="0" stop-color="#545252"/>
      <stop offset="1" stop-color="#231815"/>
    </radialGradient>
    <radialGradient id="radial-gradient-2" cx="48.828" cy="407.568" r="48.138" gradientTransform="matrix(0.642, 0.605, -0.605, 0.643, -53.276, 157.231)" gradientUnits="userSpaceOnUse">
      <stop offset="0" stop-color="#666"/>
      <stop offset="1" stop-color="#262626"/>
    </radialGradient>
    <radialGradient id="radial-gradient-3" cx="5.431" cy="328.049" r="69.533" gradientTransform="matrix(0.49, 0.461, -0.462, 0.49, -151.525, 110.534)" gradientUnits="userSpaceOnUse">
      <stop offset="0" stop-color="#4f4f4f"/>
      <stop offset="0.441" stop-color="#343434"/>
      <stop offset="0.706" stop-color="#2b2b2b"/>
    </radialGradient>
    <radialGradient id="radial-gradient-4" cx="-21.842" cy="462.001" r="15.65" gradientTransform="matrix(0.702, 0.661, -0.662, 0.702, -27.83, 227.923)" gradientUnits="userSpaceOnUse">
      <stop offset="0" stop-color="#747373"/>
      <stop offset="1" stop-color="#383231"/>
    </radialGradient>
    <radialGradient id="radial-gradient-5" cx="-375.334" cy="399.42" r="23.939" gradientTransform="matrix(-0.934, -1.038, -0.892, 0.803, -1281.429, -682.384)" gradientUnits="userSpaceOnUse">
      <stop offset="0" stop-color="#707070"/>
      <stop offset="1" stop-color="#363636"/>
    </radialGradient>
    <radialGradient id="radial-gradient-6" cx="-517.773" cy="59.915" r="65.362" gradientTransform="matrix(-0.71, -0.81, -0.808, 0.709, -1679.128, -763.096)" gradientUnits="userSpaceOnUse">
      <stop offset="0" stop-color="#4f4f4f"/>
      <stop offset="0.027" stop-color="#4c4c4c"/>
      <stop offset="0.368" stop-color="#2c2c2c"/>
      <stop offset="0.656" stop-color="#181818"/>
      <stop offset="0.853" stop-color="#121212"/>
    </radialGradient>
  </defs>
  <g id="Group_38416" data-name="Group 38416" transform="translate(-280.642 -354.01)">
    <g id="Group_38404" data-name="Group 38404" transform="translate(280.642 354.01)">
      <path id="Path_50281" data-name="Path 50281" d="M453.754,521.741c-10.71-13.464-20.148-17.536-23.135-18.558.755-2.578,1.486-4.554,2.072-4.926,1.777-1.145,3.608-4.033,6.335-8.381,2.743-4.367,6.971-21.075,7.883-22.523s-5.558-9.021-5.466-11.974c.073-2.965,3.75-9.936,6.742-13.1s2.746-4.93.781-7.362c-1.957-2.413-9.978-6.493-12.847-7.45-2.877-.977-7.477-2.3-7.477-2.3s-5.914-6.351-7.32-8.178c-1.394-1.812-4.3-1.9-4.3-1.9s-9.009-1.134-13.6-.651a9.755,9.755,0,0,0-1.226-.184s-7.933,4.179-9.446,6.224a41.314,41.314,0,0,1-5.366,5.144c-3.275,3.16-10.606,5.615-21.5,11.794-10.924,6.2-14.59,13.468-16.44,16.953-1.835,3.5-9.365,13.341-12.391,17.964-.414.636-.85,1.425-1.3,2.3L324.854,441.9l1.965-16.593c1.337-.544,2.218-1.218,2.245-2,.111-2.685.36-7.933.567-12.031a18.421,18.421,0,0,0,6.638-1.321.432.432,0,0,1,.077-.05c4.842-1.031,10.143-6.883,12.353-17.758,3.8-18.6-2.712-33.071-28.759-34.171-.912-.038-1.731-.019-2.585-.023-.149-.012-.28-.027-.433-.031-30.084-1.264-32.041,14.927-32.436,24.3-.138,3.474,1.452,7.871,6.052,11.438.831,7.2,4.053,11.656,10.518,14.322-.218,4.416-.563,11.552-.693,14.1a2.614,2.614,0,0,0,1.2,2.206l.169,25.238L327.5,492.76c-.211.387-.429.82-.628,1.153-3.03,4.914-21.584,35.711-23.66,37.706-2.1,2-4.91,9.312-5.646,14.908s-.165,26.56-.517,29.214a17.132,17.132,0,0,1-3.409,7.883c-1.716,2.2,2.723,6.293,4.692,8.4,1.976,2.126,5.822,10.2,8.89,14.441a24.334,24.334,0,0,1,4.045,11.047c.241,1.777,7.155,14.08,8.308,14.395,1.141.341,3.486.41,6.044,1.662,2.574,1.256,16.823,17.746,19.926,21.071,3.084,3.332,3.229,8.369,3.689,12.514.483,4.137,6.359,13.4,7.255,11.143.931-2.337,2.589.372,4.275,2.777.881,1.3,1.877,1.678,2.67,1.371,2.555.628,7.2-1.636,7.879-3.3.931-2.325,2.582.36,4.263,2.781,1.662,2.4,3.731,1.881,4.091-1.053.379-2.945.831-9.147.881-10.92s-1.038-14.785-1.846-17.191c-.8-2.379,7.328-29.728,9.1-32.049,1.819-2.291,14.605-15.777,14.98-17.536.525-2.49,2.034-4.359,3.742-6.274a20.59,20.59,0,0,0-.3,4.305c.452,10.373,21.4,21.025,34.477,16.712,14.268-4.723,15.953-22.565,11.074-27.085.992-1.961,1.992-4.014,2.976-6.071l.038.023c-.042.1,1.042-2.241,2.122-4.723.716-1.636,1.406-3.26,2-4.807-.517-.337-1.1-.678-1.662-1.015a84.594,84.594,0,0,0,4.738-21.427C463.02,539.6,461.082,530.942,453.754,521.741Zm-21.071,40.384c-2.6,5.064-5.041,8.932-7.569,13.774a4.351,4.351,0,0,0-.6-.563,11.88,11.88,0,0,0-8.488-1.678c1.157-5.037,2.268-9.986,2.723-12,.892-3.915,5.382-32.152,7.285-41.05,4.47,2.045,9.607,4.593,12.633,9.277,6.4,9.9,6.538,13.027,4.589,22.389l-5.428,11.9C435.748,563.266,433.967,562.546,432.683,562.125Z" transform="translate(-269.784 -343.153)"/>
      <path id="Path_50282" data-name="Path 50282" d="M388.545,709.01a16.2,16.2,0,0,1-7.3-1.754,23.239,23.239,0,0,1-6.362.82,16.717,16.717,0,0,1-12.614-4.6c-11-3.566-16.241-19.228-16.766-23.76l-.176-1.7c-.1-1.019-.245-2.463-.417-3.3-.793-.881-1.919-2.137-3.225-3.6-2.708-3.045-9.308-10.446-12.476-13.594a26.82,26.82,0,0,1-2.93-.647c-11.709-3.233-18.677-26.269-18.708-26.491a9.648,9.648,0,0,0-1.356-4.39,100.749,100.749,0,0,1-5.6-9.135c-.789-1.394-1.946-3.44-2.524-4.321l-.23-.241c-11.809-12.257-9.208-21.354-4.949-26.828a3.1,3.1,0,0,0,.406-.755c.057-1.6.034-4.715.027-8.254-.027-10.1,0-17.015.521-20.987.8-6.109,3.888-16.869,9.189-22.714,2.635-3.639,13.326-21.155,18.194-29.157l-21.27-35.7a14.655,14.655,0,0,1-2.072-7.423l-.142-21.09a16.763,16.763,0,0,1-1.21-7.186l.276-5.631a29.777,29.777,0,0,1-8.925-14.64,27.565,27.565,0,0,1-7.236-19.447c.31-7.35,1.559-16.812,8.568-25.058,8.147-9.595,21.37-14.08,39.166-13.33l.329.019h.192c.823,0,1.643,0,2.536.038,16.371.693,28.517,5.933,36.059,15.582,5.006,6.4,10.185,17.873,6.443,36.2-2.8,13.751-9.867,23.8-19.309,27.808-.015.368-.031.7-.042,1.015a16.349,16.349,0,0,1-2.984,8.611l-.931,7.856.306.915a54.15,54.15,0,0,1,18.5-16.647c4.995-2.834,9.247-4.918,12.659-6.592a63.562,63.562,0,0,0,6.163-3.244,8.008,8.008,0,0,1,.689-.605,34.562,34.562,0,0,0,3.011-2.735c.839-1.145,3.294-4.462,14.188-10.208a15.6,15.6,0,0,1,7.879-1.659s.31.019.82.077a98.929,98.929,0,0,1,14.387.789c3.087.253,9.9,1.524,14.552,7.588.437.555,1.992,2.291,3.727,4.187,1.39.429,2.907.9,4.141,1.322.054.019,13.874,5.136,19.531,12.108,6.849,8.465,6.278,18.439-1.505,26.7a14.858,14.858,0,0,0-1.59,2.348c2.513,4.118,6.653,11.277,2.927,18.907-.329.98-.789,2.536-1.329,4.336-2.708,8.955-4.823,15.613-7.412,19.738-.123.191-.241.383-.36.571a88.1,88.1,0,0,1,14.138,14.326h0c9.457,11.867,12.755,23.856,11.4,41.372a93.292,93.292,0,0,1-3.352,18.3,14.642,14.642,0,0,1-.651,8.228c-.667,1.762-1.448,3.612-2.264,5.481-.889,2.042-1.8,4.01-2.111,4.7l-.023-.008c-.069.149-.134.295-.2.44a32.893,32.893,0,0,1,.088,14.958,34.432,34.432,0,0,1-22.806,25.817c-14.391,4.754-30.218-.973-39.4-7.316-.383-.264-.758-.532-1.13-.8-.582.647-1.2,1.322-1.835,2.03-1.061,1.168-2.011,2.214-2.72,3.007a223.063,223.063,0,0,0-6.73,23.074,154.1,154.1,0,0,1,1.724,18.466c-.065,2.306-.559,9.036-1,12.441-.9,7.446-5.742,13.2-12.61,14.9A16.394,16.394,0,0,1,388.545,709.01Zm7.262-13.537-.142.345C395.711,695.7,395.761,695.588,395.807,695.473Zm-19.857-5.615-.011.1Zm-22.186-6.3-.077.18C353.715,683.676,353.738,683.611,353.765,683.553Zm29.777-.215.107.157Zm-9-8.434a16.382,16.382,0,0,1,1.831.992c-.287-3.214-.7-7.105-.988-8.45a6.7,6.7,0,0,0,.241.835c-3.275-9.779,8.741-42.207,11.369-45.639.82-1.034,2.72-3.168,5.049-5.738,2.153-2.375,6.274-6.922,8.193-9.262a30.18,30.18,0,0,1,6.182-9.66,14.629,14.629,0,0,1,8.649-4.731,14.7,14.7,0,0,1-2.505-12.024l2.716-11.966c.31-1.383,1.536-8.588,2.517-14.375,1.682-9.905,3.581-21.132,4.73-26.491a14.688,14.688,0,0,1,5.432-8.591,14.673,14.673,0,0,1-.586-9.882c1.306-4.478,2.934-9.086,6.994-12.288.739-.992,2.118-3.191,3.072-4.711.881-1.731,3.187-9.358,4.167-12.61.13-.429.257-.835.371-1.226-2.283-3.807-4.524-8.105-4.363-13.3.1-4.275,2-9.254,4.378-13.636-2.635-.881-6.5-1.992-6.561-2.007a14.721,14.721,0,0,1-6.684-4.106c-1.18-1.268-3.386-3.65-5.294-5.792a58.6,58.6,0,0,0-6.676-.379c-.977.575-1.843,1.119-2.4,1.505a55.536,55.536,0,0,1-6.469,6.19c-3.447,3.133-7.615,5.175-12.817,7.726-3.221,1.582-6.872,3.367-11.1,5.765-6.933,3.938-9.124,8.067-10.568,10.8-1.586,3.018-4.252,6.784-8.473,12.648-1.843,2.563-3.627,5.033-4.746,6.738-.153.241-.333.6-.529.977a14.666,14.666,0,0,1-7.358,6.81,14.723,14.723,0,0,1-1.05,11.61c-.41.77-.7,1.295-.969,1.735l-2.861,4.7c-16.9,27.782-20.412,32.991-22.251,35.052a27.609,27.609,0,0,0-2.2,7.186c-.3,2.348-.28,11.924-.264,17.072.015,7.5.008,10.2-.257,12.177a30.234,30.234,0,0,1-1.36,5.684,67.064,67.064,0,0,1,5.079,8.14c1.249,2.21,2.8,4.956,3.8,6.339a37.149,37.149,0,0,1,6.427,15.873c.64,1.314,1.762,3.363,2.8,5.152a27.522,27.522,0,0,1,3.731,1.5c3.612,1.758,6.431,4.336,20.669,20.309,1.57,1.762,2.838,3.187,3.524,3.926C373.189,662,374.054,670.024,374.545,674.9Zm28.942-15.98c.107.326.211.686.314,1.08C403.713,659.659,403.61,659.3,403.487,658.924ZM336.03,623.749Zm91.994-6.688-.015.073Zm3.88-7.029c2.835,2.769,11.035,6.117,15.061,4.792,2.689-.889,3.279-3.685,3.405-5.045a14.7,14.7,0,0,1-.85-14.709c.942-1.862,1.9-3.811,2.827-5.769l.019-.038c-.383.1-.774.184-1.168.253-.728,1.3-1.459,2.62-2.195,4.033a14.7,14.7,0,0,1-19.041,6.615A14.664,14.664,0,0,1,431.9,610.033Zm20.742,2.436.011.008ZM324.309,553.014l-.065.061Zm-20.431-21.121c-.172.165-.375.356-.6.6C303.476,532.288,303.675,532.088,303.878,531.893ZM451.972,521.16l-.452.3C451.673,521.36,451.827,521.26,451.972,521.16Zm-6.65-50.768q-.207.327-.391.655C445.058,470.825,445.185,470.611,445.323,470.393Zm-29.908-30.31c-.038.054-.08.107-.122.161Zm-4.221-.425.008,0Zm9.361-2.823.065.084Zm-88.424-14.28-.012,0Zm15.076-1.8h0Zm-30.8-16.049a10.1,10.1,0,0,0,1.1.544,14.692,14.692,0,0,1,9.032,12.23,14.709,14.709,0,0,1,13.582-10.039,5.293,5.293,0,0,0,1.18-.142c.417-.184.839-.345,1.272-.486a17.168,17.168,0,0,0,2.578-6.742c1.157-5.657.866-10.112-.793-12.238-1.915-2.444-7.086-4.022-14.188-4.321-.425-.019-.789-.008-1.157-.011h-.889c-.291,0-.578-.012-.866-.031-.054,0-.172-.012-.284-.023-9.189-.306-13.927,1.322-15.356,3-1.053,1.237-1.4,3.712-1.547,6.178.084.077.192.172.322.272a14.72,14.72,0,0,1,5.592,9.924,6.216,6.216,0,0,0,.417,1.881ZM309.8,392.318Z" transform="translate(-280.642 -354.01)"/>
    </g>
    <g id="Group_38415" data-name="Group 38415" transform="translate(295.336 368.703)">
      <path id="Path_50283" data-name="Path 50283" d="M325.547,494.572,289.269,433.7l-.387-56.486s22.848-22.366,30.471-10.116l-6.964,58.98,21.121,63.427Z" transform="translate(-272.012 -342.03)" fill="url(#linear-gradient)"/>
      <g id="Group_38405" data-name="Group 38405" transform="translate(8.777 56.407)">
        <path id="Path_50284" data-name="Path 50284" d="M384.774,384.778s-2.792-9.212-1.3-11.254c1.505-2.015,16.107-.157,16.107-.157s2.907.088,4.3,1.9c1.406,1.827,7.32,8.178,7.32,8.178s4.6,1.325,7.477,2.3c2.869.958,10.89,5.037,12.847,7.45,1.965,2.432,2.206,4.2-.781,7.362s-6.669,10.135-6.742,13.1c-.092,2.953,6.378,10.53,5.466,11.974s-5.14,18.156-7.883,22.523c-2.727,4.348-4.558,7.236-6.335,8.381-1.75,1.119-4.8,16.39-6.048,19.914-1.26,3.5-6.883,39.07-7.891,43.49-.988,4.39-5.16,22.829-5.929,25.51-2.191,7.722-8.783,10.127-10.036,16.007-.375,1.758-13.161,15.245-14.98,17.536-1.777,2.321-9.9,29.67-9.1,32.049.808,2.405,1.892,15.429,1.846,17.191s-.5,7.975-.881,10.92c-.36,2.934-2.428,3.455-4.091,1.053-1.682-2.421-3.333-5.106-4.263-2.781-.916,2.241-9.055,5.6-9.53,1.456-.448-4.152,1.662-21.776-1.44-25.1-3.083-3.336-17.52-16.164-20.113-17.4-2.559-1.26-4.677-4.995-5.845-5.32s-8.067-12.636-8.3-14.421a24.186,24.186,0,0,0-4.049-11.039c-3.076-4.221-6.9-12.311-8.871-14.437s-6.427-6.205-4.688-8.4a17.212,17.212,0,0,0,3.394-7.879c.364-2.643-.207-23.626.509-29.207.747-5.615,3.57-12.908,5.642-14.923,2.088-1.992,20.661-32.8,23.695-37.725,3.015-4.93,7.132-16.915,10.158-21.554s10.56-14.464,12.4-17.961,5.52-10.779,16.429-16.953C374.157,390.343,381.48,387.911,384.774,384.778Z" transform="translate(-275.816 -372.532)" fill="url(#linear-gradient-2)"/>
        <path id="Path_50285" data-name="Path 50285" d="M380.9,383.941a41.314,41.314,0,0,0,5.366-5.144c1.513-2.045,9.446-6.224,9.446-6.224s2.911.073,4.309,1.888,7.308,8.182,7.308,8.182,4.6,1.314,7.492,2.291c2.873.973,10.874,5.037,12.855,7.446,1.957,2.432,2.195,4.213-.789,7.377s-6.669,10.135-6.734,13.092c-.1,2.965,6.358,10.522,5.458,11.981-.931,1.452-5.156,18.175-7.887,22.5-2.723,4.355-4.554,7.278-6.316,8.4s-4.819,16.386-6.075,19.887-6.887,39.1-7.864,43.513c-1,4.394-5.19,22.818-5.945,25.514-2.172,7.726-8.787,10.128-10.036,16.015-.391,1.743-13.18,15.233-14.981,17.528-1.8,2.317-9.905,29.685-9.116,32.072.82,2.367,1.9,15.406,1.858,17.172s-.517,7.956-.885,10.909-2.421,3.47-4.087,1.053c-1.685-2.405-3.344-5.114-4.275-2.777-.9,2.26-6.772-7.006-7.255-11.143-.46-4.145-.605-9.181-3.689-12.514-3.1-3.325-17.352-19.815-19.926-21.071-2.559-1.252-4.9-1.321-6.044-1.662-1.153-.314-8.067-12.617-8.308-14.395a24.334,24.334,0,0,0-4.045-11.047c-3.068-4.244-6.914-12.315-8.89-14.441-1.969-2.11-6.408-6.2-4.692-8.4a17.132,17.132,0,0,0,3.409-7.883c.352-2.654-.218-23.63.517-29.214s3.543-12.908,5.646-14.908c2.076-2,20.63-32.792,23.66-37.706,3.049-4.937,7.155-16.946,10.185-21.58s10.557-14.467,12.391-17.964c1.85-3.486,5.516-10.752,16.44-16.953C370.294,389.556,377.625,387.1,380.9,383.941Z" transform="translate(-286.769 -372.572)" fill="url(#linear-gradient-3)"/>
      </g>
      <path id="Path_50286" data-name="Path 50286" d="M357.78,467.417a85.3,85.3,0,0,0,4.788-21.6c1.03-13.215-.908-21.875-8.235-31.076-13-16.337-24.147-18.865-24.147-18.865s-7.657-2-10.124,6.021a9.181,9.181,0,0,0,3.348,10.223c4.949,2.379,12.047,4.907,15.839,10.767,6.4,9.9,6.538,13.027,4.589,22.389l-6.2,13.586S354.815,471.1,357.78,467.417Z" transform="translate(-185.056 -250.843)" fill="url(#linear-gradient-4)"/>
      <path id="Path_50287" data-name="Path 50287" d="M354.7,403.2a71.318,71.318,0,0,1-23.266,5.47c-9.476.509-20.324-1.149-29.433-8.538,0,0,.831,4.271,7.94,7.76,4.447,2.172,11.127,4.1,20.056,4.692a107.16,107.16,0,0,0,29.881-2.371s3.428-8.017,1.23-8.81C359.978,400.976,357.94,401.489,354.7,403.2Z" transform="translate(-234.88 -238.157)" fill="#3e3a39"/>
      <path id="Path_50288" data-name="Path 50288" d="M298.327,389.965s-.95,5.857,4.325,17.045a98.714,98.714,0,0,0,10.928,17.482s-.191,4.937-3.129,2.788c0,0-7.213-12.721-11.12-23a65.572,65.572,0,0,1-2.658-10.66S297.469,390.693,298.327,389.965Z" transform="translate(-249.964 -266.936)" fill="#3e3a39"/>
      <g id="Group_38406" data-name="Group 38406" transform="translate(51.795 156.012)">
        <path id="Path_50289" data-name="Path 50289" d="M304.037,398.576s11.024,8.565,14.111,11.526c0,0-.613,7.4-6.6,10.492,0,0-9.457-1.731-12.1-7.749C299.444,412.844,297.927,405.8,304.037,398.576Z" transform="translate(-294.385 -398.576)" fill="#3e3a39"/>
        <path id="Path_50290" data-name="Path 50290" d="M305.232,402.389s-10.92,18.562-5.922,50.6l11.25,14,8.561-14.165s-10.013-31.512-5-43.662Z" transform="translate(-298 -387.784)" fill="#3e3a39"/>
      </g>
      <g id="Group_38412" data-name="Group 38412">
        <g id="Group_38411" data-name="Group 38411">
          <path id="Path_50291" data-name="Path 50291" d="M289.5,369.971s-.682,14-.873,17.784c-.318,6.684,28.5,6,28.7,1.226.191-4.792.854-17.8.854-17.8Z" transform="translate(-272.741 -323.527)" fill="url(#radial-gradient)"/>
          <g id="Group_38407" data-name="Group 38407" transform="translate(26.216 46.896)">
            <path id="Path_50292" data-name="Path 50292" d="M300.005,370.411l-.9,21.8a51.2,51.2,0,0,1-7.78-.05l.9-22.074Z" transform="translate(-291.322 -370.089)" fill="#393433"/>
          </g>
          <g id="Group_38410" data-name="Group 38410">
            <g id="Group_38409" data-name="Group 38409">
              <path id="Path_50293" data-name="Path 50293" d="M344.419,392.1c3.8-18.6-2.712-33.071-28.759-34.171-26.349-1.126-28.954,12.652-29.628,29.544-.46,11.384,2.781,17.612,11.671,20.853,7.745,2.831,32.543,1.72,32.543,1.72C335.509,410.26,341.925,404.35,344.419,392.1Z" transform="translate(-280.198 -357.802)" fill="url(#radial-gradient-2)"/>
              <path id="Path_50294" data-name="Path 50294" d="M346.389,384.839c-1.915,8.124-11.9,16.141-33.995,15.218-22.078-.938-28.176-11.131-27.908-17.846.395-9.369,2.352-25.56,32.436-24.3C345.9,359.13,349.484,371.713,346.389,384.839Z" transform="translate(-284.478 -357.846)" fill="url(#radial-gradient-3)"/>
              <path id="Path_50295" data-name="Path 50295" d="M295.469,359.808c-.873,1.731,2.134,5.091,6.73,7.5,4.566,2.405,9,2.93,9.875,1.2s-2.114-5.1-6.715-7.5C300.777,358.616,296.349,358.073,295.469,359.808Z" transform="translate(-253.797 -355.168)" fill="#bdbdbd"/>
              <g id="Group_38408" data-name="Group 38408" transform="translate(26.765 27.543)">
                <path id="Path_50296" data-name="Path 50296" d="M303.97,379.939c-3.532-.46-12.361-2.4-12.5-6.757-.138-4.608,6.818-8.523,16.593-8.117,11.916.5,14.061,18.079,6.964,24.675-.088-.008-.184-.008-.276-.008,0,0-9.5.421-18.554.073a5.112,5.112,0,0,1-.7-.942C292.766,383.957,301.25,380.682,303.97,379.939Z" transform="translate(-291.465 -365.036)" fill="#7d7d7d"/>
              </g>
              <path id="Path_50297" data-name="Path 50297" d="M314.343,390.994c10.139-4.256,8.94-25.851-4.275-26.407-9.8-.414-18,2.061-17.842,6.7.119,4.336,10.212,6.581,13.743,7.059-2.731.739-11.212,5.129-8.492,10.032C299.6,392.193,307.985,393.671,314.343,390.994Z" transform="translate(-262.552 -338.892)" fill="url(#radial-gradient-4)"/>
            </g>
          </g>
        </g>
      </g>
      <g id="Group_38414" data-name="Group 38414" transform="translate(120.336 204.279)">
        <path id="Path_50298" data-name="Path 50298" d="M335.6,416.044c6.875,4.175-.62,32.233-6.251,29.218-11.878-6.347-15.988-12.751-11.939-21.381C323.413,411.033,331.836,413.784,335.6,416.044Z" transform="translate(-315.894 -402.833)" fill="url(#radial-gradient-5)"/>
        <path id="Path_50299" data-name="Path 50299" d="M342.731,411.177c-2.712,5.3-5.259,9.254-7.914,14.425-6.236,2.222-19.133,11.162-18.539,24.66.452,10.373,21.4,21.025,34.477,16.712,14.268-4.723,15.953-22.565,11.074-27.085,2.532-5.033,5.248-10.633,7.132-15.578C361.094,419.278,347.879,412.882,342.731,411.177Z" transform="translate(-314.861 -411.177)" fill="url(#radial-gradient-6)"/>
        <g id="Group_38413" data-name="Group 38413" transform="translate(39.058 11.56)">
          <path id="Path_50300" data-name="Path 50300" d="M328.841,414.2l10.61,5.654c-1.176,2.739-2.486,5.546-2.436,5.451l-10.924-5.807Z" transform="translate(-326.091 -414.195)" fill="#bfbfbf"/>
        </g>
      </g>
    </g>
  </g>
</svg>
