<?xml version="1.0" encoding="iso-8859-1"?>
<!-- Generator: Adobe Illustrator 19.0.0, SVG Export Plug-In . SVG Version: 6.00 Build 0)  -->
<svg version="1.1" id="Capa_1" xmlns="http://www.w3.org/2000/svg" xmlns:xlink="http://www.w3.org/1999/xlink" x="0px" y="0px"
	 viewBox="0 0 512 512" style="enable-background:new 0 0 512 512;" xml:space="preserve">
<g>
	<g>
		<rect x="331" y="271" width="30" height="30"/>
	</g>
</g>
<g>
	<g>
		<rect x="151" y="271" width="30" height="30"/>
	</g>
</g>
<g>
	<g>
		<path d="M451,271v-90h-60V91h60V0h-90v61h-60v60h-90V61h-60V0H61v91h60v90H61v90H0v150h61v30h60v61h120v-61h-90v-60h210v60h-90v61
			h120v-61h60v-30h61V271H451z M211,331h-90v-90h90V331z M391,331h-90v-90h90V331z"/>
	</g>
</g>
<g>
</g>
<g>
</g>
<g>
</g>
<g>
</g>
<g>
</g>
<g>
</g>
<g>
</g>
<g>
</g>
<g>
</g>
<g>
</g>
<g>
</g>
<g>
</g>
<g>
</g>
<g>
</g>
<g>
</g>
</svg>
