<svg xmlns="http://www.w3.org/2000/svg" width="104" height="40" viewBox="0 0 104 40">
  <g id="sponsor-title-1" transform="translate(-124 -2540)">
    <g id="Group_38286" data-name="Group 38286" transform="translate(63 959)">
      <rect id="Rectangle_8249" data-name="Rectangle 8249" width="8" height="8" transform="translate(109 1589)" fill="#f5c246"/>
      <rect id="Rectangle_8257" data-name="Rectangle 8257" width="8" height="8" transform="translate(117 1589)" fill="#f5c246"/>
      <rect id="Rectangle_8269" data-name="Rectangle 8269" width="8" height="8" transform="translate(125 1589)" fill="#f5c246"/>
      <rect id="Rectangle_8288" data-name="Rectangle 8288" width="8" height="8" transform="translate(141 1589)" fill="#f5c246"/>
      <rect id="Rectangle_8281" data-name="Rectangle 8281" width="8" height="8" transform="translate(133 1589)" fill="#f5c246"/>
      <rect id="Rectangle_8285" data-name="Rectangle 8285" width="8" height="8" transform="translate(149 1589)" fill="#f5c246"/>
      <rect id="Rectangle_20947" data-name="Rectangle 20947" width="8" height="8" transform="translate(157 1589)" fill="#f5c246"/>
      <rect id="Rectangle_8251" data-name="Rectangle 8251" width="8" height="8" transform="translate(101 1589)" fill="#f5c246"/>
      <rect id="Rectangle_8253" data-name="Rectangle 8253" width="8" height="8" transform="translate(93 1589)" fill="#f5c246"/>
      <rect id="Rectangle_8255" data-name="Rectangle 8255" width="8" height="8" transform="translate(85 1589)" fill="#f5c246"/>
      <rect id="Rectangle_8265" data-name="Rectangle 8265" width="8" height="8" transform="translate(77 1589)" fill="#f5c246"/>
      <rect id="Rectangle_8279" data-name="Rectangle 8279" width="8" height="8" transform="translate(69 1589)" fill="#f5c246"/>
      <rect id="Rectangle_20944" data-name="Rectangle 20944" width="8" height="8" transform="translate(61 1589)" fill="#f5c246"/>
      <rect id="Rectangle_20945" data-name="Rectangle 20945" width="8" height="8" transform="translate(61 1597)" fill="#f5c246"/>
      <rect id="Rectangle_20946" data-name="Rectangle 20946" width="8" height="8" transform="translate(61 1605)" fill="#f5c246"/>
      <rect id="Rectangle_8241" data-name="Rectangle 8241" width="8" height="8" transform="translate(85 1581)" fill="#f5c246"/>
      <rect id="Rectangle_8266" data-name="Rectangle 8266" width="8" height="8" transform="translate(77 1581)" fill="#f5c246"/>
      <rect id="Rectangle_8280" data-name="Rectangle 8280" width="8" height="8" transform="translate(69 1581)" fill="#f5c246"/>
      <rect id="Rectangle_8242" data-name="Rectangle 8242" width="8" height="8" transform="translate(93 1581)" fill="#f5c246"/>
      <rect id="Rectangle_8244" data-name="Rectangle 8244" width="8" height="8" transform="translate(101 1581)" fill="#f5c246"/>
      <rect id="Rectangle_8246" data-name="Rectangle 8246" width="8" height="8" transform="translate(109 1581)" fill="#f5c246"/>
      <rect id="Rectangle_8258" data-name="Rectangle 8258" width="8" height="8" transform="translate(117 1581)" fill="#f5c246"/>
      <rect id="Rectangle_8270" data-name="Rectangle 8270" width="8" height="8" transform="translate(125 1581)" fill="#f5c246"/>
      <rect id="Rectangle_8289" data-name="Rectangle 8289" width="8" height="8" transform="translate(141 1581)" fill="#f5c246"/>
      <rect id="Rectangle_8282" data-name="Rectangle 8282" width="8" height="8" transform="translate(133 1581)" fill="#f5c246"/>
      <rect id="Rectangle_8286" data-name="Rectangle 8286" width="8" height="8" transform="translate(149 1581)" fill="#f5c246"/>
      <rect id="Rectangle_8248" data-name="Rectangle 8248" width="8" height="8" transform="translate(109 1597)" fill="#f5c246"/>
      <rect id="Rectangle_8291" data-name="Rectangle 8291" width="8" height="8" transform="translate(109 1605)" fill="#f5c246"/>
      <rect id="Rectangle_8416" data-name="Rectangle 8416" width="8" height="8" transform="translate(109 1613)" fill="#f5c246"/>
      <rect id="Rectangle_8259" data-name="Rectangle 8259" width="8" height="8" transform="translate(117 1597)" fill="#f5c246"/>
      <rect id="Rectangle_8292" data-name="Rectangle 8292" width="8" height="8" transform="translate(117 1605)" fill="#f5c246"/>
      <rect id="Rectangle_8417" data-name="Rectangle 8417" width="8" height="8" transform="translate(117 1613)" fill="#f5c246"/>
      <rect id="Rectangle_8271" data-name="Rectangle 8271" width="8" height="8" transform="translate(125 1597)" fill="#f5c246"/>
      <rect id="Rectangle_8293" data-name="Rectangle 8293" width="8" height="8" transform="translate(125 1605)" fill="#f5c246"/>
      <rect id="Rectangle_8418" data-name="Rectangle 8418" width="8" height="8" transform="translate(125 1613)" fill="#f5c246"/>
      <rect id="Rectangle_8290" data-name="Rectangle 8290" width="8" height="8" transform="translate(141 1597)" fill="#f5c246"/>
      <rect id="Rectangle_8294" data-name="Rectangle 8294" width="8" height="8" transform="translate(141 1605)" fill="#f5c246"/>
      <rect id="Rectangle_8419" data-name="Rectangle 8419" width="8" height="8" transform="translate(141 1613)" fill="#f5c246"/>
      <rect id="Rectangle_8284" data-name="Rectangle 8284" width="8" height="8" transform="translate(133 1597)" fill="#f5c246"/>
      <rect id="Rectangle_8295" data-name="Rectangle 8295" width="8" height="8" transform="translate(133 1605)" fill="#f5c246"/>
      <rect id="Rectangle_8420" data-name="Rectangle 8420" width="8" height="8" transform="translate(133 1613)" fill="#f5c246"/>
      <rect id="Rectangle_8287" data-name="Rectangle 8287" width="8" height="8" transform="translate(149 1597)" fill="#f5c246"/>
      <rect id="Rectangle_20948" data-name="Rectangle 20948" width="8" height="8" transform="translate(157 1597)" fill="#f5c246"/>
      <rect id="Rectangle_8296" data-name="Rectangle 8296" width="8" height="8" transform="translate(149 1605)" fill="#f5c246"/>
      <rect id="Rectangle_20950" data-name="Rectangle 20950" width="8" height="8" transform="translate(157 1605)" fill="#f5c246"/>
      <rect id="Rectangle_8421" data-name="Rectangle 8421" width="8" height="8" transform="translate(149 1613)" fill="#f5c246"/>
      <rect id="Rectangle_8250" data-name="Rectangle 8250" width="8" height="8" transform="translate(101 1597)" fill="#f5c246"/>
      <rect id="Rectangle_8297" data-name="Rectangle 8297" width="8" height="8" transform="translate(101 1605)" fill="#f5c246"/>
      <rect id="Rectangle_8422" data-name="Rectangle 8422" width="8" height="8" transform="translate(101 1613)" fill="#f5c246"/>
      <rect id="Rectangle_8252" data-name="Rectangle 8252" width="8" height="8" transform="translate(93 1597)" fill="#f5c246"/>
      <rect id="Rectangle_8298" data-name="Rectangle 8298" width="8" height="8" transform="translate(93 1605)" fill="#f5c246"/>
      <rect id="Rectangle_8423" data-name="Rectangle 8423" width="8" height="8" transform="translate(93 1613)" fill="#f5c246"/>
      <rect id="Rectangle_8254" data-name="Rectangle 8254" width="8" height="8" transform="translate(85 1597)" fill="#f5c246"/>
      <rect id="Rectangle_8299" data-name="Rectangle 8299" width="8" height="8" transform="translate(85 1605)" fill="#f5c246"/>
      <rect id="Rectangle_8424" data-name="Rectangle 8424" width="8" height="8" transform="translate(85 1613)" fill="#f5c246"/>
      <rect id="Rectangle_8267" data-name="Rectangle 8267" width="8" height="8" transform="translate(77 1597)" fill="#f5c246"/>
      <rect id="Rectangle_8300" data-name="Rectangle 8300" width="8" height="8" transform="translate(77 1605)" fill="#f5c246"/>
      <rect id="Rectangle_8425" data-name="Rectangle 8425" width="8" height="8" transform="translate(77 1613)" fill="#f5c246"/>
      <rect id="Rectangle_8283" data-name="Rectangle 8283" width="8" height="8" transform="translate(69 1597)" fill="#f5c246"/>
      <rect id="Rectangle_8301" data-name="Rectangle 8301" width="8" height="8" transform="translate(69 1605)" fill="#f5c246"/>
      <rect id="Rectangle_8426" data-name="Rectangle 8426" width="8" height="8" transform="translate(69 1613)" fill="#f5c246"/>
    </g>
    <text id="主辦單位" transform="translate(212 2567)" fill="#fff" font-size="18" font-family="PingFangTC-Semibold, PingFang TC" font-weight="600"><tspan x="-72" y="0">主辦單位</tspan></text>
  </g>
</svg>
